%TF.GenerationSoftware,KiCad,Pcbnew,9.0.7*%
%TF.CreationDate,2026-02-15T10:00:23-06:00*%
%TF.ProjectId,grad_cap_display,67726164-5f63-4617-905f-646973706c61,rev?*%
%TF.SameCoordinates,Original*%
%TF.FileFunction,Copper,L3,Inr*%
%TF.FilePolarity,Positive*%
%FSLAX46Y46*%
G04 Gerber Fmt 4.6, Leading zero omitted, Abs format (unit mm)*
G04 Created by KiCad (PCBNEW 9.0.7) date 2026-02-15 10:00:23*
%MOMM*%
%LPD*%
G01*
G04 APERTURE LIST*
%TA.AperFunction,HeatsinkPad*%
%ADD10C,0.600000*%
%TD*%
G04 APERTURE END LIST*
D10*
%TO.N,GND*%
%TO.C,U204*%
X-232310000Y658280000D03*
X-232310000Y659680000D03*
X-233010000Y657580000D03*
X-233010000Y658980000D03*
X-233010000Y660380000D03*
X-233710000Y658280000D03*
X-233710000Y659680000D03*
X-234410000Y657580000D03*
X-234410000Y658980000D03*
X-234410000Y660380000D03*
X-235110000Y658280000D03*
X-235110000Y659680000D03*
%TD*%
%TA.AperFunction,Conductor*%
%TO.N,/ESP32 1/+3V3*%
G36*
X-256266961Y673779815D02*
G01*
X-256221206Y673727011D01*
X-256210000Y673675500D01*
X-256210000Y668190000D01*
X-248954500Y668190000D01*
X-248887461Y668170315D01*
X-248841706Y668117511D01*
X-248830500Y668066000D01*
X-248830500Y667904108D01*
X-248796392Y667776814D01*
X-248730500Y667662686D01*
X-248637314Y667569500D01*
X-248580250Y667536554D01*
X-248523187Y667503608D01*
X-248459539Y667486554D01*
X-248395892Y667469500D01*
X-248395891Y667469500D01*
X-214264108Y667469500D01*
X-214136812Y667503608D01*
X-214022686Y667569500D01*
X-214022683Y667569502D01*
X-213929502Y667662683D01*
X-213929500Y667662686D01*
X-213863608Y667776812D01*
X-213829500Y667904108D01*
X-213829500Y668066000D01*
X-213809815Y668133039D01*
X-213757011Y668178794D01*
X-213705500Y668190000D01*
X-208210000Y668190000D01*
X-208210000Y673675500D01*
X-208190315Y673742539D01*
X-208137511Y673788294D01*
X-208086000Y673799500D01*
X-195125892Y673799500D01*
X-195064428Y673799500D01*
X-195055582Y673799184D01*
X-195033622Y673797613D01*
X-194855442Y673784869D01*
X-194837931Y673782351D01*
X-194646212Y673740646D01*
X-194629236Y673735662D01*
X-194445390Y673667090D01*
X-194429297Y673659740D01*
X-194257091Y673565709D01*
X-194242208Y673556144D01*
X-194085135Y673438561D01*
X-194071764Y673426975D01*
X-193933024Y673288235D01*
X-193921438Y673274864D01*
X-193803855Y673117791D01*
X-193794290Y673102908D01*
X-193700259Y672930702D01*
X-193692909Y672914609D01*
X-193624334Y672730755D01*
X-193619355Y672713797D01*
X-193577648Y672522068D01*
X-193575130Y672504556D01*
X-193560816Y672304418D01*
X-193560500Y672295572D01*
X-193560500Y653654500D01*
X-193580185Y653587461D01*
X-193632989Y653541706D01*
X-193684500Y653530500D01*
X-196624108Y653530500D01*
X-196755892Y653530500D01*
X-196883186Y653496392D01*
X-196997314Y653430500D01*
X-197090500Y653337314D01*
X-197156392Y653223186D01*
X-197190500Y653095892D01*
X-197190500Y619095892D01*
X-197190500Y618964108D01*
X-197156392Y618836814D01*
X-197090500Y618722686D01*
X-196997314Y618629500D01*
X-196940250Y618596554D01*
X-196883187Y618563608D01*
X-196819539Y618546554D01*
X-196755892Y618529500D01*
X-193684500Y618529500D01*
X-193617461Y618509815D01*
X-193571706Y618457011D01*
X-193560500Y618405500D01*
X-193560500Y599764427D01*
X-193560815Y599755582D01*
X-193575130Y599555436D01*
X-193577646Y599537938D01*
X-193619356Y599346199D01*
X-193624333Y599329248D01*
X-193692909Y599145390D01*
X-193700256Y599129303D01*
X-193794294Y598957083D01*
X-193803850Y598942214D01*
X-193921443Y598785128D01*
X-193933017Y598771771D01*
X-194071771Y598633017D01*
X-194085128Y598621443D01*
X-194242214Y598503850D01*
X-194257083Y598494294D01*
X-194429303Y598400256D01*
X-194445385Y598392911D01*
X-194629248Y598324333D01*
X-194646199Y598319356D01*
X-194837938Y598277646D01*
X-194855436Y598275130D01*
X-195049994Y598261215D01*
X-195055582Y598260816D01*
X-195064428Y598260500D01*
X-213705500Y598260500D01*
X-213772539Y598280185D01*
X-213818294Y598332989D01*
X-213829500Y598384500D01*
X-213829500Y601155891D01*
X-213863608Y601283187D01*
X-213896554Y601340250D01*
X-213929500Y601397314D01*
X-214022686Y601490500D01*
X-214136814Y601556392D01*
X-214264108Y601590500D01*
X-248264108Y601590500D01*
X-248395892Y601590500D01*
X-248523186Y601556392D01*
X-248637314Y601490500D01*
X-248730500Y601397314D01*
X-248796392Y601283186D01*
X-248830500Y601155892D01*
X-248830500Y601155890D01*
X-248830500Y598384500D01*
X-248850185Y598317461D01*
X-248902989Y598271706D01*
X-248954500Y598260500D01*
X-267595572Y598260500D01*
X-267604418Y598260816D01*
X-267611016Y598261287D01*
X-267804561Y598275130D01*
X-267822063Y598277647D01*
X-268013797Y598319355D01*
X-268030755Y598324334D01*
X-268214609Y598392909D01*
X-268230702Y598400259D01*
X-268402908Y598494290D01*
X-268417791Y598503855D01*
X-268574864Y598621438D01*
X-268588235Y598633024D01*
X-268726975Y598771764D01*
X-268738561Y598785135D01*
X-268856144Y598942208D01*
X-268865709Y598957091D01*
X-268959740Y599129297D01*
X-268967090Y599145390D01*
X-269035662Y599329236D01*
X-269040646Y599346212D01*
X-269082351Y599537931D01*
X-269084869Y599555442D01*
X-269099184Y599755580D01*
X-269099500Y599764427D01*
X-269099500Y618405500D01*
X-269079815Y618472539D01*
X-269027011Y618518294D01*
X-268975500Y618529500D01*
X-267634108Y618529500D01*
X-267506812Y618563608D01*
X-267392686Y618629500D01*
X-267392683Y618629502D01*
X-267299502Y618722683D01*
X-267299500Y618722686D01*
X-267233608Y618836812D01*
X-267199500Y618964108D01*
X-267199500Y631213919D01*
X-201440500Y631213919D01*
X-201440500Y631066078D01*
X-201411659Y630921091D01*
X-201411656Y630921081D01*
X-201355087Y630784510D01*
X-201355080Y630784497D01*
X-201272951Y630661583D01*
X-201272948Y630661579D01*
X-201168419Y630557050D01*
X-201168415Y630557047D01*
X-201045501Y630474918D01*
X-201045488Y630474911D01*
X-200908917Y630418342D01*
X-200908907Y630418339D01*
X-200763920Y630389499D01*
X-200763918Y630389499D01*
X-200616080Y630389499D01*
X-200471092Y630418339D01*
X-200471082Y630418342D01*
X-200334511Y630474911D01*
X-200334498Y630474918D01*
X-200211584Y630557047D01*
X-200211580Y630557050D01*
X-200107051Y630661579D01*
X-200107048Y630661583D01*
X-200024919Y630784497D01*
X-200024912Y630784510D01*
X-199968343Y630921081D01*
X-199968340Y630921091D01*
X-199939500Y631066078D01*
X-199939500Y631213919D01*
X-199939499Y631213919D01*
X-199968340Y631358906D01*
X-199968343Y631358916D01*
X-200024912Y631495487D01*
X-200024919Y631495500D01*
X-200107048Y631618414D01*
X-200107051Y631618418D01*
X-200211580Y631722947D01*
X-200211584Y631722950D01*
X-200334498Y631805079D01*
X-200334511Y631805086D01*
X-200471082Y631861655D01*
X-200471087Y631861657D01*
X-200471092Y631861658D01*
X-200616080Y631890499D01*
X-200616082Y631890499D01*
X-200763918Y631890499D01*
X-200763920Y631890499D01*
X-200861462Y631871095D01*
X-200908913Y631861657D01*
X-201045495Y631805083D01*
X-201168416Y631722950D01*
X-201272951Y631618415D01*
X-201355084Y631495494D01*
X-201411658Y631358912D01*
X-201411659Y631358906D01*
X-201440500Y631213919D01*
X-267199500Y631213919D01*
X-267199500Y639213920D01*
X-201440500Y639213920D01*
X-201440500Y639066079D01*
X-201411659Y638921092D01*
X-201411656Y638921082D01*
X-201355087Y638784511D01*
X-201355080Y638784498D01*
X-201272951Y638661584D01*
X-201272948Y638661580D01*
X-201168419Y638557051D01*
X-201168415Y638557048D01*
X-201045501Y638474919D01*
X-201045488Y638474912D01*
X-200908917Y638418343D01*
X-200908907Y638418340D01*
X-200763920Y638389500D01*
X-200763918Y638389500D01*
X-200616080Y638389500D01*
X-200471092Y638418340D01*
X-200471082Y638418343D01*
X-200334511Y638474912D01*
X-200334498Y638474919D01*
X-200211584Y638557048D01*
X-200211580Y638557051D01*
X-200107051Y638661580D01*
X-200107048Y638661584D01*
X-200024919Y638784498D01*
X-200024912Y638784511D01*
X-199968343Y638921082D01*
X-199968340Y638921092D01*
X-199939500Y639066079D01*
X-199939500Y639213920D01*
X-199939499Y639213920D01*
X-199968340Y639358907D01*
X-199968343Y639358917D01*
X-200024912Y639495488D01*
X-200024919Y639495501D01*
X-200107048Y639618415D01*
X-200107051Y639618419D01*
X-200211580Y639722948D01*
X-200211584Y639722951D01*
X-200334498Y639805080D01*
X-200334511Y639805087D01*
X-200471082Y639861656D01*
X-200471087Y639861658D01*
X-200471092Y639861659D01*
X-200616080Y639890500D01*
X-200616082Y639890500D01*
X-200763918Y639890500D01*
X-200763920Y639890500D01*
X-200861462Y639871096D01*
X-200908913Y639861658D01*
X-201045495Y639805084D01*
X-201168416Y639722951D01*
X-201272951Y639618416D01*
X-201355084Y639495495D01*
X-201411658Y639358913D01*
X-201411659Y639358907D01*
X-201440500Y639213920D01*
X-267199500Y639213920D01*
X-267199500Y653095891D01*
X-267233608Y653223187D01*
X-267266554Y653280250D01*
X-267299500Y653337314D01*
X-267392686Y653430500D01*
X-267506814Y653496392D01*
X-267634108Y653530500D01*
X-267634110Y653530500D01*
X-268975500Y653530500D01*
X-269042539Y653550185D01*
X-269088294Y653602989D01*
X-269099500Y653654500D01*
X-269099500Y659758844D01*
X-235910500Y659758844D01*
X-235910500Y659601155D01*
X-235910499Y659601153D01*
X-235879737Y659446503D01*
X-235879735Y659446498D01*
X-235819397Y659300827D01*
X-235819390Y659300814D01*
X-235731789Y659169711D01*
X-235731786Y659169707D01*
X-235629760Y659067681D01*
X-235596275Y659006358D01*
X-235601259Y658936666D01*
X-235629760Y658892319D01*
X-235731786Y658790292D01*
X-235731789Y658790289D01*
X-235819394Y658659179D01*
X-235879737Y658513497D01*
X-235910499Y658358846D01*
X-235910500Y658358844D01*
X-235910500Y658201155D01*
X-235910499Y658201153D01*
X-235879737Y658046503D01*
X-235879735Y658046498D01*
X-235819397Y657900827D01*
X-235819390Y657900814D01*
X-235731789Y657769711D01*
X-235731786Y657769707D01*
X-235620292Y657658213D01*
X-235620288Y657658210D01*
X-235489185Y657570609D01*
X-235489172Y657570602D01*
X-235343501Y657510264D01*
X-235343492Y657510261D01*
X-235288166Y657499256D01*
X-235226256Y657466870D01*
X-235191682Y657406154D01*
X-235190750Y657401874D01*
X-235179737Y657346503D01*
X-235179736Y657346501D01*
X-235119397Y657200827D01*
X-235119390Y657200814D01*
X-235031789Y657069711D01*
X-235031786Y657069707D01*
X-234920292Y656958213D01*
X-234920288Y656958210D01*
X-234789185Y656870609D01*
X-234789172Y656870602D01*
X-234643501Y656810264D01*
X-234643489Y656810261D01*
X-234488846Y656779500D01*
X-234488842Y656779500D01*
X-234331153Y656779500D01*
X-234176510Y656810261D01*
X-234176498Y656810264D01*
X-234030827Y656870602D01*
X-234030814Y656870609D01*
X-233899711Y656958210D01*
X-233899707Y656958213D01*
X-233797681Y657060240D01*
X-233736358Y657093725D01*
X-233666666Y657088741D01*
X-233622319Y657060240D01*
X-233520292Y656958213D01*
X-233520288Y656958210D01*
X-233389185Y656870609D01*
X-233389172Y656870602D01*
X-233243501Y656810264D01*
X-233243489Y656810261D01*
X-233088846Y656779500D01*
X-233088842Y656779500D01*
X-232931153Y656779500D01*
X-232776510Y656810261D01*
X-232776498Y656810264D01*
X-232630827Y656870602D01*
X-232630814Y656870609D01*
X-232499711Y656958210D01*
X-232499707Y656958213D01*
X-232388213Y657069707D01*
X-232388210Y657069711D01*
X-232300609Y657200814D01*
X-232300602Y657200827D01*
X-232240264Y657346498D01*
X-232240262Y657346505D01*
X-232229256Y657401833D01*
X-232196870Y657463743D01*
X-232136153Y657498316D01*
X-232131833Y657499256D01*
X-232076505Y657510262D01*
X-232076498Y657510264D01*
X-231930827Y657570602D01*
X-231930814Y657570609D01*
X-231799711Y657658210D01*
X-231799707Y657658213D01*
X-231688213Y657769707D01*
X-231688210Y657769711D01*
X-231600609Y657900814D01*
X-231600602Y657900827D01*
X-231540264Y658046498D01*
X-231540261Y658046510D01*
X-231509500Y658201153D01*
X-231509500Y658358846D01*
X-231540261Y658513489D01*
X-231540264Y658513501D01*
X-231600602Y658659172D01*
X-231600609Y658659185D01*
X-231688210Y658790288D01*
X-231688213Y658790292D01*
X-231790240Y658892319D01*
X-231823725Y658953642D01*
X-231818741Y659023334D01*
X-231790240Y659067681D01*
X-231688213Y659169707D01*
X-231688210Y659169711D01*
X-231600609Y659300814D01*
X-231600602Y659300827D01*
X-231540264Y659446498D01*
X-231540261Y659446510D01*
X-231509500Y659601153D01*
X-231509500Y659758846D01*
X-231540261Y659913489D01*
X-231540264Y659913501D01*
X-231600602Y660059172D01*
X-231600609Y660059185D01*
X-231688210Y660190288D01*
X-231688213Y660190292D01*
X-231799707Y660301786D01*
X-231799711Y660301789D01*
X-231930814Y660389390D01*
X-231930827Y660389397D01*
X-232040082Y660434651D01*
X-232076503Y660449737D01*
X-232131831Y660460742D01*
X-232193740Y660493126D01*
X-232228315Y660553841D01*
X-232229256Y660558166D01*
X-232240261Y660613492D01*
X-232240264Y660613501D01*
X-232300602Y660759172D01*
X-232300609Y660759185D01*
X-232388210Y660890288D01*
X-232388213Y660890292D01*
X-232499707Y661001786D01*
X-232499711Y661001789D01*
X-232630814Y661089390D01*
X-232630827Y661089397D01*
X-232776498Y661149735D01*
X-232776503Y661149737D01*
X-232837858Y661161941D01*
X-232931155Y661180500D01*
X-232931158Y661180500D01*
X-233088842Y661180500D01*
X-233088845Y661180500D01*
X-233166520Y661165048D01*
X-233243497Y661149737D01*
X-233389179Y661089394D01*
X-233520289Y661001789D01*
X-233520292Y661001786D01*
X-233622319Y660899760D01*
X-233683642Y660866275D01*
X-233753334Y660871259D01*
X-233797681Y660899760D01*
X-233899707Y661001786D01*
X-233899711Y661001789D01*
X-234030814Y661089390D01*
X-234030827Y661089397D01*
X-234176498Y661149735D01*
X-234176503Y661149737D01*
X-234237858Y661161941D01*
X-234331155Y661180500D01*
X-234331158Y661180500D01*
X-234488842Y661180500D01*
X-234488845Y661180500D01*
X-234566520Y661165048D01*
X-234643497Y661149737D01*
X-234789179Y661089394D01*
X-234920289Y661001789D01*
X-235031789Y660890289D01*
X-235119394Y660759179D01*
X-235179737Y660613497D01*
X-235190742Y660558167D01*
X-235223125Y660496258D01*
X-235283841Y660461683D01*
X-235288118Y660460752D01*
X-235343497Y660449737D01*
X-235489179Y660389394D01*
X-235620289Y660301789D01*
X-235731789Y660190289D01*
X-235819394Y660059179D01*
X-235879737Y659913497D01*
X-235910499Y659758846D01*
X-235910500Y659758844D01*
X-269099500Y659758844D01*
X-269099500Y672295572D01*
X-269099184Y672304419D01*
X-269084869Y672504557D01*
X-269082351Y672522068D01*
X-269040646Y672713787D01*
X-269035662Y672730763D01*
X-268967090Y672914609D01*
X-268959740Y672930702D01*
X-268865709Y673102908D01*
X-268856144Y673117791D01*
X-268738561Y673274864D01*
X-268726975Y673288235D01*
X-268588235Y673426975D01*
X-268574864Y673438561D01*
X-268417791Y673556144D01*
X-268402908Y673565709D01*
X-268230702Y673659740D01*
X-268214609Y673667090D01*
X-268030763Y673735662D01*
X-268013787Y673740646D01*
X-267822068Y673782351D01*
X-267804557Y673784869D01*
X-267623779Y673797799D01*
X-267604417Y673799184D01*
X-267595572Y673799500D01*
X-267534108Y673799500D01*
X-256334000Y673799500D01*
X-256266961Y673779815D01*
G37*
%TD.AperFunction*%
%TD*%
M02*
