%TF.GenerationSoftware,KiCad,Pcbnew,9.0.7*%
%TF.CreationDate,2026-02-18T22:12:28-06:00*%
%TF.ProjectId,grad_cap_display,67726164-5f63-4617-905f-646973706c61,rev?*%
%TF.SameCoordinates,Original*%
%TF.FileFunction,Drillmap*%
%TF.FilePolarity,Positive*%
%FSLAX45Y45*%
G04 Gerber Fmt 4.5, Leading zero omitted, Abs format (unit mm)*
G04 Created by KiCad (PCBNEW 9.0.7) date 2026-02-18 22:12:28*
%MOMM*%
%LPD*%
G01*
G04 APERTURE LIST*
%ADD10C,0.050000*%
%ADD11C,0.200000*%
%ADD12C,0.100000*%
G04 APERTURE END LIST*
D10*
X2128000Y-636000D02*
X5528000Y-636000D01*
X7019500Y-2130000D02*
X7019500Y-5530000D01*
X1000Y-5530000D02*
X1000Y-7457000D01*
X5528000Y-7657000D02*
X7455000Y-7657000D01*
X2128000Y-7657000D02*
X2128000Y-7021500D01*
X7455000Y-3000D02*
X5528000Y-3000D01*
X5528000Y-7021500D02*
X5528000Y-7657000D01*
X2128000Y-636000D02*
X2128000Y-3000D01*
X1000Y-2130000D02*
X639000Y-2130000D01*
X7655000Y-2130000D02*
X7655000Y-203000D01*
X1000Y-203000D02*
G75*
G02*
X201000Y-3000I200000J0D01*
G01*
X7655000Y-5530000D02*
X7019500Y-5530000D01*
X1000Y-203000D02*
X1000Y-2130000D01*
X201000Y-7657000D02*
G75*
G02*
X1000Y-7457000I0J200000D01*
G01*
X201000Y-7657000D02*
X2128000Y-7657000D01*
X5528000Y-7021500D02*
X2128000Y-7021500D01*
X7655000Y-7457000D02*
X7655000Y-5530000D01*
X7655000Y-7457000D02*
G75*
G02*
X7455000Y-7657000I-200000J0D01*
G01*
X7455000Y-3000D02*
G75*
G02*
X7655000Y-203000I0J-200000D01*
G01*
X639000Y-5530000D02*
X639000Y-2130000D01*
X2128000Y-3000D02*
X201000Y-3000D01*
X7019500Y-2130000D02*
X7655000Y-2130000D01*
X5528000Y-3000D02*
X5528000Y-636000D01*
X639000Y-5530000D02*
X1000Y-5530000D01*
D11*
D12*
X6842000Y-3469000D02*
X6942000Y-3569000D01*
X6942000Y-3469000D02*
X6842000Y-3569000D01*
X6842000Y-4269000D02*
X6942000Y-4369000D01*
X6942000Y-4269000D02*
X6842000Y-4369000D01*
D11*
X259277Y-7970984D02*
X259277Y-7770984D01*
X259277Y-7770984D02*
X306896Y-7770984D01*
X306896Y-7770984D02*
X335467Y-7780508D01*
X335467Y-7780508D02*
X354515Y-7799555D01*
X354515Y-7799555D02*
X364039Y-7818603D01*
X364039Y-7818603D02*
X373562Y-7856698D01*
X373562Y-7856698D02*
X373562Y-7885269D01*
X373562Y-7885269D02*
X364039Y-7923365D01*
X364039Y-7923365D02*
X354515Y-7942412D01*
X354515Y-7942412D02*
X335467Y-7961460D01*
X335467Y-7961460D02*
X306896Y-7970984D01*
X306896Y-7970984D02*
X259277Y-7970984D01*
X459277Y-7970984D02*
X459277Y-7837650D01*
X459277Y-7875746D02*
X468801Y-7856698D01*
X468801Y-7856698D02*
X478324Y-7847174D01*
X478324Y-7847174D02*
X497372Y-7837650D01*
X497372Y-7837650D02*
X516420Y-7837650D01*
X583086Y-7970984D02*
X583086Y-7837650D01*
X583086Y-7770984D02*
X573563Y-7780508D01*
X573563Y-7780508D02*
X583086Y-7790031D01*
X583086Y-7790031D02*
X592610Y-7780508D01*
X592610Y-7780508D02*
X583086Y-7770984D01*
X583086Y-7770984D02*
X583086Y-7790031D01*
X706896Y-7970984D02*
X687848Y-7961460D01*
X687848Y-7961460D02*
X678324Y-7942412D01*
X678324Y-7942412D02*
X678324Y-7770984D01*
X811658Y-7970984D02*
X792610Y-7961460D01*
X792610Y-7961460D02*
X783086Y-7942412D01*
X783086Y-7942412D02*
X783086Y-7770984D01*
X1040229Y-7970984D02*
X1040229Y-7770984D01*
X1040229Y-7770984D02*
X1106896Y-7913841D01*
X1106896Y-7913841D02*
X1173563Y-7770984D01*
X1173563Y-7770984D02*
X1173563Y-7970984D01*
X1354515Y-7970984D02*
X1354515Y-7866222D01*
X1354515Y-7866222D02*
X1344991Y-7847174D01*
X1344991Y-7847174D02*
X1325944Y-7837650D01*
X1325944Y-7837650D02*
X1287848Y-7837650D01*
X1287848Y-7837650D02*
X1268801Y-7847174D01*
X1354515Y-7961460D02*
X1335467Y-7970984D01*
X1335467Y-7970984D02*
X1287848Y-7970984D01*
X1287848Y-7970984D02*
X1268801Y-7961460D01*
X1268801Y-7961460D02*
X1259277Y-7942412D01*
X1259277Y-7942412D02*
X1259277Y-7923365D01*
X1259277Y-7923365D02*
X1268801Y-7904317D01*
X1268801Y-7904317D02*
X1287848Y-7894793D01*
X1287848Y-7894793D02*
X1335467Y-7894793D01*
X1335467Y-7894793D02*
X1354515Y-7885269D01*
X1449753Y-7837650D02*
X1449753Y-8037650D01*
X1449753Y-7847174D02*
X1468801Y-7837650D01*
X1468801Y-7837650D02*
X1506896Y-7837650D01*
X1506896Y-7837650D02*
X1525943Y-7847174D01*
X1525943Y-7847174D02*
X1535467Y-7856698D01*
X1535467Y-7856698D02*
X1544991Y-7875746D01*
X1544991Y-7875746D02*
X1544991Y-7932888D01*
X1544991Y-7932888D02*
X1535467Y-7951936D01*
X1535467Y-7951936D02*
X1525943Y-7961460D01*
X1525943Y-7961460D02*
X1506896Y-7970984D01*
X1506896Y-7970984D02*
X1468801Y-7970984D01*
X1468801Y-7970984D02*
X1449753Y-7961460D01*
X1630705Y-7951936D02*
X1640229Y-7961460D01*
X1640229Y-7961460D02*
X1630705Y-7970984D01*
X1630705Y-7970984D02*
X1621182Y-7961460D01*
X1621182Y-7961460D02*
X1630705Y-7951936D01*
X1630705Y-7951936D02*
X1630705Y-7970984D01*
X1630705Y-7847174D02*
X1640229Y-7856698D01*
X1640229Y-7856698D02*
X1630705Y-7866222D01*
X1630705Y-7866222D02*
X1621182Y-7856698D01*
X1621182Y-7856698D02*
X1630705Y-7847174D01*
X1630705Y-7847174D02*
X1630705Y-7866222D01*
D12*
X-101500Y-8249500D02*
X-1500Y-8349500D01*
X-1500Y-8249500D02*
X-101500Y-8349500D01*
D11*
X364039Y-8390984D02*
X249753Y-8390984D01*
X306896Y-8390984D02*
X306896Y-8190984D01*
X306896Y-8190984D02*
X287848Y-8219555D01*
X287848Y-8219555D02*
X268801Y-8238603D01*
X268801Y-8238603D02*
X249753Y-8248127D01*
X449753Y-8371936D02*
X459277Y-8381460D01*
X459277Y-8381460D02*
X449753Y-8390984D01*
X449753Y-8390984D02*
X440229Y-8381460D01*
X440229Y-8381460D02*
X449753Y-8371936D01*
X449753Y-8371936D02*
X449753Y-8390984D01*
X583086Y-8190984D02*
X602134Y-8190984D01*
X602134Y-8190984D02*
X621182Y-8200508D01*
X621182Y-8200508D02*
X630705Y-8210031D01*
X630705Y-8210031D02*
X640229Y-8229079D01*
X640229Y-8229079D02*
X649753Y-8267174D01*
X649753Y-8267174D02*
X649753Y-8314793D01*
X649753Y-8314793D02*
X640229Y-8352888D01*
X640229Y-8352888D02*
X630705Y-8371936D01*
X630705Y-8371936D02*
X621182Y-8381460D01*
X621182Y-8381460D02*
X602134Y-8390984D01*
X602134Y-8390984D02*
X583086Y-8390984D01*
X583086Y-8390984D02*
X564039Y-8381460D01*
X564039Y-8381460D02*
X554515Y-8371936D01*
X554515Y-8371936D02*
X544991Y-8352888D01*
X544991Y-8352888D02*
X535467Y-8314793D01*
X535467Y-8314793D02*
X535467Y-8267174D01*
X535467Y-8267174D02*
X544991Y-8229079D01*
X544991Y-8229079D02*
X554515Y-8210031D01*
X554515Y-8210031D02*
X564039Y-8200508D01*
X564039Y-8200508D02*
X583086Y-8190984D01*
X773562Y-8190984D02*
X792610Y-8190984D01*
X792610Y-8190984D02*
X811658Y-8200508D01*
X811658Y-8200508D02*
X821182Y-8210031D01*
X821182Y-8210031D02*
X830705Y-8229079D01*
X830705Y-8229079D02*
X840229Y-8267174D01*
X840229Y-8267174D02*
X840229Y-8314793D01*
X840229Y-8314793D02*
X830705Y-8352888D01*
X830705Y-8352888D02*
X821182Y-8371936D01*
X821182Y-8371936D02*
X811658Y-8381460D01*
X811658Y-8381460D02*
X792610Y-8390984D01*
X792610Y-8390984D02*
X773562Y-8390984D01*
X773562Y-8390984D02*
X754515Y-8381460D01*
X754515Y-8381460D02*
X744991Y-8371936D01*
X744991Y-8371936D02*
X735467Y-8352888D01*
X735467Y-8352888D02*
X725943Y-8314793D01*
X725943Y-8314793D02*
X725943Y-8267174D01*
X725943Y-8267174D02*
X735467Y-8229079D01*
X735467Y-8229079D02*
X744991Y-8210031D01*
X744991Y-8210031D02*
X754515Y-8200508D01*
X754515Y-8200508D02*
X773562Y-8190984D01*
X964039Y-8190984D02*
X983086Y-8190984D01*
X983086Y-8190984D02*
X1002134Y-8200508D01*
X1002134Y-8200508D02*
X1011658Y-8210031D01*
X1011658Y-8210031D02*
X1021182Y-8229079D01*
X1021182Y-8229079D02*
X1030705Y-8267174D01*
X1030705Y-8267174D02*
X1030705Y-8314793D01*
X1030705Y-8314793D02*
X1021182Y-8352888D01*
X1021182Y-8352888D02*
X1011658Y-8371936D01*
X1011658Y-8371936D02*
X1002134Y-8381460D01*
X1002134Y-8381460D02*
X983086Y-8390984D01*
X983086Y-8390984D02*
X964039Y-8390984D01*
X964039Y-8390984D02*
X944991Y-8381460D01*
X944991Y-8381460D02*
X935467Y-8371936D01*
X935467Y-8371936D02*
X925943Y-8352888D01*
X925943Y-8352888D02*
X916420Y-8314793D01*
X916420Y-8314793D02*
X916420Y-8267174D01*
X916420Y-8267174D02*
X925943Y-8229079D01*
X925943Y-8229079D02*
X935467Y-8210031D01*
X935467Y-8210031D02*
X944991Y-8200508D01*
X944991Y-8200508D02*
X964039Y-8190984D01*
X1116420Y-8390984D02*
X1116420Y-8257650D01*
X1116420Y-8276698D02*
X1125944Y-8267174D01*
X1125944Y-8267174D02*
X1144991Y-8257650D01*
X1144991Y-8257650D02*
X1173563Y-8257650D01*
X1173563Y-8257650D02*
X1192610Y-8267174D01*
X1192610Y-8267174D02*
X1202134Y-8286222D01*
X1202134Y-8286222D02*
X1202134Y-8390984D01*
X1202134Y-8286222D02*
X1211658Y-8267174D01*
X1211658Y-8267174D02*
X1230705Y-8257650D01*
X1230705Y-8257650D02*
X1259277Y-8257650D01*
X1259277Y-8257650D02*
X1278325Y-8267174D01*
X1278325Y-8267174D02*
X1287848Y-8286222D01*
X1287848Y-8286222D02*
X1287848Y-8390984D01*
X1383086Y-8390984D02*
X1383086Y-8257650D01*
X1383086Y-8276698D02*
X1392610Y-8267174D01*
X1392610Y-8267174D02*
X1411658Y-8257650D01*
X1411658Y-8257650D02*
X1440229Y-8257650D01*
X1440229Y-8257650D02*
X1459277Y-8267174D01*
X1459277Y-8267174D02*
X1468801Y-8286222D01*
X1468801Y-8286222D02*
X1468801Y-8390984D01*
X1468801Y-8286222D02*
X1478324Y-8267174D01*
X1478324Y-8267174D02*
X1497372Y-8257650D01*
X1497372Y-8257650D02*
X1525943Y-8257650D01*
X1525943Y-8257650D02*
X1544991Y-8267174D01*
X1544991Y-8267174D02*
X1554515Y-8286222D01*
X1554515Y-8286222D02*
X1554515Y-8390984D01*
X1944991Y-8181460D02*
X1773563Y-8438603D01*
X2202134Y-8190984D02*
X2221182Y-8190984D01*
X2221182Y-8190984D02*
X2240229Y-8200508D01*
X2240229Y-8200508D02*
X2249753Y-8210031D01*
X2249753Y-8210031D02*
X2259277Y-8229079D01*
X2259277Y-8229079D02*
X2268801Y-8267174D01*
X2268801Y-8267174D02*
X2268801Y-8314793D01*
X2268801Y-8314793D02*
X2259277Y-8352888D01*
X2259277Y-8352888D02*
X2249753Y-8371936D01*
X2249753Y-8371936D02*
X2240229Y-8381460D01*
X2240229Y-8381460D02*
X2221182Y-8390984D01*
X2221182Y-8390984D02*
X2202134Y-8390984D01*
X2202134Y-8390984D02*
X2183087Y-8381460D01*
X2183087Y-8381460D02*
X2173563Y-8371936D01*
X2173563Y-8371936D02*
X2164039Y-8352888D01*
X2164039Y-8352888D02*
X2154515Y-8314793D01*
X2154515Y-8314793D02*
X2154515Y-8267174D01*
X2154515Y-8267174D02*
X2164039Y-8229079D01*
X2164039Y-8229079D02*
X2173563Y-8210031D01*
X2173563Y-8210031D02*
X2183087Y-8200508D01*
X2183087Y-8200508D02*
X2202134Y-8190984D01*
X2354515Y-8371936D02*
X2364039Y-8381460D01*
X2364039Y-8381460D02*
X2354515Y-8390984D01*
X2354515Y-8390984D02*
X2344991Y-8381460D01*
X2344991Y-8381460D02*
X2354515Y-8371936D01*
X2354515Y-8371936D02*
X2354515Y-8390984D01*
X2487848Y-8190984D02*
X2506896Y-8190984D01*
X2506896Y-8190984D02*
X2525944Y-8200508D01*
X2525944Y-8200508D02*
X2535468Y-8210031D01*
X2535468Y-8210031D02*
X2544991Y-8229079D01*
X2544991Y-8229079D02*
X2554515Y-8267174D01*
X2554515Y-8267174D02*
X2554515Y-8314793D01*
X2554515Y-8314793D02*
X2544991Y-8352888D01*
X2544991Y-8352888D02*
X2535468Y-8371936D01*
X2535468Y-8371936D02*
X2525944Y-8381460D01*
X2525944Y-8381460D02*
X2506896Y-8390984D01*
X2506896Y-8390984D02*
X2487848Y-8390984D01*
X2487848Y-8390984D02*
X2468801Y-8381460D01*
X2468801Y-8381460D02*
X2459277Y-8371936D01*
X2459277Y-8371936D02*
X2449753Y-8352888D01*
X2449753Y-8352888D02*
X2440229Y-8314793D01*
X2440229Y-8314793D02*
X2440229Y-8267174D01*
X2440229Y-8267174D02*
X2449753Y-8229079D01*
X2449753Y-8229079D02*
X2459277Y-8210031D01*
X2459277Y-8210031D02*
X2468801Y-8200508D01*
X2468801Y-8200508D02*
X2487848Y-8190984D01*
X2621182Y-8190984D02*
X2744991Y-8190984D01*
X2744991Y-8190984D02*
X2678325Y-8267174D01*
X2678325Y-8267174D02*
X2706896Y-8267174D01*
X2706896Y-8267174D02*
X2725944Y-8276698D01*
X2725944Y-8276698D02*
X2735468Y-8286222D01*
X2735468Y-8286222D02*
X2744991Y-8305269D01*
X2744991Y-8305269D02*
X2744991Y-8352888D01*
X2744991Y-8352888D02*
X2735468Y-8371936D01*
X2735468Y-8371936D02*
X2725944Y-8381460D01*
X2725944Y-8381460D02*
X2706896Y-8390984D01*
X2706896Y-8390984D02*
X2649753Y-8390984D01*
X2649753Y-8390984D02*
X2630706Y-8381460D01*
X2630706Y-8381460D02*
X2621182Y-8371936D01*
X2840229Y-8390984D02*
X2878325Y-8390984D01*
X2878325Y-8390984D02*
X2897372Y-8381460D01*
X2897372Y-8381460D02*
X2906896Y-8371936D01*
X2906896Y-8371936D02*
X2925944Y-8343365D01*
X2925944Y-8343365D02*
X2935467Y-8305269D01*
X2935467Y-8305269D02*
X2935467Y-8229079D01*
X2935467Y-8229079D02*
X2925944Y-8210031D01*
X2925944Y-8210031D02*
X2916420Y-8200508D01*
X2916420Y-8200508D02*
X2897372Y-8190984D01*
X2897372Y-8190984D02*
X2859277Y-8190984D01*
X2859277Y-8190984D02*
X2840229Y-8200508D01*
X2840229Y-8200508D02*
X2830706Y-8210031D01*
X2830706Y-8210031D02*
X2821182Y-8229079D01*
X2821182Y-8229079D02*
X2821182Y-8276698D01*
X2821182Y-8276698D02*
X2830706Y-8295746D01*
X2830706Y-8295746D02*
X2840229Y-8305269D01*
X2840229Y-8305269D02*
X2859277Y-8314793D01*
X2859277Y-8314793D02*
X2897372Y-8314793D01*
X2897372Y-8314793D02*
X2916420Y-8305269D01*
X2916420Y-8305269D02*
X2925944Y-8295746D01*
X2925944Y-8295746D02*
X2935467Y-8276698D01*
X3106896Y-8257650D02*
X3106896Y-8390984D01*
X3059277Y-8181460D02*
X3011658Y-8324317D01*
X3011658Y-8324317D02*
X3135467Y-8324317D01*
X3202134Y-8190984D02*
X3202134Y-8229079D01*
X3278325Y-8190984D02*
X3278325Y-8229079D01*
X3573563Y-8467174D02*
X3564039Y-8457650D01*
X3564039Y-8457650D02*
X3544991Y-8429079D01*
X3544991Y-8429079D02*
X3535468Y-8410031D01*
X3535468Y-8410031D02*
X3525944Y-8381460D01*
X3525944Y-8381460D02*
X3516420Y-8333841D01*
X3516420Y-8333841D02*
X3516420Y-8295746D01*
X3516420Y-8295746D02*
X3525944Y-8248127D01*
X3525944Y-8248127D02*
X3535468Y-8219555D01*
X3535468Y-8219555D02*
X3544991Y-8200508D01*
X3544991Y-8200508D02*
X3564039Y-8171936D01*
X3564039Y-8171936D02*
X3573563Y-8162412D01*
X3640229Y-8210031D02*
X3649753Y-8200508D01*
X3649753Y-8200508D02*
X3668801Y-8190984D01*
X3668801Y-8190984D02*
X3716420Y-8190984D01*
X3716420Y-8190984D02*
X3735468Y-8200508D01*
X3735468Y-8200508D02*
X3744991Y-8210031D01*
X3744991Y-8210031D02*
X3754515Y-8229079D01*
X3754515Y-8229079D02*
X3754515Y-8248127D01*
X3754515Y-8248127D02*
X3744991Y-8276698D01*
X3744991Y-8276698D02*
X3630706Y-8390984D01*
X3630706Y-8390984D02*
X3754515Y-8390984D01*
X3992610Y-8390984D02*
X3992610Y-8190984D01*
X4078325Y-8390984D02*
X4078325Y-8286222D01*
X4078325Y-8286222D02*
X4068801Y-8267174D01*
X4068801Y-8267174D02*
X4049753Y-8257650D01*
X4049753Y-8257650D02*
X4021182Y-8257650D01*
X4021182Y-8257650D02*
X4002134Y-8267174D01*
X4002134Y-8267174D02*
X3992610Y-8276698D01*
X4202134Y-8390984D02*
X4183087Y-8381460D01*
X4183087Y-8381460D02*
X4173563Y-8371936D01*
X4173563Y-8371936D02*
X4164039Y-8352888D01*
X4164039Y-8352888D02*
X4164039Y-8295746D01*
X4164039Y-8295746D02*
X4173563Y-8276698D01*
X4173563Y-8276698D02*
X4183087Y-8267174D01*
X4183087Y-8267174D02*
X4202134Y-8257650D01*
X4202134Y-8257650D02*
X4230706Y-8257650D01*
X4230706Y-8257650D02*
X4249753Y-8267174D01*
X4249753Y-8267174D02*
X4259277Y-8276698D01*
X4259277Y-8276698D02*
X4268801Y-8295746D01*
X4268801Y-8295746D02*
X4268801Y-8352888D01*
X4268801Y-8352888D02*
X4259277Y-8371936D01*
X4259277Y-8371936D02*
X4249753Y-8381460D01*
X4249753Y-8381460D02*
X4230706Y-8390984D01*
X4230706Y-8390984D02*
X4202134Y-8390984D01*
X4383087Y-8390984D02*
X4364039Y-8381460D01*
X4364039Y-8381460D02*
X4354515Y-8362412D01*
X4354515Y-8362412D02*
X4354515Y-8190984D01*
X4535468Y-8381460D02*
X4516420Y-8390984D01*
X4516420Y-8390984D02*
X4478325Y-8390984D01*
X4478325Y-8390984D02*
X4459277Y-8381460D01*
X4459277Y-8381460D02*
X4449753Y-8362412D01*
X4449753Y-8362412D02*
X4449753Y-8286222D01*
X4449753Y-8286222D02*
X4459277Y-8267174D01*
X4459277Y-8267174D02*
X4478325Y-8257650D01*
X4478325Y-8257650D02*
X4516420Y-8257650D01*
X4516420Y-8257650D02*
X4535468Y-8267174D01*
X4535468Y-8267174D02*
X4544992Y-8286222D01*
X4544992Y-8286222D02*
X4544992Y-8305269D01*
X4544992Y-8305269D02*
X4449753Y-8324317D01*
X4621182Y-8381460D02*
X4640230Y-8390984D01*
X4640230Y-8390984D02*
X4678325Y-8390984D01*
X4678325Y-8390984D02*
X4697373Y-8381460D01*
X4697373Y-8381460D02*
X4706896Y-8362412D01*
X4706896Y-8362412D02*
X4706896Y-8352888D01*
X4706896Y-8352888D02*
X4697373Y-8333841D01*
X4697373Y-8333841D02*
X4678325Y-8324317D01*
X4678325Y-8324317D02*
X4649753Y-8324317D01*
X4649753Y-8324317D02*
X4630706Y-8314793D01*
X4630706Y-8314793D02*
X4621182Y-8295746D01*
X4621182Y-8295746D02*
X4621182Y-8286222D01*
X4621182Y-8286222D02*
X4630706Y-8267174D01*
X4630706Y-8267174D02*
X4649753Y-8257650D01*
X4649753Y-8257650D02*
X4678325Y-8257650D01*
X4678325Y-8257650D02*
X4697373Y-8267174D01*
X4773563Y-8467174D02*
X4783087Y-8457650D01*
X4783087Y-8457650D02*
X4802134Y-8429079D01*
X4802134Y-8429079D02*
X4811658Y-8410031D01*
X4811658Y-8410031D02*
X4821182Y-8381460D01*
X4821182Y-8381460D02*
X4830706Y-8333841D01*
X4830706Y-8333841D02*
X4830706Y-8295746D01*
X4830706Y-8295746D02*
X4821182Y-8248127D01*
X4821182Y-8248127D02*
X4811658Y-8219555D01*
X4811658Y-8219555D02*
X4802134Y-8200508D01*
X4802134Y-8200508D02*
X4783087Y-8171936D01*
X4783087Y-8171936D02*
X4773563Y-8162412D01*
X5135468Y-8467174D02*
X5125944Y-8457650D01*
X5125944Y-8457650D02*
X5106896Y-8429079D01*
X5106896Y-8429079D02*
X5097373Y-8410031D01*
X5097373Y-8410031D02*
X5087849Y-8381460D01*
X5087849Y-8381460D02*
X5078325Y-8333841D01*
X5078325Y-8333841D02*
X5078325Y-8295746D01*
X5078325Y-8295746D02*
X5087849Y-8248127D01*
X5087849Y-8248127D02*
X5097373Y-8219555D01*
X5097373Y-8219555D02*
X5106896Y-8200508D01*
X5106896Y-8200508D02*
X5125944Y-8171936D01*
X5125944Y-8171936D02*
X5135468Y-8162412D01*
X5211658Y-8257650D02*
X5211658Y-8390984D01*
X5211658Y-8276698D02*
X5221182Y-8267174D01*
X5221182Y-8267174D02*
X5240230Y-8257650D01*
X5240230Y-8257650D02*
X5268801Y-8257650D01*
X5268801Y-8257650D02*
X5287849Y-8267174D01*
X5287849Y-8267174D02*
X5297373Y-8286222D01*
X5297373Y-8286222D02*
X5297373Y-8390984D01*
X5421182Y-8390984D02*
X5402134Y-8381460D01*
X5402134Y-8381460D02*
X5392611Y-8371936D01*
X5392611Y-8371936D02*
X5383087Y-8352888D01*
X5383087Y-8352888D02*
X5383087Y-8295746D01*
X5383087Y-8295746D02*
X5392611Y-8276698D01*
X5392611Y-8276698D02*
X5402134Y-8267174D01*
X5402134Y-8267174D02*
X5421182Y-8257650D01*
X5421182Y-8257650D02*
X5449754Y-8257650D01*
X5449754Y-8257650D02*
X5468801Y-8267174D01*
X5468801Y-8267174D02*
X5478325Y-8276698D01*
X5478325Y-8276698D02*
X5487849Y-8295746D01*
X5487849Y-8295746D02*
X5487849Y-8352888D01*
X5487849Y-8352888D02*
X5478325Y-8371936D01*
X5478325Y-8371936D02*
X5468801Y-8381460D01*
X5468801Y-8381460D02*
X5449754Y-8390984D01*
X5449754Y-8390984D02*
X5421182Y-8390984D01*
X5544992Y-8257650D02*
X5621182Y-8257650D01*
X5573563Y-8190984D02*
X5573563Y-8362412D01*
X5573563Y-8362412D02*
X5583087Y-8381460D01*
X5583087Y-8381460D02*
X5602134Y-8390984D01*
X5602134Y-8390984D02*
X5621182Y-8390984D01*
X5840230Y-8257650D02*
X5840230Y-8457650D01*
X5840230Y-8267174D02*
X5859277Y-8257650D01*
X5859277Y-8257650D02*
X5897373Y-8257650D01*
X5897373Y-8257650D02*
X5916420Y-8267174D01*
X5916420Y-8267174D02*
X5925944Y-8276698D01*
X5925944Y-8276698D02*
X5935468Y-8295746D01*
X5935468Y-8295746D02*
X5935468Y-8352888D01*
X5935468Y-8352888D02*
X5925944Y-8371936D01*
X5925944Y-8371936D02*
X5916420Y-8381460D01*
X5916420Y-8381460D02*
X5897373Y-8390984D01*
X5897373Y-8390984D02*
X5859277Y-8390984D01*
X5859277Y-8390984D02*
X5840230Y-8381460D01*
X6049753Y-8390984D02*
X6030706Y-8381460D01*
X6030706Y-8381460D02*
X6021182Y-8362412D01*
X6021182Y-8362412D02*
X6021182Y-8190984D01*
X6211658Y-8390984D02*
X6211658Y-8286222D01*
X6211658Y-8286222D02*
X6202134Y-8267174D01*
X6202134Y-8267174D02*
X6183087Y-8257650D01*
X6183087Y-8257650D02*
X6144992Y-8257650D01*
X6144992Y-8257650D02*
X6125944Y-8267174D01*
X6211658Y-8381460D02*
X6192611Y-8390984D01*
X6192611Y-8390984D02*
X6144992Y-8390984D01*
X6144992Y-8390984D02*
X6125944Y-8381460D01*
X6125944Y-8381460D02*
X6116420Y-8362412D01*
X6116420Y-8362412D02*
X6116420Y-8343365D01*
X6116420Y-8343365D02*
X6125944Y-8324317D01*
X6125944Y-8324317D02*
X6144992Y-8314793D01*
X6144992Y-8314793D02*
X6192611Y-8314793D01*
X6192611Y-8314793D02*
X6211658Y-8305269D01*
X6278325Y-8257650D02*
X6354515Y-8257650D01*
X6306896Y-8190984D02*
X6306896Y-8362412D01*
X6306896Y-8362412D02*
X6316420Y-8381460D01*
X6316420Y-8381460D02*
X6335468Y-8390984D01*
X6335468Y-8390984D02*
X6354515Y-8390984D01*
X6497373Y-8381460D02*
X6478325Y-8390984D01*
X6478325Y-8390984D02*
X6440230Y-8390984D01*
X6440230Y-8390984D02*
X6421182Y-8381460D01*
X6421182Y-8381460D02*
X6411658Y-8362412D01*
X6411658Y-8362412D02*
X6411658Y-8286222D01*
X6411658Y-8286222D02*
X6421182Y-8267174D01*
X6421182Y-8267174D02*
X6440230Y-8257650D01*
X6440230Y-8257650D02*
X6478325Y-8257650D01*
X6478325Y-8257650D02*
X6497373Y-8267174D01*
X6497373Y-8267174D02*
X6506896Y-8286222D01*
X6506896Y-8286222D02*
X6506896Y-8305269D01*
X6506896Y-8305269D02*
X6411658Y-8324317D01*
X6678325Y-8390984D02*
X6678325Y-8190984D01*
X6678325Y-8381460D02*
X6659277Y-8390984D01*
X6659277Y-8390984D02*
X6621182Y-8390984D01*
X6621182Y-8390984D02*
X6602134Y-8381460D01*
X6602134Y-8381460D02*
X6592611Y-8371936D01*
X6592611Y-8371936D02*
X6583087Y-8352888D01*
X6583087Y-8352888D02*
X6583087Y-8295746D01*
X6583087Y-8295746D02*
X6592611Y-8276698D01*
X6592611Y-8276698D02*
X6602134Y-8267174D01*
X6602134Y-8267174D02*
X6621182Y-8257650D01*
X6621182Y-8257650D02*
X6659277Y-8257650D01*
X6659277Y-8257650D02*
X6678325Y-8267174D01*
X6754515Y-8467174D02*
X6764039Y-8457650D01*
X6764039Y-8457650D02*
X6783087Y-8429079D01*
X6783087Y-8429079D02*
X6792611Y-8410031D01*
X6792611Y-8410031D02*
X6802134Y-8381460D01*
X6802134Y-8381460D02*
X6811658Y-8333841D01*
X6811658Y-8333841D02*
X6811658Y-8295746D01*
X6811658Y-8295746D02*
X6802134Y-8248127D01*
X6802134Y-8248127D02*
X6792611Y-8219555D01*
X6792611Y-8219555D02*
X6783087Y-8200508D01*
X6783087Y-8200508D02*
X6764039Y-8171936D01*
X6764039Y-8171936D02*
X6754515Y-8162412D01*
M02*
