G04 #@! TF.GenerationSoftware,KiCad,Pcbnew,9.0.7*
G04 #@! TF.CreationDate,2026-02-18T22:11:59-06:00*
G04 #@! TF.ProjectId,grad_cap_display,67726164-5f63-4617-905f-646973706c61,rev?*
G04 #@! TF.SameCoordinates,Original*
G04 #@! TF.FileFunction,Profile,NP*
%FSLAX46Y46*%
G04 Gerber Fmt 4.6, Leading zero omitted, Abs format (unit mm)*
G04 Created by KiCad (PCBNEW 9.0.7) date 2026-02-18 22:11:59*
%MOMM*%
%LPD*%
G01*
G04 APERTURE LIST*
G04 #@! TA.AperFunction,Profile*
%ADD10C,0.050000*%
G04 #@! TD*
G04 APERTURE END LIST*
D10*
X21280000Y-6360000D02*
X55280000Y-6360000D01*
X70195000Y-21300000D02*
X70195000Y-55300000D01*
X10000Y-55300000D02*
X10000Y-74570000D01*
X55280000Y-76570000D02*
X74550000Y-76570000D01*
X21280000Y-76570000D02*
X21280000Y-70215000D01*
X74550000Y-30000D02*
X55280000Y-30000D01*
X55280000Y-70215000D02*
X55280000Y-76570000D01*
X21280000Y-6360000D02*
X21280000Y-30000D01*
X10000Y-21300000D02*
X6390000Y-21300000D01*
X76550000Y-21300000D02*
X76550000Y-2030000D01*
X10000Y-2030000D02*
G75*
G02*
X2010000Y-30000I1999999J1D01*
G01*
X76550000Y-55300000D02*
X70195000Y-55300000D01*
X10000Y-2030000D02*
X10000Y-21300000D01*
X2010000Y-76570000D02*
G75*
G02*
X10000Y-74570000I0J2000000D01*
G01*
X2010000Y-76570000D02*
X21280000Y-76570000D01*
X55280000Y-70215000D02*
X21280000Y-70215000D01*
X76550000Y-74570000D02*
X76550000Y-55300000D01*
X76550000Y-74570000D02*
G75*
G02*
X74550000Y-76570000I-2000000J0D01*
G01*
X74550000Y-30000D02*
G75*
G02*
X76550000Y-2030000I0J-2000000D01*
G01*
X6390000Y-55300000D02*
X6390000Y-21300000D01*
X21280000Y-30000D02*
X2010000Y-30000D01*
X70195000Y-21300000D02*
X76550000Y-21300000D01*
X55280000Y-30000D02*
X55280000Y-6360000D01*
X6390000Y-55300000D02*
X10000Y-55300000D01*
M02*
