%TF.GenerationSoftware,KiCad,Pcbnew,9.0.7*%
%TF.CreationDate,2026-02-15T10:00:23-06:00*%
%TF.ProjectId,grad_cap_display,67726164-5f63-4617-905f-646973706c61,rev?*%
%TF.SameCoordinates,Original*%
%TF.FileFunction,Paste,Top*%
%TF.FilePolarity,Positive*%
%FSLAX46Y46*%
G04 Gerber Fmt 4.6, Leading zero omitted, Abs format (unit mm)*
G04 Created by KiCad (PCBNEW 9.0.7) date 2026-02-15 10:00:23*
%MOMM*%
%LPD*%
G01*
G04 APERTURE LIST*
G04 Aperture macros list*
%AMRoundRect*
0 Rectangle with rounded corners*
0 $1 Rounding radius*
0 $2 $3 $4 $5 $6 $7 $8 $9 X,Y pos of 4 corners*
0 Add a 4 corners polygon primitive as box body*
4,1,4,$2,$3,$4,$5,$6,$7,$8,$9,$2,$3,0*
0 Add four circle primitives for the rounded corners*
1,1,$1+$1,$2,$3*
1,1,$1+$1,$4,$5*
1,1,$1+$1,$6,$7*
1,1,$1+$1,$8,$9*
0 Add four rect primitives between the rounded corners*
20,1,$1+$1,$2,$3,$4,$5,0*
20,1,$1+$1,$4,$5,$6,$7,0*
20,1,$1+$1,$6,$7,$8,$9,0*
20,1,$1+$1,$8,$9,$2,$3,0*%
%AMFreePoly0*
4,1,9,3.862500,-0.866500,0.737500,-0.866500,0.737500,-0.450000,-0.737500,-0.450000,-0.737500,0.450000,0.737500,0.450000,0.737500,0.866500,3.862500,0.866500,3.862500,-0.866500,3.862500,-0.866500,$1*%
G04 Aperture macros list end*
%ADD10C,0.010000*%
%ADD11RoundRect,0.225000X-0.425000X-0.225000X0.425000X-0.225000X0.425000X0.225000X-0.425000X0.225000X0*%
%ADD12FreePoly0,0.000000*%
%ADD13RoundRect,0.250000X-0.312500X-1.075000X0.312500X-1.075000X0.312500X1.075000X-0.312500X1.075000X0*%
%ADD14RoundRect,0.152500X0.152500X-0.297500X0.152500X0.297500X-0.152500X0.297500X-0.152500X-0.297500X0*%
%ADD15RoundRect,0.132500X0.132500X-0.317500X0.132500X0.317500X-0.132500X0.317500X-0.132500X-0.317500X0*%
%ADD16RoundRect,0.152500X-0.297500X-0.152500X0.297500X-0.152500X0.297500X0.152500X-0.297500X0.152500X0*%
%ADD17RoundRect,0.132500X-0.317500X-0.132500X0.317500X-0.132500X0.317500X0.132500X-0.317500X0.132500X0*%
%ADD18RoundRect,0.152500X-0.152500X0.297500X-0.152500X-0.297500X0.152500X-0.297500X0.152500X0.297500X0*%
%ADD19RoundRect,0.132500X-0.132500X0.317500X-0.132500X-0.317500X0.132500X-0.317500X0.132500X0.317500X0*%
%ADD20R,0.800000X1.000000*%
%ADD21R,0.600000X0.700000*%
%ADD22R,2.510000X1.000000*%
%ADD23R,0.300000X1.200000*%
%ADD24O,1.778000X3.556000*%
%ADD25RoundRect,0.150000X-0.150000X0.825000X-0.150000X-0.825000X0.150000X-0.825000X0.150000X0.825000X0*%
%ADD26RoundRect,0.100000X-0.100000X0.637500X-0.100000X-0.637500X0.100000X-0.637500X0.100000X0.637500X0*%
%ADD27RoundRect,0.150000X-0.825000X-0.150000X0.825000X-0.150000X0.825000X0.150000X-0.825000X0.150000X0*%
%ADD28RoundRect,0.250000X-0.435000X-0.615000X0.435000X-0.615000X0.435000X0.615000X-0.435000X0.615000X0*%
%ADD29RoundRect,0.125000X-0.250000X-0.125000X0.250000X-0.125000X0.250000X0.125000X-0.250000X0.125000X0*%
%ADD30RoundRect,0.150000X-0.512500X-0.150000X0.512500X-0.150000X0.512500X0.150000X-0.512500X0.150000X0*%
%ADD31RoundRect,0.100000X-0.637500X-0.100000X0.637500X-0.100000X0.637500X0.100000X-0.637500X0.100000X0*%
%ADD32R,1.500000X0.900000*%
%ADD33R,0.900000X1.500000*%
%ADD34R,0.900000X0.900000*%
%ADD35RoundRect,0.087500X0.537500X0.087500X-0.537500X0.087500X-0.537500X-0.087500X0.537500X-0.087500X0*%
%ADD36RoundRect,0.160000X-0.245000X-0.160000X0.245000X-0.160000X0.245000X0.160000X-0.245000X0.160000X0*%
%ADD37RoundRect,0.093750X-0.093750X-0.106250X0.093750X-0.106250X0.093750X0.106250X-0.093750X0.106250X0*%
%ADD38RoundRect,0.050000X0.285000X0.100000X-0.285000X0.100000X-0.285000X-0.100000X0.285000X-0.100000X0*%
%ADD39R,0.700000X0.600000*%
%ADD40RoundRect,0.250000X-1.075000X0.312500X-1.075000X-0.312500X1.075000X-0.312500X1.075000X0.312500X0*%
%ADD41RoundRect,0.322500X-0.752500X-2.827500X0.752500X-2.827500X0.752500X2.827500X-0.752500X2.827500X0*%
%ADD42R,1.600000X0.700000*%
%ADD43R,2.200000X1.200000*%
%ADD44R,1.500000X1.600000*%
%ADD45R,1.800000X1.200000*%
%ADD46RoundRect,0.250000X0.260000X-2.250000X0.260000X2.250000X-0.260000X2.250000X-0.260000X-2.250000X0*%
%ADD47R,1.000000X0.800000*%
%ADD48RoundRect,0.225000X-0.225000X-0.250000X0.225000X-0.250000X0.225000X0.250000X-0.225000X0.250000X0*%
%ADD49RoundRect,0.140000X-0.140000X-0.170000X0.140000X-0.170000X0.140000X0.170000X-0.140000X0.170000X0*%
%ADD50RoundRect,0.140000X-0.170000X0.140000X-0.170000X-0.140000X0.170000X-0.140000X0.170000X0.140000X0*%
%ADD51RoundRect,0.225000X-0.250000X0.225000X-0.250000X-0.225000X0.250000X-0.225000X0.250000X0.225000X0*%
%ADD52RoundRect,0.140000X0.170000X-0.140000X0.170000X0.140000X-0.170000X0.140000X-0.170000X-0.140000X0*%
G04 APERTURE END LIST*
D10*
%TO.C,J201*%
X-241980000Y621177500D02*
X-244380000Y621177500D01*
X-244380000Y622777500D01*
X-243580000Y622777500D01*
X-243580000Y623577500D01*
X-241980000Y623577500D01*
X-241980000Y621177500D01*
G36*
X-241980000Y621177500D02*
G01*
X-244380000Y621177500D01*
X-244380000Y622777500D01*
X-243580000Y622777500D01*
X-243580000Y623577500D01*
X-241980000Y623577500D01*
X-241980000Y621177500D01*
G37*
X-219080000Y622777500D02*
X-218280000Y622777500D01*
X-218280000Y621177500D01*
X-220680000Y621177500D01*
X-220680000Y623577500D01*
X-219080000Y623577500D01*
X-219080000Y622777500D01*
G36*
X-219080000Y622777500D02*
G01*
X-218280000Y622777500D01*
X-218280000Y621177500D01*
X-220680000Y621177500D01*
X-220680000Y623577500D01*
X-219080000Y623577500D01*
X-219080000Y622777500D01*
G37*
%TD*%
D11*
%TO.C,U1102*%
X-255200000Y617560000D03*
D12*
X-255112500Y616060000D03*
D11*
X-255200000Y614560000D03*
%TD*%
D13*
%TO.C,R206*%
X-216412500Y612840000D03*
X-213487500Y612840000D03*
%TD*%
%TO.C,R205*%
X-216412500Y617050000D03*
X-213487500Y617050000D03*
%TD*%
D14*
%TO.C,RN1101*%
X-206890000Y624810000D03*
D15*
X-206050000Y624810000D03*
X-205250000Y624810000D03*
D14*
X-204410000Y624810000D03*
X-204410000Y626580000D03*
D15*
X-205250000Y626580000D03*
X-206050000Y626580000D03*
D14*
X-206890000Y626580000D03*
%TD*%
D16*
%TO.C,RN202*%
X-203255000Y654170000D03*
D17*
X-203255000Y653330000D03*
X-203255000Y652530000D03*
D16*
X-203255000Y651690000D03*
X-201485000Y651690000D03*
D17*
X-201485000Y652530000D03*
X-201485000Y653330000D03*
D16*
X-201485000Y654170000D03*
%TD*%
D18*
%TO.C,RN201*%
X-205650000Y659940000D03*
D19*
X-206490000Y659940000D03*
X-207290000Y659940000D03*
D18*
X-208130000Y659940000D03*
X-208130000Y658170000D03*
D19*
X-207290000Y658170000D03*
X-206490000Y658170000D03*
D18*
X-205650000Y658170000D03*
%TD*%
D20*
%TO.C,D203*%
X-198460000Y653250000D03*
X-196960000Y653250000D03*
%TD*%
%TO.C,D202*%
X-196960000Y654850000D03*
X-198460000Y654850000D03*
%TD*%
%TO.C,D204*%
X-196960000Y651650000D03*
X-198460000Y651650000D03*
%TD*%
%TO.C,D205*%
X-196960000Y650050000D03*
X-198460000Y650050000D03*
%TD*%
D21*
%TO.C,R204*%
X-254182500Y657405000D03*
X-253182500Y657405000D03*
%TD*%
D22*
%TO.C,J101*%
X-200000000Y670650000D03*
X-196690000Y668110000D03*
X-200000000Y665570000D03*
X-196690000Y663030000D03*
X-200000000Y660490000D03*
X-196690000Y657950000D03*
%TD*%
D23*
%TO.C,J201*%
X-241080000Y625077500D03*
X-240580000Y625077500D03*
X-240080000Y625077500D03*
X-239580000Y625077500D03*
X-239080000Y625077500D03*
X-238580000Y625077500D03*
X-238080000Y625077500D03*
X-237580000Y625077500D03*
X-237080000Y625077500D03*
X-236580000Y625077500D03*
X-236080000Y625077500D03*
X-235580000Y625077500D03*
X-235080000Y625077500D03*
X-234580000Y625077500D03*
X-234080000Y625077500D03*
X-233580000Y625077500D03*
X-233080000Y625077500D03*
X-232580000Y625077500D03*
X-232080000Y625077500D03*
X-231580000Y625077500D03*
X-231080000Y625077500D03*
X-230580000Y625077500D03*
X-230080000Y625077500D03*
X-229580000Y625077500D03*
X-229080000Y625077500D03*
X-228580000Y625077500D03*
X-228080000Y625077500D03*
X-227580000Y625077500D03*
X-227080000Y625077500D03*
X-226580000Y625077500D03*
X-226080000Y625077500D03*
X-225580000Y625077500D03*
X-225080000Y625077500D03*
X-224580000Y625077500D03*
X-224080000Y625077500D03*
X-223580000Y625077500D03*
X-223080000Y625077500D03*
X-222580000Y625077500D03*
X-222080000Y625077500D03*
X-221580000Y625077500D03*
%TD*%
D24*
%TO.C,U1104*%
X-264972500Y627187500D03*
X-262432500Y627187500D03*
X-259892500Y627187500D03*
X-257352500Y627187500D03*
X-254812500Y627187500D03*
X-252272500Y627187500D03*
X-249732500Y627187500D03*
X-249732500Y644967500D03*
X-252272500Y644967500D03*
X-254812500Y644967500D03*
X-257352500Y644967500D03*
X-259892500Y644967500D03*
X-262432500Y644967500D03*
X-264972500Y644967500D03*
%TD*%
D25*
%TO.C,U1103*%
X-251702500Y664635000D03*
X-252972500Y664635000D03*
X-254242500Y664635000D03*
X-255512500Y664635000D03*
X-255512500Y659685000D03*
X-254242500Y659685000D03*
X-252972500Y659685000D03*
X-251702500Y659685000D03*
%TD*%
D26*
%TO.C,U1101*%
X-260740000Y618762500D03*
X-261390000Y618762500D03*
X-262040000Y618762500D03*
X-262690000Y618762500D03*
X-263340000Y618762500D03*
X-263990000Y618762500D03*
X-264640000Y618762500D03*
X-264640000Y613037500D03*
X-263990000Y613037500D03*
X-263340000Y613037500D03*
X-262690000Y613037500D03*
X-262040000Y613037500D03*
X-261390000Y613037500D03*
X-260740000Y613037500D03*
%TD*%
D27*
%TO.C,U208*%
X-219125000Y649667500D03*
X-219125000Y648397500D03*
X-219125000Y647127500D03*
X-219125000Y645857500D03*
X-214175000Y645857500D03*
X-214175000Y647127500D03*
X-214175000Y648397500D03*
X-214175000Y649667500D03*
%TD*%
D28*
%TO.C,U207*%
X-215540000Y664220000D03*
X-215540000Y662070000D03*
X-213840000Y664220000D03*
X-213840000Y662070000D03*
D29*
X-217390000Y665050000D03*
X-217390000Y663780000D03*
X-217390000Y662510000D03*
X-217390000Y661240000D03*
X-211990000Y661240000D03*
X-211990000Y662510000D03*
X-211990000Y663780000D03*
X-211990000Y665050000D03*
%TD*%
D30*
%TO.C,U206*%
X-203815001Y612640000D03*
X-203815001Y611690001D03*
X-203815001Y610740002D03*
X-201540001Y610740002D03*
X-201540001Y611690001D03*
X-201540001Y612640000D03*
%TD*%
D31*
%TO.C,U205*%
X-217620000Y656820000D03*
X-217620000Y656170000D03*
X-217620000Y655520000D03*
X-217620000Y654870000D03*
X-217620000Y654220000D03*
X-217620000Y653570000D03*
X-217620000Y652920000D03*
X-211895000Y652920000D03*
X-211895000Y653570000D03*
X-211895000Y654220000D03*
X-211895000Y654870000D03*
X-211895000Y655520000D03*
X-211895000Y656170000D03*
X-211895000Y656820000D03*
%TD*%
D32*
%TO.C,U204*%
X-223460000Y666700000D03*
X-223460000Y665430000D03*
X-223460000Y664160000D03*
X-223460000Y662890000D03*
X-223460000Y661620000D03*
X-223460000Y660350000D03*
X-223460000Y659080000D03*
X-223460000Y657810000D03*
X-223460000Y656540000D03*
X-223460000Y655270000D03*
X-223460000Y654000000D03*
X-223460000Y652730000D03*
X-223460000Y651460000D03*
X-223460000Y650190000D03*
D33*
X-225225000Y648940000D03*
X-226495000Y648940000D03*
X-227765000Y648940000D03*
X-229035000Y648940000D03*
X-230305000Y648940000D03*
X-231575000Y648940000D03*
X-232845000Y648940000D03*
X-234115000Y648940000D03*
X-235385000Y648940000D03*
X-236655000Y648940000D03*
X-237925000Y648940000D03*
X-239195000Y648940000D03*
D32*
X-240960000Y650190000D03*
X-240960000Y651460000D03*
X-240960000Y652730000D03*
X-240960000Y654000000D03*
X-240960000Y655270000D03*
X-240960000Y656540000D03*
X-240960000Y657810000D03*
X-240960000Y659080000D03*
X-240960000Y660350000D03*
X-240960000Y661620000D03*
X-240960000Y662890000D03*
X-240960000Y664160000D03*
X-240960000Y665430000D03*
X-240960000Y666700000D03*
D34*
X-232310000Y657580000D03*
X-232310000Y658980000D03*
X-232310000Y660380000D03*
X-233710000Y657580000D03*
X-233710000Y658980000D03*
X-233710000Y660380000D03*
X-235110000Y657580000D03*
X-235110000Y658980000D03*
X-235110000Y660380000D03*
%TD*%
D35*
%TO.C,U203*%
X-205310000Y654069998D03*
X-205310000Y654569999D03*
X-205310000Y655069999D03*
X-205310000Y655570000D03*
X-208110000Y655570000D03*
X-208110000Y655069999D03*
X-208110000Y654569999D03*
X-208110000Y654069998D03*
%TD*%
D36*
%TO.C,U202*%
X-243122500Y629430000D03*
X-243122500Y628630000D03*
D37*
X-244010000Y629680000D03*
X-244010000Y629030000D03*
X-244010000Y628380000D03*
X-242235000Y628380000D03*
X-242235000Y629030000D03*
X-242235000Y629680000D03*
%TD*%
D38*
%TO.C,U201*%
X-239572500Y628240000D03*
X-239572500Y628740000D03*
X-239572500Y629240000D03*
X-239572500Y629740000D03*
X-241052500Y629740000D03*
X-241052500Y629240000D03*
X-241052500Y628740000D03*
X-241052500Y628240000D03*
%TD*%
D39*
%TO.C,R1102*%
X-261579999Y652420001D03*
X-261579999Y653419999D03*
%TD*%
%TO.C,R1101*%
X-263460000Y652400001D03*
X-263460000Y653399999D03*
%TD*%
%TO.C,R203*%
X-212020000Y647160002D03*
X-212020000Y648160000D03*
%TD*%
D40*
%TO.C,R202*%
X-209155001Y615962501D03*
X-209155001Y613037501D03*
%TD*%
D21*
%TO.C,R201*%
X-245540000Y655820000D03*
X-244540000Y655820000D03*
%TD*%
D41*
%TO.C,L201*%
X-204905001Y617300000D03*
X-200730000Y617300000D03*
%TD*%
D42*
%TO.C,J1104*%
X-211690000Y629540000D03*
D43*
X-201090000Y643840000D03*
D44*
X-210640000Y642940000D03*
D43*
X-201090000Y628340000D03*
D45*
X-210390000Y628340000D03*
D42*
X-211690001Y630640000D03*
X-211690000Y631740000D03*
X-211690001Y632840000D03*
X-211690000Y633940000D03*
X-211690000Y635039999D03*
X-211690000Y636140000D03*
X-211690000Y637240000D03*
X-211690000Y638340000D03*
%TD*%
D46*
%TO.C,J3*%
X-237730000Y634960000D03*
X-237730000Y642560000D03*
X-235190000Y634960000D03*
X-235190000Y642560000D03*
X-232650000Y634960000D03*
X-232650000Y642560000D03*
X-230110000Y634960000D03*
X-230110000Y642560000D03*
X-227570000Y634960000D03*
X-227570000Y642560000D03*
X-225030000Y634960000D03*
X-225030000Y642560000D03*
%TD*%
D47*
%TO.C,D1102*%
X-261600000Y651050000D03*
X-261600000Y649550000D03*
%TD*%
%TO.C,D1101*%
X-263470000Y651049999D03*
X-263470000Y649549999D03*
%TD*%
D20*
%TO.C,D201*%
X-245690000Y657130000D03*
X-244190000Y657130000D03*
%TD*%
D48*
%TO.C,C1106*%
X-210800000Y624900000D03*
X-209250000Y624900000D03*
%TD*%
D49*
%TO.C,C1105*%
X-210505000Y626160000D03*
X-209545000Y626160000D03*
%TD*%
D50*
%TO.C,C1104*%
X-258150000Y611070000D03*
X-258150000Y610110000D03*
%TD*%
D51*
%TO.C,C1103*%
X-256890000Y611280000D03*
X-256890000Y609730000D03*
%TD*%
%TO.C,C1102*%
X-255350000Y611290000D03*
X-255350000Y609740000D03*
%TD*%
D52*
%TO.C,C1101*%
X-260230000Y649460000D03*
X-260230000Y650420000D03*
%TD*%
D39*
%TO.C,C216*%
X-210700000Y648149998D03*
X-210700000Y647150000D03*
%TD*%
D20*
%TO.C,C215*%
X-203420000Y607790000D03*
X-201920000Y607790000D03*
%TD*%
D21*
%TO.C,C214*%
X-207215001Y611170001D03*
X-206215001Y611170001D03*
%TD*%
%TO.C,C213*%
X-203110000Y609080000D03*
X-202110000Y609080000D03*
%TD*%
D20*
%TO.C,C212*%
X-207405001Y609730001D03*
X-205905001Y609730001D03*
%TD*%
D21*
%TO.C,C211*%
X-214280001Y658320000D03*
X-215279999Y658320000D03*
%TD*%
D39*
%TO.C,C210*%
X-232410000Y630220002D03*
X-232410000Y631220000D03*
%TD*%
D21*
%TO.C,C209*%
X-245520000Y660060000D03*
X-244520000Y660060000D03*
%TD*%
D39*
%TO.C,C208*%
X-236810000Y630220001D03*
X-236810000Y631219999D03*
%TD*%
D21*
%TO.C,C207*%
X-245520000Y661380000D03*
X-244520000Y661380000D03*
%TD*%
D47*
%TO.C,C206*%
X-232240000Y627170000D03*
X-232240000Y628670000D03*
%TD*%
D21*
%TO.C,C205*%
X-207290000Y652910000D03*
X-206290000Y652910000D03*
%TD*%
D20*
%TO.C,C204*%
X-245770000Y658620000D03*
X-244270000Y658620000D03*
%TD*%
D47*
%TO.C,C203*%
X-233830000Y627180000D03*
X-233830000Y628680000D03*
%TD*%
%TO.C,C202*%
X-235440000Y627190000D03*
X-235440000Y628690000D03*
%TD*%
%TO.C,C201*%
X-237020000Y627200000D03*
X-237020000Y628700000D03*
%TD*%
M02*
