%TF.GenerationSoftware,KiCad,Pcbnew,9.0.7*%
%TF.CreationDate,2026-02-15T10:00:23-06:00*%
%TF.ProjectId,grad_cap_display,67726164-5f63-4617-905f-646973706c61,rev?*%
%TF.SameCoordinates,Original*%
%TF.FileFunction,Soldermask,Top*%
%TF.FilePolarity,Negative*%
%FSLAX46Y46*%
G04 Gerber Fmt 4.6, Leading zero omitted, Abs format (unit mm)*
G04 Created by KiCad (PCBNEW 9.0.7) date 2026-02-15 10:00:23*
%MOMM*%
%LPD*%
G01*
G04 APERTURE LIST*
G04 Aperture macros list*
%AMRoundRect*
0 Rectangle with rounded corners*
0 $1 Rounding radius*
0 $2 $3 $4 $5 $6 $7 $8 $9 X,Y pos of 4 corners*
0 Add a 4 corners polygon primitive as box body*
4,1,4,$2,$3,$4,$5,$6,$7,$8,$9,$2,$3,0*
0 Add four circle primitives for the rounded corners*
1,1,$1+$1,$2,$3*
1,1,$1+$1,$4,$5*
1,1,$1+$1,$6,$7*
1,1,$1+$1,$8,$9*
0 Add four rect primitives between the rounded corners*
20,1,$1+$1,$2,$3,$4,$5,0*
20,1,$1+$1,$4,$5,$6,$7,0*
20,1,$1+$1,$6,$7,$8,$9,0*
20,1,$1+$1,$8,$9,$2,$3,0*%
%AMFreePoly0*
4,1,9,3.862500,-0.866500,0.737500,-0.866500,0.737500,-0.450000,-0.737500,-0.450000,-0.737500,0.450000,0.737500,0.450000,0.737500,0.866500,3.862500,0.866500,3.862500,-0.866500,3.862500,-0.866500,$1*%
G04 Aperture macros list end*
%ADD10C,0.010000*%
%ADD11R,2.000000X2.000000*%
%ADD12RoundRect,0.225000X-0.425000X-0.225000X0.425000X-0.225000X0.425000X0.225000X-0.425000X0.225000X0*%
%ADD13FreePoly0,0.000000*%
%ADD14RoundRect,0.250000X-0.312500X-1.075000X0.312500X-1.075000X0.312500X1.075000X-0.312500X1.075000X0*%
%ADD15RoundRect,0.203500X0.203500X-0.348500X0.203500X0.348500X-0.203500X0.348500X-0.203500X-0.348500X0*%
%ADD16RoundRect,0.183500X0.183500X-0.368500X0.183500X0.368500X-0.183500X0.368500X-0.183500X-0.368500X0*%
%ADD17RoundRect,0.203500X-0.348500X-0.203500X0.348500X-0.203500X0.348500X0.203500X-0.348500X0.203500X0*%
%ADD18RoundRect,0.183500X-0.368500X-0.183500X0.368500X-0.183500X0.368500X0.183500X-0.368500X0.183500X0*%
%ADD19RoundRect,0.203500X-0.203500X0.348500X-0.203500X-0.348500X0.203500X-0.348500X0.203500X0.348500X0*%
%ADD20RoundRect,0.183500X-0.183500X0.368500X-0.183500X-0.368500X0.183500X-0.368500X0.183500X0.368500X0*%
%ADD21R,0.800000X1.000000*%
%ADD22R,0.600000X0.700000*%
%ADD23R,2.510000X1.000000*%
%ADD24RoundRect,0.102000X-0.150000X-0.600000X0.150000X-0.600000X0.150000X0.600000X-0.150000X0.600000X0*%
%ADD25O,1.879600X3.657600*%
%ADD26RoundRect,0.150000X-0.150000X0.825000X-0.150000X-0.825000X0.150000X-0.825000X0.150000X0.825000X0*%
%ADD27RoundRect,0.100000X-0.100000X0.637500X-0.100000X-0.637500X0.100000X-0.637500X0.100000X0.637500X0*%
%ADD28RoundRect,0.150000X-0.825000X-0.150000X0.825000X-0.150000X0.825000X0.150000X-0.825000X0.150000X0*%
%ADD29RoundRect,0.125000X-0.250000X-0.125000X0.250000X-0.125000X0.250000X0.125000X-0.250000X0.125000X0*%
%ADD30R,3.400000X4.300000*%
%ADD31RoundRect,0.150000X-0.512500X-0.150000X0.512500X-0.150000X0.512500X0.150000X-0.512500X0.150000X0*%
%ADD32RoundRect,0.100000X-0.637500X-0.100000X0.637500X-0.100000X0.637500X0.100000X-0.637500X0.100000X0*%
%ADD33C,0.600000*%
%ADD34R,3.900000X3.900000*%
%ADD35R,1.500000X0.900000*%
%ADD36R,0.900000X1.500000*%
%ADD37RoundRect,0.087500X0.537500X0.087500X-0.537500X0.087500X-0.537500X-0.087500X0.537500X-0.087500X0*%
%ADD38RoundRect,0.093750X-0.093750X-0.106250X0.093750X-0.106250X0.093750X0.106250X-0.093750X0.106250X0*%
%ADD39R,1.000000X1.600000*%
%ADD40RoundRect,0.050000X0.285000X0.100000X-0.285000X0.100000X-0.285000X-0.100000X0.285000X-0.100000X0*%
%ADD41R,0.700000X0.600000*%
%ADD42RoundRect,0.250000X-1.075000X0.312500X-1.075000X-0.312500X1.075000X-0.312500X1.075000X0.312500X0*%
%ADD43RoundRect,0.322500X-0.752500X-2.827500X0.752500X-2.827500X0.752500X2.827500X-0.752500X2.827500X0*%
%ADD44RoundRect,0.102000X0.800000X-0.350000X0.800000X0.350000X-0.800000X0.350000X-0.800000X-0.350000X0*%
%ADD45RoundRect,0.102000X1.100000X-0.600000X1.100000X0.600000X-1.100000X0.600000X-1.100000X-0.600000X0*%
%ADD46RoundRect,0.102000X0.750000X-0.800000X0.750000X0.800000X-0.750000X0.800000X-0.750000X-0.800000X0*%
%ADD47RoundRect,0.102000X0.900000X-0.600000X0.900000X0.600000X-0.900000X0.600000X-0.900000X-0.600000X0*%
%ADD48C,1.000000*%
%ADD49RoundRect,0.250000X0.260000X-2.250000X0.260000X2.250000X-0.260000X2.250000X-0.260000X-2.250000X0*%
%ADD50R,1.000000X0.800000*%
%ADD51RoundRect,0.225000X-0.225000X-0.250000X0.225000X-0.250000X0.225000X0.250000X-0.225000X0.250000X0*%
%ADD52RoundRect,0.140000X-0.140000X-0.170000X0.140000X-0.170000X0.140000X0.170000X-0.140000X0.170000X0*%
%ADD53RoundRect,0.140000X-0.170000X0.140000X-0.170000X-0.140000X0.170000X-0.140000X0.170000X0.140000X0*%
%ADD54RoundRect,0.225000X-0.250000X0.225000X-0.250000X-0.225000X0.250000X-0.225000X0.250000X0.225000X0*%
%ADD55RoundRect,0.140000X0.170000X-0.140000X0.170000X0.140000X-0.170000X0.140000X-0.170000X-0.140000X0*%
G04 APERTURE END LIST*
D10*
%TO.C,J201*%
X-241880000Y621077500D02*
X-244480000Y621077500D01*
X-244480000Y622877500D01*
X-243680000Y622877500D01*
X-243680000Y623677500D01*
X-241880000Y623677500D01*
X-241880000Y621077500D01*
G36*
X-241880000Y621077500D02*
G01*
X-244480000Y621077500D01*
X-244480000Y622877500D01*
X-243680000Y622877500D01*
X-243680000Y623677500D01*
X-241880000Y623677500D01*
X-241880000Y621077500D01*
G37*
X-218980000Y622877500D02*
X-218180000Y622877500D01*
X-218180000Y621077500D01*
X-220780000Y621077500D01*
X-220780000Y623677500D01*
X-218980000Y623677500D01*
X-218980000Y622877500D01*
G36*
X-218980000Y622877500D02*
G01*
X-218180000Y622877500D01*
X-218180000Y621077500D01*
X-220780000Y621077500D01*
X-220780000Y623677500D01*
X-218980000Y623677500D01*
X-218980000Y622877500D01*
G37*
%TD*%
D11*
%TO.C,J205*%
X-268177500Y597760000D03*
X-265637500Y597760000D03*
X-263097500Y597760000D03*
X-260557500Y597760000D03*
X-258017500Y597760000D03*
X-255477500Y597760000D03*
X-252937500Y597760000D03*
X-250397500Y597760000D03*
X-247857500Y597760000D03*
X-245317500Y597760000D03*
X-242777500Y597760000D03*
X-240237500Y597760000D03*
X-237697500Y597760000D03*
X-235157500Y597760000D03*
X-232617500Y597760000D03*
X-230077500Y597760000D03*
X-227537500Y597760000D03*
X-224997500Y597760000D03*
X-222457500Y597760000D03*
X-219917500Y597760000D03*
X-217377500Y597760000D03*
X-214837500Y597760000D03*
X-212297500Y597760000D03*
X-209757500Y597760000D03*
X-207217500Y597760000D03*
X-204677500Y597760000D03*
X-202137500Y597760000D03*
X-199597500Y597760000D03*
X-197057500Y597760000D03*
X-194517500Y597760000D03*
X-268177500Y597760000D03*
X-265637500Y597760000D03*
X-263097500Y597760000D03*
X-260557500Y597760000D03*
X-258017500Y597760000D03*
X-255477500Y597760000D03*
X-252937500Y597760000D03*
X-250397500Y597760000D03*
X-247857500Y597760000D03*
X-245317500Y597760000D03*
X-242777500Y597760000D03*
X-240237500Y597760000D03*
X-237697500Y597760000D03*
X-235157500Y597760000D03*
X-232617500Y597760000D03*
X-230077500Y597760000D03*
X-227537500Y597760000D03*
X-224997500Y597760000D03*
X-222457500Y597760000D03*
X-219917500Y597760000D03*
X-217377500Y597760000D03*
X-214837500Y597760000D03*
X-212297500Y597760000D03*
X-209757500Y597760000D03*
X-207217500Y597760000D03*
X-204677500Y597760000D03*
X-202137500Y597760000D03*
X-199597500Y597760000D03*
X-197057500Y597760000D03*
X-194517500Y597760000D03*
%TD*%
%TO.C,J204*%
X-193060000Y672902500D03*
X-193060000Y670362500D03*
X-193060000Y667822500D03*
X-193060000Y665282500D03*
X-193060000Y662742500D03*
X-193060000Y660202500D03*
X-193060000Y657662500D03*
X-193060000Y655122500D03*
X-193060000Y652582500D03*
X-193060000Y650042500D03*
X-193060000Y647502500D03*
X-193060000Y644962500D03*
X-193060000Y642422500D03*
X-193060000Y639882500D03*
X-193060000Y637342500D03*
X-193060000Y634802500D03*
X-193060000Y632262500D03*
X-193060000Y629722500D03*
X-193060000Y627182500D03*
X-193060000Y624642500D03*
X-193060000Y622102500D03*
X-193060000Y619562500D03*
X-193060000Y617022500D03*
X-193060000Y614482500D03*
X-193060000Y611942500D03*
X-193060000Y609402500D03*
X-193060000Y606862500D03*
X-193060000Y604322500D03*
X-193060000Y601782500D03*
X-193060000Y599242500D03*
X-193060000Y599242500D03*
X-193060000Y601782500D03*
X-193060000Y604322500D03*
X-193060000Y606862500D03*
X-193060000Y609402500D03*
X-193060000Y611942500D03*
X-193060000Y614482500D03*
X-193060000Y617022500D03*
X-193060000Y619562500D03*
X-193060000Y622102500D03*
X-193060000Y624642500D03*
X-193060000Y627182500D03*
X-193060000Y629722500D03*
X-193060000Y632262500D03*
X-193060000Y634802500D03*
X-193060000Y637342500D03*
X-193060000Y639882500D03*
X-193060000Y642422500D03*
X-193060000Y644962500D03*
X-193060000Y647502500D03*
X-193060000Y650042500D03*
X-193060000Y652582500D03*
X-193060000Y655122500D03*
X-193060000Y657662500D03*
X-193060000Y660202500D03*
X-193060000Y662742500D03*
X-193060000Y665282500D03*
X-193060000Y667822500D03*
X-193060000Y670362500D03*
X-193060000Y672902500D03*
%TD*%
%TO.C,J202*%
X-269575000Y599182500D03*
X-269575000Y601722500D03*
X-269575000Y604262500D03*
X-269575000Y606802500D03*
X-269575000Y609342500D03*
X-269575000Y611882500D03*
X-269575000Y614422500D03*
X-269575000Y616962500D03*
X-269575000Y619502500D03*
X-269575000Y622042500D03*
X-269575000Y624582500D03*
X-269575000Y627122500D03*
X-269575000Y629662500D03*
X-269575000Y632202500D03*
X-269575000Y634742500D03*
X-269575000Y637282500D03*
X-269575000Y639822500D03*
X-269575000Y642362500D03*
X-269575000Y644902500D03*
X-269575000Y647442500D03*
X-269575000Y649982500D03*
X-269575000Y652522500D03*
X-269575000Y655062500D03*
X-269575000Y657602500D03*
X-269575000Y660142500D03*
X-269575000Y662682500D03*
X-269575000Y665222500D03*
X-269575000Y667762500D03*
X-269575000Y670302500D03*
X-269575000Y672842500D03*
X-269575000Y611882500D03*
X-269575000Y606802500D03*
X-269575000Y599182500D03*
X-269575000Y601722500D03*
X-269575000Y609342500D03*
X-269575000Y604262500D03*
X-269575000Y665222500D03*
X-269575000Y660142500D03*
X-269575000Y670302500D03*
X-269575000Y667762500D03*
X-269575000Y657602500D03*
X-269575000Y655062500D03*
X-269575000Y662682500D03*
X-269575000Y672842500D03*
X-269575000Y649982500D03*
X-269575000Y639822500D03*
X-269575000Y647442500D03*
X-269575000Y652522500D03*
X-269575000Y644902500D03*
X-269575000Y642362500D03*
X-269575000Y634742500D03*
X-269575000Y637282500D03*
X-269575000Y629662500D03*
X-269575000Y627122500D03*
X-269575000Y624582500D03*
X-269575000Y622042500D03*
X-269575000Y619502500D03*
X-269575000Y632202500D03*
X-269575000Y616962500D03*
X-269575000Y614422500D03*
%TD*%
%TO.C,J203*%
X-194457500Y674325000D03*
X-196997500Y674325000D03*
X-199537500Y674325000D03*
X-202077500Y674325000D03*
X-204617500Y674325000D03*
X-207157500Y674325000D03*
X-209697500Y674325000D03*
X-212237500Y674325000D03*
X-214777500Y674325000D03*
X-217317500Y674325000D03*
X-219857500Y674325000D03*
X-222397500Y674325000D03*
X-224937500Y674325000D03*
X-227477500Y674325000D03*
X-230017500Y674325000D03*
X-232557500Y674325000D03*
X-235097500Y674325000D03*
X-237637500Y674325000D03*
X-240177500Y674325000D03*
X-242717500Y674325000D03*
X-245257500Y674325000D03*
X-247797500Y674325000D03*
X-250337500Y674325000D03*
X-252877500Y674325000D03*
X-255417500Y674325000D03*
X-257957500Y674325000D03*
X-260497500Y674325000D03*
X-263037500Y674325000D03*
X-265577500Y674325000D03*
X-268117500Y674325000D03*
X-194457500Y674325000D03*
X-196997500Y674325000D03*
X-199537500Y674325000D03*
X-202077500Y674325000D03*
X-204617500Y674325000D03*
X-207157500Y674325000D03*
X-209697500Y674325000D03*
X-212237500Y674325000D03*
X-214777500Y674325000D03*
X-217317500Y674325000D03*
X-219857500Y674325000D03*
X-222397500Y674325000D03*
X-224937500Y674325000D03*
X-227477500Y674325000D03*
X-230017500Y674325000D03*
X-232557500Y674325000D03*
X-235097500Y674325000D03*
X-237637500Y674325000D03*
X-240177500Y674325000D03*
X-242717500Y674325000D03*
X-245257500Y674325000D03*
X-247797500Y674325000D03*
X-250337500Y674325000D03*
X-252877500Y674325000D03*
X-255417500Y674325000D03*
X-257957500Y674325000D03*
X-260497500Y674325000D03*
X-263037500Y674325000D03*
X-265577500Y674325000D03*
X-268117500Y674325000D03*
%TD*%
D12*
%TO.C,U1102*%
X-255200000Y617560000D03*
D13*
X-255112500Y616060000D03*
D12*
X-255200000Y614560000D03*
%TD*%
D14*
%TO.C,R206*%
X-216412500Y612840000D03*
X-213487500Y612840000D03*
%TD*%
%TO.C,R205*%
X-216412500Y617050000D03*
X-213487500Y617050000D03*
%TD*%
D15*
%TO.C,RN1101*%
X-206890000Y624810000D03*
D16*
X-206050000Y624810000D03*
X-205250000Y624810000D03*
D15*
X-204410000Y624810000D03*
X-204410000Y626580000D03*
D16*
X-205250000Y626580000D03*
X-206050000Y626580000D03*
D15*
X-206890000Y626580000D03*
%TD*%
D17*
%TO.C,RN202*%
X-203255000Y654170000D03*
D18*
X-203255000Y653330000D03*
X-203255000Y652530000D03*
D17*
X-203255000Y651690000D03*
X-201485000Y651690000D03*
D18*
X-201485000Y652530000D03*
X-201485000Y653330000D03*
D17*
X-201485000Y654170000D03*
%TD*%
D19*
%TO.C,RN201*%
X-205650000Y659940000D03*
D20*
X-206490000Y659940000D03*
X-207290000Y659940000D03*
D19*
X-208130000Y659940000D03*
X-208130000Y658170000D03*
D20*
X-207290000Y658170000D03*
X-206490000Y658170000D03*
D19*
X-205650000Y658170000D03*
%TD*%
D21*
%TO.C,D203*%
X-198460000Y653250000D03*
X-196960000Y653250000D03*
%TD*%
%TO.C,D202*%
X-196960000Y654850000D03*
X-198460000Y654850000D03*
%TD*%
%TO.C,D204*%
X-196960000Y651650000D03*
X-198460000Y651650000D03*
%TD*%
%TO.C,D205*%
X-196960000Y650050000D03*
X-198460000Y650050000D03*
%TD*%
D22*
%TO.C,R204*%
X-254182500Y657405000D03*
X-253182500Y657405000D03*
%TD*%
D23*
%TO.C,J101*%
X-200000000Y670650000D03*
X-196690000Y668110000D03*
X-200000000Y665570000D03*
X-196690000Y663030000D03*
X-200000000Y660490000D03*
X-196690000Y657950000D03*
%TD*%
D24*
%TO.C,J201*%
X-241080000Y625077500D03*
X-240580000Y625077500D03*
X-240080000Y625077500D03*
X-239580000Y625077500D03*
X-239080000Y625077500D03*
X-238580000Y625077500D03*
X-238080000Y625077500D03*
X-237580000Y625077500D03*
X-237080000Y625077500D03*
X-236580000Y625077500D03*
X-236080000Y625077500D03*
X-235580000Y625077500D03*
X-235080000Y625077500D03*
X-234580000Y625077500D03*
X-234080000Y625077500D03*
X-233580000Y625077500D03*
X-233080000Y625077500D03*
X-232580000Y625077500D03*
X-232080000Y625077500D03*
X-231580000Y625077500D03*
X-231080000Y625077500D03*
X-230580000Y625077500D03*
X-230080000Y625077500D03*
X-229580000Y625077500D03*
X-229080000Y625077500D03*
X-228580000Y625077500D03*
X-228080000Y625077500D03*
X-227580000Y625077500D03*
X-227080000Y625077500D03*
X-226580000Y625077500D03*
X-226080000Y625077500D03*
X-225580000Y625077500D03*
X-225080000Y625077500D03*
X-224580000Y625077500D03*
X-224080000Y625077500D03*
X-223580000Y625077500D03*
X-223080000Y625077500D03*
X-222580000Y625077500D03*
X-222080000Y625077500D03*
X-221580000Y625077500D03*
%TD*%
D25*
%TO.C,U1104*%
X-264972500Y627187500D03*
X-262432500Y627187500D03*
X-259892500Y627187500D03*
X-257352500Y627187500D03*
X-254812500Y627187500D03*
X-252272500Y627187500D03*
X-249732500Y627187500D03*
X-249732500Y644967500D03*
X-252272500Y644967500D03*
X-254812500Y644967500D03*
X-257352500Y644967500D03*
X-259892500Y644967500D03*
X-262432500Y644967500D03*
X-264972500Y644967500D03*
%TD*%
D26*
%TO.C,U1103*%
X-251702500Y664635000D03*
X-252972500Y664635000D03*
X-254242500Y664635000D03*
X-255512500Y664635000D03*
X-255512500Y659685000D03*
X-254242500Y659685000D03*
X-252972500Y659685000D03*
X-251702500Y659685000D03*
%TD*%
D27*
%TO.C,U1101*%
X-260740000Y618762500D03*
X-261390000Y618762500D03*
X-262040000Y618762500D03*
X-262690000Y618762500D03*
X-263340000Y618762500D03*
X-263990000Y618762500D03*
X-264640000Y618762500D03*
X-264640000Y613037500D03*
X-263990000Y613037500D03*
X-263340000Y613037500D03*
X-262690000Y613037500D03*
X-262040000Y613037500D03*
X-261390000Y613037500D03*
X-260740000Y613037500D03*
%TD*%
D28*
%TO.C,U208*%
X-219125000Y649667500D03*
X-219125000Y648397500D03*
X-219125000Y647127500D03*
X-219125000Y645857500D03*
X-214175000Y645857500D03*
X-214175000Y647127500D03*
X-214175000Y648397500D03*
X-214175000Y649667500D03*
%TD*%
D29*
%TO.C,U207*%
X-217390000Y665050000D03*
X-217390000Y663780000D03*
X-217390000Y662510000D03*
X-217390000Y661240000D03*
X-211990000Y661240000D03*
X-211990000Y662510000D03*
X-211990000Y663780000D03*
X-211990000Y665050000D03*
D30*
X-214690000Y663145000D03*
%TD*%
D31*
%TO.C,U206*%
X-203815001Y612640000D03*
X-203815001Y611690001D03*
X-203815001Y610740002D03*
X-201540001Y610740002D03*
X-201540001Y611690001D03*
X-201540001Y612640000D03*
%TD*%
D32*
%TO.C,U205*%
X-217620000Y656820000D03*
X-217620000Y656170000D03*
X-217620000Y655520000D03*
X-217620000Y654870000D03*
X-217620000Y654220000D03*
X-217620000Y653570000D03*
X-217620000Y652920000D03*
X-211895000Y652920000D03*
X-211895000Y653570000D03*
X-211895000Y654220000D03*
X-211895000Y654870000D03*
X-211895000Y655520000D03*
X-211895000Y656170000D03*
X-211895000Y656820000D03*
%TD*%
D33*
%TO.C,U204*%
X-232310000Y658280000D03*
X-232310000Y659680000D03*
X-233010000Y657580000D03*
X-233010000Y658980000D03*
X-233010000Y660380000D03*
X-233710000Y658280000D03*
D34*
X-233710000Y658980000D03*
D33*
X-233710000Y659680000D03*
X-234410000Y657580000D03*
X-234410000Y658980000D03*
X-234410000Y660380000D03*
X-235110000Y658280000D03*
X-235110000Y659680000D03*
D35*
X-223460000Y666700000D03*
X-223460000Y665430000D03*
X-223460000Y664160000D03*
X-223460000Y662890000D03*
X-223460000Y661620000D03*
X-223460000Y660350000D03*
X-223460000Y659080000D03*
X-223460000Y657810000D03*
X-223460000Y656540000D03*
X-223460000Y655270000D03*
X-223460000Y654000000D03*
X-223460000Y652730000D03*
X-223460000Y651460000D03*
X-223460000Y650190000D03*
D36*
X-225225000Y648940000D03*
X-226495000Y648940000D03*
X-227765000Y648940000D03*
X-229035000Y648940000D03*
X-230305000Y648940000D03*
X-231575000Y648940000D03*
X-232845000Y648940000D03*
X-234115000Y648940000D03*
X-235385000Y648940000D03*
X-236655000Y648940000D03*
X-237925000Y648940000D03*
X-239195000Y648940000D03*
D35*
X-240960000Y650190000D03*
X-240960000Y651460000D03*
X-240960000Y652730000D03*
X-240960000Y654000000D03*
X-240960000Y655270000D03*
X-240960000Y656540000D03*
X-240960000Y657810000D03*
X-240960000Y659080000D03*
X-240960000Y660350000D03*
X-240960000Y661620000D03*
X-240960000Y662890000D03*
X-240960000Y664160000D03*
X-240960000Y665430000D03*
X-240960000Y666700000D03*
%TD*%
D37*
%TO.C,U203*%
X-205310000Y654069998D03*
X-205310000Y654569999D03*
X-205310000Y655069999D03*
X-205310000Y655570000D03*
X-208110000Y655570000D03*
X-208110000Y655069999D03*
X-208110000Y654569999D03*
X-208110000Y654069998D03*
%TD*%
D38*
%TO.C,U202*%
X-244010000Y629680000D03*
X-244010000Y629030000D03*
X-244010000Y628380000D03*
X-242235000Y628380000D03*
X-242235000Y629030000D03*
X-242235000Y629680000D03*
D39*
X-243122500Y629030000D03*
%TD*%
D40*
%TO.C,U201*%
X-239572500Y628240000D03*
X-239572500Y628740000D03*
X-239572500Y629240000D03*
X-239572500Y629740000D03*
X-241052500Y629740000D03*
X-241052500Y629240000D03*
X-241052500Y628740000D03*
X-241052500Y628240000D03*
%TD*%
D41*
%TO.C,R1102*%
X-261579999Y652420001D03*
X-261579999Y653419999D03*
%TD*%
%TO.C,R1101*%
X-263460000Y652400001D03*
X-263460000Y653399999D03*
%TD*%
%TO.C,R203*%
X-212020000Y647160002D03*
X-212020000Y648160000D03*
%TD*%
D42*
%TO.C,R202*%
X-209155001Y615962501D03*
X-209155001Y613037501D03*
%TD*%
D22*
%TO.C,R201*%
X-245540000Y655820000D03*
X-244540000Y655820000D03*
%TD*%
D43*
%TO.C,L201*%
X-204905001Y617300000D03*
X-200730000Y617300000D03*
%TD*%
D44*
%TO.C,J1104*%
X-211690000Y629540000D03*
D45*
X-201090000Y643840000D03*
D46*
X-210640000Y642940000D03*
D45*
X-201090000Y628340000D03*
D47*
X-210390000Y628340000D03*
D44*
X-211690001Y630640000D03*
X-211690000Y631740000D03*
X-211690001Y632840000D03*
X-211690000Y633940000D03*
X-211690000Y635039999D03*
X-211690000Y636140000D03*
X-211690000Y637240000D03*
X-211690000Y638340000D03*
D48*
X-200690000Y639140000D03*
X-200690000Y631139999D03*
%TD*%
D49*
%TO.C,J3*%
X-237730000Y634960000D03*
X-237730000Y642560000D03*
X-235190000Y634960000D03*
X-235190000Y642560000D03*
X-232650000Y634960000D03*
X-232650000Y642560000D03*
X-230110000Y634960000D03*
X-230110000Y642560000D03*
X-227570000Y634960000D03*
X-227570000Y642560000D03*
X-225030000Y634960000D03*
X-225030000Y642560000D03*
%TD*%
D50*
%TO.C,D1102*%
X-261600000Y651050000D03*
X-261600000Y649550000D03*
%TD*%
%TO.C,D1101*%
X-263470000Y651049999D03*
X-263470000Y649549999D03*
%TD*%
D21*
%TO.C,D201*%
X-245690000Y657130000D03*
X-244190000Y657130000D03*
%TD*%
D51*
%TO.C,C1106*%
X-210800000Y624900000D03*
X-209250000Y624900000D03*
%TD*%
D52*
%TO.C,C1105*%
X-210505000Y626160000D03*
X-209545000Y626160000D03*
%TD*%
D53*
%TO.C,C1104*%
X-258150000Y611070000D03*
X-258150000Y610110000D03*
%TD*%
D54*
%TO.C,C1103*%
X-256890000Y611280000D03*
X-256890000Y609730000D03*
%TD*%
%TO.C,C1102*%
X-255350000Y611290000D03*
X-255350000Y609740000D03*
%TD*%
D55*
%TO.C,C1101*%
X-260230000Y649460000D03*
X-260230000Y650420000D03*
%TD*%
D41*
%TO.C,C216*%
X-210700000Y648149998D03*
X-210700000Y647150000D03*
%TD*%
D21*
%TO.C,C215*%
X-203420000Y607790000D03*
X-201920000Y607790000D03*
%TD*%
D22*
%TO.C,C214*%
X-207215001Y611170001D03*
X-206215001Y611170001D03*
%TD*%
%TO.C,C213*%
X-203110000Y609080000D03*
X-202110000Y609080000D03*
%TD*%
D21*
%TO.C,C212*%
X-207405001Y609730001D03*
X-205905001Y609730001D03*
%TD*%
D22*
%TO.C,C211*%
X-214280001Y658320000D03*
X-215279999Y658320000D03*
%TD*%
D41*
%TO.C,C210*%
X-232410000Y630220002D03*
X-232410000Y631220000D03*
%TD*%
D22*
%TO.C,C209*%
X-245520000Y660060000D03*
X-244520000Y660060000D03*
%TD*%
D41*
%TO.C,C208*%
X-236810000Y630220001D03*
X-236810000Y631219999D03*
%TD*%
D22*
%TO.C,C207*%
X-245520000Y661380000D03*
X-244520000Y661380000D03*
%TD*%
D50*
%TO.C,C206*%
X-232240000Y627170000D03*
X-232240000Y628670000D03*
%TD*%
D22*
%TO.C,C205*%
X-207290000Y652910000D03*
X-206290000Y652910000D03*
%TD*%
D21*
%TO.C,C204*%
X-245770000Y658620000D03*
X-244270000Y658620000D03*
%TD*%
D50*
%TO.C,C203*%
X-233830000Y627180000D03*
X-233830000Y628680000D03*
%TD*%
%TO.C,C202*%
X-235440000Y627190000D03*
X-235440000Y628690000D03*
%TD*%
%TO.C,C201*%
X-237020000Y627200000D03*
X-237020000Y628700000D03*
%TD*%
M02*
