G04 #@! TF.GenerationSoftware,KiCad,Pcbnew,9.0.7*
G04 #@! TF.CreationDate,2026-02-18T22:11:59-06:00*
G04 #@! TF.ProjectId,grad_cap_display,67726164-5f63-4617-905f-646973706c61,rev?*
G04 #@! TF.SameCoordinates,Original*
G04 #@! TF.FileFunction,Soldermask,Top*
G04 #@! TF.FilePolarity,Negative*
%FSLAX46Y46*%
G04 Gerber Fmt 4.6, Leading zero omitted, Abs format (unit mm)*
G04 Created by KiCad (PCBNEW 9.0.7) date 2026-02-18 22:11:59*
%MOMM*%
%LPD*%
G01*
G04 APERTURE LIST*
G04 Aperture macros list*
%AMRoundRect*
0 Rectangle with rounded corners*
0 $1 Rounding radius*
0 $2 $3 $4 $5 $6 $7 $8 $9 X,Y pos of 4 corners*
0 Add a 4 corners polygon primitive as box body*
4,1,4,$2,$3,$4,$5,$6,$7,$8,$9,$2,$3,0*
0 Add four circle primitives for the rounded corners*
1,1,$1+$1,$2,$3*
1,1,$1+$1,$4,$5*
1,1,$1+$1,$6,$7*
1,1,$1+$1,$8,$9*
0 Add four rect primitives between the rounded corners*
20,1,$1+$1,$2,$3,$4,$5,0*
20,1,$1+$1,$4,$5,$6,$7,0*
20,1,$1+$1,$6,$7,$8,$9,0*
20,1,$1+$1,$8,$9,$2,$3,0*%
%AMFreePoly0*
4,1,9,3.862500,-0.866500,0.737500,-0.866500,0.737500,-0.450000,-0.737500,-0.450000,-0.737500,0.450000,0.737500,0.450000,0.737500,0.866500,3.862500,0.866500,3.862500,-0.866500,3.862500,-0.866500,$1*%
G04 Aperture macros list end*
%ADD10C,0.010000*%
%ADD11R,1.000000X0.800000*%
%ADD12R,0.700000X0.600000*%
%ADD13R,0.600000X0.700000*%
%ADD14C,0.600000*%
%ADD15R,3.900000X3.900000*%
%ADD16R,1.500000X0.900000*%
%ADD17R,0.900000X1.500000*%
%ADD18R,3.400000X4.300000*%
%ADD19RoundRect,0.125000X-0.250000X-0.125000X0.250000X-0.125000X0.250000X0.125000X-0.250000X0.125000X0*%
%ADD20RoundRect,0.102000X0.800000X-0.350000X0.800000X0.350000X-0.800000X0.350000X-0.800000X-0.350000X0*%
%ADD21RoundRect,0.102000X1.100000X-0.600000X1.100000X0.600000X-1.100000X0.600000X-1.100000X-0.600000X0*%
%ADD22RoundRect,0.102000X0.750000X-0.800000X0.750000X0.800000X-0.750000X0.800000X-0.750000X-0.800000X0*%
%ADD23RoundRect,0.102000X0.900000X-0.600000X0.900000X0.600000X-0.900000X0.600000X-0.900000X-0.600000X0*%
%ADD24R,1.600000X0.700000*%
%ADD25C,1.000000*%
%ADD26RoundRect,0.225000X0.425000X0.225000X-0.425000X0.225000X-0.425000X-0.225000X0.425000X-0.225000X0*%
%ADD27FreePoly0,180.000000*%
%ADD28RoundRect,0.225000X-0.425000X-0.225000X0.425000X-0.225000X0.425000X0.225000X-0.425000X0.225000X0*%
%ADD29FreePoly0,0.000000*%
%ADD30RoundRect,0.355555X0.969445X-0.444445X0.969445X0.444445X-0.969445X0.444445X-0.969445X-0.444445X0*%
%ADD31R,0.800000X1.000000*%
%ADD32RoundRect,0.150000X0.587500X0.150000X-0.587500X0.150000X-0.587500X-0.150000X0.587500X-0.150000X0*%
%ADD33RoundRect,0.100000X0.100000X-0.562500X0.100000X0.562500X-0.100000X0.562500X-0.100000X-0.562500X0*%
%ADD34RoundRect,0.100000X0.637500X0.100000X-0.637500X0.100000X-0.637500X-0.100000X0.637500X-0.100000X0*%
%ADD35RoundRect,0.203500X0.348500X0.203500X-0.348500X0.203500X-0.348500X-0.203500X0.348500X-0.203500X0*%
%ADD36RoundRect,0.183500X0.368500X0.183500X-0.368500X0.183500X-0.368500X-0.183500X0.368500X-0.183500X0*%
%ADD37O,1.750000X1.200000*%
%ADD38RoundRect,0.250000X0.625000X-0.350000X0.625000X0.350000X-0.625000X0.350000X-0.625000X-0.350000X0*%
%ADD39RoundRect,0.203500X0.203500X-0.348500X0.203500X0.348500X-0.203500X0.348500X-0.203500X-0.348500X0*%
%ADD40RoundRect,0.183500X0.183500X-0.368500X0.183500X0.368500X-0.183500X0.368500X-0.183500X-0.368500X0*%
%ADD41RoundRect,0.203500X-0.348500X-0.203500X0.348500X-0.203500X0.348500X0.203500X-0.348500X0.203500X0*%
%ADD42RoundRect,0.183500X-0.368500X-0.183500X0.368500X-0.183500X0.368500X0.183500X-0.368500X0.183500X0*%
%ADD43O,1.879600X3.657600*%
%ADD44R,1.000000X2.510000*%
%ADD45RoundRect,0.150000X-0.825000X-0.150000X0.825000X-0.150000X0.825000X0.150000X-0.825000X0.150000X0*%
%ADD46RoundRect,0.100000X-0.637500X-0.100000X0.637500X-0.100000X0.637500X0.100000X-0.637500X0.100000X0*%
%ADD47R,2.000000X6.000000*%
%ADD48RoundRect,0.150000X-0.150000X0.512500X-0.150000X-0.512500X0.150000X-0.512500X0.150000X0.512500X0*%
%ADD49R,6.000000X2.000000*%
%ADD50RoundRect,0.250000X-0.312500X-1.075000X0.312500X-1.075000X0.312500X1.075000X-0.312500X1.075000X0*%
%ADD51RoundRect,0.150000X0.150000X-0.825000X0.150000X0.825000X-0.150000X0.825000X-0.150000X-0.825000X0*%
%ADD52RoundRect,0.250000X0.260000X-2.250000X0.260000X2.250000X-0.260000X2.250000X-0.260000X-2.250000X0*%
%ADD53R,0.300000X1.200000*%
%ADD54RoundRect,0.087500X0.087500X-0.537500X0.087500X0.537500X-0.087500X0.537500X-0.087500X-0.537500X0*%
%ADD55RoundRect,0.322500X2.827500X-0.752500X2.827500X0.752500X-2.827500X0.752500X-2.827500X-0.752500X0*%
G04 APERTURE END LIST*
D10*
X27730000Y-53252500D02*
X25130000Y-53252500D01*
X25130000Y-51452500D01*
X25930000Y-51452500D01*
X25930000Y-50652500D01*
X27730000Y-50652500D01*
X27730000Y-53252500D01*
G36*
X27730000Y-53252500D02*
G01*
X25130000Y-53252500D01*
X25130000Y-51452500D01*
X25930000Y-51452500D01*
X25930000Y-50652500D01*
X27730000Y-50652500D01*
X27730000Y-53252500D01*
G37*
X50630000Y-51452500D02*
X51430000Y-51452500D01*
X51430000Y-53252500D01*
X48830000Y-53252500D01*
X48830000Y-50652500D01*
X50630000Y-50652500D01*
X50630000Y-51452500D01*
G36*
X50630000Y-51452500D02*
G01*
X51430000Y-51452500D01*
X51430000Y-53252500D01*
X48830000Y-53252500D01*
X48830000Y-50652500D01*
X50630000Y-50652500D01*
X50630000Y-51452500D01*
G37*
D11*
X24220076Y-8881849D03*
X24220076Y-10381849D03*
D12*
X25570076Y-10271847D03*
X25570076Y-9271849D03*
X26770076Y-10271847D03*
X26770076Y-9271849D03*
X22870076Y-8781850D03*
X22870076Y-9781848D03*
D11*
X21520076Y-8880605D03*
X21520076Y-10380605D03*
D13*
X9690077Y-20152469D03*
X10690075Y-20152469D03*
X9690077Y-18952469D03*
X10690075Y-18952469D03*
X14770076Y-21822469D03*
X13770076Y-21822469D03*
D14*
X38192500Y-16050000D03*
X38192500Y-14650000D03*
X37492500Y-16750000D03*
X37492500Y-15350000D03*
X37492500Y-13950000D03*
X36792500Y-16050000D03*
D15*
X36792500Y-15350000D03*
D14*
X36792500Y-14650000D03*
X36092500Y-16750000D03*
X36092500Y-15350000D03*
X36092500Y-13950000D03*
X35392500Y-16050000D03*
X35392500Y-14650000D03*
D16*
X47042500Y-7630000D03*
X47042500Y-8900000D03*
X47042500Y-10170000D03*
X47042500Y-11440000D03*
X47042500Y-12710000D03*
X47042500Y-13980000D03*
X47042500Y-15250000D03*
X47042500Y-16520000D03*
X47042500Y-17790000D03*
X47042500Y-19060000D03*
X47042500Y-20330000D03*
X47042500Y-21600000D03*
X47042500Y-22870000D03*
X47042500Y-24140000D03*
D17*
X45277500Y-25390000D03*
X44007500Y-25390000D03*
X42737500Y-25390000D03*
X41467500Y-25390000D03*
X40197500Y-25390000D03*
X38927500Y-25390000D03*
X37657500Y-25390000D03*
X36387500Y-25390000D03*
X35117500Y-25390000D03*
X33847500Y-25390000D03*
X32577500Y-25390000D03*
X31307500Y-25390000D03*
D16*
X29542500Y-24140000D03*
X29542500Y-22870000D03*
X29542500Y-21600000D03*
X29542500Y-20330000D03*
X29542500Y-19060000D03*
X29542500Y-17790000D03*
X29542500Y-16520000D03*
X29542500Y-15250000D03*
X29542500Y-13980000D03*
X29542500Y-12710000D03*
X29542500Y-11440000D03*
X29542500Y-10170000D03*
X29542500Y-8900000D03*
X29542500Y-7630000D03*
D18*
X53080076Y-17717469D03*
D19*
X55780076Y-15812469D03*
X55780076Y-17082469D03*
X55780076Y-18352469D03*
X55780076Y-19622469D03*
X50380076Y-19622469D03*
X50380076Y-18352469D03*
X50380076Y-17082469D03*
X50380076Y-15812469D03*
D20*
X57920000Y-44790000D03*
D21*
X68520000Y-30490000D03*
D22*
X58970000Y-31390000D03*
D21*
X68520000Y-45990000D03*
D23*
X59220000Y-45990000D03*
D20*
X57919999Y-43690000D03*
X57920000Y-42590000D03*
D24*
X57919999Y-41490000D03*
D20*
X57920000Y-40390000D03*
X57920000Y-39290001D03*
X57920000Y-38190000D03*
X57920000Y-37090000D03*
X57920000Y-35990000D03*
D25*
X68920000Y-35190000D03*
X68920000Y-43190001D03*
D26*
X12210076Y-24662469D03*
D27*
X12122575Y-23162469D03*
D26*
X12210076Y-21662469D03*
D28*
X15871986Y-15992469D03*
D29*
X15959487Y-14492469D03*
D28*
X15871986Y-12992469D03*
D30*
X56700000Y-51920000D03*
X56700000Y-49470000D03*
X53500000Y-49470000D03*
X53500000Y-51920000D03*
D12*
X54920076Y-66692468D03*
X54920076Y-65692470D03*
D31*
X67690076Y-66322469D03*
X69190076Y-66322469D03*
D11*
X23220076Y-16452469D03*
X23220076Y-14952469D03*
D31*
X17620076Y-17712469D03*
X16120076Y-17712469D03*
D12*
X21870076Y-15052470D03*
X21870076Y-16052468D03*
X20670076Y-15052470D03*
X20670076Y-16052468D03*
D31*
X20700076Y-25152469D03*
X19200076Y-25152469D03*
D13*
X6140075Y-18952469D03*
X5140077Y-18952469D03*
X6140075Y-20152469D03*
X5140077Y-20152469D03*
D12*
X8930076Y-15252470D03*
X8930076Y-16252468D03*
D13*
X15380077Y-23062469D03*
X16380075Y-23062469D03*
D32*
X5307424Y-12816462D03*
X7182425Y-11866462D03*
X7182425Y-13766462D03*
D33*
X5592426Y-17403962D03*
X6242426Y-17403962D03*
X6892426Y-17403962D03*
X6892426Y-15628962D03*
X6242426Y-15628962D03*
X5592426Y-15628962D03*
D32*
X9851986Y-12814968D03*
X11726987Y-11864968D03*
X11726987Y-13764968D03*
D33*
X10139487Y-15617468D03*
X10789487Y-15617468D03*
X11439487Y-15617468D03*
X11439487Y-17392468D03*
X10789487Y-17392468D03*
X10139487Y-17392468D03*
D13*
X16690075Y-25752469D03*
X15690077Y-25752469D03*
D31*
X19200076Y-23552469D03*
X20700076Y-23552469D03*
D34*
X45122531Y-46932469D03*
X45122531Y-46282469D03*
X45122531Y-45632469D03*
X45122531Y-44982469D03*
X45122531Y-44332469D03*
X45122531Y-43682469D03*
X45122531Y-43032469D03*
X39397531Y-43032469D03*
X39397531Y-43682469D03*
X39397531Y-44332469D03*
X39397531Y-44982469D03*
X39397531Y-45632469D03*
X39397531Y-46282469D03*
X39397531Y-46932469D03*
D35*
X66074720Y-14622469D03*
D36*
X66074720Y-13782469D03*
X66074720Y-12982469D03*
D35*
X66074720Y-12142469D03*
X64304720Y-12142469D03*
D36*
X64304720Y-12982469D03*
X64304720Y-13782469D03*
D35*
X64304720Y-14622469D03*
D37*
X8230076Y-5762468D03*
D38*
X8230076Y-7762469D03*
D39*
X63450076Y-21027469D03*
D40*
X64290076Y-21027469D03*
X65090076Y-21027469D03*
D39*
X65930076Y-21027469D03*
X65930076Y-19257469D03*
D40*
X65090076Y-19257469D03*
X64290076Y-19257469D03*
D39*
X63450076Y-19257469D03*
D41*
X4102500Y-56960000D03*
D42*
X4102500Y-57800000D03*
X4102500Y-58600000D03*
D41*
X4102500Y-59440000D03*
X5872500Y-59440000D03*
D42*
X5872500Y-58600000D03*
X5872500Y-57800000D03*
D41*
X5872500Y-56960000D03*
D39*
X50670076Y-45492469D03*
D40*
X51510076Y-45492469D03*
X52310076Y-45492469D03*
D39*
X53150076Y-45492469D03*
X53150076Y-43722469D03*
D40*
X52310076Y-43722469D03*
X51510076Y-43722469D03*
D39*
X50670076Y-43722469D03*
D43*
X9140000Y-47140000D03*
X11680000Y-47140000D03*
X14220000Y-47140000D03*
X16760000Y-47140000D03*
X19300000Y-47140000D03*
X21840000Y-47140000D03*
X24380000Y-47140000D03*
X24380000Y-29360000D03*
X21840000Y-29360000D03*
X19300000Y-29360000D03*
X16760000Y-29360000D03*
X14220000Y-29360000D03*
X11680000Y-29360000D03*
X9140000Y-29360000D03*
D13*
X31899999Y-39669988D03*
X30900001Y-39669988D03*
D44*
X8670076Y-66877469D03*
X11210076Y-70187469D03*
X13750076Y-66877469D03*
X16290076Y-70187469D03*
X58990000Y-8150000D03*
X61530000Y-4840000D03*
X64070000Y-8150000D03*
X66610000Y-4840000D03*
X69150000Y-8150000D03*
X71690000Y-4840000D03*
D13*
X62709999Y-47530000D03*
X61710001Y-47530000D03*
D45*
X51080076Y-22997469D03*
X51080076Y-24267469D03*
X51080076Y-25537469D03*
X51080076Y-26807469D03*
X56030076Y-26807469D03*
X56030076Y-25537469D03*
X56030076Y-24267469D03*
X56030076Y-22997469D03*
D46*
X50402576Y-8752469D03*
X50402576Y-9402469D03*
X50402576Y-10052469D03*
X50402576Y-10702469D03*
X50402576Y-11352469D03*
X50402576Y-12002469D03*
X50402576Y-12652469D03*
X56127576Y-12652469D03*
X56127576Y-12002469D03*
X56127576Y-11352469D03*
X56127576Y-10702469D03*
X56127576Y-10052469D03*
X56127576Y-9402469D03*
X56127576Y-8752469D03*
D47*
X6572498Y-76570000D03*
X6572498Y-76570000D03*
D25*
X6572499Y-74283999D03*
D47*
X9112499Y-76570000D03*
X9112499Y-76570000D03*
D25*
X9112499Y-74284000D03*
D47*
X11652499Y-76570000D03*
X11652499Y-76570000D03*
D25*
X11652499Y-74284000D03*
D47*
X14192499Y-76570000D03*
X14192499Y-76570000D03*
D25*
X14192499Y-74284000D03*
D47*
X16732499Y-76570000D03*
X16732499Y-76570000D03*
D25*
X16732499Y-74284000D03*
D47*
X19272500Y-76570000D03*
X19272500Y-76570000D03*
D25*
X19272499Y-74283999D03*
D47*
X57372499Y-76570000D03*
X57372499Y-76570000D03*
D25*
X57372499Y-74284000D03*
D47*
X59912499Y-76570000D03*
X59912499Y-76570000D03*
D25*
X59912499Y-74284000D03*
D47*
X62452498Y-76570000D03*
X62452498Y-76570000D03*
D25*
X62452498Y-74284000D03*
D47*
X64992500Y-76570000D03*
X64992500Y-76570000D03*
D25*
X64992500Y-74284000D03*
D47*
X67532499Y-76570000D03*
X67532499Y-76570000D03*
D25*
X67532499Y-74284000D03*
D47*
X70072499Y-76570000D03*
X70072499Y-76570000D03*
D25*
X70072499Y-74284000D03*
D44*
X8670000Y-62095001D03*
X11210000Y-65405001D03*
X13750000Y-62095001D03*
X16290000Y-65405001D03*
X18830000Y-62095001D03*
D31*
X51626120Y-58450000D03*
X53126120Y-58450000D03*
D12*
X58055076Y-25397468D03*
X58055076Y-24397470D03*
D44*
X21370000Y-60601247D03*
X18830000Y-57291247D03*
X16290000Y-60601247D03*
X13750000Y-57291247D03*
X11210000Y-60601247D03*
X8670000Y-57291247D03*
D31*
X64660000Y-47530000D03*
X66160000Y-47530000D03*
D12*
X49300076Y-43942470D03*
X49300076Y-44942468D03*
D11*
X61250000Y-9002469D03*
X61250000Y-10502469D03*
X69040076Y-67642469D03*
X69040076Y-69142469D03*
D13*
X53260075Y-14242469D03*
X52260077Y-14242469D03*
D47*
X70012502Y0D03*
X70012502Y0D03*
D25*
X70012501Y-2286001D03*
D47*
X67472501Y0D03*
X67472501Y0D03*
D25*
X67472501Y-2286000D03*
D47*
X64932501Y0D03*
X64932501Y0D03*
D25*
X64932501Y-2286000D03*
D47*
X62392501Y0D03*
X62392501Y0D03*
D25*
X62392501Y-2286000D03*
D47*
X59852501Y0D03*
X59852501Y0D03*
D25*
X59852501Y-2286000D03*
D47*
X57312500Y0D03*
X57312500Y0D03*
D25*
X57312501Y-2286001D03*
D47*
X19212501Y0D03*
X19212501Y0D03*
D25*
X19212501Y-2286000D03*
D47*
X16672501Y0D03*
X16672501Y0D03*
D25*
X16672501Y-2286000D03*
D47*
X14132502Y0D03*
X14132502Y0D03*
D25*
X14132502Y-2286000D03*
D47*
X11592500Y0D03*
X11592500Y0D03*
D25*
X11592500Y-2286000D03*
D47*
X9052501Y0D03*
X9052501Y0D03*
D25*
X9052501Y-2286000D03*
D47*
X6512501Y0D03*
X6512501Y0D03*
D25*
X6512501Y-2286000D03*
D48*
X58870000Y-63775000D03*
X57920001Y-63775000D03*
X56970002Y-63775000D03*
X56970002Y-66050000D03*
X57920001Y-66050000D03*
X58870000Y-66050000D03*
D49*
X35000Y-6567500D03*
X35000Y-6567500D03*
D25*
X2321000Y-6567500D03*
D49*
X35000Y-9107500D03*
X35000Y-9107500D03*
D25*
X2321000Y-9107500D03*
D49*
X35000Y-11647500D03*
X35000Y-11647500D03*
D25*
X2321000Y-11647500D03*
D49*
X35000Y-14187500D03*
X35000Y-14187500D03*
D25*
X2321000Y-14187500D03*
D49*
X35000Y-16727500D03*
X35000Y-16727500D03*
D25*
X2321000Y-16727500D03*
D49*
X35000Y-19267500D03*
X35000Y-19267500D03*
D25*
X2321000Y-19267500D03*
D49*
X35000Y-57367500D03*
X35000Y-57367500D03*
D25*
X2321000Y-57367500D03*
D49*
X35000Y-59907500D03*
X35000Y-59907500D03*
D25*
X2321000Y-59907500D03*
D49*
X35000Y-62447500D03*
X35000Y-62447500D03*
D25*
X2321000Y-62447500D03*
D49*
X35000Y-64987500D03*
X35000Y-64987500D03*
D25*
X2321000Y-64987500D03*
D49*
X35000Y-67527500D03*
X35000Y-67527500D03*
D25*
X2321000Y-67527500D03*
D49*
X35000Y-70067500D03*
X35000Y-70067500D03*
D25*
X2321000Y-70067500D03*
D11*
X60980076Y-24122469D03*
X60980076Y-22622469D03*
X4970076Y-7462469D03*
X4970076Y-5962469D03*
D49*
X76550000Y-70007500D03*
X76550000Y-70007500D03*
D25*
X74264000Y-70007500D03*
D49*
X76550000Y-67467500D03*
X76550000Y-67467500D03*
D25*
X74264000Y-67467500D03*
D49*
X76550000Y-64927500D03*
X76550000Y-64927500D03*
D25*
X74264000Y-64927500D03*
D49*
X76550000Y-62387500D03*
X76550000Y-62387500D03*
D25*
X74264000Y-62387500D03*
D49*
X76550000Y-59847500D03*
X76550000Y-59847500D03*
D25*
X74264000Y-59847500D03*
D49*
X76550000Y-57307500D03*
X76550000Y-57307500D03*
D25*
X74264000Y-57307500D03*
D49*
X76550000Y-19207500D03*
X76550000Y-19207500D03*
D25*
X74264000Y-19207500D03*
D49*
X76550000Y-16667500D03*
X76550000Y-16667500D03*
D25*
X74264000Y-16667500D03*
D49*
X76550000Y-14127500D03*
X76550000Y-14127500D03*
D25*
X74264000Y-14127500D03*
D49*
X76550000Y-11587500D03*
X76550000Y-11587500D03*
D25*
X74264000Y-11587500D03*
D49*
X76550000Y-9047500D03*
X76550000Y-9047500D03*
D25*
X74264000Y-9047500D03*
D49*
X76550000Y-6507500D03*
X76550000Y-6507500D03*
D25*
X74264000Y-6507500D03*
D12*
X59310076Y-14812470D03*
X59310076Y-15812468D03*
X48120076Y-43942470D03*
X48120076Y-44942468D03*
X46947607Y-44942468D03*
X46947607Y-43942470D03*
D11*
X68480076Y-24122469D03*
X68480076Y-22622469D03*
X65980076Y-24122469D03*
X65980076Y-22622469D03*
D50*
X56175000Y-58200000D03*
X59100000Y-58200000D03*
D44*
X8670076Y-52493920D03*
X11210076Y-55803920D03*
X13750076Y-52493920D03*
X16290076Y-55803920D03*
X18830076Y-52493920D03*
X21370076Y-55803920D03*
D51*
X29505000Y-46574988D03*
X30775000Y-46574988D03*
X32045000Y-46574988D03*
X33315000Y-46574988D03*
X33315000Y-41624988D03*
X32045000Y-41624988D03*
X30775000Y-41624988D03*
X29505000Y-41624988D03*
D11*
X63480076Y-24122469D03*
X63480076Y-22622469D03*
D52*
X38175000Y-39225000D03*
X38175000Y-31625000D03*
X40715000Y-39225000D03*
X40715000Y-31625000D03*
X43255000Y-39225000D03*
X43255000Y-31625000D03*
X45795000Y-39225000D03*
X45795000Y-31625000D03*
X48335000Y-39225000D03*
X48335000Y-31625000D03*
X50875000Y-39225000D03*
X50875000Y-31625000D03*
D13*
X51585072Y-57000000D03*
X52585070Y-57000000D03*
D44*
X56880000Y-68745000D03*
X59420000Y-72055000D03*
D53*
X28530000Y-49252500D03*
X29030000Y-49252500D03*
X29530000Y-49252500D03*
X30030000Y-49252500D03*
X30530000Y-49252500D03*
X31030000Y-49252500D03*
X31530000Y-49252500D03*
X32030000Y-49252500D03*
X32530000Y-49252500D03*
X33030000Y-49252500D03*
X33530000Y-49252500D03*
X34030000Y-49252500D03*
X34530000Y-49252500D03*
X35030000Y-49252500D03*
X35530000Y-49252500D03*
X36030000Y-49252500D03*
X36530000Y-49252500D03*
X37030000Y-49252500D03*
X37530000Y-49252500D03*
X38030000Y-49252500D03*
X38530000Y-49252500D03*
X39030000Y-49252500D03*
X39530000Y-49252500D03*
X40030000Y-49252500D03*
X40530000Y-49252500D03*
X41030000Y-49252500D03*
X41530000Y-49252500D03*
X42030000Y-49252500D03*
X42530000Y-49252500D03*
X43030000Y-49252500D03*
X43530000Y-49252500D03*
X44030000Y-49252500D03*
X44530000Y-49252500D03*
X45030000Y-49252500D03*
X45530000Y-49252500D03*
X46030000Y-49252500D03*
X46530000Y-49252500D03*
X47030000Y-49252500D03*
X47530000Y-49252500D03*
X48030000Y-49252500D03*
D12*
X67640076Y-67622471D03*
X67640076Y-68622469D03*
D54*
X60510074Y-16712469D03*
X61010075Y-16712469D03*
X61510075Y-16712469D03*
X62010076Y-16712469D03*
X62010076Y-13912469D03*
X61510075Y-13912469D03*
X61010075Y-13912469D03*
X60510074Y-13912469D03*
D55*
X63392599Y-67562500D03*
X63392599Y-63387499D03*
D12*
X56430076Y-7352468D03*
X56430076Y-6352470D03*
D13*
X57780076Y-22972469D03*
X58780076Y-22972469D03*
X29770076Y-39672457D03*
X28770076Y-39672457D03*
D31*
X13985076Y-20452469D03*
X15485076Y-20452469D03*
D11*
X13990076Y-23187469D03*
X13990076Y-24687469D03*
D13*
X53810076Y-42482469D03*
X54810076Y-42482469D03*
D31*
X54595076Y-41222469D03*
X53095076Y-41222469D03*
X15562577Y-24362469D03*
X17062577Y-24362469D03*
D13*
X37640076Y-44972469D03*
X36640076Y-44972469D03*
M02*
