%TF.GenerationSoftware,KiCad,Pcbnew,9.0.7*%
%TF.CreationDate,2026-02-15T10:00:23-06:00*%
%TF.ProjectId,grad_cap_display,67726164-5f63-4617-905f-646973706c61,rev?*%
%TF.SameCoordinates,Original*%
%TF.FileFunction,Soldermask,Bot*%
%TF.FilePolarity,Negative*%
%FSLAX46Y46*%
G04 Gerber Fmt 4.6, Leading zero omitted, Abs format (unit mm)*
G04 Created by KiCad (PCBNEW 9.0.7) date 2026-02-15 10:00:23*
%MOMM*%
%LPD*%
G01*
G04 APERTURE LIST*
%ADD10R,2.000000X2.000000*%
%ADD11C,1.000000*%
G04 APERTURE END LIST*
D10*
%TO.C,J205*%
X-268177500Y597760000D03*
X-265637500Y597760000D03*
X-263097500Y597760000D03*
X-260557500Y597760000D03*
X-258017500Y597760000D03*
X-255477500Y597760000D03*
X-252937500Y597760000D03*
X-250397500Y597760000D03*
X-247857500Y597760000D03*
X-245317500Y597760000D03*
X-242777500Y597760000D03*
X-240237500Y597760000D03*
X-237697500Y597760000D03*
X-235157500Y597760000D03*
X-232617500Y597760000D03*
X-230077500Y597760000D03*
X-227537500Y597760000D03*
X-224997500Y597760000D03*
X-222457500Y597760000D03*
X-219917500Y597760000D03*
X-217377500Y597760000D03*
X-214837500Y597760000D03*
X-212297500Y597760000D03*
X-209757500Y597760000D03*
X-207217500Y597760000D03*
X-204677500Y597760000D03*
X-202137500Y597760000D03*
X-199597500Y597760000D03*
X-197057500Y597760000D03*
X-194517500Y597760000D03*
X-268177500Y597760000D03*
X-265637500Y597760000D03*
X-263097500Y597760000D03*
X-260557500Y597760000D03*
X-258017500Y597760000D03*
X-255477500Y597760000D03*
X-252937500Y597760000D03*
X-250397500Y597760000D03*
X-247857500Y597760000D03*
X-245317500Y597760000D03*
X-242777500Y597760000D03*
X-240237500Y597760000D03*
X-237697500Y597760000D03*
X-235157500Y597760000D03*
X-232617500Y597760000D03*
X-230077500Y597760000D03*
X-227537500Y597760000D03*
X-224997500Y597760000D03*
X-222457500Y597760000D03*
X-219917500Y597760000D03*
X-217377500Y597760000D03*
X-214837500Y597760000D03*
X-212297500Y597760000D03*
X-209757500Y597760000D03*
X-207217500Y597760000D03*
X-204677500Y597760000D03*
X-202137500Y597760000D03*
X-199597500Y597760000D03*
X-197057500Y597760000D03*
X-194517500Y597760000D03*
%TD*%
%TO.C,J204*%
X-193060000Y672902500D03*
X-193060000Y670362500D03*
X-193060000Y667822500D03*
X-193060000Y665282500D03*
X-193060000Y662742500D03*
X-193060000Y660202500D03*
X-193060000Y657662500D03*
X-193060000Y655122500D03*
X-193060000Y652582500D03*
X-193060000Y650042500D03*
X-193060000Y647502500D03*
X-193060000Y644962500D03*
X-193060000Y642422500D03*
X-193060000Y639882500D03*
X-193060000Y637342500D03*
X-193060000Y634802500D03*
X-193060000Y632262500D03*
X-193060000Y629722500D03*
X-193060000Y627182500D03*
X-193060000Y624642500D03*
X-193060000Y622102500D03*
X-193060000Y619562500D03*
X-193060000Y617022500D03*
X-193060000Y614482500D03*
X-193060000Y611942500D03*
X-193060000Y609402500D03*
X-193060000Y606862500D03*
X-193060000Y604322500D03*
X-193060000Y601782500D03*
X-193060000Y599242500D03*
X-193060000Y599242500D03*
X-193060000Y601782500D03*
X-193060000Y604322500D03*
X-193060000Y606862500D03*
X-193060000Y609402500D03*
X-193060000Y611942500D03*
X-193060000Y614482500D03*
X-193060000Y617022500D03*
X-193060000Y619562500D03*
X-193060000Y622102500D03*
X-193060000Y624642500D03*
X-193060000Y627182500D03*
X-193060000Y629722500D03*
X-193060000Y632262500D03*
X-193060000Y634802500D03*
X-193060000Y637342500D03*
X-193060000Y639882500D03*
X-193060000Y642422500D03*
X-193060000Y644962500D03*
X-193060000Y647502500D03*
X-193060000Y650042500D03*
X-193060000Y652582500D03*
X-193060000Y655122500D03*
X-193060000Y657662500D03*
X-193060000Y660202500D03*
X-193060000Y662742500D03*
X-193060000Y665282500D03*
X-193060000Y667822500D03*
X-193060000Y670362500D03*
X-193060000Y672902500D03*
%TD*%
%TO.C,J202*%
X-269575000Y599182500D03*
X-269575000Y601722500D03*
X-269575000Y604262500D03*
X-269575000Y606802500D03*
X-269575000Y609342500D03*
X-269575000Y611882500D03*
X-269575000Y614422500D03*
X-269575000Y616962500D03*
X-269575000Y619502500D03*
X-269575000Y622042500D03*
X-269575000Y624582500D03*
X-269575000Y627122500D03*
X-269575000Y629662500D03*
X-269575000Y632202500D03*
X-269575000Y634742500D03*
X-269575000Y637282500D03*
X-269575000Y639822500D03*
X-269575000Y642362500D03*
X-269575000Y644902500D03*
X-269575000Y647442500D03*
X-269575000Y649982500D03*
X-269575000Y652522500D03*
X-269575000Y655062500D03*
X-269575000Y657602500D03*
X-269575000Y660142500D03*
X-269575000Y662682500D03*
X-269575000Y665222500D03*
X-269575000Y667762500D03*
X-269575000Y670302500D03*
X-269575000Y672842500D03*
X-269575000Y611882500D03*
X-269575000Y606802500D03*
X-269575000Y599182500D03*
X-269575000Y601722500D03*
X-269575000Y609342500D03*
X-269575000Y604262500D03*
X-269575000Y665222500D03*
X-269575000Y660142500D03*
X-269575000Y670302500D03*
X-269575000Y667762500D03*
X-269575000Y657602500D03*
X-269575000Y655062500D03*
X-269575000Y662682500D03*
X-269575000Y672842500D03*
X-269575000Y649982500D03*
X-269575000Y639822500D03*
X-269575000Y647442500D03*
X-269575000Y652522500D03*
X-269575000Y644902500D03*
X-269575000Y642362500D03*
X-269575000Y634742500D03*
X-269575000Y637282500D03*
X-269575000Y629662500D03*
X-269575000Y627122500D03*
X-269575000Y624582500D03*
X-269575000Y622042500D03*
X-269575000Y619502500D03*
X-269575000Y632202500D03*
X-269575000Y616962500D03*
X-269575000Y614422500D03*
%TD*%
%TO.C,J203*%
X-194457500Y674325000D03*
X-196997500Y674325000D03*
X-199537500Y674325000D03*
X-202077500Y674325000D03*
X-204617500Y674325000D03*
X-207157500Y674325000D03*
X-209697500Y674325000D03*
X-212237500Y674325000D03*
X-214777500Y674325000D03*
X-217317500Y674325000D03*
X-219857500Y674325000D03*
X-222397500Y674325000D03*
X-224937500Y674325000D03*
X-227477500Y674325000D03*
X-230017500Y674325000D03*
X-232557500Y674325000D03*
X-235097500Y674325000D03*
X-237637500Y674325000D03*
X-240177500Y674325000D03*
X-242717500Y674325000D03*
X-245257500Y674325000D03*
X-247797500Y674325000D03*
X-250337500Y674325000D03*
X-252877500Y674325000D03*
X-255417500Y674325000D03*
X-257957500Y674325000D03*
X-260497500Y674325000D03*
X-263037500Y674325000D03*
X-265577500Y674325000D03*
X-268117500Y674325000D03*
X-194457500Y674325000D03*
X-196997500Y674325000D03*
X-199537500Y674325000D03*
X-202077500Y674325000D03*
X-204617500Y674325000D03*
X-207157500Y674325000D03*
X-209697500Y674325000D03*
X-212237500Y674325000D03*
X-214777500Y674325000D03*
X-217317500Y674325000D03*
X-219857500Y674325000D03*
X-222397500Y674325000D03*
X-224937500Y674325000D03*
X-227477500Y674325000D03*
X-230017500Y674325000D03*
X-232557500Y674325000D03*
X-235097500Y674325000D03*
X-237637500Y674325000D03*
X-240177500Y674325000D03*
X-242717500Y674325000D03*
X-245257500Y674325000D03*
X-247797500Y674325000D03*
X-250337500Y674325000D03*
X-252877500Y674325000D03*
X-255417500Y674325000D03*
X-257957500Y674325000D03*
X-260497500Y674325000D03*
X-263037500Y674325000D03*
X-265577500Y674325000D03*
X-268117500Y674325000D03*
%TD*%
D11*
%TO.C,J1104*%
X-200690000Y639140000D03*
X-200690000Y631139999D03*
%TD*%
M02*
