G04 #@! TF.GenerationSoftware,KiCad,Pcbnew,9.0.7*
G04 #@! TF.CreationDate,2026-02-18T22:11:59-06:00*
G04 #@! TF.ProjectId,grad_cap_display,67726164-5f63-4617-905f-646973706c61,rev?*
G04 #@! TF.SameCoordinates,Original*
G04 #@! TF.FileFunction,Legend,Bot*
G04 #@! TF.FilePolarity,Positive*
%FSLAX46Y46*%
G04 Gerber Fmt 4.6, Leading zero omitted, Abs format (unit mm)*
G04 Created by KiCad (PCBNEW 9.0.7) date 2026-02-18 22:11:59*
%MOMM*%
%LPD*%
G01*
G04 APERTURE LIST*
G04 Aperture macros list*
%AMRoundRect*
0 Rectangle with rounded corners*
0 $1 Rounding radius*
0 $2 $3 $4 $5 $6 $7 $8 $9 X,Y pos of 4 corners*
0 Add a 4 corners polygon primitive as box body*
4,1,4,$2,$3,$4,$5,$6,$7,$8,$9,$2,$3,0*
0 Add four circle primitives for the rounded corners*
1,1,$1+$1,$2,$3*
1,1,$1+$1,$4,$5*
1,1,$1+$1,$6,$7*
1,1,$1+$1,$8,$9*
0 Add four rect primitives between the rounded corners*
20,1,$1+$1,$2,$3,$4,$5,0*
20,1,$1+$1,$4,$5,$6,$7,0*
20,1,$1+$1,$6,$7,$8,$9,0*
20,1,$1+$1,$8,$9,$2,$3,0*%
G04 Aperture macros list end*
%ADD10C,1.000000*%
%ADD11O,1.750000X1.200000*%
%ADD12RoundRect,0.250000X0.625000X-0.350000X0.625000X0.350000X-0.625000X0.350000X-0.625000X-0.350000X0*%
%ADD13R,2.000000X6.000000*%
%ADD14R,6.000000X2.000000*%
G04 APERTURE END LIST*
%LPC*%
D10*
X68920000Y-35190000D03*
X68920000Y-43190001D03*
D11*
X8230076Y-5762468D03*
D12*
X8230076Y-7762469D03*
D13*
X6572498Y-76570000D03*
X6572498Y-76570000D03*
D10*
X6572499Y-74283999D03*
D13*
X9112499Y-76570000D03*
X9112499Y-76570000D03*
D10*
X9112499Y-74284000D03*
D13*
X11652499Y-76570000D03*
X11652499Y-76570000D03*
D10*
X11652499Y-74284000D03*
D13*
X14192499Y-76570000D03*
X14192499Y-76570000D03*
D10*
X14192499Y-74284000D03*
D13*
X16732499Y-76570000D03*
X16732499Y-76570000D03*
D10*
X16732499Y-74284000D03*
D13*
X19272500Y-76570000D03*
X19272500Y-76570000D03*
D10*
X19272499Y-74283999D03*
D13*
X57372499Y-76570000D03*
X57372499Y-76570000D03*
D10*
X57372499Y-74284000D03*
D13*
X59912499Y-76570000D03*
X59912499Y-76570000D03*
D10*
X59912499Y-74284000D03*
D13*
X62452498Y-76570000D03*
X62452498Y-76570000D03*
D10*
X62452498Y-74284000D03*
D13*
X64992500Y-76570000D03*
X64992500Y-76570000D03*
D10*
X64992500Y-74284000D03*
D13*
X67532499Y-76570000D03*
X67532499Y-76570000D03*
D10*
X67532499Y-74284000D03*
D13*
X70072499Y-76570000D03*
X70072499Y-76570000D03*
D10*
X70072499Y-74284000D03*
D13*
X70012502Y0D03*
X70012502Y0D03*
D10*
X70012501Y-2286001D03*
D13*
X67472501Y0D03*
X67472501Y0D03*
D10*
X67472501Y-2286000D03*
D13*
X64932501Y0D03*
X64932501Y0D03*
D10*
X64932501Y-2286000D03*
D13*
X62392501Y0D03*
X62392501Y0D03*
D10*
X62392501Y-2286000D03*
D13*
X59852501Y0D03*
X59852501Y0D03*
D10*
X59852501Y-2286000D03*
D13*
X57312500Y0D03*
X57312500Y0D03*
D10*
X57312501Y-2286001D03*
D13*
X19212501Y0D03*
X19212501Y0D03*
D10*
X19212501Y-2286000D03*
D13*
X16672501Y0D03*
X16672501Y0D03*
D10*
X16672501Y-2286000D03*
D13*
X14132502Y0D03*
X14132502Y0D03*
D10*
X14132502Y-2286000D03*
D13*
X11592500Y0D03*
X11592500Y0D03*
D10*
X11592500Y-2286000D03*
D13*
X9052501Y0D03*
X9052501Y0D03*
D10*
X9052501Y-2286000D03*
D13*
X6512501Y0D03*
X6512501Y0D03*
D10*
X6512501Y-2286000D03*
D14*
X35000Y-6567500D03*
X35000Y-6567500D03*
D10*
X2321000Y-6567500D03*
D14*
X35000Y-9107500D03*
X35000Y-9107500D03*
D10*
X2321000Y-9107500D03*
D14*
X35000Y-11647500D03*
X35000Y-11647500D03*
D10*
X2321000Y-11647500D03*
D14*
X35000Y-14187500D03*
X35000Y-14187500D03*
D10*
X2321000Y-14187500D03*
D14*
X35000Y-16727500D03*
X35000Y-16727500D03*
D10*
X2321000Y-16727500D03*
D14*
X35000Y-19267500D03*
X35000Y-19267500D03*
D10*
X2321000Y-19267500D03*
D14*
X35000Y-57367500D03*
X35000Y-57367500D03*
D10*
X2321000Y-57367500D03*
D14*
X35000Y-59907500D03*
X35000Y-59907500D03*
D10*
X2321000Y-59907500D03*
D14*
X35000Y-62447500D03*
X35000Y-62447500D03*
D10*
X2321000Y-62447500D03*
D14*
X35000Y-64987500D03*
X35000Y-64987500D03*
D10*
X2321000Y-64987500D03*
D14*
X35000Y-67527500D03*
X35000Y-67527500D03*
D10*
X2321000Y-67527500D03*
D14*
X35000Y-70067500D03*
X35000Y-70067500D03*
D10*
X2321000Y-70067500D03*
D14*
X76550000Y-70007500D03*
X76550000Y-70007500D03*
D10*
X74264000Y-70007500D03*
D14*
X76550000Y-67467500D03*
X76550000Y-67467500D03*
D10*
X74264000Y-67467500D03*
D14*
X76550000Y-64927500D03*
X76550000Y-64927500D03*
D10*
X74264000Y-64927500D03*
D14*
X76550000Y-62387500D03*
X76550000Y-62387500D03*
D10*
X74264000Y-62387500D03*
D14*
X76550000Y-59847500D03*
X76550000Y-59847500D03*
D10*
X74264000Y-59847500D03*
D14*
X76550000Y-57307500D03*
X76550000Y-57307500D03*
D10*
X74264000Y-57307500D03*
D14*
X76550000Y-19207500D03*
X76550000Y-19207500D03*
D10*
X74264000Y-19207500D03*
D14*
X76550000Y-16667500D03*
X76550000Y-16667500D03*
D10*
X74264000Y-16667500D03*
D14*
X76550000Y-14127500D03*
X76550000Y-14127500D03*
D10*
X74264000Y-14127500D03*
D14*
X76550000Y-11587500D03*
X76550000Y-11587500D03*
D10*
X74264000Y-11587500D03*
D14*
X76550000Y-9047500D03*
X76550000Y-9047500D03*
D10*
X74264000Y-9047500D03*
D14*
X76550000Y-6507500D03*
X76550000Y-6507500D03*
D10*
X74264000Y-6507500D03*
%LPD*%
M02*
