M48
; DRILL file {KiCad 9.0.7} date 2026-02-18T22:12:28-0600
; FORMAT={-:-/ absolute / metric / decimal}
; #@! TF.CreationDate,2026-02-18T22:12:28-06:00
; #@! TF.GenerationSoftware,Kicad,Pcbnew,9.0.7
; #@! TF.FileFunction,Plated,1,4,PTH
FMAT,2
METRIC
; #@! TA.AperFunction,Plated,PTH,ViaDrill
T1C0.300
; #@! TA.AperFunction,Plated,PTH,ComponentDrill
T2C0.300
; #@! TA.AperFunction,Plated,PTH,ViaDrill
T3C0.400
; #@! TA.AperFunction,Plated,PTH,ComponentDrill
T4C0.750
; #@! TA.AperFunction,Plated,PTH,ComponentDrill
T5C0.800
%
G90
G05
T1
X33.03Y-50.778
X33.53Y-50.328
X34.03Y-50.778
X34.53Y-50.328
X35.03Y-50.778
X35.53Y-50.328
X36.03Y-50.778
X36.53Y-50.328
X37.03Y-50.778
X37.53Y-50.328
X38.03Y-50.777
X38.53Y-50.327
X38.74Y-47.582
X39.03Y-50.777
X39.35Y-47.842
X39.53Y-50.327
X40.03Y-50.777
X40.36Y-47.472
X40.53Y-50.327
X40.56Y-45.642
X40.57Y-43.682
X41.27Y-46.282
X41.59Y-44.432
X42.16Y-47.642
X43.18Y-45.636
X43.944Y-44.352
T2
X35.392Y-14.65
X35.392Y-16.05
X36.093Y-13.95
X36.093Y-15.35
X36.093Y-16.75
X36.792Y-14.65
X36.792Y-16.05
X37.492Y-13.95
X37.492Y-15.35
X37.492Y-16.75
X38.192Y-14.65
X38.192Y-16.05
T3
X4.1Y-60.382
X4.31Y-20.182
X4.32Y-18.862
X5.86Y-60.322
X6.9Y-56.962
X8.0Y-54.772
X8.32Y-12.822
X8.66Y-59.062
X8.67Y-63.882
X8.68Y-68.662
X8.88Y-20.182
X8.89Y-18.862
X8.9Y-17.102
X9.13Y-49.522
X9.34Y-54.742
X9.49Y-13.942
X9.99Y-60.932
X11.18Y-31.672
X11.19Y-26.642
X11.19Y-68.102
X11.21Y-53.932
X11.21Y-57.672
X11.68Y-49.522
X12.18Y-31.672
X12.19Y-26.642
X12.2Y-25.722
X13.72Y-31.682
X13.73Y-26.652
X13.74Y-59.092
X13.75Y-50.642
X13.75Y-54.362
X13.76Y-68.882
X13.99Y-25.732
X14.72Y-31.682
X14.73Y-26.652
X15.07Y-62.082
X15.87Y-9.822
X15.87Y-10.822
X15.87Y-11.822
X16.29Y-57.662
X16.575Y-20.465
X16.77Y-44.352
X17.3Y-10.992
X17.3Y-11.992
X17.3Y-12.992
X17.35Y-70.172
X17.601Y-60.332
X18.01Y-65.412
X18.15Y-24.362
X18.3Y-10.992
X18.3Y-11.992
X18.3Y-12.992
X18.691Y-17.732
X18.82Y-59.112
X18.84Y-54.352
X19.3Y-10.992
X19.3Y-11.992
X19.3Y-12.992
X19.32Y-44.362
X19.88Y-62.092
X20.67Y-17.292
X20.68Y-13.782
X20.7Y-26.242
X20.71Y-22.452
X21.37Y-57.662
X21.52Y-11.282
X21.88Y-13.786
X22.02Y-17.299
X22.88Y-7.921
X23.22Y-17.692
X23.23Y-13.792
X23.61Y-63.812
X23.91Y-65.412
X24.14Y-68.052
X24.21Y-7.921
X24.22Y-11.283
X25.01Y-56.132
X25.3Y-62.372
X25.55Y-8.351
X25.56Y-11.073
X26.0Y-50.05
X26.77Y-11.073
X26.79Y-8.361
X28.73Y-38.762
X29.25Y-50.5
X29.48Y-43.312
X29.49Y-44.932
X29.75Y-38.772
X30.37Y-26.542
X30.38Y-27.402
X30.844Y-24.14
X30.85Y-50.5
X30.855Y-12.702
X30.855Y-13.977
X30.855Y-16.502
X30.855Y-17.802
X30.855Y-20.327
X30.855Y-22.877
X30.88Y-11.427
X30.88Y-15.252
X30.88Y-19.052
X30.973Y-7.631
X31.97Y-7.632
X32.97Y-7.632
X33.01Y-22.362
X33.68Y-23.527
X33.97Y-7.632
X34.47Y-66.002
X34.58Y-62.212
X34.6Y-55.932
X36.38Y-44.092
X36.43Y-42.852
X37.44Y-44.092
X37.955Y-23.092
X37.955Y-23.962
X38.12Y-34.772
X38.15Y-36.102
X39.59Y-39.212
X39.61Y-7.412
X40.18Y-60.002
X40.36Y-35.172
X41.04Y-42.912
X42.08Y-39.212
X42.134Y-37.388
X42.18Y-22.922
X42.2Y-36.412
X42.633Y-8.961
X42.97Y-18.822
X43.26Y-14.592
X43.63Y-8.962
X43.82Y-19.682
X43.99Y-21.892
X43.99Y-22.892
X43.99Y-23.892
X44.13Y-15.862
X44.38Y-20.282
X44.49Y-10.177
X44.52Y-37.542
X44.55Y-39.232
X44.55Y-42.182
X44.59Y-13.162
X44.63Y-8.962
X44.68Y-51.552
X44.96Y-20.862
X45.42Y-12.082
X45.47Y-10.782
X45.63Y-8.962
X45.63Y-54.492
X45.78Y-19.032
X45.782Y-15.223
X45.782Y-16.492
X45.788Y-17.765
X45.91Y-51.552
X46.38Y-42.212
X46.79Y-46.322
X47.05Y-25.352
X47.05Y-34.402
X47.05Y-37.562
X47.07Y-29.402
X47.08Y-39.232
X47.1Y-30.452
X48.12Y-43.052
X48.79Y-66.052
X49.07Y-57.002
X49.3Y-43.072
X49.48Y-20.892
X49.55Y-18.992
X49.58Y-24.912
X49.58Y-26.802
X49.59Y-22.992
X49.69Y-39.222
X49.73Y-37.562
X50.02Y-21.492
X50.38Y-14.902
X50.39Y-13.342
X50.55Y-50.05
X50.57Y-20.892
X50.79Y-42.552
X51.48Y-14.232
X51.79Y-10.042
X51.8Y-19.472
X51.81Y-15.992
X51.91Y-12.002
X53.09Y-10.962
X53.15Y-59.6
X53.25Y-13.392
X53.622Y-40.204
X53.63Y-39.202
X53.65Y-57.065
X54.07Y-45.477
X54.36Y-17.802
X54.62Y-40.282
X54.624Y-39.284
X54.74Y-21.322
X54.81Y-12.652
X55.45Y-35.942
X55.57Y-13.422
X55.99Y-27.772
X56.16Y-14.892
X56.17Y-66.792
X56.18Y-21.312
X56.42Y-5.392
X56.44Y-17.722
X56.63Y-16.462
X57.51Y-10.702
X57.53Y-13.012
X57.64Y-26.812
X57.79Y-22.102
X57.81Y-7.352
X58.78Y-22.102
X58.99Y-6.182
X59.0Y-28.842
X59.12Y-41.49
X59.23Y-47.602
X59.31Y-13.832
X59.32Y-16.732
X59.74Y-12.002
X60.06Y-4.862
X60.61Y-57.182
X60.61Y-58.182
X60.61Y-59.182
X61.01Y-15.282
X61.354Y-69.638
X62.354Y-69.638
X62.42Y-10.512
X62.74Y-16.702
X63.255Y-12.952
X63.259Y-14.618
X63.259Y-13.754
X63.26Y-12.112
X63.354Y-69.638
X64.09Y-10.002
X64.354Y-69.638
X65.16Y-4.852
X65.354Y-69.638
X66.08Y-10.892
X66.16Y-46.362
X66.67Y-8.192
X67.53Y-12.952
X67.534Y-13.754
X67.535Y-12.112
X67.535Y-14.593
X68.51Y-28.592
X68.53Y-48.012
X70.32Y-4.842
T4
X8.23Y-5.762
X8.23Y-7.762
T5
X2.321Y-6.567
X2.321Y-9.107
X2.321Y-11.647
X2.321Y-14.188
X2.321Y-16.727
X2.321Y-19.267
X2.321Y-57.367
X2.321Y-59.907
X2.321Y-62.447
X2.321Y-64.987
X2.321Y-67.528
X2.321Y-70.067
X6.513Y-2.286
X6.572Y-74.284
X9.053Y-2.286
X9.112Y-74.284
X11.592Y-2.286
X11.652Y-74.284
X14.133Y-2.286
X14.192Y-74.284
X16.673Y-2.286
X16.732Y-74.284
X19.213Y-2.286
X19.272Y-74.284
X57.313Y-2.286
X57.372Y-74.284
X59.853Y-2.286
X59.912Y-74.284
X62.393Y-2.286
X62.452Y-74.284
X64.933Y-2.286
X64.992Y-74.284
X67.473Y-2.286
X67.532Y-74.284
X70.013Y-2.286
X70.072Y-74.284
X74.264Y-6.507
X74.264Y-9.047
X74.264Y-11.588
X74.264Y-14.127
X74.264Y-16.668
X74.264Y-19.207
X74.264Y-57.307
X74.264Y-59.847
X74.264Y-62.387
X74.264Y-64.927
X74.264Y-67.468
X74.264Y-70.007
M30
