%TF.GenerationSoftware,KiCad,Pcbnew,8.0.5*%
%TF.CreationDate,2024-10-14T18:31:50-05:00*%
%TF.ProjectId,morg_grad_cap,6d6f7267-5f67-4726-9164-5f6361702e6b,rev?*%
%TF.SameCoordinates,Original*%
%TF.FileFunction,Drillmap*%
%TF.FilePolarity,Positive*%
%FSLAX45Y45*%
G04 Gerber Fmt 4.5, Leading zero omitted, Abs format (unit mm)*
G04 Created by KiCad (PCBNEW 8.0.5) date 2024-10-14 18:31:50*
%MOMM*%
%LPD*%
G01*
G04 APERTURE LIST*
%ADD10C,0.050000*%
%ADD11C,0.100000*%
%ADD12C,0.200000*%
%ADD13C,0.320000*%
G04 APERTURE END LIST*
D10*
X0Y0D02*
X24000000Y0D01*
X24000000Y-24000000D01*
X0Y-24000000D01*
X0Y0D01*
D11*
X13100000Y-12000000D02*
G75*
G02*
X10900000Y-12000000I-1100000J0D01*
G01*
X10900000Y-12000000D02*
G75*
G02*
X13100000Y-12000000I1100000J0D01*
G01*
D12*
D11*
X457000Y-3326515D02*
X517000Y-3386515D01*
X517000Y-3326515D02*
X457000Y-3386515D01*
X457000Y-6784065D02*
X517000Y-6844065D01*
X517000Y-6784065D02*
X457000Y-6844065D01*
X457000Y-13697998D02*
X517000Y-13757998D01*
X517000Y-13697998D02*
X457000Y-13757998D01*
X457000Y-17154966D02*
X517000Y-17214966D01*
X517000Y-17154966D02*
X457000Y-17214966D01*
X457000Y-20612483D02*
X517000Y-20672483D01*
X517000Y-20612483D02*
X457000Y-20672483D01*
X457000Y-10241515D02*
X517000Y-10301515D01*
X517000Y-10241515D02*
X457000Y-10301515D01*
X1088966Y-17154583D02*
X1148966Y-17214583D01*
X1148966Y-17154583D02*
X1088966Y-17214583D01*
X1105966Y-10242583D02*
X1165966Y-10302583D01*
X1165966Y-10242583D02*
X1105966Y-10302583D01*
X1112000Y-6784000D02*
X1172000Y-6844000D01*
X1172000Y-6784000D02*
X1112000Y-6844000D01*
X1112000Y-20612483D02*
X1172000Y-20672483D01*
X1172000Y-20612483D02*
X1112000Y-20672483D01*
X1113000Y-3326000D02*
X1173000Y-3386000D01*
X1173000Y-3326000D02*
X1113000Y-3386000D01*
X1118966Y-13698583D02*
X1178966Y-13758583D01*
X1178966Y-13698583D02*
X1118966Y-13758583D01*
X1512000Y-9333232D02*
X1572000Y-9393232D01*
X1572000Y-9333232D02*
X1512000Y-9393232D01*
X1514500Y-7499000D02*
X1574500Y-7559000D01*
X1574500Y-7499000D02*
X1514500Y-7559000D01*
X1856734Y-20161000D02*
X1916734Y-20221000D01*
X1916734Y-20161000D02*
X1856734Y-20221000D01*
X1856967Y-7243000D02*
X1916967Y-7303000D01*
X1916967Y-7243000D02*
X1856967Y-7303000D01*
X1857217Y-14160000D02*
X1917217Y-14220000D01*
X1917217Y-14160000D02*
X1857217Y-14220000D01*
X1857217Y-17614000D02*
X1917217Y-17674000D01*
X1917217Y-17614000D02*
X1857217Y-17674000D01*
X1857251Y-2876000D02*
X1917251Y-2936000D01*
X1917251Y-2876000D02*
X1857251Y-2936000D01*
X1929745Y-9789941D02*
X1989745Y-9849941D01*
X1989745Y-9789941D02*
X1929745Y-9849941D01*
X2087450Y-20612900D02*
X2147450Y-20672900D01*
X2147450Y-20612900D02*
X2087450Y-20672900D01*
X2088450Y-3326900D02*
X2148450Y-3386900D01*
X2148450Y-3326900D02*
X2088450Y-3386900D01*
X2088450Y-6784900D02*
X2148450Y-6844900D01*
X2148450Y-6784900D02*
X2088450Y-6844900D01*
X2088450Y-10241900D02*
X2148450Y-10301900D01*
X2148450Y-10241900D02*
X2088450Y-10301900D01*
X2088517Y-17154348D02*
X2148517Y-17214348D01*
X2148517Y-17154348D02*
X2088517Y-17214348D01*
X2088581Y-13698504D02*
X2148581Y-13758504D01*
X2148581Y-13698504D02*
X2088581Y-13758504D01*
X2233000Y-1598000D02*
X2293000Y-1658000D01*
X2293000Y-1598000D02*
X2233000Y-1658000D01*
X2837550Y-22341101D02*
X2897550Y-22401101D01*
X2897550Y-22341101D02*
X2837550Y-22401101D01*
X2837584Y-18883033D02*
X2897584Y-18943033D01*
X2897584Y-18883033D02*
X2837584Y-18943033D01*
X2838054Y-15426025D02*
X2898054Y-15486025D01*
X2898054Y-15426025D02*
X2838054Y-15486025D01*
X2838550Y-5056101D02*
X2898550Y-5116101D01*
X2898550Y-5056101D02*
X2838550Y-5116101D01*
X2838550Y-8513101D02*
X2898550Y-8573101D01*
X2898550Y-8513101D02*
X2838550Y-8573101D01*
X2838550Y-11970101D02*
X2898550Y-12030101D01*
X2898550Y-11970101D02*
X2838550Y-12030101D01*
X2868000Y-1600000D02*
X2928000Y-1660000D01*
X2928000Y-1600000D02*
X2868000Y-1660000D01*
X2996808Y-12427059D02*
X3056808Y-12487059D01*
X3056808Y-12427059D02*
X2996808Y-12487059D01*
X3026000Y-8972000D02*
X3086000Y-9032000D01*
X3086000Y-8972000D02*
X3026000Y-9032000D01*
X3027000Y-9493000D02*
X3087000Y-9553000D01*
X3087000Y-9493000D02*
X3027000Y-9553000D01*
X3027000Y-14462000D02*
X3087000Y-14522000D01*
X3087000Y-14462000D02*
X3027000Y-14522000D01*
X3028000Y-18223000D02*
X3088000Y-18283000D01*
X3088000Y-18223000D02*
X3028000Y-18283000D01*
X3028000Y-19830000D02*
X3088000Y-19890000D01*
X3088000Y-19830000D02*
X3028000Y-19890000D01*
X3049000Y-4604000D02*
X3109000Y-4664000D01*
X3109000Y-4604000D02*
X3049000Y-4664000D01*
X3057000Y-2055000D02*
X3117000Y-2115000D01*
X3117000Y-2055000D02*
X3057000Y-2115000D01*
X3057000Y-2555000D02*
X3117000Y-2615000D01*
X3117000Y-2555000D02*
X3057000Y-2615000D01*
X3058000Y-3996000D02*
X3118000Y-4056000D01*
X3118000Y-3996000D02*
X3058000Y-4056000D01*
X3066033Y-21889000D02*
X3126033Y-21949000D01*
X3126033Y-21889000D02*
X3066033Y-21949000D01*
X3067648Y-14974999D02*
X3127648Y-15034999D01*
X3127648Y-14974999D02*
X3067648Y-15034999D01*
X3068234Y-19344000D02*
X3128234Y-19404000D01*
X3128234Y-19344000D02*
X3068234Y-19404000D01*
X3327000Y-23118000D02*
X3387000Y-23178000D01*
X3387000Y-23118000D02*
X3327000Y-23178000D01*
X3327517Y-450000D02*
X3387517Y-510000D01*
X3387517Y-450000D02*
X3327517Y-510000D01*
X3411000Y-20995000D02*
X3471000Y-21055000D01*
X3471000Y-20995000D02*
X3411000Y-21055000D01*
X3418000Y-12760066D02*
X3478000Y-12820066D01*
X3478000Y-12760066D02*
X3418000Y-12820066D01*
X3425000Y-14614795D02*
X3485000Y-14674795D01*
X3485000Y-14614795D02*
X3425000Y-14674795D01*
X3656484Y-19674000D02*
X3716484Y-19734000D01*
X3716484Y-19674000D02*
X3656484Y-19734000D01*
X3805000Y-1598517D02*
X3865000Y-1658517D01*
X3865000Y-1598517D02*
X3805000Y-1658517D01*
X3811000Y-5056068D02*
X3871000Y-5116068D01*
X3871000Y-5056068D02*
X3811000Y-5116068D01*
X3819000Y-15425000D02*
X3879000Y-15485000D01*
X3879000Y-15425000D02*
X3819000Y-15485000D01*
X3820000Y-22340966D02*
X3880000Y-22400965D01*
X3880000Y-22340966D02*
X3820000Y-22400965D01*
X3825000Y-8513000D02*
X3885000Y-8573000D01*
X3885000Y-8513000D02*
X3825000Y-8573000D01*
X3826000Y-11970000D02*
X3886000Y-12030000D01*
X3886000Y-11970000D02*
X3826000Y-12030000D01*
X3838000Y-18881000D02*
X3898000Y-18941000D01*
X3898000Y-18881000D02*
X3838000Y-18941000D01*
X4546000Y-17155000D02*
X4606000Y-17215000D01*
X4606000Y-17155000D02*
X4546000Y-17215000D01*
X4563000Y-10243000D02*
X4623000Y-10303000D01*
X4623000Y-10243000D02*
X4563000Y-10303000D01*
X4569034Y-6784417D02*
X4629034Y-6844417D01*
X4629034Y-6784417D02*
X4569034Y-6844417D01*
X4569034Y-20612900D02*
X4629034Y-20672900D01*
X4629034Y-20612900D02*
X4569034Y-20672900D01*
X4570034Y-3326417D02*
X4630034Y-3386417D01*
X4630034Y-3326417D02*
X4570034Y-3386417D01*
X4576000Y-13699000D02*
X4636000Y-13759000D01*
X4636000Y-13699000D02*
X4576000Y-13759000D01*
X4969167Y-7499000D02*
X5029167Y-7559000D01*
X5029167Y-7499000D02*
X4969167Y-7559000D01*
X4978000Y-9333232D02*
X5038000Y-9393232D01*
X5038000Y-9333232D02*
X4978000Y-9393232D01*
X5314251Y-20161000D02*
X5374251Y-20221000D01*
X5374251Y-20161000D02*
X5314251Y-20221000D01*
X5314484Y-7243000D02*
X5374484Y-7303000D01*
X5374484Y-7243000D02*
X5314484Y-7303000D01*
X5314734Y-14160000D02*
X5374734Y-14220000D01*
X5374734Y-14160000D02*
X5314734Y-14220000D01*
X5314734Y-17614000D02*
X5374734Y-17674000D01*
X5374734Y-17614000D02*
X5314734Y-17674000D01*
X5314768Y-2876000D02*
X5374768Y-2936000D01*
X5374768Y-2876000D02*
X5314768Y-2936000D01*
X5386779Y-9790524D02*
X5446779Y-9850524D01*
X5446779Y-9790524D02*
X5386779Y-9850524D01*
X5544484Y-20613316D02*
X5604484Y-20673316D01*
X5604484Y-20613316D02*
X5544484Y-20673316D01*
X5545484Y-3327316D02*
X5605484Y-3387316D01*
X5605484Y-3327316D02*
X5545484Y-3387316D01*
X5545484Y-6785316D02*
X5605484Y-6845316D01*
X5605484Y-6785316D02*
X5545484Y-6845316D01*
X5545484Y-10242316D02*
X5605484Y-10302316D01*
X5605484Y-10242316D02*
X5545484Y-10302316D01*
X5545551Y-17154764D02*
X5605551Y-17214764D01*
X5605551Y-17154764D02*
X5545551Y-17214764D01*
X5545615Y-13698920D02*
X5605615Y-13758920D01*
X5605615Y-13698920D02*
X5545615Y-13758920D01*
X6294584Y-22341518D02*
X6354584Y-22401518D01*
X6354584Y-22341518D02*
X6294584Y-22401518D01*
X6294617Y-18883450D02*
X6354617Y-18943450D01*
X6354617Y-18883450D02*
X6294617Y-18943450D01*
X6295088Y-15426442D02*
X6355088Y-15486442D01*
X6355088Y-15426442D02*
X6295088Y-15486442D01*
X6295584Y-8513518D02*
X6355584Y-8573518D01*
X6355584Y-8513518D02*
X6295584Y-8573518D01*
X6295584Y-1600518D02*
X6355584Y-1660518D01*
X6355584Y-1600518D02*
X6295584Y-1660518D01*
X6295584Y-5056518D02*
X6355584Y-5116518D01*
X6355584Y-5056518D02*
X6295584Y-5116518D01*
X6295584Y-11970518D02*
X6355584Y-12030518D01*
X6355584Y-11970518D02*
X6295584Y-12030518D01*
X6453841Y-12427476D02*
X6513841Y-12487476D01*
X6513841Y-12427476D02*
X6453841Y-12487476D01*
X6483517Y-8972000D02*
X6543517Y-9032000D01*
X6543517Y-8972000D02*
X6483517Y-9032000D01*
X6484517Y-9493000D02*
X6544517Y-9553000D01*
X6544517Y-9493000D02*
X6484517Y-9553000D01*
X6484517Y-14462000D02*
X6544517Y-14522000D01*
X6544517Y-14462000D02*
X6484517Y-14522000D01*
X6485517Y-18223000D02*
X6545517Y-18283000D01*
X6545517Y-18223000D02*
X6485517Y-18283000D01*
X6485517Y-19830000D02*
X6545517Y-19890000D01*
X6545517Y-19830000D02*
X6485517Y-19890000D01*
X6506517Y-4604000D02*
X6566517Y-4664000D01*
X6566517Y-4604000D02*
X6506517Y-4664000D01*
X6514517Y-2055000D02*
X6574517Y-2115000D01*
X6574517Y-2055000D02*
X6514517Y-2115000D01*
X6514517Y-2555000D02*
X6574517Y-2615000D01*
X6574517Y-2555000D02*
X6514517Y-2615000D01*
X6515517Y-3996000D02*
X6575517Y-4056000D01*
X6575517Y-3996000D02*
X6515517Y-4056000D01*
X6523583Y-21889000D02*
X6583583Y-21949000D01*
X6583583Y-21889000D02*
X6523583Y-21949000D01*
X6525198Y-14974999D02*
X6585198Y-15034999D01*
X6585198Y-14974999D02*
X6525198Y-15034999D01*
X6525784Y-19344000D02*
X6585784Y-19404000D01*
X6585784Y-19344000D02*
X6525784Y-19404000D01*
X6784517Y-23118000D02*
X6844517Y-23178000D01*
X6844517Y-23118000D02*
X6784517Y-23178000D01*
X6785034Y-450000D02*
X6845034Y-510000D01*
X6845034Y-450000D02*
X6785034Y-510000D01*
X6868550Y-20995000D02*
X6928550Y-21055000D01*
X6928550Y-20995000D02*
X6868550Y-21055000D01*
X6874967Y-12760067D02*
X6934967Y-12820067D01*
X6934967Y-12760067D02*
X6874967Y-12820067D01*
X6877000Y-14614000D02*
X6937000Y-14674000D01*
X6937000Y-14614000D02*
X6877000Y-14674000D01*
X7114484Y-19674000D02*
X7174484Y-19734000D01*
X7174484Y-19674000D02*
X7114484Y-19734000D01*
X7262034Y-1598934D02*
X7322034Y-1658934D01*
X7322034Y-1598934D02*
X7262034Y-1658934D01*
X7268034Y-5056485D02*
X7328034Y-5116485D01*
X7328034Y-5056485D02*
X7268034Y-5116485D01*
X7276034Y-15425417D02*
X7336034Y-15485417D01*
X7336034Y-15425417D02*
X7276034Y-15485417D01*
X7277034Y-22341383D02*
X7337034Y-22401383D01*
X7337034Y-22341383D02*
X7277034Y-22401383D01*
X7282034Y-8513417D02*
X7342034Y-8573417D01*
X7342034Y-8513417D02*
X7282034Y-8573417D01*
X7283034Y-11970417D02*
X7343034Y-12030417D01*
X7343034Y-11970417D02*
X7283034Y-12030417D01*
X7295034Y-18881417D02*
X7355034Y-18941417D01*
X7355034Y-18881417D02*
X7295034Y-18941417D01*
X8002975Y-17155005D02*
X8062975Y-17215005D01*
X8062975Y-17155005D02*
X8002975Y-17215005D01*
X8019975Y-10243005D02*
X8079975Y-10303005D01*
X8079975Y-10243005D02*
X8019975Y-10303005D01*
X8026009Y-6784422D02*
X8086009Y-6844422D01*
X8086009Y-6784422D02*
X8026009Y-6844422D01*
X8026009Y-20612905D02*
X8086009Y-20672905D01*
X8086009Y-20612905D02*
X8026009Y-20672905D01*
X8027009Y-3326422D02*
X8087009Y-3386422D01*
X8087009Y-3326422D02*
X8027009Y-3386422D01*
X8032975Y-13699005D02*
X8092975Y-13759005D01*
X8092975Y-13699005D02*
X8032975Y-13759005D01*
X8426136Y-7499000D02*
X8486136Y-7559000D01*
X8486136Y-7499000D02*
X8426136Y-7559000D01*
X8441000Y-9333232D02*
X8501000Y-9393232D01*
X8501000Y-9333232D02*
X8441000Y-9393232D01*
X8771218Y-20161000D02*
X8831218Y-20221000D01*
X8831218Y-20161000D02*
X8771218Y-20221000D01*
X8771452Y-7243000D02*
X8831452Y-7303000D01*
X8831452Y-7243000D02*
X8771452Y-7303000D01*
X8771702Y-14160000D02*
X8831702Y-14220000D01*
X8831702Y-14160000D02*
X8771702Y-14220000D01*
X8771702Y-17614000D02*
X8831702Y-17674000D01*
X8831702Y-17614000D02*
X8771702Y-17674000D01*
X8771735Y-2876000D02*
X8831735Y-2936000D01*
X8831735Y-2876000D02*
X8771735Y-2936000D01*
X8843749Y-9790532D02*
X8903749Y-9850532D01*
X8903749Y-9790532D02*
X8843749Y-9850532D01*
X9001459Y-20613322D02*
X9061459Y-20673322D01*
X9061459Y-20613322D02*
X9001459Y-20673322D01*
X9002459Y-3327322D02*
X9062459Y-3387322D01*
X9062459Y-3327322D02*
X9002459Y-3387322D01*
X9002459Y-6785322D02*
X9062459Y-6845322D01*
X9062459Y-6785322D02*
X9002459Y-6845322D01*
X9002459Y-10242322D02*
X9062459Y-10302322D01*
X9062459Y-10242322D02*
X9002459Y-10302322D01*
X9002526Y-17154770D02*
X9062526Y-17214770D01*
X9062526Y-17154770D02*
X9002526Y-17214770D01*
X9002590Y-13698926D02*
X9062590Y-13758926D01*
X9062590Y-13698926D02*
X9002590Y-13758926D01*
X9751593Y-18883455D02*
X9811593Y-18943455D01*
X9811593Y-18883455D02*
X9751593Y-18943455D01*
X9752063Y-15426447D02*
X9812063Y-15486447D01*
X9812063Y-15426447D02*
X9752063Y-15486447D01*
X9752067Y-22341001D02*
X9812067Y-22401001D01*
X9812067Y-22341001D02*
X9752067Y-22401001D01*
X9752559Y-1600523D02*
X9812559Y-1660523D01*
X9812559Y-1600523D02*
X9752559Y-1660523D01*
X9752559Y-5056523D02*
X9812559Y-5116523D01*
X9812559Y-5056523D02*
X9752559Y-5116523D01*
X9752559Y-8513523D02*
X9812559Y-8573523D01*
X9812559Y-8513523D02*
X9752559Y-8573523D01*
X9752559Y-11970523D02*
X9812559Y-12030523D01*
X9812559Y-11970523D02*
X9752559Y-12030523D01*
X9910817Y-12427481D02*
X9970817Y-12487481D01*
X9970817Y-12427481D02*
X9910817Y-12487481D01*
X9940484Y-8972000D02*
X10000484Y-9032000D01*
X10000484Y-8972000D02*
X9940484Y-9032000D01*
X9941484Y-9493000D02*
X10001484Y-9553000D01*
X10001484Y-9493000D02*
X9941484Y-9553000D01*
X9941484Y-14462000D02*
X10001484Y-14522000D01*
X10001484Y-14462000D02*
X9941484Y-14522000D01*
X9942484Y-18223000D02*
X10002484Y-18283000D01*
X10002484Y-18223000D02*
X9942484Y-18283000D01*
X9942484Y-19830000D02*
X10002484Y-19890000D01*
X10002484Y-19830000D02*
X9942484Y-19890000D01*
X9963484Y-4604000D02*
X10023484Y-4664000D01*
X10023484Y-4604000D02*
X9963484Y-4664000D01*
X9971484Y-2055000D02*
X10031484Y-2115000D01*
X10031484Y-2055000D02*
X9971484Y-2115000D01*
X9971484Y-2555000D02*
X10031484Y-2615000D01*
X10031484Y-2555000D02*
X9971484Y-2615000D01*
X9972484Y-3996000D02*
X10032484Y-4056000D01*
X10032484Y-3996000D02*
X9972484Y-4056000D01*
X9980549Y-21889000D02*
X10040549Y-21949000D01*
X10040549Y-21889000D02*
X9980549Y-21949000D01*
X9982165Y-14975000D02*
X10042165Y-15035000D01*
X10042165Y-14975000D02*
X9982165Y-15035000D01*
X9982750Y-19344000D02*
X10042750Y-19404000D01*
X10042750Y-19344000D02*
X9982750Y-19404000D01*
X10241485Y-23118000D02*
X10301485Y-23178000D01*
X10301485Y-23118000D02*
X10241485Y-23178000D01*
X10242001Y-450000D02*
X10302001Y-510000D01*
X10302001Y-450000D02*
X10242001Y-510000D01*
X10325516Y-20995000D02*
X10385516Y-21055000D01*
X10385516Y-20995000D02*
X10325516Y-21055000D01*
X10331932Y-12760067D02*
X10391932Y-12820067D01*
X10391932Y-12760067D02*
X10331932Y-12820067D01*
X10334000Y-14614795D02*
X10394000Y-14674795D01*
X10394000Y-14614795D02*
X10334000Y-14674795D01*
X10571000Y-19674000D02*
X10631000Y-19734000D01*
X10631000Y-19674000D02*
X10571000Y-19734000D01*
X10725009Y-5056490D02*
X10785009Y-5116490D01*
X10785009Y-5056490D02*
X10725009Y-5116490D01*
X10733009Y-15425422D02*
X10793009Y-15485422D01*
X10793009Y-15425422D02*
X10733009Y-15485422D01*
X10734009Y-22341388D02*
X10794009Y-22401388D01*
X10794009Y-22341388D02*
X10734009Y-22401388D01*
X10739009Y-8513422D02*
X10799009Y-8573422D01*
X10799009Y-8513422D02*
X10739009Y-8573422D01*
X10752009Y-18881422D02*
X10812009Y-18941422D01*
X10812009Y-18881422D02*
X10752009Y-18941422D01*
X11459929Y-17154992D02*
X11519929Y-17214992D01*
X11519929Y-17154992D02*
X11459929Y-17214992D01*
X11476929Y-10242992D02*
X11536929Y-10302992D01*
X11536929Y-10242992D02*
X11476929Y-10302992D01*
X11482963Y-6784409D02*
X11542963Y-6844409D01*
X11542963Y-6784409D02*
X11482963Y-6844409D01*
X11482963Y-20612892D02*
X11542963Y-20672892D01*
X11542963Y-20612892D02*
X11482963Y-20672892D01*
X11483963Y-3326409D02*
X11543963Y-3386409D01*
X11543963Y-3326409D02*
X11483963Y-3386409D01*
X11489929Y-13698992D02*
X11549929Y-13758992D01*
X11549929Y-13698992D02*
X11489929Y-13758992D01*
X11574000Y-581000D02*
X11634000Y-641000D01*
X11634000Y-581000D02*
X11574000Y-641000D01*
X11574000Y-781000D02*
X11634000Y-841000D01*
X11634000Y-781000D02*
X11574000Y-841000D01*
X11621000Y-1601000D02*
X11681000Y-1661000D01*
X11681000Y-1601000D02*
X11621000Y-1661000D01*
X11675000Y-401000D02*
X11735000Y-461000D01*
X11735000Y-401000D02*
X11675000Y-461000D01*
X11774000Y-581000D02*
X11834000Y-641000D01*
X11834000Y-581000D02*
X11774000Y-641000D01*
X11774000Y-781000D02*
X11834000Y-841000D01*
X11834000Y-781000D02*
X11774000Y-841000D01*
X11883101Y-7499000D02*
X11943101Y-7559000D01*
X11943101Y-7499000D02*
X11883101Y-7559000D01*
X11883751Y-9335249D02*
X11943751Y-9395249D01*
X11943751Y-9335249D02*
X11883751Y-9395249D01*
X12228184Y-20161000D02*
X12288184Y-20221000D01*
X12288184Y-20161000D02*
X12228184Y-20221000D01*
X12228418Y-7243000D02*
X12288418Y-7303000D01*
X12288418Y-7243000D02*
X12228418Y-7303000D01*
X12228668Y-14160000D02*
X12288668Y-14220000D01*
X12288668Y-14160000D02*
X12228668Y-14220000D01*
X12228668Y-17614000D02*
X12288668Y-17674000D01*
X12288668Y-17614000D02*
X12228668Y-17674000D01*
X12282000Y-1600000D02*
X12342000Y-1660000D01*
X12342000Y-1600000D02*
X12282000Y-1660000D01*
X12353000Y-510000D02*
X12413000Y-570000D01*
X12413000Y-510000D02*
X12353000Y-570000D01*
X12458413Y-20613309D02*
X12518413Y-20673309D01*
X12518413Y-20613309D02*
X12458413Y-20673309D01*
X12459413Y-3327309D02*
X12519413Y-3387309D01*
X12519413Y-3327309D02*
X12459413Y-3387309D01*
X12459413Y-6785309D02*
X12519413Y-6845309D01*
X12519413Y-6785309D02*
X12459413Y-6845309D01*
X12459413Y-10242309D02*
X12519413Y-10302309D01*
X12519413Y-10242309D02*
X12459413Y-10302309D01*
X12459480Y-17154757D02*
X12519480Y-17214757D01*
X12519480Y-17154757D02*
X12459480Y-17214757D01*
X12459544Y-13698913D02*
X12519544Y-13758913D01*
X12519544Y-13698913D02*
X12459544Y-13758913D01*
X12461000Y-9790000D02*
X12521000Y-9850000D01*
X12521000Y-9790000D02*
X12461000Y-9850000D01*
X12492000Y-2874000D02*
X12552000Y-2934000D01*
X12552000Y-2874000D02*
X12492000Y-2934000D01*
X12835000Y-20061000D02*
X12895000Y-20121000D01*
X12895000Y-20061000D02*
X12835000Y-20121000D01*
X13157000Y-19343000D02*
X13217000Y-19403000D01*
X13217000Y-19343000D02*
X13157000Y-19403000D01*
X13177000Y-9874000D02*
X13237000Y-9934000D01*
X13237000Y-9874000D02*
X13177000Y-9934000D01*
X13208547Y-18883442D02*
X13268547Y-18943442D01*
X13268547Y-18883442D02*
X13208547Y-18943442D01*
X13209017Y-15426434D02*
X13269017Y-15486434D01*
X13269017Y-15426434D02*
X13209017Y-15486434D01*
X13209033Y-22340999D02*
X13269033Y-22400999D01*
X13269033Y-22340999D02*
X13209033Y-22400999D01*
X13209513Y-5056510D02*
X13269513Y-5116510D01*
X13269513Y-5056510D02*
X13209513Y-5116510D01*
X13209513Y-8513510D02*
X13269513Y-8573510D01*
X13269513Y-8513510D02*
X13209513Y-8573510D01*
X13336500Y-9879000D02*
X13396500Y-9939000D01*
X13396500Y-9879000D02*
X13336500Y-9939000D01*
X13397451Y-8972000D02*
X13457451Y-9032000D01*
X13457451Y-8972000D02*
X13397451Y-9032000D01*
X13397967Y-9493000D02*
X13457967Y-9553000D01*
X13457967Y-9493000D02*
X13397967Y-9553000D01*
X13397967Y-14462000D02*
X13457967Y-14522000D01*
X13457967Y-14462000D02*
X13397967Y-14522000D01*
X13398967Y-18223000D02*
X13458967Y-18283000D01*
X13458967Y-18223000D02*
X13398967Y-18283000D01*
X13398967Y-19830000D02*
X13458967Y-19890000D01*
X13458967Y-19830000D02*
X13398967Y-19890000D01*
X13400000Y-20049000D02*
X13460000Y-20109000D01*
X13460000Y-20049000D02*
X13400000Y-20109000D01*
X13420451Y-4604000D02*
X13480451Y-4664000D01*
X13480451Y-4604000D02*
X13420451Y-4664000D01*
X13428000Y-1956000D02*
X13488000Y-2016000D01*
X13488000Y-1956000D02*
X13428000Y-2016000D01*
X13428967Y-3996000D02*
X13488967Y-4056000D01*
X13488967Y-3996000D02*
X13428967Y-4056000D01*
X13437515Y-21889000D02*
X13497515Y-21949000D01*
X13497515Y-21889000D02*
X13437515Y-21949000D01*
X13439131Y-14974999D02*
X13499131Y-15034999D01*
X13499131Y-14974999D02*
X13439131Y-15034999D01*
X13496000Y-9879000D02*
X13556000Y-9939000D01*
X13556000Y-9879000D02*
X13496000Y-9939000D01*
X13520000Y-2555000D02*
X13580000Y-2615000D01*
X13580000Y-2555000D02*
X13520000Y-2615000D01*
X13612235Y-12619000D02*
X13672235Y-12679000D01*
X13672235Y-12619000D02*
X13612235Y-12679000D01*
X13646000Y-1678000D02*
X13706000Y-1738000D01*
X13706000Y-1678000D02*
X13646000Y-1738000D01*
X13697967Y-23118000D02*
X13757967Y-23178000D01*
X13757967Y-23118000D02*
X13697967Y-23178000D01*
X13698484Y-450000D02*
X13758484Y-510000D01*
X13758484Y-450000D02*
X13698484Y-510000D01*
X13782482Y-20908000D02*
X13842482Y-20968000D01*
X13842482Y-20908000D02*
X13782482Y-20968000D01*
X13788901Y-12760066D02*
X13848901Y-12820066D01*
X13848901Y-12760066D02*
X13788901Y-12820066D01*
X13934000Y-19950000D02*
X13994000Y-20010000D01*
X13994000Y-19950000D02*
X13934000Y-20010000D01*
X13942525Y-9700691D02*
X14002525Y-9760691D01*
X14002525Y-9700691D02*
X13942525Y-9760691D01*
X14046000Y-14614795D02*
X14106000Y-14674795D01*
X14106000Y-14614795D02*
X14046000Y-14674795D01*
X14093000Y-19671000D02*
X14153000Y-19731000D01*
X14153000Y-19671000D02*
X14093000Y-19731000D01*
X14175963Y-1598926D02*
X14235963Y-1658926D01*
X14235963Y-1598926D02*
X14175963Y-1658926D01*
X14181963Y-5056477D02*
X14241963Y-5116477D01*
X14241963Y-5056477D02*
X14181963Y-5116477D01*
X14189963Y-15425409D02*
X14249963Y-15485409D01*
X14249963Y-15425409D02*
X14189963Y-15485409D01*
X14190963Y-22341375D02*
X14250963Y-22401375D01*
X14250963Y-22341375D02*
X14190963Y-22401375D01*
X14195963Y-8513409D02*
X14255963Y-8573409D01*
X14255963Y-8513409D02*
X14195963Y-8573409D01*
X14196963Y-11970409D02*
X14256963Y-12030409D01*
X14256963Y-11970409D02*
X14196963Y-12030409D01*
X14208963Y-18881409D02*
X14268963Y-18941409D01*
X14268963Y-18881409D02*
X14208963Y-18941409D01*
X14472000Y-19836000D02*
X14532000Y-19896000D01*
X14532000Y-19836000D02*
X14472000Y-19896000D01*
X14689281Y-20612316D02*
X14749281Y-20672316D01*
X14749281Y-20612316D02*
X14689281Y-20672316D01*
X14769000Y-13699000D02*
X14829000Y-13759000D01*
X14829000Y-13699000D02*
X14769000Y-13759000D01*
X14916899Y-17155000D02*
X14976899Y-17215000D01*
X14976899Y-17155000D02*
X14916899Y-17215000D01*
X14921000Y-14614795D02*
X14981000Y-14674795D01*
X14981000Y-14614795D02*
X14921000Y-14674795D01*
X14922065Y-13249000D02*
X14982065Y-13309000D01*
X14982065Y-13249000D02*
X14922065Y-13309000D01*
X14923284Y-19677412D02*
X14983284Y-19737412D01*
X14983284Y-19677412D02*
X14923284Y-19737412D01*
X14923284Y-20162000D02*
X14983284Y-20222000D01*
X14983284Y-20162000D02*
X14923284Y-20222000D01*
X14933899Y-10243000D02*
X14993899Y-10303000D01*
X14993899Y-10243000D02*
X14933899Y-10303000D01*
X14939933Y-6784417D02*
X14999933Y-6844417D01*
X14999933Y-6784417D02*
X14939933Y-6844417D01*
X14940933Y-3326417D02*
X15000933Y-3386417D01*
X15000933Y-3326417D02*
X14940933Y-3386417D01*
X15334000Y-9333232D02*
X15394000Y-9393232D01*
X15394000Y-9333232D02*
X15334000Y-9393232D01*
X15340071Y-7499000D02*
X15400071Y-7559000D01*
X15400071Y-7499000D02*
X15340071Y-7559000D01*
X15513218Y-13059000D02*
X15573218Y-13119000D01*
X15573218Y-13059000D02*
X15513218Y-13119000D01*
X15514157Y-9545475D02*
X15574157Y-9605475D01*
X15574157Y-9545475D02*
X15514157Y-9605475D01*
X15685151Y-20161000D02*
X15745151Y-20221000D01*
X15745151Y-20161000D02*
X15685151Y-20221000D01*
X15685384Y-7243000D02*
X15745384Y-7303000D01*
X15745384Y-7243000D02*
X15685384Y-7303000D01*
X15685634Y-14156000D02*
X15745634Y-14216000D01*
X15745634Y-14156000D02*
X15685634Y-14216000D01*
X15685634Y-17614000D02*
X15745634Y-17674000D01*
X15745634Y-17614000D02*
X15685634Y-17674000D01*
X15685668Y-2876000D02*
X15745668Y-2936000D01*
X15745668Y-2876000D02*
X15685668Y-2936000D01*
X15915383Y-20613316D02*
X15975383Y-20673316D01*
X15975383Y-20613316D02*
X15915383Y-20673316D01*
X15916383Y-3327316D02*
X15976383Y-3387316D01*
X15976383Y-3327316D02*
X15916383Y-3387316D01*
X15916383Y-6785316D02*
X15976383Y-6845316D01*
X15976383Y-6785316D02*
X15916383Y-6845316D01*
X15916383Y-10242316D02*
X15976383Y-10302316D01*
X15976383Y-10242316D02*
X15916383Y-10302316D01*
X15916450Y-17154764D02*
X15976450Y-17214764D01*
X15976450Y-17154764D02*
X15916450Y-17214764D01*
X15916514Y-13698920D02*
X15976514Y-13758920D01*
X15976514Y-13698920D02*
X15916514Y-13758920D01*
X16665483Y-22341518D02*
X16725483Y-22401518D01*
X16725483Y-22341518D02*
X16665483Y-22401518D01*
X16665516Y-18883450D02*
X16725516Y-18943450D01*
X16725516Y-18883450D02*
X16665516Y-18943450D01*
X16665987Y-15426442D02*
X16725987Y-15486442D01*
X16725987Y-15426442D02*
X16665987Y-15486442D01*
X16666483Y-1600518D02*
X16726483Y-1660518D01*
X16726483Y-1600518D02*
X16666483Y-1660518D01*
X16666483Y-5056518D02*
X16726483Y-5116518D01*
X16726483Y-5056518D02*
X16666483Y-5116518D01*
X16666483Y-8513518D02*
X16726483Y-8573518D01*
X16726483Y-8513518D02*
X16666483Y-8573518D01*
X16666483Y-11970518D02*
X16726483Y-12030518D01*
X16726483Y-11970518D02*
X16666483Y-12030518D01*
X16824741Y-12427476D02*
X16884741Y-12487476D01*
X16884741Y-12427476D02*
X16824741Y-12487476D01*
X16839450Y-20075000D02*
X16899450Y-20135000D01*
X16899450Y-20075000D02*
X16839450Y-20135000D01*
X16854417Y-8972000D02*
X16914417Y-9032000D01*
X16914417Y-8972000D02*
X16854417Y-9032000D01*
X16855417Y-9493000D02*
X16915417Y-9553000D01*
X16915417Y-9493000D02*
X16855417Y-9553000D01*
X16855417Y-14462000D02*
X16915417Y-14522000D01*
X16915417Y-14462000D02*
X16855417Y-14522000D01*
X16856417Y-18223000D02*
X16916417Y-18283000D01*
X16916417Y-18223000D02*
X16856417Y-18283000D01*
X16877417Y-4604000D02*
X16937417Y-4664000D01*
X16937417Y-4604000D02*
X16877417Y-4664000D01*
X16885417Y-2055000D02*
X16945417Y-2115000D01*
X16945417Y-2055000D02*
X16885417Y-2115000D01*
X16885417Y-2555000D02*
X16945417Y-2615000D01*
X16945417Y-2555000D02*
X16885417Y-2615000D01*
X16886417Y-3996000D02*
X16946417Y-4056000D01*
X16946417Y-3996000D02*
X16886417Y-4056000D01*
X16894483Y-21889000D02*
X16954483Y-21949000D01*
X16954483Y-21889000D02*
X16894483Y-21949000D01*
X16896098Y-14974999D02*
X16956098Y-15034999D01*
X16956098Y-14974999D02*
X16896098Y-15034999D01*
X16896684Y-19344000D02*
X16956684Y-19404000D01*
X16956684Y-19344000D02*
X16896684Y-19404000D01*
X17002000Y-19671000D02*
X17062000Y-19731000D01*
X17062000Y-19671000D02*
X17002000Y-19731000D01*
X17018000Y-14614795D02*
X17078000Y-14674795D01*
X17078000Y-14614795D02*
X17018000Y-14674795D01*
X17155417Y-23118000D02*
X17215417Y-23178000D01*
X17215417Y-23118000D02*
X17155417Y-23178000D01*
X17155934Y-450000D02*
X17215934Y-510000D01*
X17215934Y-450000D02*
X17155934Y-510000D01*
X17239450Y-20995000D02*
X17299450Y-21055000D01*
X17299450Y-20995000D02*
X17239450Y-21055000D01*
X17245866Y-12760067D02*
X17305866Y-12820067D01*
X17305866Y-12760067D02*
X17245866Y-12820067D01*
X17632933Y-1598934D02*
X17692933Y-1658934D01*
X17692933Y-1598934D02*
X17632933Y-1658934D01*
X17638933Y-5056485D02*
X17698933Y-5116485D01*
X17698933Y-5056485D02*
X17638933Y-5116485D01*
X17646933Y-15425417D02*
X17706933Y-15485417D01*
X17706933Y-15425417D02*
X17646933Y-15485417D01*
X17647933Y-22341382D02*
X17707933Y-22401382D01*
X17707933Y-22341382D02*
X17647933Y-22401382D01*
X17652933Y-8513417D02*
X17712933Y-8573417D01*
X17712933Y-8513417D02*
X17652933Y-8573417D01*
X17653933Y-11970417D02*
X17713933Y-12030417D01*
X17713933Y-11970417D02*
X17653933Y-12030417D01*
X17665933Y-18881417D02*
X17725933Y-18941417D01*
X17725933Y-18881417D02*
X17665933Y-18941417D01*
X18146314Y-20612900D02*
X18206314Y-20672900D01*
X18206314Y-20612900D02*
X18146314Y-20672900D01*
X18226000Y-13699584D02*
X18286000Y-13759584D01*
X18286000Y-13699584D02*
X18226000Y-13759584D01*
X18373933Y-17155584D02*
X18433933Y-17215584D01*
X18433933Y-17155584D02*
X18373933Y-17215584D01*
X18378030Y-14614795D02*
X18438030Y-14674795D01*
X18438030Y-14614795D02*
X18378030Y-14674795D01*
X18379030Y-13249000D02*
X18439030Y-13309000D01*
X18439030Y-13249000D02*
X18379030Y-13309000D01*
X18380284Y-19677412D02*
X18440284Y-19737412D01*
X18440284Y-19677412D02*
X18380284Y-19737412D01*
X18380284Y-20162000D02*
X18440284Y-20222000D01*
X18440284Y-20162000D02*
X18380284Y-20222000D01*
X18390933Y-10243584D02*
X18450933Y-10303584D01*
X18450933Y-10243584D02*
X18390933Y-10303584D01*
X18396966Y-6785001D02*
X18456966Y-6845001D01*
X18456966Y-6785001D02*
X18396966Y-6845001D01*
X18397966Y-3327001D02*
X18457966Y-3387001D01*
X18457966Y-3327001D02*
X18397966Y-3387001D01*
X18797025Y-7499000D02*
X18857025Y-7559000D01*
X18857025Y-7499000D02*
X18797025Y-7559000D01*
X18811000Y-9333232D02*
X18871000Y-9393232D01*
X18871000Y-9333232D02*
X18811000Y-9393232D01*
X18970768Y-13059000D02*
X19030768Y-13119000D01*
X19030768Y-13059000D02*
X18970768Y-13119000D01*
X18971128Y-9545475D02*
X19031128Y-9605475D01*
X19031128Y-9545475D02*
X18971128Y-9605475D01*
X19142701Y-20161000D02*
X19202701Y-20221000D01*
X19202701Y-20161000D02*
X19142701Y-20221000D01*
X19142934Y-7243000D02*
X19202934Y-7303000D01*
X19202934Y-7243000D02*
X19142934Y-7303000D01*
X19143184Y-14156000D02*
X19203184Y-14216000D01*
X19203184Y-14156000D02*
X19143184Y-14216000D01*
X19143184Y-17614000D02*
X19203184Y-17674000D01*
X19203184Y-17614000D02*
X19143184Y-17674000D01*
X19143218Y-2876000D02*
X19203218Y-2936000D01*
X19203218Y-2876000D02*
X19143218Y-2936000D01*
X19372348Y-20613317D02*
X19432348Y-20673317D01*
X19432348Y-20613317D02*
X19372348Y-20673317D01*
X19373348Y-3327317D02*
X19433348Y-3387317D01*
X19433348Y-3327317D02*
X19373348Y-3387317D01*
X19373348Y-6785317D02*
X19433348Y-6845317D01*
X19433348Y-6785317D02*
X19373348Y-6845317D01*
X19373348Y-10242317D02*
X19433348Y-10302317D01*
X19433348Y-10242317D02*
X19373348Y-10302317D01*
X19373415Y-17154765D02*
X19433415Y-17214765D01*
X19433415Y-17154765D02*
X19373415Y-17214765D01*
X19373479Y-13698921D02*
X19433479Y-13758921D01*
X19433479Y-13698921D02*
X19373479Y-13758921D01*
X20122517Y-22342101D02*
X20182517Y-22402101D01*
X20182517Y-22342101D02*
X20122517Y-22402101D01*
X20122550Y-18884034D02*
X20182550Y-18944034D01*
X20182550Y-18884034D02*
X20122550Y-18944034D01*
X20123021Y-15427026D02*
X20183021Y-15487026D01*
X20183021Y-15427026D02*
X20123021Y-15487026D01*
X20123517Y-1601101D02*
X20183517Y-1661101D01*
X20183517Y-1601101D02*
X20123517Y-1661101D01*
X20123517Y-5057101D02*
X20183517Y-5117101D01*
X20183517Y-5057101D02*
X20123517Y-5117101D01*
X20123517Y-8514101D02*
X20183517Y-8574101D01*
X20183517Y-8514101D02*
X20123517Y-8574101D01*
X20123517Y-11971101D02*
X20183517Y-12031101D01*
X20183517Y-11971101D02*
X20123517Y-12031101D01*
X20281774Y-12428059D02*
X20341774Y-12488059D01*
X20341774Y-12428059D02*
X20281774Y-12488059D01*
X20297000Y-20075000D02*
X20357000Y-20135000D01*
X20357000Y-20075000D02*
X20297000Y-20135000D01*
X20311967Y-8972000D02*
X20371967Y-9032000D01*
X20371967Y-8972000D02*
X20311967Y-9032000D01*
X20312967Y-9493000D02*
X20372967Y-9553000D01*
X20372967Y-9493000D02*
X20312967Y-9553000D01*
X20312967Y-14462000D02*
X20372967Y-14522000D01*
X20372967Y-14462000D02*
X20312967Y-14522000D01*
X20313967Y-18223000D02*
X20373967Y-18283000D01*
X20373967Y-18223000D02*
X20313967Y-18283000D01*
X20334967Y-4604000D02*
X20394967Y-4664000D01*
X20394967Y-4604000D02*
X20334967Y-4664000D01*
X20342967Y-2055000D02*
X20402967Y-2115000D01*
X20402967Y-2055000D02*
X20342967Y-2115000D01*
X20342967Y-2555000D02*
X20402967Y-2615000D01*
X20402967Y-2555000D02*
X20342967Y-2615000D01*
X20343967Y-3996000D02*
X20403967Y-4056000D01*
X20403967Y-3996000D02*
X20343967Y-4056000D01*
X20352000Y-21889000D02*
X20412000Y-21949000D01*
X20412000Y-21889000D02*
X20352000Y-21949000D01*
X20353615Y-14974999D02*
X20413615Y-15034999D01*
X20413615Y-14974999D02*
X20353615Y-15034999D01*
X20354201Y-19344000D02*
X20414201Y-19404000D01*
X20414201Y-19344000D02*
X20354201Y-19404000D01*
X20460000Y-19671000D02*
X20520000Y-19731000D01*
X20520000Y-19671000D02*
X20460000Y-19731000D01*
X20471000Y-14614795D02*
X20531000Y-14674795D01*
X20531000Y-14614795D02*
X20471000Y-14674795D01*
X20523967Y-21888000D02*
X20583967Y-21948000D01*
X20583967Y-21888000D02*
X20523967Y-21948000D01*
X20612967Y-23118000D02*
X20672967Y-23178000D01*
X20672967Y-23118000D02*
X20612967Y-23178000D01*
X20613484Y-450000D02*
X20673484Y-510000D01*
X20673484Y-450000D02*
X20613484Y-510000D01*
X20696967Y-20995000D02*
X20756967Y-21055000D01*
X20756967Y-20995000D02*
X20696967Y-21055000D01*
X20702836Y-12760074D02*
X20762836Y-12820074D01*
X20762836Y-12760074D02*
X20702836Y-12820074D01*
X21089966Y-1599517D02*
X21149966Y-1659517D01*
X21149966Y-1599517D02*
X21089966Y-1659517D01*
X21095966Y-5057069D02*
X21155966Y-5117069D01*
X21155966Y-5057069D02*
X21095966Y-5117069D01*
X21103966Y-15426001D02*
X21163966Y-15486001D01*
X21163966Y-15426001D02*
X21103966Y-15486001D01*
X21104966Y-22341966D02*
X21164966Y-22401966D01*
X21164966Y-22341966D02*
X21104966Y-22401966D01*
X21109966Y-8514001D02*
X21169966Y-8574001D01*
X21169966Y-8514001D02*
X21109966Y-8574001D01*
X21110966Y-11971001D02*
X21170966Y-12031001D01*
X21170966Y-11971001D02*
X21110966Y-12031001D01*
X21122966Y-18882001D02*
X21182966Y-18942001D01*
X21182966Y-18882001D02*
X21122966Y-18942001D01*
X21626000Y-20612000D02*
X21686000Y-20672000D01*
X21686000Y-20612000D02*
X21626000Y-20672000D01*
X21644000Y-13699000D02*
X21704000Y-13759000D01*
X21704000Y-13699000D02*
X21644000Y-13759000D01*
X21824000Y-19507000D02*
X21884000Y-19567000D01*
X21884000Y-19507000D02*
X21824000Y-19567000D01*
X21834000Y-19674412D02*
X21894000Y-19734412D01*
X21894000Y-19674412D02*
X21834000Y-19734412D01*
X21834000Y-20159000D02*
X21894000Y-20219000D01*
X21894000Y-20159000D02*
X21834000Y-20219000D01*
X21835000Y-9334000D02*
X21895000Y-9394000D01*
X21895000Y-9334000D02*
X21835000Y-9394000D01*
X21835000Y-14614795D02*
X21895000Y-14674795D01*
X21895000Y-14614795D02*
X21835000Y-14674795D01*
X21836000Y-13249000D02*
X21896000Y-13309000D01*
X21896000Y-13249000D02*
X21836000Y-13309000D01*
X21853619Y-17154684D02*
X21913619Y-17214684D01*
X21913619Y-17154684D02*
X21853619Y-17214684D01*
X21854703Y-3327953D02*
X21914703Y-3387953D01*
X21914703Y-3327953D02*
X21854703Y-3387953D01*
X21855619Y-6786684D02*
X21915619Y-6846684D01*
X21915619Y-6786684D02*
X21855619Y-6846684D01*
X22039000Y-19799000D02*
X22099000Y-19859000D01*
X22099000Y-19799000D02*
X22039000Y-19859000D01*
X22134000Y-19893500D02*
X22194000Y-19953500D01*
X22194000Y-19893500D02*
X22134000Y-19953500D01*
X22229000Y-19988000D02*
X22289000Y-20048000D01*
X22289000Y-19988000D02*
X22229000Y-20048000D01*
X22254000Y-7499000D02*
X22314000Y-7559000D01*
X22314000Y-7499000D02*
X22254000Y-7559000D01*
X22272000Y-2188000D02*
X22332000Y-2248000D01*
X22332000Y-2188000D02*
X22272000Y-2248000D01*
X22305693Y-9577764D02*
X22365693Y-9637764D01*
X22365693Y-9577764D02*
X22305693Y-9637764D01*
X22427733Y-13059000D02*
X22487733Y-13119000D01*
X22487733Y-13059000D02*
X22427733Y-13119000D01*
X22526000Y-19309000D02*
X22586000Y-19369000D01*
X22586000Y-19309000D02*
X22526000Y-19369000D01*
X22599899Y-7243000D02*
X22659899Y-7303000D01*
X22659899Y-7243000D02*
X22599899Y-7303000D01*
X22600149Y-14156000D02*
X22660149Y-14216000D01*
X22660149Y-14156000D02*
X22600149Y-14216000D01*
X22600149Y-17614000D02*
X22660149Y-17674000D01*
X22660149Y-17614000D02*
X22600149Y-17674000D01*
X22621000Y-19403500D02*
X22681000Y-19463500D01*
X22681000Y-19403500D02*
X22621000Y-19463500D01*
X22716000Y-19498000D02*
X22776000Y-19558000D01*
X22776000Y-19498000D02*
X22716000Y-19558000D01*
X22829382Y-20613901D02*
X22889382Y-20673901D01*
X22889382Y-20613901D02*
X22829382Y-20673901D01*
X22830382Y-10242901D02*
X22890382Y-10302901D01*
X22890382Y-10242901D02*
X22830382Y-10302901D01*
X22830383Y-3327901D02*
X22890383Y-3387901D01*
X22890383Y-3327901D02*
X22830383Y-3387901D01*
X22830383Y-6785901D02*
X22890383Y-6845901D01*
X22890383Y-6785901D02*
X22830383Y-6845901D01*
X22830450Y-17155349D02*
X22890450Y-17215349D01*
X22890450Y-17155349D02*
X22830450Y-17215349D01*
X22830514Y-13699505D02*
X22890514Y-13759505D01*
X22890514Y-13699505D02*
X22830514Y-13759505D01*
X23104000Y-8748000D02*
X23164000Y-8808000D01*
X23164000Y-8748000D02*
X23104000Y-8808000D01*
X23104000Y-8878500D02*
X23164000Y-8938500D01*
X23164000Y-8878500D02*
X23104000Y-8938500D01*
X23104000Y-9009000D02*
X23164000Y-9069000D01*
X23164000Y-9009000D02*
X23104000Y-9069000D01*
X23489000Y-3327034D02*
X23549000Y-3387034D01*
X23549000Y-3327034D02*
X23489000Y-3387034D01*
X23489000Y-6784584D02*
X23549000Y-6844584D01*
X23549000Y-6784584D02*
X23489000Y-6844584D01*
X23489000Y-13698517D02*
X23549000Y-13758517D01*
X23549000Y-13698517D02*
X23489000Y-13758517D01*
X23489000Y-17155484D02*
X23549000Y-17215484D01*
X23549000Y-17155484D02*
X23489000Y-17215484D01*
X23489000Y-20613001D02*
X23549000Y-20673001D01*
X23549000Y-20613001D02*
X23489000Y-20673001D01*
X23489000Y-10242034D02*
X23549000Y-10302034D01*
X23549000Y-10242034D02*
X23489000Y-10302034D01*
X8447500Y-330000D02*
G75*
G02*
X8372500Y-330000I-37500J0D01*
G01*
X8372500Y-330000D02*
G75*
G02*
X8447500Y-330000I37500J0D01*
G01*
X8447500Y-530000D02*
G75*
G02*
X8372500Y-530000I-37500J0D01*
G01*
X8372500Y-530000D02*
G75*
G02*
X8447500Y-530000I37500J0D01*
G01*
X9303500Y-675000D02*
G75*
G02*
X9228500Y-675000I-37500J0D01*
G01*
X9228500Y-675000D02*
G75*
G02*
X9303500Y-675000I37500J0D01*
G01*
X9503500Y-675000D02*
G75*
G02*
X9428500Y-675000I-37500J0D01*
G01*
X9428500Y-675000D02*
G75*
G02*
X9503500Y-675000I37500J0D01*
G01*
X9703500Y-675000D02*
G75*
G02*
X9628500Y-675000I-37500J0D01*
G01*
X9628500Y-675000D02*
G75*
G02*
X9703500Y-675000I37500J0D01*
G01*
X9903500Y-675000D02*
G75*
G02*
X9828500Y-675000I-37500J0D01*
G01*
X9828500Y-675000D02*
G75*
G02*
X9903500Y-675000I37500J0D01*
G01*
X10103500Y-675000D02*
G75*
G02*
X10028500Y-675000I-37500J0D01*
G01*
X10028500Y-675000D02*
G75*
G02*
X10103500Y-675000I37500J0D01*
G01*
X14102500Y-679000D02*
G75*
G02*
X14027500Y-679000I-37500J0D01*
G01*
X14027500Y-679000D02*
G75*
G02*
X14102500Y-679000I37500J0D01*
G01*
X14302500Y-679000D02*
G75*
G02*
X14227500Y-679000I-37500J0D01*
G01*
X14227500Y-679000D02*
G75*
G02*
X14302500Y-679000I37500J0D01*
G01*
X14502500Y-679000D02*
G75*
G02*
X14427500Y-679000I-37500J0D01*
G01*
X14427500Y-679000D02*
G75*
G02*
X14502500Y-679000I37500J0D01*
G01*
X14702500Y-679000D02*
G75*
G02*
X14627500Y-679000I-37500J0D01*
G01*
X14627500Y-679000D02*
G75*
G02*
X14702500Y-679000I37500J0D01*
G01*
X14902500Y-679000D02*
G75*
G02*
X14827500Y-679000I-37500J0D01*
G01*
X14827500Y-679000D02*
G75*
G02*
X14902500Y-679000I37500J0D01*
G01*
X15102500Y-679000D02*
G75*
G02*
X15027500Y-679000I-37500J0D01*
G01*
X15027500Y-679000D02*
G75*
G02*
X15102500Y-679000I37500J0D01*
G01*
X16102500Y-679000D02*
G75*
G02*
X16027500Y-679000I-37500J0D01*
G01*
X16027500Y-679000D02*
G75*
G02*
X16102500Y-679000I37500J0D01*
G01*
X16302500Y-679000D02*
G75*
G02*
X16227500Y-679000I-37500J0D01*
G01*
X16227500Y-679000D02*
G75*
G02*
X16302500Y-679000I37500J0D01*
G01*
X16502500Y-679000D02*
G75*
G02*
X16427500Y-679000I-37500J0D01*
G01*
X16427500Y-679000D02*
G75*
G02*
X16502500Y-679000I37500J0D01*
G01*
X16702500Y-679000D02*
G75*
G02*
X16627500Y-679000I-37500J0D01*
G01*
X16627500Y-679000D02*
G75*
G02*
X16702500Y-679000I37500J0D01*
G01*
X16902500Y-679000D02*
G75*
G02*
X16827500Y-679000I-37500J0D01*
G01*
X16827500Y-679000D02*
G75*
G02*
X16902500Y-679000I37500J0D01*
G01*
X17102500Y-679000D02*
G75*
G02*
X17027500Y-679000I-37500J0D01*
G01*
X17027500Y-679000D02*
G75*
G02*
X17102500Y-679000I37500J0D01*
G01*
X21458500Y-23552000D02*
G75*
G02*
X21383500Y-23552000I-37500J0D01*
G01*
X21383500Y-23552000D02*
G75*
G02*
X21458500Y-23552000I37500J0D01*
G01*
X21458500Y-23752000D02*
G75*
G02*
X21383500Y-23752000I-37500J0D01*
G01*
X21383500Y-23752000D02*
G75*
G02*
X21458500Y-23752000I37500J0D01*
G01*
D13*
X1000000Y-840000D02*
X1000000Y-1160000D01*
X840000Y-1000000D02*
X1160000Y-1000000D01*
X1000000Y-22840000D02*
X1000000Y-23160000D01*
X840000Y-23000000D02*
X1160000Y-23000000D01*
X23000000Y-840000D02*
X23000000Y-1160000D01*
X22840000Y-1000000D02*
X23160000Y-1000000D01*
X23000000Y-22840000D02*
X23000000Y-23160000D01*
X22840000Y-23000000D02*
X23160000Y-23000000D01*
D12*
X258277Y-24313984D02*
X258277Y-24113984D01*
X258277Y-24113984D02*
X305896Y-24113984D01*
X305896Y-24113984D02*
X334467Y-24123508D01*
X334467Y-24123508D02*
X353515Y-24142555D01*
X353515Y-24142555D02*
X363039Y-24161603D01*
X363039Y-24161603D02*
X372562Y-24199698D01*
X372562Y-24199698D02*
X372562Y-24228269D01*
X372562Y-24228269D02*
X363039Y-24266365D01*
X363039Y-24266365D02*
X353515Y-24285412D01*
X353515Y-24285412D02*
X334467Y-24304460D01*
X334467Y-24304460D02*
X305896Y-24313984D01*
X305896Y-24313984D02*
X258277Y-24313984D01*
X458277Y-24313984D02*
X458277Y-24180650D01*
X458277Y-24218746D02*
X467801Y-24199698D01*
X467801Y-24199698D02*
X477324Y-24190174D01*
X477324Y-24190174D02*
X496372Y-24180650D01*
X496372Y-24180650D02*
X515420Y-24180650D01*
X582086Y-24313984D02*
X582086Y-24180650D01*
X582086Y-24113984D02*
X572563Y-24123508D01*
X572563Y-24123508D02*
X582086Y-24133031D01*
X582086Y-24133031D02*
X591610Y-24123508D01*
X591610Y-24123508D02*
X582086Y-24113984D01*
X582086Y-24113984D02*
X582086Y-24133031D01*
X705896Y-24313984D02*
X686848Y-24304460D01*
X686848Y-24304460D02*
X677324Y-24285412D01*
X677324Y-24285412D02*
X677324Y-24113984D01*
X810658Y-24313984D02*
X791610Y-24304460D01*
X791610Y-24304460D02*
X782086Y-24285412D01*
X782086Y-24285412D02*
X782086Y-24113984D01*
X1039229Y-24313984D02*
X1039229Y-24113984D01*
X1039229Y-24113984D02*
X1105896Y-24256841D01*
X1105896Y-24256841D02*
X1172563Y-24113984D01*
X1172563Y-24113984D02*
X1172563Y-24313984D01*
X1353515Y-24313984D02*
X1353515Y-24209222D01*
X1353515Y-24209222D02*
X1343991Y-24190174D01*
X1343991Y-24190174D02*
X1324944Y-24180650D01*
X1324944Y-24180650D02*
X1286848Y-24180650D01*
X1286848Y-24180650D02*
X1267801Y-24190174D01*
X1353515Y-24304460D02*
X1334467Y-24313984D01*
X1334467Y-24313984D02*
X1286848Y-24313984D01*
X1286848Y-24313984D02*
X1267801Y-24304460D01*
X1267801Y-24304460D02*
X1258277Y-24285412D01*
X1258277Y-24285412D02*
X1258277Y-24266365D01*
X1258277Y-24266365D02*
X1267801Y-24247317D01*
X1267801Y-24247317D02*
X1286848Y-24237793D01*
X1286848Y-24237793D02*
X1334467Y-24237793D01*
X1334467Y-24237793D02*
X1353515Y-24228269D01*
X1448753Y-24180650D02*
X1448753Y-24380650D01*
X1448753Y-24190174D02*
X1467801Y-24180650D01*
X1467801Y-24180650D02*
X1505896Y-24180650D01*
X1505896Y-24180650D02*
X1524943Y-24190174D01*
X1524943Y-24190174D02*
X1534467Y-24199698D01*
X1534467Y-24199698D02*
X1543991Y-24218746D01*
X1543991Y-24218746D02*
X1543991Y-24275888D01*
X1543991Y-24275888D02*
X1534467Y-24294936D01*
X1534467Y-24294936D02*
X1524943Y-24304460D01*
X1524943Y-24304460D02*
X1505896Y-24313984D01*
X1505896Y-24313984D02*
X1467801Y-24313984D01*
X1467801Y-24313984D02*
X1448753Y-24304460D01*
X1629705Y-24294936D02*
X1639229Y-24304460D01*
X1639229Y-24304460D02*
X1629705Y-24313984D01*
X1629705Y-24313984D02*
X1620182Y-24304460D01*
X1620182Y-24304460D02*
X1629705Y-24294936D01*
X1629705Y-24294936D02*
X1629705Y-24313984D01*
X1629705Y-24190174D02*
X1639229Y-24199698D01*
X1639229Y-24199698D02*
X1629705Y-24209222D01*
X1629705Y-24209222D02*
X1620182Y-24199698D01*
X1620182Y-24199698D02*
X1629705Y-24190174D01*
X1629705Y-24190174D02*
X1629705Y-24209222D01*
D11*
X-62500Y-24612500D02*
X-2500Y-24672500D01*
X-2500Y-24612500D02*
X-62500Y-24672500D01*
D12*
X296372Y-24533984D02*
X315420Y-24533984D01*
X315420Y-24533984D02*
X334467Y-24543508D01*
X334467Y-24543508D02*
X343991Y-24553031D01*
X343991Y-24553031D02*
X353515Y-24572079D01*
X353515Y-24572079D02*
X363039Y-24610174D01*
X363039Y-24610174D02*
X363039Y-24657793D01*
X363039Y-24657793D02*
X353515Y-24695888D01*
X353515Y-24695888D02*
X343991Y-24714936D01*
X343991Y-24714936D02*
X334467Y-24724460D01*
X334467Y-24724460D02*
X315420Y-24733984D01*
X315420Y-24733984D02*
X296372Y-24733984D01*
X296372Y-24733984D02*
X277324Y-24724460D01*
X277324Y-24724460D02*
X267801Y-24714936D01*
X267801Y-24714936D02*
X258277Y-24695888D01*
X258277Y-24695888D02*
X248753Y-24657793D01*
X248753Y-24657793D02*
X248753Y-24610174D01*
X248753Y-24610174D02*
X258277Y-24572079D01*
X258277Y-24572079D02*
X267801Y-24553031D01*
X267801Y-24553031D02*
X277324Y-24543508D01*
X277324Y-24543508D02*
X296372Y-24533984D01*
X448753Y-24714936D02*
X458277Y-24724460D01*
X458277Y-24724460D02*
X448753Y-24733984D01*
X448753Y-24733984D02*
X439229Y-24724460D01*
X439229Y-24724460D02*
X448753Y-24714936D01*
X448753Y-24714936D02*
X448753Y-24733984D01*
X629705Y-24533984D02*
X591610Y-24533984D01*
X591610Y-24533984D02*
X572563Y-24543508D01*
X572563Y-24543508D02*
X563039Y-24553031D01*
X563039Y-24553031D02*
X543991Y-24581603D01*
X543991Y-24581603D02*
X534467Y-24619698D01*
X534467Y-24619698D02*
X534467Y-24695888D01*
X534467Y-24695888D02*
X543991Y-24714936D01*
X543991Y-24714936D02*
X553515Y-24724460D01*
X553515Y-24724460D02*
X572563Y-24733984D01*
X572563Y-24733984D02*
X610658Y-24733984D01*
X610658Y-24733984D02*
X629705Y-24724460D01*
X629705Y-24724460D02*
X639229Y-24714936D01*
X639229Y-24714936D02*
X648753Y-24695888D01*
X648753Y-24695888D02*
X648753Y-24648269D01*
X648753Y-24648269D02*
X639229Y-24629222D01*
X639229Y-24629222D02*
X629705Y-24619698D01*
X629705Y-24619698D02*
X610658Y-24610174D01*
X610658Y-24610174D02*
X572563Y-24610174D01*
X572563Y-24610174D02*
X553515Y-24619698D01*
X553515Y-24619698D02*
X543991Y-24629222D01*
X543991Y-24629222D02*
X534467Y-24648269D01*
X772562Y-24533984D02*
X791610Y-24533984D01*
X791610Y-24533984D02*
X810658Y-24543508D01*
X810658Y-24543508D02*
X820182Y-24553031D01*
X820182Y-24553031D02*
X829705Y-24572079D01*
X829705Y-24572079D02*
X839229Y-24610174D01*
X839229Y-24610174D02*
X839229Y-24657793D01*
X839229Y-24657793D02*
X829705Y-24695888D01*
X829705Y-24695888D02*
X820182Y-24714936D01*
X820182Y-24714936D02*
X810658Y-24724460D01*
X810658Y-24724460D02*
X791610Y-24733984D01*
X791610Y-24733984D02*
X772562Y-24733984D01*
X772562Y-24733984D02*
X753515Y-24724460D01*
X753515Y-24724460D02*
X743991Y-24714936D01*
X743991Y-24714936D02*
X734467Y-24695888D01*
X734467Y-24695888D02*
X724943Y-24657793D01*
X724943Y-24657793D02*
X724943Y-24610174D01*
X724943Y-24610174D02*
X734467Y-24572079D01*
X734467Y-24572079D02*
X743991Y-24553031D01*
X743991Y-24553031D02*
X753515Y-24543508D01*
X753515Y-24543508D02*
X772562Y-24533984D01*
X963039Y-24533984D02*
X982086Y-24533984D01*
X982086Y-24533984D02*
X1001134Y-24543508D01*
X1001134Y-24543508D02*
X1010658Y-24553031D01*
X1010658Y-24553031D02*
X1020182Y-24572079D01*
X1020182Y-24572079D02*
X1029705Y-24610174D01*
X1029705Y-24610174D02*
X1029705Y-24657793D01*
X1029705Y-24657793D02*
X1020182Y-24695888D01*
X1020182Y-24695888D02*
X1010658Y-24714936D01*
X1010658Y-24714936D02*
X1001134Y-24724460D01*
X1001134Y-24724460D02*
X982086Y-24733984D01*
X982086Y-24733984D02*
X963039Y-24733984D01*
X963039Y-24733984D02*
X943991Y-24724460D01*
X943991Y-24724460D02*
X934467Y-24714936D01*
X934467Y-24714936D02*
X924943Y-24695888D01*
X924943Y-24695888D02*
X915420Y-24657793D01*
X915420Y-24657793D02*
X915420Y-24610174D01*
X915420Y-24610174D02*
X924943Y-24572079D01*
X924943Y-24572079D02*
X934467Y-24553031D01*
X934467Y-24553031D02*
X943991Y-24543508D01*
X943991Y-24543508D02*
X963039Y-24533984D01*
X1115420Y-24733984D02*
X1115420Y-24600650D01*
X1115420Y-24619698D02*
X1124944Y-24610174D01*
X1124944Y-24610174D02*
X1143991Y-24600650D01*
X1143991Y-24600650D02*
X1172563Y-24600650D01*
X1172563Y-24600650D02*
X1191610Y-24610174D01*
X1191610Y-24610174D02*
X1201134Y-24629222D01*
X1201134Y-24629222D02*
X1201134Y-24733984D01*
X1201134Y-24629222D02*
X1210658Y-24610174D01*
X1210658Y-24610174D02*
X1229705Y-24600650D01*
X1229705Y-24600650D02*
X1258277Y-24600650D01*
X1258277Y-24600650D02*
X1277325Y-24610174D01*
X1277325Y-24610174D02*
X1286848Y-24629222D01*
X1286848Y-24629222D02*
X1286848Y-24733984D01*
X1382086Y-24733984D02*
X1382086Y-24600650D01*
X1382086Y-24619698D02*
X1391610Y-24610174D01*
X1391610Y-24610174D02*
X1410658Y-24600650D01*
X1410658Y-24600650D02*
X1439229Y-24600650D01*
X1439229Y-24600650D02*
X1458277Y-24610174D01*
X1458277Y-24610174D02*
X1467801Y-24629222D01*
X1467801Y-24629222D02*
X1467801Y-24733984D01*
X1467801Y-24629222D02*
X1477324Y-24610174D01*
X1477324Y-24610174D02*
X1496372Y-24600650D01*
X1496372Y-24600650D02*
X1524943Y-24600650D01*
X1524943Y-24600650D02*
X1543991Y-24610174D01*
X1543991Y-24610174D02*
X1553515Y-24629222D01*
X1553515Y-24629222D02*
X1553515Y-24733984D01*
X1943991Y-24524460D02*
X1772563Y-24781603D01*
X2201134Y-24533984D02*
X2220182Y-24533984D01*
X2220182Y-24533984D02*
X2239229Y-24543508D01*
X2239229Y-24543508D02*
X2248753Y-24553031D01*
X2248753Y-24553031D02*
X2258277Y-24572079D01*
X2258277Y-24572079D02*
X2267801Y-24610174D01*
X2267801Y-24610174D02*
X2267801Y-24657793D01*
X2267801Y-24657793D02*
X2258277Y-24695888D01*
X2258277Y-24695888D02*
X2248753Y-24714936D01*
X2248753Y-24714936D02*
X2239229Y-24724460D01*
X2239229Y-24724460D02*
X2220182Y-24733984D01*
X2220182Y-24733984D02*
X2201134Y-24733984D01*
X2201134Y-24733984D02*
X2182087Y-24724460D01*
X2182087Y-24724460D02*
X2172563Y-24714936D01*
X2172563Y-24714936D02*
X2163039Y-24695888D01*
X2163039Y-24695888D02*
X2153515Y-24657793D01*
X2153515Y-24657793D02*
X2153515Y-24610174D01*
X2153515Y-24610174D02*
X2163039Y-24572079D01*
X2163039Y-24572079D02*
X2172563Y-24553031D01*
X2172563Y-24553031D02*
X2182087Y-24543508D01*
X2182087Y-24543508D02*
X2201134Y-24533984D01*
X2353515Y-24714936D02*
X2363039Y-24724460D01*
X2363039Y-24724460D02*
X2353515Y-24733984D01*
X2353515Y-24733984D02*
X2343991Y-24724460D01*
X2343991Y-24724460D02*
X2353515Y-24714936D01*
X2353515Y-24714936D02*
X2353515Y-24733984D01*
X2486848Y-24533984D02*
X2505896Y-24533984D01*
X2505896Y-24533984D02*
X2524944Y-24543508D01*
X2524944Y-24543508D02*
X2534468Y-24553031D01*
X2534468Y-24553031D02*
X2543991Y-24572079D01*
X2543991Y-24572079D02*
X2553515Y-24610174D01*
X2553515Y-24610174D02*
X2553515Y-24657793D01*
X2553515Y-24657793D02*
X2543991Y-24695888D01*
X2543991Y-24695888D02*
X2534468Y-24714936D01*
X2534468Y-24714936D02*
X2524944Y-24724460D01*
X2524944Y-24724460D02*
X2505896Y-24733984D01*
X2505896Y-24733984D02*
X2486848Y-24733984D01*
X2486848Y-24733984D02*
X2467801Y-24724460D01*
X2467801Y-24724460D02*
X2458277Y-24714936D01*
X2458277Y-24714936D02*
X2448753Y-24695888D01*
X2448753Y-24695888D02*
X2439229Y-24657793D01*
X2439229Y-24657793D02*
X2439229Y-24610174D01*
X2439229Y-24610174D02*
X2448753Y-24572079D01*
X2448753Y-24572079D02*
X2458277Y-24553031D01*
X2458277Y-24553031D02*
X2467801Y-24543508D01*
X2467801Y-24543508D02*
X2486848Y-24533984D01*
X2629706Y-24553031D02*
X2639229Y-24543508D01*
X2639229Y-24543508D02*
X2658277Y-24533984D01*
X2658277Y-24533984D02*
X2705896Y-24533984D01*
X2705896Y-24533984D02*
X2724944Y-24543508D01*
X2724944Y-24543508D02*
X2734468Y-24553031D01*
X2734468Y-24553031D02*
X2743991Y-24572079D01*
X2743991Y-24572079D02*
X2743991Y-24591127D01*
X2743991Y-24591127D02*
X2734468Y-24619698D01*
X2734468Y-24619698D02*
X2620182Y-24733984D01*
X2620182Y-24733984D02*
X2743991Y-24733984D01*
X2810658Y-24533984D02*
X2934467Y-24533984D01*
X2934467Y-24533984D02*
X2867801Y-24610174D01*
X2867801Y-24610174D02*
X2896372Y-24610174D01*
X2896372Y-24610174D02*
X2915420Y-24619698D01*
X2915420Y-24619698D02*
X2924944Y-24629222D01*
X2924944Y-24629222D02*
X2934467Y-24648269D01*
X2934467Y-24648269D02*
X2934467Y-24695888D01*
X2934467Y-24695888D02*
X2924944Y-24714936D01*
X2924944Y-24714936D02*
X2915420Y-24724460D01*
X2915420Y-24724460D02*
X2896372Y-24733984D01*
X2896372Y-24733984D02*
X2839229Y-24733984D01*
X2839229Y-24733984D02*
X2820182Y-24724460D01*
X2820182Y-24724460D02*
X2810658Y-24714936D01*
X3105896Y-24533984D02*
X3067801Y-24533984D01*
X3067801Y-24533984D02*
X3048753Y-24543508D01*
X3048753Y-24543508D02*
X3039229Y-24553031D01*
X3039229Y-24553031D02*
X3020182Y-24581603D01*
X3020182Y-24581603D02*
X3010658Y-24619698D01*
X3010658Y-24619698D02*
X3010658Y-24695888D01*
X3010658Y-24695888D02*
X3020182Y-24714936D01*
X3020182Y-24714936D02*
X3029706Y-24724460D01*
X3029706Y-24724460D02*
X3048753Y-24733984D01*
X3048753Y-24733984D02*
X3086848Y-24733984D01*
X3086848Y-24733984D02*
X3105896Y-24724460D01*
X3105896Y-24724460D02*
X3115420Y-24714936D01*
X3115420Y-24714936D02*
X3124944Y-24695888D01*
X3124944Y-24695888D02*
X3124944Y-24648269D01*
X3124944Y-24648269D02*
X3115420Y-24629222D01*
X3115420Y-24629222D02*
X3105896Y-24619698D01*
X3105896Y-24619698D02*
X3086848Y-24610174D01*
X3086848Y-24610174D02*
X3048753Y-24610174D01*
X3048753Y-24610174D02*
X3029706Y-24619698D01*
X3029706Y-24619698D02*
X3020182Y-24629222D01*
X3020182Y-24629222D02*
X3010658Y-24648269D01*
X3201134Y-24533984D02*
X3201134Y-24572079D01*
X3277325Y-24533984D02*
X3277325Y-24572079D01*
X3572563Y-24810174D02*
X3563039Y-24800650D01*
X3563039Y-24800650D02*
X3543991Y-24772079D01*
X3543991Y-24772079D02*
X3534468Y-24753031D01*
X3534468Y-24753031D02*
X3524944Y-24724460D01*
X3524944Y-24724460D02*
X3515420Y-24676841D01*
X3515420Y-24676841D02*
X3515420Y-24638746D01*
X3515420Y-24638746D02*
X3524944Y-24591127D01*
X3524944Y-24591127D02*
X3534468Y-24562555D01*
X3534468Y-24562555D02*
X3543991Y-24543508D01*
X3543991Y-24543508D02*
X3563039Y-24514936D01*
X3563039Y-24514936D02*
X3572563Y-24505412D01*
X3629706Y-24533984D02*
X3753515Y-24533984D01*
X3753515Y-24533984D02*
X3686848Y-24610174D01*
X3686848Y-24610174D02*
X3715420Y-24610174D01*
X3715420Y-24610174D02*
X3734468Y-24619698D01*
X3734468Y-24619698D02*
X3743991Y-24629222D01*
X3743991Y-24629222D02*
X3753515Y-24648269D01*
X3753515Y-24648269D02*
X3753515Y-24695888D01*
X3753515Y-24695888D02*
X3743991Y-24714936D01*
X3743991Y-24714936D02*
X3734468Y-24724460D01*
X3734468Y-24724460D02*
X3715420Y-24733984D01*
X3715420Y-24733984D02*
X3658277Y-24733984D01*
X3658277Y-24733984D02*
X3639229Y-24724460D01*
X3639229Y-24724460D02*
X3629706Y-24714936D01*
X3867801Y-24619698D02*
X3848753Y-24610174D01*
X3848753Y-24610174D02*
X3839229Y-24600650D01*
X3839229Y-24600650D02*
X3829706Y-24581603D01*
X3829706Y-24581603D02*
X3829706Y-24572079D01*
X3829706Y-24572079D02*
X3839229Y-24553031D01*
X3839229Y-24553031D02*
X3848753Y-24543508D01*
X3848753Y-24543508D02*
X3867801Y-24533984D01*
X3867801Y-24533984D02*
X3905896Y-24533984D01*
X3905896Y-24533984D02*
X3924944Y-24543508D01*
X3924944Y-24543508D02*
X3934468Y-24553031D01*
X3934468Y-24553031D02*
X3943991Y-24572079D01*
X3943991Y-24572079D02*
X3943991Y-24581603D01*
X3943991Y-24581603D02*
X3934468Y-24600650D01*
X3934468Y-24600650D02*
X3924944Y-24610174D01*
X3924944Y-24610174D02*
X3905896Y-24619698D01*
X3905896Y-24619698D02*
X3867801Y-24619698D01*
X3867801Y-24619698D02*
X3848753Y-24629222D01*
X3848753Y-24629222D02*
X3839229Y-24638746D01*
X3839229Y-24638746D02*
X3829706Y-24657793D01*
X3829706Y-24657793D02*
X3829706Y-24695888D01*
X3829706Y-24695888D02*
X3839229Y-24714936D01*
X3839229Y-24714936D02*
X3848753Y-24724460D01*
X3848753Y-24724460D02*
X3867801Y-24733984D01*
X3867801Y-24733984D02*
X3905896Y-24733984D01*
X3905896Y-24733984D02*
X3924944Y-24724460D01*
X3924944Y-24724460D02*
X3934468Y-24714936D01*
X3934468Y-24714936D02*
X3943991Y-24695888D01*
X3943991Y-24695888D02*
X3943991Y-24657793D01*
X3943991Y-24657793D02*
X3934468Y-24638746D01*
X3934468Y-24638746D02*
X3924944Y-24629222D01*
X3924944Y-24629222D02*
X3905896Y-24619698D01*
X4058277Y-24619698D02*
X4039229Y-24610174D01*
X4039229Y-24610174D02*
X4029706Y-24600650D01*
X4029706Y-24600650D02*
X4020182Y-24581603D01*
X4020182Y-24581603D02*
X4020182Y-24572079D01*
X4020182Y-24572079D02*
X4029706Y-24553031D01*
X4029706Y-24553031D02*
X4039229Y-24543508D01*
X4039229Y-24543508D02*
X4058277Y-24533984D01*
X4058277Y-24533984D02*
X4096372Y-24533984D01*
X4096372Y-24533984D02*
X4115420Y-24543508D01*
X4115420Y-24543508D02*
X4124944Y-24553031D01*
X4124944Y-24553031D02*
X4134468Y-24572079D01*
X4134468Y-24572079D02*
X4134468Y-24581603D01*
X4134468Y-24581603D02*
X4124944Y-24600650D01*
X4124944Y-24600650D02*
X4115420Y-24610174D01*
X4115420Y-24610174D02*
X4096372Y-24619698D01*
X4096372Y-24619698D02*
X4058277Y-24619698D01*
X4058277Y-24619698D02*
X4039229Y-24629222D01*
X4039229Y-24629222D02*
X4029706Y-24638746D01*
X4029706Y-24638746D02*
X4020182Y-24657793D01*
X4020182Y-24657793D02*
X4020182Y-24695888D01*
X4020182Y-24695888D02*
X4029706Y-24714936D01*
X4029706Y-24714936D02*
X4039229Y-24724460D01*
X4039229Y-24724460D02*
X4058277Y-24733984D01*
X4058277Y-24733984D02*
X4096372Y-24733984D01*
X4096372Y-24733984D02*
X4115420Y-24724460D01*
X4115420Y-24724460D02*
X4124944Y-24714936D01*
X4124944Y-24714936D02*
X4134468Y-24695888D01*
X4134468Y-24695888D02*
X4134468Y-24657793D01*
X4134468Y-24657793D02*
X4124944Y-24638746D01*
X4124944Y-24638746D02*
X4115420Y-24629222D01*
X4115420Y-24629222D02*
X4096372Y-24619698D01*
X4372563Y-24733984D02*
X4372563Y-24533984D01*
X4458277Y-24733984D02*
X4458277Y-24629222D01*
X4458277Y-24629222D02*
X4448753Y-24610174D01*
X4448753Y-24610174D02*
X4429706Y-24600650D01*
X4429706Y-24600650D02*
X4401134Y-24600650D01*
X4401134Y-24600650D02*
X4382087Y-24610174D01*
X4382087Y-24610174D02*
X4372563Y-24619698D01*
X4582087Y-24733984D02*
X4563039Y-24724460D01*
X4563039Y-24724460D02*
X4553515Y-24714936D01*
X4553515Y-24714936D02*
X4543992Y-24695888D01*
X4543992Y-24695888D02*
X4543992Y-24638746D01*
X4543992Y-24638746D02*
X4553515Y-24619698D01*
X4553515Y-24619698D02*
X4563039Y-24610174D01*
X4563039Y-24610174D02*
X4582087Y-24600650D01*
X4582087Y-24600650D02*
X4610658Y-24600650D01*
X4610658Y-24600650D02*
X4629706Y-24610174D01*
X4629706Y-24610174D02*
X4639230Y-24619698D01*
X4639230Y-24619698D02*
X4648753Y-24638746D01*
X4648753Y-24638746D02*
X4648753Y-24695888D01*
X4648753Y-24695888D02*
X4639230Y-24714936D01*
X4639230Y-24714936D02*
X4629706Y-24724460D01*
X4629706Y-24724460D02*
X4610658Y-24733984D01*
X4610658Y-24733984D02*
X4582087Y-24733984D01*
X4763039Y-24733984D02*
X4743992Y-24724460D01*
X4743992Y-24724460D02*
X4734468Y-24705412D01*
X4734468Y-24705412D02*
X4734468Y-24533984D01*
X4915420Y-24724460D02*
X4896373Y-24733984D01*
X4896373Y-24733984D02*
X4858277Y-24733984D01*
X4858277Y-24733984D02*
X4839230Y-24724460D01*
X4839230Y-24724460D02*
X4829706Y-24705412D01*
X4829706Y-24705412D02*
X4829706Y-24629222D01*
X4829706Y-24629222D02*
X4839230Y-24610174D01*
X4839230Y-24610174D02*
X4858277Y-24600650D01*
X4858277Y-24600650D02*
X4896373Y-24600650D01*
X4896373Y-24600650D02*
X4915420Y-24610174D01*
X4915420Y-24610174D02*
X4924944Y-24629222D01*
X4924944Y-24629222D02*
X4924944Y-24648269D01*
X4924944Y-24648269D02*
X4829706Y-24667317D01*
X5001134Y-24724460D02*
X5020182Y-24733984D01*
X5020182Y-24733984D02*
X5058277Y-24733984D01*
X5058277Y-24733984D02*
X5077325Y-24724460D01*
X5077325Y-24724460D02*
X5086849Y-24705412D01*
X5086849Y-24705412D02*
X5086849Y-24695888D01*
X5086849Y-24695888D02*
X5077325Y-24676841D01*
X5077325Y-24676841D02*
X5058277Y-24667317D01*
X5058277Y-24667317D02*
X5029706Y-24667317D01*
X5029706Y-24667317D02*
X5010658Y-24657793D01*
X5010658Y-24657793D02*
X5001134Y-24638746D01*
X5001134Y-24638746D02*
X5001134Y-24629222D01*
X5001134Y-24629222D02*
X5010658Y-24610174D01*
X5010658Y-24610174D02*
X5029706Y-24600650D01*
X5029706Y-24600650D02*
X5058277Y-24600650D01*
X5058277Y-24600650D02*
X5077325Y-24610174D01*
X5153515Y-24810174D02*
X5163039Y-24800650D01*
X5163039Y-24800650D02*
X5182087Y-24772079D01*
X5182087Y-24772079D02*
X5191611Y-24753031D01*
X5191611Y-24753031D02*
X5201134Y-24724460D01*
X5201134Y-24724460D02*
X5210658Y-24676841D01*
X5210658Y-24676841D02*
X5210658Y-24638746D01*
X5210658Y-24638746D02*
X5201134Y-24591127D01*
X5201134Y-24591127D02*
X5191611Y-24562555D01*
X5191611Y-24562555D02*
X5182087Y-24543508D01*
X5182087Y-24543508D02*
X5163039Y-24514936D01*
X5163039Y-24514936D02*
X5153515Y-24505412D01*
D11*
X-2500Y-24906500D02*
G75*
G02*
X-77500Y-24906500I-37500J0D01*
G01*
X-77500Y-24906500D02*
G75*
G02*
X-2500Y-24906500I37500J0D01*
G01*
D12*
X296372Y-24797984D02*
X315420Y-24797984D01*
X315420Y-24797984D02*
X334467Y-24807508D01*
X334467Y-24807508D02*
X343991Y-24817031D01*
X343991Y-24817031D02*
X353515Y-24836079D01*
X353515Y-24836079D02*
X363039Y-24874174D01*
X363039Y-24874174D02*
X363039Y-24921793D01*
X363039Y-24921793D02*
X353515Y-24959888D01*
X353515Y-24959888D02*
X343991Y-24978936D01*
X343991Y-24978936D02*
X334467Y-24988460D01*
X334467Y-24988460D02*
X315420Y-24997984D01*
X315420Y-24997984D02*
X296372Y-24997984D01*
X296372Y-24997984D02*
X277324Y-24988460D01*
X277324Y-24988460D02*
X267801Y-24978936D01*
X267801Y-24978936D02*
X258277Y-24959888D01*
X258277Y-24959888D02*
X248753Y-24921793D01*
X248753Y-24921793D02*
X248753Y-24874174D01*
X248753Y-24874174D02*
X258277Y-24836079D01*
X258277Y-24836079D02*
X267801Y-24817031D01*
X267801Y-24817031D02*
X277324Y-24807508D01*
X277324Y-24807508D02*
X296372Y-24797984D01*
X448753Y-24978936D02*
X458277Y-24988460D01*
X458277Y-24988460D02*
X448753Y-24997984D01*
X448753Y-24997984D02*
X439229Y-24988460D01*
X439229Y-24988460D02*
X448753Y-24978936D01*
X448753Y-24978936D02*
X448753Y-24997984D01*
X524944Y-24797984D02*
X658277Y-24797984D01*
X658277Y-24797984D02*
X572563Y-24997984D01*
X829705Y-24797984D02*
X734467Y-24797984D01*
X734467Y-24797984D02*
X724943Y-24893222D01*
X724943Y-24893222D02*
X734467Y-24883698D01*
X734467Y-24883698D02*
X753515Y-24874174D01*
X753515Y-24874174D02*
X801134Y-24874174D01*
X801134Y-24874174D02*
X820182Y-24883698D01*
X820182Y-24883698D02*
X829705Y-24893222D01*
X829705Y-24893222D02*
X839229Y-24912269D01*
X839229Y-24912269D02*
X839229Y-24959888D01*
X839229Y-24959888D02*
X829705Y-24978936D01*
X829705Y-24978936D02*
X820182Y-24988460D01*
X820182Y-24988460D02*
X801134Y-24997984D01*
X801134Y-24997984D02*
X753515Y-24997984D01*
X753515Y-24997984D02*
X734467Y-24988460D01*
X734467Y-24988460D02*
X724943Y-24978936D01*
X963039Y-24797984D02*
X982086Y-24797984D01*
X982086Y-24797984D02*
X1001134Y-24807508D01*
X1001134Y-24807508D02*
X1010658Y-24817031D01*
X1010658Y-24817031D02*
X1020182Y-24836079D01*
X1020182Y-24836079D02*
X1029705Y-24874174D01*
X1029705Y-24874174D02*
X1029705Y-24921793D01*
X1029705Y-24921793D02*
X1020182Y-24959888D01*
X1020182Y-24959888D02*
X1010658Y-24978936D01*
X1010658Y-24978936D02*
X1001134Y-24988460D01*
X1001134Y-24988460D02*
X982086Y-24997984D01*
X982086Y-24997984D02*
X963039Y-24997984D01*
X963039Y-24997984D02*
X943991Y-24988460D01*
X943991Y-24988460D02*
X934467Y-24978936D01*
X934467Y-24978936D02*
X924943Y-24959888D01*
X924943Y-24959888D02*
X915420Y-24921793D01*
X915420Y-24921793D02*
X915420Y-24874174D01*
X915420Y-24874174D02*
X924943Y-24836079D01*
X924943Y-24836079D02*
X934467Y-24817031D01*
X934467Y-24817031D02*
X943991Y-24807508D01*
X943991Y-24807508D02*
X963039Y-24797984D01*
X1115420Y-24997984D02*
X1115420Y-24864650D01*
X1115420Y-24883698D02*
X1124944Y-24874174D01*
X1124944Y-24874174D02*
X1143991Y-24864650D01*
X1143991Y-24864650D02*
X1172563Y-24864650D01*
X1172563Y-24864650D02*
X1191610Y-24874174D01*
X1191610Y-24874174D02*
X1201134Y-24893222D01*
X1201134Y-24893222D02*
X1201134Y-24997984D01*
X1201134Y-24893222D02*
X1210658Y-24874174D01*
X1210658Y-24874174D02*
X1229705Y-24864650D01*
X1229705Y-24864650D02*
X1258277Y-24864650D01*
X1258277Y-24864650D02*
X1277325Y-24874174D01*
X1277325Y-24874174D02*
X1286848Y-24893222D01*
X1286848Y-24893222D02*
X1286848Y-24997984D01*
X1382086Y-24997984D02*
X1382086Y-24864650D01*
X1382086Y-24883698D02*
X1391610Y-24874174D01*
X1391610Y-24874174D02*
X1410658Y-24864650D01*
X1410658Y-24864650D02*
X1439229Y-24864650D01*
X1439229Y-24864650D02*
X1458277Y-24874174D01*
X1458277Y-24874174D02*
X1467801Y-24893222D01*
X1467801Y-24893222D02*
X1467801Y-24997984D01*
X1467801Y-24893222D02*
X1477324Y-24874174D01*
X1477324Y-24874174D02*
X1496372Y-24864650D01*
X1496372Y-24864650D02*
X1524943Y-24864650D01*
X1524943Y-24864650D02*
X1543991Y-24874174D01*
X1543991Y-24874174D02*
X1553515Y-24893222D01*
X1553515Y-24893222D02*
X1553515Y-24997984D01*
X1943991Y-24788460D02*
X1772563Y-25045603D01*
X2201134Y-24797984D02*
X2220182Y-24797984D01*
X2220182Y-24797984D02*
X2239229Y-24807508D01*
X2239229Y-24807508D02*
X2248753Y-24817031D01*
X2248753Y-24817031D02*
X2258277Y-24836079D01*
X2258277Y-24836079D02*
X2267801Y-24874174D01*
X2267801Y-24874174D02*
X2267801Y-24921793D01*
X2267801Y-24921793D02*
X2258277Y-24959888D01*
X2258277Y-24959888D02*
X2248753Y-24978936D01*
X2248753Y-24978936D02*
X2239229Y-24988460D01*
X2239229Y-24988460D02*
X2220182Y-24997984D01*
X2220182Y-24997984D02*
X2201134Y-24997984D01*
X2201134Y-24997984D02*
X2182087Y-24988460D01*
X2182087Y-24988460D02*
X2172563Y-24978936D01*
X2172563Y-24978936D02*
X2163039Y-24959888D01*
X2163039Y-24959888D02*
X2153515Y-24921793D01*
X2153515Y-24921793D02*
X2153515Y-24874174D01*
X2153515Y-24874174D02*
X2163039Y-24836079D01*
X2163039Y-24836079D02*
X2172563Y-24817031D01*
X2172563Y-24817031D02*
X2182087Y-24807508D01*
X2182087Y-24807508D02*
X2201134Y-24797984D01*
X2353515Y-24978936D02*
X2363039Y-24988460D01*
X2363039Y-24988460D02*
X2353515Y-24997984D01*
X2353515Y-24997984D02*
X2343991Y-24988460D01*
X2343991Y-24988460D02*
X2353515Y-24978936D01*
X2353515Y-24978936D02*
X2353515Y-24997984D01*
X2486848Y-24797984D02*
X2505896Y-24797984D01*
X2505896Y-24797984D02*
X2524944Y-24807508D01*
X2524944Y-24807508D02*
X2534468Y-24817031D01*
X2534468Y-24817031D02*
X2543991Y-24836079D01*
X2543991Y-24836079D02*
X2553515Y-24874174D01*
X2553515Y-24874174D02*
X2553515Y-24921793D01*
X2553515Y-24921793D02*
X2543991Y-24959888D01*
X2543991Y-24959888D02*
X2534468Y-24978936D01*
X2534468Y-24978936D02*
X2524944Y-24988460D01*
X2524944Y-24988460D02*
X2505896Y-24997984D01*
X2505896Y-24997984D02*
X2486848Y-24997984D01*
X2486848Y-24997984D02*
X2467801Y-24988460D01*
X2467801Y-24988460D02*
X2458277Y-24978936D01*
X2458277Y-24978936D02*
X2448753Y-24959888D01*
X2448753Y-24959888D02*
X2439229Y-24921793D01*
X2439229Y-24921793D02*
X2439229Y-24874174D01*
X2439229Y-24874174D02*
X2448753Y-24836079D01*
X2448753Y-24836079D02*
X2458277Y-24817031D01*
X2458277Y-24817031D02*
X2467801Y-24807508D01*
X2467801Y-24807508D02*
X2486848Y-24797984D01*
X2629706Y-24817031D02*
X2639229Y-24807508D01*
X2639229Y-24807508D02*
X2658277Y-24797984D01*
X2658277Y-24797984D02*
X2705896Y-24797984D01*
X2705896Y-24797984D02*
X2724944Y-24807508D01*
X2724944Y-24807508D02*
X2734468Y-24817031D01*
X2734468Y-24817031D02*
X2743991Y-24836079D01*
X2743991Y-24836079D02*
X2743991Y-24855127D01*
X2743991Y-24855127D02*
X2734468Y-24883698D01*
X2734468Y-24883698D02*
X2620182Y-24997984D01*
X2620182Y-24997984D02*
X2743991Y-24997984D01*
X2839229Y-24997984D02*
X2877325Y-24997984D01*
X2877325Y-24997984D02*
X2896372Y-24988460D01*
X2896372Y-24988460D02*
X2905896Y-24978936D01*
X2905896Y-24978936D02*
X2924944Y-24950365D01*
X2924944Y-24950365D02*
X2934467Y-24912269D01*
X2934467Y-24912269D02*
X2934467Y-24836079D01*
X2934467Y-24836079D02*
X2924944Y-24817031D01*
X2924944Y-24817031D02*
X2915420Y-24807508D01*
X2915420Y-24807508D02*
X2896372Y-24797984D01*
X2896372Y-24797984D02*
X2858277Y-24797984D01*
X2858277Y-24797984D02*
X2839229Y-24807508D01*
X2839229Y-24807508D02*
X2829706Y-24817031D01*
X2829706Y-24817031D02*
X2820182Y-24836079D01*
X2820182Y-24836079D02*
X2820182Y-24883698D01*
X2820182Y-24883698D02*
X2829706Y-24902746D01*
X2829706Y-24902746D02*
X2839229Y-24912269D01*
X2839229Y-24912269D02*
X2858277Y-24921793D01*
X2858277Y-24921793D02*
X2896372Y-24921793D01*
X2896372Y-24921793D02*
X2915420Y-24912269D01*
X2915420Y-24912269D02*
X2924944Y-24902746D01*
X2924944Y-24902746D02*
X2934467Y-24883698D01*
X3115420Y-24797984D02*
X3020182Y-24797984D01*
X3020182Y-24797984D02*
X3010658Y-24893222D01*
X3010658Y-24893222D02*
X3020182Y-24883698D01*
X3020182Y-24883698D02*
X3039229Y-24874174D01*
X3039229Y-24874174D02*
X3086848Y-24874174D01*
X3086848Y-24874174D02*
X3105896Y-24883698D01*
X3105896Y-24883698D02*
X3115420Y-24893222D01*
X3115420Y-24893222D02*
X3124944Y-24912269D01*
X3124944Y-24912269D02*
X3124944Y-24959888D01*
X3124944Y-24959888D02*
X3115420Y-24978936D01*
X3115420Y-24978936D02*
X3105896Y-24988460D01*
X3105896Y-24988460D02*
X3086848Y-24997984D01*
X3086848Y-24997984D02*
X3039229Y-24997984D01*
X3039229Y-24997984D02*
X3020182Y-24988460D01*
X3020182Y-24988460D02*
X3010658Y-24978936D01*
X3201134Y-24797984D02*
X3201134Y-24836079D01*
X3277325Y-24797984D02*
X3277325Y-24836079D01*
X3572563Y-25074174D02*
X3563039Y-25064650D01*
X3563039Y-25064650D02*
X3543991Y-25036079D01*
X3543991Y-25036079D02*
X3534468Y-25017031D01*
X3534468Y-25017031D02*
X3524944Y-24988460D01*
X3524944Y-24988460D02*
X3515420Y-24940841D01*
X3515420Y-24940841D02*
X3515420Y-24902746D01*
X3515420Y-24902746D02*
X3524944Y-24855127D01*
X3524944Y-24855127D02*
X3534468Y-24826555D01*
X3534468Y-24826555D02*
X3543991Y-24807508D01*
X3543991Y-24807508D02*
X3563039Y-24778936D01*
X3563039Y-24778936D02*
X3572563Y-24769412D01*
X3639229Y-24817031D02*
X3648753Y-24807508D01*
X3648753Y-24807508D02*
X3667801Y-24797984D01*
X3667801Y-24797984D02*
X3715420Y-24797984D01*
X3715420Y-24797984D02*
X3734468Y-24807508D01*
X3734468Y-24807508D02*
X3743991Y-24817031D01*
X3743991Y-24817031D02*
X3753515Y-24836079D01*
X3753515Y-24836079D02*
X3753515Y-24855127D01*
X3753515Y-24855127D02*
X3743991Y-24883698D01*
X3743991Y-24883698D02*
X3629706Y-24997984D01*
X3629706Y-24997984D02*
X3753515Y-24997984D01*
X3943991Y-24997984D02*
X3829706Y-24997984D01*
X3886848Y-24997984D02*
X3886848Y-24797984D01*
X3886848Y-24797984D02*
X3867801Y-24826555D01*
X3867801Y-24826555D02*
X3848753Y-24845603D01*
X3848753Y-24845603D02*
X3829706Y-24855127D01*
X4182087Y-24997984D02*
X4182087Y-24797984D01*
X4267801Y-24997984D02*
X4267801Y-24893222D01*
X4267801Y-24893222D02*
X4258277Y-24874174D01*
X4258277Y-24874174D02*
X4239230Y-24864650D01*
X4239230Y-24864650D02*
X4210658Y-24864650D01*
X4210658Y-24864650D02*
X4191610Y-24874174D01*
X4191610Y-24874174D02*
X4182087Y-24883698D01*
X4391611Y-24997984D02*
X4372563Y-24988460D01*
X4372563Y-24988460D02*
X4363039Y-24978936D01*
X4363039Y-24978936D02*
X4353515Y-24959888D01*
X4353515Y-24959888D02*
X4353515Y-24902746D01*
X4353515Y-24902746D02*
X4363039Y-24883698D01*
X4363039Y-24883698D02*
X4372563Y-24874174D01*
X4372563Y-24874174D02*
X4391611Y-24864650D01*
X4391611Y-24864650D02*
X4420182Y-24864650D01*
X4420182Y-24864650D02*
X4439230Y-24874174D01*
X4439230Y-24874174D02*
X4448753Y-24883698D01*
X4448753Y-24883698D02*
X4458277Y-24902746D01*
X4458277Y-24902746D02*
X4458277Y-24959888D01*
X4458277Y-24959888D02*
X4448753Y-24978936D01*
X4448753Y-24978936D02*
X4439230Y-24988460D01*
X4439230Y-24988460D02*
X4420182Y-24997984D01*
X4420182Y-24997984D02*
X4391611Y-24997984D01*
X4572563Y-24997984D02*
X4553515Y-24988460D01*
X4553515Y-24988460D02*
X4543992Y-24969412D01*
X4543992Y-24969412D02*
X4543992Y-24797984D01*
X4724944Y-24988460D02*
X4705896Y-24997984D01*
X4705896Y-24997984D02*
X4667801Y-24997984D01*
X4667801Y-24997984D02*
X4648753Y-24988460D01*
X4648753Y-24988460D02*
X4639230Y-24969412D01*
X4639230Y-24969412D02*
X4639230Y-24893222D01*
X4639230Y-24893222D02*
X4648753Y-24874174D01*
X4648753Y-24874174D02*
X4667801Y-24864650D01*
X4667801Y-24864650D02*
X4705896Y-24864650D01*
X4705896Y-24864650D02*
X4724944Y-24874174D01*
X4724944Y-24874174D02*
X4734468Y-24893222D01*
X4734468Y-24893222D02*
X4734468Y-24912269D01*
X4734468Y-24912269D02*
X4639230Y-24931317D01*
X4810658Y-24988460D02*
X4829706Y-24997984D01*
X4829706Y-24997984D02*
X4867801Y-24997984D01*
X4867801Y-24997984D02*
X4886849Y-24988460D01*
X4886849Y-24988460D02*
X4896373Y-24969412D01*
X4896373Y-24969412D02*
X4896373Y-24959888D01*
X4896373Y-24959888D02*
X4886849Y-24940841D01*
X4886849Y-24940841D02*
X4867801Y-24931317D01*
X4867801Y-24931317D02*
X4839230Y-24931317D01*
X4839230Y-24931317D02*
X4820182Y-24921793D01*
X4820182Y-24921793D02*
X4810658Y-24902746D01*
X4810658Y-24902746D02*
X4810658Y-24893222D01*
X4810658Y-24893222D02*
X4820182Y-24874174D01*
X4820182Y-24874174D02*
X4839230Y-24864650D01*
X4839230Y-24864650D02*
X4867801Y-24864650D01*
X4867801Y-24864650D02*
X4886849Y-24874174D01*
X4963039Y-25074174D02*
X4972563Y-25064650D01*
X4972563Y-25064650D02*
X4991611Y-25036079D01*
X4991611Y-25036079D02*
X5001134Y-25017031D01*
X5001134Y-25017031D02*
X5010658Y-24988460D01*
X5010658Y-24988460D02*
X5020182Y-24940841D01*
X5020182Y-24940841D02*
X5020182Y-24902746D01*
X5020182Y-24902746D02*
X5010658Y-24855127D01*
X5010658Y-24855127D02*
X5001134Y-24826555D01*
X5001134Y-24826555D02*
X4991611Y-24807508D01*
X4991611Y-24807508D02*
X4972563Y-24778936D01*
X4972563Y-24778936D02*
X4963039Y-24769412D01*
X-102500Y-25070500D02*
X-102500Y-25270500D01*
X-202500Y-25170500D02*
X-2500Y-25170500D01*
X239229Y-25061984D02*
X363039Y-25061984D01*
X363039Y-25061984D02*
X296372Y-25138174D01*
X296372Y-25138174D02*
X324944Y-25138174D01*
X324944Y-25138174D02*
X343991Y-25147698D01*
X343991Y-25147698D02*
X353515Y-25157222D01*
X353515Y-25157222D02*
X363039Y-25176269D01*
X363039Y-25176269D02*
X363039Y-25223888D01*
X363039Y-25223888D02*
X353515Y-25242936D01*
X353515Y-25242936D02*
X343991Y-25252460D01*
X343991Y-25252460D02*
X324944Y-25261984D01*
X324944Y-25261984D02*
X267801Y-25261984D01*
X267801Y-25261984D02*
X248753Y-25252460D01*
X248753Y-25252460D02*
X239229Y-25242936D01*
X448753Y-25242936D02*
X458277Y-25252460D01*
X458277Y-25252460D02*
X448753Y-25261984D01*
X448753Y-25261984D02*
X439229Y-25252460D01*
X439229Y-25252460D02*
X448753Y-25242936D01*
X448753Y-25242936D02*
X448753Y-25261984D01*
X534467Y-25081031D02*
X543991Y-25071508D01*
X543991Y-25071508D02*
X563039Y-25061984D01*
X563039Y-25061984D02*
X610658Y-25061984D01*
X610658Y-25061984D02*
X629705Y-25071508D01*
X629705Y-25071508D02*
X639229Y-25081031D01*
X639229Y-25081031D02*
X648753Y-25100079D01*
X648753Y-25100079D02*
X648753Y-25119127D01*
X648753Y-25119127D02*
X639229Y-25147698D01*
X639229Y-25147698D02*
X524944Y-25261984D01*
X524944Y-25261984D02*
X648753Y-25261984D01*
X772562Y-25061984D02*
X791610Y-25061984D01*
X791610Y-25061984D02*
X810658Y-25071508D01*
X810658Y-25071508D02*
X820182Y-25081031D01*
X820182Y-25081031D02*
X829705Y-25100079D01*
X829705Y-25100079D02*
X839229Y-25138174D01*
X839229Y-25138174D02*
X839229Y-25185793D01*
X839229Y-25185793D02*
X829705Y-25223888D01*
X829705Y-25223888D02*
X820182Y-25242936D01*
X820182Y-25242936D02*
X810658Y-25252460D01*
X810658Y-25252460D02*
X791610Y-25261984D01*
X791610Y-25261984D02*
X772562Y-25261984D01*
X772562Y-25261984D02*
X753515Y-25252460D01*
X753515Y-25252460D02*
X743991Y-25242936D01*
X743991Y-25242936D02*
X734467Y-25223888D01*
X734467Y-25223888D02*
X724943Y-25185793D01*
X724943Y-25185793D02*
X724943Y-25138174D01*
X724943Y-25138174D02*
X734467Y-25100079D01*
X734467Y-25100079D02*
X743991Y-25081031D01*
X743991Y-25081031D02*
X753515Y-25071508D01*
X753515Y-25071508D02*
X772562Y-25061984D01*
X963039Y-25061984D02*
X982086Y-25061984D01*
X982086Y-25061984D02*
X1001134Y-25071508D01*
X1001134Y-25071508D02*
X1010658Y-25081031D01*
X1010658Y-25081031D02*
X1020182Y-25100079D01*
X1020182Y-25100079D02*
X1029705Y-25138174D01*
X1029705Y-25138174D02*
X1029705Y-25185793D01*
X1029705Y-25185793D02*
X1020182Y-25223888D01*
X1020182Y-25223888D02*
X1010658Y-25242936D01*
X1010658Y-25242936D02*
X1001134Y-25252460D01*
X1001134Y-25252460D02*
X982086Y-25261984D01*
X982086Y-25261984D02*
X963039Y-25261984D01*
X963039Y-25261984D02*
X943991Y-25252460D01*
X943991Y-25252460D02*
X934467Y-25242936D01*
X934467Y-25242936D02*
X924943Y-25223888D01*
X924943Y-25223888D02*
X915420Y-25185793D01*
X915420Y-25185793D02*
X915420Y-25138174D01*
X915420Y-25138174D02*
X924943Y-25100079D01*
X924943Y-25100079D02*
X934467Y-25081031D01*
X934467Y-25081031D02*
X943991Y-25071508D01*
X943991Y-25071508D02*
X963039Y-25061984D01*
X1115420Y-25261984D02*
X1115420Y-25128650D01*
X1115420Y-25147698D02*
X1124944Y-25138174D01*
X1124944Y-25138174D02*
X1143991Y-25128650D01*
X1143991Y-25128650D02*
X1172563Y-25128650D01*
X1172563Y-25128650D02*
X1191610Y-25138174D01*
X1191610Y-25138174D02*
X1201134Y-25157222D01*
X1201134Y-25157222D02*
X1201134Y-25261984D01*
X1201134Y-25157222D02*
X1210658Y-25138174D01*
X1210658Y-25138174D02*
X1229705Y-25128650D01*
X1229705Y-25128650D02*
X1258277Y-25128650D01*
X1258277Y-25128650D02*
X1277325Y-25138174D01*
X1277325Y-25138174D02*
X1286848Y-25157222D01*
X1286848Y-25157222D02*
X1286848Y-25261984D01*
X1382086Y-25261984D02*
X1382086Y-25128650D01*
X1382086Y-25147698D02*
X1391610Y-25138174D01*
X1391610Y-25138174D02*
X1410658Y-25128650D01*
X1410658Y-25128650D02*
X1439229Y-25128650D01*
X1439229Y-25128650D02*
X1458277Y-25138174D01*
X1458277Y-25138174D02*
X1467801Y-25157222D01*
X1467801Y-25157222D02*
X1467801Y-25261984D01*
X1467801Y-25157222D02*
X1477324Y-25138174D01*
X1477324Y-25138174D02*
X1496372Y-25128650D01*
X1496372Y-25128650D02*
X1524943Y-25128650D01*
X1524943Y-25128650D02*
X1543991Y-25138174D01*
X1543991Y-25138174D02*
X1553515Y-25157222D01*
X1553515Y-25157222D02*
X1553515Y-25261984D01*
X1943991Y-25052460D02*
X1772563Y-25309603D01*
X2201134Y-25061984D02*
X2220182Y-25061984D01*
X2220182Y-25061984D02*
X2239229Y-25071508D01*
X2239229Y-25071508D02*
X2248753Y-25081031D01*
X2248753Y-25081031D02*
X2258277Y-25100079D01*
X2258277Y-25100079D02*
X2267801Y-25138174D01*
X2267801Y-25138174D02*
X2267801Y-25185793D01*
X2267801Y-25185793D02*
X2258277Y-25223888D01*
X2258277Y-25223888D02*
X2248753Y-25242936D01*
X2248753Y-25242936D02*
X2239229Y-25252460D01*
X2239229Y-25252460D02*
X2220182Y-25261984D01*
X2220182Y-25261984D02*
X2201134Y-25261984D01*
X2201134Y-25261984D02*
X2182087Y-25252460D01*
X2182087Y-25252460D02*
X2172563Y-25242936D01*
X2172563Y-25242936D02*
X2163039Y-25223888D01*
X2163039Y-25223888D02*
X2153515Y-25185793D01*
X2153515Y-25185793D02*
X2153515Y-25138174D01*
X2153515Y-25138174D02*
X2163039Y-25100079D01*
X2163039Y-25100079D02*
X2172563Y-25081031D01*
X2172563Y-25081031D02*
X2182087Y-25071508D01*
X2182087Y-25071508D02*
X2201134Y-25061984D01*
X2353515Y-25242936D02*
X2363039Y-25252460D01*
X2363039Y-25252460D02*
X2353515Y-25261984D01*
X2353515Y-25261984D02*
X2343991Y-25252460D01*
X2343991Y-25252460D02*
X2353515Y-25242936D01*
X2353515Y-25242936D02*
X2353515Y-25261984D01*
X2553515Y-25261984D02*
X2439229Y-25261984D01*
X2496372Y-25261984D02*
X2496372Y-25061984D01*
X2496372Y-25061984D02*
X2477325Y-25090555D01*
X2477325Y-25090555D02*
X2458277Y-25109603D01*
X2458277Y-25109603D02*
X2439229Y-25119127D01*
X2629706Y-25081031D02*
X2639229Y-25071508D01*
X2639229Y-25071508D02*
X2658277Y-25061984D01*
X2658277Y-25061984D02*
X2705896Y-25061984D01*
X2705896Y-25061984D02*
X2724944Y-25071508D01*
X2724944Y-25071508D02*
X2734468Y-25081031D01*
X2734468Y-25081031D02*
X2743991Y-25100079D01*
X2743991Y-25100079D02*
X2743991Y-25119127D01*
X2743991Y-25119127D02*
X2734468Y-25147698D01*
X2734468Y-25147698D02*
X2620182Y-25261984D01*
X2620182Y-25261984D02*
X2743991Y-25261984D01*
X2915420Y-25061984D02*
X2877325Y-25061984D01*
X2877325Y-25061984D02*
X2858277Y-25071508D01*
X2858277Y-25071508D02*
X2848753Y-25081031D01*
X2848753Y-25081031D02*
X2829706Y-25109603D01*
X2829706Y-25109603D02*
X2820182Y-25147698D01*
X2820182Y-25147698D02*
X2820182Y-25223888D01*
X2820182Y-25223888D02*
X2829706Y-25242936D01*
X2829706Y-25242936D02*
X2839229Y-25252460D01*
X2839229Y-25252460D02*
X2858277Y-25261984D01*
X2858277Y-25261984D02*
X2896372Y-25261984D01*
X2896372Y-25261984D02*
X2915420Y-25252460D01*
X2915420Y-25252460D02*
X2924944Y-25242936D01*
X2924944Y-25242936D02*
X2934467Y-25223888D01*
X2934467Y-25223888D02*
X2934467Y-25176269D01*
X2934467Y-25176269D02*
X2924944Y-25157222D01*
X2924944Y-25157222D02*
X2915420Y-25147698D01*
X2915420Y-25147698D02*
X2896372Y-25138174D01*
X2896372Y-25138174D02*
X2858277Y-25138174D01*
X2858277Y-25138174D02*
X2839229Y-25147698D01*
X2839229Y-25147698D02*
X2829706Y-25157222D01*
X2829706Y-25157222D02*
X2820182Y-25176269D01*
X3058277Y-25061984D02*
X3077325Y-25061984D01*
X3077325Y-25061984D02*
X3096372Y-25071508D01*
X3096372Y-25071508D02*
X3105896Y-25081031D01*
X3105896Y-25081031D02*
X3115420Y-25100079D01*
X3115420Y-25100079D02*
X3124944Y-25138174D01*
X3124944Y-25138174D02*
X3124944Y-25185793D01*
X3124944Y-25185793D02*
X3115420Y-25223888D01*
X3115420Y-25223888D02*
X3105896Y-25242936D01*
X3105896Y-25242936D02*
X3096372Y-25252460D01*
X3096372Y-25252460D02*
X3077325Y-25261984D01*
X3077325Y-25261984D02*
X3058277Y-25261984D01*
X3058277Y-25261984D02*
X3039229Y-25252460D01*
X3039229Y-25252460D02*
X3029706Y-25242936D01*
X3029706Y-25242936D02*
X3020182Y-25223888D01*
X3020182Y-25223888D02*
X3010658Y-25185793D01*
X3010658Y-25185793D02*
X3010658Y-25138174D01*
X3010658Y-25138174D02*
X3020182Y-25100079D01*
X3020182Y-25100079D02*
X3029706Y-25081031D01*
X3029706Y-25081031D02*
X3039229Y-25071508D01*
X3039229Y-25071508D02*
X3058277Y-25061984D01*
X3201134Y-25061984D02*
X3201134Y-25100079D01*
X3277325Y-25061984D02*
X3277325Y-25100079D01*
X3572563Y-25338174D02*
X3563039Y-25328650D01*
X3563039Y-25328650D02*
X3543991Y-25300079D01*
X3543991Y-25300079D02*
X3534468Y-25281031D01*
X3534468Y-25281031D02*
X3524944Y-25252460D01*
X3524944Y-25252460D02*
X3515420Y-25204841D01*
X3515420Y-25204841D02*
X3515420Y-25166746D01*
X3515420Y-25166746D02*
X3524944Y-25119127D01*
X3524944Y-25119127D02*
X3534468Y-25090555D01*
X3534468Y-25090555D02*
X3543991Y-25071508D01*
X3543991Y-25071508D02*
X3563039Y-25042936D01*
X3563039Y-25042936D02*
X3572563Y-25033412D01*
X3734468Y-25128650D02*
X3734468Y-25261984D01*
X3686848Y-25052460D02*
X3639229Y-25195317D01*
X3639229Y-25195317D02*
X3763039Y-25195317D01*
X3991610Y-25261984D02*
X3991610Y-25061984D01*
X4077325Y-25261984D02*
X4077325Y-25157222D01*
X4077325Y-25157222D02*
X4067801Y-25138174D01*
X4067801Y-25138174D02*
X4048753Y-25128650D01*
X4048753Y-25128650D02*
X4020182Y-25128650D01*
X4020182Y-25128650D02*
X4001134Y-25138174D01*
X4001134Y-25138174D02*
X3991610Y-25147698D01*
X4201134Y-25261984D02*
X4182087Y-25252460D01*
X4182087Y-25252460D02*
X4172563Y-25242936D01*
X4172563Y-25242936D02*
X4163039Y-25223888D01*
X4163039Y-25223888D02*
X4163039Y-25166746D01*
X4163039Y-25166746D02*
X4172563Y-25147698D01*
X4172563Y-25147698D02*
X4182087Y-25138174D01*
X4182087Y-25138174D02*
X4201134Y-25128650D01*
X4201134Y-25128650D02*
X4229706Y-25128650D01*
X4229706Y-25128650D02*
X4248753Y-25138174D01*
X4248753Y-25138174D02*
X4258277Y-25147698D01*
X4258277Y-25147698D02*
X4267801Y-25166746D01*
X4267801Y-25166746D02*
X4267801Y-25223888D01*
X4267801Y-25223888D02*
X4258277Y-25242936D01*
X4258277Y-25242936D02*
X4248753Y-25252460D01*
X4248753Y-25252460D02*
X4229706Y-25261984D01*
X4229706Y-25261984D02*
X4201134Y-25261984D01*
X4382087Y-25261984D02*
X4363039Y-25252460D01*
X4363039Y-25252460D02*
X4353515Y-25233412D01*
X4353515Y-25233412D02*
X4353515Y-25061984D01*
X4534468Y-25252460D02*
X4515420Y-25261984D01*
X4515420Y-25261984D02*
X4477325Y-25261984D01*
X4477325Y-25261984D02*
X4458277Y-25252460D01*
X4458277Y-25252460D02*
X4448753Y-25233412D01*
X4448753Y-25233412D02*
X4448753Y-25157222D01*
X4448753Y-25157222D02*
X4458277Y-25138174D01*
X4458277Y-25138174D02*
X4477325Y-25128650D01*
X4477325Y-25128650D02*
X4515420Y-25128650D01*
X4515420Y-25128650D02*
X4534468Y-25138174D01*
X4534468Y-25138174D02*
X4543992Y-25157222D01*
X4543992Y-25157222D02*
X4543992Y-25176269D01*
X4543992Y-25176269D02*
X4448753Y-25195317D01*
X4620182Y-25252460D02*
X4639230Y-25261984D01*
X4639230Y-25261984D02*
X4677325Y-25261984D01*
X4677325Y-25261984D02*
X4696373Y-25252460D01*
X4696373Y-25252460D02*
X4705896Y-25233412D01*
X4705896Y-25233412D02*
X4705896Y-25223888D01*
X4705896Y-25223888D02*
X4696373Y-25204841D01*
X4696373Y-25204841D02*
X4677325Y-25195317D01*
X4677325Y-25195317D02*
X4648753Y-25195317D01*
X4648753Y-25195317D02*
X4629706Y-25185793D01*
X4629706Y-25185793D02*
X4620182Y-25166746D01*
X4620182Y-25166746D02*
X4620182Y-25157222D01*
X4620182Y-25157222D02*
X4629706Y-25138174D01*
X4629706Y-25138174D02*
X4648753Y-25128650D01*
X4648753Y-25128650D02*
X4677325Y-25128650D01*
X4677325Y-25128650D02*
X4696373Y-25138174D01*
X4772563Y-25338174D02*
X4782087Y-25328650D01*
X4782087Y-25328650D02*
X4801134Y-25300079D01*
X4801134Y-25300079D02*
X4810658Y-25281031D01*
X4810658Y-25281031D02*
X4820182Y-25252460D01*
X4820182Y-25252460D02*
X4829706Y-25204841D01*
X4829706Y-25204841D02*
X4829706Y-25166746D01*
X4829706Y-25166746D02*
X4820182Y-25119127D01*
X4820182Y-25119127D02*
X4810658Y-25090555D01*
X4810658Y-25090555D02*
X4801134Y-25071508D01*
X4801134Y-25071508D02*
X4782087Y-25042936D01*
X4782087Y-25042936D02*
X4772563Y-25033412D01*
M02*
