%TF.GenerationSoftware,KiCad,Pcbnew,8.0.5*%
%TF.CreationDate,2024-10-14T18:31:50-05:00*%
%TF.ProjectId,morg_grad_cap,6d6f7267-5f67-4726-9164-5f6361702e6b,rev?*%
%TF.SameCoordinates,Original*%
%TF.FileFunction,Drillmap*%
%TF.FilePolarity,Positive*%
%FSLAX45Y45*%
G04 Gerber Fmt 4.5, Leading zero omitted, Abs format (unit mm)*
G04 Created by KiCad (PCBNEW 8.0.5) date 2024-10-14 18:31:50*
%MOMM*%
%LPD*%
G01*
G04 APERTURE LIST*
%ADD10C,0.050000*%
%ADD11C,0.100000*%
%ADD12C,0.200000*%
G04 APERTURE END LIST*
D10*
X0Y0D02*
X24000000Y0D01*
X24000000Y-24000000D01*
X0Y-24000000D01*
X0Y0D01*
D11*
X13100000Y-12000000D02*
G75*
G02*
X10900000Y-12000000I-1100000J0D01*
G01*
X10900000Y-12000000D02*
G75*
G02*
X13100000Y-12000000I1100000J0D01*
G01*
D12*
X258277Y-24313984D02*
X258277Y-24113984D01*
X258277Y-24113984D02*
X305896Y-24113984D01*
X305896Y-24113984D02*
X334467Y-24123508D01*
X334467Y-24123508D02*
X353515Y-24142555D01*
X353515Y-24142555D02*
X363039Y-24161603D01*
X363039Y-24161603D02*
X372562Y-24199698D01*
X372562Y-24199698D02*
X372562Y-24228269D01*
X372562Y-24228269D02*
X363039Y-24266365D01*
X363039Y-24266365D02*
X353515Y-24285412D01*
X353515Y-24285412D02*
X334467Y-24304460D01*
X334467Y-24304460D02*
X305896Y-24313984D01*
X305896Y-24313984D02*
X258277Y-24313984D01*
X458277Y-24313984D02*
X458277Y-24180650D01*
X458277Y-24218746D02*
X467801Y-24199698D01*
X467801Y-24199698D02*
X477324Y-24190174D01*
X477324Y-24190174D02*
X496372Y-24180650D01*
X496372Y-24180650D02*
X515420Y-24180650D01*
X582086Y-24313984D02*
X582086Y-24180650D01*
X582086Y-24113984D02*
X572563Y-24123508D01*
X572563Y-24123508D02*
X582086Y-24133031D01*
X582086Y-24133031D02*
X591610Y-24123508D01*
X591610Y-24123508D02*
X582086Y-24113984D01*
X582086Y-24113984D02*
X582086Y-24133031D01*
X705896Y-24313984D02*
X686848Y-24304460D01*
X686848Y-24304460D02*
X677324Y-24285412D01*
X677324Y-24285412D02*
X677324Y-24113984D01*
X810658Y-24313984D02*
X791610Y-24304460D01*
X791610Y-24304460D02*
X782086Y-24285412D01*
X782086Y-24285412D02*
X782086Y-24113984D01*
X1039229Y-24313984D02*
X1039229Y-24113984D01*
X1039229Y-24113984D02*
X1105896Y-24256841D01*
X1105896Y-24256841D02*
X1172563Y-24113984D01*
X1172563Y-24113984D02*
X1172563Y-24313984D01*
X1353515Y-24313984D02*
X1353515Y-24209222D01*
X1353515Y-24209222D02*
X1343991Y-24190174D01*
X1343991Y-24190174D02*
X1324944Y-24180650D01*
X1324944Y-24180650D02*
X1286848Y-24180650D01*
X1286848Y-24180650D02*
X1267801Y-24190174D01*
X1353515Y-24304460D02*
X1334467Y-24313984D01*
X1334467Y-24313984D02*
X1286848Y-24313984D01*
X1286848Y-24313984D02*
X1267801Y-24304460D01*
X1267801Y-24304460D02*
X1258277Y-24285412D01*
X1258277Y-24285412D02*
X1258277Y-24266365D01*
X1258277Y-24266365D02*
X1267801Y-24247317D01*
X1267801Y-24247317D02*
X1286848Y-24237793D01*
X1286848Y-24237793D02*
X1334467Y-24237793D01*
X1334467Y-24237793D02*
X1353515Y-24228269D01*
X1448753Y-24180650D02*
X1448753Y-24380650D01*
X1448753Y-24190174D02*
X1467801Y-24180650D01*
X1467801Y-24180650D02*
X1505896Y-24180650D01*
X1505896Y-24180650D02*
X1524943Y-24190174D01*
X1524943Y-24190174D02*
X1534467Y-24199698D01*
X1534467Y-24199698D02*
X1543991Y-24218746D01*
X1543991Y-24218746D02*
X1543991Y-24275888D01*
X1543991Y-24275888D02*
X1534467Y-24294936D01*
X1534467Y-24294936D02*
X1524943Y-24304460D01*
X1524943Y-24304460D02*
X1505896Y-24313984D01*
X1505896Y-24313984D02*
X1467801Y-24313984D01*
X1467801Y-24313984D02*
X1448753Y-24304460D01*
X1629705Y-24294936D02*
X1639229Y-24304460D01*
X1639229Y-24304460D02*
X1629705Y-24313984D01*
X1629705Y-24313984D02*
X1620182Y-24304460D01*
X1620182Y-24304460D02*
X1629705Y-24294936D01*
X1629705Y-24294936D02*
X1629705Y-24313984D01*
X1629705Y-24190174D02*
X1639229Y-24199698D01*
X1639229Y-24199698D02*
X1629705Y-24209222D01*
X1629705Y-24209222D02*
X1620182Y-24199698D01*
X1620182Y-24199698D02*
X1629705Y-24190174D01*
X1629705Y-24190174D02*
X1629705Y-24209222D01*
M02*
