M48
; DRILL file {KiCad 8.0.5} date 2024-10-14T18:31:51-0500
; FORMAT={-:-/ absolute / metric / decimal}
; #@! TF.CreationDate,2024-10-14T18:31:51-05:00
; #@! TF.GenerationSoftware,Kicad,Pcbnew,8.0.5
; #@! TF.FileFunction,Plated,1,2,PTH
FMAT,2
METRIC
; #@! TA.AperFunction,Plated,PTH,ViaDrill
T1C0.600
; #@! TA.AperFunction,Plated,PTH,ComponentDrill
T2C0.750
; #@! TA.AperFunction,Plated,PTH,ComponentDrill
T3C3.200
%
G90
G05
T1
X4.87Y-33.565
X4.87Y-68.141
X4.87Y-137.28
X4.87Y-171.85
X4.87Y-206.425
X4.87Y-102.715
X11.19Y-171.846
X11.36Y-102.726
X11.42Y-68.14
X11.42Y-206.425
X11.43Y-33.56
X11.49Y-137.286
X15.42Y-93.632
X15.445Y-75.29
X18.867Y-201.91
X18.87Y-72.73
X18.872Y-141.9
X18.872Y-176.44
X18.873Y-29.06
X19.597Y-98.199
X21.174Y-206.429
X21.184Y-33.569
X21.184Y-68.149
X21.184Y-102.719
X21.185Y-171.843
X21.186Y-137.285
X22.63Y-16.28
X28.675Y-223.711
X28.676Y-189.13
X28.681Y-154.56
X28.685Y-50.861
X28.685Y-85.431
X28.685Y-120.001
X28.98Y-16.3
X30.268Y-124.571
X30.56Y-90.02
X30.57Y-95.23
X30.57Y-144.92
X30.58Y-182.53
X30.58Y-198.6
X30.79Y-46.34
X30.87Y-20.85
X30.87Y-25.85
X30.88Y-40.26
X30.96Y-219.19
X30.976Y-150.05
X30.982Y-193.74
X33.57Y-231.48
X33.575Y-4.8
X34.41Y-210.25
X34.48Y-127.901
X34.55Y-146.448
X36.865Y-197.04
X38.35Y-16.285
X38.41Y-50.861
X38.49Y-154.55
X38.5Y-223.71
X38.55Y-85.43
X38.56Y-120.0
X38.68Y-189.11
X45.76Y-171.85
X45.93Y-102.73
X45.99Y-68.144
X45.99Y-206.429
X46.0Y-33.564
X46.06Y-137.29
X49.992Y-75.29
X50.08Y-93.632
X53.443Y-201.91
X53.445Y-72.73
X53.447Y-141.9
X53.447Y-176.44
X53.448Y-29.06
X54.168Y-98.205
X55.745Y-206.433
X55.755Y-33.573
X55.755Y-68.153
X55.755Y-102.723
X55.756Y-171.848
X55.756Y-137.289
X63.246Y-223.715
X63.246Y-189.135
X63.251Y-154.564
X63.256Y-85.435
X63.256Y-16.305
X63.256Y-50.865
X63.256Y-120.005
X64.838Y-124.575
X65.135Y-90.02
X65.145Y-95.23
X65.145Y-144.92
X65.155Y-182.53
X65.155Y-198.6
X65.365Y-46.34
X65.445Y-20.85
X65.445Y-25.85
X65.455Y-40.26
X65.536Y-219.19
X65.552Y-150.05
X65.558Y-193.74
X68.145Y-231.48
X68.15Y-4.8
X68.985Y-210.25
X69.05Y-127.901
X69.07Y-146.44
X71.445Y-197.04
X72.92Y-16.289
X72.98Y-50.865
X73.06Y-154.554
X73.07Y-223.714
X73.12Y-85.434
X73.13Y-120.004
X73.25Y-189.114
X80.33Y-171.85
X80.5Y-102.73
X80.56Y-68.144
X80.56Y-206.429
X80.57Y-33.564
X80.63Y-137.29
X84.561Y-75.29
X84.71Y-93.632
X88.012Y-201.91
X88.015Y-72.73
X88.017Y-141.9
X88.017Y-176.44
X88.017Y-29.06
X88.737Y-98.205
X90.315Y-206.433
X90.325Y-33.573
X90.325Y-68.153
X90.325Y-102.723
X90.325Y-171.848
X90.326Y-137.289
X97.816Y-189.135
X97.821Y-154.564
X97.821Y-223.71
X97.826Y-16.305
X97.826Y-50.865
X97.826Y-85.435
X97.826Y-120.005
X99.408Y-124.575
X99.705Y-90.02
X99.715Y-95.23
X99.715Y-144.92
X99.725Y-182.53
X99.725Y-198.6
X99.935Y-46.34
X100.015Y-20.85
X100.015Y-25.85
X100.025Y-40.26
X100.105Y-219.19
X100.122Y-150.05
X100.127Y-193.74
X102.715Y-231.48
X102.72Y-4.8
X103.555Y-210.25
X103.619Y-127.901
X103.64Y-146.448
X106.01Y-197.04
X107.55Y-50.865
X107.63Y-154.554
X107.64Y-223.714
X107.69Y-85.434
X107.82Y-189.114
X114.899Y-171.85
X115.069Y-102.73
X115.13Y-68.144
X115.13Y-206.429
X115.14Y-33.564
X115.199Y-137.29
X116.04Y-6.11
X116.04Y-8.11
X116.51Y-16.31
X117.05Y-4.31
X118.04Y-6.11
X118.04Y-8.11
X119.131Y-75.29
X119.138Y-93.652
X122.582Y-201.91
X122.584Y-72.73
X122.587Y-141.9
X122.587Y-176.44
X123.12Y-16.3
X123.83Y-5.4
X124.884Y-206.433
X124.894Y-33.573
X124.894Y-68.153
X124.894Y-102.723
X124.895Y-171.848
X124.895Y-137.289
X124.91Y-98.2
X125.22Y-29.04
X128.65Y-200.91
X131.87Y-193.73
X132.07Y-99.04
X132.385Y-189.134
X132.39Y-154.564
X132.39Y-223.71
X132.395Y-50.865
X132.395Y-85.435
X133.665Y-99.09
X134.275Y-90.02
X134.28Y-95.23
X134.28Y-144.92
X134.29Y-182.53
X134.29Y-198.6
X134.3Y-200.79
X134.505Y-46.34
X134.58Y-19.86
X134.59Y-40.26
X134.675Y-219.19
X134.691Y-150.05
X135.26Y-99.09
X135.5Y-25.85
X136.422Y-126.49
X136.76Y-17.08
X137.28Y-231.48
X137.285Y-4.8
X138.125Y-209.38
X138.189Y-127.901
X139.64Y-199.8
X139.725Y-97.307
X140.76Y-146.448
X141.23Y-197.01
X142.06Y-16.289
X142.12Y-50.865
X142.2Y-154.554
X142.21Y-223.714
X142.26Y-85.434
X142.27Y-120.004
X142.39Y-189.114
X145.02Y-198.66
X147.193Y-206.423
X147.99Y-137.29
X149.469Y-171.85
X149.51Y-146.448
X149.521Y-132.79
X149.533Y-197.074
X149.533Y-201.92
X149.639Y-102.73
X149.699Y-68.144
X149.709Y-33.564
X153.64Y-93.632
X153.701Y-75.29
X155.432Y-130.89
X155.442Y-95.755
X157.152Y-201.91
X157.154Y-72.73
X157.156Y-141.86
X157.156Y-176.44
X157.157Y-29.06
X159.454Y-206.433
X159.464Y-33.573
X159.464Y-68.153
X159.464Y-102.723
X159.465Y-171.848
X159.465Y-137.289
X166.955Y-223.715
X166.955Y-189.134
X166.96Y-154.564
X166.965Y-16.305
X166.965Y-50.865
X166.965Y-85.435
X166.965Y-120.005
X168.547Y-124.575
X168.695Y-201.05
X168.844Y-90.02
X168.854Y-95.23
X168.854Y-144.92
X168.864Y-182.53
X169.074Y-46.34
X169.154Y-20.85
X169.154Y-25.85
X169.164Y-40.26
X169.245Y-219.19
X169.261Y-150.05
X169.267Y-193.74
X170.32Y-197.01
X170.48Y-146.448
X171.854Y-231.48
X171.859Y-4.8
X172.694Y-210.25
X172.759Y-127.901
X176.629Y-16.289
X176.689Y-50.865
X176.769Y-154.554
X176.779Y-223.714
X176.829Y-85.434
X176.839Y-120.004
X176.959Y-189.114
X181.763Y-206.429
X182.56Y-137.296
X184.039Y-171.856
X184.08Y-146.448
X184.09Y-132.79
X184.103Y-197.074
X184.103Y-201.92
X184.209Y-102.736
X184.27Y-68.15
X184.28Y-33.57
X188.27Y-75.29
X188.41Y-93.632
X190.008Y-130.89
X190.011Y-95.755
X191.727Y-201.91
X191.729Y-72.73
X191.732Y-141.86
X191.732Y-176.44
X191.732Y-29.06
X194.023Y-206.433
X194.033Y-33.573
X194.033Y-68.153
X194.033Y-102.723
X194.034Y-171.848
X194.035Y-137.289
X201.525Y-223.721
X201.525Y-189.14
X201.53Y-154.57
X201.535Y-16.311
X201.535Y-50.871
X201.535Y-85.441
X201.535Y-120.011
X203.118Y-124.581
X203.27Y-201.05
X203.42Y-90.02
X203.43Y-95.23
X203.43Y-144.92
X203.44Y-182.53
X203.65Y-46.34
X203.73Y-20.85
X203.73Y-25.85
X203.74Y-40.26
X203.82Y-219.19
X203.836Y-150.05
X203.842Y-193.74
X204.9Y-197.01
X205.01Y-146.448
X205.54Y-219.18
X206.43Y-231.48
X206.435Y-4.8
X207.27Y-210.25
X207.328Y-127.901
X211.2Y-16.295
X211.26Y-50.871
X211.34Y-154.56
X211.35Y-223.72
X211.4Y-85.44
X211.41Y-120.01
X211.53Y-189.12
X216.56Y-206.42
X216.74Y-137.29
X218.54Y-195.37
X218.64Y-197.044
X218.64Y-201.89
X218.65Y-93.64
X218.65Y-146.448
X218.66Y-132.79
X218.836Y-171.847
X218.847Y-33.58
X218.856Y-68.167
X220.69Y-198.29
X221.64Y-199.235
X222.59Y-200.18
X222.84Y-75.29
X223.02Y-22.18
X223.357Y-96.078
X224.577Y-130.89
X225.56Y-193.39
X226.299Y-72.73
X226.301Y-141.86
X226.301Y-176.44
X226.51Y-194.335
X227.46Y-195.28
X228.594Y-206.439
X228.604Y-102.729
X228.604Y-33.579
X228.604Y-68.159
X228.605Y-171.853
X228.605Y-137.295
X231.34Y-87.78
X231.34Y-89.085
X231.34Y-90.39
X235.19Y-33.57
X235.19Y-68.146
X235.19Y-137.285
X235.19Y-171.855
X235.19Y-206.43
X235.19Y-102.72
T2
X84.1Y-3.3
X84.1Y-5.3
X92.66Y-6.75
X94.66Y-6.75
X96.66Y-6.75
X98.66Y-6.75
X100.66Y-6.75
X140.65Y-6.79
X142.65Y-6.79
X144.65Y-6.79
X146.65Y-6.79
X148.65Y-6.79
X150.65Y-6.79
X160.65Y-6.79
X162.65Y-6.79
X164.65Y-6.79
X166.65Y-6.79
X168.65Y-6.79
X170.65Y-6.79
X214.21Y-235.52
X214.21Y-237.52
T3
X10.0Y-10.0
X10.0Y-230.0
X230.0Y-10.0
X230.0Y-230.0
M30
