G04 #@! TF.GenerationSoftware,KiCad,Pcbnew,8.0.5*
G04 #@! TF.CreationDate,2024-10-14T18:30:02-05:00*
G04 #@! TF.ProjectId,morg_grad_cap,6d6f7267-5f67-4726-9164-5f6361702e6b,rev?*
G04 #@! TF.SameCoordinates,Original*
G04 #@! TF.FileFunction,Copper,L2,Bot*
G04 #@! TF.FilePolarity,Positive*
%FSLAX46Y46*%
G04 Gerber Fmt 4.6, Leading zero omitted, Abs format (unit mm)*
G04 Created by KiCad (PCBNEW 8.0.5) date 2024-10-14 18:30:02*
%MOMM*%
%LPD*%
G01*
G04 APERTURE LIST*
G04 Aperture macros list*
%AMRoundRect*
0 Rectangle with rounded corners*
0 $1 Rounding radius*
0 $2 $3 $4 $5 $6 $7 $8 $9 X,Y pos of 4 corners*
0 Add a 4 corners polygon primitive as box body*
4,1,4,$2,$3,$4,$5,$6,$7,$8,$9,$2,$3,0*
0 Add four circle primitives for the rounded corners*
1,1,$1+$1,$2,$3*
1,1,$1+$1,$4,$5*
1,1,$1+$1,$6,$7*
1,1,$1+$1,$8,$9*
0 Add four rect primitives between the rounded corners*
20,1,$1+$1,$2,$3,$4,$5,0*
20,1,$1+$1,$4,$5,$6,$7,0*
20,1,$1+$1,$6,$7,$8,$9,0*
20,1,$1+$1,$8,$9,$2,$3,0*%
G04 Aperture macros list end*
G04 #@! TA.AperFunction,ComponentPad*
%ADD10O,1.750000X1.200000*%
G04 #@! TD*
G04 #@! TA.AperFunction,ComponentPad*
%ADD11RoundRect,0.250000X0.625000X-0.350000X0.625000X0.350000X-0.625000X0.350000X-0.625000X-0.350000X0*%
G04 #@! TD*
G04 #@! TA.AperFunction,ComponentPad*
%ADD12C,6.400000*%
G04 #@! TD*
G04 #@! TA.AperFunction,ComponentPad*
%ADD13O,1.200000X1.750000*%
G04 #@! TD*
G04 #@! TA.AperFunction,ComponentPad*
%ADD14RoundRect,0.250000X-0.350000X-0.625000X0.350000X-0.625000X0.350000X0.625000X-0.350000X0.625000X0*%
G04 #@! TD*
G04 #@! TA.AperFunction,SMDPad,CuDef*
%ADD15O,3.556000X1.778000*%
G04 #@! TD*
G04 #@! TA.AperFunction,ViaPad*
%ADD16C,1.200000*%
G04 #@! TD*
G04 #@! TA.AperFunction,Conductor*
%ADD17C,1.000000*%
G04 #@! TD*
G04 #@! TA.AperFunction,Conductor*
%ADD18C,0.800000*%
G04 #@! TD*
G04 #@! TA.AperFunction,Conductor*
%ADD19C,0.500000*%
G04 #@! TD*
G04 APERTURE END LIST*
D10*
X214210001Y-235520000D03*
D11*
X214210001Y-237520000D03*
D12*
X230000000Y-10000000D03*
X230000000Y-230000000D03*
X10000000Y-10000000D03*
X10000000Y-230000000D03*
D13*
X150650000Y-6790000D03*
X148650003Y-6789999D03*
X146650002Y-6790000D03*
X144650001Y-6789999D03*
X142650001Y-6789999D03*
D14*
X140650001Y-6789999D03*
X160649999Y-6789999D03*
D13*
X162649999Y-6789999D03*
X164649999Y-6789999D03*
X166650000Y-6790000D03*
X168650001Y-6789999D03*
X170649998Y-6790000D03*
D15*
X129539999Y-3459998D03*
X129539999Y-6000002D03*
X129539999Y-8539999D03*
X129540002Y-11080002D03*
X129539999Y-13620000D03*
X129540001Y-16160004D03*
X129540002Y-18700002D03*
X111760000Y-18700000D03*
X111760000Y-16159999D03*
X111759999Y-13620001D03*
X111759998Y-11080001D03*
X111759993Y-8540000D03*
X111759999Y-6000001D03*
X111760000Y-3460001D03*
D11*
X84100000Y-5300000D03*
D10*
X84100000Y-3300000D03*
D14*
X92660000Y-6750000D03*
D13*
X94660000Y-6750000D03*
X96660000Y-6750000D03*
X98660001Y-6750001D03*
X100660002Y-6750000D03*
D16*
X149532842Y-201920000D03*
X149532842Y-197074124D03*
X184102842Y-201920000D03*
X184102842Y-197074124D03*
X218640000Y-201890000D03*
X137284842Y-4800001D03*
X171859338Y-4800000D03*
X33575168Y-4800000D03*
X102720012Y-4800001D03*
X68150338Y-4800000D03*
X206434837Y-4800001D03*
X235190001Y-102720338D03*
X235190000Y-68145843D03*
X235190000Y-206430013D03*
X235190000Y-137285168D03*
X235190000Y-171854843D03*
X235190000Y-33570343D03*
X4870001Y-102715150D03*
X4870000Y-68140655D03*
X4870000Y-206424825D03*
X4870000Y-137279980D03*
X4870000Y-171849655D03*
X4870000Y-33565155D03*
X137279675Y-231480001D03*
X171854171Y-231480000D03*
X33570001Y-231480000D03*
X102714845Y-231480001D03*
X68145171Y-231480000D03*
X206429670Y-231480001D03*
X134289674Y-198600001D03*
X168694501Y-201049999D03*
X30580000Y-198600000D03*
X99724844Y-198600001D03*
X65155170Y-198600000D03*
X203270000Y-201050000D03*
X134289674Y-182530001D03*
X168864170Y-182530000D03*
X30580000Y-182530000D03*
X99724844Y-182530001D03*
X65155170Y-182530000D03*
X203439669Y-182530001D03*
X134279674Y-144920001D03*
X30570000Y-144920000D03*
X203429669Y-144920001D03*
X65145170Y-144920000D03*
X168854170Y-144920000D03*
X99714844Y-144920001D03*
X134279674Y-95230001D03*
X30570000Y-95230000D03*
X203429669Y-95230001D03*
X65145170Y-95230000D03*
X168854170Y-95230000D03*
X99714844Y-95230001D03*
X134589674Y-40260001D03*
X100024844Y-40260001D03*
X65455170Y-40260000D03*
X169164170Y-40260000D03*
X30880000Y-40260000D03*
X203739669Y-40260001D03*
X65445170Y-25850000D03*
X100014844Y-25850001D03*
X203729669Y-25850001D03*
X30870000Y-25850000D03*
X169154170Y-25850000D03*
X65445170Y-20850000D03*
X100014844Y-20850001D03*
X203729669Y-20850001D03*
X30870000Y-20850000D03*
X134580000Y-19860000D03*
X169154170Y-20850000D03*
X223020000Y-22180000D03*
X53447677Y-29060003D03*
X88017351Y-29060004D03*
X191732176Y-29060004D03*
X18872507Y-29060003D03*
X125220000Y-29040000D03*
X157156677Y-29060003D03*
X65365170Y-46340000D03*
X99934844Y-46340001D03*
X203649669Y-46340001D03*
X30790000Y-46340000D03*
X134504506Y-46339999D03*
X169074170Y-46340000D03*
X226298992Y-72730004D03*
X53444841Y-72730004D03*
X88014515Y-72730005D03*
X191729340Y-72730005D03*
X18869671Y-72730004D03*
X122584177Y-72730003D03*
X157153841Y-72730004D03*
X65135170Y-90020000D03*
X99704844Y-90020001D03*
X203419667Y-90020001D03*
X30560000Y-90020000D03*
X134274506Y-90020000D03*
X168844170Y-90020000D03*
X139725255Y-97306912D03*
X223356932Y-96077641D03*
X155441575Y-95754745D03*
X190011276Y-95754745D03*
X88737487Y-98205317D03*
X124910000Y-98200000D03*
X54167791Y-98205244D03*
X19597454Y-98199405D03*
X30268078Y-124570588D03*
X99408167Y-124574811D03*
X64838414Y-124574759D03*
X168547406Y-124574756D03*
X203117741Y-124580595D03*
X224577329Y-130890000D03*
X190007677Y-130890001D03*
X155432178Y-130890000D03*
X226301492Y-141860000D03*
X53447341Y-141900003D03*
X88017015Y-141900004D03*
X191731840Y-141860001D03*
X18872171Y-141900003D03*
X122586677Y-141900002D03*
X157156341Y-141860000D03*
X169260982Y-150049995D03*
X134691308Y-150049994D03*
X30976483Y-150049994D03*
X203836152Y-150049995D03*
X100121646Y-150049996D03*
X65551982Y-150049995D03*
X226301492Y-176440003D03*
X191731840Y-176440004D03*
X18872171Y-176440003D03*
X53447341Y-176440003D03*
X157156341Y-176440003D03*
X122586677Y-176440002D03*
X88017015Y-176440004D03*
X30982337Y-193739996D03*
X203842007Y-193739998D03*
X169266836Y-193739997D03*
X65557836Y-193739996D03*
X100127500Y-193739997D03*
X131870000Y-193730000D03*
X191727008Y-201910004D03*
X18867339Y-201910003D03*
X53442509Y-201910003D03*
X157151509Y-201910003D03*
X122581845Y-201910002D03*
X88012183Y-201910004D03*
X30960330Y-219189998D03*
X65535829Y-219189998D03*
X100105493Y-219189999D03*
X134675154Y-219189997D03*
X169244829Y-219189999D03*
X203820000Y-219190000D03*
X218540000Y-195370000D03*
X145020000Y-198660000D03*
X139640000Y-199800000D03*
X134300000Y-200790000D03*
X176779328Y-223713823D03*
X73070336Y-223713826D03*
X142209630Y-223713748D03*
X38500000Y-223709655D03*
X211349663Y-223719662D03*
X107640089Y-223713878D03*
X147192807Y-206423156D03*
X45990336Y-206428996D03*
X115129630Y-206428918D03*
X11420000Y-206424825D03*
X181763142Y-206428995D03*
X80560089Y-206429048D03*
X216560000Y-206420000D03*
X218836185Y-171846841D03*
X216740000Y-137290000D03*
X218856185Y-68166841D03*
X218847033Y-33579528D03*
X38350000Y-16285168D03*
X142059630Y-16289261D03*
X72920336Y-16289339D03*
X211199663Y-16295175D03*
X176629328Y-16289336D03*
X80570089Y-33564223D03*
X11430000Y-33560000D03*
X115139630Y-33564093D03*
X46000336Y-33564171D03*
X184279663Y-33570007D03*
X149709328Y-33564168D03*
X107550089Y-50864902D03*
X38410000Y-50860679D03*
X142119630Y-50864772D03*
X72980336Y-50864850D03*
X211259663Y-50870686D03*
X176689328Y-50864847D03*
X80560089Y-68144223D03*
X11420000Y-68140000D03*
X115129630Y-68144093D03*
X45990336Y-68144171D03*
X184269663Y-68150007D03*
X149699328Y-68144168D03*
X107690089Y-85434223D03*
X38550000Y-85430000D03*
X142259630Y-85434093D03*
X73120336Y-85434171D03*
X211399663Y-85440007D03*
X176829328Y-85434168D03*
X80499753Y-102730052D03*
X11359664Y-102725829D03*
X115069294Y-102729922D03*
X45930000Y-102730000D03*
X184209327Y-102735836D03*
X149638992Y-102729997D03*
X38560000Y-120000000D03*
X142269630Y-120004093D03*
X73130336Y-120004171D03*
X211409663Y-120010007D03*
X176839328Y-120004168D03*
X80629753Y-137290052D03*
X11489664Y-137285829D03*
X115199294Y-137289922D03*
X46060000Y-137290000D03*
X182560000Y-137295836D03*
X147990000Y-137289997D03*
X107630089Y-154554223D03*
X38490000Y-154550000D03*
X142199630Y-154554093D03*
X73060336Y-154554171D03*
X211339663Y-154560007D03*
X176769328Y-154554168D03*
X80329753Y-171850052D03*
X11189664Y-171845829D03*
X114899294Y-171849922D03*
X45760000Y-171850000D03*
X184039327Y-171855836D03*
X149468992Y-171849997D03*
X107820089Y-189114223D03*
X38680000Y-189110000D03*
X142389630Y-189114093D03*
X73250336Y-189114171D03*
X211529663Y-189120007D03*
X176959328Y-189114168D03*
X204900000Y-197010000D03*
X170320000Y-197010000D03*
X36864837Y-197039999D03*
X34410000Y-210250000D03*
X71444837Y-197039999D03*
X106010000Y-197040000D03*
X149520651Y-132790000D03*
X184090300Y-132790000D03*
X184080300Y-146447954D03*
X218660000Y-132790000D03*
X205010000Y-146447954D03*
X34550000Y-146447954D03*
X69070000Y-146440000D03*
X103640000Y-146447954D03*
X140760000Y-146447954D03*
X170480000Y-146447954D03*
X207328359Y-127900745D03*
X172758659Y-127900668D03*
X138189010Y-127900664D03*
X103619324Y-127900675D03*
X69049666Y-127900668D03*
X34479998Y-127900665D03*
X207269670Y-210250002D03*
X172694499Y-210250001D03*
X103555163Y-210250001D03*
X68985499Y-210250000D03*
X141230000Y-197010000D03*
X138124824Y-209379999D03*
X218650000Y-93640000D03*
X188410000Y-93632315D03*
X153640000Y-93632315D03*
X119137514Y-93652486D03*
X84710000Y-93632315D03*
X50080000Y-93632315D03*
X15420000Y-93632315D03*
X15445000Y-75290001D03*
X49991670Y-75290000D03*
X84561357Y-75290000D03*
X119131007Y-75290001D03*
X153700706Y-75290000D03*
X188270252Y-75290003D03*
X222840000Y-75290000D03*
X135260000Y-99090000D03*
X133665000Y-99090000D03*
X132070000Y-99040000D03*
X231340000Y-90390000D03*
X231340000Y-89085000D03*
X231340000Y-87780000D03*
X117050000Y-4310000D03*
X123830000Y-5400000D03*
X128650000Y-200910000D03*
X225560000Y-193390000D03*
X226510000Y-194335000D03*
X227460000Y-195280000D03*
X222590000Y-200180000D03*
X221640000Y-199235000D03*
X220690000Y-198290000D03*
X123120000Y-16300000D03*
X116510000Y-16310000D03*
X22630000Y-16280000D03*
X132390329Y-223709994D03*
X97820667Y-223710009D03*
X116040000Y-6110002D03*
X118040000Y-6110000D03*
X118040001Y-8109999D03*
X116040000Y-8109999D03*
X218640000Y-197044124D03*
X149510000Y-146447954D03*
X218650000Y-146447954D03*
X28675500Y-223711006D03*
X63245838Y-223715178D03*
X201525166Y-223721014D03*
X166954829Y-223715177D03*
X132385467Y-189134423D03*
X97815926Y-189134553D03*
X28675837Y-189130330D03*
X21174500Y-206428996D03*
X63246173Y-189134501D03*
X124884128Y-206433086D03*
X194023478Y-206433166D03*
X228593825Y-206439010D03*
X90314585Y-206433217D03*
X201525500Y-189140337D03*
X166955165Y-189134498D03*
X159453830Y-206433163D03*
X55744836Y-206433164D03*
X132390172Y-154564345D03*
X97820631Y-154564475D03*
X28680542Y-154560252D03*
X21185171Y-171843476D03*
X63250878Y-154564423D03*
X124894805Y-171847566D03*
X194034149Y-171847646D03*
X228604500Y-171853491D03*
X90325257Y-171847696D03*
X201530205Y-154570259D03*
X166959870Y-154564420D03*
X159464503Y-171847641D03*
X55755509Y-171847643D03*
X28685500Y-120001006D03*
X21185811Y-137285036D03*
X124895439Y-137289126D03*
X194034789Y-137289206D03*
X228605136Y-137295050D03*
X90325896Y-137289257D03*
X201535166Y-120011014D03*
X166964829Y-120005177D03*
X159465141Y-137289203D03*
X55756147Y-137289204D03*
X132395130Y-85435099D03*
X97825587Y-85435228D03*
X28685500Y-85431006D03*
X21184500Y-102718996D03*
X63255837Y-85435178D03*
X124894128Y-102723086D03*
X194033478Y-102723166D03*
X228603825Y-102729010D03*
X90324585Y-102723217D03*
X201535166Y-85441014D03*
X166964829Y-85435177D03*
X159463830Y-102723163D03*
X55754836Y-102723164D03*
X132395130Y-50865099D03*
X97825587Y-50865228D03*
X28685500Y-50861006D03*
X21184500Y-68148996D03*
X63255838Y-50865178D03*
X124894128Y-68153086D03*
X194033478Y-68153166D03*
X228603826Y-68159010D03*
X90324585Y-68153217D03*
X201535166Y-50871014D03*
X166964829Y-50865177D03*
X159463830Y-68153163D03*
X55754836Y-68153164D03*
X228603826Y-33579010D03*
X194033478Y-33573166D03*
X159463830Y-33573163D03*
X124894128Y-33573086D03*
X90324585Y-33573217D03*
X55754836Y-33573164D03*
X21184500Y-33568996D03*
X28980000Y-16300000D03*
X63255838Y-16305178D03*
X97825587Y-16305228D03*
X136760000Y-17080000D03*
X201535166Y-16311014D03*
X166964829Y-16305177D03*
X63255838Y-120005178D03*
X97825587Y-120005228D03*
X205539670Y-219180002D03*
X136422346Y-126490000D03*
X135500000Y-25849999D03*
D17*
X132120000Y-99090000D02*
X132070000Y-99040000D01*
X135260000Y-99090000D02*
X132120000Y-99090000D01*
X149532842Y-197074124D02*
X149532842Y-201920000D01*
X184102842Y-197074124D02*
X184102842Y-201920000D01*
X218640000Y-197044124D02*
X218640000Y-201890000D01*
D18*
X22630000Y-20700000D02*
X22630000Y-16280000D01*
X24840000Y-22910000D02*
X22630000Y-20700000D01*
X117120000Y-22910000D02*
X24840000Y-22910000D01*
X119910000Y-20120000D02*
X117120000Y-22910000D01*
X126020001Y-8539999D02*
X119910000Y-14650000D01*
X129539999Y-8539999D02*
X126020001Y-8539999D01*
X119910000Y-14650000D02*
X119910000Y-20120000D01*
D17*
X204895501Y-207875501D02*
X204895501Y-197009999D01*
X207270000Y-210250000D02*
X204895501Y-207875501D01*
X170320000Y-207875502D02*
X170320000Y-197010000D01*
X172694499Y-210250001D02*
X170320000Y-207875502D01*
X34410000Y-210250000D02*
X36864837Y-207795163D01*
X36864837Y-207795163D02*
X36864837Y-197039999D01*
X68990000Y-210250000D02*
X71444837Y-207795163D01*
X71444837Y-207795163D02*
X71444837Y-197039999D01*
X106010000Y-207795164D02*
X106010000Y-197040000D01*
X103555163Y-210250001D02*
X106010000Y-207795164D01*
X205000000Y-130229104D02*
X207328359Y-127900745D01*
X205000000Y-146437954D02*
X205000000Y-130229104D01*
X205010000Y-146447954D02*
X205000000Y-146437954D01*
X140750000Y-130461654D02*
X138189010Y-127900664D01*
X140750000Y-146437954D02*
X140750000Y-130461654D01*
X140760000Y-146447954D02*
X140750000Y-146437954D01*
X170480000Y-130179327D02*
X172758659Y-127900668D01*
X170480000Y-146447954D02*
X170480000Y-130179327D01*
X149510651Y-146447954D02*
X149510651Y-132800000D01*
X184080300Y-146447954D02*
X184080300Y-132800000D01*
X218650000Y-132800000D02*
X218660000Y-132790000D01*
X218650000Y-146447954D02*
X218650000Y-132800000D01*
X34479998Y-127900665D02*
X34479998Y-146377952D01*
X34479998Y-146377952D02*
X34550000Y-146447954D01*
X69049666Y-146419666D02*
X69070000Y-146440000D01*
X69049666Y-127900668D02*
X69049666Y-146419666D01*
X103619324Y-146427278D02*
X103640000Y-146447954D01*
X103619324Y-127900675D02*
X103619324Y-146427278D01*
X141230000Y-200500000D02*
X141230000Y-197010000D01*
X138124824Y-203605176D02*
X141230000Y-200500000D01*
X138124824Y-209379999D02*
X138124824Y-203605176D01*
X222840000Y-89450000D02*
X218650000Y-93640000D01*
X222840000Y-75290000D02*
X222840000Y-89450000D01*
X188270252Y-93492567D02*
X188410000Y-93632315D01*
X188270252Y-75290003D02*
X188270252Y-93492567D01*
X153700706Y-93571609D02*
X153640000Y-93632315D01*
X153700706Y-75290000D02*
X153700706Y-93571609D01*
X119131007Y-93645979D02*
X119137514Y-93652486D01*
X119131007Y-75290001D02*
X119131007Y-93645979D01*
X15445000Y-93607315D02*
X15420000Y-93632315D01*
X15445000Y-75290001D02*
X15445000Y-93607315D01*
X84710000Y-75438643D02*
X84710000Y-93632315D01*
X84561357Y-75290000D02*
X84710000Y-75438643D01*
X49991670Y-75290000D02*
X49991670Y-93543985D01*
X49991670Y-93543985D02*
X50080000Y-93632315D01*
X228950000Y-89085000D02*
X226935000Y-89085000D01*
X226935000Y-89085000D02*
X216930000Y-99090000D01*
X216930000Y-99090000D02*
X135260000Y-99090000D01*
X230035000Y-89085000D02*
X231340000Y-90390000D01*
X228950000Y-89085000D02*
X230035000Y-89085000D01*
X230035000Y-89085000D02*
X231340000Y-87780000D01*
X231340000Y-89085000D02*
X228950000Y-89085000D01*
X231340000Y-90390000D02*
X231340000Y-87780000D01*
X231350000Y-89050000D02*
X231350000Y-90380000D01*
X231350000Y-90380000D02*
X231360000Y-90390000D01*
D18*
X93479999Y-3460001D02*
X111760000Y-3460001D01*
X92660000Y-4280000D02*
X93479999Y-3460001D01*
X92660000Y-6750000D02*
X92660000Y-4280000D01*
D19*
X94660000Y-13119996D02*
X95670000Y-14129996D01*
X94660000Y-6750000D02*
X94660000Y-13119996D01*
X106339999Y-14129994D02*
X95670000Y-14129996D01*
X96660000Y-11910000D02*
X97400000Y-12650000D01*
X96660000Y-6750000D02*
X96660000Y-11910000D01*
X107269999Y-12650001D02*
X97400000Y-12650000D01*
X98660001Y-10340003D02*
X99400000Y-11080002D01*
X98660001Y-6750001D02*
X98660001Y-10340003D01*
X111760001Y-11080000D02*
X99400000Y-11080002D01*
D17*
X221245000Y-198755000D02*
X225860000Y-194140000D01*
X221155000Y-198755000D02*
X221245000Y-198755000D01*
X221155000Y-198755000D02*
X220690000Y-198290000D01*
X222580000Y-200180000D02*
X221155000Y-198755000D01*
X226950000Y-194780000D02*
X226950000Y-195000000D01*
X226950000Y-194780000D02*
X225560000Y-193390000D01*
X226950000Y-195000000D02*
X222490000Y-199460000D01*
X227450000Y-195280000D02*
X226950000Y-194780000D01*
X227460000Y-195310000D02*
X227460000Y-195280000D01*
X222590000Y-200180000D02*
X227460000Y-195310000D01*
X221640000Y-199205000D02*
X226510000Y-194335000D01*
X221640000Y-199235000D02*
X221640000Y-199205000D01*
X220690000Y-198260000D02*
X225560000Y-193390000D01*
X220690000Y-198290000D02*
X220690000Y-198260000D01*
X222590000Y-200180000D02*
X222580000Y-200180000D01*
D18*
X134020000Y-1960000D02*
X133330000Y-1270000D01*
X137349999Y-1960000D02*
X134020000Y-1960000D01*
X140650000Y-5260001D02*
X137349999Y-1960000D01*
X122260000Y-1890000D02*
X118040000Y-6110000D01*
X126520000Y-1890000D02*
X122260000Y-1890000D01*
X133330000Y-1270000D02*
X127140000Y-1270000D01*
X127140000Y-1270000D02*
X126520000Y-1890000D01*
D19*
X123120000Y-19970000D02*
X123120000Y-16300000D01*
X116500000Y-16320000D02*
X116510000Y-16310000D01*
X116500000Y-18120000D02*
X116500000Y-16320000D01*
X116500000Y-18120000D02*
X115920000Y-18700000D01*
X115920000Y-18700000D02*
X111760000Y-18700000D01*
X154600000Y-20840000D02*
X168650000Y-6789996D01*
X124130000Y-20980000D02*
X154460000Y-20980000D01*
X154460000Y-20980000D02*
X154600000Y-20840000D01*
X123120000Y-19970000D02*
X124130000Y-20980000D01*
X108240001Y-13620000D02*
X107269999Y-12650001D01*
X111759999Y-13620001D02*
X108240001Y-13620000D01*
X108369999Y-16159999D02*
X106339999Y-14129994D01*
X111760007Y-16160000D02*
X108369999Y-16159999D01*
X154740000Y-18700002D02*
X129540002Y-18700000D01*
X166649999Y-6790001D02*
X154740000Y-18700002D01*
X133029998Y-16160002D02*
X129540002Y-16160002D01*
X134179999Y-15010001D02*
X133029998Y-16160002D01*
X156430000Y-15010000D02*
X134179999Y-15010001D01*
X164649996Y-6789997D02*
X156430000Y-15010000D01*
X155820005Y-13619999D02*
X129539999Y-13619997D01*
X162649999Y-6789999D02*
X155820005Y-13619999D01*
D18*
X144639999Y-1269999D02*
X147310003Y-1269998D01*
X140650000Y-5260001D02*
X144639999Y-1269999D01*
X140650001Y-6789999D02*
X140650000Y-5260001D01*
X155130003Y-1269998D02*
X147310003Y-1269998D01*
X160649999Y-6789999D02*
X155130003Y-1269998D01*
X113389997Y-3459998D02*
X116040000Y-6110002D01*
X111760002Y-3460000D02*
X113389997Y-3459998D01*
D19*
X138380001Y-8870001D02*
X132969996Y-3460006D01*
X132969996Y-3460006D02*
X129540002Y-3459999D01*
X142009997Y-8869996D02*
X138380001Y-8870001D01*
X142649999Y-8229999D02*
X142009997Y-8869996D01*
X142649996Y-6789999D02*
X142649999Y-8229999D01*
X132949999Y-6000003D02*
X129540002Y-6000000D01*
X143770000Y-9620000D02*
X136570001Y-9619998D01*
X144650000Y-8740001D02*
X143770000Y-9620000D01*
X136570001Y-9619998D02*
X132949999Y-6000003D01*
X144650000Y-6789996D02*
X144650000Y-8740001D01*
X145040001Y-10380000D02*
X134789999Y-10380001D01*
X134789999Y-10380001D02*
X132950002Y-8540000D01*
X146649999Y-8769999D02*
X145040001Y-10380000D01*
X132950002Y-8540000D02*
X129540000Y-8540000D01*
X146650001Y-6789998D02*
X146649999Y-8769999D01*
X129600002Y-11139999D02*
X129540002Y-11080001D01*
X148649999Y-8740003D02*
X146250002Y-11139999D01*
X146250002Y-11139999D02*
X129600002Y-11139999D01*
X148650003Y-6789998D02*
X148649999Y-8740003D01*
D17*
X116040000Y-6110002D02*
X116040001Y-7219999D01*
X118040001Y-8109999D02*
X116040000Y-6110002D01*
X118040001Y-8109999D02*
X118040000Y-6110000D01*
X116040000Y-8109999D02*
X116040000Y-6110002D01*
X111790003Y-3489999D02*
X111760002Y-3460000D01*
X118040000Y-6110000D02*
X116040000Y-8109999D01*
X116040000Y-6110002D02*
X118040000Y-6110000D01*
X118040001Y-8109999D02*
X116040000Y-8109999D01*
G04 #@! TA.AperFunction,Conductor*
G36*
X126403678Y-520185D02*
G01*
X126449433Y-572989D01*
X126459377Y-642147D01*
X126430352Y-705703D01*
X126424320Y-712181D01*
X126183319Y-953181D01*
X126121996Y-986666D01*
X126095638Y-989500D01*
X122171303Y-989500D01*
X121997341Y-1024103D01*
X121997329Y-1024106D01*
X121915392Y-1058045D01*
X121915393Y-1058046D01*
X121833455Y-1091985D01*
X121685965Y-1190535D01*
X121685964Y-1190537D01*
X117877822Y-4998676D01*
X117816499Y-5032161D01*
X117812928Y-5032883D01*
X117737548Y-5046974D01*
X117737538Y-5046977D01*
X117597761Y-5101127D01*
X117552968Y-5109500D01*
X116527028Y-5109500D01*
X116482235Y-5101127D01*
X116342461Y-5046979D01*
X116342450Y-5046976D01*
X116267069Y-5032884D01*
X116204788Y-5001215D01*
X116202175Y-4998677D01*
X113964038Y-2760538D01*
X113964034Y-2760535D01*
X113964033Y-2760534D01*
X113930829Y-2738348D01*
X113930827Y-2738346D01*
X113822709Y-2666104D01*
X113816543Y-2661984D01*
X113816541Y-2661983D01*
X113806192Y-2657696D01*
X113753330Y-2616021D01*
X113737406Y-2594104D01*
X113708852Y-2554802D01*
X113554199Y-2400149D01*
X113554193Y-2400143D01*
X113377260Y-2271596D01*
X113377259Y-2271595D01*
X113377257Y-2271594D01*
X113289904Y-2227085D01*
X113182383Y-2172299D01*
X113182380Y-2172298D01*
X112974376Y-2104715D01*
X112758361Y-2070501D01*
X112758356Y-2070501D01*
X110761644Y-2070501D01*
X110761639Y-2070501D01*
X110545623Y-2104715D01*
X110337619Y-2172298D01*
X110337616Y-2172299D01*
X110142739Y-2271596D01*
X109965806Y-2400143D01*
X109965802Y-2400147D01*
X109842768Y-2523182D01*
X109781445Y-2556667D01*
X109755087Y-2559501D01*
X93391303Y-2559501D01*
X93217338Y-2594104D01*
X93217322Y-2594109D01*
X93101452Y-2642103D01*
X93101453Y-2642104D01*
X93053453Y-2661987D01*
X92939172Y-2738348D01*
X92939171Y-2738348D01*
X92905968Y-2760533D01*
X92905960Y-2760539D01*
X91960533Y-3705966D01*
X91949379Y-3722662D01*
X91949378Y-3722664D01*
X91861989Y-3853448D01*
X91848278Y-3886550D01*
X91794105Y-4017333D01*
X91794103Y-4017341D01*
X91760106Y-4188253D01*
X91760107Y-4188254D01*
X91759500Y-4191306D01*
X91759500Y-5562770D01*
X91739815Y-5629809D01*
X91723181Y-5650451D01*
X91717289Y-5656342D01*
X91625187Y-5805663D01*
X91625185Y-5805668D01*
X91611931Y-5845667D01*
X91570001Y-5972203D01*
X91570001Y-5972204D01*
X91570000Y-5972204D01*
X91559500Y-6074983D01*
X91559500Y-7425001D01*
X91559501Y-7425018D01*
X91570000Y-7527796D01*
X91570001Y-7527799D01*
X91625185Y-7694331D01*
X91625187Y-7694336D01*
X91648870Y-7732732D01*
X91717288Y-7843656D01*
X91841344Y-7967712D01*
X91990666Y-8059814D01*
X92157203Y-8114999D01*
X92259991Y-8125500D01*
X93060008Y-8125499D01*
X93060016Y-8125498D01*
X93060019Y-8125498D01*
X93121848Y-8119182D01*
X93162797Y-8114999D01*
X93329334Y-8059814D01*
X93478656Y-7967712D01*
X93602712Y-7843656D01*
X93642310Y-7779456D01*
X93694258Y-7732732D01*
X93763220Y-7721509D01*
X93827303Y-7749352D01*
X93835530Y-7756872D01*
X93873181Y-7794523D01*
X93906666Y-7855846D01*
X93909500Y-7882204D01*
X93909500Y-13193914D01*
X93909500Y-13193916D01*
X93909499Y-13193916D01*
X93938340Y-13338903D01*
X93938343Y-13338913D01*
X93994914Y-13475488D01*
X93994915Y-13475490D01*
X93994916Y-13475491D01*
X94018400Y-13510638D01*
X94018404Y-13510643D01*
X94018405Y-13510646D01*
X94077046Y-13598410D01*
X94077052Y-13598417D01*
X95191584Y-14712948D01*
X95191586Y-14712950D01*
X95221058Y-14732641D01*
X95265268Y-14762180D01*
X95265270Y-14762183D01*
X95265271Y-14762183D01*
X95314496Y-14795075D01*
X95314503Y-14795079D01*
X95314504Y-14795079D01*
X95314505Y-14795080D01*
X95346682Y-14808408D01*
X95451088Y-14851655D01*
X95554894Y-14872303D01*
X95584111Y-14878114D01*
X95595849Y-14881676D01*
X95608062Y-14882879D01*
X95617859Y-14884827D01*
X95626098Y-14881329D01*
X95640450Y-14880496D01*
X95795274Y-14880496D01*
X95795277Y-14880494D01*
X105977768Y-14880494D01*
X106044807Y-14900179D01*
X106065449Y-14916813D01*
X107199271Y-16050637D01*
X107787047Y-16638414D01*
X107787048Y-16638415D01*
X107842012Y-16693379D01*
X107891584Y-16742951D01*
X108014497Y-16825079D01*
X108014510Y-16825086D01*
X108148360Y-16880528D01*
X108151086Y-16881657D01*
X108151090Y-16881657D01*
X108151091Y-16881658D01*
X108296078Y-16910499D01*
X108296081Y-16910499D01*
X109635572Y-16910499D01*
X109702611Y-16930184D01*
X109735888Y-16961611D01*
X109803433Y-17054579D01*
X109811148Y-17065198D01*
X109965806Y-17219856D01*
X110116969Y-17329681D01*
X110159635Y-17385010D01*
X110165614Y-17454624D01*
X110133009Y-17516419D01*
X110116969Y-17530317D01*
X109965807Y-17640142D01*
X109965802Y-17640146D01*
X109811142Y-17794806D01*
X109682595Y-17971739D01*
X109583298Y-18166616D01*
X109583297Y-18166619D01*
X109515714Y-18374623D01*
X109481500Y-18590638D01*
X109481500Y-18809361D01*
X109515714Y-19025376D01*
X109583297Y-19233380D01*
X109583298Y-19233383D01*
X109650404Y-19365083D01*
X109679477Y-19422142D01*
X109682595Y-19428260D01*
X109811142Y-19605193D01*
X109965806Y-19759857D01*
X110131374Y-19880147D01*
X110142743Y-19888407D01*
X110270132Y-19953315D01*
X110337616Y-19987701D01*
X110337619Y-19987702D01*
X110441621Y-20021493D01*
X110545625Y-20055286D01*
X110645672Y-20071132D01*
X110761639Y-20089500D01*
X110761644Y-20089500D01*
X112758361Y-20089500D01*
X112863082Y-20072912D01*
X112974375Y-20055286D01*
X113182383Y-19987701D01*
X113377257Y-19888407D01*
X113476601Y-19816229D01*
X113554193Y-19759857D01*
X113554195Y-19759854D01*
X113554199Y-19759852D01*
X113708852Y-19605199D01*
X113784111Y-19501613D01*
X113839439Y-19458949D01*
X113884428Y-19450500D01*
X115993920Y-19450500D01*
X116105738Y-19428257D01*
X116138913Y-19421658D01*
X116275495Y-19365084D01*
X116324729Y-19332186D01*
X116398416Y-19282952D01*
X117082952Y-18598416D01*
X117132186Y-18524729D01*
X117165084Y-18475495D01*
X117221658Y-18338913D01*
X117250500Y-18193918D01*
X117250500Y-17178854D01*
X117270185Y-17111815D01*
X117290962Y-17087216D01*
X117326764Y-17054579D01*
X117449673Y-16891821D01*
X117540582Y-16709250D01*
X117596397Y-16513083D01*
X117615215Y-16310000D01*
X117596397Y-16106917D01*
X117540582Y-15910750D01*
X117536298Y-15902147D01*
X117465767Y-15760500D01*
X117449673Y-15728179D01*
X117326764Y-15565421D01*
X117326762Y-15565418D01*
X117176041Y-15428019D01*
X117176039Y-15428017D01*
X117002642Y-15320655D01*
X117002635Y-15320651D01*
X116832678Y-15254810D01*
X116812456Y-15246976D01*
X116611976Y-15209500D01*
X116408024Y-15209500D01*
X116207544Y-15246976D01*
X116207541Y-15246976D01*
X116207541Y-15246977D01*
X116017364Y-15320651D01*
X116017357Y-15320655D01*
X115843960Y-15428017D01*
X115843958Y-15428019D01*
X115693237Y-15565418D01*
X115570327Y-15728178D01*
X115479422Y-15910739D01*
X115479417Y-15910752D01*
X115423602Y-16106917D01*
X115404785Y-16309999D01*
X115404785Y-16310000D01*
X115423602Y-16513082D01*
X115479417Y-16709247D01*
X115479422Y-16709260D01*
X115555389Y-16861821D01*
X115570327Y-16891821D01*
X115693236Y-17054579D01*
X115709036Y-17068983D01*
X115745319Y-17128692D01*
X115749500Y-17160621D01*
X115749500Y-17757770D01*
X115729815Y-17824809D01*
X115713181Y-17845451D01*
X115645451Y-17913181D01*
X115584128Y-17946666D01*
X115557770Y-17949500D01*
X113884428Y-17949500D01*
X113817389Y-17929815D01*
X113784111Y-17898387D01*
X113708852Y-17794801D01*
X113554199Y-17640148D01*
X113554197Y-17640146D01*
X113554192Y-17640142D01*
X113403030Y-17530317D01*
X113360364Y-17474988D01*
X113354385Y-17405374D01*
X113386990Y-17343579D01*
X113403023Y-17329685D01*
X113554199Y-17219851D01*
X113708852Y-17065198D01*
X113708854Y-17065194D01*
X113708857Y-17065192D01*
X113784107Y-16961618D01*
X113837407Y-16888256D01*
X113936701Y-16693382D01*
X114004286Y-16485374D01*
X114021912Y-16374081D01*
X114038500Y-16269360D01*
X114038500Y-16050637D01*
X114016341Y-15910739D01*
X114004286Y-15834624D01*
X113959953Y-15698178D01*
X113936702Y-15626618D01*
X113936701Y-15626615D01*
X113890233Y-15535418D01*
X113837407Y-15431742D01*
X113794860Y-15373180D01*
X113708857Y-15254805D01*
X113554193Y-15100141D01*
X113403031Y-14990317D01*
X113360365Y-14934988D01*
X113354386Y-14865374D01*
X113386991Y-14803579D01*
X113403026Y-14789684D01*
X113537755Y-14691799D01*
X113554194Y-14679856D01*
X113554194Y-14679855D01*
X113554198Y-14679853D01*
X113708851Y-14525200D01*
X113708855Y-14525195D01*
X113708856Y-14525194D01*
X113784109Y-14421615D01*
X113837406Y-14348258D01*
X113936700Y-14153384D01*
X114004285Y-13945376D01*
X114021911Y-13834083D01*
X114038499Y-13729362D01*
X114038499Y-13510639D01*
X114014609Y-13359810D01*
X114004285Y-13294626D01*
X113936700Y-13086619D01*
X113936700Y-13086617D01*
X113902314Y-13019133D01*
X113837406Y-12891744D01*
X113821245Y-12869500D01*
X113708856Y-12714807D01*
X113554196Y-12560147D01*
X113554191Y-12560143D01*
X113403029Y-12450318D01*
X113360363Y-12394989D01*
X113354384Y-12325375D01*
X113386989Y-12263580D01*
X113403020Y-12249688D01*
X113554197Y-12139853D01*
X113708850Y-11985200D01*
X113708854Y-11985195D01*
X113708855Y-11985194D01*
X113765227Y-11907602D01*
X113837405Y-11808258D01*
X113936699Y-11613384D01*
X114004284Y-11405376D01*
X114021910Y-11294083D01*
X114038498Y-11189362D01*
X114038498Y-10970639D01*
X114017581Y-10838583D01*
X114004284Y-10754626D01*
X113936699Y-10546619D01*
X113936699Y-10546617D01*
X113849085Y-10374668D01*
X113837405Y-10351744D01*
X113784108Y-10278386D01*
X113708855Y-10174807D01*
X113554195Y-10020147D01*
X113554190Y-10020143D01*
X113403025Y-9910316D01*
X113360359Y-9854987D01*
X113354380Y-9785373D01*
X113386985Y-9723578D01*
X113403020Y-9709683D01*
X113554185Y-9599857D01*
X113554188Y-9599855D01*
X113554188Y-9599854D01*
X113554192Y-9599852D01*
X113708845Y-9445199D01*
X113708849Y-9445194D01*
X113708850Y-9445193D01*
X113784102Y-9341616D01*
X113837400Y-9268257D01*
X113936694Y-9073383D01*
X114004279Y-8865375D01*
X114025233Y-8733079D01*
X114038493Y-8649361D01*
X114038493Y-8430638D01*
X114004350Y-8215075D01*
X114004279Y-8214625D01*
X113970284Y-8109998D01*
X113936695Y-8006619D01*
X113936694Y-8006616D01*
X113893682Y-7922202D01*
X113837400Y-7811743D01*
X113821240Y-7789500D01*
X113708850Y-7634806D01*
X113554190Y-7480146D01*
X113554185Y-7480142D01*
X113402602Y-7370011D01*
X113359936Y-7314681D01*
X113353957Y-7245068D01*
X113386562Y-7183273D01*
X113402602Y-7169375D01*
X113553866Y-7059476D01*
X113708470Y-6904872D01*
X113708474Y-6904867D01*
X113836975Y-6727999D01*
X113936236Y-6533192D01*
X113936237Y-6533189D01*
X114003797Y-6325259D01*
X114015717Y-6250001D01*
X109504281Y-6250001D01*
X109516200Y-6325259D01*
X109583760Y-6533189D01*
X109583761Y-6533192D01*
X109683022Y-6727999D01*
X109811523Y-6904867D01*
X109811527Y-6904872D01*
X109966127Y-7059472D01*
X109966132Y-7059476D01*
X110117389Y-7169371D01*
X110160055Y-7224701D01*
X110166034Y-7294314D01*
X110133428Y-7356109D01*
X110117389Y-7370007D01*
X109965800Y-7480142D01*
X109965795Y-7480146D01*
X109811135Y-7634806D01*
X109682588Y-7811739D01*
X109583291Y-8006616D01*
X109583290Y-8006619D01*
X109515707Y-8214623D01*
X109481493Y-8430638D01*
X109481493Y-8649361D01*
X109515707Y-8865376D01*
X109583290Y-9073380D01*
X109583291Y-9073383D01*
X109682588Y-9268260D01*
X109811135Y-9445193D01*
X109965799Y-9599857D01*
X110116965Y-9709684D01*
X110159631Y-9765013D01*
X110165610Y-9834627D01*
X110133005Y-9896422D01*
X110116965Y-9910320D01*
X109965805Y-10020143D01*
X109965800Y-10020147D01*
X109811148Y-10174799D01*
X109811141Y-10174808D01*
X109735886Y-10278386D01*
X109680556Y-10321052D01*
X109635569Y-10329500D01*
X99762228Y-10329500D01*
X99695189Y-10309815D01*
X99674547Y-10293181D01*
X99446820Y-10065454D01*
X99413335Y-10004131D01*
X99410501Y-9977773D01*
X99410501Y-7882205D01*
X99430186Y-7815166D01*
X99446820Y-7794524D01*
X99471529Y-7769815D01*
X99499415Y-7741929D01*
X99559993Y-7658549D01*
X99615321Y-7615885D01*
X99684935Y-7609906D01*
X99746730Y-7642511D01*
X99760628Y-7658551D01*
X99820963Y-7741595D01*
X99820967Y-7741600D01*
X99943399Y-7864032D01*
X100083477Y-7965804D01*
X100237746Y-8044408D01*
X100402417Y-8097914D01*
X100402416Y-8097914D01*
X100410001Y-8099115D01*
X100410002Y-8099114D01*
X100410002Y-7030330D01*
X100429747Y-7050075D01*
X100515257Y-7099444D01*
X100610632Y-7125000D01*
X100709372Y-7125000D01*
X100804747Y-7099444D01*
X100890257Y-7050075D01*
X100910002Y-7030330D01*
X100910002Y-8099115D01*
X100917586Y-8097914D01*
X101082257Y-8044408D01*
X101236526Y-7965804D01*
X101376604Y-7864032D01*
X101499034Y-7741602D01*
X101600806Y-7601524D01*
X101679410Y-7447257D01*
X101732916Y-7282584D01*
X101760002Y-7111571D01*
X101760002Y-7000000D01*
X100940332Y-7000000D01*
X100960077Y-6980255D01*
X101009446Y-6894745D01*
X101035002Y-6799370D01*
X101035002Y-6700630D01*
X101009446Y-6605255D01*
X100960077Y-6519745D01*
X100940332Y-6500000D01*
X101760002Y-6500000D01*
X101760002Y-6388428D01*
X101732916Y-6217415D01*
X101679410Y-6052742D01*
X101600806Y-5898475D01*
X101499034Y-5758397D01*
X101376604Y-5635967D01*
X101236526Y-5534195D01*
X101082259Y-5455591D01*
X100917591Y-5402087D01*
X100917583Y-5402085D01*
X100910002Y-5400884D01*
X100910002Y-6469670D01*
X100890257Y-6449925D01*
X100804747Y-6400556D01*
X100709372Y-6375000D01*
X100610632Y-6375000D01*
X100515257Y-6400556D01*
X100429747Y-6449925D01*
X100410002Y-6469670D01*
X100410002Y-5400884D01*
X100410001Y-5400884D01*
X100402420Y-5402085D01*
X100402412Y-5402087D01*
X100237744Y-5455591D01*
X100083477Y-5534195D01*
X99943399Y-5635967D01*
X99820967Y-5758399D01*
X99820963Y-5758404D01*
X99760628Y-5841449D01*
X99705298Y-5884115D01*
X99635685Y-5890094D01*
X99573890Y-5857488D01*
X99559992Y-5841450D01*
X99559684Y-5841026D01*
X99499415Y-5758073D01*
X99376929Y-5635587D01*
X99236789Y-5533769D01*
X99105371Y-5466809D01*
X99082448Y-5455129D01*
X99082447Y-5455128D01*
X99082446Y-5455128D01*
X98917702Y-5401599D01*
X98917700Y-5401598D01*
X98917699Y-5401598D01*
X98769840Y-5378180D01*
X98746612Y-5374501D01*
X98573390Y-5374501D01*
X98550162Y-5378180D01*
X98402303Y-5401598D01*
X98237553Y-5455129D01*
X98083212Y-5533769D01*
X98018964Y-5580449D01*
X97943073Y-5635587D01*
X97943071Y-5635589D01*
X97943070Y-5635589D01*
X97820586Y-5758073D01*
X97760317Y-5841026D01*
X97704987Y-5883691D01*
X97635373Y-5889669D01*
X97573579Y-5857062D01*
X97559682Y-5841024D01*
X97559681Y-5841023D01*
X97499414Y-5758072D01*
X97376928Y-5635586D01*
X97236788Y-5533768D01*
X97160948Y-5495126D01*
X97082447Y-5455128D01*
X97082446Y-5455127D01*
X97082445Y-5455127D01*
X96917701Y-5401598D01*
X96917699Y-5401597D01*
X96917698Y-5401597D01*
X96786271Y-5380781D01*
X96746611Y-5374500D01*
X96573389Y-5374500D01*
X96533728Y-5380781D01*
X96402302Y-5401597D01*
X96237552Y-5455128D01*
X96083211Y-5533768D01*
X96044731Y-5561726D01*
X95943072Y-5635586D01*
X95943070Y-5635588D01*
X95943069Y-5635588D01*
X95820588Y-5758069D01*
X95820581Y-5758078D01*
X95760317Y-5841023D01*
X95704987Y-5883689D01*
X95635374Y-5889667D01*
X95573579Y-5857061D01*
X95559683Y-5841023D01*
X95501209Y-5760543D01*
X95499414Y-5758072D01*
X95376928Y-5635586D01*
X95236788Y-5533768D01*
X95160948Y-5495126D01*
X95082447Y-5455128D01*
X95082446Y-5455127D01*
X95082445Y-5455127D01*
X94917701Y-5401598D01*
X94917699Y-5401597D01*
X94917698Y-5401597D01*
X94786271Y-5380781D01*
X94746611Y-5374500D01*
X94573389Y-5374500D01*
X94533728Y-5380781D01*
X94402302Y-5401597D01*
X94237552Y-5455128D01*
X94083211Y-5533768D01*
X93943073Y-5635585D01*
X93835530Y-5743128D01*
X93774207Y-5776612D01*
X93704515Y-5771628D01*
X93648582Y-5729756D01*
X93642310Y-5720543D01*
X93629649Y-5700016D01*
X93602712Y-5656344D01*
X93596819Y-5650451D01*
X93563334Y-5589128D01*
X93560500Y-5562770D01*
X93560500Y-4704361D01*
X93580185Y-4637322D01*
X93596819Y-4616680D01*
X93816679Y-4396820D01*
X93878002Y-4363335D01*
X93904360Y-4360501D01*
X109755087Y-4360501D01*
X109822126Y-4380186D01*
X109842768Y-4396820D01*
X109965801Y-4519853D01*
X110117395Y-4629992D01*
X110160060Y-4685320D01*
X110166039Y-4754933D01*
X110133434Y-4816729D01*
X110117395Y-4830627D01*
X109966127Y-4940529D01*
X109811527Y-5095129D01*
X109811523Y-5095134D01*
X109683022Y-5272002D01*
X109583761Y-5466809D01*
X109583760Y-5466812D01*
X109516200Y-5674742D01*
X109504281Y-5750001D01*
X114015717Y-5750001D01*
X114003797Y-5674744D01*
X114002989Y-5671378D01*
X114003054Y-5670057D01*
X114003035Y-5669931D01*
X114003061Y-5669926D01*
X114006476Y-5601596D01*
X114047136Y-5544776D01*
X114112062Y-5518959D01*
X114180638Y-5532342D01*
X114211242Y-5554744D01*
X114924475Y-6267976D01*
X114956060Y-6321722D01*
X115009417Y-6509249D01*
X115009424Y-6509266D01*
X115026499Y-6543556D01*
X115039500Y-6598829D01*
X115039500Y-7621170D01*
X115026501Y-7676440D01*
X115009419Y-7710746D01*
X115009418Y-7710749D01*
X115003163Y-7732732D01*
X114953602Y-7906916D01*
X114934785Y-8109998D01*
X114934785Y-8109999D01*
X114953602Y-8313081D01*
X115009417Y-8509246D01*
X115009422Y-8509259D01*
X115100327Y-8691820D01*
X115223237Y-8854580D01*
X115373958Y-8991979D01*
X115373960Y-8991981D01*
X115397920Y-9006816D01*
X115547363Y-9099347D01*
X115737544Y-9173023D01*
X115938024Y-9210499D01*
X115938026Y-9210499D01*
X116141974Y-9210499D01*
X116141976Y-9210499D01*
X116342456Y-9173023D01*
X116482237Y-9118872D01*
X116527031Y-9110499D01*
X117552970Y-9110499D01*
X117597764Y-9118872D01*
X117737545Y-9173023D01*
X117938025Y-9210499D01*
X117938027Y-9210499D01*
X118141975Y-9210499D01*
X118141977Y-9210499D01*
X118342457Y-9173023D01*
X118532638Y-9099347D01*
X118706042Y-8991980D01*
X118856765Y-8854578D01*
X118979674Y-8691820D01*
X119070583Y-8509249D01*
X119126398Y-8313082D01*
X119145216Y-8109999D01*
X119144207Y-8099115D01*
X119126398Y-7906916D01*
X119117292Y-7874912D01*
X119070583Y-7710749D01*
X119053498Y-7676439D01*
X119040500Y-7621170D01*
X119040500Y-6598826D01*
X119053500Y-6543554D01*
X119055270Y-6540000D01*
X119070582Y-6509250D01*
X119123940Y-6321717D01*
X119155523Y-6267974D01*
X122596680Y-2826819D01*
X122658003Y-2793334D01*
X122684361Y-2790500D01*
X126608693Y-2790500D01*
X126608694Y-2790499D01*
X126782666Y-2755895D01*
X126864606Y-2721953D01*
X126946547Y-2688013D01*
X126946549Y-2688011D01*
X126946552Y-2688010D01*
X127034955Y-2628939D01*
X127034955Y-2628938D01*
X127034959Y-2628936D01*
X127094036Y-2589464D01*
X127476680Y-2206818D01*
X127538003Y-2173334D01*
X127564361Y-2170500D01*
X127680247Y-2170500D01*
X127747286Y-2190185D01*
X127793041Y-2242989D01*
X127802985Y-2312147D01*
X127773960Y-2375703D01*
X127753132Y-2394818D01*
X127745806Y-2400140D01*
X127745801Y-2400144D01*
X127591141Y-2554804D01*
X127462594Y-2731737D01*
X127363297Y-2926614D01*
X127363296Y-2926617D01*
X127295713Y-3134621D01*
X127261499Y-3350636D01*
X127261499Y-3569359D01*
X127295713Y-3785374D01*
X127363296Y-3993378D01*
X127363297Y-3993381D01*
X127375506Y-4017341D01*
X127462591Y-4188254D01*
X127462594Y-4188258D01*
X127591141Y-4365191D01*
X127745801Y-4519851D01*
X127745806Y-4519855D01*
X127896970Y-4629682D01*
X127939636Y-4685012D01*
X127945615Y-4754625D01*
X127913010Y-4816420D01*
X127896970Y-4830318D01*
X127745806Y-4940144D01*
X127745801Y-4940148D01*
X127591141Y-5094808D01*
X127462594Y-5271741D01*
X127363297Y-5466618D01*
X127363296Y-5466621D01*
X127295713Y-5674625D01*
X127261499Y-5890640D01*
X127261499Y-6109363D01*
X127295713Y-6325378D01*
X127363296Y-6533382D01*
X127363297Y-6533385D01*
X127462594Y-6728262D01*
X127591141Y-6905195D01*
X127745801Y-7059855D01*
X127745806Y-7059859D01*
X127896965Y-7169682D01*
X127939631Y-7225011D01*
X127945610Y-7294625D01*
X127913005Y-7356420D01*
X127896965Y-7370318D01*
X127745806Y-7480141D01*
X127745801Y-7480145D01*
X127622767Y-7603180D01*
X127561444Y-7636665D01*
X127535086Y-7639499D01*
X125931307Y-7639499D01*
X125848892Y-7655893D01*
X125848891Y-7655893D01*
X125757342Y-7674102D01*
X125757333Y-7674105D01*
X125593460Y-7741982D01*
X125593447Y-7741989D01*
X125445967Y-7840533D01*
X125445965Y-7840536D01*
X119210537Y-14075962D01*
X119210534Y-14075965D01*
X119195532Y-14098419D01*
X119111990Y-14223446D01*
X119111983Y-14223459D01*
X119085109Y-14288342D01*
X119085109Y-14288343D01*
X119044105Y-14387333D01*
X119044103Y-14387341D01*
X119009500Y-14561303D01*
X119009500Y-19695638D01*
X118989815Y-19762677D01*
X118973181Y-19783319D01*
X116783319Y-21973181D01*
X116721996Y-22006666D01*
X116695638Y-22009500D01*
X25264362Y-22009500D01*
X25197323Y-21989815D01*
X25176681Y-21973181D01*
X23566819Y-20363319D01*
X23533334Y-20301996D01*
X23530500Y-20275638D01*
X23530500Y-16955255D01*
X23550185Y-16888216D01*
X23555546Y-16880528D01*
X23569673Y-16861821D01*
X23660582Y-16679250D01*
X23716397Y-16483083D01*
X23735215Y-16280000D01*
X23716397Y-16076917D01*
X23660582Y-15880750D01*
X23569673Y-15698179D01*
X23446764Y-15535421D01*
X23446762Y-15535418D01*
X23296041Y-15398019D01*
X23296039Y-15398017D01*
X23122642Y-15290655D01*
X23122635Y-15290651D01*
X22984082Y-15236976D01*
X22932456Y-15216976D01*
X22731976Y-15179500D01*
X22528024Y-15179500D01*
X22327544Y-15216976D01*
X22327541Y-15216976D01*
X22327541Y-15216977D01*
X22137364Y-15290651D01*
X22137357Y-15290655D01*
X21963960Y-15398017D01*
X21963958Y-15398019D01*
X21813237Y-15535418D01*
X21690327Y-15698178D01*
X21599422Y-15880739D01*
X21599417Y-15880752D01*
X21543602Y-16076917D01*
X21524785Y-16279999D01*
X21524785Y-16280000D01*
X21543602Y-16483082D01*
X21599417Y-16679247D01*
X21599422Y-16679260D01*
X21690327Y-16861821D01*
X21704454Y-16880528D01*
X21729146Y-16945889D01*
X21729500Y-16955255D01*
X21729500Y-20788696D01*
X21764103Y-20962660D01*
X21764106Y-20962669D01*
X21773726Y-20985891D01*
X21773728Y-20985897D01*
X21831983Y-21126540D01*
X21831990Y-21126552D01*
X21878056Y-21195494D01*
X21878056Y-21195495D01*
X21930532Y-21274031D01*
X21930538Y-21274039D01*
X24265964Y-23609464D01*
X24265966Y-23609466D01*
X24325036Y-23648933D01*
X24325039Y-23648936D01*
X24413449Y-23708010D01*
X24413453Y-23708013D01*
X24495393Y-23741953D01*
X24577334Y-23775895D01*
X24751303Y-23810499D01*
X24751307Y-23810500D01*
X24751308Y-23810500D01*
X117208693Y-23810500D01*
X117208694Y-23810499D01*
X117382666Y-23775895D01*
X117464606Y-23741953D01*
X117546547Y-23708013D01*
X117546549Y-23708011D01*
X117546552Y-23708010D01*
X117634955Y-23648939D01*
X117634955Y-23648938D01*
X117634959Y-23648936D01*
X117694036Y-23609464D01*
X120609464Y-20694036D01*
X120628139Y-20666085D01*
X120664741Y-20611309D01*
X120664741Y-20611308D01*
X120708013Y-20546547D01*
X120748660Y-20448416D01*
X120775895Y-20382666D01*
X120810500Y-20208692D01*
X120810500Y-20031308D01*
X120810500Y-15074361D01*
X120830185Y-15007322D01*
X120846819Y-14986680D01*
X126356681Y-9476818D01*
X126418004Y-9443333D01*
X126444362Y-9440499D01*
X127535086Y-9440499D01*
X127602125Y-9460184D01*
X127622767Y-9476818D01*
X127745805Y-9599856D01*
X127896971Y-9709683D01*
X127939637Y-9765012D01*
X127945616Y-9834626D01*
X127913011Y-9896421D01*
X127896971Y-9910319D01*
X127745809Y-10020144D01*
X127745804Y-10020148D01*
X127591144Y-10174808D01*
X127462597Y-10351741D01*
X127363300Y-10546618D01*
X127363299Y-10546621D01*
X127295716Y-10754625D01*
X127261502Y-10970640D01*
X127261502Y-11189363D01*
X127295716Y-11405378D01*
X127363299Y-11613382D01*
X127363300Y-11613385D01*
X127419127Y-11722949D01*
X127462594Y-11808258D01*
X127462597Y-11808262D01*
X127591144Y-11985195D01*
X127591149Y-11985200D01*
X127591150Y-11985201D01*
X127745803Y-12139854D01*
X127896969Y-12249682D01*
X127939634Y-12305010D01*
X127945613Y-12374623D01*
X127913008Y-12436419D01*
X127896968Y-12450317D01*
X127745806Y-12560142D01*
X127745801Y-12560146D01*
X127591141Y-12714806D01*
X127462594Y-12891739D01*
X127363297Y-13086616D01*
X127363296Y-13086619D01*
X127295713Y-13294623D01*
X127261499Y-13510638D01*
X127261499Y-13729361D01*
X127295713Y-13945376D01*
X127363296Y-14153380D01*
X127363297Y-14153383D01*
X127429114Y-14282553D01*
X127459230Y-14341659D01*
X127462594Y-14348260D01*
X127591141Y-14525193D01*
X127745805Y-14679857D01*
X127896971Y-14789684D01*
X127939637Y-14845013D01*
X127945616Y-14914627D01*
X127913011Y-14976422D01*
X127896971Y-14990320D01*
X127745808Y-15100146D01*
X127745803Y-15100150D01*
X127591143Y-15254810D01*
X127462596Y-15431743D01*
X127363299Y-15626620D01*
X127363298Y-15626623D01*
X127295715Y-15834627D01*
X127261501Y-16050642D01*
X127261501Y-16269365D01*
X127295715Y-16485380D01*
X127363298Y-16693384D01*
X127363299Y-16693387D01*
X127388556Y-16742955D01*
X127462591Y-16888256D01*
X127462596Y-16888264D01*
X127591143Y-17065197D01*
X127591149Y-17065203D01*
X127745802Y-17219856D01*
X127896969Y-17329685D01*
X127939635Y-17385014D01*
X127945614Y-17454628D01*
X127913009Y-17516423D01*
X127896969Y-17530321D01*
X127745809Y-17640144D01*
X127745804Y-17640148D01*
X127591144Y-17794808D01*
X127462597Y-17971741D01*
X127363300Y-18166618D01*
X127363299Y-18166621D01*
X127295716Y-18374625D01*
X127261502Y-18590640D01*
X127261502Y-18809363D01*
X127295716Y-19025378D01*
X127363299Y-19233382D01*
X127363300Y-19233385D01*
X127430405Y-19365083D01*
X127459478Y-19422142D01*
X127462597Y-19428262D01*
X127591144Y-19605195D01*
X127745808Y-19759859D01*
X127911376Y-19880149D01*
X127922745Y-19888409D01*
X128050134Y-19953317D01*
X128117618Y-19987703D01*
X128122119Y-19989567D01*
X128121679Y-19990629D01*
X128174879Y-20027003D01*
X128202079Y-20091361D01*
X128190167Y-20160208D01*
X128142925Y-20211685D01*
X128078888Y-20229500D01*
X124492230Y-20229500D01*
X124425191Y-20209815D01*
X124404549Y-20193181D01*
X123906819Y-19695451D01*
X123873334Y-19634128D01*
X123870500Y-19607770D01*
X123870500Y-17159738D01*
X123890185Y-17092699D01*
X123910962Y-17068101D01*
X123925794Y-17054579D01*
X123936764Y-17044579D01*
X124059673Y-16881821D01*
X124150582Y-16699250D01*
X124206397Y-16503083D01*
X124225215Y-16300000D01*
X124206397Y-16096917D01*
X124150582Y-15900750D01*
X124140624Y-15880752D01*
X124064652Y-15728179D01*
X124059673Y-15718179D01*
X123944316Y-15565421D01*
X123936762Y-15555418D01*
X123786041Y-15418019D01*
X123786039Y-15418017D01*
X123612642Y-15310655D01*
X123612635Y-15310651D01*
X123468465Y-15254800D01*
X123422456Y-15236976D01*
X123221976Y-15199500D01*
X123018024Y-15199500D01*
X122817544Y-15236976D01*
X122817541Y-15236976D01*
X122817541Y-15236977D01*
X122627364Y-15310651D01*
X122627357Y-15310655D01*
X122453960Y-15418017D01*
X122453958Y-15418019D01*
X122303237Y-15555418D01*
X122180327Y-15718178D01*
X122089422Y-15900739D01*
X122089417Y-15900752D01*
X122033602Y-16096917D01*
X122014785Y-16299999D01*
X122014785Y-16300000D01*
X122033602Y-16503082D01*
X122089417Y-16699247D01*
X122089422Y-16699260D01*
X122180327Y-16881821D01*
X122303237Y-17044580D01*
X122329038Y-17068101D01*
X122365320Y-17127812D01*
X122369500Y-17159738D01*
X122369500Y-20043918D01*
X122369500Y-20043920D01*
X122369499Y-20043920D01*
X122398340Y-20188907D01*
X122398343Y-20188917D01*
X122454912Y-20325488D01*
X122454917Y-20325497D01*
X122462954Y-20337524D01*
X122479028Y-20361581D01*
X122479029Y-20361584D01*
X122479030Y-20361584D01*
X122537049Y-20448417D01*
X122537052Y-20448421D01*
X123651584Y-21562952D01*
X123651586Y-21562954D01*
X123689048Y-21587984D01*
X123707780Y-21600500D01*
X123774505Y-21645084D01*
X123774506Y-21645084D01*
X123774507Y-21645085D01*
X123831079Y-21668518D01*
X123831080Y-21668518D01*
X123911088Y-21701659D01*
X124027241Y-21724763D01*
X124046468Y-21728587D01*
X124056081Y-21730500D01*
X124056082Y-21730500D01*
X154533920Y-21730500D01*
X154631462Y-21711096D01*
X154678913Y-21701658D01*
X154815495Y-21645084D01*
X154882220Y-21600500D01*
X154938416Y-21562952D01*
X155182952Y-21318416D01*
X155182953Y-21318414D01*
X155190013Y-21311354D01*
X155190019Y-21311346D01*
X166501363Y-9999999D01*
X226294922Y-9999999D01*
X226294922Y-10000000D01*
X226315219Y-10387287D01*
X226375886Y-10770323D01*
X226375887Y-10770330D01*
X226476262Y-11144936D01*
X226615244Y-11506994D01*
X226791310Y-11852543D01*
X227002531Y-12177793D01*
X227211095Y-12435350D01*
X227211096Y-12435350D01*
X228705748Y-10940698D01*
X228779588Y-11042330D01*
X228957670Y-11220412D01*
X229059300Y-11294251D01*
X227564648Y-12788903D01*
X227564649Y-12788904D01*
X227822206Y-12997468D01*
X228147456Y-13208689D01*
X228493005Y-13384755D01*
X228855063Y-13523737D01*
X229229669Y-13624112D01*
X229229676Y-13624113D01*
X229612712Y-13684780D01*
X229999999Y-13705078D01*
X230000001Y-13705078D01*
X230387287Y-13684780D01*
X230770323Y-13624113D01*
X230770330Y-13624112D01*
X231144936Y-13523737D01*
X231506994Y-13384755D01*
X231852543Y-13208689D01*
X232177783Y-12997476D01*
X232177785Y-12997475D01*
X232435349Y-12788902D01*
X230940698Y-11294251D01*
X231042330Y-11220412D01*
X231220412Y-11042330D01*
X231294251Y-10940698D01*
X232788902Y-12435349D01*
X232997475Y-12177785D01*
X232997476Y-12177783D01*
X233208689Y-11852543D01*
X233384755Y-11506994D01*
X233523737Y-11144936D01*
X233624112Y-10770330D01*
X233624113Y-10770323D01*
X233684780Y-10387287D01*
X233705078Y-10000000D01*
X233705078Y-9999999D01*
X233684780Y-9612712D01*
X233624113Y-9229676D01*
X233624112Y-9229669D01*
X233523737Y-8855063D01*
X233384755Y-8493005D01*
X233208689Y-8147456D01*
X232997468Y-7822206D01*
X232788904Y-7564649D01*
X232788903Y-7564648D01*
X231294251Y-9059300D01*
X231220412Y-8957670D01*
X231042330Y-8779588D01*
X230940698Y-8705748D01*
X232435350Y-7211096D01*
X232435350Y-7211095D01*
X232177793Y-7002531D01*
X231852543Y-6791310D01*
X231506994Y-6615244D01*
X231144936Y-6476262D01*
X230770330Y-6375887D01*
X230770323Y-6375886D01*
X230387287Y-6315219D01*
X230000001Y-6294922D01*
X229999999Y-6294922D01*
X229612712Y-6315219D01*
X229229676Y-6375886D01*
X229229669Y-6375887D01*
X228855063Y-6476262D01*
X228493005Y-6615244D01*
X228147456Y-6791310D01*
X227822206Y-7002531D01*
X227564648Y-7211095D01*
X227564648Y-7211096D01*
X229059301Y-8705748D01*
X228957670Y-8779588D01*
X228779588Y-8957670D01*
X228705748Y-9059300D01*
X227211096Y-7564648D01*
X227211095Y-7564648D01*
X227002531Y-7822206D01*
X226791310Y-8147456D01*
X226615244Y-8493005D01*
X226476262Y-8855063D01*
X226375887Y-9229669D01*
X226375886Y-9229676D01*
X226315219Y-9612712D01*
X226294922Y-9999999D01*
X166501363Y-9999999D01*
X168322298Y-8179063D01*
X168383619Y-8145580D01*
X168429374Y-8144273D01*
X168563390Y-8165499D01*
X168563391Y-8165499D01*
X168736611Y-8165499D01*
X168736612Y-8165499D01*
X168907702Y-8138401D01*
X169072446Y-8084872D01*
X169226789Y-8006231D01*
X169366929Y-7904413D01*
X169489415Y-7781927D01*
X169549991Y-7698550D01*
X169605320Y-7655887D01*
X169674933Y-7649908D01*
X169736728Y-7682514D01*
X169750626Y-7698553D01*
X169810959Y-7781596D01*
X169933395Y-7904032D01*
X170073473Y-8005804D01*
X170227742Y-8084408D01*
X170392413Y-8137914D01*
X170392412Y-8137914D01*
X170399997Y-8139115D01*
X170399998Y-8139114D01*
X170399998Y-7070330D01*
X170419743Y-7090075D01*
X170505253Y-7139444D01*
X170600628Y-7165000D01*
X170699368Y-7165000D01*
X170794743Y-7139444D01*
X170880253Y-7090075D01*
X170899998Y-7070330D01*
X170899998Y-8139115D01*
X170907582Y-8137914D01*
X171072253Y-8084408D01*
X171226522Y-8005804D01*
X171366600Y-7904032D01*
X171489030Y-7781602D01*
X171590802Y-7641524D01*
X171669406Y-7487257D01*
X171722912Y-7322584D01*
X171749998Y-7151571D01*
X171749998Y-7040000D01*
X170930328Y-7040000D01*
X170950073Y-7020255D01*
X170999442Y-6934745D01*
X171024998Y-6839370D01*
X171024998Y-6740630D01*
X170999442Y-6645255D01*
X170950073Y-6559745D01*
X170930328Y-6540000D01*
X171749998Y-6540000D01*
X171749998Y-6428428D01*
X171722912Y-6257415D01*
X171669406Y-6092742D01*
X171590802Y-5938475D01*
X171489030Y-5798397D01*
X171366600Y-5675967D01*
X171226522Y-5574195D01*
X171072255Y-5495591D01*
X170907587Y-5442087D01*
X170907579Y-5442085D01*
X170899998Y-5440884D01*
X170899998Y-6509670D01*
X170880253Y-6489925D01*
X170794743Y-6440556D01*
X170699368Y-6415000D01*
X170600628Y-6415000D01*
X170505253Y-6440556D01*
X170419743Y-6489925D01*
X170399998Y-6509670D01*
X170399998Y-5440884D01*
X170399997Y-5440884D01*
X170392416Y-5442085D01*
X170392408Y-5442087D01*
X170227740Y-5495591D01*
X170073473Y-5574195D01*
X169933395Y-5675967D01*
X169810963Y-5798399D01*
X169750626Y-5881446D01*
X169695295Y-5924111D01*
X169625682Y-5930090D01*
X169563887Y-5897484D01*
X169549994Y-5881450D01*
X169489415Y-5798071D01*
X169366929Y-5675585D01*
X169226789Y-5573767D01*
X169072446Y-5495126D01*
X168907702Y-5441597D01*
X168907700Y-5441596D01*
X168907699Y-5441596D01*
X168752737Y-5417053D01*
X168736612Y-5414499D01*
X168563390Y-5414499D01*
X168547265Y-5417053D01*
X168392303Y-5441596D01*
X168227553Y-5495127D01*
X168073212Y-5573767D01*
X167996078Y-5629809D01*
X167933073Y-5675585D01*
X167933071Y-5675587D01*
X167933070Y-5675587D01*
X167810588Y-5798069D01*
X167750318Y-5881024D01*
X167694987Y-5923689D01*
X167625374Y-5929668D01*
X167563579Y-5897062D01*
X167549682Y-5881024D01*
X167489414Y-5798072D01*
X167366928Y-5675586D01*
X167226788Y-5573768D01*
X167189451Y-5554744D01*
X167072447Y-5495128D01*
X167072446Y-5495127D01*
X167072445Y-5495127D01*
X166907701Y-5441598D01*
X166907699Y-5441597D01*
X166907698Y-5441597D01*
X166776271Y-5420781D01*
X166736611Y-5414500D01*
X166563389Y-5414500D01*
X166523728Y-5420781D01*
X166392302Y-5441597D01*
X166227552Y-5495128D01*
X166073211Y-5573768D01*
X166034910Y-5601596D01*
X165933072Y-5675586D01*
X165933070Y-5675588D01*
X165933069Y-5675588D01*
X165810585Y-5798072D01*
X165750316Y-5881025D01*
X165694986Y-5923690D01*
X165625372Y-5929668D01*
X165563578Y-5897061D01*
X165549681Y-5881023D01*
X165549680Y-5881022D01*
X165489413Y-5798071D01*
X165366927Y-5675585D01*
X165226787Y-5573767D01*
X165072444Y-5495126D01*
X164907700Y-5441597D01*
X164907698Y-5441596D01*
X164907697Y-5441596D01*
X164752735Y-5417053D01*
X164736610Y-5414499D01*
X164563388Y-5414499D01*
X164547263Y-5417053D01*
X164392301Y-5441596D01*
X164227551Y-5495127D01*
X164073210Y-5573767D01*
X163996076Y-5629809D01*
X163933071Y-5675585D01*
X163933069Y-5675587D01*
X163933068Y-5675587D01*
X163810587Y-5798068D01*
X163810580Y-5798077D01*
X163750316Y-5881022D01*
X163694986Y-5923688D01*
X163625373Y-5929666D01*
X163563578Y-5897060D01*
X163549682Y-5881022D01*
X163499262Y-5811627D01*
X163489413Y-5798071D01*
X163366927Y-5675585D01*
X163226787Y-5573767D01*
X163072444Y-5495126D01*
X162907700Y-5441597D01*
X162907698Y-5441596D01*
X162907697Y-5441596D01*
X162752735Y-5417053D01*
X162736610Y-5414499D01*
X162563388Y-5414499D01*
X162547263Y-5417053D01*
X162392301Y-5441596D01*
X162227551Y-5495127D01*
X162073210Y-5573767D01*
X161933072Y-5675584D01*
X161825529Y-5783127D01*
X161764206Y-5816611D01*
X161694514Y-5811627D01*
X161638581Y-5769755D01*
X161632309Y-5760542D01*
X161630786Y-5758073D01*
X161592711Y-5696343D01*
X161468655Y-5572287D01*
X161343558Y-5495127D01*
X161319335Y-5480186D01*
X161319330Y-5480184D01*
X161278967Y-5466809D01*
X161152796Y-5425000D01*
X161152794Y-5424999D01*
X161050015Y-5414499D01*
X161050008Y-5414499D01*
X160599361Y-5414499D01*
X160532322Y-5394814D01*
X160511680Y-5378180D01*
X159930704Y-4797204D01*
X158782945Y-3649444D01*
X155845685Y-712181D01*
X155812200Y-650858D01*
X155817184Y-581166D01*
X155859056Y-525233D01*
X155924520Y-500816D01*
X155933366Y-500500D01*
X239375500Y-500500D01*
X239442539Y-520185D01*
X239488294Y-572989D01*
X239499500Y-624500D01*
X239499500Y-239375500D01*
X239479815Y-239442539D01*
X239427011Y-239488294D01*
X239375500Y-239499500D01*
X624500Y-239499500D01*
X557461Y-239479815D01*
X511706Y-239427011D01*
X500500Y-239375500D01*
X500500Y-237119983D01*
X212834501Y-237119983D01*
X212834501Y-237920001D01*
X212834502Y-237920019D01*
X212845001Y-238022796D01*
X212845002Y-238022799D01*
X212900186Y-238189331D01*
X212900187Y-238189334D01*
X212992289Y-238338656D01*
X213116345Y-238462712D01*
X213265667Y-238554814D01*
X213432204Y-238609999D01*
X213534992Y-238620500D01*
X214885009Y-238620499D01*
X214987798Y-238609999D01*
X215154335Y-238554814D01*
X215303657Y-238462712D01*
X215427713Y-238338656D01*
X215519815Y-238189334D01*
X215575000Y-238022797D01*
X215585501Y-237920009D01*
X215585500Y-237119992D01*
X215575000Y-237017203D01*
X215519815Y-236850666D01*
X215427713Y-236701344D01*
X215303657Y-236577288D01*
X215303656Y-236577287D01*
X215239020Y-236537420D01*
X215192295Y-236485472D01*
X215181072Y-236416510D01*
X215208915Y-236352428D01*
X215216435Y-236344199D01*
X215324036Y-236236598D01*
X215425805Y-236096524D01*
X215504409Y-235942255D01*
X215557915Y-235777584D01*
X215559116Y-235770000D01*
X214490331Y-235770000D01*
X214510076Y-235750255D01*
X214559445Y-235664745D01*
X214585001Y-235569370D01*
X214585001Y-235470630D01*
X214559445Y-235375255D01*
X214510076Y-235289745D01*
X214490331Y-235270000D01*
X215559116Y-235270000D01*
X215559116Y-235269999D01*
X215557915Y-235262415D01*
X215504409Y-235097744D01*
X215425805Y-234943475D01*
X215324033Y-234803397D01*
X215201603Y-234680967D01*
X215061525Y-234579195D01*
X214907258Y-234500591D01*
X214742585Y-234447085D01*
X214571572Y-234420000D01*
X214460001Y-234420000D01*
X214460001Y-235239670D01*
X214440256Y-235219925D01*
X214354746Y-235170556D01*
X214259371Y-235145000D01*
X214160631Y-235145000D01*
X214065256Y-235170556D01*
X213979746Y-235219925D01*
X213960001Y-235239670D01*
X213960001Y-234420000D01*
X213848430Y-234420000D01*
X213677416Y-234447085D01*
X213512743Y-234500591D01*
X213358476Y-234579195D01*
X213218398Y-234680967D01*
X213095968Y-234803397D01*
X212994196Y-234943475D01*
X212915592Y-235097744D01*
X212862086Y-235262415D01*
X212860885Y-235269999D01*
X212860886Y-235270000D01*
X213929671Y-235270000D01*
X213909926Y-235289745D01*
X213860557Y-235375255D01*
X213835001Y-235470630D01*
X213835001Y-235569370D01*
X213860557Y-235664745D01*
X213909926Y-235750255D01*
X213929671Y-235770000D01*
X212860886Y-235770000D01*
X212862086Y-235777584D01*
X212915592Y-235942255D01*
X212994196Y-236096524D01*
X213095968Y-236236602D01*
X213203566Y-236344200D01*
X213237051Y-236405523D01*
X213232067Y-236475215D01*
X213190195Y-236531148D01*
X213180982Y-236537420D01*
X213116343Y-236577289D01*
X212992290Y-236701342D01*
X212900188Y-236850663D01*
X212900187Y-236850666D01*
X212845002Y-237017203D01*
X212845002Y-237017204D01*
X212845001Y-237017204D01*
X212834501Y-237119983D01*
X500500Y-237119983D01*
X500500Y-229999999D01*
X6294922Y-229999999D01*
X6294922Y-230000000D01*
X6315219Y-230387287D01*
X6375886Y-230770323D01*
X6375887Y-230770330D01*
X6476262Y-231144936D01*
X6615244Y-231506994D01*
X6791310Y-231852543D01*
X7002531Y-232177793D01*
X7211095Y-232435350D01*
X7211096Y-232435350D01*
X8705748Y-230940698D01*
X8779588Y-231042330D01*
X8957670Y-231220412D01*
X9059300Y-231294251D01*
X7564648Y-232788903D01*
X7564649Y-232788904D01*
X7822206Y-232997468D01*
X8147456Y-233208689D01*
X8493005Y-233384755D01*
X8855063Y-233523737D01*
X9229669Y-233624112D01*
X9229676Y-233624113D01*
X9612712Y-233684780D01*
X9999999Y-233705078D01*
X10000001Y-233705078D01*
X10387287Y-233684780D01*
X10770323Y-233624113D01*
X10770330Y-233624112D01*
X11144936Y-233523737D01*
X11506994Y-233384755D01*
X11852543Y-233208689D01*
X12177783Y-232997476D01*
X12177785Y-232997475D01*
X12435349Y-232788902D01*
X10940698Y-231294251D01*
X11042330Y-231220412D01*
X11220412Y-231042330D01*
X11294251Y-230940698D01*
X12788902Y-232435349D01*
X12997475Y-232177785D01*
X12997476Y-232177783D01*
X13208689Y-231852543D01*
X13384755Y-231506994D01*
X13523737Y-231144936D01*
X13624112Y-230770330D01*
X13624113Y-230770323D01*
X13684780Y-230387287D01*
X13705078Y-230000000D01*
X13705078Y-229999999D01*
X226294922Y-229999999D01*
X226294922Y-230000000D01*
X226315219Y-230387287D01*
X226375886Y-230770323D01*
X226375887Y-230770330D01*
X226476262Y-231144936D01*
X226615244Y-231506994D01*
X226791310Y-231852543D01*
X227002531Y-232177793D01*
X227211095Y-232435350D01*
X227211096Y-232435350D01*
X228705748Y-230940698D01*
X228779588Y-231042330D01*
X228957670Y-231220412D01*
X229059300Y-231294251D01*
X227564648Y-232788903D01*
X227564649Y-232788904D01*
X227822206Y-232997468D01*
X228147456Y-233208689D01*
X228493005Y-233384755D01*
X228855063Y-233523737D01*
X229229669Y-233624112D01*
X229229676Y-233624113D01*
X229612712Y-233684780D01*
X229999999Y-233705078D01*
X230000001Y-233705078D01*
X230387287Y-233684780D01*
X230770323Y-233624113D01*
X230770330Y-233624112D01*
X231144936Y-233523737D01*
X231506994Y-233384755D01*
X231852543Y-233208689D01*
X232177783Y-232997476D01*
X232177785Y-232997475D01*
X232435349Y-232788902D01*
X230940698Y-231294251D01*
X231042330Y-231220412D01*
X231220412Y-231042330D01*
X231294251Y-230940698D01*
X232788902Y-232435349D01*
X232997475Y-232177785D01*
X232997476Y-232177783D01*
X233208689Y-231852543D01*
X233384755Y-231506994D01*
X233523737Y-231144936D01*
X233624112Y-230770330D01*
X233624113Y-230770323D01*
X233684780Y-230387287D01*
X233705078Y-230000000D01*
X233705078Y-229999999D01*
X233684780Y-229612712D01*
X233624113Y-229229676D01*
X233624112Y-229229669D01*
X233523737Y-228855063D01*
X233384755Y-228493005D01*
X233208689Y-228147456D01*
X232997468Y-227822206D01*
X232788904Y-227564649D01*
X232788903Y-227564648D01*
X231294251Y-229059300D01*
X231220412Y-228957670D01*
X231042330Y-228779588D01*
X230940698Y-228705748D01*
X232435350Y-227211096D01*
X232435350Y-227211095D01*
X232177793Y-227002531D01*
X231852543Y-226791310D01*
X231506994Y-226615244D01*
X231144936Y-226476262D01*
X230770330Y-226375887D01*
X230770323Y-226375886D01*
X230387287Y-226315219D01*
X230000001Y-226294922D01*
X229999999Y-226294922D01*
X229612712Y-226315219D01*
X229229676Y-226375886D01*
X229229669Y-226375887D01*
X228855063Y-226476262D01*
X228493005Y-226615244D01*
X228147456Y-226791310D01*
X227822206Y-227002531D01*
X227564648Y-227211095D01*
X227564648Y-227211096D01*
X229059301Y-228705748D01*
X228957670Y-228779588D01*
X228779588Y-228957670D01*
X228705748Y-229059300D01*
X227211096Y-227564648D01*
X227211095Y-227564648D01*
X227002531Y-227822206D01*
X226791310Y-228147456D01*
X226615244Y-228493005D01*
X226476262Y-228855063D01*
X226375887Y-229229669D01*
X226375886Y-229229676D01*
X226315219Y-229612712D01*
X226294922Y-229999999D01*
X13705078Y-229999999D01*
X13684780Y-229612712D01*
X13624113Y-229229676D01*
X13624112Y-229229669D01*
X13523737Y-228855063D01*
X13384755Y-228493005D01*
X13208689Y-228147456D01*
X12997468Y-227822206D01*
X12788904Y-227564649D01*
X12788903Y-227564648D01*
X11294251Y-229059300D01*
X11220412Y-228957670D01*
X11042330Y-228779588D01*
X10940698Y-228705748D01*
X12435350Y-227211096D01*
X12435350Y-227211095D01*
X12177793Y-227002531D01*
X11852543Y-226791310D01*
X11506994Y-226615244D01*
X11144936Y-226476262D01*
X10770330Y-226375887D01*
X10770323Y-226375886D01*
X10387287Y-226315219D01*
X10000001Y-226294922D01*
X9999999Y-226294922D01*
X9612712Y-226315219D01*
X9229676Y-226375886D01*
X9229669Y-226375887D01*
X8855063Y-226476262D01*
X8493005Y-226615244D01*
X8147456Y-226791310D01*
X7822206Y-227002531D01*
X7564648Y-227211095D01*
X7564648Y-227211096D01*
X9059301Y-228705748D01*
X8957670Y-228779588D01*
X8779588Y-228957670D01*
X8705748Y-229059300D01*
X7211096Y-227564648D01*
X7211095Y-227564648D01*
X7002531Y-227822206D01*
X6791310Y-228147456D01*
X6615244Y-228493005D01*
X6476262Y-228855063D01*
X6375887Y-229229669D01*
X6375886Y-229229676D01*
X6315219Y-229612712D01*
X6294922Y-229999999D01*
X500500Y-229999999D01*
X500500Y-210249999D01*
X33304785Y-210249999D01*
X33304785Y-210250000D01*
X33323602Y-210453082D01*
X33377958Y-210644118D01*
X33379418Y-210649250D01*
X33379418Y-210649251D01*
X33379422Y-210649260D01*
X33470327Y-210831821D01*
X33593237Y-210994581D01*
X33743958Y-211131980D01*
X33743960Y-211131982D01*
X33843141Y-211193392D01*
X33917363Y-211239348D01*
X34107544Y-211313024D01*
X34308024Y-211350500D01*
X34308026Y-211350500D01*
X34511974Y-211350500D01*
X34511976Y-211350500D01*
X34712456Y-211313024D01*
X34902637Y-211239348D01*
X35076041Y-211131981D01*
X35226764Y-210994579D01*
X35349673Y-210831821D01*
X35349674Y-210831819D01*
X35443138Y-210644118D01*
X35443743Y-210644419D01*
X35468507Y-210606412D01*
X35824920Y-210249999D01*
X67880284Y-210249999D01*
X67880284Y-210250000D01*
X67899101Y-210453082D01*
X67953457Y-210644118D01*
X67954917Y-210649250D01*
X67954917Y-210649251D01*
X67954921Y-210649260D01*
X68045826Y-210831821D01*
X68168736Y-210994581D01*
X68319457Y-211131980D01*
X68319459Y-211131982D01*
X68418640Y-211193392D01*
X68492862Y-211239348D01*
X68683043Y-211313024D01*
X68883523Y-211350500D01*
X68883525Y-211350500D01*
X69087473Y-211350500D01*
X69087475Y-211350500D01*
X69287955Y-211313024D01*
X69478136Y-211239348D01*
X69651540Y-211131981D01*
X69802263Y-210994579D01*
X69925172Y-210831821D01*
X70016081Y-210649250D01*
X70016082Y-210649247D01*
X70017392Y-210646617D01*
X70040708Y-210614210D01*
X70404919Y-210250000D01*
X102449948Y-210250000D01*
X102449948Y-210250001D01*
X102468765Y-210453083D01*
X102524580Y-210649247D01*
X102524581Y-210649251D01*
X102524581Y-210649252D01*
X102524585Y-210649261D01*
X102615490Y-210831822D01*
X102738400Y-210994582D01*
X102889121Y-211131981D01*
X102889123Y-211131983D01*
X102889125Y-211131984D01*
X103062526Y-211239349D01*
X103252707Y-211313025D01*
X103453187Y-211350501D01*
X103453189Y-211350501D01*
X103657137Y-211350501D01*
X103657139Y-211350501D01*
X103857619Y-211313025D01*
X104047800Y-211239349D01*
X104221204Y-211131982D01*
X104371927Y-210994580D01*
X104494836Y-210831822D01*
X104585740Y-210649262D01*
X104588301Y-210644119D01*
X104588906Y-210644420D01*
X104613670Y-210606413D01*
X105840086Y-209379998D01*
X137019609Y-209379998D01*
X137019609Y-209379999D01*
X137038426Y-209583081D01*
X137094241Y-209779246D01*
X137094246Y-209779259D01*
X137185151Y-209961820D01*
X137308061Y-210124580D01*
X137458782Y-210261979D01*
X137458784Y-210261981D01*
X137557965Y-210323391D01*
X137632187Y-210369347D01*
X137822368Y-210443023D01*
X138022848Y-210480499D01*
X138022850Y-210480499D01*
X138226798Y-210480499D01*
X138226800Y-210480499D01*
X138427280Y-210443023D01*
X138617461Y-210369347D01*
X138790865Y-210261980D01*
X138941588Y-210124578D01*
X139064497Y-209961820D01*
X139155406Y-209779249D01*
X139211221Y-209583082D01*
X139230039Y-209379999D01*
X139211221Y-209176916D01*
X139155406Y-208980749D01*
X139146918Y-208963702D01*
X139138323Y-208946440D01*
X139125324Y-208891170D01*
X139125324Y-204070957D01*
X139145009Y-204003918D01*
X139161638Y-203983281D01*
X141867778Y-201277141D01*
X141867782Y-201277139D01*
X142007139Y-201137782D01*
X142116632Y-200973914D01*
X142180592Y-200819500D01*
X142192051Y-200791836D01*
X142213847Y-200682262D01*
X142230500Y-200598541D01*
X142230500Y-197498827D01*
X142243501Y-197443554D01*
X142260575Y-197409264D01*
X142260574Y-197409264D01*
X142260582Y-197409250D01*
X142316397Y-197213083D01*
X142329273Y-197074123D01*
X148427627Y-197074123D01*
X148427627Y-197074124D01*
X148446444Y-197277206D01*
X148502259Y-197473371D01*
X148502266Y-197473388D01*
X148519341Y-197507678D01*
X148532342Y-197562951D01*
X148532342Y-201431171D01*
X148519343Y-201486441D01*
X148502261Y-201520747D01*
X148446444Y-201716917D01*
X148427627Y-201919999D01*
X148427627Y-201920000D01*
X148446444Y-202123082D01*
X148502259Y-202319247D01*
X148502264Y-202319260D01*
X148593169Y-202501821D01*
X148716079Y-202664581D01*
X148866800Y-202801980D01*
X148866802Y-202801982D01*
X148965983Y-202863392D01*
X149040205Y-202909348D01*
X149230386Y-202983024D01*
X149430866Y-203020500D01*
X149430868Y-203020500D01*
X149634816Y-203020500D01*
X149634818Y-203020500D01*
X149835298Y-202983024D01*
X150025479Y-202909348D01*
X150198883Y-202801981D01*
X150349606Y-202664579D01*
X150472515Y-202501821D01*
X150563424Y-202319250D01*
X150619239Y-202123083D01*
X150638057Y-201920000D01*
X150619239Y-201716917D01*
X150563424Y-201520750D01*
X150548485Y-201490747D01*
X150546341Y-201486441D01*
X150533342Y-201431171D01*
X150533342Y-197562951D01*
X150546343Y-197507678D01*
X150563417Y-197473388D01*
X150563416Y-197473388D01*
X150563424Y-197473374D01*
X150619239Y-197277207D01*
X150638057Y-197074124D01*
X150632115Y-197009999D01*
X169214785Y-197009999D01*
X169214785Y-197010000D01*
X169233602Y-197213082D01*
X169289417Y-197409247D01*
X169289424Y-197409264D01*
X169306499Y-197443554D01*
X169319500Y-197498827D01*
X169319500Y-207974043D01*
X169319500Y-207974045D01*
X169319499Y-207974045D01*
X169357947Y-208167331D01*
X169357950Y-208167341D01*
X169433364Y-208349409D01*
X169433371Y-208349422D01*
X169542859Y-208513282D01*
X169542860Y-208513283D01*
X169542861Y-208513284D01*
X169682218Y-208652641D01*
X169682219Y-208652641D01*
X169689286Y-208659708D01*
X169689285Y-208659708D01*
X169689289Y-208659711D01*
X171635989Y-210606411D01*
X171660758Y-210644419D01*
X171661361Y-210644119D01*
X171754824Y-210831820D01*
X171877736Y-210994582D01*
X172028457Y-211131981D01*
X172028459Y-211131983D01*
X172028461Y-211131984D01*
X172201862Y-211239349D01*
X172392043Y-211313025D01*
X172592523Y-211350501D01*
X172592525Y-211350501D01*
X172796473Y-211350501D01*
X172796475Y-211350501D01*
X172996955Y-211313025D01*
X173187136Y-211239349D01*
X173360540Y-211131982D01*
X173511263Y-210994580D01*
X173634172Y-210831822D01*
X173725081Y-210649251D01*
X173780896Y-210453084D01*
X173799714Y-210250001D01*
X173780896Y-210046918D01*
X173725081Y-209850751D01*
X173725075Y-209850739D01*
X173634172Y-209668181D01*
X173634172Y-209668180D01*
X173511263Y-209505422D01*
X173511261Y-209505419D01*
X173360540Y-209368020D01*
X173360538Y-209368018D01*
X173187139Y-209260654D01*
X173187133Y-209260651D01*
X173102591Y-209227900D01*
X173102050Y-209227690D01*
X173059164Y-209199745D01*
X171356819Y-207497400D01*
X171323334Y-207436077D01*
X171320500Y-207409719D01*
X171320500Y-197498827D01*
X171333501Y-197443554D01*
X171350575Y-197409264D01*
X171350574Y-197409264D01*
X171350582Y-197409250D01*
X171406397Y-197213083D01*
X171419273Y-197074123D01*
X182997627Y-197074123D01*
X182997627Y-197074124D01*
X183016444Y-197277206D01*
X183072259Y-197473371D01*
X183072266Y-197473388D01*
X183089341Y-197507678D01*
X183102342Y-197562951D01*
X183102342Y-201431171D01*
X183089343Y-201486441D01*
X183072261Y-201520747D01*
X183016444Y-201716917D01*
X182997627Y-201919999D01*
X182997627Y-201920000D01*
X183016444Y-202123082D01*
X183072259Y-202319247D01*
X183072264Y-202319260D01*
X183163169Y-202501821D01*
X183286079Y-202664581D01*
X183436800Y-202801980D01*
X183436802Y-202801982D01*
X183535983Y-202863392D01*
X183610205Y-202909348D01*
X183800386Y-202983024D01*
X184000866Y-203020500D01*
X184000868Y-203020500D01*
X184204816Y-203020500D01*
X184204818Y-203020500D01*
X184405298Y-202983024D01*
X184595479Y-202909348D01*
X184768883Y-202801981D01*
X184919606Y-202664579D01*
X185042515Y-202501821D01*
X185133424Y-202319250D01*
X185189239Y-202123083D01*
X185208057Y-201920000D01*
X185189239Y-201716917D01*
X185133424Y-201520750D01*
X185118485Y-201490747D01*
X185116341Y-201486441D01*
X185103342Y-201431171D01*
X185103342Y-197562951D01*
X185116343Y-197507678D01*
X185133417Y-197473388D01*
X185133416Y-197473388D01*
X185133424Y-197473374D01*
X185189239Y-197277207D01*
X185208057Y-197074124D01*
X185202115Y-197009999D01*
X203794785Y-197009999D01*
X203794785Y-197010000D01*
X203813602Y-197213082D01*
X203869415Y-197409241D01*
X203869420Y-197409254D01*
X203882001Y-197434519D01*
X203895001Y-197489791D01*
X203895001Y-207974045D01*
X203933448Y-208167334D01*
X203933450Y-208167338D01*
X203955539Y-208220665D01*
X204008867Y-208349412D01*
X204008870Y-208349417D01*
X204118360Y-208513281D01*
X204118361Y-208513282D01*
X204118362Y-208513283D01*
X204257719Y-208652640D01*
X204257720Y-208652640D01*
X204264787Y-208659707D01*
X204264786Y-208659707D01*
X204264790Y-208659710D01*
X206210950Y-210605870D01*
X206236037Y-210644366D01*
X206236532Y-210644120D01*
X206238654Y-210648382D01*
X206238892Y-210648747D01*
X206239088Y-210649254D01*
X206329995Y-210831821D01*
X206452907Y-210994583D01*
X206603628Y-211131982D01*
X206603630Y-211131984D01*
X206702811Y-211193394D01*
X206777033Y-211239350D01*
X206967214Y-211313026D01*
X207167694Y-211350502D01*
X207167696Y-211350502D01*
X207371644Y-211350502D01*
X207371646Y-211350502D01*
X207572126Y-211313026D01*
X207762307Y-211239350D01*
X207935711Y-211131983D01*
X208086434Y-210994581D01*
X208209343Y-210831823D01*
X208300252Y-210649252D01*
X208356067Y-210453085D01*
X208374885Y-210250002D01*
X208356067Y-210046919D01*
X208300252Y-209850752D01*
X208300246Y-209850740D01*
X208255942Y-209761766D01*
X208209343Y-209668181D01*
X208086434Y-209505423D01*
X208086432Y-209505420D01*
X207935711Y-209368021D01*
X207935709Y-209368019D01*
X207762310Y-209260655D01*
X207762295Y-209260648D01*
X207677763Y-209227900D01*
X207634876Y-209199955D01*
X205932320Y-207497399D01*
X205898835Y-207436076D01*
X205896001Y-207409718D01*
X205896001Y-197507862D01*
X205909000Y-197452591D01*
X205930582Y-197409250D01*
X205986397Y-197213083D01*
X206002053Y-197044123D01*
X217534785Y-197044123D01*
X217534785Y-197044124D01*
X217553602Y-197247206D01*
X217609417Y-197443371D01*
X217609424Y-197443388D01*
X217626499Y-197477678D01*
X217639500Y-197532951D01*
X217639500Y-201401171D01*
X217626501Y-201456441D01*
X217609419Y-201490747D01*
X217553602Y-201686917D01*
X217534785Y-201889999D01*
X217534785Y-201890000D01*
X217553602Y-202093082D01*
X217609417Y-202289247D01*
X217609422Y-202289260D01*
X217700327Y-202471821D01*
X217823237Y-202634581D01*
X217973958Y-202771980D01*
X217973960Y-202771982D01*
X218022412Y-202801982D01*
X218147363Y-202879348D01*
X218337544Y-202953024D01*
X218538024Y-202990500D01*
X218538026Y-202990500D01*
X218741974Y-202990500D01*
X218741976Y-202990500D01*
X218942456Y-202953024D01*
X219132637Y-202879348D01*
X219306041Y-202771981D01*
X219456764Y-202634579D01*
X219579673Y-202471821D01*
X219670582Y-202289250D01*
X219726397Y-202093083D01*
X219745215Y-201890000D01*
X219726397Y-201686917D01*
X219670582Y-201490750D01*
X219655438Y-201460336D01*
X219653499Y-201456441D01*
X219640500Y-201401171D01*
X219640500Y-199096352D01*
X219660185Y-199029313D01*
X219712989Y-198983558D01*
X219782147Y-198973614D01*
X219845703Y-199002639D01*
X219863451Y-199021622D01*
X219873236Y-199034579D01*
X219873238Y-199034581D01*
X220023958Y-199171980D01*
X220023960Y-199171982D01*
X220123141Y-199233392D01*
X220197363Y-199279348D01*
X220282448Y-199312309D01*
X220325334Y-199340255D01*
X220524283Y-199539204D01*
X220524289Y-199539209D01*
X220585282Y-199600202D01*
X220608601Y-199632611D01*
X220700327Y-199816821D01*
X220823237Y-199979581D01*
X220973958Y-200116980D01*
X220973960Y-200116982D01*
X220981900Y-200121898D01*
X221147363Y-200224348D01*
X221224285Y-200254147D01*
X221267173Y-200282093D01*
X221540244Y-200555165D01*
X221563563Y-200587575D01*
X221650326Y-200761819D01*
X221650327Y-200761821D01*
X221693884Y-200819500D01*
X221773237Y-200924581D01*
X221923958Y-201061980D01*
X221923960Y-201061982D01*
X222023141Y-201123392D01*
X222097363Y-201169348D01*
X222287544Y-201243024D01*
X222488024Y-201280500D01*
X222488026Y-201280500D01*
X222691974Y-201280500D01*
X222691976Y-201280500D01*
X222892456Y-201243024D01*
X223082637Y-201169348D01*
X223256041Y-201061981D01*
X223406764Y-200924579D01*
X223529673Y-200761821D01*
X223529674Y-200761819D01*
X223623138Y-200574118D01*
X223623744Y-200574419D01*
X223648507Y-200536411D01*
X227873636Y-196311282D01*
X227916520Y-196283338D01*
X227952637Y-196269348D01*
X228126041Y-196161981D01*
X228276764Y-196024579D01*
X228399673Y-195861821D01*
X228490582Y-195679250D01*
X228546397Y-195483083D01*
X228565215Y-195280000D01*
X228546397Y-195076917D01*
X228490582Y-194880750D01*
X228399673Y-194698179D01*
X228276764Y-194535421D01*
X228276762Y-194535418D01*
X228126041Y-194398019D01*
X228126039Y-194398017D01*
X227952640Y-194290653D01*
X227952634Y-194290650D01*
X227851226Y-194251365D01*
X227808339Y-194223419D01*
X227731479Y-194146559D01*
X227731459Y-194146537D01*
X227584686Y-193999764D01*
X227584655Y-193999735D01*
X227571273Y-193986353D01*
X227544301Y-193940457D01*
X227542653Y-193941096D01*
X227540583Y-193935756D01*
X227540582Y-193935750D01*
X227538392Y-193931352D01*
X227449674Y-193753180D01*
X227326762Y-193590418D01*
X227176041Y-193453019D01*
X227176039Y-193453017D01*
X227002640Y-193345653D01*
X227002634Y-193345650D01*
X226909388Y-193309527D01*
X226866501Y-193281581D01*
X226618509Y-193033589D01*
X226593742Y-192995580D01*
X226593138Y-192995882D01*
X226499674Y-192808180D01*
X226376762Y-192645418D01*
X226226041Y-192508019D01*
X226226039Y-192508017D01*
X226052642Y-192400655D01*
X226052635Y-192400651D01*
X225957546Y-192363814D01*
X225862456Y-192326976D01*
X225661976Y-192289500D01*
X225458024Y-192289500D01*
X225257544Y-192326976D01*
X225257541Y-192326976D01*
X225257541Y-192326977D01*
X225067364Y-192400651D01*
X225067357Y-192400655D01*
X224893960Y-192508017D01*
X224893958Y-192508019D01*
X224743237Y-192645418D01*
X224620325Y-192808180D01*
X224526863Y-192995880D01*
X224526261Y-192995580D01*
X224501491Y-193033587D01*
X220276362Y-197258716D01*
X220233479Y-197286660D01*
X220197363Y-197300652D01*
X220197358Y-197300654D01*
X220023960Y-197408018D01*
X219882475Y-197536998D01*
X219819670Y-197567614D01*
X219750283Y-197559416D01*
X219696344Y-197515006D01*
X219674976Y-197448484D01*
X219679669Y-197411433D01*
X219726397Y-197247207D01*
X219745215Y-197044124D01*
X219726397Y-196841041D01*
X219670582Y-196644874D01*
X219653591Y-196610752D01*
X219594611Y-196492303D01*
X219579673Y-196462303D01*
X219456764Y-196299545D01*
X219456762Y-196299542D01*
X219306041Y-196162143D01*
X219306039Y-196162141D01*
X219132642Y-196054779D01*
X219132635Y-196054775D01*
X219019895Y-196011100D01*
X218942456Y-195981100D01*
X218741976Y-195943624D01*
X218538024Y-195943624D01*
X218337544Y-195981100D01*
X218337541Y-195981100D01*
X218337541Y-195981101D01*
X218147364Y-196054775D01*
X218147357Y-196054779D01*
X217973960Y-196162141D01*
X217973958Y-196162143D01*
X217823237Y-196299542D01*
X217700327Y-196462302D01*
X217609422Y-196644863D01*
X217609417Y-196644876D01*
X217553602Y-196841041D01*
X217534785Y-197044123D01*
X206002053Y-197044123D01*
X206005215Y-197010000D01*
X205986397Y-196806917D01*
X205930582Y-196610750D01*
X205839673Y-196428179D01*
X205716764Y-196265421D01*
X205716762Y-196265418D01*
X205566041Y-196128019D01*
X205566039Y-196128017D01*
X205392642Y-196020655D01*
X205392635Y-196020651D01*
X205271243Y-195973624D01*
X205202456Y-195946976D01*
X205001976Y-195909500D01*
X204798024Y-195909500D01*
X204597544Y-195946976D01*
X204597541Y-195946976D01*
X204597541Y-195946977D01*
X204407364Y-196020651D01*
X204407357Y-196020655D01*
X204233960Y-196128017D01*
X204233958Y-196128019D01*
X204083237Y-196265418D01*
X203960327Y-196428178D01*
X203869422Y-196610739D01*
X203869417Y-196610752D01*
X203813602Y-196806917D01*
X203794785Y-197009999D01*
X185202115Y-197009999D01*
X185189239Y-196871041D01*
X185133424Y-196674874D01*
X185118480Y-196644863D01*
X185089114Y-196585888D01*
X185042515Y-196492303D01*
X184919606Y-196329545D01*
X184919604Y-196329542D01*
X184768883Y-196192143D01*
X184768881Y-196192141D01*
X184595484Y-196084779D01*
X184595477Y-196084775D01*
X184500388Y-196047938D01*
X184405298Y-196011100D01*
X184204818Y-195973624D01*
X184000866Y-195973624D01*
X183800386Y-196011100D01*
X183800383Y-196011100D01*
X183800383Y-196011101D01*
X183610206Y-196084775D01*
X183610199Y-196084779D01*
X183436802Y-196192141D01*
X183436800Y-196192143D01*
X183286079Y-196329542D01*
X183163169Y-196492302D01*
X183072264Y-196674863D01*
X183072259Y-196674876D01*
X183016444Y-196871041D01*
X182997627Y-197074123D01*
X171419273Y-197074123D01*
X171425215Y-197010000D01*
X171406397Y-196806917D01*
X171350582Y-196610750D01*
X171259673Y-196428179D01*
X171136764Y-196265421D01*
X171136762Y-196265418D01*
X170986041Y-196128019D01*
X170986039Y-196128017D01*
X170812642Y-196020655D01*
X170812635Y-196020651D01*
X170691243Y-195973624D01*
X170622456Y-195946976D01*
X170421976Y-195909500D01*
X170218024Y-195909500D01*
X170017544Y-195946976D01*
X170017541Y-195946976D01*
X170017541Y-195946977D01*
X169827364Y-196020651D01*
X169827357Y-196020655D01*
X169653960Y-196128017D01*
X169653958Y-196128019D01*
X169503237Y-196265418D01*
X169380327Y-196428178D01*
X169289422Y-196610739D01*
X169289417Y-196610752D01*
X169233602Y-196806917D01*
X169214785Y-197009999D01*
X150632115Y-197009999D01*
X150619239Y-196871041D01*
X150563424Y-196674874D01*
X150548480Y-196644863D01*
X150519114Y-196585888D01*
X150472515Y-196492303D01*
X150349606Y-196329545D01*
X150349604Y-196329542D01*
X150198883Y-196192143D01*
X150198881Y-196192141D01*
X150025484Y-196084779D01*
X150025477Y-196084775D01*
X149930388Y-196047938D01*
X149835298Y-196011100D01*
X149634818Y-195973624D01*
X149430866Y-195973624D01*
X149230386Y-196011100D01*
X149230383Y-196011100D01*
X149230383Y-196011101D01*
X149040206Y-196084775D01*
X149040199Y-196084779D01*
X148866802Y-196192141D01*
X148866800Y-196192143D01*
X148716079Y-196329542D01*
X148593169Y-196492302D01*
X148502264Y-196674863D01*
X148502259Y-196674876D01*
X148446444Y-196871041D01*
X148427627Y-197074123D01*
X142329273Y-197074123D01*
X142335215Y-197010000D01*
X142316397Y-196806917D01*
X142260582Y-196610750D01*
X142169673Y-196428179D01*
X142046764Y-196265421D01*
X142046762Y-196265418D01*
X141896041Y-196128019D01*
X141896039Y-196128017D01*
X141722642Y-196020655D01*
X141722635Y-196020651D01*
X141601243Y-195973624D01*
X141532456Y-195946976D01*
X141331976Y-195909500D01*
X141128024Y-195909500D01*
X140927544Y-195946976D01*
X140927541Y-195946976D01*
X140927541Y-195946977D01*
X140737364Y-196020651D01*
X140737357Y-196020655D01*
X140563960Y-196128017D01*
X140563958Y-196128019D01*
X140413237Y-196265418D01*
X140290327Y-196428178D01*
X140199422Y-196610739D01*
X140199417Y-196610752D01*
X140143602Y-196806917D01*
X140124785Y-197009999D01*
X140124785Y-197010000D01*
X140143602Y-197213082D01*
X140199417Y-197409247D01*
X140199424Y-197409264D01*
X140216499Y-197443554D01*
X140229500Y-197498827D01*
X140229500Y-200034217D01*
X140209815Y-200101256D01*
X140193181Y-200121898D01*
X138854743Y-201460336D01*
X137487045Y-202828034D01*
X137487042Y-202828037D01*
X137435735Y-202879344D01*
X137347683Y-202967395D01*
X137238195Y-203131255D01*
X137238188Y-203131268D01*
X137162774Y-203313336D01*
X137162771Y-203313346D01*
X137124324Y-203506632D01*
X137124324Y-208891170D01*
X137111325Y-208946440D01*
X137094243Y-208980746D01*
X137038426Y-209176916D01*
X137019609Y-209379998D01*
X105840086Y-209379998D01*
X106787140Y-208432945D01*
X106842952Y-208349416D01*
X106896632Y-208269078D01*
X106972051Y-208086999D01*
X107010500Y-207893705D01*
X107010500Y-197528826D01*
X107023501Y-197473554D01*
X107040575Y-197439264D01*
X107040574Y-197439264D01*
X107040582Y-197439250D01*
X107096397Y-197243083D01*
X107115215Y-197040000D01*
X107096397Y-196836917D01*
X107040582Y-196640750D01*
X107040576Y-196640738D01*
X106996272Y-196551764D01*
X106949673Y-196458179D01*
X106838743Y-196311284D01*
X106826762Y-196295418D01*
X106676041Y-196158019D01*
X106676039Y-196158017D01*
X106502642Y-196050655D01*
X106502635Y-196050651D01*
X106400541Y-196011100D01*
X106312456Y-195976976D01*
X106111976Y-195939500D01*
X105908024Y-195939500D01*
X105707544Y-195976976D01*
X105707541Y-195976976D01*
X105707541Y-195976977D01*
X105517364Y-196050651D01*
X105517357Y-196050655D01*
X105343960Y-196158017D01*
X105343958Y-196158019D01*
X105193237Y-196295418D01*
X105070327Y-196458178D01*
X104979422Y-196640739D01*
X104979417Y-196640752D01*
X104923602Y-196836917D01*
X104904785Y-197039999D01*
X104904785Y-197040000D01*
X104923602Y-197243082D01*
X104979417Y-197439247D01*
X104979424Y-197439264D01*
X104996499Y-197473554D01*
X105009500Y-197528827D01*
X105009500Y-207329381D01*
X104989815Y-207396420D01*
X104973181Y-207417062D01*
X103190497Y-209199745D01*
X103147610Y-209227690D01*
X103062537Y-209260647D01*
X103062522Y-209260654D01*
X102889123Y-209368018D01*
X102889121Y-209368020D01*
X102738400Y-209505419D01*
X102615490Y-209668179D01*
X102524585Y-209850740D01*
X102524580Y-209850753D01*
X102468765Y-210046918D01*
X102449948Y-210250000D01*
X70404919Y-210250000D01*
X72221977Y-208432944D01*
X72277789Y-208349415D01*
X72331469Y-208269077D01*
X72384798Y-208140328D01*
X72406888Y-208086999D01*
X72445337Y-207893703D01*
X72445337Y-207696623D01*
X72445337Y-197528826D01*
X72458338Y-197473553D01*
X72475412Y-197439263D01*
X72475411Y-197439263D01*
X72475419Y-197439249D01*
X72531234Y-197243082D01*
X72550052Y-197039999D01*
X72531234Y-196836916D01*
X72475419Y-196640749D01*
X72460482Y-196610752D01*
X72401502Y-196492303D01*
X72384510Y-196458178D01*
X72261601Y-196295420D01*
X72261599Y-196295417D01*
X72110878Y-196158018D01*
X72110876Y-196158016D01*
X71937479Y-196050654D01*
X71937476Y-196050652D01*
X71937474Y-196050651D01*
X71937473Y-196050650D01*
X71937472Y-196050650D01*
X71835380Y-196011100D01*
X71747293Y-195976975D01*
X71546813Y-195939499D01*
X71342861Y-195939499D01*
X71142381Y-195976975D01*
X71142378Y-195976975D01*
X71142378Y-195976976D01*
X70952201Y-196050650D01*
X70952194Y-196050654D01*
X70778797Y-196158016D01*
X70778795Y-196158018D01*
X70628074Y-196295417D01*
X70505164Y-196458177D01*
X70414259Y-196640738D01*
X70414254Y-196640751D01*
X70358439Y-196836916D01*
X70339622Y-197039998D01*
X70339622Y-197039999D01*
X70358439Y-197243081D01*
X70405723Y-197409264D01*
X70414255Y-197439249D01*
X70414256Y-197439251D01*
X70414261Y-197439263D01*
X70431336Y-197473553D01*
X70444337Y-197528826D01*
X70444337Y-207329380D01*
X70424652Y-207396419D01*
X70408018Y-207417061D01*
X68628180Y-209196898D01*
X68585294Y-209224843D01*
X68492861Y-209260652D01*
X68492858Y-209260653D01*
X68319459Y-209368017D01*
X68319457Y-209368019D01*
X68168736Y-209505418D01*
X68045826Y-209668178D01*
X67954921Y-209850739D01*
X67954916Y-209850752D01*
X67899101Y-210046917D01*
X67880284Y-210249999D01*
X35824920Y-210249999D01*
X37641977Y-208432944D01*
X37697789Y-208349415D01*
X37751469Y-208269077D01*
X37804798Y-208140328D01*
X37826888Y-208086999D01*
X37865337Y-207893703D01*
X37865337Y-207696623D01*
X37865337Y-197528826D01*
X37878338Y-197473553D01*
X37895412Y-197439263D01*
X37895411Y-197439263D01*
X37895419Y-197439249D01*
X37951234Y-197243082D01*
X37970052Y-197039999D01*
X37951234Y-196836916D01*
X37895419Y-196640749D01*
X37880482Y-196610752D01*
X37821502Y-196492303D01*
X37804510Y-196458178D01*
X37681601Y-196295420D01*
X37681599Y-196295417D01*
X37530878Y-196158018D01*
X37530876Y-196158016D01*
X37357479Y-196050654D01*
X37357476Y-196050652D01*
X37357474Y-196050651D01*
X37357473Y-196050650D01*
X37357472Y-196050650D01*
X37255380Y-196011100D01*
X37167293Y-195976975D01*
X36966813Y-195939499D01*
X36762861Y-195939499D01*
X36562381Y-195976975D01*
X36562378Y-195976975D01*
X36562378Y-195976976D01*
X36372201Y-196050650D01*
X36372194Y-196050654D01*
X36198797Y-196158016D01*
X36198795Y-196158018D01*
X36048074Y-196295417D01*
X35925164Y-196458177D01*
X35834259Y-196640738D01*
X35834254Y-196640751D01*
X35778439Y-196836916D01*
X35759622Y-197039998D01*
X35759622Y-197039999D01*
X35778439Y-197243081D01*
X35825723Y-197409264D01*
X35834255Y-197439249D01*
X35834256Y-197439251D01*
X35834261Y-197439263D01*
X35851336Y-197473553D01*
X35864337Y-197528826D01*
X35864337Y-207329380D01*
X35844652Y-207396419D01*
X35828018Y-207417061D01*
X34045334Y-209199744D01*
X34002447Y-209227689D01*
X33917374Y-209260646D01*
X33917359Y-209260653D01*
X33743960Y-209368017D01*
X33743958Y-209368019D01*
X33593237Y-209505418D01*
X33470327Y-209668178D01*
X33379422Y-209850739D01*
X33379417Y-209850752D01*
X33323602Y-210046917D01*
X33304785Y-210249999D01*
X500500Y-210249999D01*
X500500Y-127900664D01*
X33374783Y-127900664D01*
X33374783Y-127900665D01*
X33393600Y-128103747D01*
X33449415Y-128299912D01*
X33449422Y-128299929D01*
X33466497Y-128334219D01*
X33479498Y-128389492D01*
X33479498Y-146171710D01*
X33474764Y-146205644D01*
X33463603Y-146244869D01*
X33463602Y-146244871D01*
X33444785Y-146447953D01*
X33444785Y-146447954D01*
X33463602Y-146651036D01*
X33519417Y-146847201D01*
X33519422Y-146847214D01*
X33610327Y-147029775D01*
X33733237Y-147192535D01*
X33883958Y-147329934D01*
X33883960Y-147329936D01*
X33983141Y-147391346D01*
X34057363Y-147437302D01*
X34247544Y-147510978D01*
X34448024Y-147548454D01*
X34448026Y-147548454D01*
X34651974Y-147548454D01*
X34651976Y-147548454D01*
X34852456Y-147510978D01*
X35042637Y-147437302D01*
X35216041Y-147329935D01*
X35366764Y-147192533D01*
X35489673Y-147029775D01*
X35580582Y-146847204D01*
X35636397Y-146651037D01*
X35655215Y-146447954D01*
X35636397Y-146244871D01*
X35580582Y-146048704D01*
X35580577Y-146048693D01*
X35580575Y-146048688D01*
X35493498Y-145873813D01*
X35480498Y-145818542D01*
X35480498Y-128389492D01*
X35493499Y-128334219D01*
X35510573Y-128299929D01*
X35510572Y-128299929D01*
X35510580Y-128299915D01*
X35566395Y-128103748D01*
X35585213Y-127900667D01*
X67944451Y-127900667D01*
X67944451Y-127900668D01*
X67963268Y-128103750D01*
X68019083Y-128299915D01*
X68019090Y-128299932D01*
X68036165Y-128334222D01*
X68049166Y-128389495D01*
X68049166Y-145992407D01*
X68040797Y-146037190D01*
X68039418Y-146040748D01*
X67983602Y-146236917D01*
X67964785Y-146439999D01*
X67964785Y-146440000D01*
X67983602Y-146643082D01*
X68039417Y-146839247D01*
X68039422Y-146839260D01*
X68130327Y-147021821D01*
X68253237Y-147184581D01*
X68403958Y-147321980D01*
X68403960Y-147321982D01*
X68503141Y-147383392D01*
X68577363Y-147429348D01*
X68767544Y-147503024D01*
X68968024Y-147540500D01*
X68968026Y-147540500D01*
X69171974Y-147540500D01*
X69171976Y-147540500D01*
X69372456Y-147503024D01*
X69562637Y-147429348D01*
X69736041Y-147321981D01*
X69886764Y-147184579D01*
X70009673Y-147021821D01*
X70100582Y-146839250D01*
X70156397Y-146643083D01*
X70175215Y-146440000D01*
X70156397Y-146236917D01*
X70100582Y-146040750D01*
X70100580Y-146040745D01*
X70100580Y-146040744D01*
X70063166Y-145965607D01*
X70050166Y-145910336D01*
X70050166Y-128389495D01*
X70063167Y-128334222D01*
X70080241Y-128299932D01*
X70080240Y-128299932D01*
X70080248Y-128299918D01*
X70136063Y-128103751D01*
X70154880Y-127900674D01*
X102514109Y-127900674D01*
X102514109Y-127900675D01*
X102532926Y-128103757D01*
X102588741Y-128299922D01*
X102588748Y-128299939D01*
X102605823Y-128334229D01*
X102618824Y-128389502D01*
X102618824Y-146001244D01*
X102610985Y-146043190D01*
X102610987Y-146043191D01*
X102610981Y-146043211D01*
X102610455Y-146046027D01*
X102609418Y-146048702D01*
X102553602Y-146244871D01*
X102534785Y-146447953D01*
X102534785Y-146447954D01*
X102553602Y-146651036D01*
X102609417Y-146847201D01*
X102609422Y-146847214D01*
X102700327Y-147029775D01*
X102823237Y-147192535D01*
X102973958Y-147329934D01*
X102973960Y-147329936D01*
X103073141Y-147391346D01*
X103147363Y-147437302D01*
X103337544Y-147510978D01*
X103538024Y-147548454D01*
X103538026Y-147548454D01*
X103741974Y-147548454D01*
X103741976Y-147548454D01*
X103942456Y-147510978D01*
X104132637Y-147437302D01*
X104306041Y-147329935D01*
X104456764Y-147192533D01*
X104579673Y-147029775D01*
X104670582Y-146847204D01*
X104726397Y-146651037D01*
X104745215Y-146447954D01*
X104726397Y-146244871D01*
X104670582Y-146048704D01*
X104632822Y-145972872D01*
X104619824Y-145917602D01*
X104619824Y-128389502D01*
X104632825Y-128334229D01*
X104649899Y-128299939D01*
X104649898Y-128299939D01*
X104649906Y-128299925D01*
X104705721Y-128103758D01*
X104724539Y-127900675D01*
X104705721Y-127697592D01*
X104649906Y-127501425D01*
X104649897Y-127501407D01*
X104559032Y-127318925D01*
X104558997Y-127318854D01*
X104436088Y-127156096D01*
X104436086Y-127156093D01*
X104285365Y-127018694D01*
X104285363Y-127018692D01*
X104111966Y-126911330D01*
X104111959Y-126911326D01*
X103921963Y-126837722D01*
X103921780Y-126837651D01*
X103721300Y-126800175D01*
X103517348Y-126800175D01*
X103316868Y-126837651D01*
X103316865Y-126837651D01*
X103316865Y-126837652D01*
X103126688Y-126911326D01*
X103126681Y-126911330D01*
X102953284Y-127018692D01*
X102953282Y-127018694D01*
X102802561Y-127156093D01*
X102679651Y-127318853D01*
X102588746Y-127501414D01*
X102588741Y-127501427D01*
X102532926Y-127697592D01*
X102514109Y-127900674D01*
X70154880Y-127900674D01*
X70154881Y-127900668D01*
X70136063Y-127697585D01*
X70080248Y-127501418D01*
X70080241Y-127501404D01*
X70027500Y-127395486D01*
X69989339Y-127318847D01*
X69866486Y-127156163D01*
X69866428Y-127156086D01*
X69715707Y-127018687D01*
X69715705Y-127018685D01*
X69542308Y-126911323D01*
X69542301Y-126911319D01*
X69437021Y-126870534D01*
X69352122Y-126837644D01*
X69151642Y-126800168D01*
X68947690Y-126800168D01*
X68747210Y-126837644D01*
X68747207Y-126837644D01*
X68747207Y-126837645D01*
X68557030Y-126911319D01*
X68557023Y-126911323D01*
X68383626Y-127018685D01*
X68383624Y-127018687D01*
X68232903Y-127156086D01*
X68109993Y-127318846D01*
X68019088Y-127501407D01*
X68019083Y-127501420D01*
X67963268Y-127697585D01*
X67944451Y-127900667D01*
X35585213Y-127900667D01*
X35585213Y-127900665D01*
X35566395Y-127697582D01*
X35510580Y-127501415D01*
X35510574Y-127501403D01*
X35419711Y-127318925D01*
X35419671Y-127318844D01*
X35360702Y-127240756D01*
X35296760Y-127156083D01*
X35146039Y-127018684D01*
X35146037Y-127018682D01*
X34972640Y-126911320D01*
X34972633Y-126911316D01*
X34782663Y-126837722D01*
X34782454Y-126837641D01*
X34581974Y-126800165D01*
X34378022Y-126800165D01*
X34177542Y-126837641D01*
X34177539Y-126837641D01*
X34177539Y-126837642D01*
X33987362Y-126911316D01*
X33987355Y-126911320D01*
X33813958Y-127018682D01*
X33813956Y-127018684D01*
X33663235Y-127156083D01*
X33540325Y-127318843D01*
X33449420Y-127501404D01*
X33449415Y-127501417D01*
X33393600Y-127697582D01*
X33374783Y-127900664D01*
X500500Y-127900664D01*
X500500Y-120000000D01*
X108494633Y-120000000D01*
X108514098Y-120668982D01*
X108514098Y-120668987D01*
X108568454Y-121290266D01*
X108572428Y-121335692D01*
X108669425Y-121997886D01*
X108669426Y-121997894D01*
X108669428Y-121997903D01*
X108804763Y-122653325D01*
X108977978Y-123299775D01*
X109188489Y-123935059D01*
X109368579Y-124388375D01*
X109435587Y-124557043D01*
X109718429Y-125163599D01*
X109718435Y-125163611D01*
X109718440Y-125163620D01*
X110036053Y-125752672D01*
X110036066Y-125752694D01*
X110387392Y-126322281D01*
X110387402Y-126322295D01*
X110387406Y-126322302D01*
X110722008Y-126800164D01*
X110771278Y-126870529D01*
X110771282Y-126870534D01*
X111125824Y-127318925D01*
X111186378Y-127395507D01*
X111631299Y-127895462D01*
X111631301Y-127895464D01*
X111631317Y-127895481D01*
X112104518Y-128368682D01*
X112104535Y-128368698D01*
X112104538Y-128368701D01*
X112604493Y-128813622D01*
X112604502Y-128813629D01*
X112604513Y-128813638D01*
X112742892Y-128923054D01*
X113129471Y-129228722D01*
X113677698Y-129612594D01*
X114247317Y-129963940D01*
X114836401Y-130281571D01*
X115442957Y-130564413D01*
X116064933Y-130811508D01*
X116700224Y-131022021D01*
X117346680Y-131195238D01*
X118002114Y-131330575D01*
X118664308Y-131427572D01*
X119331022Y-131485902D01*
X120000000Y-131505367D01*
X120668978Y-131485902D01*
X121335692Y-131427572D01*
X121997886Y-131330575D01*
X122653320Y-131195238D01*
X123299776Y-131022021D01*
X123935067Y-130811508D01*
X124557043Y-130564413D01*
X125163599Y-130281571D01*
X125752684Y-129963940D01*
X126322302Y-129612594D01*
X126870529Y-129228722D01*
X127395507Y-128813622D01*
X127895462Y-128368701D01*
X128363500Y-127900663D01*
X137083795Y-127900663D01*
X137083795Y-127900664D01*
X137102612Y-128103746D01*
X137158427Y-128299911D01*
X137158428Y-128299914D01*
X137158428Y-128299915D01*
X137158432Y-128299924D01*
X137249337Y-128482485D01*
X137372247Y-128645245D01*
X137522968Y-128782644D01*
X137522970Y-128782646D01*
X137622151Y-128844056D01*
X137696373Y-128890012D01*
X137781457Y-128922973D01*
X137824345Y-128950919D01*
X139713181Y-130839755D01*
X139746666Y-130901078D01*
X139749500Y-130927436D01*
X139749500Y-145979208D01*
X139736502Y-146034477D01*
X139729418Y-146048703D01*
X139673602Y-146244871D01*
X139654785Y-146447953D01*
X139654785Y-146447954D01*
X139673602Y-146651036D01*
X139729417Y-146847201D01*
X139729422Y-146847214D01*
X139820327Y-147029775D01*
X139943237Y-147192535D01*
X140093958Y-147329934D01*
X140093960Y-147329936D01*
X140193141Y-147391346D01*
X140267363Y-147437302D01*
X140457544Y-147510978D01*
X140658024Y-147548454D01*
X140658026Y-147548454D01*
X140861974Y-147548454D01*
X140861976Y-147548454D01*
X141062456Y-147510978D01*
X141252637Y-147437302D01*
X141426041Y-147329935D01*
X141576764Y-147192533D01*
X141699673Y-147029775D01*
X141790582Y-146847204D01*
X141846397Y-146651037D01*
X141865215Y-146447954D01*
X141865215Y-146447953D01*
X148404785Y-146447953D01*
X148404785Y-146447954D01*
X148423602Y-146651036D01*
X148479417Y-146847201D01*
X148479422Y-146847214D01*
X148570327Y-147029775D01*
X148693237Y-147192535D01*
X148843958Y-147329934D01*
X148843960Y-147329936D01*
X148943141Y-147391346D01*
X149017363Y-147437302D01*
X149207544Y-147510978D01*
X149408024Y-147548454D01*
X149408026Y-147548454D01*
X149611974Y-147548454D01*
X149611976Y-147548454D01*
X149812456Y-147510978D01*
X150002637Y-147437302D01*
X150176041Y-147329935D01*
X150326764Y-147192533D01*
X150449673Y-147029775D01*
X150540582Y-146847204D01*
X150596397Y-146651037D01*
X150615215Y-146447954D01*
X150615215Y-146447953D01*
X169374785Y-146447953D01*
X169374785Y-146447954D01*
X169393602Y-146651036D01*
X169449417Y-146847201D01*
X169449422Y-146847214D01*
X169540327Y-147029775D01*
X169663237Y-147192535D01*
X169813958Y-147329934D01*
X169813960Y-147329936D01*
X169913141Y-147391346D01*
X169987363Y-147437302D01*
X170177544Y-147510978D01*
X170378024Y-147548454D01*
X170378026Y-147548454D01*
X170581974Y-147548454D01*
X170581976Y-147548454D01*
X170782456Y-147510978D01*
X170972637Y-147437302D01*
X171146041Y-147329935D01*
X171296764Y-147192533D01*
X171419673Y-147029775D01*
X171510582Y-146847204D01*
X171566397Y-146651037D01*
X171585215Y-146447954D01*
X171585215Y-146447953D01*
X182975085Y-146447953D01*
X182975085Y-146447954D01*
X182993902Y-146651036D01*
X183049717Y-146847201D01*
X183049722Y-146847214D01*
X183140627Y-147029775D01*
X183263537Y-147192535D01*
X183414258Y-147329934D01*
X183414260Y-147329936D01*
X183513441Y-147391346D01*
X183587663Y-147437302D01*
X183777844Y-147510978D01*
X183978324Y-147548454D01*
X183978326Y-147548454D01*
X184182274Y-147548454D01*
X184182276Y-147548454D01*
X184382756Y-147510978D01*
X184572937Y-147437302D01*
X184746341Y-147329935D01*
X184897064Y-147192533D01*
X185019973Y-147029775D01*
X185110882Y-146847204D01*
X185166697Y-146651037D01*
X185185515Y-146447954D01*
X185185515Y-146447953D01*
X203904785Y-146447953D01*
X203904785Y-146447954D01*
X203923602Y-146651036D01*
X203979417Y-146847201D01*
X203979422Y-146847214D01*
X204070327Y-147029775D01*
X204193237Y-147192535D01*
X204343958Y-147329934D01*
X204343960Y-147329936D01*
X204443141Y-147391346D01*
X204517363Y-147437302D01*
X204707544Y-147510978D01*
X204908024Y-147548454D01*
X204908026Y-147548454D01*
X205111974Y-147548454D01*
X205111976Y-147548454D01*
X205312456Y-147510978D01*
X205502637Y-147437302D01*
X205676041Y-147329935D01*
X205826764Y-147192533D01*
X205949673Y-147029775D01*
X206040582Y-146847204D01*
X206096397Y-146651037D01*
X206115215Y-146447954D01*
X206115215Y-146447953D01*
X217544785Y-146447953D01*
X217544785Y-146447954D01*
X217563602Y-146651036D01*
X217619417Y-146847201D01*
X217619422Y-146847214D01*
X217710327Y-147029775D01*
X217833237Y-147192535D01*
X217983958Y-147329934D01*
X217983960Y-147329936D01*
X218083141Y-147391346D01*
X218157363Y-147437302D01*
X218347544Y-147510978D01*
X218548024Y-147548454D01*
X218548026Y-147548454D01*
X218751974Y-147548454D01*
X218751976Y-147548454D01*
X218952456Y-147510978D01*
X219142637Y-147437302D01*
X219316041Y-147329935D01*
X219466764Y-147192533D01*
X219589673Y-147029775D01*
X219680582Y-146847204D01*
X219736397Y-146651037D01*
X219755215Y-146447954D01*
X219736397Y-146244871D01*
X219680582Y-146048704D01*
X219671176Y-146029814D01*
X219663499Y-146014395D01*
X219650500Y-145959125D01*
X219650500Y-133298909D01*
X219663500Y-133243637D01*
X219690582Y-133189250D01*
X219746397Y-132993083D01*
X219765215Y-132790000D01*
X219746397Y-132586917D01*
X219690582Y-132390750D01*
X219599673Y-132208179D01*
X219476764Y-132045421D01*
X219476762Y-132045418D01*
X219326041Y-131908019D01*
X219326039Y-131908017D01*
X219152642Y-131800655D01*
X219152635Y-131800651D01*
X219057546Y-131763814D01*
X218962456Y-131726976D01*
X218761976Y-131689500D01*
X218558024Y-131689500D01*
X218357544Y-131726976D01*
X218357541Y-131726976D01*
X218357541Y-131726977D01*
X218167364Y-131800651D01*
X218167357Y-131800655D01*
X217993960Y-131908017D01*
X217993958Y-131908019D01*
X217843237Y-132045418D01*
X217720327Y-132208178D01*
X217629422Y-132390739D01*
X217629417Y-132390752D01*
X217573602Y-132586917D01*
X217554785Y-132789999D01*
X217554785Y-132790000D01*
X217573602Y-132993082D01*
X217629419Y-133189255D01*
X217636499Y-133203472D01*
X217649500Y-133258745D01*
X217649500Y-145959125D01*
X217636501Y-146014395D01*
X217619423Y-146048693D01*
X217619418Y-146048704D01*
X217612290Y-146073755D01*
X217563602Y-146244871D01*
X217544785Y-146447953D01*
X206115215Y-146447953D01*
X206096397Y-146244871D01*
X206040582Y-146048704D01*
X206040574Y-146048688D01*
X206013500Y-145994316D01*
X206000500Y-145939044D01*
X206000500Y-130694885D01*
X206020185Y-130627846D01*
X206036814Y-130607209D01*
X207693024Y-128950998D01*
X207735911Y-128923054D01*
X207820988Y-128890096D01*
X207820987Y-128890096D01*
X207820996Y-128890093D01*
X207994400Y-128782726D01*
X208145123Y-128645324D01*
X208268032Y-128482566D01*
X208358941Y-128299995D01*
X208414756Y-128103828D01*
X208433574Y-127900745D01*
X208433567Y-127900674D01*
X208414756Y-127697662D01*
X208371107Y-127544255D01*
X208358941Y-127501495D01*
X208358907Y-127501427D01*
X208314631Y-127412509D01*
X208268032Y-127318924D01*
X208145123Y-127156166D01*
X208145121Y-127156163D01*
X207994400Y-127018764D01*
X207994398Y-127018762D01*
X207821001Y-126911400D01*
X207820994Y-126911396D01*
X207715503Y-126870529D01*
X207630815Y-126837721D01*
X207430335Y-126800245D01*
X207226383Y-126800245D01*
X207025903Y-126837721D01*
X207025900Y-126837721D01*
X207025900Y-126837722D01*
X206835723Y-126911396D01*
X206835716Y-126911400D01*
X206662319Y-127018762D01*
X206662317Y-127018764D01*
X206511596Y-127156163D01*
X206388684Y-127318925D01*
X206295222Y-127506625D01*
X206294620Y-127506325D01*
X206269850Y-127544332D01*
X205168940Y-128645243D01*
X204362221Y-129451962D01*
X204362218Y-129451965D01*
X204292538Y-129521644D01*
X204222859Y-129591323D01*
X204113371Y-129755184D01*
X204113364Y-129755197D01*
X204084919Y-129823872D01*
X204084919Y-129823873D01*
X204037949Y-129937267D01*
X204037947Y-129937275D01*
X204018724Y-130033916D01*
X203999500Y-130130559D01*
X203999500Y-145979208D01*
X203986502Y-146034477D01*
X203979418Y-146048703D01*
X203923602Y-146244871D01*
X203904785Y-146447953D01*
X185185515Y-146447953D01*
X185166697Y-146244871D01*
X185110882Y-146048704D01*
X185101476Y-146029814D01*
X185093799Y-146014395D01*
X185080800Y-145959125D01*
X185080800Y-133298909D01*
X185093800Y-133243637D01*
X185120882Y-133189250D01*
X185176697Y-132993083D01*
X185195515Y-132790000D01*
X185176697Y-132586917D01*
X185120882Y-132390750D01*
X185029973Y-132208179D01*
X184907064Y-132045421D01*
X184907062Y-132045418D01*
X184756341Y-131908019D01*
X184756339Y-131908017D01*
X184582942Y-131800655D01*
X184582935Y-131800651D01*
X184487846Y-131763814D01*
X184392756Y-131726976D01*
X184192276Y-131689500D01*
X183988324Y-131689500D01*
X183787844Y-131726976D01*
X183787841Y-131726976D01*
X183787841Y-131726977D01*
X183597664Y-131800651D01*
X183597657Y-131800655D01*
X183424260Y-131908017D01*
X183424258Y-131908019D01*
X183273537Y-132045418D01*
X183150627Y-132208178D01*
X183059722Y-132390739D01*
X183059717Y-132390752D01*
X183003902Y-132586917D01*
X182985085Y-132789999D01*
X182985085Y-132790000D01*
X183003902Y-132993082D01*
X183059719Y-133189255D01*
X183066799Y-133203472D01*
X183079800Y-133258745D01*
X183079800Y-145959125D01*
X183066801Y-146014395D01*
X183049723Y-146048693D01*
X183049718Y-146048704D01*
X183042590Y-146073755D01*
X182993902Y-146244871D01*
X182975085Y-146447953D01*
X171585215Y-146447953D01*
X171566397Y-146244871D01*
X171510582Y-146048704D01*
X171501176Y-146029814D01*
X171493499Y-146014395D01*
X171480500Y-145959125D01*
X171480500Y-130645109D01*
X171500185Y-130578070D01*
X171516819Y-130557428D01*
X172319063Y-129755184D01*
X173123325Y-128950921D01*
X173166209Y-128922978D01*
X173251296Y-128890016D01*
X173424700Y-128782649D01*
X173552781Y-128665887D01*
X173575421Y-128645249D01*
X173575423Y-128645247D01*
X173698332Y-128482489D01*
X173789241Y-128299918D01*
X173845056Y-128103751D01*
X173863874Y-127900668D01*
X173845056Y-127697585D01*
X173789241Y-127501418D01*
X173789234Y-127501404D01*
X173736493Y-127395486D01*
X173698332Y-127318847D01*
X173575479Y-127156163D01*
X173575421Y-127156086D01*
X173424700Y-127018687D01*
X173424698Y-127018685D01*
X173251301Y-126911323D01*
X173251294Y-126911319D01*
X173146014Y-126870534D01*
X173061115Y-126837644D01*
X172860635Y-126800168D01*
X172656683Y-126800168D01*
X172456203Y-126837644D01*
X172456200Y-126837644D01*
X172456200Y-126837645D01*
X172266023Y-126911319D01*
X172266016Y-126911323D01*
X172092619Y-127018685D01*
X172092617Y-127018687D01*
X171941896Y-127156086D01*
X171818986Y-127318846D01*
X171725521Y-127506550D01*
X171724916Y-127506248D01*
X171700150Y-127544255D01*
X170761921Y-128482485D01*
X169842220Y-129402186D01*
X169842218Y-129402188D01*
X169792444Y-129451962D01*
X169702859Y-129541546D01*
X169593371Y-129705406D01*
X169593364Y-129705419D01*
X169517950Y-129887487D01*
X169517947Y-129887497D01*
X169479500Y-130080783D01*
X169479500Y-145959125D01*
X169466501Y-146014395D01*
X169449423Y-146048693D01*
X169449418Y-146048704D01*
X169442290Y-146073755D01*
X169393602Y-146244871D01*
X169374785Y-146447953D01*
X150615215Y-146447953D01*
X150596397Y-146244871D01*
X150540582Y-146048704D01*
X150524150Y-146015705D01*
X150511151Y-145960434D01*
X150511151Y-133298909D01*
X150524151Y-133243637D01*
X150551233Y-133189250D01*
X150607048Y-132993083D01*
X150625866Y-132790000D01*
X150607048Y-132586917D01*
X150551233Y-132390750D01*
X150460324Y-132208179D01*
X150337415Y-132045421D01*
X150337413Y-132045418D01*
X150186692Y-131908019D01*
X150186690Y-131908017D01*
X150013293Y-131800655D01*
X150013286Y-131800651D01*
X149918197Y-131763814D01*
X149823107Y-131726976D01*
X149622627Y-131689500D01*
X149418675Y-131689500D01*
X149218195Y-131726976D01*
X149218192Y-131726976D01*
X149218192Y-131726977D01*
X149028015Y-131800651D01*
X149028008Y-131800655D01*
X148854611Y-131908017D01*
X148854609Y-131908019D01*
X148703888Y-132045418D01*
X148580978Y-132208178D01*
X148490073Y-132390739D01*
X148490068Y-132390752D01*
X148434253Y-132586917D01*
X148415436Y-132789999D01*
X148415436Y-132790000D01*
X148434253Y-132993082D01*
X148490070Y-133189255D01*
X148497150Y-133203472D01*
X148510151Y-133258745D01*
X148510151Y-145957818D01*
X148497152Y-146013088D01*
X148479426Y-146048688D01*
X148479418Y-146048704D01*
X148472290Y-146073755D01*
X148423602Y-146244871D01*
X148404785Y-146447953D01*
X141865215Y-146447953D01*
X141846397Y-146244871D01*
X141790582Y-146048704D01*
X141790574Y-146048688D01*
X141763500Y-145994316D01*
X141750500Y-145939044D01*
X141750500Y-130363110D01*
X141712052Y-130169824D01*
X141712051Y-130169823D01*
X141712051Y-130169819D01*
X141675173Y-130080786D01*
X141636635Y-129987746D01*
X141636628Y-129987733D01*
X141527139Y-129823872D01*
X141527136Y-129823868D01*
X141384686Y-129681418D01*
X141384655Y-129681389D01*
X139247519Y-127544253D01*
X139222752Y-127506244D01*
X139222148Y-127506546D01*
X139128684Y-127318844D01*
X139005772Y-127156082D01*
X138855051Y-127018683D01*
X138855049Y-127018681D01*
X138681652Y-126911319D01*
X138681649Y-126911317D01*
X138681647Y-126911316D01*
X138681646Y-126911315D01*
X138681645Y-126911315D01*
X138576363Y-126870529D01*
X138491466Y-126837640D01*
X138290986Y-126800164D01*
X138087034Y-126800164D01*
X137886554Y-126837640D01*
X137886551Y-126837640D01*
X137886551Y-126837641D01*
X137696374Y-126911315D01*
X137696367Y-126911319D01*
X137522970Y-127018681D01*
X137522968Y-127018683D01*
X137372247Y-127156082D01*
X137249337Y-127318842D01*
X137158432Y-127501403D01*
X137158427Y-127501416D01*
X137102612Y-127697581D01*
X137083795Y-127900663D01*
X128363500Y-127900663D01*
X128368701Y-127895462D01*
X128813622Y-127395507D01*
X129228722Y-126870529D01*
X129612594Y-126322302D01*
X129963940Y-125752684D01*
X130281571Y-125163599D01*
X130564413Y-124557043D01*
X130811508Y-123935067D01*
X131022021Y-123299776D01*
X131195238Y-122653320D01*
X131330575Y-121997886D01*
X131427572Y-121335692D01*
X131485902Y-120668978D01*
X131505367Y-120000000D01*
X131485902Y-119331022D01*
X131427572Y-118664308D01*
X131330575Y-118002114D01*
X131195238Y-117346680D01*
X131022021Y-116700224D01*
X130811508Y-116064933D01*
X130564413Y-115442957D01*
X130281571Y-114836401D01*
X129963940Y-114247317D01*
X129612594Y-113677698D01*
X129228722Y-113129471D01*
X128813622Y-112604493D01*
X128368701Y-112104538D01*
X128368698Y-112104535D01*
X128368682Y-112104518D01*
X127895481Y-111631317D01*
X127895464Y-111631301D01*
X127884134Y-111621218D01*
X127395507Y-111186378D01*
X126870529Y-110771278D01*
X126322302Y-110387406D01*
X125752683Y-110036060D01*
X125752674Y-110036055D01*
X125752669Y-110036052D01*
X125163620Y-109718440D01*
X125163611Y-109718435D01*
X125163599Y-109718429D01*
X124962719Y-109624757D01*
X124557054Y-109435592D01*
X124557050Y-109435590D01*
X124557043Y-109435587D01*
X124557036Y-109435584D01*
X124557024Y-109435579D01*
X123935059Y-109188489D01*
X123299775Y-108977978D01*
X122653325Y-108804763D01*
X121997903Y-108669428D01*
X121997894Y-108669426D01*
X121997886Y-108669425D01*
X121335692Y-108572428D01*
X121335677Y-108572426D01*
X121335671Y-108572426D01*
X120668985Y-108514098D01*
X120000000Y-108494633D01*
X119331017Y-108514098D01*
X119331012Y-108514098D01*
X118664328Y-108572426D01*
X118664317Y-108572427D01*
X118664308Y-108572428D01*
X118002114Y-108669425D01*
X118002107Y-108669426D01*
X118002096Y-108669428D01*
X117346674Y-108804763D01*
X116700224Y-108977978D01*
X116064940Y-109188489D01*
X115442975Y-109435579D01*
X115442945Y-109435592D01*
X114836413Y-109718423D01*
X114836379Y-109718440D01*
X114247330Y-110036052D01*
X113677698Y-110387406D01*
X113129470Y-110771278D01*
X113129465Y-110771282D01*
X112604513Y-111186361D01*
X112604502Y-111186370D01*
X112104535Y-111631301D01*
X112104518Y-111631317D01*
X111631317Y-112104518D01*
X111631301Y-112104535D01*
X111186370Y-112604502D01*
X111186361Y-112604513D01*
X110771282Y-113129465D01*
X110771278Y-113129470D01*
X110387406Y-113677698D01*
X110036052Y-114247330D01*
X109718440Y-114836379D01*
X109718423Y-114836413D01*
X109435592Y-115442945D01*
X109435579Y-115442975D01*
X109188489Y-116064940D01*
X108977978Y-116700224D01*
X108804763Y-117346674D01*
X108669428Y-118002096D01*
X108669426Y-118002107D01*
X108669425Y-118002114D01*
X108572428Y-118664308D01*
X108572428Y-118664310D01*
X108572426Y-118664328D01*
X108514098Y-119331012D01*
X108514098Y-119331017D01*
X108494633Y-120000000D01*
X500500Y-120000000D01*
X500500Y-99039999D01*
X130964785Y-99039999D01*
X130964785Y-99040000D01*
X130983602Y-99243082D01*
X131039417Y-99439247D01*
X131039422Y-99439260D01*
X131130327Y-99621821D01*
X131253237Y-99784581D01*
X131403958Y-99921980D01*
X131403960Y-99921982D01*
X131492217Y-99976628D01*
X131577363Y-100029348D01*
X131767544Y-100103024D01*
X131968024Y-100140500D01*
X131968026Y-100140500D01*
X132171974Y-100140500D01*
X132171976Y-100140500D01*
X132372456Y-100103024D01*
X132383169Y-100098873D01*
X132427962Y-100090500D01*
X133177969Y-100090500D01*
X133222763Y-100098873D01*
X133362544Y-100153024D01*
X133563024Y-100190500D01*
X133563026Y-100190500D01*
X133766974Y-100190500D01*
X133766976Y-100190500D01*
X133967456Y-100153024D01*
X134107237Y-100098873D01*
X134152031Y-100090500D01*
X134772969Y-100090500D01*
X134817763Y-100098873D01*
X134957544Y-100153024D01*
X135158024Y-100190500D01*
X135158026Y-100190500D01*
X135361974Y-100190500D01*
X135361976Y-100190500D01*
X135562456Y-100153024D01*
X135702237Y-100098873D01*
X135747031Y-100090500D01*
X217028542Y-100090500D01*
X217047870Y-100086655D01*
X217125188Y-100071275D01*
X217221836Y-100052051D01*
X217276645Y-100029348D01*
X217403914Y-99976632D01*
X217567782Y-99867139D01*
X217707139Y-99727782D01*
X217707139Y-99727780D01*
X217717347Y-99717573D01*
X217717348Y-99717570D01*
X227313102Y-90121819D01*
X227374425Y-90088334D01*
X227400783Y-90085500D01*
X228851459Y-90085500D01*
X229569218Y-90085500D01*
X229636257Y-90105185D01*
X229656899Y-90121819D01*
X230281490Y-90746410D01*
X230306259Y-90784418D01*
X230306862Y-90784118D01*
X230400325Y-90971819D01*
X230523237Y-91134581D01*
X230673958Y-91271980D01*
X230673960Y-91271982D01*
X230773141Y-91333392D01*
X230847363Y-91379348D01*
X231037544Y-91453024D01*
X231238024Y-91490500D01*
X231238026Y-91490500D01*
X231441974Y-91490500D01*
X231441976Y-91490500D01*
X231642456Y-91453024D01*
X231832637Y-91379348D01*
X232006041Y-91271981D01*
X232156764Y-91134579D01*
X232279673Y-90971821D01*
X232370582Y-90789250D01*
X232426397Y-90593083D01*
X232445215Y-90390000D01*
X232426397Y-90186917D01*
X232370582Y-89990750D01*
X232363498Y-89976523D01*
X232350500Y-89921254D01*
X232350500Y-89553745D01*
X232363501Y-89498472D01*
X232370580Y-89484255D01*
X232370580Y-89484252D01*
X232370582Y-89484250D01*
X232426397Y-89288083D01*
X232445215Y-89085000D01*
X232426397Y-88881917D01*
X232370582Y-88685750D01*
X232362094Y-88668703D01*
X232353499Y-88651441D01*
X232340500Y-88596171D01*
X232340500Y-88268827D01*
X232353501Y-88213554D01*
X232370575Y-88179264D01*
X232370574Y-88179264D01*
X232370582Y-88179250D01*
X232426397Y-87983083D01*
X232445215Y-87780000D01*
X232426397Y-87576917D01*
X232370582Y-87380750D01*
X232279673Y-87198179D01*
X232156764Y-87035421D01*
X232156762Y-87035418D01*
X232006041Y-86898019D01*
X232006039Y-86898017D01*
X231832642Y-86790655D01*
X231832635Y-86790651D01*
X231737546Y-86753814D01*
X231642456Y-86716976D01*
X231441976Y-86679500D01*
X231238024Y-86679500D01*
X231037544Y-86716976D01*
X231037541Y-86716976D01*
X231037541Y-86716977D01*
X230847364Y-86790651D01*
X230847357Y-86790655D01*
X230673960Y-86898017D01*
X230673958Y-86898019D01*
X230523237Y-87035418D01*
X230400327Y-87198178D01*
X230306862Y-87385882D01*
X230306257Y-87385580D01*
X230281491Y-87423587D01*
X229656899Y-88048181D01*
X229595576Y-88081666D01*
X229569218Y-88084500D01*
X229048541Y-88084500D01*
X226836459Y-88084500D01*
X226819120Y-88087949D01*
X226819119Y-88087949D01*
X226643171Y-88122946D01*
X226643164Y-88122948D01*
X226461088Y-88198366D01*
X226461079Y-88198371D01*
X226297219Y-88307859D01*
X226297215Y-88307862D01*
X216551899Y-98053181D01*
X216490576Y-98086666D01*
X216464218Y-98089500D01*
X135747031Y-98089500D01*
X135702237Y-98081127D01*
X135623571Y-98050652D01*
X135562456Y-98026976D01*
X135361976Y-97989500D01*
X135158024Y-97989500D01*
X134957544Y-98026976D01*
X134957541Y-98026976D01*
X134957541Y-98026977D01*
X134817763Y-98081127D01*
X134772969Y-98089500D01*
X134152031Y-98089500D01*
X134107237Y-98081127D01*
X134028571Y-98050652D01*
X133967456Y-98026976D01*
X133766976Y-97989500D01*
X133563024Y-97989500D01*
X133362544Y-98026976D01*
X133362541Y-98026976D01*
X133362541Y-98026977D01*
X133222763Y-98081127D01*
X133177969Y-98089500D01*
X132660660Y-98089500D01*
X132595383Y-98070927D01*
X132562642Y-98050655D01*
X132562635Y-98050651D01*
X132404784Y-97989500D01*
X132372456Y-97976976D01*
X132171976Y-97939500D01*
X131968024Y-97939500D01*
X131767544Y-97976976D01*
X131767541Y-97976976D01*
X131767541Y-97976977D01*
X131577364Y-98050651D01*
X131577357Y-98050655D01*
X131403960Y-98158017D01*
X131403958Y-98158019D01*
X131253237Y-98295418D01*
X131130327Y-98458178D01*
X131039422Y-98640739D01*
X131039417Y-98640752D01*
X130983602Y-98836917D01*
X130964785Y-99039999D01*
X500500Y-99039999D01*
X500500Y-93632314D01*
X14314785Y-93632314D01*
X14314785Y-93632315D01*
X14333602Y-93835397D01*
X14389417Y-94031562D01*
X14389422Y-94031575D01*
X14480327Y-94214136D01*
X14603237Y-94376896D01*
X14753958Y-94514295D01*
X14753960Y-94514297D01*
X14786536Y-94534467D01*
X14927363Y-94621663D01*
X15117544Y-94695339D01*
X15318024Y-94732815D01*
X15318026Y-94732815D01*
X15521974Y-94732815D01*
X15521976Y-94732815D01*
X15722456Y-94695339D01*
X15912637Y-94621663D01*
X16086041Y-94514296D01*
X16236764Y-94376894D01*
X16359673Y-94214136D01*
X16450582Y-94031565D01*
X16506397Y-93835398D01*
X16525215Y-93632315D01*
X16506397Y-93429232D01*
X16476285Y-93323399D01*
X16450234Y-93231839D01*
X16445500Y-93197905D01*
X16445500Y-75778828D01*
X16458501Y-75723555D01*
X16475575Y-75689265D01*
X16475574Y-75689265D01*
X16475582Y-75689251D01*
X16531397Y-75493084D01*
X16550215Y-75290001D01*
X16550215Y-75289999D01*
X48886455Y-75289999D01*
X48886455Y-75290000D01*
X48905272Y-75493082D01*
X48961087Y-75689247D01*
X48961088Y-75689250D01*
X48961089Y-75689252D01*
X48961094Y-75689264D01*
X48978169Y-75723554D01*
X48991170Y-75778827D01*
X48991170Y-93449755D01*
X48990641Y-93461196D01*
X48974785Y-93632314D01*
X48974785Y-93632315D01*
X48993602Y-93835397D01*
X49049417Y-94031562D01*
X49049422Y-94031575D01*
X49140327Y-94214136D01*
X49263237Y-94376896D01*
X49413958Y-94514295D01*
X49413960Y-94514297D01*
X49446536Y-94534467D01*
X49587363Y-94621663D01*
X49777544Y-94695339D01*
X49978024Y-94732815D01*
X49978026Y-94732815D01*
X50181974Y-94732815D01*
X50181976Y-94732815D01*
X50382456Y-94695339D01*
X50572637Y-94621663D01*
X50746041Y-94514296D01*
X50896764Y-94376894D01*
X51019673Y-94214136D01*
X51110582Y-94031565D01*
X51166397Y-93835398D01*
X51185215Y-93632315D01*
X51166397Y-93429232D01*
X51110582Y-93233065D01*
X51097035Y-93205859D01*
X51019671Y-93050490D01*
X51017215Y-93047238D01*
X50992524Y-92981877D01*
X50992170Y-92972513D01*
X50992170Y-75778827D01*
X51005171Y-75723554D01*
X51022245Y-75689264D01*
X51022247Y-75689260D01*
X51022252Y-75689250D01*
X51078067Y-75493083D01*
X51096885Y-75290000D01*
X51096885Y-75289999D01*
X83456142Y-75289999D01*
X83456142Y-75290000D01*
X83474959Y-75493082D01*
X83530774Y-75689247D01*
X83530775Y-75689250D01*
X83530775Y-75689251D01*
X83530779Y-75689260D01*
X83575379Y-75778828D01*
X83621684Y-75871821D01*
X83684454Y-75954942D01*
X83709146Y-76020302D01*
X83709500Y-76029668D01*
X83709500Y-93143486D01*
X83696501Y-93198756D01*
X83692949Y-93205890D01*
X83679418Y-93233065D01*
X83677231Y-93240752D01*
X83623602Y-93429232D01*
X83604785Y-93632314D01*
X83604785Y-93632315D01*
X83623602Y-93835397D01*
X83679417Y-94031562D01*
X83679422Y-94031575D01*
X83770327Y-94214136D01*
X83893237Y-94376896D01*
X84043958Y-94514295D01*
X84043960Y-94514297D01*
X84076536Y-94534467D01*
X84217363Y-94621663D01*
X84407544Y-94695339D01*
X84608024Y-94732815D01*
X84608026Y-94732815D01*
X84811974Y-94732815D01*
X84811976Y-94732815D01*
X85012456Y-94695339D01*
X85202637Y-94621663D01*
X85376041Y-94514296D01*
X85526764Y-94376894D01*
X85649673Y-94214136D01*
X85740582Y-94031565D01*
X85796397Y-93835398D01*
X85815215Y-93632315D01*
X85796397Y-93429232D01*
X85740582Y-93233065D01*
X85727051Y-93205890D01*
X85723499Y-93198756D01*
X85710500Y-93143486D01*
X85710500Y-75340099D01*
X85700534Y-75290000D01*
X118025792Y-75290000D01*
X118025792Y-75290001D01*
X118044609Y-75493083D01*
X118100424Y-75689248D01*
X118100431Y-75689265D01*
X118117506Y-75723555D01*
X118130507Y-75778828D01*
X118130507Y-93176725D01*
X118117508Y-93231994D01*
X118106934Y-93253229D01*
X118106933Y-93253232D01*
X118051116Y-93449403D01*
X118032299Y-93652485D01*
X118032299Y-93652486D01*
X118051116Y-93855568D01*
X118106931Y-94051733D01*
X118106936Y-94051746D01*
X118197841Y-94234307D01*
X118320751Y-94397067D01*
X118471472Y-94534466D01*
X118471474Y-94534468D01*
X118570655Y-94595878D01*
X118644877Y-94641834D01*
X118835058Y-94715510D01*
X119035538Y-94752986D01*
X119035540Y-94752986D01*
X119239488Y-94752986D01*
X119239490Y-94752986D01*
X119439970Y-94715510D01*
X119630151Y-94641834D01*
X119803555Y-94534467D01*
X119954278Y-94397065D01*
X120077187Y-94234307D01*
X120168096Y-94051736D01*
X120223911Y-93855569D01*
X120242729Y-93652486D01*
X120240860Y-93632314D01*
X152534785Y-93632314D01*
X152534785Y-93632315D01*
X152553602Y-93835397D01*
X152609417Y-94031562D01*
X152609422Y-94031575D01*
X152700327Y-94214136D01*
X152823237Y-94376896D01*
X152973958Y-94514295D01*
X152973960Y-94514297D01*
X153006536Y-94534467D01*
X153147363Y-94621663D01*
X153337544Y-94695339D01*
X153538024Y-94732815D01*
X153538026Y-94732815D01*
X153741974Y-94732815D01*
X153741976Y-94732815D01*
X153942456Y-94695339D01*
X154132637Y-94621663D01*
X154306041Y-94514296D01*
X154456764Y-94376894D01*
X154579673Y-94214136D01*
X154670582Y-94031565D01*
X154726397Y-93835398D01*
X154745215Y-93632315D01*
X154726397Y-93429232D01*
X154705940Y-93357333D01*
X154701206Y-93323399D01*
X154701206Y-75778827D01*
X154714207Y-75723554D01*
X154731281Y-75689264D01*
X154731283Y-75689260D01*
X154731288Y-75689250D01*
X154787103Y-75493083D01*
X154805921Y-75290002D01*
X187165037Y-75290002D01*
X187165037Y-75290003D01*
X187183854Y-75493085D01*
X187239669Y-75689250D01*
X187239676Y-75689267D01*
X187256751Y-75723557D01*
X187269752Y-75778828D01*
X187269752Y-93591108D01*
X187269752Y-93591110D01*
X187269751Y-93591110D01*
X187308199Y-93784395D01*
X187308202Y-93784407D01*
X187314775Y-93800275D01*
X187322094Y-93829845D01*
X187322549Y-93829761D01*
X187323602Y-93835397D01*
X187379417Y-94031562D01*
X187379422Y-94031575D01*
X187470327Y-94214136D01*
X187593237Y-94376896D01*
X187743958Y-94514295D01*
X187743960Y-94514297D01*
X187776536Y-94534467D01*
X187917363Y-94621663D01*
X188107544Y-94695339D01*
X188308024Y-94732815D01*
X188308026Y-94732815D01*
X188511974Y-94732815D01*
X188511976Y-94732815D01*
X188712456Y-94695339D01*
X188902637Y-94621663D01*
X189076041Y-94514296D01*
X189226764Y-94376894D01*
X189349673Y-94214136D01*
X189440582Y-94031565D01*
X189496397Y-93835398D01*
X189514503Y-93639999D01*
X217544785Y-93639999D01*
X217544785Y-93640000D01*
X217563602Y-93843082D01*
X217619417Y-94039247D01*
X217619422Y-94039260D01*
X217710327Y-94221821D01*
X217833237Y-94384581D01*
X217983958Y-94521980D01*
X217983960Y-94521982D01*
X218004126Y-94534468D01*
X218157363Y-94629348D01*
X218347544Y-94703024D01*
X218548024Y-94740500D01*
X218548026Y-94740500D01*
X218751974Y-94740500D01*
X218751976Y-94740500D01*
X218952456Y-94703024D01*
X219142637Y-94629348D01*
X219316041Y-94521981D01*
X219453065Y-94397067D01*
X219466762Y-94384581D01*
X219466764Y-94384579D01*
X219589673Y-94221821D01*
X219674365Y-94051736D01*
X219683138Y-94034118D01*
X219683744Y-94034419D01*
X219708507Y-93996411D01*
X223477778Y-90227141D01*
X223477782Y-90227139D01*
X223617139Y-90087782D01*
X223726632Y-89923914D01*
X223802051Y-89741835D01*
X223807426Y-89714816D01*
X223833360Y-89584435D01*
X223840500Y-89548541D01*
X223840500Y-75778827D01*
X223853501Y-75723554D01*
X223870575Y-75689264D01*
X223870577Y-75689260D01*
X223870582Y-75689250D01*
X223926397Y-75493083D01*
X223945215Y-75290000D01*
X223926397Y-75086917D01*
X223870582Y-74890750D01*
X223779673Y-74708179D01*
X223720704Y-74630091D01*
X223656762Y-74545418D01*
X223506041Y-74408019D01*
X223506039Y-74408017D01*
X223332642Y-74300655D01*
X223332639Y-74300653D01*
X223332637Y-74300652D01*
X223332636Y-74300651D01*
X223332635Y-74300651D01*
X223142466Y-74226980D01*
X223142456Y-74226976D01*
X222941976Y-74189500D01*
X222738024Y-74189500D01*
X222537544Y-74226976D01*
X222537541Y-74226976D01*
X222537541Y-74226977D01*
X222347364Y-74300651D01*
X222347357Y-74300655D01*
X222173960Y-74408017D01*
X222173958Y-74408019D01*
X222023237Y-74545418D01*
X221900327Y-74708178D01*
X221809422Y-74890739D01*
X221809417Y-74890752D01*
X221753602Y-75086917D01*
X221734785Y-75289999D01*
X221734785Y-75290000D01*
X221753602Y-75493082D01*
X221809417Y-75689247D01*
X221809418Y-75689250D01*
X221809419Y-75689252D01*
X221809424Y-75689264D01*
X221826499Y-75723554D01*
X221839500Y-75778827D01*
X221839500Y-88984217D01*
X221819815Y-89051256D01*
X221803181Y-89071898D01*
X218285334Y-92589744D01*
X218242447Y-92617689D01*
X218157374Y-92650646D01*
X218157359Y-92650653D01*
X217983960Y-92758017D01*
X217983958Y-92758019D01*
X217833237Y-92895418D01*
X217710327Y-93058178D01*
X217619422Y-93240739D01*
X217619417Y-93240752D01*
X217563602Y-93436917D01*
X217544785Y-93639999D01*
X189514503Y-93639999D01*
X189515215Y-93632315D01*
X189496397Y-93429232D01*
X189440582Y-93233065D01*
X189427035Y-93205859D01*
X189349676Y-93050500D01*
X189349672Y-93050493D01*
X189297856Y-92981877D01*
X189295796Y-92979149D01*
X189271106Y-92913790D01*
X189270752Y-92904425D01*
X189270752Y-75778830D01*
X189283753Y-75723557D01*
X189300827Y-75689267D01*
X189300828Y-75689265D01*
X189300834Y-75689253D01*
X189356649Y-75493086D01*
X189375467Y-75290003D01*
X189356649Y-75086920D01*
X189300834Y-74890753D01*
X189300827Y-74890739D01*
X189256524Y-74801767D01*
X189209925Y-74708182D01*
X189087016Y-74545424D01*
X189087014Y-74545421D01*
X188936293Y-74408022D01*
X188936291Y-74408020D01*
X188762894Y-74300658D01*
X188762891Y-74300656D01*
X188762889Y-74300655D01*
X188762888Y-74300654D01*
X188762887Y-74300654D01*
X188667798Y-74263817D01*
X188572708Y-74226979D01*
X188372228Y-74189503D01*
X188168276Y-74189503D01*
X187967796Y-74226979D01*
X187967793Y-74226979D01*
X187967793Y-74226980D01*
X187777616Y-74300654D01*
X187777609Y-74300658D01*
X187604212Y-74408020D01*
X187604210Y-74408022D01*
X187453489Y-74545421D01*
X187330579Y-74708181D01*
X187239674Y-74890742D01*
X187239669Y-74890755D01*
X187183854Y-75086920D01*
X187165037Y-75290002D01*
X154805921Y-75290002D01*
X154805921Y-75290000D01*
X154787103Y-75086917D01*
X154731288Y-74890750D01*
X154640379Y-74708179D01*
X154581410Y-74630091D01*
X154517468Y-74545418D01*
X154366747Y-74408019D01*
X154366745Y-74408017D01*
X154193348Y-74300655D01*
X154193345Y-74300653D01*
X154193343Y-74300652D01*
X154193342Y-74300651D01*
X154193341Y-74300651D01*
X154003172Y-74226980D01*
X154003162Y-74226976D01*
X153802682Y-74189500D01*
X153598730Y-74189500D01*
X153398250Y-74226976D01*
X153398247Y-74226976D01*
X153398247Y-74226977D01*
X153208070Y-74300651D01*
X153208063Y-74300655D01*
X153034666Y-74408017D01*
X153034664Y-74408019D01*
X152883943Y-74545418D01*
X152761033Y-74708178D01*
X152670128Y-74890739D01*
X152670123Y-74890752D01*
X152614308Y-75086917D01*
X152595491Y-75289999D01*
X152595491Y-75290000D01*
X152614308Y-75493082D01*
X152670123Y-75689247D01*
X152670124Y-75689250D01*
X152670125Y-75689252D01*
X152670130Y-75689264D01*
X152687205Y-75723554D01*
X152700206Y-75778827D01*
X152700206Y-93021573D01*
X152687206Y-93076845D01*
X152609422Y-93233054D01*
X152609417Y-93233067D01*
X152553602Y-93429232D01*
X152534785Y-93632314D01*
X120240860Y-93632314D01*
X120223911Y-93449403D01*
X120168096Y-93253236D01*
X120144506Y-93205859D01*
X120131507Y-93150589D01*
X120131507Y-75778828D01*
X120144508Y-75723555D01*
X120161582Y-75689265D01*
X120161581Y-75689265D01*
X120161589Y-75689251D01*
X120217404Y-75493084D01*
X120236222Y-75290001D01*
X120217404Y-75086918D01*
X120161589Y-74890751D01*
X120161583Y-74890739D01*
X120117279Y-74801765D01*
X120070680Y-74708180D01*
X119947771Y-74545422D01*
X119947769Y-74545419D01*
X119797048Y-74408020D01*
X119797046Y-74408018D01*
X119623649Y-74300656D01*
X119623646Y-74300654D01*
X119623644Y-74300653D01*
X119623643Y-74300652D01*
X119623642Y-74300652D01*
X119528553Y-74263815D01*
X119433463Y-74226977D01*
X119232983Y-74189501D01*
X119029031Y-74189501D01*
X118828551Y-74226977D01*
X118828548Y-74226977D01*
X118828548Y-74226978D01*
X118638371Y-74300652D01*
X118638364Y-74300656D01*
X118464967Y-74408018D01*
X118464965Y-74408020D01*
X118314244Y-74545419D01*
X118191334Y-74708179D01*
X118100429Y-74890740D01*
X118100424Y-74890753D01*
X118044609Y-75086918D01*
X118025792Y-75290000D01*
X85700534Y-75290000D01*
X85672052Y-75146814D01*
X85672051Y-75146808D01*
X85651615Y-75097472D01*
X85646913Y-75083964D01*
X85591939Y-74890750D01*
X85501030Y-74708179D01*
X85442061Y-74630091D01*
X85378119Y-74545418D01*
X85227398Y-74408019D01*
X85227396Y-74408017D01*
X85053999Y-74300655D01*
X85053996Y-74300653D01*
X85053994Y-74300652D01*
X85053993Y-74300651D01*
X85053992Y-74300651D01*
X84863823Y-74226980D01*
X84863813Y-74226976D01*
X84663333Y-74189500D01*
X84459381Y-74189500D01*
X84258901Y-74226976D01*
X84258898Y-74226976D01*
X84258898Y-74226977D01*
X84068721Y-74300651D01*
X84068714Y-74300655D01*
X83895317Y-74408017D01*
X83895315Y-74408019D01*
X83744594Y-74545418D01*
X83621684Y-74708178D01*
X83530779Y-74890739D01*
X83530774Y-74890752D01*
X83474959Y-75086917D01*
X83456142Y-75289999D01*
X51096885Y-75289999D01*
X51078067Y-75086917D01*
X51022252Y-74890750D01*
X50931343Y-74708179D01*
X50872374Y-74630091D01*
X50808432Y-74545418D01*
X50657711Y-74408019D01*
X50657709Y-74408017D01*
X50484312Y-74300655D01*
X50484309Y-74300653D01*
X50484307Y-74300652D01*
X50484306Y-74300651D01*
X50484305Y-74300651D01*
X50294136Y-74226980D01*
X50294126Y-74226976D01*
X50093646Y-74189500D01*
X49889694Y-74189500D01*
X49689214Y-74226976D01*
X49689211Y-74226976D01*
X49689211Y-74226977D01*
X49499034Y-74300651D01*
X49499027Y-74300655D01*
X49325630Y-74408017D01*
X49325628Y-74408019D01*
X49174907Y-74545418D01*
X49051997Y-74708178D01*
X48961092Y-74890739D01*
X48961087Y-74890752D01*
X48905272Y-75086917D01*
X48886455Y-75289999D01*
X16550215Y-75289999D01*
X16531397Y-75086918D01*
X16475582Y-74890751D01*
X16475576Y-74890739D01*
X16431272Y-74801765D01*
X16384673Y-74708180D01*
X16261764Y-74545422D01*
X16261762Y-74545419D01*
X16111041Y-74408020D01*
X16111039Y-74408018D01*
X15937642Y-74300656D01*
X15937639Y-74300654D01*
X15937637Y-74300653D01*
X15937636Y-74300652D01*
X15937635Y-74300652D01*
X15842546Y-74263815D01*
X15747456Y-74226977D01*
X15546976Y-74189501D01*
X15343024Y-74189501D01*
X15142544Y-74226977D01*
X15142541Y-74226977D01*
X15142541Y-74226978D01*
X14952364Y-74300652D01*
X14952357Y-74300656D01*
X14778960Y-74408018D01*
X14778958Y-74408020D01*
X14628237Y-74545419D01*
X14505327Y-74708179D01*
X14414422Y-74890740D01*
X14414417Y-74890753D01*
X14358602Y-75086918D01*
X14339785Y-75290000D01*
X14339785Y-75290001D01*
X14358602Y-75493083D01*
X14414417Y-75689248D01*
X14414424Y-75689265D01*
X14431499Y-75723555D01*
X14444500Y-75778828D01*
X14444500Y-93093279D01*
X14431501Y-93148550D01*
X14389418Y-93233064D01*
X14333602Y-93429232D01*
X14314785Y-93632314D01*
X500500Y-93632314D01*
X500500Y-9999999D01*
X6294922Y-9999999D01*
X6294922Y-10000000D01*
X6315219Y-10387287D01*
X6375886Y-10770323D01*
X6375887Y-10770330D01*
X6476262Y-11144936D01*
X6615244Y-11506994D01*
X6791310Y-11852543D01*
X7002531Y-12177793D01*
X7211095Y-12435350D01*
X7211096Y-12435350D01*
X8705748Y-10940698D01*
X8779588Y-11042330D01*
X8957670Y-11220412D01*
X9059300Y-11294251D01*
X7564648Y-12788903D01*
X7564649Y-12788904D01*
X7822206Y-12997468D01*
X8147456Y-13208689D01*
X8493005Y-13384755D01*
X8855063Y-13523737D01*
X9229669Y-13624112D01*
X9229676Y-13624113D01*
X9612712Y-13684780D01*
X9999999Y-13705078D01*
X10000001Y-13705078D01*
X10387287Y-13684780D01*
X10770323Y-13624113D01*
X10770330Y-13624112D01*
X11144936Y-13523737D01*
X11506994Y-13384755D01*
X11852543Y-13208689D01*
X12177783Y-12997476D01*
X12177785Y-12997475D01*
X12435349Y-12788902D01*
X10940698Y-11294251D01*
X11042330Y-11220412D01*
X11220412Y-11042330D01*
X11294251Y-10940698D01*
X12788902Y-12435349D01*
X12997475Y-12177785D01*
X12997476Y-12177783D01*
X13208689Y-11852543D01*
X13384755Y-11506994D01*
X13523737Y-11144936D01*
X13624112Y-10770330D01*
X13624113Y-10770323D01*
X13684780Y-10387287D01*
X13705078Y-10000000D01*
X13705078Y-9999999D01*
X13684780Y-9612712D01*
X13624113Y-9229676D01*
X13624112Y-9229669D01*
X13523737Y-8855063D01*
X13384755Y-8493005D01*
X13208689Y-8147456D01*
X12997468Y-7822206D01*
X12788904Y-7564649D01*
X12788903Y-7564648D01*
X11294251Y-9059300D01*
X11220412Y-8957670D01*
X11042330Y-8779588D01*
X10940698Y-8705748D01*
X12435350Y-7211096D01*
X12435350Y-7211095D01*
X12177793Y-7002531D01*
X11852543Y-6791310D01*
X11506994Y-6615244D01*
X11144936Y-6476262D01*
X10770330Y-6375887D01*
X10770323Y-6375886D01*
X10387287Y-6315219D01*
X10000001Y-6294922D01*
X9999999Y-6294922D01*
X9612712Y-6315219D01*
X9229676Y-6375886D01*
X9229669Y-6375887D01*
X8855063Y-6476262D01*
X8493005Y-6615244D01*
X8147456Y-6791310D01*
X7822206Y-7002531D01*
X7564648Y-7211095D01*
X7564648Y-7211096D01*
X9059301Y-8705748D01*
X8957670Y-8779588D01*
X8779588Y-8957670D01*
X8705748Y-9059300D01*
X7211096Y-7564648D01*
X7211095Y-7564648D01*
X7002531Y-7822206D01*
X6791310Y-8147456D01*
X6615244Y-8493005D01*
X6476262Y-8855063D01*
X6375887Y-9229669D01*
X6375886Y-9229676D01*
X6315219Y-9612712D01*
X6294922Y-9999999D01*
X500500Y-9999999D01*
X500500Y-4899983D01*
X82724500Y-4899983D01*
X82724500Y-5700001D01*
X82724501Y-5700019D01*
X82735000Y-5802796D01*
X82735001Y-5802799D01*
X82790185Y-5969331D01*
X82790187Y-5969336D01*
X82791956Y-5972204D01*
X82882288Y-6118656D01*
X83006344Y-6242712D01*
X83155666Y-6334814D01*
X83322203Y-6389999D01*
X83424991Y-6400500D01*
X84775008Y-6400499D01*
X84877797Y-6389999D01*
X85044334Y-6334814D01*
X85193656Y-6242712D01*
X85317712Y-6118656D01*
X85409814Y-5969334D01*
X85464999Y-5802797D01*
X85475500Y-5700009D01*
X85475499Y-4899992D01*
X85464999Y-4797203D01*
X85409814Y-4630666D01*
X85317712Y-4481344D01*
X85193656Y-4357288D01*
X85193655Y-4357287D01*
X85129019Y-4317420D01*
X85082294Y-4265472D01*
X85071071Y-4196510D01*
X85098914Y-4132428D01*
X85106434Y-4124199D01*
X85214035Y-4016598D01*
X85315804Y-3876524D01*
X85394408Y-3722255D01*
X85447914Y-3557584D01*
X85449115Y-3550000D01*
X84380330Y-3550000D01*
X84400075Y-3530255D01*
X84449444Y-3444745D01*
X84475000Y-3349370D01*
X84475000Y-3250630D01*
X84449444Y-3155255D01*
X84400075Y-3069745D01*
X84380330Y-3050000D01*
X85449115Y-3050000D01*
X85449115Y-3049999D01*
X85447914Y-3042415D01*
X85394408Y-2877744D01*
X85315804Y-2723475D01*
X85214032Y-2583397D01*
X85091602Y-2460967D01*
X84951524Y-2359195D01*
X84797257Y-2280591D01*
X84632584Y-2227085D01*
X84461571Y-2200000D01*
X84350000Y-2200000D01*
X84350000Y-3019670D01*
X84330255Y-2999925D01*
X84244745Y-2950556D01*
X84149370Y-2925000D01*
X84050630Y-2925000D01*
X83955255Y-2950556D01*
X83869745Y-2999925D01*
X83850000Y-3019670D01*
X83850000Y-2200000D01*
X83738429Y-2200000D01*
X83567415Y-2227085D01*
X83402742Y-2280591D01*
X83248475Y-2359195D01*
X83108397Y-2460967D01*
X82985967Y-2583397D01*
X82884195Y-2723475D01*
X82805591Y-2877744D01*
X82752085Y-3042415D01*
X82750884Y-3049999D01*
X82750885Y-3050000D01*
X83819670Y-3050000D01*
X83799925Y-3069745D01*
X83750556Y-3155255D01*
X83725000Y-3250630D01*
X83725000Y-3349370D01*
X83750556Y-3444745D01*
X83799925Y-3530255D01*
X83819670Y-3550000D01*
X82750885Y-3550000D01*
X82752085Y-3557584D01*
X82805591Y-3722255D01*
X82884195Y-3876524D01*
X82985967Y-4016602D01*
X83093565Y-4124200D01*
X83127050Y-4185523D01*
X83122066Y-4255215D01*
X83080194Y-4311148D01*
X83070981Y-4317420D01*
X83006342Y-4357289D01*
X82882289Y-4481342D01*
X82790187Y-4630663D01*
X82790185Y-4630668D01*
X82772177Y-4685012D01*
X82735001Y-4797203D01*
X82735001Y-4797204D01*
X82735000Y-4797204D01*
X82724500Y-4899983D01*
X500500Y-4899983D01*
X500500Y-624500D01*
X520185Y-557461D01*
X572989Y-511706D01*
X624500Y-500500D01*
X126336639Y-500500D01*
X126403678Y-520185D01*
G37*
G04 #@! TD.AperFunction*
G04 #@! TA.AperFunction,Conductor*
G36*
X154695807Y-19470185D02*
G01*
X154741562Y-19522989D01*
X154751506Y-19592147D01*
X154722481Y-19655703D01*
X154716449Y-19662181D01*
X154185451Y-20193181D01*
X154124128Y-20226666D01*
X154097770Y-20229500D01*
X131001116Y-20229500D01*
X130934077Y-20209815D01*
X130888322Y-20157011D01*
X130878378Y-20087853D01*
X130907403Y-20024297D01*
X130958294Y-19990556D01*
X130957885Y-19989567D01*
X130962385Y-19987703D01*
X130962389Y-19987701D01*
X131157259Y-19888409D01*
X131301904Y-19783319D01*
X131334195Y-19759859D01*
X131334197Y-19759856D01*
X131334201Y-19759854D01*
X131488854Y-19605201D01*
X131564112Y-19501614D01*
X131619442Y-19458949D01*
X131664430Y-19450500D01*
X154628771Y-19450500D01*
X154695807Y-19470185D01*
G37*
G04 #@! TD.AperFunction*
G04 #@! TA.AperFunction,Conductor*
G36*
X156385810Y-15780185D02*
G01*
X156431565Y-15832989D01*
X156441509Y-15902147D01*
X156412484Y-15965703D01*
X156406452Y-15972181D01*
X154465451Y-17913181D01*
X154404128Y-17946666D01*
X154377770Y-17949500D01*
X131664428Y-17949500D01*
X131597389Y-17929815D01*
X131564109Y-17898384D01*
X131488857Y-17794806D01*
X131334195Y-17640144D01*
X131183033Y-17530320D01*
X131140367Y-17474991D01*
X131134388Y-17405377D01*
X131166993Y-17343582D01*
X131183028Y-17329687D01*
X131334200Y-17219856D01*
X131488853Y-17065203D01*
X131564111Y-16961617D01*
X131619441Y-16918951D01*
X131664430Y-16910502D01*
X133103918Y-16910502D01*
X133215751Y-16888256D01*
X133248911Y-16881660D01*
X133385493Y-16825086D01*
X133449584Y-16782262D01*
X133449584Y-16782261D01*
X133449586Y-16782261D01*
X133478999Y-16762608D01*
X133508414Y-16742954D01*
X134454548Y-15796818D01*
X134515871Y-15763334D01*
X134542229Y-15760500D01*
X156318771Y-15760500D01*
X156385810Y-15780185D01*
G37*
G04 #@! TD.AperFunction*
G04 #@! TA.AperFunction,Conductor*
G36*
X154772681Y-2190183D02*
G01*
X154793322Y-2206816D01*
X155202526Y-2616021D01*
X159513180Y-6926680D01*
X159546665Y-6988003D01*
X159549499Y-7014361D01*
X159549499Y-7465000D01*
X159549500Y-7465018D01*
X159559999Y-7567795D01*
X159560000Y-7567798D01*
X159615184Y-7734330D01*
X159615186Y-7734335D01*
X159644337Y-7781596D01*
X159707287Y-7883655D01*
X159831343Y-8007711D01*
X159980665Y-8099813D01*
X160013782Y-8110787D01*
X160071225Y-8150559D01*
X160098048Y-8215075D01*
X160085733Y-8283851D01*
X160062457Y-8316173D01*
X155545455Y-12833178D01*
X155484132Y-12866663D01*
X155457774Y-12869497D01*
X131664424Y-12869497D01*
X131597385Y-12849812D01*
X131564105Y-12818381D01*
X131557382Y-12809128D01*
X131520067Y-12757766D01*
X131488854Y-12714804D01*
X131334198Y-12560148D01*
X131334190Y-12560142D01*
X131183030Y-12450319D01*
X131140366Y-12394991D01*
X131134387Y-12325378D01*
X131166992Y-12263582D01*
X131183025Y-12249688D01*
X131334201Y-12139854D01*
X131488854Y-11985201D01*
X131520523Y-11941612D01*
X131575852Y-11898948D01*
X131620840Y-11890499D01*
X146323922Y-11890499D01*
X146421464Y-11871095D01*
X146468915Y-11861657D01*
X146605497Y-11805083D01*
X146654731Y-11772185D01*
X146660217Y-11768520D01*
X146695289Y-11745086D01*
X146728418Y-11722951D01*
X149232951Y-9218419D01*
X149315083Y-9095497D01*
X149371658Y-8958915D01*
X149394532Y-8843918D01*
X149400499Y-8813923D01*
X149400500Y-7922201D01*
X149420184Y-7855167D01*
X149436813Y-7834530D01*
X149489417Y-7781927D01*
X149549993Y-7698550D01*
X149605322Y-7655887D01*
X149674935Y-7649908D01*
X149736730Y-7682514D01*
X149750628Y-7698553D01*
X149810961Y-7781596D01*
X149933397Y-7904032D01*
X150073475Y-8005804D01*
X150227744Y-8084408D01*
X150392415Y-8137914D01*
X150392414Y-8137914D01*
X150399999Y-8139115D01*
X150400000Y-8139114D01*
X150400000Y-7070330D01*
X150419745Y-7090075D01*
X150505255Y-7139444D01*
X150600630Y-7165000D01*
X150699370Y-7165000D01*
X150794745Y-7139444D01*
X150880255Y-7090075D01*
X150900000Y-7070330D01*
X150900000Y-8139115D01*
X150907584Y-8137914D01*
X151072255Y-8084408D01*
X151226524Y-8005804D01*
X151366602Y-7904032D01*
X151489032Y-7781602D01*
X151590804Y-7641524D01*
X151669408Y-7487257D01*
X151722914Y-7322584D01*
X151750000Y-7151571D01*
X151750000Y-7040000D01*
X150930330Y-7040000D01*
X150950075Y-7020255D01*
X150999444Y-6934745D01*
X151025000Y-6839370D01*
X151025000Y-6740630D01*
X150999444Y-6645255D01*
X150950075Y-6559745D01*
X150930330Y-6540000D01*
X151750000Y-6540000D01*
X151750000Y-6428428D01*
X151722914Y-6257415D01*
X151669408Y-6092742D01*
X151590804Y-5938475D01*
X151489032Y-5798397D01*
X151366602Y-5675967D01*
X151226524Y-5574195D01*
X151072257Y-5495591D01*
X150907589Y-5442087D01*
X150907581Y-5442085D01*
X150900000Y-5440884D01*
X150900000Y-6509670D01*
X150880255Y-6489925D01*
X150794745Y-6440556D01*
X150699370Y-6415000D01*
X150600630Y-6415000D01*
X150505255Y-6440556D01*
X150419745Y-6489925D01*
X150400000Y-6509670D01*
X150400000Y-5440884D01*
X150399999Y-5440884D01*
X150392418Y-5442085D01*
X150392410Y-5442087D01*
X150227742Y-5495591D01*
X150073475Y-5574195D01*
X149933397Y-5675967D01*
X149810965Y-5798399D01*
X149750628Y-5881446D01*
X149695297Y-5924111D01*
X149625684Y-5930090D01*
X149563889Y-5897484D01*
X149549996Y-5881450D01*
X149489417Y-5798071D01*
X149366931Y-5675585D01*
X149226791Y-5573767D01*
X149072448Y-5495126D01*
X148907704Y-5441597D01*
X148907702Y-5441596D01*
X148907701Y-5441596D01*
X148752739Y-5417053D01*
X148736614Y-5414499D01*
X148563392Y-5414499D01*
X148547267Y-5417053D01*
X148392305Y-5441596D01*
X148227555Y-5495127D01*
X148073214Y-5573767D01*
X147996080Y-5629809D01*
X147933075Y-5675585D01*
X147933073Y-5675587D01*
X147933072Y-5675587D01*
X147810590Y-5798069D01*
X147750320Y-5881024D01*
X147694989Y-5923689D01*
X147625376Y-5929668D01*
X147563581Y-5897062D01*
X147549684Y-5881024D01*
X147489416Y-5798072D01*
X147366930Y-5675586D01*
X147226790Y-5573768D01*
X147189453Y-5554744D01*
X147072449Y-5495128D01*
X147072448Y-5495127D01*
X147072447Y-5495127D01*
X146907703Y-5441598D01*
X146907701Y-5441597D01*
X146907700Y-5441597D01*
X146776273Y-5420781D01*
X146736613Y-5414500D01*
X146563391Y-5414500D01*
X146523730Y-5420781D01*
X146392304Y-5441597D01*
X146227554Y-5495128D01*
X146073213Y-5573768D01*
X146034912Y-5601596D01*
X145933074Y-5675586D01*
X145933072Y-5675588D01*
X145933071Y-5675588D01*
X145810587Y-5798072D01*
X145750318Y-5881025D01*
X145694988Y-5923690D01*
X145625374Y-5929668D01*
X145563580Y-5897061D01*
X145549683Y-5881023D01*
X145549682Y-5881022D01*
X145489415Y-5798071D01*
X145366929Y-5675585D01*
X145226789Y-5573767D01*
X145072446Y-5495126D01*
X144907702Y-5441597D01*
X144907700Y-5441596D01*
X144907699Y-5441596D01*
X144752737Y-5417053D01*
X144736612Y-5414499D01*
X144563390Y-5414499D01*
X144547265Y-5417053D01*
X144392303Y-5441596D01*
X144227553Y-5495127D01*
X144073212Y-5573767D01*
X143996078Y-5629809D01*
X143933073Y-5675585D01*
X143933071Y-5675587D01*
X143933070Y-5675587D01*
X143810589Y-5798068D01*
X143810582Y-5798077D01*
X143750318Y-5881022D01*
X143694988Y-5923688D01*
X143625375Y-5929666D01*
X143563580Y-5897060D01*
X143549684Y-5881022D01*
X143499264Y-5811627D01*
X143489415Y-5798071D01*
X143366929Y-5675585D01*
X143226789Y-5573767D01*
X143072446Y-5495126D01*
X142907702Y-5441597D01*
X142907700Y-5441596D01*
X142907699Y-5441596D01*
X142752737Y-5417053D01*
X142736612Y-5414499D01*
X142563390Y-5414499D01*
X142547265Y-5417053D01*
X142392303Y-5441596D01*
X142227553Y-5495127D01*
X142073212Y-5573767D01*
X141933074Y-5675584D01*
X141825531Y-5783127D01*
X141764208Y-5816611D01*
X141694516Y-5811627D01*
X141638583Y-5769755D01*
X141632312Y-5760543D01*
X141613322Y-5729756D01*
X141603914Y-5714503D01*
X141585474Y-5647112D01*
X141606396Y-5580449D01*
X141621767Y-5561731D01*
X144976679Y-2206816D01*
X145038002Y-2173332D01*
X145064360Y-2170498D01*
X147398694Y-2170498D01*
X154705642Y-2170498D01*
X154772681Y-2190183D01*
G37*
G04 #@! TD.AperFunction*
G04 #@! TA.AperFunction,Conductor*
G36*
X133718568Y-2809836D02*
G01*
X133757334Y-2825894D01*
X133799935Y-2834368D01*
X133931305Y-2860500D01*
X133931308Y-2860500D01*
X133931309Y-2860500D01*
X136925637Y-2860500D01*
X136992676Y-2880185D01*
X137013318Y-2896819D01*
X139678227Y-5561728D01*
X139711712Y-5623051D01*
X139706728Y-5692743D01*
X139696085Y-5714505D01*
X139615191Y-5845658D01*
X139615186Y-5845667D01*
X139587352Y-5929666D01*
X139560002Y-6012202D01*
X139560002Y-6012203D01*
X139560001Y-6012203D01*
X139549501Y-6114982D01*
X139549501Y-7465000D01*
X139549502Y-7465017D01*
X139560001Y-7567795D01*
X139560002Y-7567798D01*
X139615186Y-7734330D01*
X139615188Y-7734335D01*
X139644339Y-7781596D01*
X139701896Y-7874912D01*
X139707290Y-7883656D01*
X139731451Y-7907817D01*
X139764936Y-7969140D01*
X139759952Y-8038832D01*
X139718080Y-8094765D01*
X139652616Y-8119182D01*
X139643770Y-8119498D01*
X138742228Y-8119499D01*
X138675189Y-8099815D01*
X138654547Y-8083180D01*
X136884447Y-6313083D01*
X133583435Y-3012078D01*
X133549951Y-2950756D01*
X133554935Y-2881065D01*
X133596806Y-2825131D01*
X133662271Y-2800714D01*
X133718568Y-2809836D01*
G37*
G04 #@! TD.AperFunction*
M02*
