%TF.GenerationSoftware,KiCad,Pcbnew,9.0.7*%
%TF.CreationDate,2026-02-18T22:12:28-06:00*%
%TF.ProjectId,grad_cap_display,67726164-5f63-4617-905f-646973706c61,rev?*%
%TF.SameCoordinates,Original*%
%TF.FileFunction,Drillmap*%
%TF.FilePolarity,Positive*%
%FSLAX45Y45*%
G04 Gerber Fmt 4.5, Leading zero omitted, Abs format (unit mm)*
G04 Created by KiCad (PCBNEW 9.0.7) date 2026-02-18 22:12:28*
%MOMM*%
%LPD*%
G01*
G04 APERTURE LIST*
%ADD10C,0.050000*%
%ADD11C,0.200000*%
%ADD12C,0.100000*%
G04 APERTURE END LIST*
D10*
X2128000Y-636000D02*
X5528000Y-636000D01*
X7019500Y-2130000D02*
X7019500Y-5530000D01*
X1000Y-5530000D02*
X1000Y-7457000D01*
X5528000Y-7657000D02*
X7455000Y-7657000D01*
X2128000Y-7657000D02*
X2128000Y-7021500D01*
X7455000Y-3000D02*
X5528000Y-3000D01*
X5528000Y-7021500D02*
X5528000Y-7657000D01*
X2128000Y-636000D02*
X2128000Y-3000D01*
X1000Y-2130000D02*
X639000Y-2130000D01*
X7655000Y-2130000D02*
X7655000Y-203000D01*
X1000Y-203000D02*
G75*
G02*
X201000Y-3000I200000J0D01*
G01*
X7655000Y-5530000D02*
X7019500Y-5530000D01*
X1000Y-203000D02*
X1000Y-2130000D01*
X201000Y-7657000D02*
G75*
G02*
X1000Y-7457000I0J200000D01*
G01*
X201000Y-7657000D02*
X2128000Y-7657000D01*
X5528000Y-7021500D02*
X2128000Y-7021500D01*
X7655000Y-7457000D02*
X7655000Y-5530000D01*
X7655000Y-7457000D02*
G75*
G02*
X7455000Y-7657000I-200000J0D01*
G01*
X7455000Y-3000D02*
G75*
G02*
X7655000Y-203000I0J-200000D01*
G01*
X639000Y-5530000D02*
X639000Y-2130000D01*
X2128000Y-3000D02*
X201000Y-3000D01*
X7019500Y-2130000D02*
X7655000Y-2130000D01*
X5528000Y-3000D02*
X5528000Y-636000D01*
X639000Y-5530000D02*
X1000Y-5530000D01*
D11*
D12*
X3288015Y-5062755D02*
X3318015Y-5092755D01*
X3318015Y-5062755D02*
X3288015Y-5092755D01*
X3338015Y-5017755D02*
X3368015Y-5047755D01*
X3368015Y-5017755D02*
X3338015Y-5047755D01*
X3388015Y-5062755D02*
X3418015Y-5092755D01*
X3418015Y-5062755D02*
X3388015Y-5092755D01*
X3438015Y-5017755D02*
X3468015Y-5047755D01*
X3468015Y-5017755D02*
X3438015Y-5047755D01*
X3488015Y-5062755D02*
X3518015Y-5092755D01*
X3518015Y-5062755D02*
X3488015Y-5092755D01*
X3538015Y-5017755D02*
X3568015Y-5047755D01*
X3568015Y-5017755D02*
X3538015Y-5047755D01*
X3588015Y-5062755D02*
X3618015Y-5092755D01*
X3618015Y-5062755D02*
X3588015Y-5092755D01*
X3638015Y-5017755D02*
X3668015Y-5047755D01*
X3668015Y-5017755D02*
X3638015Y-5047755D01*
X3688015Y-5062755D02*
X3718015Y-5092755D01*
X3718015Y-5062755D02*
X3688015Y-5092755D01*
X3738015Y-5017755D02*
X3768015Y-5047755D01*
X3768015Y-5017755D02*
X3738015Y-5047755D01*
X3788008Y-5062747D02*
X3818008Y-5092747D01*
X3818008Y-5062747D02*
X3788008Y-5092747D01*
X3838008Y-5017747D02*
X3868008Y-5047747D01*
X3868008Y-5017747D02*
X3838008Y-5047747D01*
X3859008Y-4743247D02*
X3889008Y-4773247D01*
X3889008Y-4743247D02*
X3859008Y-4773247D01*
X3888008Y-5062747D02*
X3918008Y-5092747D01*
X3918008Y-5062747D02*
X3888008Y-5092747D01*
X3920008Y-4769247D02*
X3950008Y-4799247D01*
X3950008Y-4769247D02*
X3920008Y-4799247D01*
X3938008Y-5017747D02*
X3968008Y-5047747D01*
X3968008Y-5017747D02*
X3938008Y-5047747D01*
X3988008Y-5062747D02*
X4018008Y-5092747D01*
X4018008Y-5062747D02*
X3988008Y-5092747D01*
X4021008Y-4732247D02*
X4051008Y-4762247D01*
X4051008Y-4732247D02*
X4021008Y-4762247D01*
X4038008Y-5017747D02*
X4068008Y-5047747D01*
X4068008Y-5017747D02*
X4038008Y-5047747D01*
X4041008Y-4549247D02*
X4071008Y-4579247D01*
X4071008Y-4549247D02*
X4041008Y-4579247D01*
X4042008Y-4353247D02*
X4072008Y-4383247D01*
X4072008Y-4353247D02*
X4042008Y-4383247D01*
X4112008Y-4613247D02*
X4142008Y-4643247D01*
X4142008Y-4613247D02*
X4112008Y-4643247D01*
X4144008Y-4428247D02*
X4174008Y-4458247D01*
X4174008Y-4428247D02*
X4144008Y-4458247D01*
X4201008Y-4749247D02*
X4231008Y-4779247D01*
X4231008Y-4749247D02*
X4201008Y-4779247D01*
X4303008Y-4548601D02*
X4333008Y-4578601D01*
X4333008Y-4548601D02*
X4303008Y-4578601D01*
X4379380Y-4420247D02*
X4409380Y-4450247D01*
X4409380Y-4420247D02*
X4379380Y-4450247D01*
X3554250Y-1465000D02*
G75*
G02*
X3524250Y-1465000I-15000J0D01*
G01*
X3524250Y-1465000D02*
G75*
G02*
X3554250Y-1465000I15000J0D01*
G01*
X3554250Y-1605000D02*
G75*
G02*
X3524250Y-1605000I-15000J0D01*
G01*
X3524250Y-1605000D02*
G75*
G02*
X3554250Y-1605000I15000J0D01*
G01*
X3624250Y-1395000D02*
G75*
G02*
X3594250Y-1395000I-15000J0D01*
G01*
X3594250Y-1395000D02*
G75*
G02*
X3624250Y-1395000I15000J0D01*
G01*
X3624250Y-1535000D02*
G75*
G02*
X3594250Y-1535000I-15000J0D01*
G01*
X3594250Y-1535000D02*
G75*
G02*
X3624250Y-1535000I15000J0D01*
G01*
X3624250Y-1675000D02*
G75*
G02*
X3594250Y-1675000I-15000J0D01*
G01*
X3594250Y-1675000D02*
G75*
G02*
X3624250Y-1675000I15000J0D01*
G01*
X3694250Y-1465000D02*
G75*
G02*
X3664250Y-1465000I-15000J0D01*
G01*
X3664250Y-1465000D02*
G75*
G02*
X3694250Y-1465000I15000J0D01*
G01*
X3694250Y-1605000D02*
G75*
G02*
X3664250Y-1605000I-15000J0D01*
G01*
X3664250Y-1605000D02*
G75*
G02*
X3694250Y-1605000I15000J0D01*
G01*
X3764250Y-1395000D02*
G75*
G02*
X3734250Y-1395000I-15000J0D01*
G01*
X3734250Y-1395000D02*
G75*
G02*
X3764250Y-1395000I15000J0D01*
G01*
X3764250Y-1535000D02*
G75*
G02*
X3734250Y-1535000I-15000J0D01*
G01*
X3734250Y-1535000D02*
G75*
G02*
X3764250Y-1535000I15000J0D01*
G01*
X3764250Y-1675000D02*
G75*
G02*
X3734250Y-1675000I-15000J0D01*
G01*
X3734250Y-1675000D02*
G75*
G02*
X3764250Y-1675000I15000J0D01*
G01*
X3834250Y-1465000D02*
G75*
G02*
X3804250Y-1465000I-15000J0D01*
G01*
X3804250Y-1465000D02*
G75*
G02*
X3834250Y-1465000I15000J0D01*
G01*
X3834250Y-1605000D02*
G75*
G02*
X3804250Y-1605000I-15000J0D01*
G01*
X3804250Y-1605000D02*
G75*
G02*
X3834250Y-1605000I15000J0D01*
G01*
X410008Y-6018247D02*
X410008Y-6058247D01*
X390008Y-6038247D02*
X430008Y-6038247D01*
X431007Y-1998247D02*
X431007Y-2038247D01*
X411007Y-2018247D02*
X451007Y-2018247D01*
X432008Y-1866247D02*
X432008Y-1906247D01*
X412008Y-1886247D02*
X452008Y-1886247D01*
X586008Y-6012247D02*
X586008Y-6052247D01*
X566008Y-6032247D02*
X606008Y-6032247D01*
X690008Y-5676247D02*
X690008Y-5716247D01*
X670008Y-5696247D02*
X710008Y-5696247D01*
X800008Y-5457247D02*
X800008Y-5497247D01*
X780008Y-5477247D02*
X820008Y-5477247D01*
X832008Y-1262247D02*
X832008Y-1302247D01*
X812008Y-1282247D02*
X852008Y-1282247D01*
X866008Y-5886247D02*
X866008Y-5926247D01*
X846008Y-5906247D02*
X886008Y-5906247D01*
X867008Y-6368247D02*
X867008Y-6408247D01*
X847008Y-6388247D02*
X887008Y-6388247D01*
X868008Y-6846247D02*
X868008Y-6886247D01*
X848008Y-6866247D02*
X888008Y-6866247D01*
X888007Y-1998247D02*
X888007Y-2038247D01*
X868007Y-2018247D02*
X908007Y-2018247D01*
X889007Y-1866247D02*
X889007Y-1906247D01*
X869007Y-1886247D02*
X909007Y-1886247D01*
X890008Y-1690247D02*
X890008Y-1730247D01*
X870008Y-1710247D02*
X910008Y-1710247D01*
X913008Y-4932247D02*
X913008Y-4972247D01*
X893008Y-4952247D02*
X933008Y-4952247D01*
X934008Y-5454247D02*
X934008Y-5494247D01*
X914008Y-5474247D02*
X954008Y-5474247D01*
X949008Y-1374247D02*
X949008Y-1414247D01*
X929008Y-1394247D02*
X969008Y-1394247D01*
X999008Y-6073247D02*
X999008Y-6113247D01*
X979008Y-6093247D02*
X1019008Y-6093247D01*
X1118008Y-3147195D02*
X1118008Y-3187195D01*
X1098008Y-3167195D02*
X1138008Y-3167195D01*
X1119008Y-2644195D02*
X1119008Y-2684195D01*
X1099008Y-2664195D02*
X1139008Y-2664195D01*
X1119008Y-6790247D02*
X1119008Y-6830247D01*
X1099008Y-6810247D02*
X1139008Y-6810247D01*
X1121008Y-5373247D02*
X1121008Y-5413247D01*
X1101008Y-5393247D02*
X1141008Y-5393247D01*
X1121008Y-5747247D02*
X1121008Y-5787247D01*
X1101008Y-5767247D02*
X1141008Y-5767247D01*
X1168008Y-4932247D02*
X1168008Y-4972247D01*
X1148008Y-4952247D02*
X1188008Y-4952247D01*
X1218008Y-3147195D02*
X1218008Y-3187195D01*
X1198008Y-3167195D02*
X1238008Y-3167195D01*
X1219008Y-2644195D02*
X1219008Y-2684195D01*
X1199008Y-2664195D02*
X1239008Y-2664195D01*
X1220008Y-2552247D02*
X1220008Y-2592247D01*
X1200008Y-2572247D02*
X1240008Y-2572247D01*
X1372008Y-3148247D02*
X1372008Y-3188247D01*
X1352008Y-3168247D02*
X1392008Y-3168247D01*
X1373008Y-2645247D02*
X1373008Y-2685247D01*
X1353008Y-2665247D02*
X1393008Y-2665247D01*
X1374008Y-5889247D02*
X1374008Y-5929247D01*
X1354008Y-5909247D02*
X1394008Y-5909247D01*
X1375008Y-5044247D02*
X1375008Y-5084247D01*
X1355008Y-5064247D02*
X1395008Y-5064247D01*
X1375008Y-5416247D02*
X1375008Y-5456247D01*
X1355008Y-5436247D02*
X1395008Y-5436247D01*
X1376008Y-6868247D02*
X1376008Y-6908247D01*
X1356008Y-6888247D02*
X1396008Y-6888247D01*
X1399008Y-2553247D02*
X1399008Y-2593247D01*
X1379008Y-2573247D02*
X1419008Y-2573247D01*
X1472008Y-3148247D02*
X1472008Y-3188247D01*
X1452008Y-3168247D02*
X1492008Y-3168247D01*
X1473008Y-2645247D02*
X1473008Y-2685247D01*
X1453008Y-2665247D02*
X1493008Y-2665247D01*
X1507008Y-6188247D02*
X1507008Y-6228247D01*
X1487008Y-6208247D02*
X1527008Y-6208247D01*
X1587008Y-962247D02*
X1587008Y-1002247D01*
X1567008Y-982247D02*
X1607008Y-982247D01*
X1587008Y-1062247D02*
X1587008Y-1102247D01*
X1567008Y-1082247D02*
X1607008Y-1082247D01*
X1587008Y-1162247D02*
X1587008Y-1202247D01*
X1567008Y-1182247D02*
X1607008Y-1182247D01*
X1629008Y-5746247D02*
X1629008Y-5786247D01*
X1609008Y-5766247D02*
X1649008Y-5766247D01*
X1657508Y-2026497D02*
X1657508Y-2066497D01*
X1637508Y-2046497D02*
X1677508Y-2046497D01*
X1677008Y-4415247D02*
X1677008Y-4455247D01*
X1657008Y-4435247D02*
X1697008Y-4435247D01*
X1730008Y-1079247D02*
X1730008Y-1119247D01*
X1710008Y-1099247D02*
X1750008Y-1099247D01*
X1730008Y-1179247D02*
X1730008Y-1219247D01*
X1710008Y-1199247D02*
X1750008Y-1199247D01*
X1730008Y-1279247D02*
X1730008Y-1319247D01*
X1710008Y-1299247D02*
X1750008Y-1299247D01*
X1735008Y-6997247D02*
X1735008Y-7037247D01*
X1715008Y-7017247D02*
X1755008Y-7017247D01*
X1760122Y-6013247D02*
X1760122Y-6053247D01*
X1740122Y-6033247D02*
X1780122Y-6033247D01*
X1801008Y-6521247D02*
X1801008Y-6561247D01*
X1781008Y-6541247D02*
X1821008Y-6541247D01*
X1815008Y-2416247D02*
X1815008Y-2456247D01*
X1795008Y-2436247D02*
X1835008Y-2436247D01*
X1830008Y-1079247D02*
X1830008Y-1119247D01*
X1810008Y-1099247D02*
X1850008Y-1099247D01*
X1830008Y-1179247D02*
X1830008Y-1219247D01*
X1810008Y-1199247D02*
X1850008Y-1199247D01*
X1830008Y-1279247D02*
X1830008Y-1319247D01*
X1810008Y-1299247D02*
X1850008Y-1299247D01*
X1869066Y-1753247D02*
X1869066Y-1793247D01*
X1849066Y-1773247D02*
X1889066Y-1773247D01*
X1882008Y-5891247D02*
X1882008Y-5931247D01*
X1862008Y-5911247D02*
X1902008Y-5911247D01*
X1884008Y-5415247D02*
X1884008Y-5455247D01*
X1864008Y-5435247D02*
X1904008Y-5435247D01*
X1930008Y-1079247D02*
X1930008Y-1119247D01*
X1910008Y-1099247D02*
X1950008Y-1099247D01*
X1930008Y-1179247D02*
X1930008Y-1219247D01*
X1910008Y-1199247D02*
X1950008Y-1199247D01*
X1930008Y-1279247D02*
X1930008Y-1319247D01*
X1910008Y-1299247D02*
X1950008Y-1299247D01*
X1932008Y-4416247D02*
X1932008Y-4456247D01*
X1912008Y-4436247D02*
X1952008Y-4436247D01*
X1988008Y-6189247D02*
X1988008Y-6229247D01*
X1968008Y-6209247D02*
X2008008Y-6209247D01*
X2067008Y-1709247D02*
X2067008Y-1749247D01*
X2047008Y-1729247D02*
X2087008Y-1729247D01*
X2068008Y-1358247D02*
X2068008Y-1398247D01*
X2048008Y-1378247D02*
X2088008Y-1378247D01*
X2070008Y-2604247D02*
X2070008Y-2644247D01*
X2050008Y-2624247D02*
X2090008Y-2624247D01*
X2071008Y-2225247D02*
X2071008Y-2265247D01*
X2051008Y-2245247D02*
X2091008Y-2245247D01*
X2137008Y-5746247D02*
X2137008Y-5786247D01*
X2117008Y-5766247D02*
X2157008Y-5766247D01*
X2152008Y-1108185D02*
X2152008Y-1148185D01*
X2132008Y-1128185D02*
X2172008Y-1128185D01*
X2188008Y-1358623D02*
X2188008Y-1398623D01*
X2168008Y-1378623D02*
X2208008Y-1378623D01*
X2202008Y-1709871D02*
X2202008Y-1749871D01*
X2182008Y-1729871D02*
X2222008Y-1729871D01*
X2288008Y-772060D02*
X2288008Y-812060D01*
X2268008Y-792060D02*
X2308008Y-792060D01*
X2322008Y-1749247D02*
X2322008Y-1789247D01*
X2302008Y-1769247D02*
X2342008Y-1769247D01*
X2323008Y-1359247D02*
X2323008Y-1399247D01*
X2303008Y-1379247D02*
X2343008Y-1379247D01*
X2361008Y-6361247D02*
X2361008Y-6401247D01*
X2341008Y-6381247D02*
X2381008Y-6381247D01*
X2391008Y-6521247D02*
X2391008Y-6561247D01*
X2371008Y-6541247D02*
X2411008Y-6541247D01*
X2414008Y-6785247D02*
X2414008Y-6825247D01*
X2394008Y-6805247D02*
X2434008Y-6805247D01*
X2421008Y-772060D02*
X2421008Y-812060D01*
X2401008Y-792060D02*
X2441008Y-792060D01*
X2422008Y-1108309D02*
X2422008Y-1148309D01*
X2402008Y-1128309D02*
X2442008Y-1128309D01*
X2501008Y-5593247D02*
X2501008Y-5633247D01*
X2481008Y-5613247D02*
X2521008Y-5613247D01*
X2530008Y-6217247D02*
X2530008Y-6257247D01*
X2510008Y-6237247D02*
X2550008Y-6237247D01*
X2555008Y-815060D02*
X2555008Y-855060D01*
X2535008Y-835060D02*
X2575008Y-835060D01*
X2556008Y-1087309D02*
X2556008Y-1127309D01*
X2536008Y-1107309D02*
X2576008Y-1107309D01*
X2600000Y-4985000D02*
X2600000Y-5025000D01*
X2580000Y-5005000D02*
X2620000Y-5005000D01*
X2677008Y-1087309D02*
X2677008Y-1127309D01*
X2657008Y-1107309D02*
X2697008Y-1107309D01*
X2679008Y-816060D02*
X2679008Y-856060D01*
X2659008Y-836060D02*
X2699008Y-836060D01*
X2873008Y-3856246D02*
X2873008Y-3896246D01*
X2853008Y-3876246D02*
X2893008Y-3876246D01*
X2925000Y-5030000D02*
X2925000Y-5070000D01*
X2905000Y-5050000D02*
X2945000Y-5050000D01*
X2948008Y-4311247D02*
X2948008Y-4351247D01*
X2928008Y-4331247D02*
X2968008Y-4331247D01*
X2949008Y-4473247D02*
X2949008Y-4513247D01*
X2929008Y-4493247D02*
X2969008Y-4493247D01*
X2975008Y-3857246D02*
X2975008Y-3897246D01*
X2955008Y-3877246D02*
X2995008Y-3877246D01*
X3037008Y-2634247D02*
X3037008Y-2674247D01*
X3017008Y-2654247D02*
X3057008Y-2654247D01*
X3038008Y-2720247D02*
X3038008Y-2760247D01*
X3018008Y-2740247D02*
X3058008Y-2740247D01*
X3084407Y-2393988D02*
X3084407Y-2433988D01*
X3064407Y-2413988D02*
X3104407Y-2413988D01*
X3085000Y-5030000D02*
X3085000Y-5070000D01*
X3065000Y-5050000D02*
X3105000Y-5050000D01*
X3085508Y-1250247D02*
X3085508Y-1290247D01*
X3065508Y-1270247D02*
X3105508Y-1270247D01*
X3085508Y-1377747D02*
X3085508Y-1417747D01*
X3065508Y-1397747D02*
X3105508Y-1397747D01*
X3085508Y-1630247D02*
X3085508Y-1670247D01*
X3065508Y-1650247D02*
X3105508Y-1650247D01*
X3085508Y-1760247D02*
X3085508Y-1800247D01*
X3065508Y-1780247D02*
X3105508Y-1780247D01*
X3085508Y-2012747D02*
X3085508Y-2052747D01*
X3065508Y-2032747D02*
X3105508Y-2032747D01*
X3085508Y-2267747D02*
X3085508Y-2307747D01*
X3065508Y-2287747D02*
X3105508Y-2287747D01*
X3088008Y-1122747D02*
X3088008Y-1162747D01*
X3068008Y-1142747D02*
X3108008Y-1142747D01*
X3088008Y-1505247D02*
X3088008Y-1545247D01*
X3068008Y-1525247D02*
X3108008Y-1525247D01*
X3088008Y-1885247D02*
X3088008Y-1925247D01*
X3068008Y-1905247D02*
X3108008Y-1905247D01*
X3097346Y-743148D02*
X3097346Y-783148D01*
X3077346Y-763148D02*
X3117346Y-763148D01*
X3197008Y-743247D02*
X3197008Y-783247D01*
X3177008Y-763247D02*
X3217008Y-763247D01*
X3297008Y-743247D02*
X3297008Y-783247D01*
X3277008Y-763247D02*
X3317008Y-763247D01*
X3301008Y-2216247D02*
X3301008Y-2256247D01*
X3281008Y-2236247D02*
X3321008Y-2236247D01*
X3368008Y-2332747D02*
X3368008Y-2372747D01*
X3348008Y-2352747D02*
X3388008Y-2352747D01*
X3397008Y-743247D02*
X3397008Y-783247D01*
X3377008Y-763247D02*
X3417008Y-763247D01*
X3447008Y-6580247D02*
X3447008Y-6620247D01*
X3427008Y-6600247D02*
X3467008Y-6600247D01*
X3458008Y-6201247D02*
X3458008Y-6241247D01*
X3438008Y-6221247D02*
X3478008Y-6221247D01*
X3460008Y-5573247D02*
X3460008Y-5613247D01*
X3440008Y-5593247D02*
X3480008Y-5593247D01*
X3638008Y-4389247D02*
X3638008Y-4429247D01*
X3618008Y-4409247D02*
X3658008Y-4409247D01*
X3643008Y-4265247D02*
X3643008Y-4305247D01*
X3623008Y-4285247D02*
X3663008Y-4285247D01*
X3744008Y-4389247D02*
X3744008Y-4429247D01*
X3724008Y-4409247D02*
X3764008Y-4409247D01*
X3795508Y-2289247D02*
X3795508Y-2329247D01*
X3775508Y-2309247D02*
X3815508Y-2309247D01*
X3795508Y-2376247D02*
X3795508Y-2416247D01*
X3775508Y-2396247D02*
X3815508Y-2396247D01*
X3812008Y-3457247D02*
X3812008Y-3497247D01*
X3792008Y-3477247D02*
X3832008Y-3477247D01*
X3815008Y-3590247D02*
X3815008Y-3630247D01*
X3795008Y-3610247D02*
X3835008Y-3610247D01*
X3959008Y-3901247D02*
X3959008Y-3941247D01*
X3939008Y-3921247D02*
X3979008Y-3921247D01*
X3961008Y-721247D02*
X3961008Y-761247D01*
X3941008Y-741247D02*
X3981008Y-741247D01*
X4018008Y-5980247D02*
X4018008Y-6020247D01*
X3998008Y-6000247D02*
X4038008Y-6000247D01*
X4036008Y-3497247D02*
X4036008Y-3537247D01*
X4016008Y-3517247D02*
X4056008Y-3517247D01*
X4104008Y-4271247D02*
X4104008Y-4311247D01*
X4084008Y-4291247D02*
X4124008Y-4291247D01*
X4208008Y-3901247D02*
X4208008Y-3941247D01*
X4188008Y-3921247D02*
X4228008Y-3921247D01*
X4213407Y-3718843D02*
X4213407Y-3758843D01*
X4193407Y-3738843D02*
X4233407Y-3738843D01*
X4218008Y-2272247D02*
X4218008Y-2312247D01*
X4198008Y-2292247D02*
X4238008Y-2292247D01*
X4220008Y-3621247D02*
X4220008Y-3661247D01*
X4200008Y-3641247D02*
X4240008Y-3641247D01*
X4263346Y-876148D02*
X4263346Y-916148D01*
X4243346Y-896148D02*
X4283346Y-896148D01*
X4297008Y-1862247D02*
X4297008Y-1902247D01*
X4277008Y-1882247D02*
X4317008Y-1882247D01*
X4326008Y-1439247D02*
X4326008Y-1479247D01*
X4306008Y-1459247D02*
X4346008Y-1459247D01*
X4363008Y-876247D02*
X4363008Y-916247D01*
X4343008Y-896247D02*
X4383008Y-896247D01*
X4382008Y-1948247D02*
X4382008Y-1988247D01*
X4362008Y-1968247D02*
X4402008Y-1968247D01*
X4399008Y-2169247D02*
X4399008Y-2209247D01*
X4379008Y-2189247D02*
X4419008Y-2189247D01*
X4399008Y-2269247D02*
X4399008Y-2309247D01*
X4379008Y-2289247D02*
X4419008Y-2289247D01*
X4399008Y-2369247D02*
X4399008Y-2409247D01*
X4379008Y-2389247D02*
X4419008Y-2389247D01*
X4413008Y-1566247D02*
X4413008Y-1606247D01*
X4393008Y-1586247D02*
X4433008Y-1586247D01*
X4438008Y-2008247D02*
X4438008Y-2048247D01*
X4418008Y-2028247D02*
X4458008Y-2028247D01*
X4449008Y-997747D02*
X4449008Y-1037747D01*
X4429008Y-1017747D02*
X4469008Y-1017747D01*
X4452008Y-3734247D02*
X4452008Y-3774247D01*
X4432008Y-3754247D02*
X4472008Y-3754247D01*
X4455008Y-3903247D02*
X4455008Y-3943247D01*
X4435008Y-3923247D02*
X4475008Y-3923247D01*
X4455008Y-4198247D02*
X4455008Y-4238247D01*
X4435008Y-4218247D02*
X4475008Y-4218247D01*
X4459008Y-1296247D02*
X4459008Y-1336247D01*
X4439008Y-1316247D02*
X4479008Y-1316247D01*
X4463008Y-876247D02*
X4463008Y-916247D01*
X4443008Y-896247D02*
X4483008Y-896247D01*
X4468008Y-5135247D02*
X4468008Y-5175247D01*
X4448008Y-5155247D02*
X4488008Y-5155247D01*
X4496008Y-2066247D02*
X4496008Y-2106247D01*
X4476008Y-2086247D02*
X4516008Y-2086247D01*
X4542008Y-1188247D02*
X4542008Y-1228247D01*
X4522008Y-1208247D02*
X4562008Y-1208247D01*
X4547008Y-1058247D02*
X4547008Y-1098247D01*
X4527008Y-1078247D02*
X4567008Y-1078247D01*
X4563008Y-876247D02*
X4563008Y-916247D01*
X4543008Y-896247D02*
X4583008Y-896247D01*
X4563008Y-5429247D02*
X4563008Y-5469247D01*
X4543008Y-5449247D02*
X4583008Y-5449247D01*
X4578008Y-1883247D02*
X4578008Y-1923247D01*
X4558008Y-1903247D02*
X4598008Y-1903247D01*
X4578153Y-1502273D02*
X4578153Y-1542273D01*
X4558153Y-1522273D02*
X4598153Y-1522273D01*
X4578153Y-1629158D02*
X4578153Y-1669158D01*
X4558153Y-1649158D02*
X4598153Y-1649158D01*
X4578765Y-1756494D02*
X4578765Y-1796494D01*
X4558765Y-1776494D02*
X4598765Y-1776494D01*
X4591008Y-5135247D02*
X4591008Y-5175247D01*
X4571008Y-5155247D02*
X4611008Y-5155247D01*
X4638008Y-4201247D02*
X4638008Y-4241247D01*
X4618008Y-4221247D02*
X4658008Y-4221247D01*
X4679008Y-4612247D02*
X4679008Y-4652247D01*
X4659008Y-4632247D02*
X4699008Y-4632247D01*
X4705008Y-2515247D02*
X4705008Y-2555247D01*
X4685008Y-2535247D02*
X4725008Y-2535247D01*
X4705008Y-3420247D02*
X4705008Y-3460247D01*
X4685008Y-3440247D02*
X4725008Y-3440247D01*
X4705008Y-3736247D02*
X4705008Y-3776247D01*
X4685008Y-3756247D02*
X4725008Y-3756247D01*
X4707008Y-2920247D02*
X4707008Y-2960247D01*
X4687008Y-2940247D02*
X4727008Y-2940247D01*
X4708008Y-3903247D02*
X4708008Y-3943247D01*
X4688008Y-3923247D02*
X4728008Y-3923247D01*
X4710008Y-3025247D02*
X4710008Y-3065247D01*
X4690008Y-3045247D02*
X4730008Y-3045247D01*
X4812008Y-4285247D02*
X4812008Y-4325247D01*
X4792008Y-4305247D02*
X4832008Y-4305247D01*
X4879008Y-6585247D02*
X4879008Y-6625247D01*
X4859008Y-6605247D02*
X4899008Y-6605247D01*
X4907008Y-5680247D02*
X4907008Y-5720247D01*
X4887008Y-5700247D02*
X4927008Y-5700247D01*
X4930008Y-4287247D02*
X4930008Y-4327247D01*
X4910008Y-4307247D02*
X4950008Y-4307247D01*
X4948008Y-2069247D02*
X4948008Y-2109247D01*
X4928008Y-2089247D02*
X4968008Y-2089247D01*
X4955008Y-1879247D02*
X4955008Y-1919247D01*
X4935008Y-1899247D02*
X4975008Y-1899247D01*
X4958008Y-2471247D02*
X4958008Y-2511247D01*
X4938008Y-2491247D02*
X4978008Y-2491247D01*
X4958008Y-2660247D02*
X4958008Y-2700247D01*
X4938008Y-2680247D02*
X4978008Y-2680247D01*
X4959008Y-2279247D02*
X4959008Y-2319247D01*
X4939008Y-2299247D02*
X4979008Y-2299247D01*
X4969008Y-3902247D02*
X4969008Y-3942247D01*
X4949008Y-3922247D02*
X4989008Y-3922247D01*
X4973008Y-3736247D02*
X4973008Y-3776247D01*
X4953008Y-3756247D02*
X4993008Y-3756247D01*
X5002008Y-2129247D02*
X5002008Y-2169247D01*
X4982008Y-2149247D02*
X5022008Y-2149247D01*
X5038008Y-1470247D02*
X5038008Y-1510247D01*
X5018008Y-1490247D02*
X5058008Y-1490247D01*
X5039008Y-1314247D02*
X5039008Y-1354247D01*
X5019008Y-1334247D02*
X5059008Y-1334247D01*
X5055000Y-4985000D02*
X5055000Y-5025000D01*
X5035000Y-5005000D02*
X5075000Y-5005000D01*
X5057008Y-2069247D02*
X5057008Y-2109247D01*
X5037008Y-2089247D02*
X5077008Y-2089247D01*
X5079008Y-4235247D02*
X5079008Y-4275247D01*
X5059008Y-4255247D02*
X5099008Y-4255247D01*
X5148008Y-1403247D02*
X5148008Y-1443247D01*
X5128008Y-1423247D02*
X5168008Y-1423247D01*
X5179008Y-984247D02*
X5179008Y-1024247D01*
X5159008Y-1004247D02*
X5199008Y-1004247D01*
X5180008Y-1927247D02*
X5180008Y-1967247D01*
X5160008Y-1947247D02*
X5200008Y-1947247D01*
X5181008Y-1579247D02*
X5181008Y-1619247D01*
X5161008Y-1599247D02*
X5201008Y-1599247D01*
X5191008Y-1180247D02*
X5191008Y-1220247D01*
X5171008Y-1200247D02*
X5211008Y-1200247D01*
X5309008Y-1076247D02*
X5309008Y-1116247D01*
X5289008Y-1096247D02*
X5329008Y-1096247D01*
X5315000Y-5940000D02*
X5315000Y-5980000D01*
X5295000Y-5960000D02*
X5335000Y-5960000D01*
X5325008Y-1319247D02*
X5325008Y-1359247D01*
X5305008Y-1339247D02*
X5345008Y-1339247D01*
X5362216Y-4000392D02*
X5362216Y-4040392D01*
X5342216Y-4020392D02*
X5382216Y-4020392D01*
X5363008Y-3900247D02*
X5363008Y-3940247D01*
X5343008Y-3920247D02*
X5383008Y-3920247D01*
X5365000Y-5686493D02*
X5365000Y-5726493D01*
X5345000Y-5706493D02*
X5385000Y-5706493D01*
X5407008Y-4527747D02*
X5407008Y-4567747D01*
X5387008Y-4547747D02*
X5427008Y-4547747D01*
X5436008Y-1760247D02*
X5436008Y-1800247D01*
X5416008Y-1780247D02*
X5456008Y-1780247D01*
X5462008Y-4008247D02*
X5462008Y-4048247D01*
X5442008Y-4028247D02*
X5482008Y-4028247D01*
X5462410Y-3908388D02*
X5462410Y-3948388D01*
X5442410Y-3928388D02*
X5482410Y-3928388D01*
X5474008Y-2112247D02*
X5474008Y-2152247D01*
X5454008Y-2132247D02*
X5494008Y-2132247D01*
X5481008Y-1245247D02*
X5481008Y-1285247D01*
X5461008Y-1265247D02*
X5501008Y-1265247D01*
X5545008Y-3574247D02*
X5545008Y-3614247D01*
X5525008Y-3594247D02*
X5565008Y-3594247D01*
X5557008Y-1322247D02*
X5557008Y-1362247D01*
X5537008Y-1342247D02*
X5577008Y-1342247D01*
X5599008Y-2757247D02*
X5599008Y-2797247D01*
X5579008Y-2777247D02*
X5619008Y-2777247D01*
X5616008Y-1469247D02*
X5616008Y-1509247D01*
X5596008Y-1489247D02*
X5636008Y-1489247D01*
X5617008Y-6659247D02*
X5617008Y-6699247D01*
X5597008Y-6679247D02*
X5637008Y-6679247D01*
X5618008Y-2111247D02*
X5618008Y-2151247D01*
X5598008Y-2131247D02*
X5638008Y-2131247D01*
X5642008Y-519247D02*
X5642008Y-559247D01*
X5622008Y-539247D02*
X5662008Y-539247D01*
X5644008Y-1752247D02*
X5644008Y-1792247D01*
X5624008Y-1772247D02*
X5664008Y-1772247D01*
X5663008Y-1626247D02*
X5663008Y-1666247D01*
X5643008Y-1646247D02*
X5683008Y-1646247D01*
X5751008Y-1050247D02*
X5751008Y-1090247D01*
X5731008Y-1070247D02*
X5771008Y-1070247D01*
X5753008Y-1281247D02*
X5753008Y-1321247D01*
X5733008Y-1301247D02*
X5773008Y-1301247D01*
X5764008Y-2661247D02*
X5764008Y-2701247D01*
X5744008Y-2681247D02*
X5784008Y-2681247D01*
X5779008Y-2190247D02*
X5779008Y-2230247D01*
X5759008Y-2210247D02*
X5799008Y-2210247D01*
X5781008Y-715247D02*
X5781008Y-755247D01*
X5761008Y-735247D02*
X5801008Y-735247D01*
X5878008Y-2190247D02*
X5878008Y-2230247D01*
X5858008Y-2210247D02*
X5898008Y-2210247D01*
X5899008Y-598247D02*
X5899008Y-638247D01*
X5879008Y-618247D02*
X5919008Y-618247D01*
X5900008Y-2864247D02*
X5900008Y-2904247D01*
X5880008Y-2884247D02*
X5920008Y-2884247D01*
X5912000Y-4129000D02*
X5912000Y-4169000D01*
X5892000Y-4149000D02*
X5932000Y-4149000D01*
X5923008Y-4740247D02*
X5923008Y-4780247D01*
X5903008Y-4760247D02*
X5943008Y-4760247D01*
X5931008Y-1363247D02*
X5931008Y-1403247D01*
X5911008Y-1383247D02*
X5951008Y-1383247D01*
X5932008Y-1653247D02*
X5932008Y-1693247D01*
X5912008Y-1673247D02*
X5952008Y-1673247D01*
X5974008Y-1180247D02*
X5974008Y-1220247D01*
X5954008Y-1200247D02*
X5994008Y-1200247D01*
X6006008Y-466247D02*
X6006008Y-506247D01*
X5986008Y-486247D02*
X6026008Y-486247D01*
X6061008Y-5698247D02*
X6061008Y-5738247D01*
X6041008Y-5718247D02*
X6081008Y-5718247D01*
X6061008Y-5798247D02*
X6061008Y-5838247D01*
X6041008Y-5818247D02*
X6081008Y-5818247D01*
X6061008Y-5898247D02*
X6061008Y-5938247D01*
X6041008Y-5918247D02*
X6081008Y-5918247D01*
X6101008Y-1508247D02*
X6101008Y-1548247D01*
X6081008Y-1528247D02*
X6121008Y-1528247D01*
X6135405Y-6943818D02*
X6135405Y-6983818D01*
X6115405Y-6963818D02*
X6155405Y-6963818D01*
X6235405Y-6943818D02*
X6235405Y-6983818D01*
X6215405Y-6963818D02*
X6255405Y-6963818D01*
X6242008Y-1031247D02*
X6242008Y-1071247D01*
X6222008Y-1051247D02*
X6262008Y-1051247D01*
X6274008Y-1650247D02*
X6274008Y-1690247D01*
X6254008Y-1670247D02*
X6294008Y-1670247D01*
X6325472Y-1275247D02*
X6325472Y-1315247D01*
X6305472Y-1295247D02*
X6345472Y-1295247D01*
X6325896Y-1441802D02*
X6325896Y-1481802D01*
X6305896Y-1461802D02*
X6345896Y-1461802D01*
X6325905Y-1355355D02*
X6325905Y-1395355D01*
X6305905Y-1375355D02*
X6345905Y-1375355D01*
X6325972Y-1191247D02*
X6325972Y-1231247D01*
X6305972Y-1211247D02*
X6345972Y-1211247D01*
X6335405Y-6943818D02*
X6335405Y-6983818D01*
X6315405Y-6963818D02*
X6355405Y-6963818D01*
X6409008Y-980247D02*
X6409008Y-1020247D01*
X6389008Y-1000247D02*
X6429008Y-1000247D01*
X6435405Y-6943818D02*
X6435405Y-6983818D01*
X6415405Y-6963818D02*
X6455405Y-6963818D01*
X6516008Y-465247D02*
X6516008Y-505247D01*
X6496008Y-485247D02*
X6536008Y-485247D01*
X6535405Y-6943818D02*
X6535405Y-6983818D01*
X6515405Y-6963818D02*
X6555405Y-6963818D01*
X6608008Y-1069247D02*
X6608008Y-1109247D01*
X6588008Y-1089247D02*
X6628008Y-1089247D01*
X6616008Y-4616247D02*
X6616008Y-4656247D01*
X6596008Y-4636247D02*
X6636008Y-4636247D01*
X6667008Y-799247D02*
X6667008Y-839247D01*
X6647008Y-819247D02*
X6687008Y-819247D01*
X6752972Y-1275247D02*
X6752972Y-1315247D01*
X6732972Y-1295247D02*
X6772972Y-1295247D01*
X6753405Y-1355355D02*
X6753405Y-1395355D01*
X6733405Y-1375355D02*
X6773405Y-1375355D01*
X6753472Y-1191247D02*
X6753472Y-1231247D01*
X6733472Y-1211247D02*
X6773472Y-1211247D01*
X6753508Y-1439311D02*
X6753508Y-1479311D01*
X6733508Y-1459311D02*
X6773508Y-1459311D01*
X6851008Y-2839247D02*
X6851008Y-2879247D01*
X6831008Y-2859247D02*
X6871008Y-2859247D01*
X6853008Y-4781247D02*
X6853008Y-4821247D01*
X6833008Y-4801247D02*
X6873008Y-4801247D01*
X7032008Y-464247D02*
X7032008Y-504247D01*
X7012008Y-484247D02*
X7052008Y-484247D01*
X849524Y-602764D02*
X849524Y-549730D01*
X796491Y-549730D01*
X796491Y-602764D01*
X849524Y-602764D01*
X849524Y-802764D02*
X849524Y-749730D01*
X796491Y-749730D01*
X796491Y-802764D01*
X849524Y-802764D01*
X232100Y-696750D02*
X272100Y-656750D01*
X232100Y-616750D01*
X192100Y-656750D01*
X232100Y-696750D01*
X232100Y-950750D02*
X272100Y-910750D01*
X232100Y-870750D01*
X192100Y-910750D01*
X232100Y-950750D01*
X232100Y-1204750D02*
X272100Y-1164750D01*
X232100Y-1124750D01*
X192100Y-1164750D01*
X232100Y-1204750D01*
X232100Y-1458750D02*
X272100Y-1418750D01*
X232100Y-1378750D01*
X192100Y-1418750D01*
X232100Y-1458750D01*
X232100Y-1712750D02*
X272100Y-1672750D01*
X232100Y-1632750D01*
X192100Y-1672750D01*
X232100Y-1712750D01*
X232100Y-1966750D02*
X272100Y-1926750D01*
X232100Y-1886750D01*
X192100Y-1926750D01*
X232100Y-1966750D01*
X232100Y-5776750D02*
X272100Y-5736750D01*
X232100Y-5696750D01*
X192100Y-5736750D01*
X232100Y-5776750D01*
X232100Y-6030750D02*
X272100Y-5990750D01*
X232100Y-5950750D01*
X192100Y-5990750D01*
X232100Y-6030750D01*
X232100Y-6284750D02*
X272100Y-6244750D01*
X232100Y-6204750D01*
X192100Y-6244750D01*
X232100Y-6284750D01*
X232100Y-6538750D02*
X272100Y-6498750D01*
X232100Y-6458750D01*
X192100Y-6498750D01*
X232100Y-6538750D01*
X232100Y-6792750D02*
X272100Y-6752750D01*
X232100Y-6712750D01*
X192100Y-6752750D01*
X232100Y-6792750D01*
X232100Y-7046750D02*
X272100Y-7006750D01*
X232100Y-6966750D01*
X192100Y-7006750D01*
X232100Y-7046750D01*
X651250Y-268600D02*
X691250Y-228600D01*
X651250Y-188600D01*
X611250Y-228600D01*
X651250Y-268600D01*
X657250Y-7468400D02*
X697250Y-7428400D01*
X657250Y-7388400D01*
X617250Y-7428400D01*
X657250Y-7468400D01*
X905250Y-268600D02*
X945250Y-228600D01*
X905250Y-188600D01*
X865250Y-228600D01*
X905250Y-268600D01*
X911250Y-7468400D02*
X951250Y-7428400D01*
X911250Y-7388400D01*
X871250Y-7428400D01*
X911250Y-7468400D01*
X1159250Y-268600D02*
X1199250Y-228600D01*
X1159250Y-188600D01*
X1119250Y-228600D01*
X1159250Y-268600D01*
X1165250Y-7468400D02*
X1205250Y-7428400D01*
X1165250Y-7388400D01*
X1125250Y-7428400D01*
X1165250Y-7468400D01*
X1413250Y-268600D02*
X1453250Y-228600D01*
X1413250Y-188600D01*
X1373250Y-228600D01*
X1413250Y-268600D01*
X1419250Y-7468400D02*
X1459250Y-7428400D01*
X1419250Y-7388400D01*
X1379250Y-7428400D01*
X1419250Y-7468400D01*
X1667250Y-268600D02*
X1707250Y-228600D01*
X1667250Y-188600D01*
X1627250Y-228600D01*
X1667250Y-268600D01*
X1673250Y-7468400D02*
X1713250Y-7428400D01*
X1673250Y-7388400D01*
X1633250Y-7428400D01*
X1673250Y-7468400D01*
X1921250Y-268600D02*
X1961250Y-228600D01*
X1921250Y-188600D01*
X1881250Y-228600D01*
X1921250Y-268600D01*
X1927250Y-7468400D02*
X1967250Y-7428400D01*
X1927250Y-7388400D01*
X1887250Y-7428400D01*
X1927250Y-7468400D01*
X5731250Y-268600D02*
X5771250Y-228600D01*
X5731250Y-188600D01*
X5691250Y-228600D01*
X5731250Y-268600D01*
X5737250Y-7468400D02*
X5777250Y-7428400D01*
X5737250Y-7388400D01*
X5697250Y-7428400D01*
X5737250Y-7468400D01*
X5985250Y-268600D02*
X6025250Y-228600D01*
X5985250Y-188600D01*
X5945250Y-228600D01*
X5985250Y-268600D01*
X5991250Y-7468400D02*
X6031250Y-7428400D01*
X5991250Y-7388400D01*
X5951250Y-7428400D01*
X5991250Y-7468400D01*
X6239250Y-268600D02*
X6279250Y-228600D01*
X6239250Y-188600D01*
X6199250Y-228600D01*
X6239250Y-268600D01*
X6245250Y-7468400D02*
X6285250Y-7428400D01*
X6245250Y-7388400D01*
X6205250Y-7428400D01*
X6245250Y-7468400D01*
X6493250Y-268600D02*
X6533250Y-228600D01*
X6493250Y-188600D01*
X6453250Y-228600D01*
X6493250Y-268600D01*
X6499250Y-7468400D02*
X6539250Y-7428400D01*
X6499250Y-7388400D01*
X6459250Y-7428400D01*
X6499250Y-7468400D01*
X6747250Y-268600D02*
X6787250Y-228600D01*
X6747250Y-188600D01*
X6707250Y-228600D01*
X6747250Y-268600D01*
X6753250Y-7468400D02*
X6793250Y-7428400D01*
X6753250Y-7388400D01*
X6713250Y-7428400D01*
X6753250Y-7468400D01*
X7001250Y-268600D02*
X7041250Y-228600D01*
X7001250Y-188600D01*
X6961250Y-228600D01*
X7001250Y-268600D01*
X7007250Y-7468400D02*
X7047250Y-7428400D01*
X7007250Y-7388400D01*
X6967250Y-7428400D01*
X7007250Y-7468400D01*
X7426400Y-690750D02*
X7466400Y-650750D01*
X7426400Y-610750D01*
X7386400Y-650750D01*
X7426400Y-690750D01*
X7426400Y-944750D02*
X7466400Y-904750D01*
X7426400Y-864750D01*
X7386400Y-904750D01*
X7426400Y-944750D01*
X7426400Y-1198750D02*
X7466400Y-1158750D01*
X7426400Y-1118750D01*
X7386400Y-1158750D01*
X7426400Y-1198750D01*
X7426400Y-1452750D02*
X7466400Y-1412750D01*
X7426400Y-1372750D01*
X7386400Y-1412750D01*
X7426400Y-1452750D01*
X7426400Y-1706750D02*
X7466400Y-1666750D01*
X7426400Y-1626750D01*
X7386400Y-1666750D01*
X7426400Y-1706750D01*
X7426400Y-1960750D02*
X7466400Y-1920750D01*
X7426400Y-1880750D01*
X7386400Y-1920750D01*
X7426400Y-1960750D01*
X7426400Y-5770750D02*
X7466400Y-5730750D01*
X7426400Y-5690750D01*
X7386400Y-5730750D01*
X7426400Y-5770750D01*
X7426400Y-6024750D02*
X7466400Y-5984750D01*
X7426400Y-5944750D01*
X7386400Y-5984750D01*
X7426400Y-6024750D01*
X7426400Y-6278750D02*
X7466400Y-6238750D01*
X7426400Y-6198750D01*
X7386400Y-6238750D01*
X7426400Y-6278750D01*
X7426400Y-6532750D02*
X7466400Y-6492750D01*
X7426400Y-6452750D01*
X7386400Y-6492750D01*
X7426400Y-6532750D01*
X7426400Y-6786750D02*
X7466400Y-6746750D01*
X7426400Y-6706750D01*
X7386400Y-6746750D01*
X7426400Y-6786750D01*
X7426400Y-7040750D02*
X7466400Y-7000750D01*
X7426400Y-6960750D01*
X7386400Y-7000750D01*
X7426400Y-7040750D01*
D11*
X259277Y-7970984D02*
X259277Y-7770984D01*
X259277Y-7770984D02*
X306896Y-7770984D01*
X306896Y-7770984D02*
X335467Y-7780508D01*
X335467Y-7780508D02*
X354515Y-7799555D01*
X354515Y-7799555D02*
X364039Y-7818603D01*
X364039Y-7818603D02*
X373562Y-7856698D01*
X373562Y-7856698D02*
X373562Y-7885269D01*
X373562Y-7885269D02*
X364039Y-7923365D01*
X364039Y-7923365D02*
X354515Y-7942412D01*
X354515Y-7942412D02*
X335467Y-7961460D01*
X335467Y-7961460D02*
X306896Y-7970984D01*
X306896Y-7970984D02*
X259277Y-7970984D01*
X459277Y-7970984D02*
X459277Y-7837650D01*
X459277Y-7875746D02*
X468801Y-7856698D01*
X468801Y-7856698D02*
X478324Y-7847174D01*
X478324Y-7847174D02*
X497372Y-7837650D01*
X497372Y-7837650D02*
X516420Y-7837650D01*
X583086Y-7970984D02*
X583086Y-7837650D01*
X583086Y-7770984D02*
X573563Y-7780508D01*
X573563Y-7780508D02*
X583086Y-7790031D01*
X583086Y-7790031D02*
X592610Y-7780508D01*
X592610Y-7780508D02*
X583086Y-7770984D01*
X583086Y-7770984D02*
X583086Y-7790031D01*
X706896Y-7970984D02*
X687848Y-7961460D01*
X687848Y-7961460D02*
X678324Y-7942412D01*
X678324Y-7942412D02*
X678324Y-7770984D01*
X811658Y-7970984D02*
X792610Y-7961460D01*
X792610Y-7961460D02*
X783086Y-7942412D01*
X783086Y-7942412D02*
X783086Y-7770984D01*
X1040229Y-7970984D02*
X1040229Y-7770984D01*
X1040229Y-7770984D02*
X1106896Y-7913841D01*
X1106896Y-7913841D02*
X1173563Y-7770984D01*
X1173563Y-7770984D02*
X1173563Y-7970984D01*
X1354515Y-7970984D02*
X1354515Y-7866222D01*
X1354515Y-7866222D02*
X1344991Y-7847174D01*
X1344991Y-7847174D02*
X1325944Y-7837650D01*
X1325944Y-7837650D02*
X1287848Y-7837650D01*
X1287848Y-7837650D02*
X1268801Y-7847174D01*
X1354515Y-7961460D02*
X1335467Y-7970984D01*
X1335467Y-7970984D02*
X1287848Y-7970984D01*
X1287848Y-7970984D02*
X1268801Y-7961460D01*
X1268801Y-7961460D02*
X1259277Y-7942412D01*
X1259277Y-7942412D02*
X1259277Y-7923365D01*
X1259277Y-7923365D02*
X1268801Y-7904317D01*
X1268801Y-7904317D02*
X1287848Y-7894793D01*
X1287848Y-7894793D02*
X1335467Y-7894793D01*
X1335467Y-7894793D02*
X1354515Y-7885269D01*
X1449753Y-7837650D02*
X1449753Y-8037650D01*
X1449753Y-7847174D02*
X1468801Y-7837650D01*
X1468801Y-7837650D02*
X1506896Y-7837650D01*
X1506896Y-7837650D02*
X1525943Y-7847174D01*
X1525943Y-7847174D02*
X1535467Y-7856698D01*
X1535467Y-7856698D02*
X1544991Y-7875746D01*
X1544991Y-7875746D02*
X1544991Y-7932888D01*
X1544991Y-7932888D02*
X1535467Y-7951936D01*
X1535467Y-7951936D02*
X1525943Y-7961460D01*
X1525943Y-7961460D02*
X1506896Y-7970984D01*
X1506896Y-7970984D02*
X1468801Y-7970984D01*
X1468801Y-7970984D02*
X1449753Y-7961460D01*
X1630705Y-7951936D02*
X1640229Y-7961460D01*
X1640229Y-7961460D02*
X1630705Y-7970984D01*
X1630705Y-7970984D02*
X1621182Y-7961460D01*
X1621182Y-7961460D02*
X1630705Y-7951936D01*
X1630705Y-7951936D02*
X1630705Y-7970984D01*
X1630705Y-7847174D02*
X1640229Y-7856698D01*
X1640229Y-7856698D02*
X1630705Y-7866222D01*
X1630705Y-7866222D02*
X1621182Y-7856698D01*
X1621182Y-7856698D02*
X1630705Y-7847174D01*
X1630705Y-7847174D02*
X1630705Y-7866222D01*
D12*
X-31500Y-8284500D02*
X-1500Y-8314500D01*
X-1500Y-8284500D02*
X-31500Y-8314500D01*
D11*
X297372Y-8190984D02*
X316420Y-8190984D01*
X316420Y-8190984D02*
X335467Y-8200508D01*
X335467Y-8200508D02*
X344991Y-8210031D01*
X344991Y-8210031D02*
X354515Y-8229079D01*
X354515Y-8229079D02*
X364039Y-8267174D01*
X364039Y-8267174D02*
X364039Y-8314793D01*
X364039Y-8314793D02*
X354515Y-8352888D01*
X354515Y-8352888D02*
X344991Y-8371936D01*
X344991Y-8371936D02*
X335467Y-8381460D01*
X335467Y-8381460D02*
X316420Y-8390984D01*
X316420Y-8390984D02*
X297372Y-8390984D01*
X297372Y-8390984D02*
X278324Y-8381460D01*
X278324Y-8381460D02*
X268801Y-8371936D01*
X268801Y-8371936D02*
X259277Y-8352888D01*
X259277Y-8352888D02*
X249753Y-8314793D01*
X249753Y-8314793D02*
X249753Y-8267174D01*
X249753Y-8267174D02*
X259277Y-8229079D01*
X259277Y-8229079D02*
X268801Y-8210031D01*
X268801Y-8210031D02*
X278324Y-8200508D01*
X278324Y-8200508D02*
X297372Y-8190984D01*
X449753Y-8371936D02*
X459277Y-8381460D01*
X459277Y-8381460D02*
X449753Y-8390984D01*
X449753Y-8390984D02*
X440229Y-8381460D01*
X440229Y-8381460D02*
X449753Y-8371936D01*
X449753Y-8371936D02*
X449753Y-8390984D01*
X525944Y-8190984D02*
X649753Y-8190984D01*
X649753Y-8190984D02*
X583086Y-8267174D01*
X583086Y-8267174D02*
X611658Y-8267174D01*
X611658Y-8267174D02*
X630705Y-8276698D01*
X630705Y-8276698D02*
X640229Y-8286222D01*
X640229Y-8286222D02*
X649753Y-8305269D01*
X649753Y-8305269D02*
X649753Y-8352888D01*
X649753Y-8352888D02*
X640229Y-8371936D01*
X640229Y-8371936D02*
X630705Y-8381460D01*
X630705Y-8381460D02*
X611658Y-8390984D01*
X611658Y-8390984D02*
X554515Y-8390984D01*
X554515Y-8390984D02*
X535467Y-8381460D01*
X535467Y-8381460D02*
X525944Y-8371936D01*
X773562Y-8190984D02*
X792610Y-8190984D01*
X792610Y-8190984D02*
X811658Y-8200508D01*
X811658Y-8200508D02*
X821182Y-8210031D01*
X821182Y-8210031D02*
X830705Y-8229079D01*
X830705Y-8229079D02*
X840229Y-8267174D01*
X840229Y-8267174D02*
X840229Y-8314793D01*
X840229Y-8314793D02*
X830705Y-8352888D01*
X830705Y-8352888D02*
X821182Y-8371936D01*
X821182Y-8371936D02*
X811658Y-8381460D01*
X811658Y-8381460D02*
X792610Y-8390984D01*
X792610Y-8390984D02*
X773562Y-8390984D01*
X773562Y-8390984D02*
X754515Y-8381460D01*
X754515Y-8381460D02*
X744991Y-8371936D01*
X744991Y-8371936D02*
X735467Y-8352888D01*
X735467Y-8352888D02*
X725943Y-8314793D01*
X725943Y-8314793D02*
X725943Y-8267174D01*
X725943Y-8267174D02*
X735467Y-8229079D01*
X735467Y-8229079D02*
X744991Y-8210031D01*
X744991Y-8210031D02*
X754515Y-8200508D01*
X754515Y-8200508D02*
X773562Y-8190984D01*
X964039Y-8190984D02*
X983086Y-8190984D01*
X983086Y-8190984D02*
X1002134Y-8200508D01*
X1002134Y-8200508D02*
X1011658Y-8210031D01*
X1011658Y-8210031D02*
X1021182Y-8229079D01*
X1021182Y-8229079D02*
X1030705Y-8267174D01*
X1030705Y-8267174D02*
X1030705Y-8314793D01*
X1030705Y-8314793D02*
X1021182Y-8352888D01*
X1021182Y-8352888D02*
X1011658Y-8371936D01*
X1011658Y-8371936D02*
X1002134Y-8381460D01*
X1002134Y-8381460D02*
X983086Y-8390984D01*
X983086Y-8390984D02*
X964039Y-8390984D01*
X964039Y-8390984D02*
X944991Y-8381460D01*
X944991Y-8381460D02*
X935467Y-8371936D01*
X935467Y-8371936D02*
X925943Y-8352888D01*
X925943Y-8352888D02*
X916420Y-8314793D01*
X916420Y-8314793D02*
X916420Y-8267174D01*
X916420Y-8267174D02*
X925943Y-8229079D01*
X925943Y-8229079D02*
X935467Y-8210031D01*
X935467Y-8210031D02*
X944991Y-8200508D01*
X944991Y-8200508D02*
X964039Y-8190984D01*
X1116420Y-8390984D02*
X1116420Y-8257650D01*
X1116420Y-8276698D02*
X1125944Y-8267174D01*
X1125944Y-8267174D02*
X1144991Y-8257650D01*
X1144991Y-8257650D02*
X1173563Y-8257650D01*
X1173563Y-8257650D02*
X1192610Y-8267174D01*
X1192610Y-8267174D02*
X1202134Y-8286222D01*
X1202134Y-8286222D02*
X1202134Y-8390984D01*
X1202134Y-8286222D02*
X1211658Y-8267174D01*
X1211658Y-8267174D02*
X1230705Y-8257650D01*
X1230705Y-8257650D02*
X1259277Y-8257650D01*
X1259277Y-8257650D02*
X1278325Y-8267174D01*
X1278325Y-8267174D02*
X1287848Y-8286222D01*
X1287848Y-8286222D02*
X1287848Y-8390984D01*
X1383086Y-8390984D02*
X1383086Y-8257650D01*
X1383086Y-8276698D02*
X1392610Y-8267174D01*
X1392610Y-8267174D02*
X1411658Y-8257650D01*
X1411658Y-8257650D02*
X1440229Y-8257650D01*
X1440229Y-8257650D02*
X1459277Y-8267174D01*
X1459277Y-8267174D02*
X1468801Y-8286222D01*
X1468801Y-8286222D02*
X1468801Y-8390984D01*
X1468801Y-8286222D02*
X1478324Y-8267174D01*
X1478324Y-8267174D02*
X1497372Y-8257650D01*
X1497372Y-8257650D02*
X1525943Y-8257650D01*
X1525943Y-8257650D02*
X1544991Y-8267174D01*
X1544991Y-8267174D02*
X1554515Y-8286222D01*
X1554515Y-8286222D02*
X1554515Y-8390984D01*
X1944991Y-8181460D02*
X1773563Y-8438603D01*
X2202134Y-8190984D02*
X2221182Y-8190984D01*
X2221182Y-8190984D02*
X2240229Y-8200508D01*
X2240229Y-8200508D02*
X2249753Y-8210031D01*
X2249753Y-8210031D02*
X2259277Y-8229079D01*
X2259277Y-8229079D02*
X2268801Y-8267174D01*
X2268801Y-8267174D02*
X2268801Y-8314793D01*
X2268801Y-8314793D02*
X2259277Y-8352888D01*
X2259277Y-8352888D02*
X2249753Y-8371936D01*
X2249753Y-8371936D02*
X2240229Y-8381460D01*
X2240229Y-8381460D02*
X2221182Y-8390984D01*
X2221182Y-8390984D02*
X2202134Y-8390984D01*
X2202134Y-8390984D02*
X2183087Y-8381460D01*
X2183087Y-8381460D02*
X2173563Y-8371936D01*
X2173563Y-8371936D02*
X2164039Y-8352888D01*
X2164039Y-8352888D02*
X2154515Y-8314793D01*
X2154515Y-8314793D02*
X2154515Y-8267174D01*
X2154515Y-8267174D02*
X2164039Y-8229079D01*
X2164039Y-8229079D02*
X2173563Y-8210031D01*
X2173563Y-8210031D02*
X2183087Y-8200508D01*
X2183087Y-8200508D02*
X2202134Y-8190984D01*
X2354515Y-8371936D02*
X2364039Y-8381460D01*
X2364039Y-8381460D02*
X2354515Y-8390984D01*
X2354515Y-8390984D02*
X2344991Y-8381460D01*
X2344991Y-8381460D02*
X2354515Y-8371936D01*
X2354515Y-8371936D02*
X2354515Y-8390984D01*
X2487848Y-8190984D02*
X2506896Y-8190984D01*
X2506896Y-8190984D02*
X2525944Y-8200508D01*
X2525944Y-8200508D02*
X2535468Y-8210031D01*
X2535468Y-8210031D02*
X2544991Y-8229079D01*
X2544991Y-8229079D02*
X2554515Y-8267174D01*
X2554515Y-8267174D02*
X2554515Y-8314793D01*
X2554515Y-8314793D02*
X2544991Y-8352888D01*
X2544991Y-8352888D02*
X2535468Y-8371936D01*
X2535468Y-8371936D02*
X2525944Y-8381460D01*
X2525944Y-8381460D02*
X2506896Y-8390984D01*
X2506896Y-8390984D02*
X2487848Y-8390984D01*
X2487848Y-8390984D02*
X2468801Y-8381460D01*
X2468801Y-8381460D02*
X2459277Y-8371936D01*
X2459277Y-8371936D02*
X2449753Y-8352888D01*
X2449753Y-8352888D02*
X2440229Y-8314793D01*
X2440229Y-8314793D02*
X2440229Y-8267174D01*
X2440229Y-8267174D02*
X2449753Y-8229079D01*
X2449753Y-8229079D02*
X2459277Y-8210031D01*
X2459277Y-8210031D02*
X2468801Y-8200508D01*
X2468801Y-8200508D02*
X2487848Y-8190984D01*
X2744991Y-8390984D02*
X2630706Y-8390984D01*
X2687848Y-8390984D02*
X2687848Y-8190984D01*
X2687848Y-8190984D02*
X2668801Y-8219555D01*
X2668801Y-8219555D02*
X2649753Y-8238603D01*
X2649753Y-8238603D02*
X2630706Y-8248127D01*
X2935467Y-8390984D02*
X2821182Y-8390984D01*
X2878325Y-8390984D02*
X2878325Y-8190984D01*
X2878325Y-8190984D02*
X2859277Y-8219555D01*
X2859277Y-8219555D02*
X2840229Y-8238603D01*
X2840229Y-8238603D02*
X2821182Y-8248127D01*
X3049753Y-8276698D02*
X3030706Y-8267174D01*
X3030706Y-8267174D02*
X3021182Y-8257650D01*
X3021182Y-8257650D02*
X3011658Y-8238603D01*
X3011658Y-8238603D02*
X3011658Y-8229079D01*
X3011658Y-8229079D02*
X3021182Y-8210031D01*
X3021182Y-8210031D02*
X3030706Y-8200508D01*
X3030706Y-8200508D02*
X3049753Y-8190984D01*
X3049753Y-8190984D02*
X3087848Y-8190984D01*
X3087848Y-8190984D02*
X3106896Y-8200508D01*
X3106896Y-8200508D02*
X3116420Y-8210031D01*
X3116420Y-8210031D02*
X3125944Y-8229079D01*
X3125944Y-8229079D02*
X3125944Y-8238603D01*
X3125944Y-8238603D02*
X3116420Y-8257650D01*
X3116420Y-8257650D02*
X3106896Y-8267174D01*
X3106896Y-8267174D02*
X3087848Y-8276698D01*
X3087848Y-8276698D02*
X3049753Y-8276698D01*
X3049753Y-8276698D02*
X3030706Y-8286222D01*
X3030706Y-8286222D02*
X3021182Y-8295746D01*
X3021182Y-8295746D02*
X3011658Y-8314793D01*
X3011658Y-8314793D02*
X3011658Y-8352888D01*
X3011658Y-8352888D02*
X3021182Y-8371936D01*
X3021182Y-8371936D02*
X3030706Y-8381460D01*
X3030706Y-8381460D02*
X3049753Y-8390984D01*
X3049753Y-8390984D02*
X3087848Y-8390984D01*
X3087848Y-8390984D02*
X3106896Y-8381460D01*
X3106896Y-8381460D02*
X3116420Y-8371936D01*
X3116420Y-8371936D02*
X3125944Y-8352888D01*
X3125944Y-8352888D02*
X3125944Y-8314793D01*
X3125944Y-8314793D02*
X3116420Y-8295746D01*
X3116420Y-8295746D02*
X3106896Y-8286222D01*
X3106896Y-8286222D02*
X3087848Y-8276698D01*
X3202134Y-8190984D02*
X3202134Y-8229079D01*
X3278325Y-8190984D02*
X3278325Y-8229079D01*
X3573563Y-8467174D02*
X3564039Y-8457650D01*
X3564039Y-8457650D02*
X3544991Y-8429079D01*
X3544991Y-8429079D02*
X3535468Y-8410031D01*
X3535468Y-8410031D02*
X3525944Y-8381460D01*
X3525944Y-8381460D02*
X3516420Y-8333841D01*
X3516420Y-8333841D02*
X3516420Y-8295746D01*
X3516420Y-8295746D02*
X3525944Y-8248127D01*
X3525944Y-8248127D02*
X3535468Y-8219555D01*
X3535468Y-8219555D02*
X3544991Y-8200508D01*
X3544991Y-8200508D02*
X3564039Y-8171936D01*
X3564039Y-8171936D02*
X3573563Y-8162412D01*
X3640229Y-8210031D02*
X3649753Y-8200508D01*
X3649753Y-8200508D02*
X3668801Y-8190984D01*
X3668801Y-8190984D02*
X3716420Y-8190984D01*
X3716420Y-8190984D02*
X3735468Y-8200508D01*
X3735468Y-8200508D02*
X3744991Y-8210031D01*
X3744991Y-8210031D02*
X3754515Y-8229079D01*
X3754515Y-8229079D02*
X3754515Y-8248127D01*
X3754515Y-8248127D02*
X3744991Y-8276698D01*
X3744991Y-8276698D02*
X3630706Y-8390984D01*
X3630706Y-8390984D02*
X3754515Y-8390984D01*
X3925944Y-8190984D02*
X3887848Y-8190984D01*
X3887848Y-8190984D02*
X3868801Y-8200508D01*
X3868801Y-8200508D02*
X3859277Y-8210031D01*
X3859277Y-8210031D02*
X3840229Y-8238603D01*
X3840229Y-8238603D02*
X3830706Y-8276698D01*
X3830706Y-8276698D02*
X3830706Y-8352888D01*
X3830706Y-8352888D02*
X3840229Y-8371936D01*
X3840229Y-8371936D02*
X3849753Y-8381460D01*
X3849753Y-8381460D02*
X3868801Y-8390984D01*
X3868801Y-8390984D02*
X3906896Y-8390984D01*
X3906896Y-8390984D02*
X3925944Y-8381460D01*
X3925944Y-8381460D02*
X3935468Y-8371936D01*
X3935468Y-8371936D02*
X3944991Y-8352888D01*
X3944991Y-8352888D02*
X3944991Y-8305269D01*
X3944991Y-8305269D02*
X3935468Y-8286222D01*
X3935468Y-8286222D02*
X3925944Y-8276698D01*
X3925944Y-8276698D02*
X3906896Y-8267174D01*
X3906896Y-8267174D02*
X3868801Y-8267174D01*
X3868801Y-8267174D02*
X3849753Y-8276698D01*
X3849753Y-8276698D02*
X3840229Y-8286222D01*
X3840229Y-8286222D02*
X3830706Y-8305269D01*
X4183087Y-8390984D02*
X4183087Y-8190984D01*
X4268801Y-8390984D02*
X4268801Y-8286222D01*
X4268801Y-8286222D02*
X4259277Y-8267174D01*
X4259277Y-8267174D02*
X4240230Y-8257650D01*
X4240230Y-8257650D02*
X4211658Y-8257650D01*
X4211658Y-8257650D02*
X4192610Y-8267174D01*
X4192610Y-8267174D02*
X4183087Y-8276698D01*
X4392611Y-8390984D02*
X4373563Y-8381460D01*
X4373563Y-8381460D02*
X4364039Y-8371936D01*
X4364039Y-8371936D02*
X4354515Y-8352888D01*
X4354515Y-8352888D02*
X4354515Y-8295746D01*
X4354515Y-8295746D02*
X4364039Y-8276698D01*
X4364039Y-8276698D02*
X4373563Y-8267174D01*
X4373563Y-8267174D02*
X4392611Y-8257650D01*
X4392611Y-8257650D02*
X4421182Y-8257650D01*
X4421182Y-8257650D02*
X4440230Y-8267174D01*
X4440230Y-8267174D02*
X4449753Y-8276698D01*
X4449753Y-8276698D02*
X4459277Y-8295746D01*
X4459277Y-8295746D02*
X4459277Y-8352888D01*
X4459277Y-8352888D02*
X4449753Y-8371936D01*
X4449753Y-8371936D02*
X4440230Y-8381460D01*
X4440230Y-8381460D02*
X4421182Y-8390984D01*
X4421182Y-8390984D02*
X4392611Y-8390984D01*
X4573563Y-8390984D02*
X4554515Y-8381460D01*
X4554515Y-8381460D02*
X4544992Y-8362412D01*
X4544992Y-8362412D02*
X4544992Y-8190984D01*
X4725944Y-8381460D02*
X4706896Y-8390984D01*
X4706896Y-8390984D02*
X4668801Y-8390984D01*
X4668801Y-8390984D02*
X4649753Y-8381460D01*
X4649753Y-8381460D02*
X4640230Y-8362412D01*
X4640230Y-8362412D02*
X4640230Y-8286222D01*
X4640230Y-8286222D02*
X4649753Y-8267174D01*
X4649753Y-8267174D02*
X4668801Y-8257650D01*
X4668801Y-8257650D02*
X4706896Y-8257650D01*
X4706896Y-8257650D02*
X4725944Y-8267174D01*
X4725944Y-8267174D02*
X4735468Y-8286222D01*
X4735468Y-8286222D02*
X4735468Y-8305269D01*
X4735468Y-8305269D02*
X4640230Y-8324317D01*
X4811658Y-8381460D02*
X4830706Y-8390984D01*
X4830706Y-8390984D02*
X4868801Y-8390984D01*
X4868801Y-8390984D02*
X4887849Y-8381460D01*
X4887849Y-8381460D02*
X4897373Y-8362412D01*
X4897373Y-8362412D02*
X4897373Y-8352888D01*
X4897373Y-8352888D02*
X4887849Y-8333841D01*
X4887849Y-8333841D02*
X4868801Y-8324317D01*
X4868801Y-8324317D02*
X4840230Y-8324317D01*
X4840230Y-8324317D02*
X4821182Y-8314793D01*
X4821182Y-8314793D02*
X4811658Y-8295746D01*
X4811658Y-8295746D02*
X4811658Y-8286222D01*
X4811658Y-8286222D02*
X4821182Y-8267174D01*
X4821182Y-8267174D02*
X4840230Y-8257650D01*
X4840230Y-8257650D02*
X4868801Y-8257650D01*
X4868801Y-8257650D02*
X4887849Y-8267174D01*
X4964039Y-8467174D02*
X4973563Y-8457650D01*
X4973563Y-8457650D02*
X4992611Y-8429079D01*
X4992611Y-8429079D02*
X5002134Y-8410031D01*
X5002134Y-8410031D02*
X5011658Y-8381460D01*
X5011658Y-8381460D02*
X5021182Y-8333841D01*
X5021182Y-8333841D02*
X5021182Y-8295746D01*
X5021182Y-8295746D02*
X5011658Y-8248127D01*
X5011658Y-8248127D02*
X5002134Y-8219555D01*
X5002134Y-8219555D02*
X4992611Y-8200508D01*
X4992611Y-8200508D02*
X4973563Y-8171936D01*
X4973563Y-8171936D02*
X4964039Y-8162412D01*
D12*
X-1500Y-8563500D02*
G75*
G02*
X-31500Y-8563500I-15000J0D01*
G01*
X-31500Y-8563500D02*
G75*
G02*
X-1500Y-8563500I15000J0D01*
G01*
D11*
X297372Y-8454984D02*
X316420Y-8454984D01*
X316420Y-8454984D02*
X335467Y-8464508D01*
X335467Y-8464508D02*
X344991Y-8474031D01*
X344991Y-8474031D02*
X354515Y-8493079D01*
X354515Y-8493079D02*
X364039Y-8531174D01*
X364039Y-8531174D02*
X364039Y-8578793D01*
X364039Y-8578793D02*
X354515Y-8616889D01*
X354515Y-8616889D02*
X344991Y-8635936D01*
X344991Y-8635936D02*
X335467Y-8645460D01*
X335467Y-8645460D02*
X316420Y-8654984D01*
X316420Y-8654984D02*
X297372Y-8654984D01*
X297372Y-8654984D02*
X278324Y-8645460D01*
X278324Y-8645460D02*
X268801Y-8635936D01*
X268801Y-8635936D02*
X259277Y-8616889D01*
X259277Y-8616889D02*
X249753Y-8578793D01*
X249753Y-8578793D02*
X249753Y-8531174D01*
X249753Y-8531174D02*
X259277Y-8493079D01*
X259277Y-8493079D02*
X268801Y-8474031D01*
X268801Y-8474031D02*
X278324Y-8464508D01*
X278324Y-8464508D02*
X297372Y-8454984D01*
X449753Y-8635936D02*
X459277Y-8645460D01*
X459277Y-8645460D02*
X449753Y-8654984D01*
X449753Y-8654984D02*
X440229Y-8645460D01*
X440229Y-8645460D02*
X449753Y-8635936D01*
X449753Y-8635936D02*
X449753Y-8654984D01*
X525944Y-8454984D02*
X649753Y-8454984D01*
X649753Y-8454984D02*
X583086Y-8531174D01*
X583086Y-8531174D02*
X611658Y-8531174D01*
X611658Y-8531174D02*
X630705Y-8540698D01*
X630705Y-8540698D02*
X640229Y-8550222D01*
X640229Y-8550222D02*
X649753Y-8569270D01*
X649753Y-8569270D02*
X649753Y-8616889D01*
X649753Y-8616889D02*
X640229Y-8635936D01*
X640229Y-8635936D02*
X630705Y-8645460D01*
X630705Y-8645460D02*
X611658Y-8654984D01*
X611658Y-8654984D02*
X554515Y-8654984D01*
X554515Y-8654984D02*
X535467Y-8645460D01*
X535467Y-8645460D02*
X525944Y-8635936D01*
X773562Y-8454984D02*
X792610Y-8454984D01*
X792610Y-8454984D02*
X811658Y-8464508D01*
X811658Y-8464508D02*
X821182Y-8474031D01*
X821182Y-8474031D02*
X830705Y-8493079D01*
X830705Y-8493079D02*
X840229Y-8531174D01*
X840229Y-8531174D02*
X840229Y-8578793D01*
X840229Y-8578793D02*
X830705Y-8616889D01*
X830705Y-8616889D02*
X821182Y-8635936D01*
X821182Y-8635936D02*
X811658Y-8645460D01*
X811658Y-8645460D02*
X792610Y-8654984D01*
X792610Y-8654984D02*
X773562Y-8654984D01*
X773562Y-8654984D02*
X754515Y-8645460D01*
X754515Y-8645460D02*
X744991Y-8635936D01*
X744991Y-8635936D02*
X735467Y-8616889D01*
X735467Y-8616889D02*
X725943Y-8578793D01*
X725943Y-8578793D02*
X725943Y-8531174D01*
X725943Y-8531174D02*
X735467Y-8493079D01*
X735467Y-8493079D02*
X744991Y-8474031D01*
X744991Y-8474031D02*
X754515Y-8464508D01*
X754515Y-8464508D02*
X773562Y-8454984D01*
X964039Y-8454984D02*
X983086Y-8454984D01*
X983086Y-8454984D02*
X1002134Y-8464508D01*
X1002134Y-8464508D02*
X1011658Y-8474031D01*
X1011658Y-8474031D02*
X1021182Y-8493079D01*
X1021182Y-8493079D02*
X1030705Y-8531174D01*
X1030705Y-8531174D02*
X1030705Y-8578793D01*
X1030705Y-8578793D02*
X1021182Y-8616889D01*
X1021182Y-8616889D02*
X1011658Y-8635936D01*
X1011658Y-8635936D02*
X1002134Y-8645460D01*
X1002134Y-8645460D02*
X983086Y-8654984D01*
X983086Y-8654984D02*
X964039Y-8654984D01*
X964039Y-8654984D02*
X944991Y-8645460D01*
X944991Y-8645460D02*
X935467Y-8635936D01*
X935467Y-8635936D02*
X925943Y-8616889D01*
X925943Y-8616889D02*
X916420Y-8578793D01*
X916420Y-8578793D02*
X916420Y-8531174D01*
X916420Y-8531174D02*
X925943Y-8493079D01*
X925943Y-8493079D02*
X935467Y-8474031D01*
X935467Y-8474031D02*
X944991Y-8464508D01*
X944991Y-8464508D02*
X964039Y-8454984D01*
X1116420Y-8654984D02*
X1116420Y-8521650D01*
X1116420Y-8540698D02*
X1125944Y-8531174D01*
X1125944Y-8531174D02*
X1144991Y-8521650D01*
X1144991Y-8521650D02*
X1173563Y-8521650D01*
X1173563Y-8521650D02*
X1192610Y-8531174D01*
X1192610Y-8531174D02*
X1202134Y-8550222D01*
X1202134Y-8550222D02*
X1202134Y-8654984D01*
X1202134Y-8550222D02*
X1211658Y-8531174D01*
X1211658Y-8531174D02*
X1230705Y-8521650D01*
X1230705Y-8521650D02*
X1259277Y-8521650D01*
X1259277Y-8521650D02*
X1278325Y-8531174D01*
X1278325Y-8531174D02*
X1287848Y-8550222D01*
X1287848Y-8550222D02*
X1287848Y-8654984D01*
X1383086Y-8654984D02*
X1383086Y-8521650D01*
X1383086Y-8540698D02*
X1392610Y-8531174D01*
X1392610Y-8531174D02*
X1411658Y-8521650D01*
X1411658Y-8521650D02*
X1440229Y-8521650D01*
X1440229Y-8521650D02*
X1459277Y-8531174D01*
X1459277Y-8531174D02*
X1468801Y-8550222D01*
X1468801Y-8550222D02*
X1468801Y-8654984D01*
X1468801Y-8550222D02*
X1478324Y-8531174D01*
X1478324Y-8531174D02*
X1497372Y-8521650D01*
X1497372Y-8521650D02*
X1525943Y-8521650D01*
X1525943Y-8521650D02*
X1544991Y-8531174D01*
X1544991Y-8531174D02*
X1554515Y-8550222D01*
X1554515Y-8550222D02*
X1554515Y-8654984D01*
X1944991Y-8445460D02*
X1773563Y-8702603D01*
X2202134Y-8454984D02*
X2221182Y-8454984D01*
X2221182Y-8454984D02*
X2240229Y-8464508D01*
X2240229Y-8464508D02*
X2249753Y-8474031D01*
X2249753Y-8474031D02*
X2259277Y-8493079D01*
X2259277Y-8493079D02*
X2268801Y-8531174D01*
X2268801Y-8531174D02*
X2268801Y-8578793D01*
X2268801Y-8578793D02*
X2259277Y-8616889D01*
X2259277Y-8616889D02*
X2249753Y-8635936D01*
X2249753Y-8635936D02*
X2240229Y-8645460D01*
X2240229Y-8645460D02*
X2221182Y-8654984D01*
X2221182Y-8654984D02*
X2202134Y-8654984D01*
X2202134Y-8654984D02*
X2183087Y-8645460D01*
X2183087Y-8645460D02*
X2173563Y-8635936D01*
X2173563Y-8635936D02*
X2164039Y-8616889D01*
X2164039Y-8616889D02*
X2154515Y-8578793D01*
X2154515Y-8578793D02*
X2154515Y-8531174D01*
X2154515Y-8531174D02*
X2164039Y-8493079D01*
X2164039Y-8493079D02*
X2173563Y-8474031D01*
X2173563Y-8474031D02*
X2183087Y-8464508D01*
X2183087Y-8464508D02*
X2202134Y-8454984D01*
X2354515Y-8635936D02*
X2364039Y-8645460D01*
X2364039Y-8645460D02*
X2354515Y-8654984D01*
X2354515Y-8654984D02*
X2344991Y-8645460D01*
X2344991Y-8645460D02*
X2354515Y-8635936D01*
X2354515Y-8635936D02*
X2354515Y-8654984D01*
X2487848Y-8454984D02*
X2506896Y-8454984D01*
X2506896Y-8454984D02*
X2525944Y-8464508D01*
X2525944Y-8464508D02*
X2535468Y-8474031D01*
X2535468Y-8474031D02*
X2544991Y-8493079D01*
X2544991Y-8493079D02*
X2554515Y-8531174D01*
X2554515Y-8531174D02*
X2554515Y-8578793D01*
X2554515Y-8578793D02*
X2544991Y-8616889D01*
X2544991Y-8616889D02*
X2535468Y-8635936D01*
X2535468Y-8635936D02*
X2525944Y-8645460D01*
X2525944Y-8645460D02*
X2506896Y-8654984D01*
X2506896Y-8654984D02*
X2487848Y-8654984D01*
X2487848Y-8654984D02*
X2468801Y-8645460D01*
X2468801Y-8645460D02*
X2459277Y-8635936D01*
X2459277Y-8635936D02*
X2449753Y-8616889D01*
X2449753Y-8616889D02*
X2440229Y-8578793D01*
X2440229Y-8578793D02*
X2440229Y-8531174D01*
X2440229Y-8531174D02*
X2449753Y-8493079D01*
X2449753Y-8493079D02*
X2459277Y-8474031D01*
X2459277Y-8474031D02*
X2468801Y-8464508D01*
X2468801Y-8464508D02*
X2487848Y-8454984D01*
X2744991Y-8654984D02*
X2630706Y-8654984D01*
X2687848Y-8654984D02*
X2687848Y-8454984D01*
X2687848Y-8454984D02*
X2668801Y-8483555D01*
X2668801Y-8483555D02*
X2649753Y-8502603D01*
X2649753Y-8502603D02*
X2630706Y-8512127D01*
X2935467Y-8654984D02*
X2821182Y-8654984D01*
X2878325Y-8654984D02*
X2878325Y-8454984D01*
X2878325Y-8454984D02*
X2859277Y-8483555D01*
X2859277Y-8483555D02*
X2840229Y-8502603D01*
X2840229Y-8502603D02*
X2821182Y-8512127D01*
X3049753Y-8540698D02*
X3030706Y-8531174D01*
X3030706Y-8531174D02*
X3021182Y-8521650D01*
X3021182Y-8521650D02*
X3011658Y-8502603D01*
X3011658Y-8502603D02*
X3011658Y-8493079D01*
X3011658Y-8493079D02*
X3021182Y-8474031D01*
X3021182Y-8474031D02*
X3030706Y-8464508D01*
X3030706Y-8464508D02*
X3049753Y-8454984D01*
X3049753Y-8454984D02*
X3087848Y-8454984D01*
X3087848Y-8454984D02*
X3106896Y-8464508D01*
X3106896Y-8464508D02*
X3116420Y-8474031D01*
X3116420Y-8474031D02*
X3125944Y-8493079D01*
X3125944Y-8493079D02*
X3125944Y-8502603D01*
X3125944Y-8502603D02*
X3116420Y-8521650D01*
X3116420Y-8521650D02*
X3106896Y-8531174D01*
X3106896Y-8531174D02*
X3087848Y-8540698D01*
X3087848Y-8540698D02*
X3049753Y-8540698D01*
X3049753Y-8540698D02*
X3030706Y-8550222D01*
X3030706Y-8550222D02*
X3021182Y-8559746D01*
X3021182Y-8559746D02*
X3011658Y-8578793D01*
X3011658Y-8578793D02*
X3011658Y-8616889D01*
X3011658Y-8616889D02*
X3021182Y-8635936D01*
X3021182Y-8635936D02*
X3030706Y-8645460D01*
X3030706Y-8645460D02*
X3049753Y-8654984D01*
X3049753Y-8654984D02*
X3087848Y-8654984D01*
X3087848Y-8654984D02*
X3106896Y-8645460D01*
X3106896Y-8645460D02*
X3116420Y-8635936D01*
X3116420Y-8635936D02*
X3125944Y-8616889D01*
X3125944Y-8616889D02*
X3125944Y-8578793D01*
X3125944Y-8578793D02*
X3116420Y-8559746D01*
X3116420Y-8559746D02*
X3106896Y-8550222D01*
X3106896Y-8550222D02*
X3087848Y-8540698D01*
X3202134Y-8454984D02*
X3202134Y-8493079D01*
X3278325Y-8454984D02*
X3278325Y-8493079D01*
X3573563Y-8731174D02*
X3564039Y-8721650D01*
X3564039Y-8721650D02*
X3544991Y-8693079D01*
X3544991Y-8693079D02*
X3535468Y-8674031D01*
X3535468Y-8674031D02*
X3525944Y-8645460D01*
X3525944Y-8645460D02*
X3516420Y-8597841D01*
X3516420Y-8597841D02*
X3516420Y-8559746D01*
X3516420Y-8559746D02*
X3525944Y-8512127D01*
X3525944Y-8512127D02*
X3535468Y-8483555D01*
X3535468Y-8483555D02*
X3544991Y-8464508D01*
X3544991Y-8464508D02*
X3564039Y-8435936D01*
X3564039Y-8435936D02*
X3573563Y-8426412D01*
X3754515Y-8654984D02*
X3640229Y-8654984D01*
X3697372Y-8654984D02*
X3697372Y-8454984D01*
X3697372Y-8454984D02*
X3678325Y-8483555D01*
X3678325Y-8483555D02*
X3659277Y-8502603D01*
X3659277Y-8502603D02*
X3640229Y-8512127D01*
X3830706Y-8474031D02*
X3840229Y-8464508D01*
X3840229Y-8464508D02*
X3859277Y-8454984D01*
X3859277Y-8454984D02*
X3906896Y-8454984D01*
X3906896Y-8454984D02*
X3925944Y-8464508D01*
X3925944Y-8464508D02*
X3935468Y-8474031D01*
X3935468Y-8474031D02*
X3944991Y-8493079D01*
X3944991Y-8493079D02*
X3944991Y-8512127D01*
X3944991Y-8512127D02*
X3935468Y-8540698D01*
X3935468Y-8540698D02*
X3821182Y-8654984D01*
X3821182Y-8654984D02*
X3944991Y-8654984D01*
X4183087Y-8654984D02*
X4183087Y-8454984D01*
X4268801Y-8654984D02*
X4268801Y-8550222D01*
X4268801Y-8550222D02*
X4259277Y-8531174D01*
X4259277Y-8531174D02*
X4240230Y-8521650D01*
X4240230Y-8521650D02*
X4211658Y-8521650D01*
X4211658Y-8521650D02*
X4192610Y-8531174D01*
X4192610Y-8531174D02*
X4183087Y-8540698D01*
X4392611Y-8654984D02*
X4373563Y-8645460D01*
X4373563Y-8645460D02*
X4364039Y-8635936D01*
X4364039Y-8635936D02*
X4354515Y-8616889D01*
X4354515Y-8616889D02*
X4354515Y-8559746D01*
X4354515Y-8559746D02*
X4364039Y-8540698D01*
X4364039Y-8540698D02*
X4373563Y-8531174D01*
X4373563Y-8531174D02*
X4392611Y-8521650D01*
X4392611Y-8521650D02*
X4421182Y-8521650D01*
X4421182Y-8521650D02*
X4440230Y-8531174D01*
X4440230Y-8531174D02*
X4449753Y-8540698D01*
X4449753Y-8540698D02*
X4459277Y-8559746D01*
X4459277Y-8559746D02*
X4459277Y-8616889D01*
X4459277Y-8616889D02*
X4449753Y-8635936D01*
X4449753Y-8635936D02*
X4440230Y-8645460D01*
X4440230Y-8645460D02*
X4421182Y-8654984D01*
X4421182Y-8654984D02*
X4392611Y-8654984D01*
X4573563Y-8654984D02*
X4554515Y-8645460D01*
X4554515Y-8645460D02*
X4544992Y-8626412D01*
X4544992Y-8626412D02*
X4544992Y-8454984D01*
X4725944Y-8645460D02*
X4706896Y-8654984D01*
X4706896Y-8654984D02*
X4668801Y-8654984D01*
X4668801Y-8654984D02*
X4649753Y-8645460D01*
X4649753Y-8645460D02*
X4640230Y-8626412D01*
X4640230Y-8626412D02*
X4640230Y-8550222D01*
X4640230Y-8550222D02*
X4649753Y-8531174D01*
X4649753Y-8531174D02*
X4668801Y-8521650D01*
X4668801Y-8521650D02*
X4706896Y-8521650D01*
X4706896Y-8521650D02*
X4725944Y-8531174D01*
X4725944Y-8531174D02*
X4735468Y-8550222D01*
X4735468Y-8550222D02*
X4735468Y-8569270D01*
X4735468Y-8569270D02*
X4640230Y-8588317D01*
X4811658Y-8645460D02*
X4830706Y-8654984D01*
X4830706Y-8654984D02*
X4868801Y-8654984D01*
X4868801Y-8654984D02*
X4887849Y-8645460D01*
X4887849Y-8645460D02*
X4897373Y-8626412D01*
X4897373Y-8626412D02*
X4897373Y-8616889D01*
X4897373Y-8616889D02*
X4887849Y-8597841D01*
X4887849Y-8597841D02*
X4868801Y-8588317D01*
X4868801Y-8588317D02*
X4840230Y-8588317D01*
X4840230Y-8588317D02*
X4821182Y-8578793D01*
X4821182Y-8578793D02*
X4811658Y-8559746D01*
X4811658Y-8559746D02*
X4811658Y-8550222D01*
X4811658Y-8550222D02*
X4821182Y-8531174D01*
X4821182Y-8531174D02*
X4840230Y-8521650D01*
X4840230Y-8521650D02*
X4868801Y-8521650D01*
X4868801Y-8521650D02*
X4887849Y-8531174D01*
X4964039Y-8731174D02*
X4973563Y-8721650D01*
X4973563Y-8721650D02*
X4992611Y-8693079D01*
X4992611Y-8693079D02*
X5002134Y-8674031D01*
X5002134Y-8674031D02*
X5011658Y-8645460D01*
X5011658Y-8645460D02*
X5021182Y-8597841D01*
X5021182Y-8597841D02*
X5021182Y-8559746D01*
X5021182Y-8559746D02*
X5011658Y-8512127D01*
X5011658Y-8512127D02*
X5002134Y-8483555D01*
X5002134Y-8483555D02*
X4992611Y-8464508D01*
X4992611Y-8464508D02*
X4973563Y-8435936D01*
X4973563Y-8435936D02*
X4964039Y-8426412D01*
D12*
X-21500Y-8807500D02*
X-21500Y-8847500D01*
X-41500Y-8827500D02*
X-1500Y-8827500D01*
D11*
X297372Y-8718984D02*
X316420Y-8718984D01*
X316420Y-8718984D02*
X335467Y-8728508D01*
X335467Y-8728508D02*
X344991Y-8738031D01*
X344991Y-8738031D02*
X354515Y-8757079D01*
X354515Y-8757079D02*
X364039Y-8795174D01*
X364039Y-8795174D02*
X364039Y-8842793D01*
X364039Y-8842793D02*
X354515Y-8880889D01*
X354515Y-8880889D02*
X344991Y-8899936D01*
X344991Y-8899936D02*
X335467Y-8909460D01*
X335467Y-8909460D02*
X316420Y-8918984D01*
X316420Y-8918984D02*
X297372Y-8918984D01*
X297372Y-8918984D02*
X278324Y-8909460D01*
X278324Y-8909460D02*
X268801Y-8899936D01*
X268801Y-8899936D02*
X259277Y-8880889D01*
X259277Y-8880889D02*
X249753Y-8842793D01*
X249753Y-8842793D02*
X249753Y-8795174D01*
X249753Y-8795174D02*
X259277Y-8757079D01*
X259277Y-8757079D02*
X268801Y-8738031D01*
X268801Y-8738031D02*
X278324Y-8728508D01*
X278324Y-8728508D02*
X297372Y-8718984D01*
X449753Y-8899936D02*
X459277Y-8909460D01*
X459277Y-8909460D02*
X449753Y-8918984D01*
X449753Y-8918984D02*
X440229Y-8909460D01*
X440229Y-8909460D02*
X449753Y-8899936D01*
X449753Y-8899936D02*
X449753Y-8918984D01*
X630705Y-8785650D02*
X630705Y-8918984D01*
X583086Y-8709460D02*
X535467Y-8852317D01*
X535467Y-8852317D02*
X659277Y-8852317D01*
X773562Y-8718984D02*
X792610Y-8718984D01*
X792610Y-8718984D02*
X811658Y-8728508D01*
X811658Y-8728508D02*
X821182Y-8738031D01*
X821182Y-8738031D02*
X830705Y-8757079D01*
X830705Y-8757079D02*
X840229Y-8795174D01*
X840229Y-8795174D02*
X840229Y-8842793D01*
X840229Y-8842793D02*
X830705Y-8880889D01*
X830705Y-8880889D02*
X821182Y-8899936D01*
X821182Y-8899936D02*
X811658Y-8909460D01*
X811658Y-8909460D02*
X792610Y-8918984D01*
X792610Y-8918984D02*
X773562Y-8918984D01*
X773562Y-8918984D02*
X754515Y-8909460D01*
X754515Y-8909460D02*
X744991Y-8899936D01*
X744991Y-8899936D02*
X735467Y-8880889D01*
X735467Y-8880889D02*
X725943Y-8842793D01*
X725943Y-8842793D02*
X725943Y-8795174D01*
X725943Y-8795174D02*
X735467Y-8757079D01*
X735467Y-8757079D02*
X744991Y-8738031D01*
X744991Y-8738031D02*
X754515Y-8728508D01*
X754515Y-8728508D02*
X773562Y-8718984D01*
X964039Y-8718984D02*
X983086Y-8718984D01*
X983086Y-8718984D02*
X1002134Y-8728508D01*
X1002134Y-8728508D02*
X1011658Y-8738031D01*
X1011658Y-8738031D02*
X1021182Y-8757079D01*
X1021182Y-8757079D02*
X1030705Y-8795174D01*
X1030705Y-8795174D02*
X1030705Y-8842793D01*
X1030705Y-8842793D02*
X1021182Y-8880889D01*
X1021182Y-8880889D02*
X1011658Y-8899936D01*
X1011658Y-8899936D02*
X1002134Y-8909460D01*
X1002134Y-8909460D02*
X983086Y-8918984D01*
X983086Y-8918984D02*
X964039Y-8918984D01*
X964039Y-8918984D02*
X944991Y-8909460D01*
X944991Y-8909460D02*
X935467Y-8899936D01*
X935467Y-8899936D02*
X925943Y-8880889D01*
X925943Y-8880889D02*
X916420Y-8842793D01*
X916420Y-8842793D02*
X916420Y-8795174D01*
X916420Y-8795174D02*
X925943Y-8757079D01*
X925943Y-8757079D02*
X935467Y-8738031D01*
X935467Y-8738031D02*
X944991Y-8728508D01*
X944991Y-8728508D02*
X964039Y-8718984D01*
X1116420Y-8918984D02*
X1116420Y-8785650D01*
X1116420Y-8804698D02*
X1125944Y-8795174D01*
X1125944Y-8795174D02*
X1144991Y-8785650D01*
X1144991Y-8785650D02*
X1173563Y-8785650D01*
X1173563Y-8785650D02*
X1192610Y-8795174D01*
X1192610Y-8795174D02*
X1202134Y-8814222D01*
X1202134Y-8814222D02*
X1202134Y-8918984D01*
X1202134Y-8814222D02*
X1211658Y-8795174D01*
X1211658Y-8795174D02*
X1230705Y-8785650D01*
X1230705Y-8785650D02*
X1259277Y-8785650D01*
X1259277Y-8785650D02*
X1278325Y-8795174D01*
X1278325Y-8795174D02*
X1287848Y-8814222D01*
X1287848Y-8814222D02*
X1287848Y-8918984D01*
X1383086Y-8918984D02*
X1383086Y-8785650D01*
X1383086Y-8804698D02*
X1392610Y-8795174D01*
X1392610Y-8795174D02*
X1411658Y-8785650D01*
X1411658Y-8785650D02*
X1440229Y-8785650D01*
X1440229Y-8785650D02*
X1459277Y-8795174D01*
X1459277Y-8795174D02*
X1468801Y-8814222D01*
X1468801Y-8814222D02*
X1468801Y-8918984D01*
X1468801Y-8814222D02*
X1478324Y-8795174D01*
X1478324Y-8795174D02*
X1497372Y-8785650D01*
X1497372Y-8785650D02*
X1525943Y-8785650D01*
X1525943Y-8785650D02*
X1544991Y-8795174D01*
X1544991Y-8795174D02*
X1554515Y-8814222D01*
X1554515Y-8814222D02*
X1554515Y-8918984D01*
X1944991Y-8709460D02*
X1773563Y-8966603D01*
X2202134Y-8718984D02*
X2221182Y-8718984D01*
X2221182Y-8718984D02*
X2240229Y-8728508D01*
X2240229Y-8728508D02*
X2249753Y-8738031D01*
X2249753Y-8738031D02*
X2259277Y-8757079D01*
X2259277Y-8757079D02*
X2268801Y-8795174D01*
X2268801Y-8795174D02*
X2268801Y-8842793D01*
X2268801Y-8842793D02*
X2259277Y-8880889D01*
X2259277Y-8880889D02*
X2249753Y-8899936D01*
X2249753Y-8899936D02*
X2240229Y-8909460D01*
X2240229Y-8909460D02*
X2221182Y-8918984D01*
X2221182Y-8918984D02*
X2202134Y-8918984D01*
X2202134Y-8918984D02*
X2183087Y-8909460D01*
X2183087Y-8909460D02*
X2173563Y-8899936D01*
X2173563Y-8899936D02*
X2164039Y-8880889D01*
X2164039Y-8880889D02*
X2154515Y-8842793D01*
X2154515Y-8842793D02*
X2154515Y-8795174D01*
X2154515Y-8795174D02*
X2164039Y-8757079D01*
X2164039Y-8757079D02*
X2173563Y-8738031D01*
X2173563Y-8738031D02*
X2183087Y-8728508D01*
X2183087Y-8728508D02*
X2202134Y-8718984D01*
X2354515Y-8899936D02*
X2364039Y-8909460D01*
X2364039Y-8909460D02*
X2354515Y-8918984D01*
X2354515Y-8918984D02*
X2344991Y-8909460D01*
X2344991Y-8909460D02*
X2354515Y-8899936D01*
X2354515Y-8899936D02*
X2354515Y-8918984D01*
X2487848Y-8718984D02*
X2506896Y-8718984D01*
X2506896Y-8718984D02*
X2525944Y-8728508D01*
X2525944Y-8728508D02*
X2535468Y-8738031D01*
X2535468Y-8738031D02*
X2544991Y-8757079D01*
X2544991Y-8757079D02*
X2554515Y-8795174D01*
X2554515Y-8795174D02*
X2554515Y-8842793D01*
X2554515Y-8842793D02*
X2544991Y-8880889D01*
X2544991Y-8880889D02*
X2535468Y-8899936D01*
X2535468Y-8899936D02*
X2525944Y-8909460D01*
X2525944Y-8909460D02*
X2506896Y-8918984D01*
X2506896Y-8918984D02*
X2487848Y-8918984D01*
X2487848Y-8918984D02*
X2468801Y-8909460D01*
X2468801Y-8909460D02*
X2459277Y-8899936D01*
X2459277Y-8899936D02*
X2449753Y-8880889D01*
X2449753Y-8880889D02*
X2440229Y-8842793D01*
X2440229Y-8842793D02*
X2440229Y-8795174D01*
X2440229Y-8795174D02*
X2449753Y-8757079D01*
X2449753Y-8757079D02*
X2459277Y-8738031D01*
X2459277Y-8738031D02*
X2468801Y-8728508D01*
X2468801Y-8728508D02*
X2487848Y-8718984D01*
X2744991Y-8918984D02*
X2630706Y-8918984D01*
X2687848Y-8918984D02*
X2687848Y-8718984D01*
X2687848Y-8718984D02*
X2668801Y-8747555D01*
X2668801Y-8747555D02*
X2649753Y-8766603D01*
X2649753Y-8766603D02*
X2630706Y-8776127D01*
X2925944Y-8718984D02*
X2830706Y-8718984D01*
X2830706Y-8718984D02*
X2821182Y-8814222D01*
X2821182Y-8814222D02*
X2830706Y-8804698D01*
X2830706Y-8804698D02*
X2849753Y-8795174D01*
X2849753Y-8795174D02*
X2897372Y-8795174D01*
X2897372Y-8795174D02*
X2916420Y-8804698D01*
X2916420Y-8804698D02*
X2925944Y-8814222D01*
X2925944Y-8814222D02*
X2935467Y-8833270D01*
X2935467Y-8833270D02*
X2935467Y-8880889D01*
X2935467Y-8880889D02*
X2925944Y-8899936D01*
X2925944Y-8899936D02*
X2916420Y-8909460D01*
X2916420Y-8909460D02*
X2897372Y-8918984D01*
X2897372Y-8918984D02*
X2849753Y-8918984D01*
X2849753Y-8918984D02*
X2830706Y-8909460D01*
X2830706Y-8909460D02*
X2821182Y-8899936D01*
X3002134Y-8718984D02*
X3135467Y-8718984D01*
X3135467Y-8718984D02*
X3049753Y-8918984D01*
X3202134Y-8718984D02*
X3202134Y-8757079D01*
X3278325Y-8718984D02*
X3278325Y-8757079D01*
X3573563Y-8995174D02*
X3564039Y-8985650D01*
X3564039Y-8985650D02*
X3544991Y-8957079D01*
X3544991Y-8957079D02*
X3535468Y-8938031D01*
X3535468Y-8938031D02*
X3525944Y-8909460D01*
X3525944Y-8909460D02*
X3516420Y-8861841D01*
X3516420Y-8861841D02*
X3516420Y-8823746D01*
X3516420Y-8823746D02*
X3525944Y-8776127D01*
X3525944Y-8776127D02*
X3535468Y-8747555D01*
X3535468Y-8747555D02*
X3544991Y-8728508D01*
X3544991Y-8728508D02*
X3564039Y-8699936D01*
X3564039Y-8699936D02*
X3573563Y-8690412D01*
X3640229Y-8738031D02*
X3649753Y-8728508D01*
X3649753Y-8728508D02*
X3668801Y-8718984D01*
X3668801Y-8718984D02*
X3716420Y-8718984D01*
X3716420Y-8718984D02*
X3735468Y-8728508D01*
X3735468Y-8728508D02*
X3744991Y-8738031D01*
X3744991Y-8738031D02*
X3754515Y-8757079D01*
X3754515Y-8757079D02*
X3754515Y-8776127D01*
X3754515Y-8776127D02*
X3744991Y-8804698D01*
X3744991Y-8804698D02*
X3630706Y-8918984D01*
X3630706Y-8918984D02*
X3754515Y-8918984D01*
X3925944Y-8785650D02*
X3925944Y-8918984D01*
X3878325Y-8709460D02*
X3830706Y-8852317D01*
X3830706Y-8852317D02*
X3954515Y-8852317D01*
X4125944Y-8718984D02*
X4030706Y-8718984D01*
X4030706Y-8718984D02*
X4021182Y-8814222D01*
X4021182Y-8814222D02*
X4030706Y-8804698D01*
X4030706Y-8804698D02*
X4049753Y-8795174D01*
X4049753Y-8795174D02*
X4097372Y-8795174D01*
X4097372Y-8795174D02*
X4116420Y-8804698D01*
X4116420Y-8804698D02*
X4125944Y-8814222D01*
X4125944Y-8814222D02*
X4135468Y-8833270D01*
X4135468Y-8833270D02*
X4135468Y-8880889D01*
X4135468Y-8880889D02*
X4125944Y-8899936D01*
X4125944Y-8899936D02*
X4116420Y-8909460D01*
X4116420Y-8909460D02*
X4097372Y-8918984D01*
X4097372Y-8918984D02*
X4049753Y-8918984D01*
X4049753Y-8918984D02*
X4030706Y-8909460D01*
X4030706Y-8909460D02*
X4021182Y-8899936D01*
X4373563Y-8918984D02*
X4373563Y-8718984D01*
X4459277Y-8918984D02*
X4459277Y-8814222D01*
X4459277Y-8814222D02*
X4449753Y-8795174D01*
X4449753Y-8795174D02*
X4430706Y-8785650D01*
X4430706Y-8785650D02*
X4402134Y-8785650D01*
X4402134Y-8785650D02*
X4383087Y-8795174D01*
X4383087Y-8795174D02*
X4373563Y-8804698D01*
X4583087Y-8918984D02*
X4564039Y-8909460D01*
X4564039Y-8909460D02*
X4554515Y-8899936D01*
X4554515Y-8899936D02*
X4544992Y-8880889D01*
X4544992Y-8880889D02*
X4544992Y-8823746D01*
X4544992Y-8823746D02*
X4554515Y-8804698D01*
X4554515Y-8804698D02*
X4564039Y-8795174D01*
X4564039Y-8795174D02*
X4583087Y-8785650D01*
X4583087Y-8785650D02*
X4611658Y-8785650D01*
X4611658Y-8785650D02*
X4630706Y-8795174D01*
X4630706Y-8795174D02*
X4640230Y-8804698D01*
X4640230Y-8804698D02*
X4649753Y-8823746D01*
X4649753Y-8823746D02*
X4649753Y-8880889D01*
X4649753Y-8880889D02*
X4640230Y-8899936D01*
X4640230Y-8899936D02*
X4630706Y-8909460D01*
X4630706Y-8909460D02*
X4611658Y-8918984D01*
X4611658Y-8918984D02*
X4583087Y-8918984D01*
X4764039Y-8918984D02*
X4744992Y-8909460D01*
X4744992Y-8909460D02*
X4735468Y-8890412D01*
X4735468Y-8890412D02*
X4735468Y-8718984D01*
X4916420Y-8909460D02*
X4897373Y-8918984D01*
X4897373Y-8918984D02*
X4859277Y-8918984D01*
X4859277Y-8918984D02*
X4840230Y-8909460D01*
X4840230Y-8909460D02*
X4830706Y-8890412D01*
X4830706Y-8890412D02*
X4830706Y-8814222D01*
X4830706Y-8814222D02*
X4840230Y-8795174D01*
X4840230Y-8795174D02*
X4859277Y-8785650D01*
X4859277Y-8785650D02*
X4897373Y-8785650D01*
X4897373Y-8785650D02*
X4916420Y-8795174D01*
X4916420Y-8795174D02*
X4925944Y-8814222D01*
X4925944Y-8814222D02*
X4925944Y-8833270D01*
X4925944Y-8833270D02*
X4830706Y-8852317D01*
X5002134Y-8909460D02*
X5021182Y-8918984D01*
X5021182Y-8918984D02*
X5059277Y-8918984D01*
X5059277Y-8918984D02*
X5078325Y-8909460D01*
X5078325Y-8909460D02*
X5087849Y-8890412D01*
X5087849Y-8890412D02*
X5087849Y-8880889D01*
X5087849Y-8880889D02*
X5078325Y-8861841D01*
X5078325Y-8861841D02*
X5059277Y-8852317D01*
X5059277Y-8852317D02*
X5030706Y-8852317D01*
X5030706Y-8852317D02*
X5011658Y-8842793D01*
X5011658Y-8842793D02*
X5002134Y-8823746D01*
X5002134Y-8823746D02*
X5002134Y-8814222D01*
X5002134Y-8814222D02*
X5011658Y-8795174D01*
X5011658Y-8795174D02*
X5030706Y-8785650D01*
X5030706Y-8785650D02*
X5059277Y-8785650D01*
X5059277Y-8785650D02*
X5078325Y-8795174D01*
X5154515Y-8995174D02*
X5164039Y-8985650D01*
X5164039Y-8985650D02*
X5183087Y-8957079D01*
X5183087Y-8957079D02*
X5192611Y-8938031D01*
X5192611Y-8938031D02*
X5202134Y-8909460D01*
X5202134Y-8909460D02*
X5211658Y-8861841D01*
X5211658Y-8861841D02*
X5211658Y-8823746D01*
X5211658Y-8823746D02*
X5202134Y-8776127D01*
X5202134Y-8776127D02*
X5192611Y-8747555D01*
X5192611Y-8747555D02*
X5183087Y-8728508D01*
X5183087Y-8728508D02*
X5164039Y-8699936D01*
X5164039Y-8699936D02*
X5154515Y-8690412D01*
D12*
X-12483Y-9118017D02*
X-12483Y-9064983D01*
X-65517Y-9064983D01*
X-65517Y-9118017D01*
X-12483Y-9118017D01*
D11*
X297372Y-8982984D02*
X316420Y-8982984D01*
X316420Y-8982984D02*
X335467Y-8992508D01*
X335467Y-8992508D02*
X344991Y-9002031D01*
X344991Y-9002031D02*
X354515Y-9021079D01*
X354515Y-9021079D02*
X364039Y-9059174D01*
X364039Y-9059174D02*
X364039Y-9106793D01*
X364039Y-9106793D02*
X354515Y-9144889D01*
X354515Y-9144889D02*
X344991Y-9163936D01*
X344991Y-9163936D02*
X335467Y-9173460D01*
X335467Y-9173460D02*
X316420Y-9182984D01*
X316420Y-9182984D02*
X297372Y-9182984D01*
X297372Y-9182984D02*
X278324Y-9173460D01*
X278324Y-9173460D02*
X268801Y-9163936D01*
X268801Y-9163936D02*
X259277Y-9144889D01*
X259277Y-9144889D02*
X249753Y-9106793D01*
X249753Y-9106793D02*
X249753Y-9059174D01*
X249753Y-9059174D02*
X259277Y-9021079D01*
X259277Y-9021079D02*
X268801Y-9002031D01*
X268801Y-9002031D02*
X278324Y-8992508D01*
X278324Y-8992508D02*
X297372Y-8982984D01*
X449753Y-9163936D02*
X459277Y-9173460D01*
X459277Y-9173460D02*
X449753Y-9182984D01*
X449753Y-9182984D02*
X440229Y-9173460D01*
X440229Y-9173460D02*
X449753Y-9163936D01*
X449753Y-9163936D02*
X449753Y-9182984D01*
X525944Y-8982984D02*
X659277Y-8982984D01*
X659277Y-8982984D02*
X573563Y-9182984D01*
X830705Y-8982984D02*
X735467Y-8982984D01*
X735467Y-8982984D02*
X725943Y-9078222D01*
X725943Y-9078222D02*
X735467Y-9068698D01*
X735467Y-9068698D02*
X754515Y-9059174D01*
X754515Y-9059174D02*
X802134Y-9059174D01*
X802134Y-9059174D02*
X821182Y-9068698D01*
X821182Y-9068698D02*
X830705Y-9078222D01*
X830705Y-9078222D02*
X840229Y-9097270D01*
X840229Y-9097270D02*
X840229Y-9144889D01*
X840229Y-9144889D02*
X830705Y-9163936D01*
X830705Y-9163936D02*
X821182Y-9173460D01*
X821182Y-9173460D02*
X802134Y-9182984D01*
X802134Y-9182984D02*
X754515Y-9182984D01*
X754515Y-9182984D02*
X735467Y-9173460D01*
X735467Y-9173460D02*
X725943Y-9163936D01*
X964039Y-8982984D02*
X983086Y-8982984D01*
X983086Y-8982984D02*
X1002134Y-8992508D01*
X1002134Y-8992508D02*
X1011658Y-9002031D01*
X1011658Y-9002031D02*
X1021182Y-9021079D01*
X1021182Y-9021079D02*
X1030705Y-9059174D01*
X1030705Y-9059174D02*
X1030705Y-9106793D01*
X1030705Y-9106793D02*
X1021182Y-9144889D01*
X1021182Y-9144889D02*
X1011658Y-9163936D01*
X1011658Y-9163936D02*
X1002134Y-9173460D01*
X1002134Y-9173460D02*
X983086Y-9182984D01*
X983086Y-9182984D02*
X964039Y-9182984D01*
X964039Y-9182984D02*
X944991Y-9173460D01*
X944991Y-9173460D02*
X935467Y-9163936D01*
X935467Y-9163936D02*
X925943Y-9144889D01*
X925943Y-9144889D02*
X916420Y-9106793D01*
X916420Y-9106793D02*
X916420Y-9059174D01*
X916420Y-9059174D02*
X925943Y-9021079D01*
X925943Y-9021079D02*
X935467Y-9002031D01*
X935467Y-9002031D02*
X944991Y-8992508D01*
X944991Y-8992508D02*
X964039Y-8982984D01*
X1116420Y-9182984D02*
X1116420Y-9049650D01*
X1116420Y-9068698D02*
X1125944Y-9059174D01*
X1125944Y-9059174D02*
X1144991Y-9049650D01*
X1144991Y-9049650D02*
X1173563Y-9049650D01*
X1173563Y-9049650D02*
X1192610Y-9059174D01*
X1192610Y-9059174D02*
X1202134Y-9078222D01*
X1202134Y-9078222D02*
X1202134Y-9182984D01*
X1202134Y-9078222D02*
X1211658Y-9059174D01*
X1211658Y-9059174D02*
X1230705Y-9049650D01*
X1230705Y-9049650D02*
X1259277Y-9049650D01*
X1259277Y-9049650D02*
X1278325Y-9059174D01*
X1278325Y-9059174D02*
X1287848Y-9078222D01*
X1287848Y-9078222D02*
X1287848Y-9182984D01*
X1383086Y-9182984D02*
X1383086Y-9049650D01*
X1383086Y-9068698D02*
X1392610Y-9059174D01*
X1392610Y-9059174D02*
X1411658Y-9049650D01*
X1411658Y-9049650D02*
X1440229Y-9049650D01*
X1440229Y-9049650D02*
X1459277Y-9059174D01*
X1459277Y-9059174D02*
X1468801Y-9078222D01*
X1468801Y-9078222D02*
X1468801Y-9182984D01*
X1468801Y-9078222D02*
X1478324Y-9059174D01*
X1478324Y-9059174D02*
X1497372Y-9049650D01*
X1497372Y-9049650D02*
X1525943Y-9049650D01*
X1525943Y-9049650D02*
X1544991Y-9059174D01*
X1544991Y-9059174D02*
X1554515Y-9078222D01*
X1554515Y-9078222D02*
X1554515Y-9182984D01*
X1944991Y-8973460D02*
X1773563Y-9230603D01*
X2202134Y-8982984D02*
X2221182Y-8982984D01*
X2221182Y-8982984D02*
X2240229Y-8992508D01*
X2240229Y-8992508D02*
X2249753Y-9002031D01*
X2249753Y-9002031D02*
X2259277Y-9021079D01*
X2259277Y-9021079D02*
X2268801Y-9059174D01*
X2268801Y-9059174D02*
X2268801Y-9106793D01*
X2268801Y-9106793D02*
X2259277Y-9144889D01*
X2259277Y-9144889D02*
X2249753Y-9163936D01*
X2249753Y-9163936D02*
X2240229Y-9173460D01*
X2240229Y-9173460D02*
X2221182Y-9182984D01*
X2221182Y-9182984D02*
X2202134Y-9182984D01*
X2202134Y-9182984D02*
X2183087Y-9173460D01*
X2183087Y-9173460D02*
X2173563Y-9163936D01*
X2173563Y-9163936D02*
X2164039Y-9144889D01*
X2164039Y-9144889D02*
X2154515Y-9106793D01*
X2154515Y-9106793D02*
X2154515Y-9059174D01*
X2154515Y-9059174D02*
X2164039Y-9021079D01*
X2164039Y-9021079D02*
X2173563Y-9002031D01*
X2173563Y-9002031D02*
X2183087Y-8992508D01*
X2183087Y-8992508D02*
X2202134Y-8982984D01*
X2354515Y-9163936D02*
X2364039Y-9173460D01*
X2364039Y-9173460D02*
X2354515Y-9182984D01*
X2354515Y-9182984D02*
X2344991Y-9173460D01*
X2344991Y-9173460D02*
X2354515Y-9163936D01*
X2354515Y-9163936D02*
X2354515Y-9182984D01*
X2487848Y-8982984D02*
X2506896Y-8982984D01*
X2506896Y-8982984D02*
X2525944Y-8992508D01*
X2525944Y-8992508D02*
X2535468Y-9002031D01*
X2535468Y-9002031D02*
X2544991Y-9021079D01*
X2544991Y-9021079D02*
X2554515Y-9059174D01*
X2554515Y-9059174D02*
X2554515Y-9106793D01*
X2554515Y-9106793D02*
X2544991Y-9144889D01*
X2544991Y-9144889D02*
X2535468Y-9163936D01*
X2535468Y-9163936D02*
X2525944Y-9173460D01*
X2525944Y-9173460D02*
X2506896Y-9182984D01*
X2506896Y-9182984D02*
X2487848Y-9182984D01*
X2487848Y-9182984D02*
X2468801Y-9173460D01*
X2468801Y-9173460D02*
X2459277Y-9163936D01*
X2459277Y-9163936D02*
X2449753Y-9144889D01*
X2449753Y-9144889D02*
X2440229Y-9106793D01*
X2440229Y-9106793D02*
X2440229Y-9059174D01*
X2440229Y-9059174D02*
X2449753Y-9021079D01*
X2449753Y-9021079D02*
X2459277Y-9002031D01*
X2459277Y-9002031D02*
X2468801Y-8992508D01*
X2468801Y-8992508D02*
X2487848Y-8982984D01*
X2630706Y-9002031D02*
X2640229Y-8992508D01*
X2640229Y-8992508D02*
X2659277Y-8982984D01*
X2659277Y-8982984D02*
X2706896Y-8982984D01*
X2706896Y-8982984D02*
X2725944Y-8992508D01*
X2725944Y-8992508D02*
X2735468Y-9002031D01*
X2735468Y-9002031D02*
X2744991Y-9021079D01*
X2744991Y-9021079D02*
X2744991Y-9040127D01*
X2744991Y-9040127D02*
X2735468Y-9068698D01*
X2735468Y-9068698D02*
X2621182Y-9182984D01*
X2621182Y-9182984D02*
X2744991Y-9182984D01*
X2840229Y-9182984D02*
X2878325Y-9182984D01*
X2878325Y-9182984D02*
X2897372Y-9173460D01*
X2897372Y-9173460D02*
X2906896Y-9163936D01*
X2906896Y-9163936D02*
X2925944Y-9135365D01*
X2925944Y-9135365D02*
X2935467Y-9097270D01*
X2935467Y-9097270D02*
X2935467Y-9021079D01*
X2935467Y-9021079D02*
X2925944Y-9002031D01*
X2925944Y-9002031D02*
X2916420Y-8992508D01*
X2916420Y-8992508D02*
X2897372Y-8982984D01*
X2897372Y-8982984D02*
X2859277Y-8982984D01*
X2859277Y-8982984D02*
X2840229Y-8992508D01*
X2840229Y-8992508D02*
X2830706Y-9002031D01*
X2830706Y-9002031D02*
X2821182Y-9021079D01*
X2821182Y-9021079D02*
X2821182Y-9068698D01*
X2821182Y-9068698D02*
X2830706Y-9087746D01*
X2830706Y-9087746D02*
X2840229Y-9097270D01*
X2840229Y-9097270D02*
X2859277Y-9106793D01*
X2859277Y-9106793D02*
X2897372Y-9106793D01*
X2897372Y-9106793D02*
X2916420Y-9097270D01*
X2916420Y-9097270D02*
X2925944Y-9087746D01*
X2925944Y-9087746D02*
X2935467Y-9068698D01*
X3116420Y-8982984D02*
X3021182Y-8982984D01*
X3021182Y-8982984D02*
X3011658Y-9078222D01*
X3011658Y-9078222D02*
X3021182Y-9068698D01*
X3021182Y-9068698D02*
X3040229Y-9059174D01*
X3040229Y-9059174D02*
X3087848Y-9059174D01*
X3087848Y-9059174D02*
X3106896Y-9068698D01*
X3106896Y-9068698D02*
X3116420Y-9078222D01*
X3116420Y-9078222D02*
X3125944Y-9097270D01*
X3125944Y-9097270D02*
X3125944Y-9144889D01*
X3125944Y-9144889D02*
X3116420Y-9163936D01*
X3116420Y-9163936D02*
X3106896Y-9173460D01*
X3106896Y-9173460D02*
X3087848Y-9182984D01*
X3087848Y-9182984D02*
X3040229Y-9182984D01*
X3040229Y-9182984D02*
X3021182Y-9173460D01*
X3021182Y-9173460D02*
X3011658Y-9163936D01*
X3202134Y-8982984D02*
X3202134Y-9021079D01*
X3278325Y-8982984D02*
X3278325Y-9021079D01*
X3573563Y-9259174D02*
X3564039Y-9249650D01*
X3564039Y-9249650D02*
X3544991Y-9221079D01*
X3544991Y-9221079D02*
X3535468Y-9202031D01*
X3535468Y-9202031D02*
X3525944Y-9173460D01*
X3525944Y-9173460D02*
X3516420Y-9125841D01*
X3516420Y-9125841D02*
X3516420Y-9087746D01*
X3516420Y-9087746D02*
X3525944Y-9040127D01*
X3525944Y-9040127D02*
X3535468Y-9011555D01*
X3535468Y-9011555D02*
X3544991Y-8992508D01*
X3544991Y-8992508D02*
X3564039Y-8963936D01*
X3564039Y-8963936D02*
X3573563Y-8954412D01*
X3640229Y-9002031D02*
X3649753Y-8992508D01*
X3649753Y-8992508D02*
X3668801Y-8982984D01*
X3668801Y-8982984D02*
X3716420Y-8982984D01*
X3716420Y-8982984D02*
X3735468Y-8992508D01*
X3735468Y-8992508D02*
X3744991Y-9002031D01*
X3744991Y-9002031D02*
X3754515Y-9021079D01*
X3754515Y-9021079D02*
X3754515Y-9040127D01*
X3754515Y-9040127D02*
X3744991Y-9068698D01*
X3744991Y-9068698D02*
X3630706Y-9182984D01*
X3630706Y-9182984D02*
X3754515Y-9182984D01*
X3992610Y-9182984D02*
X3992610Y-8982984D01*
X4078325Y-9182984D02*
X4078325Y-9078222D01*
X4078325Y-9078222D02*
X4068801Y-9059174D01*
X4068801Y-9059174D02*
X4049753Y-9049650D01*
X4049753Y-9049650D02*
X4021182Y-9049650D01*
X4021182Y-9049650D02*
X4002134Y-9059174D01*
X4002134Y-9059174D02*
X3992610Y-9068698D01*
X4202134Y-9182984D02*
X4183087Y-9173460D01*
X4183087Y-9173460D02*
X4173563Y-9163936D01*
X4173563Y-9163936D02*
X4164039Y-9144889D01*
X4164039Y-9144889D02*
X4164039Y-9087746D01*
X4164039Y-9087746D02*
X4173563Y-9068698D01*
X4173563Y-9068698D02*
X4183087Y-9059174D01*
X4183087Y-9059174D02*
X4202134Y-9049650D01*
X4202134Y-9049650D02*
X4230706Y-9049650D01*
X4230706Y-9049650D02*
X4249753Y-9059174D01*
X4249753Y-9059174D02*
X4259277Y-9068698D01*
X4259277Y-9068698D02*
X4268801Y-9087746D01*
X4268801Y-9087746D02*
X4268801Y-9144889D01*
X4268801Y-9144889D02*
X4259277Y-9163936D01*
X4259277Y-9163936D02*
X4249753Y-9173460D01*
X4249753Y-9173460D02*
X4230706Y-9182984D01*
X4230706Y-9182984D02*
X4202134Y-9182984D01*
X4383087Y-9182984D02*
X4364039Y-9173460D01*
X4364039Y-9173460D02*
X4354515Y-9154412D01*
X4354515Y-9154412D02*
X4354515Y-8982984D01*
X4535468Y-9173460D02*
X4516420Y-9182984D01*
X4516420Y-9182984D02*
X4478325Y-9182984D01*
X4478325Y-9182984D02*
X4459277Y-9173460D01*
X4459277Y-9173460D02*
X4449753Y-9154412D01*
X4449753Y-9154412D02*
X4449753Y-9078222D01*
X4449753Y-9078222D02*
X4459277Y-9059174D01*
X4459277Y-9059174D02*
X4478325Y-9049650D01*
X4478325Y-9049650D02*
X4516420Y-9049650D01*
X4516420Y-9049650D02*
X4535468Y-9059174D01*
X4535468Y-9059174D02*
X4544992Y-9078222D01*
X4544992Y-9078222D02*
X4544992Y-9097270D01*
X4544992Y-9097270D02*
X4449753Y-9116317D01*
X4621182Y-9173460D02*
X4640230Y-9182984D01*
X4640230Y-9182984D02*
X4678325Y-9182984D01*
X4678325Y-9182984D02*
X4697373Y-9173460D01*
X4697373Y-9173460D02*
X4706896Y-9154412D01*
X4706896Y-9154412D02*
X4706896Y-9144889D01*
X4706896Y-9144889D02*
X4697373Y-9125841D01*
X4697373Y-9125841D02*
X4678325Y-9116317D01*
X4678325Y-9116317D02*
X4649753Y-9116317D01*
X4649753Y-9116317D02*
X4630706Y-9106793D01*
X4630706Y-9106793D02*
X4621182Y-9087746D01*
X4621182Y-9087746D02*
X4621182Y-9078222D01*
X4621182Y-9078222D02*
X4630706Y-9059174D01*
X4630706Y-9059174D02*
X4649753Y-9049650D01*
X4649753Y-9049650D02*
X4678325Y-9049650D01*
X4678325Y-9049650D02*
X4697373Y-9059174D01*
X4773563Y-9259174D02*
X4783087Y-9249650D01*
X4783087Y-9249650D02*
X4802134Y-9221079D01*
X4802134Y-9221079D02*
X4811658Y-9202031D01*
X4811658Y-9202031D02*
X4821182Y-9173460D01*
X4821182Y-9173460D02*
X4830706Y-9125841D01*
X4830706Y-9125841D02*
X4830706Y-9087746D01*
X4830706Y-9087746D02*
X4821182Y-9040127D01*
X4821182Y-9040127D02*
X4811658Y-9011555D01*
X4811658Y-9011555D02*
X4802134Y-8992508D01*
X4802134Y-8992508D02*
X4783087Y-8963936D01*
X4783087Y-8963936D02*
X4773563Y-8954412D01*
D12*
X-41500Y-9395500D02*
X-1500Y-9355500D01*
X-41500Y-9315500D01*
X-81500Y-9355500D01*
X-41500Y-9395500D01*
D11*
X297372Y-9246984D02*
X316420Y-9246984D01*
X316420Y-9246984D02*
X335467Y-9256508D01*
X335467Y-9256508D02*
X344991Y-9266031D01*
X344991Y-9266031D02*
X354515Y-9285079D01*
X354515Y-9285079D02*
X364039Y-9323174D01*
X364039Y-9323174D02*
X364039Y-9370793D01*
X364039Y-9370793D02*
X354515Y-9408889D01*
X354515Y-9408889D02*
X344991Y-9427936D01*
X344991Y-9427936D02*
X335467Y-9437460D01*
X335467Y-9437460D02*
X316420Y-9446984D01*
X316420Y-9446984D02*
X297372Y-9446984D01*
X297372Y-9446984D02*
X278324Y-9437460D01*
X278324Y-9437460D02*
X268801Y-9427936D01*
X268801Y-9427936D02*
X259277Y-9408889D01*
X259277Y-9408889D02*
X249753Y-9370793D01*
X249753Y-9370793D02*
X249753Y-9323174D01*
X249753Y-9323174D02*
X259277Y-9285079D01*
X259277Y-9285079D02*
X268801Y-9266031D01*
X268801Y-9266031D02*
X278324Y-9256508D01*
X278324Y-9256508D02*
X297372Y-9246984D01*
X449753Y-9427936D02*
X459277Y-9437460D01*
X459277Y-9437460D02*
X449753Y-9446984D01*
X449753Y-9446984D02*
X440229Y-9437460D01*
X440229Y-9437460D02*
X449753Y-9427936D01*
X449753Y-9427936D02*
X449753Y-9446984D01*
X573563Y-9332698D02*
X554515Y-9323174D01*
X554515Y-9323174D02*
X544991Y-9313650D01*
X544991Y-9313650D02*
X535467Y-9294603D01*
X535467Y-9294603D02*
X535467Y-9285079D01*
X535467Y-9285079D02*
X544991Y-9266031D01*
X544991Y-9266031D02*
X554515Y-9256508D01*
X554515Y-9256508D02*
X573563Y-9246984D01*
X573563Y-9246984D02*
X611658Y-9246984D01*
X611658Y-9246984D02*
X630705Y-9256508D01*
X630705Y-9256508D02*
X640229Y-9266031D01*
X640229Y-9266031D02*
X649753Y-9285079D01*
X649753Y-9285079D02*
X649753Y-9294603D01*
X649753Y-9294603D02*
X640229Y-9313650D01*
X640229Y-9313650D02*
X630705Y-9323174D01*
X630705Y-9323174D02*
X611658Y-9332698D01*
X611658Y-9332698D02*
X573563Y-9332698D01*
X573563Y-9332698D02*
X554515Y-9342222D01*
X554515Y-9342222D02*
X544991Y-9351746D01*
X544991Y-9351746D02*
X535467Y-9370793D01*
X535467Y-9370793D02*
X535467Y-9408889D01*
X535467Y-9408889D02*
X544991Y-9427936D01*
X544991Y-9427936D02*
X554515Y-9437460D01*
X554515Y-9437460D02*
X573563Y-9446984D01*
X573563Y-9446984D02*
X611658Y-9446984D01*
X611658Y-9446984D02*
X630705Y-9437460D01*
X630705Y-9437460D02*
X640229Y-9427936D01*
X640229Y-9427936D02*
X649753Y-9408889D01*
X649753Y-9408889D02*
X649753Y-9370793D01*
X649753Y-9370793D02*
X640229Y-9351746D01*
X640229Y-9351746D02*
X630705Y-9342222D01*
X630705Y-9342222D02*
X611658Y-9332698D01*
X773562Y-9246984D02*
X792610Y-9246984D01*
X792610Y-9246984D02*
X811658Y-9256508D01*
X811658Y-9256508D02*
X821182Y-9266031D01*
X821182Y-9266031D02*
X830705Y-9285079D01*
X830705Y-9285079D02*
X840229Y-9323174D01*
X840229Y-9323174D02*
X840229Y-9370793D01*
X840229Y-9370793D02*
X830705Y-9408889D01*
X830705Y-9408889D02*
X821182Y-9427936D01*
X821182Y-9427936D02*
X811658Y-9437460D01*
X811658Y-9437460D02*
X792610Y-9446984D01*
X792610Y-9446984D02*
X773562Y-9446984D01*
X773562Y-9446984D02*
X754515Y-9437460D01*
X754515Y-9437460D02*
X744991Y-9427936D01*
X744991Y-9427936D02*
X735467Y-9408889D01*
X735467Y-9408889D02*
X725943Y-9370793D01*
X725943Y-9370793D02*
X725943Y-9323174D01*
X725943Y-9323174D02*
X735467Y-9285079D01*
X735467Y-9285079D02*
X744991Y-9266031D01*
X744991Y-9266031D02*
X754515Y-9256508D01*
X754515Y-9256508D02*
X773562Y-9246984D01*
X964039Y-9246984D02*
X983086Y-9246984D01*
X983086Y-9246984D02*
X1002134Y-9256508D01*
X1002134Y-9256508D02*
X1011658Y-9266031D01*
X1011658Y-9266031D02*
X1021182Y-9285079D01*
X1021182Y-9285079D02*
X1030705Y-9323174D01*
X1030705Y-9323174D02*
X1030705Y-9370793D01*
X1030705Y-9370793D02*
X1021182Y-9408889D01*
X1021182Y-9408889D02*
X1011658Y-9427936D01*
X1011658Y-9427936D02*
X1002134Y-9437460D01*
X1002134Y-9437460D02*
X983086Y-9446984D01*
X983086Y-9446984D02*
X964039Y-9446984D01*
X964039Y-9446984D02*
X944991Y-9437460D01*
X944991Y-9437460D02*
X935467Y-9427936D01*
X935467Y-9427936D02*
X925943Y-9408889D01*
X925943Y-9408889D02*
X916420Y-9370793D01*
X916420Y-9370793D02*
X916420Y-9323174D01*
X916420Y-9323174D02*
X925943Y-9285079D01*
X925943Y-9285079D02*
X935467Y-9266031D01*
X935467Y-9266031D02*
X944991Y-9256508D01*
X944991Y-9256508D02*
X964039Y-9246984D01*
X1116420Y-9446984D02*
X1116420Y-9313650D01*
X1116420Y-9332698D02*
X1125944Y-9323174D01*
X1125944Y-9323174D02*
X1144991Y-9313650D01*
X1144991Y-9313650D02*
X1173563Y-9313650D01*
X1173563Y-9313650D02*
X1192610Y-9323174D01*
X1192610Y-9323174D02*
X1202134Y-9342222D01*
X1202134Y-9342222D02*
X1202134Y-9446984D01*
X1202134Y-9342222D02*
X1211658Y-9323174D01*
X1211658Y-9323174D02*
X1230705Y-9313650D01*
X1230705Y-9313650D02*
X1259277Y-9313650D01*
X1259277Y-9313650D02*
X1278325Y-9323174D01*
X1278325Y-9323174D02*
X1287848Y-9342222D01*
X1287848Y-9342222D02*
X1287848Y-9446984D01*
X1383086Y-9446984D02*
X1383086Y-9313650D01*
X1383086Y-9332698D02*
X1392610Y-9323174D01*
X1392610Y-9323174D02*
X1411658Y-9313650D01*
X1411658Y-9313650D02*
X1440229Y-9313650D01*
X1440229Y-9313650D02*
X1459277Y-9323174D01*
X1459277Y-9323174D02*
X1468801Y-9342222D01*
X1468801Y-9342222D02*
X1468801Y-9446984D01*
X1468801Y-9342222D02*
X1478324Y-9323174D01*
X1478324Y-9323174D02*
X1497372Y-9313650D01*
X1497372Y-9313650D02*
X1525943Y-9313650D01*
X1525943Y-9313650D02*
X1544991Y-9323174D01*
X1544991Y-9323174D02*
X1554515Y-9342222D01*
X1554515Y-9342222D02*
X1554515Y-9446984D01*
X1944991Y-9237460D02*
X1773563Y-9494603D01*
X2202134Y-9246984D02*
X2221182Y-9246984D01*
X2221182Y-9246984D02*
X2240229Y-9256508D01*
X2240229Y-9256508D02*
X2249753Y-9266031D01*
X2249753Y-9266031D02*
X2259277Y-9285079D01*
X2259277Y-9285079D02*
X2268801Y-9323174D01*
X2268801Y-9323174D02*
X2268801Y-9370793D01*
X2268801Y-9370793D02*
X2259277Y-9408889D01*
X2259277Y-9408889D02*
X2249753Y-9427936D01*
X2249753Y-9427936D02*
X2240229Y-9437460D01*
X2240229Y-9437460D02*
X2221182Y-9446984D01*
X2221182Y-9446984D02*
X2202134Y-9446984D01*
X2202134Y-9446984D02*
X2183087Y-9437460D01*
X2183087Y-9437460D02*
X2173563Y-9427936D01*
X2173563Y-9427936D02*
X2164039Y-9408889D01*
X2164039Y-9408889D02*
X2154515Y-9370793D01*
X2154515Y-9370793D02*
X2154515Y-9323174D01*
X2154515Y-9323174D02*
X2164039Y-9285079D01*
X2164039Y-9285079D02*
X2173563Y-9266031D01*
X2173563Y-9266031D02*
X2183087Y-9256508D01*
X2183087Y-9256508D02*
X2202134Y-9246984D01*
X2354515Y-9427936D02*
X2364039Y-9437460D01*
X2364039Y-9437460D02*
X2354515Y-9446984D01*
X2354515Y-9446984D02*
X2344991Y-9437460D01*
X2344991Y-9437460D02*
X2354515Y-9427936D01*
X2354515Y-9427936D02*
X2354515Y-9446984D01*
X2487848Y-9246984D02*
X2506896Y-9246984D01*
X2506896Y-9246984D02*
X2525944Y-9256508D01*
X2525944Y-9256508D02*
X2535468Y-9266031D01*
X2535468Y-9266031D02*
X2544991Y-9285079D01*
X2544991Y-9285079D02*
X2554515Y-9323174D01*
X2554515Y-9323174D02*
X2554515Y-9370793D01*
X2554515Y-9370793D02*
X2544991Y-9408889D01*
X2544991Y-9408889D02*
X2535468Y-9427936D01*
X2535468Y-9427936D02*
X2525944Y-9437460D01*
X2525944Y-9437460D02*
X2506896Y-9446984D01*
X2506896Y-9446984D02*
X2487848Y-9446984D01*
X2487848Y-9446984D02*
X2468801Y-9437460D01*
X2468801Y-9437460D02*
X2459277Y-9427936D01*
X2459277Y-9427936D02*
X2449753Y-9408889D01*
X2449753Y-9408889D02*
X2440229Y-9370793D01*
X2440229Y-9370793D02*
X2440229Y-9323174D01*
X2440229Y-9323174D02*
X2449753Y-9285079D01*
X2449753Y-9285079D02*
X2459277Y-9266031D01*
X2459277Y-9266031D02*
X2468801Y-9256508D01*
X2468801Y-9256508D02*
X2487848Y-9246984D01*
X2621182Y-9246984D02*
X2744991Y-9246984D01*
X2744991Y-9246984D02*
X2678325Y-9323174D01*
X2678325Y-9323174D02*
X2706896Y-9323174D01*
X2706896Y-9323174D02*
X2725944Y-9332698D01*
X2725944Y-9332698D02*
X2735468Y-9342222D01*
X2735468Y-9342222D02*
X2744991Y-9361270D01*
X2744991Y-9361270D02*
X2744991Y-9408889D01*
X2744991Y-9408889D02*
X2735468Y-9427936D01*
X2735468Y-9427936D02*
X2725944Y-9437460D01*
X2725944Y-9437460D02*
X2706896Y-9446984D01*
X2706896Y-9446984D02*
X2649753Y-9446984D01*
X2649753Y-9446984D02*
X2630706Y-9437460D01*
X2630706Y-9437460D02*
X2621182Y-9427936D01*
X2935467Y-9446984D02*
X2821182Y-9446984D01*
X2878325Y-9446984D02*
X2878325Y-9246984D01*
X2878325Y-9246984D02*
X2859277Y-9275555D01*
X2859277Y-9275555D02*
X2840229Y-9294603D01*
X2840229Y-9294603D02*
X2821182Y-9304127D01*
X3116420Y-9246984D02*
X3021182Y-9246984D01*
X3021182Y-9246984D02*
X3011658Y-9342222D01*
X3011658Y-9342222D02*
X3021182Y-9332698D01*
X3021182Y-9332698D02*
X3040229Y-9323174D01*
X3040229Y-9323174D02*
X3087848Y-9323174D01*
X3087848Y-9323174D02*
X3106896Y-9332698D01*
X3106896Y-9332698D02*
X3116420Y-9342222D01*
X3116420Y-9342222D02*
X3125944Y-9361270D01*
X3125944Y-9361270D02*
X3125944Y-9408889D01*
X3125944Y-9408889D02*
X3116420Y-9427936D01*
X3116420Y-9427936D02*
X3106896Y-9437460D01*
X3106896Y-9437460D02*
X3087848Y-9446984D01*
X3087848Y-9446984D02*
X3040229Y-9446984D01*
X3040229Y-9446984D02*
X3021182Y-9437460D01*
X3021182Y-9437460D02*
X3011658Y-9427936D01*
X3202134Y-9246984D02*
X3202134Y-9285079D01*
X3278325Y-9246984D02*
X3278325Y-9285079D01*
X3573563Y-9523174D02*
X3564039Y-9513650D01*
X3564039Y-9513650D02*
X3544991Y-9485079D01*
X3544991Y-9485079D02*
X3535468Y-9466031D01*
X3535468Y-9466031D02*
X3525944Y-9437460D01*
X3525944Y-9437460D02*
X3516420Y-9389841D01*
X3516420Y-9389841D02*
X3516420Y-9351746D01*
X3516420Y-9351746D02*
X3525944Y-9304127D01*
X3525944Y-9304127D02*
X3535468Y-9275555D01*
X3535468Y-9275555D02*
X3544991Y-9256508D01*
X3544991Y-9256508D02*
X3564039Y-9227936D01*
X3564039Y-9227936D02*
X3573563Y-9218412D01*
X3735468Y-9313650D02*
X3735468Y-9446984D01*
X3687848Y-9237460D02*
X3640229Y-9380317D01*
X3640229Y-9380317D02*
X3764039Y-9380317D01*
X3868801Y-9332698D02*
X3849753Y-9323174D01*
X3849753Y-9323174D02*
X3840229Y-9313650D01*
X3840229Y-9313650D02*
X3830706Y-9294603D01*
X3830706Y-9294603D02*
X3830706Y-9285079D01*
X3830706Y-9285079D02*
X3840229Y-9266031D01*
X3840229Y-9266031D02*
X3849753Y-9256508D01*
X3849753Y-9256508D02*
X3868801Y-9246984D01*
X3868801Y-9246984D02*
X3906896Y-9246984D01*
X3906896Y-9246984D02*
X3925944Y-9256508D01*
X3925944Y-9256508D02*
X3935468Y-9266031D01*
X3935468Y-9266031D02*
X3944991Y-9285079D01*
X3944991Y-9285079D02*
X3944991Y-9294603D01*
X3944991Y-9294603D02*
X3935468Y-9313650D01*
X3935468Y-9313650D02*
X3925944Y-9323174D01*
X3925944Y-9323174D02*
X3906896Y-9332698D01*
X3906896Y-9332698D02*
X3868801Y-9332698D01*
X3868801Y-9332698D02*
X3849753Y-9342222D01*
X3849753Y-9342222D02*
X3840229Y-9351746D01*
X3840229Y-9351746D02*
X3830706Y-9370793D01*
X3830706Y-9370793D02*
X3830706Y-9408889D01*
X3830706Y-9408889D02*
X3840229Y-9427936D01*
X3840229Y-9427936D02*
X3849753Y-9437460D01*
X3849753Y-9437460D02*
X3868801Y-9446984D01*
X3868801Y-9446984D02*
X3906896Y-9446984D01*
X3906896Y-9446984D02*
X3925944Y-9437460D01*
X3925944Y-9437460D02*
X3935468Y-9427936D01*
X3935468Y-9427936D02*
X3944991Y-9408889D01*
X3944991Y-9408889D02*
X3944991Y-9370793D01*
X3944991Y-9370793D02*
X3935468Y-9351746D01*
X3935468Y-9351746D02*
X3925944Y-9342222D01*
X3925944Y-9342222D02*
X3906896Y-9332698D01*
X4183087Y-9446984D02*
X4183087Y-9246984D01*
X4268801Y-9446984D02*
X4268801Y-9342222D01*
X4268801Y-9342222D02*
X4259277Y-9323174D01*
X4259277Y-9323174D02*
X4240230Y-9313650D01*
X4240230Y-9313650D02*
X4211658Y-9313650D01*
X4211658Y-9313650D02*
X4192610Y-9323174D01*
X4192610Y-9323174D02*
X4183087Y-9332698D01*
X4392611Y-9446984D02*
X4373563Y-9437460D01*
X4373563Y-9437460D02*
X4364039Y-9427936D01*
X4364039Y-9427936D02*
X4354515Y-9408889D01*
X4354515Y-9408889D02*
X4354515Y-9351746D01*
X4354515Y-9351746D02*
X4364039Y-9332698D01*
X4364039Y-9332698D02*
X4373563Y-9323174D01*
X4373563Y-9323174D02*
X4392611Y-9313650D01*
X4392611Y-9313650D02*
X4421182Y-9313650D01*
X4421182Y-9313650D02*
X4440230Y-9323174D01*
X4440230Y-9323174D02*
X4449753Y-9332698D01*
X4449753Y-9332698D02*
X4459277Y-9351746D01*
X4459277Y-9351746D02*
X4459277Y-9408889D01*
X4459277Y-9408889D02*
X4449753Y-9427936D01*
X4449753Y-9427936D02*
X4440230Y-9437460D01*
X4440230Y-9437460D02*
X4421182Y-9446984D01*
X4421182Y-9446984D02*
X4392611Y-9446984D01*
X4573563Y-9446984D02*
X4554515Y-9437460D01*
X4554515Y-9437460D02*
X4544992Y-9418412D01*
X4544992Y-9418412D02*
X4544992Y-9246984D01*
X4725944Y-9437460D02*
X4706896Y-9446984D01*
X4706896Y-9446984D02*
X4668801Y-9446984D01*
X4668801Y-9446984D02*
X4649753Y-9437460D01*
X4649753Y-9437460D02*
X4640230Y-9418412D01*
X4640230Y-9418412D02*
X4640230Y-9342222D01*
X4640230Y-9342222D02*
X4649753Y-9323174D01*
X4649753Y-9323174D02*
X4668801Y-9313650D01*
X4668801Y-9313650D02*
X4706896Y-9313650D01*
X4706896Y-9313650D02*
X4725944Y-9323174D01*
X4725944Y-9323174D02*
X4735468Y-9342222D01*
X4735468Y-9342222D02*
X4735468Y-9361270D01*
X4735468Y-9361270D02*
X4640230Y-9380317D01*
X4811658Y-9437460D02*
X4830706Y-9446984D01*
X4830706Y-9446984D02*
X4868801Y-9446984D01*
X4868801Y-9446984D02*
X4887849Y-9437460D01*
X4887849Y-9437460D02*
X4897373Y-9418412D01*
X4897373Y-9418412D02*
X4897373Y-9408889D01*
X4897373Y-9408889D02*
X4887849Y-9389841D01*
X4887849Y-9389841D02*
X4868801Y-9380317D01*
X4868801Y-9380317D02*
X4840230Y-9380317D01*
X4840230Y-9380317D02*
X4821182Y-9370793D01*
X4821182Y-9370793D02*
X4811658Y-9351746D01*
X4811658Y-9351746D02*
X4811658Y-9342222D01*
X4811658Y-9342222D02*
X4821182Y-9323174D01*
X4821182Y-9323174D02*
X4840230Y-9313650D01*
X4840230Y-9313650D02*
X4868801Y-9313650D01*
X4868801Y-9313650D02*
X4887849Y-9323174D01*
X4964039Y-9523174D02*
X4973563Y-9513650D01*
X4973563Y-9513650D02*
X4992611Y-9485079D01*
X4992611Y-9485079D02*
X5002134Y-9466031D01*
X5002134Y-9466031D02*
X5011658Y-9437460D01*
X5011658Y-9437460D02*
X5021182Y-9389841D01*
X5021182Y-9389841D02*
X5021182Y-9351746D01*
X5021182Y-9351746D02*
X5011658Y-9304127D01*
X5011658Y-9304127D02*
X5002134Y-9275555D01*
X5002134Y-9275555D02*
X4992611Y-9256508D01*
X4992611Y-9256508D02*
X4973563Y-9227936D01*
X4973563Y-9227936D02*
X4964039Y-9218412D01*
M02*
