G04 #@! TF.GenerationSoftware,KiCad,Pcbnew,9.0.7*
G04 #@! TF.CreationDate,2026-02-18T22:11:59-06:00*
G04 #@! TF.ProjectId,grad_cap_display,67726164-5f63-4617-905f-646973706c61,rev?*
G04 #@! TF.SameCoordinates,Original*
G04 #@! TF.FileFunction,Copper,L2,Inr*
G04 #@! TF.FilePolarity,Positive*
%FSLAX46Y46*%
G04 Gerber Fmt 4.6, Leading zero omitted, Abs format (unit mm)*
G04 Created by KiCad (PCBNEW 9.0.7) date 2026-02-18 22:11:59*
%MOMM*%
%LPD*%
G01*
G04 APERTURE LIST*
G04 Aperture macros list*
%AMRoundRect*
0 Rectangle with rounded corners*
0 $1 Rounding radius*
0 $2 $3 $4 $5 $6 $7 $8 $9 X,Y pos of 4 corners*
0 Add a 4 corners polygon primitive as box body*
4,1,4,$2,$3,$4,$5,$6,$7,$8,$9,$2,$3,0*
0 Add four circle primitives for the rounded corners*
1,1,$1+$1,$2,$3*
1,1,$1+$1,$4,$5*
1,1,$1+$1,$6,$7*
1,1,$1+$1,$8,$9*
0 Add four rect primitives between the rounded corners*
20,1,$1+$1,$2,$3,$4,$5,0*
20,1,$1+$1,$4,$5,$6,$7,0*
20,1,$1+$1,$6,$7,$8,$9,0*
20,1,$1+$1,$8,$9,$2,$3,0*%
G04 Aperture macros list end*
G04 #@! TA.AperFunction,HeatsinkPad*
%ADD10C,0.600000*%
G04 #@! TD*
G04 #@! TA.AperFunction,ComponentPad*
%ADD11O,1.750000X1.200000*%
G04 #@! TD*
G04 #@! TA.AperFunction,ComponentPad*
%ADD12RoundRect,0.250000X0.625000X-0.350000X0.625000X0.350000X-0.625000X0.350000X-0.625000X-0.350000X0*%
G04 #@! TD*
G04 #@! TA.AperFunction,ComponentPad*
%ADD13C,1.000000*%
G04 #@! TD*
G04 #@! TA.AperFunction,ViaPad*
%ADD14C,0.600000*%
G04 #@! TD*
G04 #@! TA.AperFunction,ViaPad*
%ADD15C,0.800000*%
G04 #@! TD*
G04 #@! TA.AperFunction,ViaPad*
%ADD16C,0.450000*%
G04 #@! TD*
G04 APERTURE END LIST*
D10*
X38192500Y-16050000D03*
X38192500Y-14650000D03*
X37492500Y-16750000D03*
X37492500Y-15350000D03*
X37492500Y-13950000D03*
X36792500Y-16050000D03*
X36792500Y-14650000D03*
X36092500Y-16750000D03*
X36092500Y-15350000D03*
X36092500Y-13950000D03*
X35392500Y-16050000D03*
X35392500Y-14650000D03*
D11*
X8230076Y-5762468D03*
D12*
X8230076Y-7762469D03*
D13*
X6572499Y-74283999D03*
X9112499Y-74284000D03*
X11652499Y-74284000D03*
X14192499Y-74284000D03*
X16732499Y-74284000D03*
X19272499Y-74283999D03*
X57372499Y-74284000D03*
X59912499Y-74284000D03*
X62452498Y-74284000D03*
X64992500Y-74284000D03*
X67532499Y-74284000D03*
X70072499Y-74284000D03*
X70012501Y-2286001D03*
X67472501Y-2286000D03*
X64932501Y-2286000D03*
X62392501Y-2286000D03*
X59852501Y-2286000D03*
X57312501Y-2286001D03*
X19212501Y-2286000D03*
X16672501Y-2286000D03*
X14132502Y-2286000D03*
X11592500Y-2286000D03*
X9052501Y-2286000D03*
X6512501Y-2286000D03*
X2321000Y-6567500D03*
X2321000Y-9107500D03*
X2321000Y-11647500D03*
X2321000Y-14187500D03*
X2321000Y-16727500D03*
X2321000Y-19267500D03*
X2321000Y-57367500D03*
X2321000Y-59907500D03*
X2321000Y-62447500D03*
X2321000Y-64987500D03*
X2321000Y-67527500D03*
X2321000Y-70067500D03*
X74264000Y-70007500D03*
X74264000Y-67467500D03*
X74264000Y-64927500D03*
X74264000Y-62387500D03*
X74264000Y-59847500D03*
X74264000Y-57307500D03*
X74264000Y-19207500D03*
X74264000Y-16667500D03*
X74264000Y-14127500D03*
X74264000Y-11587500D03*
X74264000Y-9047500D03*
X74264000Y-6507500D03*
D14*
X24220076Y-11283091D03*
X21520076Y-11281848D03*
X24210076Y-7920605D03*
X22880076Y-7920605D03*
X25550076Y-8350604D03*
X26770076Y-11073090D03*
X25560076Y-11073090D03*
X26790076Y-8360604D03*
D15*
X49730076Y-37562469D03*
X47050076Y-37562469D03*
X42080076Y-39212469D03*
X42180076Y-22922469D03*
X44130076Y-15862469D03*
X42970076Y-18822469D03*
X44520076Y-37542469D03*
X33010076Y-22362469D03*
X42200076Y-36412469D03*
X47050076Y-34402469D03*
X68530076Y-48012469D03*
X68510076Y-28592469D03*
X59000076Y-28842469D03*
X59230076Y-47602469D03*
X60610076Y-59182468D03*
X60610076Y-58182469D03*
X60610076Y-57182469D03*
D14*
X20710076Y-22452470D03*
X8900076Y-17102470D03*
X8320076Y-12822469D03*
D15*
X15870076Y-9822469D03*
X15870076Y-10822469D03*
X15870076Y-11822469D03*
X20670077Y-17292471D03*
X22020076Y-17298712D03*
X23220076Y-17692470D03*
X23230076Y-13792468D03*
X21880076Y-13786227D03*
X20680076Y-13782469D03*
X33970076Y-7632469D03*
X32970076Y-7632469D03*
X30973464Y-7631477D03*
X31970076Y-7632469D03*
X44630076Y-8962469D03*
X43630076Y-8962469D03*
X42633464Y-8961477D03*
X45630076Y-8962469D03*
X54360076Y-17802469D03*
X51800076Y-19472469D03*
X51810076Y-15992469D03*
X62420076Y-10512469D03*
X64090076Y-10002469D03*
X49070076Y-57002469D03*
X24140076Y-68052469D03*
X25010076Y-56132469D03*
X34600076Y-55932469D03*
X34580076Y-62212469D03*
X25300076Y-62372469D03*
X40180076Y-60002469D03*
X48790076Y-66052469D03*
X45630076Y-54492469D03*
X34470076Y-66002469D03*
X50790076Y-42552469D03*
X38120076Y-34772469D03*
X38150076Y-36102469D03*
X36430076Y-42852469D03*
X29480076Y-43312469D03*
X11190076Y-26641948D03*
X12180076Y-31671948D03*
X11180076Y-31671948D03*
X12190076Y-26641948D03*
X55990076Y-27772469D03*
X57640076Y-26812469D03*
X49550076Y-18992469D03*
X56630076Y-16462469D03*
X56160076Y-14892469D03*
X13720076Y-31682469D03*
X14720076Y-31682469D03*
X14730076Y-26652469D03*
X13730076Y-26652469D03*
X17300076Y-11992469D03*
X19300076Y-10992469D03*
X19300076Y-11992469D03*
X17300076Y-12992469D03*
X18300076Y-11992469D03*
D14*
X18690665Y-17732469D03*
D15*
X18300076Y-10992469D03*
X17300076Y-10992469D03*
X19300076Y-12992469D03*
X18300076Y-12992469D03*
D14*
X20700076Y-26242469D03*
X8880075Y-20182469D03*
X8890075Y-18862469D03*
X4310075Y-20182469D03*
X4320076Y-18862469D03*
X9490076Y-13942469D03*
X18150076Y-24362469D03*
X16575076Y-20464969D03*
X12200076Y-25722469D03*
X13990076Y-25732469D03*
X8680076Y-68662469D03*
X51480076Y-14232469D03*
X8670076Y-63882469D03*
D15*
X30850000Y-50500000D03*
X26000000Y-50050000D03*
D14*
X46380076Y-42212469D03*
X9340076Y-54742469D03*
X53630076Y-39202469D03*
X17350076Y-70172469D03*
X59119999Y-41490000D03*
X62740076Y-16702469D03*
D15*
X45910076Y-51552469D03*
D14*
X59320076Y-16732469D03*
X8660076Y-59062469D03*
X13740076Y-59092469D03*
X58780076Y-22102469D03*
D15*
X29250000Y-50500000D03*
X50550000Y-50050000D03*
D14*
X19880076Y-62092469D03*
X55450076Y-35942469D03*
X50390076Y-13342469D03*
D15*
X36380076Y-44092469D03*
D14*
X56420076Y-5392469D03*
D15*
X53150000Y-59600000D03*
D16*
X41590076Y-44432469D03*
D14*
X56180076Y-21312469D03*
X53622158Y-40203923D03*
X18820076Y-59112469D03*
D15*
X28730076Y-38762457D03*
X53650001Y-57064930D03*
D14*
X5860076Y-60322469D03*
X17601223Y-60332469D03*
X9990076Y-60932469D03*
X4100076Y-60382469D03*
D15*
X58990076Y-6182469D03*
X61354048Y-69638181D03*
X63354047Y-69638181D03*
X62354047Y-69638181D03*
X65354048Y-69638181D03*
X64354047Y-69638181D03*
D14*
X66080076Y-10892469D03*
X57810076Y-7352469D03*
X53250076Y-13392469D03*
X59310076Y-13832469D03*
D15*
X44680076Y-51552469D03*
D14*
X57790076Y-22102469D03*
X54070076Y-45477469D03*
X54624099Y-39283880D03*
D15*
X29750076Y-38772457D03*
D14*
X6900076Y-56962469D03*
D15*
X37440076Y-44092469D03*
D14*
X54620076Y-40282469D03*
X66160076Y-46362469D03*
D15*
X65160076Y-4852469D03*
D14*
X45470076Y-10782469D03*
D15*
X66670076Y-8192469D03*
D14*
X45420076Y-12082469D03*
D15*
X60060076Y-4862469D03*
D14*
X39610076Y-7412469D03*
X43260076Y-14592469D03*
D15*
X70320076Y-4842469D03*
D14*
X51910076Y-12002469D03*
X44550076Y-42182469D03*
X44550076Y-39232469D03*
X41040076Y-42912469D03*
X39590076Y-39212469D03*
X42134072Y-37388433D03*
X57530076Y-13012469D03*
X47070076Y-29402469D03*
X47050076Y-25352469D03*
X11190076Y-68102469D03*
X57510076Y-10702469D03*
X47080076Y-39232469D03*
X47100076Y-30452469D03*
X13760076Y-68882469D03*
X56170076Y-66792469D03*
X51790076Y-10042469D03*
X49690076Y-39222469D03*
D16*
X40360076Y-47472469D03*
D14*
X45787652Y-17764938D03*
X30880076Y-11427469D03*
D16*
X40030076Y-50777469D03*
X34030152Y-50777545D03*
D14*
X33680076Y-23527469D03*
X30880076Y-15252469D03*
D16*
X38530076Y-50327469D03*
X33030152Y-50777545D03*
D14*
X30380076Y-27402469D03*
X30855076Y-13977469D03*
D16*
X39030076Y-50777469D03*
D14*
X37955076Y-23962469D03*
D16*
X38030076Y-50777469D03*
X37030152Y-50777545D03*
D14*
X30855076Y-16502469D03*
X37955076Y-23092469D03*
D16*
X37530152Y-50327545D03*
X39530076Y-50327469D03*
D14*
X30855076Y-12702469D03*
X30855076Y-20327469D03*
D16*
X35530152Y-50327545D03*
X42160076Y-47642469D03*
D14*
X45780076Y-19032469D03*
D16*
X34530152Y-50327545D03*
D14*
X30844071Y-24139884D03*
X44490076Y-10177469D03*
D16*
X40530076Y-50327469D03*
D14*
X30855076Y-22877469D03*
D16*
X35030152Y-50777545D03*
D14*
X45781529Y-15222726D03*
D16*
X38740076Y-47582469D03*
X33530152Y-50327545D03*
D14*
X30370076Y-26542469D03*
D16*
X39350076Y-47842469D03*
D14*
X45781529Y-16491579D03*
D16*
X36530152Y-50327545D03*
D14*
X30855076Y-17802469D03*
X30880076Y-19052469D03*
D16*
X36030152Y-50777545D03*
X43180076Y-45636010D03*
D15*
X18840076Y-54352469D03*
D16*
X40570076Y-43682469D03*
D15*
X21370076Y-57662469D03*
X11680076Y-49522469D03*
X13750076Y-54362469D03*
X13750076Y-50642469D03*
D16*
X40560076Y-45642469D03*
D15*
X16290076Y-57662469D03*
D16*
X43943803Y-44352469D03*
D14*
X23610076Y-63812469D03*
X15070076Y-62082469D03*
X18010076Y-65412469D03*
X23910076Y-65412469D03*
X19320076Y-44362469D03*
X29490076Y-44932469D03*
D16*
X41270076Y-46282469D03*
D15*
X9130076Y-49522469D03*
X11210076Y-57672469D03*
X11210076Y-53932469D03*
D14*
X16770076Y-44352469D03*
X8000076Y-54772469D03*
X49580076Y-24912469D03*
X43990076Y-22892469D03*
X49590076Y-22992469D03*
X43990076Y-21892469D03*
X43990076Y-23892469D03*
X49580076Y-26802469D03*
X67529720Y-12952469D03*
X63254720Y-12952469D03*
X44960076Y-20862469D03*
X50020076Y-21492469D03*
X43820076Y-19682469D03*
X50570076Y-20892469D03*
X49300076Y-43072469D03*
X44590076Y-13162469D03*
X54740076Y-21322469D03*
X53090076Y-10962469D03*
X59740076Y-12002469D03*
X44380076Y-20282469D03*
X48120076Y-43052469D03*
X54810076Y-12652469D03*
X49480076Y-20892469D03*
X56440076Y-17722469D03*
X63258956Y-14618023D03*
X40360076Y-35172469D03*
X46790076Y-46322469D03*
X67535076Y-14593107D03*
X67534720Y-12112469D03*
X50380076Y-14902469D03*
X61010076Y-15282469D03*
X55570076Y-13422469D03*
X63259720Y-12112469D03*
X63259049Y-13753546D03*
X67534049Y-13753546D03*
G04 #@! TA.AperFunction,Conductor*
G36*
X21022539Y-250185D02*
G01*
X21068294Y-302989D01*
X21079500Y-354500D01*
X21079500Y-6399883D01*
X21085455Y-6414259D01*
X21110024Y-6473574D01*
X21166426Y-6529976D01*
X21240118Y-6560500D01*
X21240120Y-6560500D01*
X55319880Y-6560500D01*
X55319882Y-6560500D01*
X55393574Y-6529976D01*
X55449976Y-6473574D01*
X55480500Y-6399882D01*
X55480500Y-6103412D01*
X58389576Y-6103412D01*
X58389576Y-6261526D01*
X58426649Y-6399882D01*
X58430499Y-6414252D01*
X58430502Y-6414259D01*
X58509551Y-6551178D01*
X58509555Y-6551183D01*
X58509556Y-6551185D01*
X58621360Y-6662989D01*
X58621362Y-6662990D01*
X58621366Y-6662993D01*
X58758285Y-6742042D01*
X58758292Y-6742046D01*
X58911019Y-6782969D01*
X58911021Y-6782969D01*
X59069131Y-6782969D01*
X59069133Y-6782969D01*
X59221860Y-6742046D01*
X59358792Y-6662989D01*
X59470596Y-6551185D01*
X59549653Y-6414253D01*
X59590576Y-6261526D01*
X59590576Y-6103412D01*
X59549653Y-5950685D01*
X59549649Y-5950678D01*
X59470600Y-5813759D01*
X59470594Y-5813751D01*
X59358793Y-5701950D01*
X59358785Y-5701944D01*
X59221866Y-5622895D01*
X59221862Y-5622893D01*
X59221860Y-5622892D01*
X59069133Y-5581969D01*
X58911019Y-5581969D01*
X58758292Y-5622892D01*
X58758285Y-5622895D01*
X58621366Y-5701944D01*
X58621358Y-5701950D01*
X58509557Y-5813751D01*
X58509551Y-5813759D01*
X58430502Y-5950678D01*
X58430499Y-5950685D01*
X58389576Y-6103412D01*
X55480500Y-6103412D01*
X55480500Y-4783412D01*
X59459576Y-4783412D01*
X59459576Y-4941526D01*
X59497820Y-5084252D01*
X59500499Y-5094252D01*
X59500502Y-5094259D01*
X59579551Y-5231178D01*
X59579555Y-5231183D01*
X59579556Y-5231185D01*
X59691360Y-5342989D01*
X59691362Y-5342990D01*
X59691366Y-5342993D01*
X59810971Y-5412046D01*
X59828292Y-5422046D01*
X59981019Y-5462969D01*
X59981021Y-5462969D01*
X60139131Y-5462969D01*
X60139133Y-5462969D01*
X60291860Y-5422046D01*
X60428792Y-5342989D01*
X60540596Y-5231185D01*
X60619653Y-5094253D01*
X60660576Y-4941526D01*
X60660576Y-4783412D01*
X60657897Y-4773412D01*
X64559576Y-4773412D01*
X64559576Y-4931526D01*
X64597820Y-5074252D01*
X64600499Y-5084252D01*
X64600502Y-5084259D01*
X64679551Y-5221178D01*
X64679555Y-5221183D01*
X64679556Y-5221185D01*
X64791360Y-5332989D01*
X64791362Y-5332990D01*
X64791366Y-5332993D01*
X64910971Y-5402046D01*
X64928292Y-5412046D01*
X65081019Y-5452969D01*
X65081021Y-5452969D01*
X65239131Y-5452969D01*
X65239133Y-5452969D01*
X65391860Y-5412046D01*
X65528792Y-5332989D01*
X65640596Y-5221185D01*
X65719653Y-5084253D01*
X65760576Y-4931526D01*
X65760576Y-4773412D01*
X65757897Y-4763412D01*
X69719576Y-4763412D01*
X69719576Y-4921526D01*
X69724935Y-4941524D01*
X69760499Y-5074252D01*
X69760502Y-5074259D01*
X69839551Y-5211178D01*
X69839555Y-5211183D01*
X69839556Y-5211185D01*
X69951360Y-5322989D01*
X69951362Y-5322990D01*
X69951366Y-5322993D01*
X69986001Y-5342989D01*
X70088292Y-5402046D01*
X70241019Y-5442969D01*
X70241021Y-5442969D01*
X70399131Y-5442969D01*
X70399133Y-5442969D01*
X70551860Y-5402046D01*
X70688792Y-5322989D01*
X70800596Y-5211185D01*
X70879653Y-5074253D01*
X70920576Y-4921526D01*
X70920576Y-4763412D01*
X70879653Y-4610685D01*
X70879649Y-4610678D01*
X70800600Y-4473759D01*
X70800594Y-4473751D01*
X70688793Y-4361950D01*
X70688785Y-4361944D01*
X70551866Y-4282895D01*
X70551862Y-4282893D01*
X70551860Y-4282892D01*
X70399133Y-4241969D01*
X70241019Y-4241969D01*
X70088292Y-4282892D01*
X70088285Y-4282895D01*
X69951366Y-4361944D01*
X69951358Y-4361950D01*
X69839557Y-4473751D01*
X69839551Y-4473759D01*
X69760502Y-4610678D01*
X69760499Y-4610685D01*
X69719576Y-4763412D01*
X65757897Y-4763412D01*
X65719653Y-4620685D01*
X65646373Y-4493759D01*
X65640600Y-4483759D01*
X65640594Y-4483751D01*
X65528793Y-4371950D01*
X65528785Y-4371944D01*
X65391866Y-4292895D01*
X65391862Y-4292893D01*
X65391860Y-4292892D01*
X65239133Y-4251969D01*
X65081019Y-4251969D01*
X64928292Y-4292892D01*
X64928285Y-4292895D01*
X64791366Y-4371944D01*
X64791358Y-4371950D01*
X64679557Y-4483751D01*
X64679551Y-4483759D01*
X64600502Y-4620678D01*
X64600499Y-4620685D01*
X64559576Y-4773412D01*
X60657897Y-4773412D01*
X60619653Y-4630685D01*
X60608102Y-4610678D01*
X60540600Y-4493759D01*
X60540594Y-4493751D01*
X60428793Y-4381950D01*
X60428785Y-4381944D01*
X60291866Y-4302895D01*
X60291862Y-4302893D01*
X60291860Y-4302892D01*
X60139133Y-4261969D01*
X59981019Y-4261969D01*
X59828292Y-4302892D01*
X59828285Y-4302895D01*
X59691366Y-4381944D01*
X59691358Y-4381950D01*
X59579557Y-4493751D01*
X59579551Y-4493759D01*
X59500502Y-4630678D01*
X59500499Y-4630685D01*
X59459576Y-4783412D01*
X55480500Y-4783412D01*
X55480500Y-2354995D01*
X61692000Y-2354995D01*
X61718919Y-2490322D01*
X61718922Y-2490332D01*
X61771722Y-2617804D01*
X61771729Y-2617817D01*
X61848386Y-2732541D01*
X61848389Y-2732545D01*
X61945955Y-2830111D01*
X61945959Y-2830114D01*
X62060683Y-2906771D01*
X62060696Y-2906778D01*
X62188168Y-2959578D01*
X62188173Y-2959580D01*
X62188177Y-2959580D01*
X62188178Y-2959581D01*
X62323505Y-2986500D01*
X62323508Y-2986500D01*
X62461496Y-2986500D01*
X62552542Y-2968389D01*
X62596829Y-2959580D01*
X62724312Y-2906775D01*
X62839043Y-2830114D01*
X62936615Y-2732542D01*
X63013276Y-2617811D01*
X63066081Y-2490328D01*
X63093001Y-2354995D01*
X64232000Y-2354995D01*
X64258919Y-2490322D01*
X64258922Y-2490332D01*
X64311722Y-2617804D01*
X64311729Y-2617817D01*
X64388386Y-2732541D01*
X64388389Y-2732545D01*
X64485955Y-2830111D01*
X64485959Y-2830114D01*
X64600683Y-2906771D01*
X64600696Y-2906778D01*
X64728168Y-2959578D01*
X64728173Y-2959580D01*
X64728177Y-2959580D01*
X64728178Y-2959581D01*
X64863505Y-2986500D01*
X64863508Y-2986500D01*
X65001496Y-2986500D01*
X65092542Y-2968389D01*
X65136829Y-2959580D01*
X65264312Y-2906775D01*
X65379043Y-2830114D01*
X65476615Y-2732542D01*
X65553276Y-2617811D01*
X65606081Y-2490328D01*
X65633001Y-2354993D01*
X65633001Y-2217007D01*
X65633001Y-2217004D01*
X65606082Y-2081677D01*
X65606081Y-2081676D01*
X65606081Y-2081672D01*
X65583003Y-2025956D01*
X65553279Y-1954195D01*
X65553272Y-1954182D01*
X65476615Y-1839458D01*
X65476612Y-1839454D01*
X65379046Y-1741888D01*
X65379042Y-1741885D01*
X65264318Y-1665228D01*
X65264305Y-1665221D01*
X65136833Y-1612421D01*
X65136823Y-1612418D01*
X65001496Y-1585500D01*
X65001494Y-1585500D01*
X64863508Y-1585500D01*
X64863506Y-1585500D01*
X64728178Y-1612418D01*
X64728168Y-1612421D01*
X64600696Y-1665221D01*
X64600683Y-1665228D01*
X64485959Y-1741885D01*
X64485955Y-1741888D01*
X64388389Y-1839454D01*
X64388386Y-1839458D01*
X64311729Y-1954182D01*
X64311722Y-1954195D01*
X64258922Y-2081667D01*
X64258919Y-2081677D01*
X64232001Y-2217004D01*
X64232001Y-2217007D01*
X64232001Y-2354993D01*
X64232001Y-2354995D01*
X64232000Y-2354995D01*
X63093001Y-2354995D01*
X63093001Y-2354993D01*
X63093001Y-2217007D01*
X63093001Y-2217004D01*
X63066082Y-2081677D01*
X63066081Y-2081676D01*
X63066081Y-2081672D01*
X63043003Y-2025956D01*
X63013279Y-1954195D01*
X63013272Y-1954182D01*
X62936615Y-1839458D01*
X62936612Y-1839454D01*
X62839046Y-1741888D01*
X62839042Y-1741885D01*
X62724318Y-1665228D01*
X62724305Y-1665221D01*
X62596833Y-1612421D01*
X62596823Y-1612418D01*
X62461496Y-1585500D01*
X62461494Y-1585500D01*
X62323508Y-1585500D01*
X62323506Y-1585500D01*
X62188178Y-1612418D01*
X62188168Y-1612421D01*
X62060696Y-1665221D01*
X62060683Y-1665228D01*
X61945959Y-1741885D01*
X61945955Y-1741888D01*
X61848389Y-1839454D01*
X61848386Y-1839458D01*
X61771729Y-1954182D01*
X61771722Y-1954195D01*
X61718922Y-2081667D01*
X61718919Y-2081677D01*
X61692001Y-2217004D01*
X61692001Y-2217007D01*
X61692001Y-2354993D01*
X61692001Y-2354995D01*
X61692000Y-2354995D01*
X55480500Y-2354995D01*
X55480500Y-354500D01*
X55500185Y-287461D01*
X55552989Y-241706D01*
X55604500Y-230500D01*
X74510118Y-230500D01*
X74545933Y-230500D01*
X74554043Y-230765D01*
X74776790Y-245364D01*
X74792848Y-247479D01*
X74978875Y-284482D01*
X75007771Y-290230D01*
X75023438Y-294428D01*
X75176569Y-346409D01*
X75230944Y-364867D01*
X75245921Y-371070D01*
X75436791Y-465196D01*
X75442460Y-467992D01*
X75456508Y-476102D01*
X75638712Y-597848D01*
X75651573Y-607716D01*
X75756495Y-699730D01*
X75816328Y-752202D01*
X75827797Y-763671D01*
X75938160Y-889517D01*
X75972280Y-928423D01*
X75982154Y-941291D01*
X76103897Y-1123492D01*
X76112007Y-1137539D01*
X76208926Y-1334071D01*
X76215133Y-1349057D01*
X76285571Y-1556561D01*
X76289769Y-1572228D01*
X76332518Y-1787140D01*
X76334636Y-1803221D01*
X76349235Y-2025956D01*
X76349500Y-2034066D01*
X76349500Y-20975500D01*
X76329815Y-21042539D01*
X76277011Y-21088294D01*
X76225500Y-21099500D01*
X70155116Y-21099500D01*
X70081425Y-21130024D01*
X70025024Y-21186425D01*
X69994500Y-21260116D01*
X69994500Y-21260118D01*
X69994500Y-55260118D01*
X69994500Y-55339882D01*
X70025024Y-55413574D01*
X70081426Y-55469976D01*
X70155118Y-55500500D01*
X76225500Y-55500500D01*
X76292539Y-55520185D01*
X76338294Y-55572989D01*
X76349500Y-55624500D01*
X76349500Y-74565933D01*
X76349235Y-74574043D01*
X76334636Y-74796778D01*
X76332518Y-74812859D01*
X76289769Y-75027771D01*
X76285571Y-75043438D01*
X76215133Y-75250942D01*
X76208926Y-75265928D01*
X76112007Y-75462460D01*
X76103897Y-75476507D01*
X75982154Y-75658708D01*
X75972280Y-75671576D01*
X75827797Y-75836328D01*
X75816328Y-75847797D01*
X75651576Y-75992280D01*
X75638708Y-76002154D01*
X75456507Y-76123897D01*
X75442460Y-76132007D01*
X75245928Y-76228926D01*
X75230942Y-76235133D01*
X75023438Y-76305571D01*
X75007771Y-76309769D01*
X74792859Y-76352518D01*
X74776778Y-76354636D01*
X74554043Y-76369235D01*
X74545933Y-76369500D01*
X55604500Y-76369500D01*
X55537461Y-76349815D01*
X55491706Y-76297011D01*
X55480500Y-76245500D01*
X55480500Y-74352995D01*
X61751997Y-74352995D01*
X61778916Y-74488322D01*
X61778919Y-74488332D01*
X61831719Y-74615804D01*
X61831726Y-74615817D01*
X61908383Y-74730541D01*
X61908386Y-74730545D01*
X62005952Y-74828111D01*
X62005956Y-74828114D01*
X62120680Y-74904771D01*
X62120693Y-74904778D01*
X62248165Y-74957578D01*
X62248170Y-74957580D01*
X62248174Y-74957580D01*
X62248175Y-74957581D01*
X62383502Y-74984500D01*
X62383505Y-74984500D01*
X62521493Y-74984500D01*
X62612539Y-74966389D01*
X62656826Y-74957580D01*
X62784309Y-74904775D01*
X62899040Y-74828114D01*
X62996612Y-74730542D01*
X63073273Y-74615811D01*
X63126078Y-74488328D01*
X63152998Y-74352995D01*
X64291999Y-74352995D01*
X64318918Y-74488322D01*
X64318921Y-74488332D01*
X64371721Y-74615804D01*
X64371728Y-74615817D01*
X64448385Y-74730541D01*
X64448388Y-74730545D01*
X64545954Y-74828111D01*
X64545958Y-74828114D01*
X64660682Y-74904771D01*
X64660695Y-74904778D01*
X64788167Y-74957578D01*
X64788172Y-74957580D01*
X64788176Y-74957580D01*
X64788177Y-74957581D01*
X64923504Y-74984500D01*
X64923507Y-74984500D01*
X65061495Y-74984500D01*
X65152541Y-74966389D01*
X65196828Y-74957580D01*
X65324311Y-74904775D01*
X65439042Y-74828114D01*
X65536614Y-74730542D01*
X65613275Y-74615811D01*
X65666080Y-74488328D01*
X65693000Y-74352993D01*
X65693000Y-74215007D01*
X65693000Y-74215004D01*
X65666081Y-74079677D01*
X65666080Y-74079676D01*
X65666080Y-74079672D01*
X65666078Y-74079667D01*
X65613278Y-73952195D01*
X65613271Y-73952182D01*
X65536614Y-73837458D01*
X65536611Y-73837454D01*
X65439045Y-73739888D01*
X65439041Y-73739885D01*
X65324317Y-73663228D01*
X65324304Y-73663221D01*
X65196832Y-73610421D01*
X65196822Y-73610418D01*
X65061495Y-73583500D01*
X65061493Y-73583500D01*
X64923507Y-73583500D01*
X64923505Y-73583500D01*
X64788177Y-73610418D01*
X64788167Y-73610421D01*
X64660695Y-73663221D01*
X64660682Y-73663228D01*
X64545958Y-73739885D01*
X64545954Y-73739888D01*
X64448388Y-73837454D01*
X64448385Y-73837458D01*
X64371728Y-73952182D01*
X64371721Y-73952195D01*
X64318921Y-74079667D01*
X64318918Y-74079677D01*
X64292000Y-74215004D01*
X64292000Y-74215007D01*
X64292000Y-74352993D01*
X64292000Y-74352995D01*
X64291999Y-74352995D01*
X63152998Y-74352995D01*
X63152998Y-74352993D01*
X63152998Y-74215007D01*
X63152998Y-74215004D01*
X63126079Y-74079677D01*
X63126078Y-74079676D01*
X63126078Y-74079672D01*
X63126076Y-74079667D01*
X63073276Y-73952195D01*
X63073269Y-73952182D01*
X62996612Y-73837458D01*
X62996609Y-73837454D01*
X62899043Y-73739888D01*
X62899039Y-73739885D01*
X62784315Y-73663228D01*
X62784302Y-73663221D01*
X62656830Y-73610421D01*
X62656820Y-73610418D01*
X62521493Y-73583500D01*
X62521491Y-73583500D01*
X62383505Y-73583500D01*
X62383503Y-73583500D01*
X62248175Y-73610418D01*
X62248165Y-73610421D01*
X62120693Y-73663221D01*
X62120680Y-73663228D01*
X62005956Y-73739885D01*
X62005952Y-73739888D01*
X61908386Y-73837454D01*
X61908383Y-73837458D01*
X61831726Y-73952182D01*
X61831719Y-73952195D01*
X61778919Y-74079667D01*
X61778916Y-74079677D01*
X61751998Y-74215004D01*
X61751998Y-74215007D01*
X61751998Y-74352993D01*
X61751998Y-74352995D01*
X61751997Y-74352995D01*
X55480500Y-74352995D01*
X55480500Y-70175119D01*
X55480499Y-70175116D01*
X55457131Y-70118700D01*
X55449976Y-70101426D01*
X55393574Y-70045024D01*
X55385337Y-70041612D01*
X55319883Y-70014500D01*
X55319882Y-70014500D01*
X21319882Y-70014500D01*
X21240118Y-70014500D01*
X21240116Y-70014500D01*
X21166425Y-70045024D01*
X21110024Y-70101425D01*
X21079500Y-70175116D01*
X21079500Y-76245500D01*
X21059815Y-76312539D01*
X21007011Y-76358294D01*
X20955500Y-76369500D01*
X2014067Y-76369500D01*
X2005957Y-76369235D01*
X1783221Y-76354636D01*
X1767140Y-76352518D01*
X1552228Y-76309769D01*
X1536561Y-76305571D01*
X1329057Y-76235133D01*
X1314071Y-76228926D01*
X1117539Y-76132007D01*
X1103492Y-76123897D01*
X921291Y-76002154D01*
X908423Y-75992280D01*
X743671Y-75847797D01*
X732202Y-75836328D01*
X679730Y-75776495D01*
X587716Y-75671573D01*
X577845Y-75658708D01*
X456102Y-75476507D01*
X447992Y-75462460D01*
X445196Y-75456791D01*
X351070Y-75265921D01*
X344866Y-75250942D01*
X274428Y-75043438D01*
X270230Y-75027771D01*
X245765Y-74904778D01*
X227479Y-74812848D01*
X225364Y-74796790D01*
X210765Y-74574043D01*
X210500Y-74565933D01*
X210500Y-74352995D01*
X10951998Y-74352995D01*
X10978917Y-74488322D01*
X10978920Y-74488332D01*
X11031720Y-74615804D01*
X11031727Y-74615817D01*
X11108384Y-74730541D01*
X11108387Y-74730545D01*
X11205953Y-74828111D01*
X11205957Y-74828114D01*
X11320681Y-74904771D01*
X11320694Y-74904778D01*
X11448166Y-74957578D01*
X11448171Y-74957580D01*
X11448175Y-74957580D01*
X11448176Y-74957581D01*
X11583503Y-74984500D01*
X11583506Y-74984500D01*
X11721494Y-74984500D01*
X11812540Y-74966389D01*
X11856827Y-74957580D01*
X11984310Y-74904775D01*
X12099041Y-74828114D01*
X12196613Y-74730542D01*
X12273274Y-74615811D01*
X12326079Y-74488328D01*
X12352999Y-74352995D01*
X13491998Y-74352995D01*
X13518917Y-74488322D01*
X13518920Y-74488332D01*
X13571720Y-74615804D01*
X13571727Y-74615817D01*
X13648384Y-74730541D01*
X13648387Y-74730545D01*
X13745953Y-74828111D01*
X13745957Y-74828114D01*
X13860681Y-74904771D01*
X13860694Y-74904778D01*
X13988166Y-74957578D01*
X13988171Y-74957580D01*
X13988175Y-74957580D01*
X13988176Y-74957581D01*
X14123503Y-74984500D01*
X14123506Y-74984500D01*
X14261494Y-74984500D01*
X14352540Y-74966389D01*
X14396827Y-74957580D01*
X14524310Y-74904775D01*
X14639041Y-74828114D01*
X14736613Y-74730542D01*
X14813274Y-74615811D01*
X14866079Y-74488328D01*
X14892999Y-74352993D01*
X14892999Y-74215007D01*
X14892999Y-74215004D01*
X14866080Y-74079677D01*
X14866079Y-74079676D01*
X14866079Y-74079672D01*
X14866077Y-74079667D01*
X14813277Y-73952195D01*
X14813270Y-73952182D01*
X14736613Y-73837458D01*
X14736610Y-73837454D01*
X14639044Y-73739888D01*
X14639040Y-73739885D01*
X14524316Y-73663228D01*
X14524303Y-73663221D01*
X14396831Y-73610421D01*
X14396821Y-73610418D01*
X14261494Y-73583500D01*
X14261492Y-73583500D01*
X14123506Y-73583500D01*
X14123504Y-73583500D01*
X13988176Y-73610418D01*
X13988166Y-73610421D01*
X13860694Y-73663221D01*
X13860681Y-73663228D01*
X13745957Y-73739885D01*
X13745953Y-73739888D01*
X13648387Y-73837454D01*
X13648384Y-73837458D01*
X13571727Y-73952182D01*
X13571720Y-73952195D01*
X13518920Y-74079667D01*
X13518917Y-74079677D01*
X13491999Y-74215004D01*
X13491999Y-74215007D01*
X13491999Y-74352993D01*
X13491999Y-74352995D01*
X13491998Y-74352995D01*
X12352999Y-74352995D01*
X12352999Y-74352993D01*
X12352999Y-74215007D01*
X12352999Y-74215004D01*
X12326080Y-74079677D01*
X12326079Y-74079676D01*
X12326079Y-74079672D01*
X12326077Y-74079667D01*
X12273277Y-73952195D01*
X12273270Y-73952182D01*
X12196613Y-73837458D01*
X12196610Y-73837454D01*
X12099044Y-73739888D01*
X12099040Y-73739885D01*
X11984316Y-73663228D01*
X11984303Y-73663221D01*
X11856831Y-73610421D01*
X11856821Y-73610418D01*
X11721494Y-73583500D01*
X11721492Y-73583500D01*
X11583506Y-73583500D01*
X11583504Y-73583500D01*
X11448176Y-73610418D01*
X11448166Y-73610421D01*
X11320694Y-73663221D01*
X11320681Y-73663228D01*
X11205957Y-73739885D01*
X11205953Y-73739888D01*
X11108387Y-73837454D01*
X11108384Y-73837458D01*
X11031727Y-73952182D01*
X11031720Y-73952195D01*
X10978920Y-74079667D01*
X10978917Y-74079677D01*
X10951999Y-74215004D01*
X10951999Y-74215007D01*
X10951999Y-74352993D01*
X10951999Y-74352995D01*
X10951998Y-74352995D01*
X210500Y-74352995D01*
X210500Y-69559124D01*
X60753548Y-69559124D01*
X60753548Y-69717237D01*
X60794471Y-69869964D01*
X60794474Y-69869971D01*
X60873523Y-70006890D01*
X60873527Y-70006895D01*
X60873528Y-70006897D01*
X60985332Y-70118701D01*
X60985334Y-70118702D01*
X60985338Y-70118705D01*
X61122257Y-70197754D01*
X61122264Y-70197758D01*
X61274991Y-70238681D01*
X61274993Y-70238681D01*
X61433103Y-70238681D01*
X61433105Y-70238681D01*
X61585832Y-70197758D01*
X61722764Y-70118701D01*
X61766367Y-70075097D01*
X61827688Y-70041613D01*
X61897379Y-70046597D01*
X61941728Y-70075098D01*
X61985331Y-70118701D01*
X61985333Y-70118702D01*
X61985337Y-70118705D01*
X62122256Y-70197754D01*
X62122263Y-70197758D01*
X62274990Y-70238681D01*
X62274992Y-70238681D01*
X62433102Y-70238681D01*
X62433104Y-70238681D01*
X62585831Y-70197758D01*
X62722763Y-70118701D01*
X62766366Y-70075098D01*
X62827689Y-70041613D01*
X62897381Y-70046597D01*
X62941728Y-70075098D01*
X62985331Y-70118701D01*
X62985333Y-70118702D01*
X62985337Y-70118705D01*
X63122256Y-70197754D01*
X63122263Y-70197758D01*
X63274990Y-70238681D01*
X63274992Y-70238681D01*
X63433102Y-70238681D01*
X63433104Y-70238681D01*
X63585831Y-70197758D01*
X63722763Y-70118701D01*
X63766366Y-70075098D01*
X63827689Y-70041613D01*
X63897381Y-70046597D01*
X63941728Y-70075098D01*
X63985331Y-70118701D01*
X63985333Y-70118702D01*
X63985337Y-70118705D01*
X64122256Y-70197754D01*
X64122263Y-70197758D01*
X64274990Y-70238681D01*
X64274992Y-70238681D01*
X64433102Y-70238681D01*
X64433104Y-70238681D01*
X64585831Y-70197758D01*
X64722763Y-70118701D01*
X64766367Y-70075096D01*
X64827688Y-70041612D01*
X64897379Y-70046596D01*
X64941728Y-70075097D01*
X64985332Y-70118701D01*
X64985334Y-70118702D01*
X64985338Y-70118705D01*
X65122257Y-70197754D01*
X65122264Y-70197758D01*
X65274991Y-70238681D01*
X65274993Y-70238681D01*
X65433103Y-70238681D01*
X65433105Y-70238681D01*
X65585832Y-70197758D01*
X65722764Y-70118701D01*
X65834568Y-70006897D01*
X65913625Y-69869965D01*
X65954548Y-69717238D01*
X65954548Y-69559124D01*
X65913625Y-69406397D01*
X65900099Y-69382969D01*
X65834572Y-69269471D01*
X65834566Y-69269463D01*
X65722765Y-69157662D01*
X65722757Y-69157656D01*
X65585838Y-69078607D01*
X65585834Y-69078605D01*
X65585832Y-69078604D01*
X65433105Y-69037681D01*
X65274991Y-69037681D01*
X65122264Y-69078604D01*
X65122257Y-69078607D01*
X64985338Y-69157656D01*
X64985330Y-69157662D01*
X64941727Y-69201265D01*
X64880404Y-69234749D01*
X64810712Y-69229764D01*
X64766366Y-69201264D01*
X64722764Y-69157662D01*
X64722756Y-69157656D01*
X64585837Y-69078607D01*
X64585833Y-69078605D01*
X64585831Y-69078604D01*
X64433104Y-69037681D01*
X64274990Y-69037681D01*
X64122263Y-69078604D01*
X64122256Y-69078607D01*
X63985337Y-69157656D01*
X63985329Y-69157662D01*
X63941728Y-69201264D01*
X63880405Y-69234749D01*
X63810713Y-69229765D01*
X63766366Y-69201264D01*
X63722764Y-69157662D01*
X63722756Y-69157656D01*
X63585837Y-69078607D01*
X63585833Y-69078605D01*
X63585831Y-69078604D01*
X63433104Y-69037681D01*
X63274990Y-69037681D01*
X63122263Y-69078604D01*
X63122256Y-69078607D01*
X62985337Y-69157656D01*
X62985329Y-69157662D01*
X62941728Y-69201264D01*
X62880405Y-69234749D01*
X62810713Y-69229765D01*
X62766366Y-69201264D01*
X62722764Y-69157662D01*
X62722756Y-69157656D01*
X62585837Y-69078607D01*
X62585833Y-69078605D01*
X62585831Y-69078604D01*
X62433104Y-69037681D01*
X62274990Y-69037681D01*
X62122263Y-69078604D01*
X62122256Y-69078607D01*
X61985337Y-69157656D01*
X61985329Y-69157662D01*
X61941727Y-69201264D01*
X61880404Y-69234748D01*
X61810712Y-69229763D01*
X61766366Y-69201263D01*
X61722765Y-69157662D01*
X61722757Y-69157656D01*
X61585838Y-69078607D01*
X61585834Y-69078605D01*
X61585832Y-69078604D01*
X61433105Y-69037681D01*
X61274991Y-69037681D01*
X61122264Y-69078604D01*
X61122257Y-69078607D01*
X60985338Y-69157656D01*
X60985330Y-69157662D01*
X60873529Y-69269463D01*
X60873523Y-69269471D01*
X60794474Y-69406390D01*
X60794471Y-69406397D01*
X60753548Y-69559124D01*
X210500Y-69559124D01*
X210500Y-68816577D01*
X13259576Y-68816577D01*
X13259576Y-68948360D01*
X13293684Y-69075656D01*
X13295388Y-69078607D01*
X13359576Y-69189783D01*
X13452762Y-69282969D01*
X13566890Y-69348861D01*
X13694184Y-69382969D01*
X13694186Y-69382969D01*
X13825966Y-69382969D01*
X13825968Y-69382969D01*
X13953262Y-69348861D01*
X14067390Y-69282969D01*
X14160576Y-69189783D01*
X14226468Y-69075655D01*
X14260576Y-68948361D01*
X14260576Y-68816577D01*
X14226468Y-68689283D01*
X14160576Y-68575155D01*
X14067390Y-68481969D01*
X14010326Y-68449023D01*
X13953263Y-68416077D01*
X13889615Y-68399023D01*
X13825968Y-68381969D01*
X13694184Y-68381969D01*
X13566888Y-68416077D01*
X13452762Y-68481969D01*
X13452759Y-68481971D01*
X13359578Y-68575152D01*
X13359576Y-68575155D01*
X13293684Y-68689281D01*
X13259576Y-68816577D01*
X210500Y-68816577D01*
X210500Y-68036577D01*
X10689576Y-68036577D01*
X10689576Y-68168360D01*
X10723684Y-68295656D01*
X10756630Y-68352719D01*
X10789576Y-68409783D01*
X10882762Y-68502969D01*
X10996890Y-68568861D01*
X11124184Y-68602969D01*
X11124186Y-68602969D01*
X11255966Y-68602969D01*
X11255968Y-68602969D01*
X11383262Y-68568861D01*
X11497390Y-68502969D01*
X11590576Y-68409783D01*
X11656468Y-68295655D01*
X11690576Y-68168361D01*
X11690576Y-68036577D01*
X11656468Y-67909283D01*
X11590576Y-67795155D01*
X11497390Y-67701969D01*
X11440326Y-67669023D01*
X11383263Y-67636077D01*
X11319615Y-67619023D01*
X11255968Y-67601969D01*
X11124184Y-67601969D01*
X10996888Y-67636077D01*
X10882762Y-67701969D01*
X10882759Y-67701971D01*
X10789578Y-67795152D01*
X10789576Y-67795155D01*
X10723684Y-67909281D01*
X10689576Y-68036577D01*
X210500Y-68036577D01*
X210500Y-66726577D01*
X55669576Y-66726577D01*
X55669576Y-66858360D01*
X55703684Y-66985656D01*
X55736630Y-67042719D01*
X55769576Y-67099783D01*
X55862762Y-67192969D01*
X55976890Y-67258861D01*
X56104184Y-67292969D01*
X56104186Y-67292969D01*
X56235966Y-67292969D01*
X56235968Y-67292969D01*
X56363262Y-67258861D01*
X56477390Y-67192969D01*
X56570576Y-67099783D01*
X56636468Y-66985655D01*
X56670576Y-66858361D01*
X56670576Y-66726577D01*
X56636468Y-66599283D01*
X56570576Y-66485155D01*
X56477390Y-66391969D01*
X56420326Y-66359023D01*
X56363263Y-66326077D01*
X56299615Y-66309023D01*
X56235968Y-66291969D01*
X56104184Y-66291969D01*
X55976888Y-66326077D01*
X55862762Y-66391969D01*
X55862759Y-66391971D01*
X55769578Y-66485152D01*
X55769576Y-66485155D01*
X55703684Y-66599281D01*
X55669576Y-66726577D01*
X210500Y-66726577D01*
X210500Y-65056495D01*
X1620499Y-65056495D01*
X1647418Y-65191822D01*
X1647421Y-65191832D01*
X1700221Y-65319304D01*
X1700228Y-65319317D01*
X1776885Y-65434041D01*
X1776888Y-65434045D01*
X1874454Y-65531611D01*
X1874458Y-65531614D01*
X1989182Y-65608271D01*
X1989195Y-65608278D01*
X2116667Y-65661078D01*
X2116672Y-65661080D01*
X2116676Y-65661080D01*
X2116677Y-65661081D01*
X2252004Y-65688000D01*
X2252007Y-65688000D01*
X2389995Y-65688000D01*
X2481041Y-65669889D01*
X2525328Y-65661080D01*
X2652811Y-65608275D01*
X2767542Y-65531614D01*
X2865114Y-65434042D01*
X2923556Y-65346577D01*
X17509576Y-65346577D01*
X17509576Y-65478360D01*
X17543684Y-65605656D01*
X17545198Y-65608278D01*
X17609576Y-65719783D01*
X17702762Y-65812969D01*
X17816890Y-65878861D01*
X17944184Y-65912969D01*
X17944186Y-65912969D01*
X18075966Y-65912969D01*
X18075968Y-65912969D01*
X18203262Y-65878861D01*
X18317390Y-65812969D01*
X18410576Y-65719783D01*
X18476468Y-65605655D01*
X18510576Y-65478361D01*
X18510576Y-65346577D01*
X23409576Y-65346577D01*
X23409576Y-65478360D01*
X23443684Y-65605656D01*
X23445198Y-65608278D01*
X23509576Y-65719783D01*
X23602762Y-65812969D01*
X23716890Y-65878861D01*
X23844184Y-65912969D01*
X23844186Y-65912969D01*
X23975966Y-65912969D01*
X23975968Y-65912969D01*
X24103262Y-65878861D01*
X24217390Y-65812969D01*
X24310576Y-65719783D01*
X24376468Y-65605655D01*
X24410576Y-65478361D01*
X24410576Y-65346577D01*
X24376468Y-65219283D01*
X24310576Y-65105155D01*
X24217390Y-65011969D01*
X24217388Y-65011968D01*
X24217386Y-65011966D01*
X24190589Y-64996495D01*
X73563499Y-64996495D01*
X73590418Y-65131822D01*
X73590421Y-65131832D01*
X73643221Y-65259304D01*
X73643228Y-65259317D01*
X73719885Y-65374041D01*
X73719888Y-65374045D01*
X73817454Y-65471611D01*
X73817458Y-65471614D01*
X73932182Y-65548271D01*
X73932195Y-65548278D01*
X74059667Y-65601078D01*
X74059672Y-65601080D01*
X74059676Y-65601080D01*
X74059677Y-65601081D01*
X74195004Y-65628000D01*
X74195007Y-65628000D01*
X74332995Y-65628000D01*
X74432141Y-65608278D01*
X74468328Y-65601080D01*
X74595811Y-65548275D01*
X74710542Y-65471614D01*
X74808114Y-65374042D01*
X74884775Y-65259311D01*
X74937580Y-65131828D01*
X74952565Y-65056493D01*
X74964500Y-64996495D01*
X74964500Y-64858504D01*
X74937581Y-64723177D01*
X74937580Y-64723176D01*
X74937580Y-64723172D01*
X74937578Y-64723167D01*
X74884778Y-64595695D01*
X74884771Y-64595682D01*
X74808114Y-64480958D01*
X74808111Y-64480954D01*
X74710545Y-64383388D01*
X74710541Y-64383385D01*
X74595817Y-64306728D01*
X74595804Y-64306721D01*
X74468332Y-64253921D01*
X74468322Y-64253918D01*
X74332995Y-64227000D01*
X74332993Y-64227000D01*
X74195007Y-64227000D01*
X74195005Y-64227000D01*
X74059677Y-64253918D01*
X74059667Y-64253921D01*
X73932195Y-64306721D01*
X73932182Y-64306728D01*
X73817458Y-64383385D01*
X73817454Y-64383388D01*
X73719888Y-64480954D01*
X73719885Y-64480958D01*
X73643228Y-64595682D01*
X73643221Y-64595695D01*
X73590421Y-64723167D01*
X73590418Y-64723177D01*
X73563500Y-64858504D01*
X73563500Y-64858507D01*
X73563500Y-64996493D01*
X73563500Y-64996495D01*
X73563499Y-64996495D01*
X24190589Y-64996495D01*
X24127035Y-64959802D01*
X24127034Y-64959802D01*
X24103263Y-64946077D01*
X24000357Y-64918504D01*
X23975968Y-64911969D01*
X23844184Y-64911969D01*
X23716888Y-64946077D01*
X23602762Y-65011969D01*
X23602759Y-65011971D01*
X23509578Y-65105152D01*
X23509576Y-65105155D01*
X23443684Y-65219281D01*
X23409576Y-65346577D01*
X18510576Y-65346577D01*
X18476468Y-65219283D01*
X18410576Y-65105155D01*
X18317390Y-65011969D01*
X18260326Y-64979023D01*
X18203263Y-64946077D01*
X18100357Y-64918504D01*
X18075968Y-64911969D01*
X17944184Y-64911969D01*
X17816888Y-64946077D01*
X17702762Y-65011969D01*
X17702759Y-65011971D01*
X17609578Y-65105152D01*
X17609576Y-65105155D01*
X17543684Y-65219281D01*
X17509576Y-65346577D01*
X2923556Y-65346577D01*
X2941775Y-65319311D01*
X2994580Y-65191828D01*
X3006516Y-65131822D01*
X3021500Y-65056495D01*
X3021500Y-64918504D01*
X2994581Y-64783177D01*
X2994580Y-64783176D01*
X2994580Y-64783172D01*
X2994578Y-64783167D01*
X2941778Y-64655695D01*
X2941771Y-64655682D01*
X2865114Y-64540958D01*
X2865111Y-64540954D01*
X2767545Y-64443388D01*
X2767541Y-64443385D01*
X2652817Y-64366728D01*
X2652804Y-64366721D01*
X2525332Y-64313921D01*
X2525322Y-64313918D01*
X2389995Y-64287000D01*
X2389993Y-64287000D01*
X2252007Y-64287000D01*
X2252005Y-64287000D01*
X2116677Y-64313918D01*
X2116667Y-64313921D01*
X1989195Y-64366721D01*
X1989182Y-64366728D01*
X1874458Y-64443385D01*
X1874454Y-64443388D01*
X1776888Y-64540954D01*
X1776885Y-64540958D01*
X1700228Y-64655682D01*
X1700221Y-64655695D01*
X1647421Y-64783167D01*
X1647418Y-64783177D01*
X1620500Y-64918504D01*
X1620500Y-64918507D01*
X1620500Y-65056493D01*
X1620500Y-65056495D01*
X1620499Y-65056495D01*
X210500Y-65056495D01*
X210500Y-63746577D01*
X23109576Y-63746577D01*
X23109576Y-63878360D01*
X23143684Y-64005656D01*
X23176630Y-64062719D01*
X23209576Y-64119783D01*
X23302762Y-64212969D01*
X23416890Y-64278861D01*
X23544184Y-64312969D01*
X23544186Y-64312969D01*
X23675966Y-64312969D01*
X23675968Y-64312969D01*
X23803262Y-64278861D01*
X23917390Y-64212969D01*
X24010576Y-64119783D01*
X24076468Y-64005655D01*
X24110576Y-63878361D01*
X24110576Y-63746577D01*
X24076468Y-63619283D01*
X24010576Y-63505155D01*
X23917390Y-63411969D01*
X23860326Y-63379023D01*
X23803263Y-63346077D01*
X23739615Y-63329023D01*
X23675968Y-63311969D01*
X23544184Y-63311969D01*
X23416888Y-63346077D01*
X23302762Y-63411969D01*
X23302759Y-63411971D01*
X23209578Y-63505152D01*
X23209576Y-63505155D01*
X23143684Y-63619281D01*
X23109576Y-63746577D01*
X210500Y-63746577D01*
X210500Y-62516495D01*
X1620499Y-62516495D01*
X1647418Y-62651822D01*
X1647421Y-62651832D01*
X1700221Y-62779304D01*
X1700228Y-62779317D01*
X1776885Y-62894041D01*
X1776888Y-62894045D01*
X1874454Y-62991611D01*
X1874458Y-62991614D01*
X1989182Y-63068271D01*
X1989195Y-63068278D01*
X2116667Y-63121078D01*
X2116672Y-63121080D01*
X2116676Y-63121080D01*
X2116677Y-63121081D01*
X2252004Y-63148000D01*
X2252007Y-63148000D01*
X2389995Y-63148000D01*
X2481041Y-63129889D01*
X2525328Y-63121080D01*
X2652811Y-63068275D01*
X2767542Y-62991614D01*
X2865114Y-62894042D01*
X2941775Y-62779311D01*
X2994580Y-62651828D01*
X3021500Y-62516493D01*
X3021500Y-62378507D01*
X3021500Y-62378504D01*
X2994581Y-62243177D01*
X2994580Y-62243176D01*
X2994580Y-62243172D01*
X2994578Y-62243167D01*
X2941778Y-62115695D01*
X2941776Y-62115691D01*
X2941775Y-62115689D01*
X2875550Y-62016577D01*
X14569576Y-62016577D01*
X14569576Y-62148361D01*
X14578905Y-62183177D01*
X14603684Y-62275656D01*
X14628423Y-62318504D01*
X14669576Y-62389783D01*
X14762762Y-62482969D01*
X14876890Y-62548861D01*
X15004184Y-62582969D01*
X15004186Y-62582969D01*
X15135966Y-62582969D01*
X15135968Y-62582969D01*
X15263262Y-62548861D01*
X15377390Y-62482969D01*
X15403864Y-62456495D01*
X73563499Y-62456495D01*
X73590418Y-62591822D01*
X73590421Y-62591832D01*
X73643221Y-62719304D01*
X73643228Y-62719317D01*
X73719885Y-62834041D01*
X73719888Y-62834045D01*
X73817454Y-62931611D01*
X73817458Y-62931614D01*
X73932182Y-63008271D01*
X73932195Y-63008278D01*
X74059667Y-63061078D01*
X74059672Y-63061080D01*
X74059676Y-63061080D01*
X74059677Y-63061081D01*
X74195004Y-63088000D01*
X74195007Y-63088000D01*
X74332995Y-63088000D01*
X74432141Y-63068278D01*
X74468328Y-63061080D01*
X74595811Y-63008275D01*
X74710542Y-62931614D01*
X74808114Y-62834042D01*
X74884775Y-62719311D01*
X74937580Y-62591828D01*
X74964500Y-62456493D01*
X74964500Y-62318507D01*
X74964500Y-62318504D01*
X74937581Y-62183177D01*
X74937580Y-62183176D01*
X74937580Y-62183172D01*
X74923161Y-62148361D01*
X74884778Y-62055695D01*
X74884771Y-62055682D01*
X74808114Y-61940958D01*
X74808111Y-61940954D01*
X74710545Y-61843388D01*
X74710541Y-61843385D01*
X74595817Y-61766728D01*
X74595804Y-61766721D01*
X74468332Y-61713921D01*
X74468322Y-61713918D01*
X74332995Y-61687000D01*
X74332993Y-61687000D01*
X74195007Y-61687000D01*
X74195005Y-61687000D01*
X74059677Y-61713918D01*
X74059667Y-61713921D01*
X73932195Y-61766721D01*
X73932182Y-61766728D01*
X73817458Y-61843385D01*
X73817454Y-61843388D01*
X73719888Y-61940954D01*
X73719885Y-61940958D01*
X73643228Y-62055682D01*
X73643221Y-62055695D01*
X73590421Y-62183167D01*
X73590418Y-62183177D01*
X73563500Y-62318504D01*
X73563500Y-62318507D01*
X73563500Y-62456493D01*
X73563500Y-62456495D01*
X73563499Y-62456495D01*
X15403864Y-62456495D01*
X15470576Y-62389783D01*
X15536468Y-62275655D01*
X15570576Y-62148361D01*
X15570576Y-62016577D01*
X15536468Y-61889283D01*
X15470576Y-61775155D01*
X15377390Y-61681969D01*
X15320326Y-61649023D01*
X15263263Y-61616077D01*
X15199615Y-61599023D01*
X15135968Y-61581969D01*
X15004184Y-61581969D01*
X14876888Y-61616077D01*
X14762762Y-61681969D01*
X14762759Y-61681971D01*
X14669578Y-61775152D01*
X14669576Y-61775155D01*
X14603684Y-61889281D01*
X14589839Y-61940954D01*
X14569576Y-62016577D01*
X2875550Y-62016577D01*
X2865114Y-62000958D01*
X2865111Y-62000954D01*
X2767545Y-61903388D01*
X2767541Y-61903385D01*
X2652817Y-61826728D01*
X2652804Y-61826721D01*
X2525332Y-61773921D01*
X2525322Y-61773918D01*
X2389995Y-61747000D01*
X2389993Y-61747000D01*
X2252007Y-61747000D01*
X2252005Y-61747000D01*
X2116677Y-61773918D01*
X2116667Y-61773921D01*
X1989195Y-61826721D01*
X1989182Y-61826728D01*
X1874458Y-61903385D01*
X1874454Y-61903388D01*
X1776888Y-62000954D01*
X1776885Y-62000958D01*
X1700228Y-62115682D01*
X1700221Y-62115695D01*
X1647421Y-62243167D01*
X1647418Y-62243177D01*
X1620500Y-62378504D01*
X1620500Y-62378507D01*
X1620500Y-62516493D01*
X1620500Y-62516495D01*
X1620499Y-62516495D01*
X210500Y-62516495D01*
X210500Y-60316577D01*
X3599576Y-60316577D01*
X3599576Y-60448360D01*
X3633684Y-60575656D01*
X3662261Y-60625152D01*
X3699576Y-60689783D01*
X3792762Y-60782969D01*
X3906890Y-60848861D01*
X4034184Y-60882969D01*
X4034186Y-60882969D01*
X4165966Y-60882969D01*
X4165968Y-60882969D01*
X4227144Y-60866577D01*
X9489576Y-60866577D01*
X9489576Y-60998360D01*
X9523684Y-61125656D01*
X9556630Y-61182719D01*
X9589576Y-61239783D01*
X9682762Y-61332969D01*
X9796890Y-61398861D01*
X9924184Y-61432969D01*
X9924186Y-61432969D01*
X10055966Y-61432969D01*
X10055968Y-61432969D01*
X10183262Y-61398861D01*
X10297390Y-61332969D01*
X10390576Y-61239783D01*
X10456468Y-61125655D01*
X10490576Y-60998361D01*
X10490576Y-60866577D01*
X10456468Y-60739283D01*
X10390576Y-60625155D01*
X10297390Y-60531969D01*
X10240326Y-60499023D01*
X10183263Y-60466077D01*
X10117137Y-60448359D01*
X10055968Y-60431969D01*
X9924184Y-60431969D01*
X9796888Y-60466077D01*
X9682762Y-60531969D01*
X9682759Y-60531971D01*
X9589578Y-60625152D01*
X9589576Y-60625155D01*
X9523684Y-60739281D01*
X9489576Y-60866577D01*
X4227144Y-60866577D01*
X4293262Y-60848861D01*
X4407390Y-60782969D01*
X4500576Y-60689783D01*
X4566468Y-60575655D01*
X4600576Y-60448361D01*
X4600576Y-60316577D01*
X4584499Y-60256577D01*
X5359576Y-60256577D01*
X5359576Y-60388361D01*
X5371261Y-60431969D01*
X5393684Y-60515656D01*
X5399458Y-60525656D01*
X5459576Y-60629783D01*
X5552762Y-60722969D01*
X5651597Y-60780032D01*
X5656679Y-60782966D01*
X5666890Y-60788861D01*
X5794184Y-60822969D01*
X5794186Y-60822969D01*
X5925966Y-60822969D01*
X5925968Y-60822969D01*
X6053262Y-60788861D01*
X6167390Y-60722969D01*
X6260576Y-60629783D01*
X6326468Y-60515655D01*
X6360576Y-60388361D01*
X6360576Y-60266577D01*
X17100723Y-60266577D01*
X17100723Y-60398360D01*
X17134831Y-60525656D01*
X17163699Y-60575655D01*
X17200723Y-60639783D01*
X17293909Y-60732969D01*
X17408037Y-60798861D01*
X17535331Y-60832969D01*
X17535333Y-60832969D01*
X17667113Y-60832969D01*
X17667115Y-60832969D01*
X17794409Y-60798861D01*
X17908537Y-60732969D01*
X18001723Y-60639783D01*
X18067615Y-60525655D01*
X18101723Y-60398361D01*
X18101723Y-60266577D01*
X18067615Y-60139283D01*
X18061841Y-60129283D01*
X18058786Y-60123990D01*
X18001723Y-60025155D01*
X17908537Y-59931969D01*
X17821935Y-59881969D01*
X17794410Y-59866077D01*
X17730762Y-59849023D01*
X17667115Y-59831969D01*
X17535331Y-59831969D01*
X17408035Y-59866077D01*
X17293909Y-59931969D01*
X17293906Y-59931971D01*
X17200725Y-60025152D01*
X17200723Y-60025155D01*
X17134831Y-60139281D01*
X17100723Y-60266577D01*
X6360576Y-60266577D01*
X6360576Y-60256577D01*
X6326468Y-60129283D01*
X6260576Y-60015155D01*
X6167390Y-59921969D01*
X6098108Y-59881969D01*
X6053263Y-59856077D01*
X5989615Y-59839023D01*
X5925968Y-59821969D01*
X5794184Y-59821969D01*
X5666888Y-59856077D01*
X5552762Y-59921969D01*
X5552759Y-59921971D01*
X5459578Y-60015152D01*
X5459576Y-60015155D01*
X5393684Y-60129281D01*
X5377607Y-60189283D01*
X5359576Y-60256577D01*
X4584499Y-60256577D01*
X4566468Y-60189283D01*
X4500576Y-60075155D01*
X4407390Y-59981969D01*
X4350326Y-59949023D01*
X4293263Y-59916077D01*
X4229615Y-59899023D01*
X4165968Y-59881969D01*
X4034184Y-59881969D01*
X3906888Y-59916077D01*
X3792762Y-59981969D01*
X3792759Y-59981971D01*
X3699578Y-60075152D01*
X3699576Y-60075155D01*
X3633684Y-60189281D01*
X3599576Y-60316577D01*
X210500Y-60316577D01*
X210500Y-57593412D01*
X10609576Y-57593412D01*
X10609576Y-57751526D01*
X10647820Y-57894252D01*
X10650499Y-57904252D01*
X10650502Y-57904259D01*
X10729551Y-58041178D01*
X10729555Y-58041183D01*
X10729556Y-58041185D01*
X10841360Y-58152989D01*
X10841362Y-58152990D01*
X10841366Y-58152993D01*
X10960971Y-58222046D01*
X10978292Y-58232046D01*
X11131019Y-58272969D01*
X11131021Y-58272969D01*
X11289131Y-58272969D01*
X11289133Y-58272969D01*
X11441860Y-58232046D01*
X11578792Y-58152989D01*
X11690596Y-58041185D01*
X11769653Y-57904253D01*
X11810576Y-57751526D01*
X11810576Y-57593412D01*
X11807897Y-57583412D01*
X15689576Y-57583412D01*
X15689576Y-57741526D01*
X15692256Y-57751526D01*
X15730499Y-57894252D01*
X15730502Y-57894259D01*
X15809551Y-58031178D01*
X15809555Y-58031183D01*
X15809556Y-58031185D01*
X15921360Y-58142989D01*
X15921362Y-58142990D01*
X15921366Y-58142993D01*
X16058285Y-58222042D01*
X16058292Y-58222046D01*
X16211019Y-58262969D01*
X16211021Y-58262969D01*
X16369131Y-58262969D01*
X16369133Y-58262969D01*
X16521860Y-58222046D01*
X16658792Y-58142989D01*
X16770596Y-58031185D01*
X16849653Y-57894253D01*
X16890576Y-57741526D01*
X16890576Y-57583412D01*
X20769576Y-57583412D01*
X20769576Y-57741526D01*
X20772256Y-57751526D01*
X20810499Y-57894252D01*
X20810502Y-57894259D01*
X20889551Y-58031178D01*
X20889555Y-58031183D01*
X20889556Y-58031185D01*
X21001360Y-58142989D01*
X21001362Y-58142990D01*
X21001366Y-58142993D01*
X21138285Y-58222042D01*
X21138292Y-58222046D01*
X21291019Y-58262969D01*
X21291021Y-58262969D01*
X21449131Y-58262969D01*
X21449133Y-58262969D01*
X21601860Y-58222046D01*
X21738792Y-58142989D01*
X21850596Y-58031185D01*
X21929653Y-57894253D01*
X21970576Y-57741526D01*
X21970576Y-57583412D01*
X21929653Y-57430685D01*
X21856373Y-57303759D01*
X21850600Y-57293759D01*
X21850594Y-57293751D01*
X21738793Y-57181950D01*
X21738785Y-57181944D01*
X21601866Y-57102895D01*
X21601862Y-57102893D01*
X21601860Y-57102892D01*
X21449133Y-57061969D01*
X21291019Y-57061969D01*
X21138292Y-57102892D01*
X21138285Y-57102895D01*
X21001366Y-57181944D01*
X21001358Y-57181950D01*
X20889557Y-57293751D01*
X20889551Y-57293759D01*
X20810502Y-57430678D01*
X20810499Y-57430685D01*
X20769576Y-57583412D01*
X16890576Y-57583412D01*
X16849653Y-57430685D01*
X16776373Y-57303759D01*
X16770600Y-57293759D01*
X16770594Y-57293751D01*
X16658793Y-57181950D01*
X16658785Y-57181944D01*
X16521866Y-57102895D01*
X16521862Y-57102893D01*
X16521860Y-57102892D01*
X16369133Y-57061969D01*
X16211019Y-57061969D01*
X16058292Y-57102892D01*
X16058285Y-57102895D01*
X15921366Y-57181944D01*
X15921358Y-57181950D01*
X15809557Y-57293751D01*
X15809551Y-57293759D01*
X15730502Y-57430678D01*
X15730499Y-57430685D01*
X15689576Y-57583412D01*
X11807897Y-57583412D01*
X11769653Y-57440685D01*
X11763876Y-57430678D01*
X11690600Y-57303759D01*
X11690594Y-57303751D01*
X11578793Y-57191950D01*
X11578785Y-57191944D01*
X11441866Y-57112895D01*
X11441862Y-57112893D01*
X11441860Y-57112892D01*
X11289133Y-57071969D01*
X11131019Y-57071969D01*
X10978292Y-57112892D01*
X10978285Y-57112895D01*
X10841366Y-57191944D01*
X10841358Y-57191950D01*
X10729557Y-57303751D01*
X10729551Y-57303759D01*
X10650502Y-57440678D01*
X10650499Y-57440685D01*
X10609576Y-57593412D01*
X210500Y-57593412D01*
X210500Y-56896577D01*
X6399576Y-56896577D01*
X6399576Y-57028360D01*
X6433684Y-57155656D01*
X6454638Y-57191949D01*
X6499576Y-57269783D01*
X6592762Y-57362969D01*
X6706890Y-57428861D01*
X6834184Y-57462969D01*
X6834186Y-57462969D01*
X6965966Y-57462969D01*
X6965968Y-57462969D01*
X7093262Y-57428861D01*
X7207390Y-57362969D01*
X7300576Y-57269783D01*
X7366468Y-57155655D01*
X7400576Y-57028361D01*
X7400576Y-56896577D01*
X7366468Y-56769283D01*
X7300576Y-56655155D01*
X7207390Y-56561969D01*
X7150326Y-56529023D01*
X7093263Y-56496077D01*
X7029615Y-56479023D01*
X6965968Y-56461969D01*
X6834184Y-56461969D01*
X6706888Y-56496077D01*
X6592762Y-56561969D01*
X6592759Y-56561971D01*
X6499578Y-56655152D01*
X6499576Y-56655155D01*
X6433684Y-56769281D01*
X6399576Y-56896577D01*
X210500Y-56896577D01*
X210500Y-55624500D01*
X230185Y-55557461D01*
X282989Y-55511706D01*
X334500Y-55500500D01*
X6429880Y-55500500D01*
X6429882Y-55500500D01*
X6503574Y-55469976D01*
X6559976Y-55413574D01*
X6590500Y-55339882D01*
X6590500Y-54706577D01*
X7499576Y-54706577D01*
X7499576Y-54838360D01*
X7533684Y-54965656D01*
X7566630Y-55022719D01*
X7599576Y-55079783D01*
X7692762Y-55172969D01*
X7806890Y-55238861D01*
X7934184Y-55272969D01*
X7934186Y-55272969D01*
X8065966Y-55272969D01*
X8065968Y-55272969D01*
X8193262Y-55238861D01*
X8307390Y-55172969D01*
X8400576Y-55079783D01*
X8466468Y-54965655D01*
X8500576Y-54838361D01*
X8500576Y-54706577D01*
X8466468Y-54579283D01*
X8400576Y-54465155D01*
X8307390Y-54371969D01*
X8250326Y-54339023D01*
X8193263Y-54306077D01*
X8108674Y-54283412D01*
X8065968Y-54271969D01*
X7934184Y-54271969D01*
X7806888Y-54306077D01*
X7692762Y-54371969D01*
X7692759Y-54371971D01*
X7599578Y-54465152D01*
X7599576Y-54465155D01*
X7533684Y-54579281D01*
X7499576Y-54706577D01*
X6590500Y-54706577D01*
X6590500Y-53853412D01*
X10609576Y-53853412D01*
X10609576Y-54011526D01*
X10641505Y-54130685D01*
X10650499Y-54164252D01*
X10650502Y-54164259D01*
X10729551Y-54301178D01*
X10729555Y-54301183D01*
X10729556Y-54301185D01*
X10841360Y-54412989D01*
X10841362Y-54412990D01*
X10841366Y-54412993D01*
X10931715Y-54465155D01*
X10978292Y-54492046D01*
X11131019Y-54532969D01*
X11131021Y-54532969D01*
X11289131Y-54532969D01*
X11289133Y-54532969D01*
X11441860Y-54492046D01*
X11578792Y-54412989D01*
X11690596Y-54301185D01*
X11700857Y-54283412D01*
X13149576Y-54283412D01*
X13149576Y-54441526D01*
X13187820Y-54584252D01*
X13190499Y-54594252D01*
X13190502Y-54594259D01*
X13269551Y-54731178D01*
X13269555Y-54731183D01*
X13269556Y-54731185D01*
X13381360Y-54842989D01*
X13381362Y-54842990D01*
X13381366Y-54842993D01*
X13500971Y-54912046D01*
X13518292Y-54922046D01*
X13671019Y-54962969D01*
X13671021Y-54962969D01*
X13829131Y-54962969D01*
X13829133Y-54962969D01*
X13981860Y-54922046D01*
X14118792Y-54842989D01*
X14230596Y-54731185D01*
X14309653Y-54594253D01*
X14350576Y-54441526D01*
X14350576Y-54283412D01*
X14347897Y-54273412D01*
X18239576Y-54273412D01*
X18239576Y-54431526D01*
X18279168Y-54579283D01*
X18280499Y-54584252D01*
X18280502Y-54584259D01*
X18359551Y-54721178D01*
X18359555Y-54721183D01*
X18359556Y-54721185D01*
X18471360Y-54832989D01*
X18471362Y-54832990D01*
X18471366Y-54832993D01*
X18608285Y-54912042D01*
X18608292Y-54912046D01*
X18761019Y-54952969D01*
X18761021Y-54952969D01*
X18919131Y-54952969D01*
X18919133Y-54952969D01*
X19071860Y-54912046D01*
X19208792Y-54832989D01*
X19320596Y-54721185D01*
X19399653Y-54584253D01*
X19440576Y-54431526D01*
X19440576Y-54273412D01*
X19399653Y-54120685D01*
X19336630Y-54011525D01*
X19320600Y-53983759D01*
X19320594Y-53983751D01*
X19208793Y-53871950D01*
X19208785Y-53871944D01*
X19071866Y-53792895D01*
X19071862Y-53792893D01*
X19071860Y-53792892D01*
X18919133Y-53751969D01*
X18761019Y-53751969D01*
X18608292Y-53792892D01*
X18608285Y-53792895D01*
X18471366Y-53871944D01*
X18471358Y-53871950D01*
X18359557Y-53983751D01*
X18359551Y-53983759D01*
X18280502Y-54120678D01*
X18280499Y-54120685D01*
X18239576Y-54273412D01*
X14347897Y-54273412D01*
X14309653Y-54130685D01*
X14303876Y-54120678D01*
X14230600Y-53993759D01*
X14230594Y-53993751D01*
X14118793Y-53881950D01*
X14118785Y-53881944D01*
X13981866Y-53802895D01*
X13981862Y-53802893D01*
X13981860Y-53802892D01*
X13829133Y-53761969D01*
X13671019Y-53761969D01*
X13518292Y-53802892D01*
X13518285Y-53802895D01*
X13381366Y-53881944D01*
X13381358Y-53881950D01*
X13269557Y-53993751D01*
X13269551Y-53993759D01*
X13190502Y-54130678D01*
X13190499Y-54130685D01*
X13149576Y-54283412D01*
X11700857Y-54283412D01*
X11769653Y-54164253D01*
X11810576Y-54011526D01*
X11810576Y-53853412D01*
X11769653Y-53700685D01*
X11769649Y-53700678D01*
X11690600Y-53563759D01*
X11690594Y-53563751D01*
X11578793Y-53451950D01*
X11578785Y-53451944D01*
X11441866Y-53372895D01*
X11441862Y-53372893D01*
X11441860Y-53372892D01*
X11289133Y-53331969D01*
X11131019Y-53331969D01*
X10978292Y-53372892D01*
X10978285Y-53372895D01*
X10841366Y-53451944D01*
X10841358Y-53451950D01*
X10729557Y-53563751D01*
X10729551Y-53563759D01*
X10650502Y-53700678D01*
X10650499Y-53700685D01*
X10609576Y-53853412D01*
X6590500Y-53853412D01*
X6590500Y-51473412D01*
X44079576Y-51473412D01*
X44079576Y-51631525D01*
X44120499Y-51784252D01*
X44120502Y-51784259D01*
X44199551Y-51921178D01*
X44199555Y-51921183D01*
X44199556Y-51921185D01*
X44311360Y-52032989D01*
X44311362Y-52032990D01*
X44311366Y-52032993D01*
X44448285Y-52112042D01*
X44448292Y-52112046D01*
X44601019Y-52152969D01*
X44601021Y-52152969D01*
X44759131Y-52152969D01*
X44759133Y-52152969D01*
X44911860Y-52112046D01*
X45048792Y-52032989D01*
X45160596Y-51921185D01*
X45239653Y-51784253D01*
X45280576Y-51631526D01*
X45280576Y-51473412D01*
X45239653Y-51320685D01*
X45194784Y-51242969D01*
X45160600Y-51183759D01*
X45160594Y-51183751D01*
X45048793Y-51071950D01*
X45048785Y-51071944D01*
X44911866Y-50992895D01*
X44911862Y-50992893D01*
X44911860Y-50992892D01*
X44759133Y-50951969D01*
X44601019Y-50951969D01*
X44448292Y-50992892D01*
X44448285Y-50992895D01*
X44311366Y-51071944D01*
X44311358Y-51071950D01*
X44199557Y-51183751D01*
X44199551Y-51183759D01*
X44120502Y-51320678D01*
X44120499Y-51320685D01*
X44079576Y-51473412D01*
X6590500Y-51473412D01*
X6590500Y-50563412D01*
X13149576Y-50563412D01*
X13149576Y-50721526D01*
X13182628Y-50844876D01*
X13190499Y-50874252D01*
X13190502Y-50874259D01*
X13269551Y-51011178D01*
X13269555Y-51011183D01*
X13269556Y-51011185D01*
X13381360Y-51122989D01*
X13381362Y-51122990D01*
X13381366Y-51122993D01*
X13518285Y-51202042D01*
X13518292Y-51202046D01*
X13671019Y-51242969D01*
X13671021Y-51242969D01*
X13829131Y-51242969D01*
X13829133Y-51242969D01*
X13981860Y-51202046D01*
X14118792Y-51122989D01*
X14230596Y-51011185D01*
X14309653Y-50874253D01*
X14350576Y-50721527D01*
X32604652Y-50721527D01*
X32604652Y-50833563D01*
X32633629Y-50941705D01*
X32633649Y-50941781D01*
X32633650Y-50941784D01*
X32637554Y-50948546D01*
X32689667Y-51038808D01*
X32768889Y-51118030D01*
X32865915Y-51174048D01*
X32974134Y-51203045D01*
X32974136Y-51203045D01*
X33086168Y-51203045D01*
X33086170Y-51203045D01*
X33194389Y-51174048D01*
X33291415Y-51118030D01*
X33370637Y-51038808D01*
X33422765Y-50948518D01*
X33473332Y-50900304D01*
X33541939Y-50887080D01*
X33606803Y-50913048D01*
X33637537Y-50948517D01*
X33689667Y-51038808D01*
X33768889Y-51118030D01*
X33865915Y-51174048D01*
X33974134Y-51203045D01*
X33974136Y-51203045D01*
X34086168Y-51203045D01*
X34086170Y-51203045D01*
X34194389Y-51174048D01*
X34291415Y-51118030D01*
X34370637Y-51038808D01*
X34422765Y-50948518D01*
X34473332Y-50900304D01*
X34541939Y-50887080D01*
X34606803Y-50913048D01*
X34637537Y-50948517D01*
X34689667Y-51038808D01*
X34768889Y-51118030D01*
X34865915Y-51174048D01*
X34974134Y-51203045D01*
X34974136Y-51203045D01*
X35086168Y-51203045D01*
X35086170Y-51203045D01*
X35194389Y-51174048D01*
X35291415Y-51118030D01*
X35370637Y-51038808D01*
X35422765Y-50948518D01*
X35473332Y-50900304D01*
X35541939Y-50887080D01*
X35606803Y-50913048D01*
X35637537Y-50948517D01*
X35689667Y-51038808D01*
X35768889Y-51118030D01*
X35865915Y-51174048D01*
X35974134Y-51203045D01*
X35974136Y-51203045D01*
X36086168Y-51203045D01*
X36086170Y-51203045D01*
X36194389Y-51174048D01*
X36291415Y-51118030D01*
X36370637Y-51038808D01*
X36422765Y-50948518D01*
X36473332Y-50900304D01*
X36541939Y-50887080D01*
X36606803Y-50913048D01*
X36637537Y-50948517D01*
X36689667Y-51038808D01*
X36768889Y-51118030D01*
X36865915Y-51174048D01*
X36974134Y-51203045D01*
X36974136Y-51203045D01*
X37086168Y-51203045D01*
X37086170Y-51203045D01*
X37194389Y-51174048D01*
X37291415Y-51118030D01*
X37370637Y-51038808D01*
X37422750Y-50948544D01*
X37473314Y-50900332D01*
X37541921Y-50887108D01*
X37606786Y-50913076D01*
X37637522Y-50948546D01*
X37689591Y-51038732D01*
X37768813Y-51117954D01*
X37865839Y-51173972D01*
X37974058Y-51202969D01*
X37974060Y-51202969D01*
X38086092Y-51202969D01*
X38086094Y-51202969D01*
X38194313Y-51173972D01*
X38291339Y-51117954D01*
X38370561Y-51038732D01*
X38422689Y-50948442D01*
X38473256Y-50900228D01*
X38541863Y-50887004D01*
X38606727Y-50912972D01*
X38637461Y-50948441D01*
X38689591Y-51038732D01*
X38768813Y-51117954D01*
X38865839Y-51173972D01*
X38974058Y-51202969D01*
X38974060Y-51202969D01*
X39086092Y-51202969D01*
X39086094Y-51202969D01*
X39194313Y-51173972D01*
X39291339Y-51117954D01*
X39370561Y-51038732D01*
X39422689Y-50948442D01*
X39473256Y-50900228D01*
X39541863Y-50887004D01*
X39606727Y-50912972D01*
X39637461Y-50948441D01*
X39689591Y-51038732D01*
X39768813Y-51117954D01*
X39865839Y-51173972D01*
X39974058Y-51202969D01*
X39974060Y-51202969D01*
X40086092Y-51202969D01*
X40086094Y-51202969D01*
X40194313Y-51173972D01*
X40291339Y-51117954D01*
X40370561Y-51038732D01*
X40426579Y-50941706D01*
X40452524Y-50844874D01*
X40488889Y-50785215D01*
X40551736Y-50754686D01*
X40572299Y-50752969D01*
X40586092Y-50752969D01*
X40586094Y-50752969D01*
X40694313Y-50723972D01*
X40791339Y-50667954D01*
X40870561Y-50588732D01*
X40926579Y-50491706D01*
X40955576Y-50383487D01*
X40955576Y-50271451D01*
X40926579Y-50163232D01*
X40870561Y-50066206D01*
X40791339Y-49986984D01*
X40726655Y-49949638D01*
X40694315Y-49930967D01*
X40694314Y-49930966D01*
X40694313Y-49930966D01*
X40586094Y-49901969D01*
X40474058Y-49901969D01*
X40365839Y-49930966D01*
X40365836Y-49930967D01*
X40268816Y-49986982D01*
X40268810Y-49986986D01*
X40189593Y-50066203D01*
X40189589Y-50066209D01*
X40137463Y-50156494D01*
X40086896Y-50204710D01*
X40018289Y-50217932D01*
X39953424Y-50191964D01*
X39922689Y-50156494D01*
X39903333Y-50122969D01*
X39870561Y-50066206D01*
X39791339Y-49986984D01*
X39726655Y-49949638D01*
X39694315Y-49930967D01*
X39694314Y-49930966D01*
X39694313Y-49930966D01*
X39586094Y-49901969D01*
X39474058Y-49901969D01*
X39365839Y-49930966D01*
X39365836Y-49930967D01*
X39268816Y-49986982D01*
X39268810Y-49986986D01*
X39189593Y-50066203D01*
X39189589Y-50066209D01*
X39137463Y-50156494D01*
X39086896Y-50204710D01*
X39018289Y-50217932D01*
X38953424Y-50191964D01*
X38922689Y-50156494D01*
X38903333Y-50122969D01*
X38870561Y-50066206D01*
X38791339Y-49986984D01*
X38726655Y-49949638D01*
X38694315Y-49930967D01*
X38694314Y-49930966D01*
X38694313Y-49930966D01*
X38586094Y-49901969D01*
X38474058Y-49901969D01*
X38365839Y-49930966D01*
X38365836Y-49930967D01*
X38268816Y-49986982D01*
X38268810Y-49986986D01*
X38189593Y-50066203D01*
X38189589Y-50066209D01*
X38137479Y-50156466D01*
X38086912Y-50204682D01*
X38018305Y-50217904D01*
X37953440Y-50191936D01*
X37922705Y-50156466D01*
X37903365Y-50122968D01*
X37870637Y-50066282D01*
X37791415Y-49987060D01*
X37694389Y-49931042D01*
X37586170Y-49902045D01*
X37474134Y-49902045D01*
X37365915Y-49931042D01*
X37365912Y-49931043D01*
X37268892Y-49987058D01*
X37268886Y-49987062D01*
X37189669Y-50066279D01*
X37189665Y-50066285D01*
X37137539Y-50156570D01*
X37086972Y-50204786D01*
X37018365Y-50218008D01*
X36953500Y-50192040D01*
X36922765Y-50156570D01*
X36903365Y-50122968D01*
X36870637Y-50066282D01*
X36791415Y-49987060D01*
X36694389Y-49931042D01*
X36586170Y-49902045D01*
X36474134Y-49902045D01*
X36365915Y-49931042D01*
X36365912Y-49931043D01*
X36268892Y-49987058D01*
X36268886Y-49987062D01*
X36189669Y-50066279D01*
X36189665Y-50066285D01*
X36137539Y-50156570D01*
X36086972Y-50204786D01*
X36018365Y-50218008D01*
X35953500Y-50192040D01*
X35922765Y-50156570D01*
X35903365Y-50122968D01*
X35870637Y-50066282D01*
X35791415Y-49987060D01*
X35694389Y-49931042D01*
X35586170Y-49902045D01*
X35474134Y-49902045D01*
X35365915Y-49931042D01*
X35365912Y-49931043D01*
X35268892Y-49987058D01*
X35268886Y-49987062D01*
X35189669Y-50066279D01*
X35189665Y-50066285D01*
X35137539Y-50156570D01*
X35086972Y-50204786D01*
X35018365Y-50218008D01*
X34953500Y-50192040D01*
X34922765Y-50156570D01*
X34903365Y-50122968D01*
X34870637Y-50066282D01*
X34791415Y-49987060D01*
X34694389Y-49931042D01*
X34586170Y-49902045D01*
X34474134Y-49902045D01*
X34365915Y-49931042D01*
X34365912Y-49931043D01*
X34268892Y-49987058D01*
X34268886Y-49987062D01*
X34189669Y-50066279D01*
X34189665Y-50066285D01*
X34137539Y-50156570D01*
X34086972Y-50204786D01*
X34018365Y-50218008D01*
X33953500Y-50192040D01*
X33922765Y-50156570D01*
X33903365Y-50122968D01*
X33870637Y-50066282D01*
X33791415Y-49987060D01*
X33694389Y-49931042D01*
X33586170Y-49902045D01*
X33474134Y-49902045D01*
X33365915Y-49931042D01*
X33365912Y-49931043D01*
X33268892Y-49987058D01*
X33268886Y-49987062D01*
X33189669Y-50066279D01*
X33189665Y-50066285D01*
X33133650Y-50163305D01*
X33133649Y-50163308D01*
X33122556Y-50204710D01*
X33107704Y-50260138D01*
X33071339Y-50319799D01*
X33008492Y-50350328D01*
X32987929Y-50352045D01*
X32974134Y-50352045D01*
X32865915Y-50381042D01*
X32865912Y-50381043D01*
X32768892Y-50437058D01*
X32768886Y-50437062D01*
X32689669Y-50516279D01*
X32689665Y-50516285D01*
X32633650Y-50613305D01*
X32633649Y-50613308D01*
X32604652Y-50721527D01*
X14350576Y-50721527D01*
X14350576Y-50721526D01*
X14350576Y-50563412D01*
X14309653Y-50410685D01*
X14309649Y-50410678D01*
X14230600Y-50273759D01*
X14230594Y-50273751D01*
X14118793Y-50161950D01*
X14118785Y-50161944D01*
X13981866Y-50082895D01*
X13981862Y-50082893D01*
X13981860Y-50082892D01*
X13829133Y-50041969D01*
X13671019Y-50041969D01*
X13518292Y-50082892D01*
X13518285Y-50082895D01*
X13381366Y-50161944D01*
X13381358Y-50161950D01*
X13269557Y-50273751D01*
X13269551Y-50273759D01*
X13190502Y-50410678D01*
X13190499Y-50410685D01*
X13149576Y-50563412D01*
X6590500Y-50563412D01*
X6590500Y-49443412D01*
X8529576Y-49443412D01*
X8529576Y-49601525D01*
X8570499Y-49754252D01*
X8570502Y-49754259D01*
X8649551Y-49891178D01*
X8649555Y-49891183D01*
X8649556Y-49891185D01*
X8761360Y-50002989D01*
X8761362Y-50002990D01*
X8761366Y-50002993D01*
X8870993Y-50066285D01*
X8898292Y-50082046D01*
X9051019Y-50122969D01*
X9051021Y-50122969D01*
X9209131Y-50122969D01*
X9209133Y-50122969D01*
X9361860Y-50082046D01*
X9498792Y-50002989D01*
X9610596Y-49891185D01*
X9689653Y-49754253D01*
X9730576Y-49601526D01*
X9730576Y-49443412D01*
X11079576Y-49443412D01*
X11079576Y-49601525D01*
X11120499Y-49754252D01*
X11120502Y-49754259D01*
X11199551Y-49891178D01*
X11199555Y-49891183D01*
X11199556Y-49891185D01*
X11311360Y-50002989D01*
X11311362Y-50002990D01*
X11311366Y-50002993D01*
X11420993Y-50066285D01*
X11448292Y-50082046D01*
X11601019Y-50122969D01*
X11601021Y-50122969D01*
X11759131Y-50122969D01*
X11759133Y-50122969D01*
X11911860Y-50082046D01*
X12048792Y-50002989D01*
X12160596Y-49891185D01*
X12239653Y-49754253D01*
X12280576Y-49601526D01*
X12280576Y-49443412D01*
X12239653Y-49290685D01*
X12239649Y-49290678D01*
X12160600Y-49153759D01*
X12160594Y-49153751D01*
X12048793Y-49041950D01*
X12048785Y-49041944D01*
X11911866Y-48962895D01*
X11911862Y-48962893D01*
X11911860Y-48962892D01*
X11759133Y-48921969D01*
X11601019Y-48921969D01*
X11448292Y-48962892D01*
X11448285Y-48962895D01*
X11311366Y-49041944D01*
X11311358Y-49041950D01*
X11199557Y-49153751D01*
X11199551Y-49153759D01*
X11120502Y-49290678D01*
X11120499Y-49290685D01*
X11079576Y-49443412D01*
X9730576Y-49443412D01*
X9689653Y-49290685D01*
X9689649Y-49290678D01*
X9610600Y-49153759D01*
X9610594Y-49153751D01*
X9498793Y-49041950D01*
X9498785Y-49041944D01*
X9361866Y-48962895D01*
X9361862Y-48962893D01*
X9361860Y-48962892D01*
X9209133Y-48921969D01*
X9051019Y-48921969D01*
X8898292Y-48962892D01*
X8898285Y-48962895D01*
X8761366Y-49041944D01*
X8761358Y-49041950D01*
X8649557Y-49153751D01*
X8649551Y-49153759D01*
X8570502Y-49290678D01*
X8570499Y-49290685D01*
X8529576Y-49443412D01*
X6590500Y-49443412D01*
X6590500Y-47526451D01*
X38314576Y-47526451D01*
X38314576Y-47638487D01*
X38343573Y-47746706D01*
X38399591Y-47843732D01*
X38478813Y-47922954D01*
X38575839Y-47978972D01*
X38684058Y-48007969D01*
X38684060Y-48007969D01*
X38796090Y-48007969D01*
X38796094Y-48007969D01*
X38841203Y-47995882D01*
X38911048Y-47997545D01*
X38968911Y-48036707D01*
X38980680Y-48053657D01*
X39009591Y-48103732D01*
X39088813Y-48182954D01*
X39185839Y-48238972D01*
X39294058Y-48267969D01*
X39294060Y-48267969D01*
X39406092Y-48267969D01*
X39406094Y-48267969D01*
X39514313Y-48238972D01*
X39611339Y-48182954D01*
X39690561Y-48103732D01*
X39746579Y-48006706D01*
X39775576Y-47898487D01*
X39775576Y-47786451D01*
X39746579Y-47678232D01*
X39690561Y-47581206D01*
X39611339Y-47501984D01*
X39514313Y-47445966D01*
X39406094Y-47416969D01*
X39294058Y-47416969D01*
X39294056Y-47416969D01*
X39248950Y-47429055D01*
X39179100Y-47427392D01*
X39162935Y-47416451D01*
X39934576Y-47416451D01*
X39934576Y-47528487D01*
X39963573Y-47636706D01*
X40019591Y-47733732D01*
X40098813Y-47812954D01*
X40195839Y-47868972D01*
X40304058Y-47897969D01*
X40304060Y-47897969D01*
X40416092Y-47897969D01*
X40416094Y-47897969D01*
X40524313Y-47868972D01*
X40621339Y-47812954D01*
X40700561Y-47733732D01*
X40756579Y-47636706D01*
X40770045Y-47586451D01*
X41734576Y-47586451D01*
X41734576Y-47698487D01*
X41744021Y-47733734D01*
X41763573Y-47806705D01*
X41763574Y-47806708D01*
X41767180Y-47812954D01*
X41819591Y-47903732D01*
X41898813Y-47982954D01*
X41995839Y-48038972D01*
X42104058Y-48067969D01*
X42104060Y-48067969D01*
X42216092Y-48067969D01*
X42216094Y-48067969D01*
X42324313Y-48038972D01*
X42421339Y-47982954D01*
X42500561Y-47903732D01*
X42556579Y-47806706D01*
X42585576Y-47698487D01*
X42585576Y-47586451D01*
X42556579Y-47478232D01*
X42500561Y-47381206D01*
X42421339Y-47301984D01*
X42324313Y-47245966D01*
X42216094Y-47216969D01*
X42104058Y-47216969D01*
X41995839Y-47245966D01*
X41995836Y-47245967D01*
X41898816Y-47301982D01*
X41898810Y-47301986D01*
X41819593Y-47381203D01*
X41819589Y-47381209D01*
X41763574Y-47478229D01*
X41763573Y-47478232D01*
X41734576Y-47586451D01*
X40770045Y-47586451D01*
X40785576Y-47528487D01*
X40785576Y-47416451D01*
X40756579Y-47308232D01*
X40700561Y-47211206D01*
X40621339Y-47131984D01*
X40524313Y-47075966D01*
X40416094Y-47046969D01*
X40304058Y-47046969D01*
X40195839Y-47075966D01*
X40195836Y-47075967D01*
X40098816Y-47131982D01*
X40098810Y-47131986D01*
X40019593Y-47211203D01*
X40019589Y-47211209D01*
X39963574Y-47308229D01*
X39963573Y-47308232D01*
X39934576Y-47416451D01*
X39162935Y-47416451D01*
X39121238Y-47388228D01*
X39109471Y-47371280D01*
X39080561Y-47321206D01*
X39001339Y-47241984D01*
X38904313Y-47185966D01*
X38796094Y-47156969D01*
X38684058Y-47156969D01*
X38575839Y-47185966D01*
X38575836Y-47185967D01*
X38478816Y-47241982D01*
X38478810Y-47241986D01*
X38399593Y-47321203D01*
X38399589Y-47321209D01*
X38343574Y-47418229D01*
X38343573Y-47418232D01*
X38314576Y-47526451D01*
X6590500Y-47526451D01*
X6590500Y-45586451D01*
X40134576Y-45586451D01*
X40134576Y-45698487D01*
X40163573Y-45806706D01*
X40219591Y-45903732D01*
X40298813Y-45982954D01*
X40395839Y-46038972D01*
X40504058Y-46067969D01*
X40504060Y-46067969D01*
X40616091Y-46067969D01*
X40616094Y-46067969D01*
X40700546Y-46045340D01*
X40770392Y-46047003D01*
X40828254Y-46086165D01*
X40855759Y-46150393D01*
X40852412Y-46197205D01*
X40844576Y-46226451D01*
X40844576Y-46338487D01*
X40873573Y-46446706D01*
X40929591Y-46543732D01*
X41008813Y-46622954D01*
X41105839Y-46678972D01*
X41214058Y-46707969D01*
X41214060Y-46707969D01*
X41326092Y-46707969D01*
X41326094Y-46707969D01*
X41434313Y-46678972D01*
X41531339Y-46622954D01*
X41610561Y-46543732D01*
X41666579Y-46446706D01*
X41695576Y-46338487D01*
X41695576Y-46256577D01*
X46289576Y-46256577D01*
X46289576Y-46388360D01*
X46323684Y-46515656D01*
X46356630Y-46572719D01*
X46389576Y-46629783D01*
X46482762Y-46722969D01*
X46596890Y-46788861D01*
X46724184Y-46822969D01*
X46724186Y-46822969D01*
X46855966Y-46822969D01*
X46855968Y-46822969D01*
X46983262Y-46788861D01*
X47097390Y-46722969D01*
X47190576Y-46629783D01*
X47256468Y-46515655D01*
X47290576Y-46388361D01*
X47290576Y-46296577D01*
X65659576Y-46296577D01*
X65659576Y-46428361D01*
X65664492Y-46446708D01*
X65693684Y-46555656D01*
X65726630Y-46612719D01*
X65759576Y-46669783D01*
X65852762Y-46762969D01*
X65966890Y-46828861D01*
X66094184Y-46862969D01*
X66094186Y-46862969D01*
X66225966Y-46862969D01*
X66225968Y-46862969D01*
X66353262Y-46828861D01*
X66467390Y-46762969D01*
X66560576Y-46669783D01*
X66626468Y-46555655D01*
X66660576Y-46428361D01*
X66660576Y-46296577D01*
X66626468Y-46169283D01*
X66560576Y-46055155D01*
X66467390Y-45961969D01*
X66398108Y-45921969D01*
X66353263Y-45896077D01*
X66285551Y-45877934D01*
X66225968Y-45861969D01*
X66094184Y-45861969D01*
X65966888Y-45896077D01*
X65852762Y-45961969D01*
X65852759Y-45961971D01*
X65759578Y-46055152D01*
X65759576Y-46055155D01*
X65693684Y-46169281D01*
X65686202Y-46197205D01*
X65659576Y-46296577D01*
X47290576Y-46296577D01*
X47290576Y-46256577D01*
X47256468Y-46129283D01*
X47190576Y-46015155D01*
X47097390Y-45921969D01*
X47021180Y-45877969D01*
X46983263Y-45856077D01*
X46919615Y-45839023D01*
X46855968Y-45821969D01*
X46724184Y-45821969D01*
X46596888Y-45856077D01*
X46482762Y-45921969D01*
X46482759Y-45921971D01*
X46389578Y-46015152D01*
X46389576Y-46015155D01*
X46323684Y-46129281D01*
X46289576Y-46256577D01*
X41695576Y-46256577D01*
X41695576Y-46226451D01*
X41666579Y-46118232D01*
X41610561Y-46021206D01*
X41531339Y-45941984D01*
X41434313Y-45885966D01*
X41326094Y-45856969D01*
X41214058Y-45856969D01*
X41129608Y-45879597D01*
X41059758Y-45877934D01*
X41001896Y-45838771D01*
X40974392Y-45774542D01*
X40973735Y-45752439D01*
X40974483Y-45739883D01*
X40985576Y-45698487D01*
X40985576Y-45586451D01*
X40983845Y-45579992D01*
X42754576Y-45579992D01*
X42754576Y-45692028D01*
X42779430Y-45784783D01*
X42783573Y-45800246D01*
X42783574Y-45800249D01*
X42787302Y-45806706D01*
X42839591Y-45897273D01*
X42918813Y-45976495D01*
X43015839Y-46032513D01*
X43124058Y-46061510D01*
X43124060Y-46061510D01*
X43236092Y-46061510D01*
X43236094Y-46061510D01*
X43344313Y-46032513D01*
X43441339Y-45976495D01*
X43520561Y-45897273D01*
X43576579Y-45800247D01*
X43605576Y-45692028D01*
X43605576Y-45579992D01*
X43576579Y-45471773D01*
X43541825Y-45411577D01*
X53569576Y-45411577D01*
X53569576Y-45543360D01*
X53603684Y-45670656D01*
X53619752Y-45698486D01*
X53669576Y-45784783D01*
X53762762Y-45877969D01*
X53876890Y-45943861D01*
X54004184Y-45977969D01*
X54004186Y-45977969D01*
X54135966Y-45977969D01*
X54135968Y-45977969D01*
X54263262Y-45943861D01*
X54377390Y-45877969D01*
X54470576Y-45784783D01*
X54536468Y-45670655D01*
X54570576Y-45543361D01*
X54570576Y-45411577D01*
X54536468Y-45284283D01*
X54470576Y-45170155D01*
X54377390Y-45076969D01*
X54320326Y-45044023D01*
X54263263Y-45011077D01*
X54199615Y-44994023D01*
X54135968Y-44976969D01*
X54004184Y-44976969D01*
X53876888Y-45011077D01*
X53762762Y-45076969D01*
X53762759Y-45076971D01*
X53669578Y-45170152D01*
X53669576Y-45170155D01*
X53603684Y-45284281D01*
X53569576Y-45411577D01*
X43541825Y-45411577D01*
X43520561Y-45374747D01*
X43441339Y-45295525D01*
X43344791Y-45239783D01*
X43344315Y-45239508D01*
X43344314Y-45239507D01*
X43344313Y-45239507D01*
X43236094Y-45210510D01*
X43124058Y-45210510D01*
X43015839Y-45239507D01*
X43015836Y-45239508D01*
X42918816Y-45295523D01*
X42918810Y-45295527D01*
X42839593Y-45374744D01*
X42839589Y-45374750D01*
X42783574Y-45471770D01*
X42783573Y-45471773D01*
X42754576Y-45579992D01*
X40983845Y-45579992D01*
X40956579Y-45478232D01*
X40900561Y-45381206D01*
X40821339Y-45301984D01*
X40724313Y-45245966D01*
X40616094Y-45216969D01*
X40504058Y-45216969D01*
X40395839Y-45245966D01*
X40395836Y-45245967D01*
X40298816Y-45301982D01*
X40298810Y-45301986D01*
X40219593Y-45381203D01*
X40219589Y-45381209D01*
X40163574Y-45478229D01*
X40163573Y-45478232D01*
X40134576Y-45586451D01*
X6590500Y-45586451D01*
X6590500Y-44866577D01*
X28989576Y-44866577D01*
X28989576Y-44998360D01*
X29023684Y-45125656D01*
X29049374Y-45170152D01*
X29089576Y-45239783D01*
X29182762Y-45332969D01*
X29296890Y-45398861D01*
X29424184Y-45432969D01*
X29424186Y-45432969D01*
X29555966Y-45432969D01*
X29555968Y-45432969D01*
X29683262Y-45398861D01*
X29797390Y-45332969D01*
X29890576Y-45239783D01*
X29956468Y-45125655D01*
X29990576Y-44998361D01*
X29990576Y-44866577D01*
X29956468Y-44739283D01*
X29890576Y-44625155D01*
X29797390Y-44531969D01*
X29740326Y-44499023D01*
X29683263Y-44466077D01*
X29619615Y-44449023D01*
X29555968Y-44431969D01*
X29424184Y-44431969D01*
X29296888Y-44466077D01*
X29182762Y-44531969D01*
X29182759Y-44531971D01*
X29089578Y-44625152D01*
X29089576Y-44625155D01*
X29023684Y-44739281D01*
X28989576Y-44866577D01*
X6590500Y-44866577D01*
X6590500Y-44286577D01*
X16269576Y-44286577D01*
X16269576Y-44418361D01*
X16273222Y-44431969D01*
X16303684Y-44545656D01*
X16336630Y-44602719D01*
X16369576Y-44659783D01*
X16462762Y-44752969D01*
X16576890Y-44818861D01*
X16704184Y-44852969D01*
X16704186Y-44852969D01*
X16835966Y-44852969D01*
X16835968Y-44852969D01*
X16963262Y-44818861D01*
X17077390Y-44752969D01*
X17170576Y-44659783D01*
X17236468Y-44545655D01*
X17270576Y-44418361D01*
X17270576Y-44296577D01*
X18819576Y-44296577D01*
X18819576Y-44428360D01*
X18853684Y-44555656D01*
X18863694Y-44572993D01*
X18919576Y-44669783D01*
X19012762Y-44762969D01*
X19126890Y-44828861D01*
X19254184Y-44862969D01*
X19254186Y-44862969D01*
X19385966Y-44862969D01*
X19385968Y-44862969D01*
X19513262Y-44828861D01*
X19627390Y-44762969D01*
X19720576Y-44669783D01*
X19786468Y-44555655D01*
X19820576Y-44428361D01*
X19820576Y-44296577D01*
X19786468Y-44169283D01*
X19780694Y-44159283D01*
X19751068Y-44107969D01*
X19720576Y-44055155D01*
X19678833Y-44013412D01*
X36839576Y-44013412D01*
X36839576Y-44171526D01*
X36873084Y-44296577D01*
X36880499Y-44324252D01*
X36880502Y-44324259D01*
X36959551Y-44461178D01*
X36959555Y-44461183D01*
X36959556Y-44461185D01*
X37071360Y-44572989D01*
X37071362Y-44572990D01*
X37071366Y-44572993D01*
X37161715Y-44625155D01*
X37208292Y-44652046D01*
X37361019Y-44692969D01*
X37361021Y-44692969D01*
X37519131Y-44692969D01*
X37519133Y-44692969D01*
X37671860Y-44652046D01*
X37808792Y-44572989D01*
X37920596Y-44461185D01*
X37999653Y-44324253D01*
X38007103Y-44296451D01*
X43518303Y-44296451D01*
X43518303Y-44408487D01*
X43547300Y-44516706D01*
X43603318Y-44613732D01*
X43682540Y-44692954D01*
X43779566Y-44748972D01*
X43887785Y-44777969D01*
X43887787Y-44777969D01*
X43999819Y-44777969D01*
X43999821Y-44777969D01*
X44108040Y-44748972D01*
X44205066Y-44692954D01*
X44284288Y-44613732D01*
X44340306Y-44516706D01*
X44369303Y-44408487D01*
X44369303Y-44296451D01*
X44340306Y-44188232D01*
X44284288Y-44091206D01*
X44205066Y-44011984D01*
X44118441Y-43961971D01*
X44108042Y-43955967D01*
X44108041Y-43955966D01*
X44108040Y-43955966D01*
X43999821Y-43926969D01*
X43887785Y-43926969D01*
X43779566Y-43955966D01*
X43779563Y-43955967D01*
X43682543Y-44011982D01*
X43682537Y-44011986D01*
X43603320Y-44091203D01*
X43603316Y-44091209D01*
X43547301Y-44188229D01*
X43547300Y-44188232D01*
X43518303Y-44296451D01*
X38007103Y-44296451D01*
X38040576Y-44171526D01*
X38040576Y-44013412D01*
X37999653Y-43860685D01*
X37994621Y-43851969D01*
X37920600Y-43723759D01*
X37920594Y-43723751D01*
X37823294Y-43626451D01*
X40144576Y-43626451D01*
X40144576Y-43738486D01*
X40173573Y-43846705D01*
X40173574Y-43846708D01*
X40178408Y-43855081D01*
X40229591Y-43943732D01*
X40308813Y-44022954D01*
X40405839Y-44078972D01*
X40514058Y-44107969D01*
X40514060Y-44107969D01*
X40626092Y-44107969D01*
X40626094Y-44107969D01*
X40734313Y-44078972D01*
X40831339Y-44022954D01*
X40910561Y-43943732D01*
X40966579Y-43846706D01*
X40995576Y-43738487D01*
X40995576Y-43626451D01*
X40980198Y-43569059D01*
X40981861Y-43499213D01*
X41021023Y-43441350D01*
X41085251Y-43413846D01*
X41099973Y-43412969D01*
X41105966Y-43412969D01*
X41105968Y-43412969D01*
X41233262Y-43378861D01*
X41347390Y-43312969D01*
X41440576Y-43219783D01*
X41506468Y-43105655D01*
X41538375Y-42986577D01*
X47619576Y-42986577D01*
X47619576Y-43118361D01*
X47624935Y-43138360D01*
X47653684Y-43245656D01*
X47676958Y-43285967D01*
X47719576Y-43359783D01*
X47812762Y-43452969D01*
X47880312Y-43491969D01*
X47925800Y-43518232D01*
X47926890Y-43518861D01*
X48054184Y-43552969D01*
X48054186Y-43552969D01*
X48185966Y-43552969D01*
X48185968Y-43552969D01*
X48313262Y-43518861D01*
X48427390Y-43452969D01*
X48520576Y-43359783D01*
X48586468Y-43245655D01*
X48587621Y-43241349D01*
X48623981Y-43181692D01*
X48686826Y-43151159D01*
X48756202Y-43159450D01*
X48810083Y-43203932D01*
X48827169Y-43241343D01*
X48833684Y-43265655D01*
X48899576Y-43379783D01*
X48992762Y-43472969D01*
X49106890Y-43538861D01*
X49234184Y-43572969D01*
X49234186Y-43572969D01*
X49365966Y-43572969D01*
X49365968Y-43572969D01*
X49493262Y-43538861D01*
X49607390Y-43472969D01*
X49700576Y-43379783D01*
X49766468Y-43265655D01*
X49766933Y-43263921D01*
X68169499Y-43263921D01*
X68198340Y-43408908D01*
X68198343Y-43408918D01*
X68254912Y-43545489D01*
X68254919Y-43545502D01*
X68337048Y-43668416D01*
X68337051Y-43668420D01*
X68441580Y-43772949D01*
X68441584Y-43772952D01*
X68564498Y-43855081D01*
X68564511Y-43855088D01*
X68701082Y-43911657D01*
X68701087Y-43911659D01*
X68701091Y-43911659D01*
X68701092Y-43911660D01*
X68846079Y-43940501D01*
X68846082Y-43940501D01*
X68993920Y-43940501D01*
X69091462Y-43921097D01*
X69138913Y-43911659D01*
X69258876Y-43861969D01*
X69275488Y-43855088D01*
X69275488Y-43855087D01*
X69275495Y-43855085D01*
X69398416Y-43772952D01*
X69502951Y-43668417D01*
X69585084Y-43545496D01*
X69590304Y-43532895D01*
X69604255Y-43499213D01*
X69641658Y-43408914D01*
X69660743Y-43312969D01*
X69670500Y-43263921D01*
X69670500Y-43116080D01*
X69641659Y-42971093D01*
X69641658Y-42971092D01*
X69641658Y-42971088D01*
X69639336Y-42965482D01*
X69585087Y-42834512D01*
X69585080Y-42834499D01*
X69502951Y-42711585D01*
X69502948Y-42711581D01*
X69398419Y-42607052D01*
X69398415Y-42607049D01*
X69275501Y-42524920D01*
X69275488Y-42524913D01*
X69138917Y-42468344D01*
X69138907Y-42468341D01*
X68993920Y-42439501D01*
X68993918Y-42439501D01*
X68846082Y-42439501D01*
X68846080Y-42439501D01*
X68701092Y-42468341D01*
X68701082Y-42468344D01*
X68564511Y-42524913D01*
X68564498Y-42524920D01*
X68441584Y-42607049D01*
X68441580Y-42607052D01*
X68337051Y-42711581D01*
X68337048Y-42711585D01*
X68254919Y-42834499D01*
X68254912Y-42834512D01*
X68198343Y-42971083D01*
X68198340Y-42971093D01*
X68169500Y-43116080D01*
X68169500Y-43116083D01*
X68169500Y-43263919D01*
X68169500Y-43263921D01*
X68169499Y-43263921D01*
X49766933Y-43263921D01*
X49800576Y-43138361D01*
X49800576Y-43006577D01*
X49766468Y-42879283D01*
X49700576Y-42765155D01*
X49607390Y-42671969D01*
X49550326Y-42639023D01*
X49493263Y-42606077D01*
X49407017Y-42582968D01*
X49365968Y-42571969D01*
X49234184Y-42571969D01*
X49106888Y-42606077D01*
X48992762Y-42671969D01*
X48992759Y-42671971D01*
X48899578Y-42765152D01*
X48899576Y-42765155D01*
X48833683Y-42879283D01*
X48833682Y-42879285D01*
X48832528Y-42883595D01*
X48796161Y-42943253D01*
X48733313Y-42973780D01*
X48663938Y-42965482D01*
X48610062Y-42920995D01*
X48592980Y-42883588D01*
X48591827Y-42879285D01*
X48586468Y-42859283D01*
X48520576Y-42745155D01*
X48427390Y-42651969D01*
X48349592Y-42607052D01*
X48313263Y-42586077D01*
X48249615Y-42569023D01*
X48185968Y-42551969D01*
X48054184Y-42551969D01*
X47926888Y-42586077D01*
X47812762Y-42651969D01*
X47812759Y-42651971D01*
X47719578Y-42745152D01*
X47719576Y-42745155D01*
X47653684Y-42859281D01*
X47625228Y-42965482D01*
X47619576Y-42986577D01*
X41538375Y-42986577D01*
X41540576Y-42978361D01*
X41540576Y-42846577D01*
X41506468Y-42719283D01*
X41440576Y-42605155D01*
X41347390Y-42511969D01*
X41290326Y-42479023D01*
X41233263Y-42446077D01*
X41169615Y-42429023D01*
X41105968Y-42411969D01*
X40974184Y-42411969D01*
X40846888Y-42446077D01*
X40732762Y-42511969D01*
X40732759Y-42511971D01*
X40639578Y-42605152D01*
X40639576Y-42605155D01*
X40573684Y-42719281D01*
X40542812Y-42834499D01*
X40539576Y-42846577D01*
X40539576Y-42978361D01*
X40547137Y-43006579D01*
X40575425Y-43112152D01*
X40573762Y-43182002D01*
X40534599Y-43239864D01*
X40487744Y-43264019D01*
X40481634Y-43265657D01*
X40405837Y-43285966D01*
X40405836Y-43285967D01*
X40308816Y-43341982D01*
X40308810Y-43341986D01*
X40229593Y-43421203D01*
X40229589Y-43421209D01*
X40173574Y-43518229D01*
X40173573Y-43518232D01*
X40144576Y-43626451D01*
X37823294Y-43626451D01*
X37808793Y-43611950D01*
X37808785Y-43611944D01*
X37671866Y-43532895D01*
X37671862Y-43532893D01*
X37671860Y-43532892D01*
X37519133Y-43491969D01*
X37361019Y-43491969D01*
X37208292Y-43532892D01*
X37208285Y-43532895D01*
X37071366Y-43611944D01*
X37071358Y-43611950D01*
X36959557Y-43723751D01*
X36959551Y-43723759D01*
X36880502Y-43860678D01*
X36880499Y-43860685D01*
X36839576Y-44013412D01*
X19678833Y-44013412D01*
X19627390Y-43961969D01*
X19566768Y-43926969D01*
X19513263Y-43896077D01*
X19449615Y-43879023D01*
X19385968Y-43861969D01*
X19254184Y-43861969D01*
X19126888Y-43896077D01*
X19012762Y-43961969D01*
X19012759Y-43961971D01*
X18919578Y-44055152D01*
X18919576Y-44055155D01*
X18853684Y-44169281D01*
X18819576Y-44296577D01*
X17270576Y-44296577D01*
X17270576Y-44286577D01*
X17236468Y-44159283D01*
X17170576Y-44045155D01*
X17077390Y-43951969D01*
X17007568Y-43911657D01*
X16963263Y-43886077D01*
X16899615Y-43869023D01*
X16835968Y-43851969D01*
X16704184Y-43851969D01*
X16576888Y-43886077D01*
X16462762Y-43951969D01*
X16462759Y-43951971D01*
X16369578Y-44045152D01*
X16369576Y-44045155D01*
X16303684Y-44159281D01*
X16295928Y-44188229D01*
X16269576Y-44286577D01*
X6590500Y-44286577D01*
X6590500Y-42116577D01*
X44049576Y-42116577D01*
X44049576Y-42248360D01*
X44083684Y-42375656D01*
X44104650Y-42411969D01*
X44149576Y-42489783D01*
X44242762Y-42582969D01*
X44356890Y-42648861D01*
X44484184Y-42682969D01*
X44484186Y-42682969D01*
X44615966Y-42682969D01*
X44615968Y-42682969D01*
X44743262Y-42648861D01*
X44857390Y-42582969D01*
X44950576Y-42489783D01*
X45016468Y-42375655D01*
X45050576Y-42248361D01*
X45050576Y-42116577D01*
X45016468Y-41989283D01*
X44950576Y-41875155D01*
X44857390Y-41781969D01*
X44800326Y-41749023D01*
X44743263Y-41716077D01*
X44679615Y-41699023D01*
X44615968Y-41681969D01*
X44484184Y-41681969D01*
X44356888Y-41716077D01*
X44242762Y-41781969D01*
X44242759Y-41781971D01*
X44149578Y-41875152D01*
X44149576Y-41875155D01*
X44083684Y-41989281D01*
X44049576Y-42116577D01*
X6590500Y-42116577D01*
X6590500Y-40216577D01*
X54119576Y-40216577D01*
X54119576Y-40348360D01*
X54153684Y-40475656D01*
X54186630Y-40532719D01*
X54219576Y-40589783D01*
X54312762Y-40682969D01*
X54426890Y-40748861D01*
X54554184Y-40782969D01*
X54554186Y-40782969D01*
X54685966Y-40782969D01*
X54685968Y-40782969D01*
X54813262Y-40748861D01*
X54927390Y-40682969D01*
X55020576Y-40589783D01*
X55086468Y-40475655D01*
X55120576Y-40348361D01*
X55120576Y-40216577D01*
X55086468Y-40089283D01*
X55020576Y-39975155D01*
X54927390Y-39881969D01*
X54921643Y-39876222D01*
X54922912Y-39874952D01*
X54887655Y-39826675D01*
X54883495Y-39756929D01*
X54917703Y-39696006D01*
X54928858Y-39686339D01*
X54931401Y-39684386D01*
X54931413Y-39684380D01*
X55024599Y-39591194D01*
X55090491Y-39477066D01*
X55124599Y-39349772D01*
X55124599Y-39217988D01*
X55090491Y-39090694D01*
X55024599Y-38976566D01*
X54931413Y-38883380D01*
X54874349Y-38850434D01*
X54817286Y-38817488D01*
X54753638Y-38800434D01*
X54689991Y-38783380D01*
X54558207Y-38783380D01*
X54430911Y-38817488D01*
X54316785Y-38883380D01*
X54316782Y-38883382D01*
X54223601Y-38976563D01*
X54223599Y-38976566D01*
X54157707Y-39090692D01*
X54144183Y-39141166D01*
X54123599Y-39217988D01*
X54123599Y-39349772D01*
X54138573Y-39405655D01*
X54157707Y-39477067D01*
X54182369Y-39519782D01*
X54223599Y-39591194D01*
X54223601Y-39591196D01*
X54322532Y-39690127D01*
X54321262Y-39691396D01*
X54356518Y-39739670D01*
X54360680Y-39809416D01*
X54326474Y-39870339D01*
X54315328Y-39879999D01*
X54312764Y-39881966D01*
X54219578Y-39975152D01*
X54219576Y-39975155D01*
X54153684Y-40089281D01*
X54119576Y-40216577D01*
X6590500Y-40216577D01*
X6590500Y-38693400D01*
X29149576Y-38693400D01*
X29149576Y-38851514D01*
X29158115Y-38883380D01*
X29190499Y-39004240D01*
X29190502Y-39004247D01*
X29269551Y-39141166D01*
X29269555Y-39141171D01*
X29269556Y-39141173D01*
X29381360Y-39252977D01*
X29381362Y-39252978D01*
X29381366Y-39252981D01*
X29459966Y-39298360D01*
X29518292Y-39332034D01*
X29671019Y-39372957D01*
X29671021Y-39372957D01*
X29829131Y-39372957D01*
X29829133Y-39372957D01*
X29981860Y-39332034D01*
X30118792Y-39252977D01*
X30225192Y-39146577D01*
X39089576Y-39146577D01*
X39089576Y-39278361D01*
X39094935Y-39298360D01*
X39123684Y-39405656D01*
X39156630Y-39462719D01*
X39189576Y-39519783D01*
X39282762Y-39612969D01*
X39396890Y-39678861D01*
X39524184Y-39712969D01*
X39524186Y-39712969D01*
X39655966Y-39712969D01*
X39655968Y-39712969D01*
X39783262Y-39678861D01*
X39897390Y-39612969D01*
X39990576Y-39519783D01*
X40056468Y-39405655D01*
X40090576Y-39278361D01*
X40090576Y-39166577D01*
X44049576Y-39166577D01*
X44049576Y-39298361D01*
X44058598Y-39332033D01*
X44083684Y-39425656D01*
X44113366Y-39477066D01*
X44149576Y-39539783D01*
X44242762Y-39632969D01*
X44356890Y-39698861D01*
X44484184Y-39732969D01*
X44484186Y-39732969D01*
X44615966Y-39732969D01*
X44615968Y-39732969D01*
X44743262Y-39698861D01*
X44857390Y-39632969D01*
X44950576Y-39539783D01*
X45016468Y-39425655D01*
X45050576Y-39298361D01*
X45050576Y-39166577D01*
X46579576Y-39166577D01*
X46579576Y-39298361D01*
X46588598Y-39332033D01*
X46613684Y-39425656D01*
X46643366Y-39477066D01*
X46679576Y-39539783D01*
X46772762Y-39632969D01*
X46886890Y-39698861D01*
X47014184Y-39732969D01*
X47014186Y-39732969D01*
X47145966Y-39732969D01*
X47145968Y-39732969D01*
X47273262Y-39698861D01*
X47387390Y-39632969D01*
X47480576Y-39539783D01*
X47546468Y-39425655D01*
X47580576Y-39298361D01*
X47580576Y-39166577D01*
X47577897Y-39156577D01*
X49189576Y-39156577D01*
X49189576Y-39288361D01*
X49201277Y-39332030D01*
X49223684Y-39415656D01*
X49229458Y-39425656D01*
X49289576Y-39529783D01*
X49382762Y-39622969D01*
X49496890Y-39688861D01*
X49624184Y-39722969D01*
X49624186Y-39722969D01*
X49755966Y-39722969D01*
X49755968Y-39722969D01*
X49883262Y-39688861D01*
X49997390Y-39622969D01*
X50090576Y-39529783D01*
X50156468Y-39415655D01*
X50190576Y-39288361D01*
X50190576Y-39156577D01*
X50156468Y-39029283D01*
X50150694Y-39019283D01*
X50142009Y-39004240D01*
X50090576Y-38915155D01*
X49997390Y-38821969D01*
X49930552Y-38783380D01*
X49883263Y-38756077D01*
X49819615Y-38739023D01*
X49755968Y-38721969D01*
X49624184Y-38721969D01*
X49496888Y-38756077D01*
X49382762Y-38821969D01*
X49382759Y-38821971D01*
X49289578Y-38915152D01*
X49289576Y-38915155D01*
X49223684Y-39029281D01*
X49193703Y-39141173D01*
X49189576Y-39156577D01*
X47577897Y-39156577D01*
X47546468Y-39039283D01*
X47540694Y-39029283D01*
X47510256Y-38976563D01*
X47480576Y-38925155D01*
X47387390Y-38831969D01*
X47303232Y-38783380D01*
X47273263Y-38766077D01*
X47198620Y-38746077D01*
X47145968Y-38731969D01*
X47014184Y-38731969D01*
X46886888Y-38766077D01*
X46772762Y-38831969D01*
X46772759Y-38831971D01*
X46679578Y-38925152D01*
X46679576Y-38925155D01*
X46613684Y-39039281D01*
X46586385Y-39141166D01*
X46579576Y-39166577D01*
X45050576Y-39166577D01*
X45016468Y-39039283D01*
X45010694Y-39029283D01*
X44980256Y-38976563D01*
X44950576Y-38925155D01*
X44857390Y-38831969D01*
X44773232Y-38783380D01*
X44743263Y-38766077D01*
X44668620Y-38746077D01*
X44615968Y-38731969D01*
X44484184Y-38731969D01*
X44356888Y-38766077D01*
X44242762Y-38831969D01*
X44242759Y-38831971D01*
X44149578Y-38925152D01*
X44149576Y-38925155D01*
X44083684Y-39039281D01*
X44056385Y-39141166D01*
X44049576Y-39166577D01*
X40090576Y-39166577D01*
X40090576Y-39146577D01*
X40056468Y-39019283D01*
X39990576Y-38905155D01*
X39897390Y-38811969D01*
X39817903Y-38766077D01*
X39783263Y-38746077D01*
X39719615Y-38729023D01*
X39655968Y-38711969D01*
X39524184Y-38711969D01*
X39396888Y-38746077D01*
X39282762Y-38811969D01*
X39282759Y-38811971D01*
X39189578Y-38905152D01*
X39189576Y-38905155D01*
X39123684Y-39019281D01*
X39091026Y-39141166D01*
X39089576Y-39146577D01*
X30225192Y-39146577D01*
X30230596Y-39141173D01*
X30259741Y-39090692D01*
X30267964Y-39076450D01*
X30281900Y-39052310D01*
X30309653Y-39004241D01*
X30350576Y-38851514D01*
X30350576Y-38693400D01*
X30309653Y-38540673D01*
X30309649Y-38540666D01*
X30230600Y-38403747D01*
X30230594Y-38403739D01*
X30118793Y-38291938D01*
X30118785Y-38291932D01*
X29981866Y-38212883D01*
X29981862Y-38212881D01*
X29981860Y-38212880D01*
X29829133Y-38171957D01*
X29671019Y-38171957D01*
X29518292Y-38212880D01*
X29518285Y-38212883D01*
X29381366Y-38291932D01*
X29381358Y-38291938D01*
X29269557Y-38403739D01*
X29269551Y-38403747D01*
X29190502Y-38540666D01*
X29190499Y-38540673D01*
X29149576Y-38693400D01*
X6590500Y-38693400D01*
X6590500Y-37322541D01*
X41633572Y-37322541D01*
X41633572Y-37454324D01*
X41667680Y-37581620D01*
X41700626Y-37638683D01*
X41733572Y-37695747D01*
X41826758Y-37788933D01*
X41940886Y-37854825D01*
X42068180Y-37888933D01*
X42068182Y-37888933D01*
X42199962Y-37888933D01*
X42199964Y-37888933D01*
X42327258Y-37854825D01*
X42441386Y-37788933D01*
X42534572Y-37695747D01*
X42600464Y-37581619D01*
X42634572Y-37454325D01*
X42634572Y-37322541D01*
X42600464Y-37195247D01*
X42534572Y-37081119D01*
X42441386Y-36987933D01*
X42384322Y-36954987D01*
X42327259Y-36922041D01*
X42263611Y-36904987D01*
X42199964Y-36887933D01*
X42068180Y-36887933D01*
X41940884Y-36922041D01*
X41826758Y-36987933D01*
X41826755Y-36987935D01*
X41733574Y-37081116D01*
X41733572Y-37081119D01*
X41667680Y-37195245D01*
X41633572Y-37322541D01*
X6590500Y-37322541D01*
X6590500Y-35106577D01*
X39859576Y-35106577D01*
X39859576Y-35238361D01*
X39876630Y-35302008D01*
X39893684Y-35365656D01*
X39918659Y-35408913D01*
X39959576Y-35479783D01*
X40052762Y-35572969D01*
X40166890Y-35638861D01*
X40294184Y-35672969D01*
X40294186Y-35672969D01*
X40425966Y-35672969D01*
X40425968Y-35672969D01*
X40553262Y-35638861D01*
X40667390Y-35572969D01*
X40760576Y-35479783D01*
X40826468Y-35365655D01*
X40853728Y-35263920D01*
X68169499Y-35263920D01*
X68198340Y-35408907D01*
X68198343Y-35408917D01*
X68254912Y-35545488D01*
X68254919Y-35545501D01*
X68337048Y-35668415D01*
X68337051Y-35668419D01*
X68441580Y-35772948D01*
X68441584Y-35772951D01*
X68564498Y-35855080D01*
X68564511Y-35855087D01*
X68701082Y-35911656D01*
X68701087Y-35911658D01*
X68701091Y-35911658D01*
X68701092Y-35911659D01*
X68846079Y-35940500D01*
X68846082Y-35940500D01*
X68993920Y-35940500D01*
X69091462Y-35921096D01*
X69138913Y-35911658D01*
X69275495Y-35855084D01*
X69398416Y-35772951D01*
X69502951Y-35668416D01*
X69585084Y-35545495D01*
X69641658Y-35408913D01*
X69670500Y-35263918D01*
X69670500Y-35116082D01*
X69670500Y-35116079D01*
X69641659Y-34971092D01*
X69641658Y-34971091D01*
X69641658Y-34971087D01*
X69597780Y-34865155D01*
X69585087Y-34834511D01*
X69585080Y-34834498D01*
X69502951Y-34711584D01*
X69502948Y-34711580D01*
X69398419Y-34607051D01*
X69398415Y-34607048D01*
X69275501Y-34524919D01*
X69275488Y-34524912D01*
X69138917Y-34468343D01*
X69138907Y-34468340D01*
X68993920Y-34439500D01*
X68993918Y-34439500D01*
X68846082Y-34439500D01*
X68846080Y-34439500D01*
X68701092Y-34468340D01*
X68701082Y-34468343D01*
X68564511Y-34524912D01*
X68564498Y-34524919D01*
X68441584Y-34607048D01*
X68441580Y-34607051D01*
X68337051Y-34711580D01*
X68337048Y-34711584D01*
X68254919Y-34834498D01*
X68254912Y-34834511D01*
X68198343Y-34971082D01*
X68198340Y-34971092D01*
X68169500Y-35116079D01*
X68169500Y-35116082D01*
X68169500Y-35263918D01*
X68169500Y-35263920D01*
X68169499Y-35263920D01*
X40853728Y-35263920D01*
X40860576Y-35238361D01*
X40860576Y-35106577D01*
X40826468Y-34979283D01*
X40760576Y-34865155D01*
X40667390Y-34771969D01*
X40610326Y-34739023D01*
X40553263Y-34706077D01*
X40489615Y-34689023D01*
X40425968Y-34671969D01*
X40294184Y-34671969D01*
X40166888Y-34706077D01*
X40052762Y-34771969D01*
X40052759Y-34771971D01*
X39959578Y-34865152D01*
X39959576Y-34865155D01*
X39893684Y-34979281D01*
X39859576Y-35106577D01*
X6590500Y-35106577D01*
X6590500Y-31603412D01*
X13119576Y-31603412D01*
X13119576Y-31761525D01*
X13160499Y-31914252D01*
X13160502Y-31914259D01*
X13239551Y-32051178D01*
X13239555Y-32051183D01*
X13239556Y-32051185D01*
X13351360Y-32162989D01*
X13351362Y-32162990D01*
X13351366Y-32162993D01*
X13488285Y-32242042D01*
X13488292Y-32242046D01*
X13641019Y-32282969D01*
X13641021Y-32282969D01*
X13799131Y-32282969D01*
X13799133Y-32282969D01*
X13951860Y-32242046D01*
X14088792Y-32162989D01*
X14132395Y-32119386D01*
X14193718Y-32085901D01*
X14263410Y-32090885D01*
X14307757Y-32119386D01*
X14351360Y-32162989D01*
X14351362Y-32162990D01*
X14351366Y-32162993D01*
X14488285Y-32242042D01*
X14488292Y-32242046D01*
X14641019Y-32282969D01*
X14641021Y-32282969D01*
X14799131Y-32282969D01*
X14799133Y-32282969D01*
X14951860Y-32242046D01*
X15088792Y-32162989D01*
X15200596Y-32051185D01*
X15279653Y-31914253D01*
X15320576Y-31761526D01*
X15320576Y-31603412D01*
X15279653Y-31450685D01*
X15220076Y-31347493D01*
X15200600Y-31313759D01*
X15200594Y-31313751D01*
X15088793Y-31201950D01*
X15088785Y-31201944D01*
X14951866Y-31122895D01*
X14951862Y-31122893D01*
X14951860Y-31122892D01*
X14799133Y-31081969D01*
X14641019Y-31081969D01*
X14488292Y-31122892D01*
X14488285Y-31122895D01*
X14351366Y-31201944D01*
X14351358Y-31201950D01*
X14307757Y-31245552D01*
X14246434Y-31279037D01*
X14176742Y-31274053D01*
X14132395Y-31245552D01*
X14088793Y-31201950D01*
X14088785Y-31201944D01*
X13951866Y-31122895D01*
X13951862Y-31122893D01*
X13951860Y-31122892D01*
X13799133Y-31081969D01*
X13641019Y-31081969D01*
X13488292Y-31122892D01*
X13488285Y-31122895D01*
X13351366Y-31201944D01*
X13351358Y-31201950D01*
X13239557Y-31313751D01*
X13239551Y-31313759D01*
X13160502Y-31450678D01*
X13160499Y-31450685D01*
X13119576Y-31603412D01*
X6590500Y-31603412D01*
X6590500Y-29336577D01*
X46569576Y-29336577D01*
X46569576Y-29468360D01*
X46603684Y-29595656D01*
X46636630Y-29652719D01*
X46669576Y-29709783D01*
X46762762Y-29802969D01*
X46806325Y-29828120D01*
X46807402Y-29828742D01*
X46855618Y-29879309D01*
X46868840Y-29947916D01*
X46842872Y-30012781D01*
X46807404Y-30043515D01*
X46792765Y-30051966D01*
X46792759Y-30051971D01*
X46699578Y-30145152D01*
X46699576Y-30145155D01*
X46633684Y-30259281D01*
X46599576Y-30386577D01*
X46599576Y-30518360D01*
X46633684Y-30645656D01*
X46666630Y-30702719D01*
X46699576Y-30759783D01*
X46792762Y-30852969D01*
X46906890Y-30918861D01*
X47034184Y-30952969D01*
X47034186Y-30952969D01*
X47165966Y-30952969D01*
X47165968Y-30952969D01*
X47293262Y-30918861D01*
X47407390Y-30852969D01*
X47500576Y-30759783D01*
X47566468Y-30645655D01*
X47600576Y-30518361D01*
X47600576Y-30386577D01*
X47566468Y-30259283D01*
X47500576Y-30145155D01*
X47407390Y-30051969D01*
X47362747Y-30026194D01*
X47314533Y-29975627D01*
X47301311Y-29907020D01*
X47327279Y-29842156D01*
X47362750Y-29811421D01*
X47377390Y-29802969D01*
X47470576Y-29709783D01*
X47536468Y-29595655D01*
X47570576Y-29468361D01*
X47570576Y-29336577D01*
X47536468Y-29209283D01*
X47470576Y-29095155D01*
X47377390Y-29001969D01*
X47320326Y-28969023D01*
X47263263Y-28936077D01*
X47199615Y-28919023D01*
X47135968Y-28901969D01*
X47004184Y-28901969D01*
X46876888Y-28936077D01*
X46762762Y-29001969D01*
X46762759Y-29001971D01*
X46669578Y-29095152D01*
X46669576Y-29095155D01*
X46603684Y-29209281D01*
X46569576Y-29336577D01*
X6590500Y-29336577D01*
X6590500Y-26573412D01*
X13129576Y-26573412D01*
X13129576Y-26731526D01*
X13166241Y-26868360D01*
X13170499Y-26884252D01*
X13170502Y-26884259D01*
X13249551Y-27021178D01*
X13249555Y-27021183D01*
X13249556Y-27021185D01*
X13361360Y-27132989D01*
X13361362Y-27132990D01*
X13361366Y-27132993D01*
X13482565Y-27202966D01*
X13498292Y-27212046D01*
X13651019Y-27252969D01*
X13651021Y-27252969D01*
X13809131Y-27252969D01*
X13809133Y-27252969D01*
X13961860Y-27212046D01*
X14098792Y-27132989D01*
X14142395Y-27089386D01*
X14203718Y-27055901D01*
X14273410Y-27060885D01*
X14317757Y-27089386D01*
X14361360Y-27132989D01*
X14361362Y-27132990D01*
X14361366Y-27132993D01*
X14482565Y-27202966D01*
X14498292Y-27212046D01*
X14651019Y-27252969D01*
X14651021Y-27252969D01*
X14809131Y-27252969D01*
X14809133Y-27252969D01*
X14961860Y-27212046D01*
X15098792Y-27132989D01*
X15210596Y-27021185D01*
X15289653Y-26884253D01*
X15330576Y-26731526D01*
X15330576Y-26573412D01*
X15304629Y-26476577D01*
X29869576Y-26476577D01*
X29869576Y-26608360D01*
X29903684Y-26735656D01*
X29904216Y-26736577D01*
X29969576Y-26849783D01*
X29969578Y-26849785D01*
X30009580Y-26889787D01*
X30043065Y-26951110D01*
X30038081Y-27020802D01*
X30009583Y-27065147D01*
X29979576Y-27095155D01*
X29913684Y-27209281D01*
X29879576Y-27336577D01*
X29879576Y-27468360D01*
X29913684Y-27595656D01*
X29946630Y-27652719D01*
X29979576Y-27709783D01*
X30072762Y-27802969D01*
X30186890Y-27868861D01*
X30314184Y-27902969D01*
X30314186Y-27902969D01*
X30445966Y-27902969D01*
X30445968Y-27902969D01*
X30573262Y-27868861D01*
X30687390Y-27802969D01*
X30780576Y-27709783D01*
X30846468Y-27595655D01*
X30880576Y-27468361D01*
X30880576Y-27336577D01*
X30846468Y-27209283D01*
X30780576Y-27095155D01*
X30740571Y-27055150D01*
X30707086Y-26993827D01*
X30712070Y-26924135D01*
X30740571Y-26879788D01*
X30752000Y-26868359D01*
X30770576Y-26849783D01*
X30835936Y-26736577D01*
X49079576Y-26736577D01*
X49079576Y-26868360D01*
X49113684Y-26995656D01*
X49128424Y-27021186D01*
X49179576Y-27109783D01*
X49272762Y-27202969D01*
X49386890Y-27268861D01*
X49514184Y-27302969D01*
X49514186Y-27302969D01*
X49645966Y-27302969D01*
X49645968Y-27302969D01*
X49773262Y-27268861D01*
X49887390Y-27202969D01*
X49980576Y-27109783D01*
X50046468Y-26995655D01*
X50080576Y-26868361D01*
X50080576Y-26736577D01*
X50046468Y-26609283D01*
X49980576Y-26495155D01*
X49887390Y-26401969D01*
X49830326Y-26369023D01*
X49773263Y-26336077D01*
X49703905Y-26317493D01*
X49645968Y-26301969D01*
X49514184Y-26301969D01*
X49386888Y-26336077D01*
X49272762Y-26401969D01*
X49272759Y-26401971D01*
X49179578Y-26495152D01*
X49179576Y-26495155D01*
X49113684Y-26609281D01*
X49079576Y-26736577D01*
X30835936Y-26736577D01*
X30836468Y-26735655D01*
X30870576Y-26608361D01*
X30870576Y-26476577D01*
X30836468Y-26349283D01*
X30828843Y-26336077D01*
X30809151Y-26301969D01*
X30770576Y-26235155D01*
X30677390Y-26141969D01*
X30592392Y-26092895D01*
X30563263Y-26076077D01*
X30499615Y-26059023D01*
X30435968Y-26041969D01*
X30304184Y-26041969D01*
X30176888Y-26076077D01*
X30062762Y-26141969D01*
X30062759Y-26141971D01*
X29969578Y-26235152D01*
X29969576Y-26235155D01*
X29903684Y-26349281D01*
X29869576Y-26476577D01*
X15304629Y-26476577D01*
X15289653Y-26420685D01*
X15278849Y-26401971D01*
X15210600Y-26283759D01*
X15210594Y-26283751D01*
X15098793Y-26171950D01*
X15098785Y-26171944D01*
X14961866Y-26092895D01*
X14961862Y-26092893D01*
X14961860Y-26092892D01*
X14809133Y-26051969D01*
X14651019Y-26051969D01*
X14498292Y-26092892D01*
X14498285Y-26092895D01*
X14361366Y-26171944D01*
X14361358Y-26171950D01*
X14317757Y-26215552D01*
X14256434Y-26249037D01*
X14186742Y-26244053D01*
X14142395Y-26215552D01*
X14098793Y-26171950D01*
X14098785Y-26171944D01*
X13961866Y-26092895D01*
X13961862Y-26092893D01*
X13961860Y-26092892D01*
X13809133Y-26051969D01*
X13651019Y-26051969D01*
X13498292Y-26092892D01*
X13498285Y-26092895D01*
X13361366Y-26171944D01*
X13361358Y-26171950D01*
X13249557Y-26283751D01*
X13249551Y-26283759D01*
X13170502Y-26420678D01*
X13170499Y-26420685D01*
X13129576Y-26573412D01*
X6590500Y-26573412D01*
X6590500Y-25286577D01*
X46549576Y-25286577D01*
X46549576Y-25418360D01*
X46583684Y-25545656D01*
X46616630Y-25602719D01*
X46649576Y-25659783D01*
X46742762Y-25752969D01*
X46856890Y-25818861D01*
X46984184Y-25852969D01*
X46984186Y-25852969D01*
X47115966Y-25852969D01*
X47115968Y-25852969D01*
X47243262Y-25818861D01*
X47357390Y-25752969D01*
X47450576Y-25659783D01*
X47516468Y-25545655D01*
X47550576Y-25418361D01*
X47550576Y-25286577D01*
X47516468Y-25159283D01*
X47450576Y-25045155D01*
X47357390Y-24951969D01*
X47292748Y-24914648D01*
X47243263Y-24886077D01*
X47179615Y-24869023D01*
X47115968Y-24851969D01*
X46984184Y-24851969D01*
X46856888Y-24886077D01*
X46742762Y-24951969D01*
X46742759Y-24951971D01*
X46649578Y-25045152D01*
X46649576Y-25045155D01*
X46583684Y-25159281D01*
X46549576Y-25286577D01*
X6590500Y-25286577D01*
X6590500Y-24846577D01*
X49079576Y-24846577D01*
X49079576Y-24978360D01*
X49113684Y-25105656D01*
X49144645Y-25159281D01*
X49179576Y-25219783D01*
X49272762Y-25312969D01*
X49386890Y-25378861D01*
X49514184Y-25412969D01*
X49514186Y-25412969D01*
X49645966Y-25412969D01*
X49645968Y-25412969D01*
X49773262Y-25378861D01*
X49887390Y-25312969D01*
X49980576Y-25219783D01*
X50046468Y-25105655D01*
X50080576Y-24978361D01*
X50080576Y-24846577D01*
X50046468Y-24719283D01*
X49980576Y-24605155D01*
X49887390Y-24511969D01*
X49802518Y-24462968D01*
X49773263Y-24446077D01*
X49709007Y-24428860D01*
X49645968Y-24411969D01*
X49514184Y-24411969D01*
X49386888Y-24446077D01*
X49272762Y-24511969D01*
X49272759Y-24511971D01*
X49179578Y-24605152D01*
X49179576Y-24605155D01*
X49113684Y-24719281D01*
X49079576Y-24846577D01*
X6590500Y-24846577D01*
X6590500Y-24073992D01*
X30343571Y-24073992D01*
X30343571Y-24205775D01*
X30377679Y-24333071D01*
X30394941Y-24362969D01*
X30443571Y-24447198D01*
X30536757Y-24540384D01*
X30650885Y-24606276D01*
X30778179Y-24640384D01*
X30778181Y-24640384D01*
X30909961Y-24640384D01*
X30909963Y-24640384D01*
X31037257Y-24606276D01*
X31151385Y-24540384D01*
X31244571Y-24447198D01*
X31310463Y-24333070D01*
X31344571Y-24205776D01*
X31344571Y-24073992D01*
X31310463Y-23946698D01*
X31244571Y-23832570D01*
X31151385Y-23739384D01*
X31081925Y-23699281D01*
X31037258Y-23673492D01*
X30968822Y-23655155D01*
X30909963Y-23639384D01*
X30778179Y-23639384D01*
X30650883Y-23673492D01*
X30536757Y-23739384D01*
X30536754Y-23739386D01*
X30443573Y-23832567D01*
X30443571Y-23832570D01*
X30377679Y-23946696D01*
X30343571Y-24073992D01*
X6590500Y-24073992D01*
X6590500Y-23461577D01*
X33179576Y-23461577D01*
X33179576Y-23593361D01*
X33196630Y-23657008D01*
X33213684Y-23720656D01*
X33224497Y-23739384D01*
X33279576Y-23834783D01*
X33372762Y-23927969D01*
X33486890Y-23993861D01*
X33614184Y-24027969D01*
X33614186Y-24027969D01*
X33745966Y-24027969D01*
X33745968Y-24027969D01*
X33873262Y-23993861D01*
X33987390Y-23927969D01*
X34080576Y-23834783D01*
X34146468Y-23720655D01*
X34180576Y-23593361D01*
X34180576Y-23461577D01*
X34146468Y-23334283D01*
X34080576Y-23220155D01*
X33987390Y-23126969D01*
X33915832Y-23085655D01*
X33873263Y-23061077D01*
X33809615Y-23044023D01*
X33745968Y-23026969D01*
X33614184Y-23026969D01*
X33486888Y-23061077D01*
X33372762Y-23126969D01*
X33372759Y-23126971D01*
X33279578Y-23220152D01*
X33279576Y-23220155D01*
X33213684Y-23334281D01*
X33197959Y-23392969D01*
X33179576Y-23461577D01*
X6590500Y-23461577D01*
X6590500Y-22811577D01*
X30354576Y-22811577D01*
X30354576Y-22943360D01*
X30388684Y-23070656D01*
X30420543Y-23125837D01*
X30454576Y-23184783D01*
X30547762Y-23277969D01*
X30645297Y-23334281D01*
X30661886Y-23343859D01*
X30661890Y-23343861D01*
X30789184Y-23377969D01*
X30789186Y-23377969D01*
X30920966Y-23377969D01*
X30920968Y-23377969D01*
X31048262Y-23343861D01*
X31162390Y-23277969D01*
X31255576Y-23184783D01*
X31321468Y-23070655D01*
X31333279Y-23026577D01*
X37454576Y-23026577D01*
X37454576Y-23158361D01*
X37471630Y-23222008D01*
X37488684Y-23285656D01*
X37496842Y-23299785D01*
X37554576Y-23399783D01*
X37554578Y-23399785D01*
X37594581Y-23439788D01*
X37628066Y-23501111D01*
X37623082Y-23570803D01*
X37594581Y-23615150D01*
X37554578Y-23655152D01*
X37554576Y-23655155D01*
X37488684Y-23769281D01*
X37454576Y-23896577D01*
X37454576Y-24028360D01*
X37488684Y-24155656D01*
X37517620Y-24205774D01*
X37554576Y-24269783D01*
X37647762Y-24362969D01*
X37761890Y-24428861D01*
X37889184Y-24462969D01*
X37889186Y-24462969D01*
X38020966Y-24462969D01*
X38020968Y-24462969D01*
X38148262Y-24428861D01*
X38262390Y-24362969D01*
X38355576Y-24269783D01*
X38421468Y-24155655D01*
X38455576Y-24028361D01*
X38455576Y-23896577D01*
X38421468Y-23769283D01*
X38355576Y-23655155D01*
X38315571Y-23615150D01*
X38282086Y-23553827D01*
X38287070Y-23484135D01*
X38315571Y-23439788D01*
X38335083Y-23420276D01*
X38355576Y-23399783D01*
X38421468Y-23285655D01*
X38455576Y-23158361D01*
X38455576Y-23026577D01*
X38421468Y-22899283D01*
X38355576Y-22785155D01*
X38262390Y-22691969D01*
X38205326Y-22659023D01*
X38148263Y-22626077D01*
X38062017Y-22602968D01*
X38020968Y-22591969D01*
X37889184Y-22591969D01*
X37761888Y-22626077D01*
X37647762Y-22691969D01*
X37647759Y-22691971D01*
X37554578Y-22785152D01*
X37554576Y-22785155D01*
X37488684Y-22899281D01*
X37472854Y-22958361D01*
X37454576Y-23026577D01*
X31333279Y-23026577D01*
X31355576Y-22943361D01*
X31355576Y-22811577D01*
X31321468Y-22684283D01*
X31255576Y-22570155D01*
X31162390Y-22476969D01*
X31105326Y-22444023D01*
X31048263Y-22411077D01*
X30978815Y-22392469D01*
X30920968Y-22376969D01*
X30789184Y-22376969D01*
X30661888Y-22411077D01*
X30547762Y-22476969D01*
X30547759Y-22476971D01*
X30454578Y-22570152D01*
X30454576Y-22570155D01*
X30388684Y-22684281D01*
X30354576Y-22811577D01*
X6590500Y-22811577D01*
X6590500Y-21826577D01*
X43489576Y-21826577D01*
X43489576Y-21958360D01*
X43523684Y-22085656D01*
X43556630Y-22142719D01*
X43589576Y-22199783D01*
X43589578Y-22199785D01*
X43682763Y-22292970D01*
X43684234Y-22294099D01*
X43685159Y-22295366D01*
X43688509Y-22298716D01*
X43687986Y-22299238D01*
X43725432Y-22350529D01*
X43729582Y-22420276D01*
X43695365Y-22481194D01*
X43684234Y-22490839D01*
X43682763Y-22491967D01*
X43589578Y-22585152D01*
X43589576Y-22585155D01*
X43523684Y-22699281D01*
X43489576Y-22826577D01*
X43489576Y-22958360D01*
X43523684Y-23085656D01*
X43546883Y-23125837D01*
X43589576Y-23199783D01*
X43589578Y-23199785D01*
X43682763Y-23292970D01*
X43684234Y-23294099D01*
X43685159Y-23295366D01*
X43688509Y-23298716D01*
X43687986Y-23299238D01*
X43725432Y-23350529D01*
X43729582Y-23420276D01*
X43695365Y-23481194D01*
X43684234Y-23490839D01*
X43682763Y-23491967D01*
X43589578Y-23585152D01*
X43589576Y-23585155D01*
X43523684Y-23699281D01*
X43489576Y-23826577D01*
X43489576Y-23958360D01*
X43523684Y-24085656D01*
X43556630Y-24142719D01*
X43589576Y-24199783D01*
X43682762Y-24292969D01*
X43796890Y-24358861D01*
X43924184Y-24392969D01*
X43924186Y-24392969D01*
X44055966Y-24392969D01*
X44055968Y-24392969D01*
X44183262Y-24358861D01*
X44297390Y-24292969D01*
X44390576Y-24199783D01*
X44456468Y-24085655D01*
X44490576Y-23958361D01*
X44490576Y-23826577D01*
X44456468Y-23699283D01*
X44390576Y-23585155D01*
X44297390Y-23491969D01*
X44297387Y-23491967D01*
X44295923Y-23490844D01*
X44294997Y-23489576D01*
X44291643Y-23486222D01*
X44292166Y-23485698D01*
X44254721Y-23434416D01*
X44250567Y-23364670D01*
X44284780Y-23303750D01*
X44295923Y-23294094D01*
X44297382Y-23292973D01*
X44297390Y-23292969D01*
X44390576Y-23199783D01*
X44456468Y-23085655D01*
X44490576Y-22958361D01*
X44490576Y-22926577D01*
X49089576Y-22926577D01*
X49089576Y-23058361D01*
X49096889Y-23085655D01*
X49123684Y-23185656D01*
X49156630Y-23242719D01*
X49189576Y-23299783D01*
X49282762Y-23392969D01*
X49396890Y-23458861D01*
X49524184Y-23492969D01*
X49524186Y-23492969D01*
X49655966Y-23492969D01*
X49655968Y-23492969D01*
X49783262Y-23458861D01*
X49897390Y-23392969D01*
X49990576Y-23299783D01*
X50056468Y-23185655D01*
X50090576Y-23058361D01*
X50090576Y-22926577D01*
X50056468Y-22799283D01*
X49990576Y-22685155D01*
X49897390Y-22591969D01*
X49840326Y-22559023D01*
X49783263Y-22526077D01*
X49697017Y-22502968D01*
X49655968Y-22491969D01*
X49524184Y-22491969D01*
X49396888Y-22526077D01*
X49282762Y-22591969D01*
X49282759Y-22591971D01*
X49189578Y-22685152D01*
X49189576Y-22685155D01*
X49123684Y-22799281D01*
X49116370Y-22826579D01*
X49089576Y-22926577D01*
X44490576Y-22926577D01*
X44490576Y-22826577D01*
X44456468Y-22699283D01*
X44390576Y-22585155D01*
X44297390Y-22491969D01*
X44297387Y-22491967D01*
X44295923Y-22490844D01*
X44294997Y-22489576D01*
X44291643Y-22486222D01*
X44292166Y-22485698D01*
X44254721Y-22434416D01*
X44250567Y-22364670D01*
X44284780Y-22303750D01*
X44295923Y-22294094D01*
X44297382Y-22292973D01*
X44297390Y-22292969D01*
X44390576Y-22199783D01*
X44456468Y-22085655D01*
X44469618Y-22036577D01*
X57289576Y-22036577D01*
X57289576Y-22168361D01*
X57297996Y-22199785D01*
X57323684Y-22295656D01*
X57355366Y-22350529D01*
X57389576Y-22409783D01*
X57482762Y-22502969D01*
X57596890Y-22568861D01*
X57724184Y-22602969D01*
X57724186Y-22602969D01*
X57855966Y-22602969D01*
X57855968Y-22602969D01*
X57983262Y-22568861D01*
X58097390Y-22502969D01*
X58190576Y-22409783D01*
X58256468Y-22295655D01*
X58290576Y-22168361D01*
X58290576Y-22036577D01*
X58256468Y-21909283D01*
X58190576Y-21795155D01*
X58097390Y-21701969D01*
X58040326Y-21669023D01*
X57983263Y-21636077D01*
X57919615Y-21619023D01*
X57855968Y-21601969D01*
X57724184Y-21601969D01*
X57596888Y-21636077D01*
X57482762Y-21701969D01*
X57482759Y-21701971D01*
X57389578Y-21795152D01*
X57389576Y-21795155D01*
X57323684Y-21909281D01*
X57289576Y-22036577D01*
X44469618Y-22036577D01*
X44490576Y-21958361D01*
X44490576Y-21826577D01*
X44456468Y-21699283D01*
X44390576Y-21585155D01*
X44297390Y-21491969D01*
X44224466Y-21449866D01*
X44183263Y-21426077D01*
X44101283Y-21404111D01*
X44055968Y-21391969D01*
X43924184Y-21391969D01*
X43796888Y-21426077D01*
X43682762Y-21491969D01*
X43682759Y-21491971D01*
X43589578Y-21585152D01*
X43589576Y-21585155D01*
X43523684Y-21699281D01*
X43489576Y-21826577D01*
X6590500Y-21826577D01*
X6590500Y-21260118D01*
X6559976Y-21186426D01*
X6503574Y-21130024D01*
X6501780Y-21129281D01*
X6429883Y-21099500D01*
X6429882Y-21099500D01*
X334500Y-21099500D01*
X267461Y-21079815D01*
X221706Y-21027011D01*
X210500Y-20975500D01*
X210500Y-20261577D01*
X30354576Y-20261577D01*
X30354576Y-20393360D01*
X30388684Y-20520656D01*
X30421630Y-20577719D01*
X30454576Y-20634783D01*
X30547762Y-20727969D01*
X30661890Y-20793861D01*
X30789184Y-20827969D01*
X30789186Y-20827969D01*
X30920966Y-20827969D01*
X30920968Y-20827969D01*
X31048262Y-20793861D01*
X31162390Y-20727969D01*
X31255576Y-20634783D01*
X31321468Y-20520655D01*
X31355576Y-20393361D01*
X31355576Y-20261577D01*
X31321468Y-20134283D01*
X31255576Y-20020155D01*
X31162390Y-19926969D01*
X31105326Y-19894023D01*
X31048263Y-19861077D01*
X30984615Y-19844023D01*
X30920968Y-19826969D01*
X30789184Y-19826969D01*
X30661888Y-19861077D01*
X30547762Y-19926969D01*
X30547759Y-19926971D01*
X30454578Y-20020152D01*
X30454576Y-20020155D01*
X30388684Y-20134281D01*
X30354576Y-20261577D01*
X210500Y-20261577D01*
X210500Y-19616577D01*
X43319576Y-19616577D01*
X43319576Y-19748360D01*
X43353684Y-19875656D01*
X43383310Y-19926969D01*
X43419576Y-19989783D01*
X43512762Y-20082969D01*
X43626890Y-20148861D01*
X43754184Y-20182969D01*
X43754186Y-20182969D01*
X43755576Y-20182969D01*
X43756706Y-20183300D01*
X43762244Y-20184030D01*
X43762130Y-20184893D01*
X43822615Y-20202654D01*
X43868370Y-20255458D01*
X43879576Y-20306969D01*
X43879576Y-20348360D01*
X43913684Y-20475656D01*
X43923103Y-20491969D01*
X43979576Y-20589783D01*
X44072762Y-20682969D01*
X44186890Y-20748861D01*
X44314184Y-20782969D01*
X44314186Y-20782969D01*
X44335576Y-20782969D01*
X44402615Y-20802654D01*
X44448370Y-20855458D01*
X44459576Y-20906969D01*
X44459576Y-20928361D01*
X44472207Y-20975500D01*
X44493684Y-21055656D01*
X44511006Y-21085658D01*
X44559576Y-21169783D01*
X44652762Y-21262969D01*
X44766890Y-21328861D01*
X44894184Y-21362969D01*
X44894186Y-21362969D01*
X45025966Y-21362969D01*
X45025968Y-21362969D01*
X45153262Y-21328861D01*
X45267390Y-21262969D01*
X45360576Y-21169783D01*
X45426468Y-21055655D01*
X45460576Y-20928361D01*
X45460576Y-20826577D01*
X48979576Y-20826577D01*
X48979576Y-20958361D01*
X48988581Y-20991969D01*
X49013684Y-21085656D01*
X49046630Y-21142719D01*
X49079576Y-21199783D01*
X49172762Y-21292969D01*
X49286890Y-21358861D01*
X49414184Y-21392969D01*
X49414185Y-21392969D01*
X49422034Y-21395072D01*
X49421525Y-21396971D01*
X49475644Y-21420903D01*
X49514124Y-21479222D01*
X49519576Y-21515588D01*
X49519576Y-21558361D01*
X49531261Y-21601969D01*
X49553684Y-21685656D01*
X49575227Y-21722968D01*
X49619576Y-21799783D01*
X49712762Y-21892969D01*
X49811597Y-21950032D01*
X49826020Y-21958359D01*
X49826890Y-21958861D01*
X49954184Y-21992969D01*
X49954186Y-21992969D01*
X50085966Y-21992969D01*
X50085968Y-21992969D01*
X50213262Y-21958861D01*
X50327390Y-21892969D01*
X50420576Y-21799783D01*
X50486468Y-21685655D01*
X50520576Y-21558361D01*
X50520576Y-21516905D01*
X50540261Y-21449866D01*
X50593065Y-21404111D01*
X50628394Y-21393965D01*
X50635957Y-21392969D01*
X50635968Y-21392969D01*
X50763262Y-21358861D01*
X50877390Y-21292969D01*
X50913782Y-21256577D01*
X54239576Y-21256577D01*
X54239576Y-21388360D01*
X54273684Y-21515656D01*
X54298339Y-21558359D01*
X54339576Y-21629783D01*
X54432762Y-21722969D01*
X54546890Y-21788861D01*
X54674184Y-21822969D01*
X54674186Y-21822969D01*
X54805966Y-21822969D01*
X54805968Y-21822969D01*
X54933262Y-21788861D01*
X55047390Y-21722969D01*
X55140576Y-21629783D01*
X55206468Y-21515655D01*
X55240576Y-21388361D01*
X55240576Y-21256577D01*
X55206468Y-21129283D01*
X55140576Y-21015155D01*
X55047390Y-20921969D01*
X54990326Y-20889023D01*
X54933263Y-20856077D01*
X54869615Y-20839023D01*
X54805968Y-20821969D01*
X54674184Y-20821969D01*
X54546888Y-20856077D01*
X54432762Y-20921969D01*
X54432759Y-20921971D01*
X54339578Y-21015152D01*
X54339576Y-21015155D01*
X54273684Y-21129281D01*
X54239576Y-21256577D01*
X50913782Y-21256577D01*
X50970576Y-21199783D01*
X51036468Y-21085655D01*
X51070576Y-20958361D01*
X51070576Y-20826577D01*
X51036468Y-20699283D01*
X50970576Y-20585155D01*
X50877390Y-20491969D01*
X50820326Y-20459023D01*
X50763263Y-20426077D01*
X50651299Y-20396077D01*
X50635968Y-20391969D01*
X50504184Y-20391969D01*
X50376888Y-20426077D01*
X50262762Y-20491969D01*
X50262759Y-20491971D01*
X50169578Y-20585152D01*
X50169576Y-20585155D01*
X50132463Y-20649436D01*
X50081895Y-20697651D01*
X50013288Y-20710873D01*
X49948423Y-20684905D01*
X49917689Y-20649436D01*
X49909228Y-20634782D01*
X49880576Y-20585155D01*
X49787390Y-20491969D01*
X49730326Y-20459023D01*
X49673263Y-20426077D01*
X49561299Y-20396077D01*
X49545968Y-20391969D01*
X49414184Y-20391969D01*
X49286888Y-20426077D01*
X49172762Y-20491969D01*
X49172759Y-20491971D01*
X49079578Y-20585152D01*
X49079576Y-20585155D01*
X49013684Y-20699281D01*
X48988342Y-20793860D01*
X48979576Y-20826577D01*
X45460576Y-20826577D01*
X45460576Y-20796577D01*
X45426468Y-20669283D01*
X45360576Y-20555155D01*
X45267390Y-20461969D01*
X45205223Y-20426077D01*
X45153263Y-20396077D01*
X45089615Y-20379023D01*
X45025968Y-20361969D01*
X45004576Y-20361969D01*
X44937537Y-20342284D01*
X44891782Y-20289480D01*
X44880576Y-20237969D01*
X44880576Y-20216579D01*
X44880576Y-20216577D01*
X44846468Y-20089283D01*
X44780576Y-19975155D01*
X44687390Y-19881969D01*
X44630326Y-19849023D01*
X44573263Y-19816077D01*
X44509615Y-19799023D01*
X44445968Y-19781969D01*
X44444576Y-19781969D01*
X44443445Y-19781637D01*
X44437908Y-19780908D01*
X44438021Y-19780044D01*
X44377537Y-19762284D01*
X44331782Y-19709480D01*
X44320576Y-19657969D01*
X44320576Y-19616579D01*
X44320576Y-19616577D01*
X44286468Y-19489283D01*
X44220576Y-19375155D01*
X44127390Y-19281969D01*
X44064494Y-19245656D01*
X44013263Y-19216077D01*
X43949615Y-19199023D01*
X43885968Y-19181969D01*
X43754184Y-19181969D01*
X43626888Y-19216077D01*
X43512762Y-19281969D01*
X43512759Y-19281971D01*
X43419578Y-19375152D01*
X43419576Y-19375155D01*
X43353684Y-19489281D01*
X43319576Y-19616577D01*
X210500Y-19616577D01*
X210500Y-18986577D01*
X30379576Y-18986577D01*
X30379576Y-19118360D01*
X30413684Y-19245656D01*
X30434650Y-19281969D01*
X30479576Y-19359783D01*
X30572762Y-19452969D01*
X30652249Y-19498861D01*
X30686886Y-19518859D01*
X30686890Y-19518861D01*
X30814184Y-19552969D01*
X30814186Y-19552969D01*
X30945966Y-19552969D01*
X30945968Y-19552969D01*
X31073262Y-19518861D01*
X31187390Y-19452969D01*
X31280576Y-19359783D01*
X31346468Y-19245655D01*
X31380576Y-19118361D01*
X31380576Y-18986577D01*
X31375217Y-18966577D01*
X45279576Y-18966577D01*
X45279576Y-19098361D01*
X45284935Y-19118360D01*
X45313684Y-19225656D01*
X45346197Y-19281969D01*
X45379576Y-19339783D01*
X45472762Y-19432969D01*
X45586890Y-19498861D01*
X45714184Y-19532969D01*
X45714186Y-19532969D01*
X45845966Y-19532969D01*
X45845968Y-19532969D01*
X45973262Y-19498861D01*
X46087390Y-19432969D01*
X46180576Y-19339783D01*
X46246468Y-19225655D01*
X46280576Y-19098361D01*
X46280576Y-18966577D01*
X46246468Y-18839283D01*
X46180576Y-18725155D01*
X46087390Y-18631969D01*
X46007903Y-18586077D01*
X45973263Y-18566077D01*
X45909615Y-18549023D01*
X45845968Y-18531969D01*
X45714184Y-18531969D01*
X45586888Y-18566077D01*
X45472762Y-18631969D01*
X45472759Y-18631971D01*
X45379578Y-18725152D01*
X45379576Y-18725155D01*
X45313684Y-18839281D01*
X45308325Y-18859283D01*
X45279576Y-18966577D01*
X31375217Y-18966577D01*
X31346468Y-18859283D01*
X31280576Y-18745155D01*
X31187390Y-18651969D01*
X31130326Y-18619023D01*
X31073263Y-18586077D01*
X30998620Y-18566077D01*
X30945968Y-18551969D01*
X30814184Y-18551969D01*
X30686888Y-18586077D01*
X30572762Y-18651969D01*
X30572759Y-18651971D01*
X30479578Y-18745152D01*
X30479576Y-18745155D01*
X30413684Y-18859281D01*
X30379576Y-18986577D01*
X210500Y-18986577D01*
X210500Y-17736577D01*
X30354576Y-17736577D01*
X30354576Y-17868360D01*
X30388684Y-17995656D01*
X30408387Y-18029782D01*
X30454576Y-18109783D01*
X30547762Y-18202969D01*
X30661890Y-18268861D01*
X30789184Y-18302969D01*
X30789186Y-18302969D01*
X30920966Y-18302969D01*
X30920968Y-18302969D01*
X31048262Y-18268861D01*
X31162390Y-18202969D01*
X31255576Y-18109783D01*
X31321468Y-17995655D01*
X31355576Y-17868361D01*
X31355576Y-17736577D01*
X31345520Y-17699046D01*
X45287152Y-17699046D01*
X45287152Y-17830829D01*
X45321260Y-17958125D01*
X45342929Y-17995656D01*
X45387152Y-18072252D01*
X45480338Y-18165438D01*
X45594466Y-18231330D01*
X45721760Y-18265438D01*
X45721762Y-18265438D01*
X45853542Y-18265438D01*
X45853544Y-18265438D01*
X45980838Y-18231330D01*
X46094966Y-18165438D01*
X46188152Y-18072252D01*
X46254044Y-17958124D01*
X46288152Y-17830830D01*
X46288152Y-17699046D01*
X46276773Y-17656577D01*
X55939576Y-17656577D01*
X55939576Y-17788361D01*
X55956630Y-17852008D01*
X55973684Y-17915656D01*
X55998204Y-17958125D01*
X56039576Y-18029783D01*
X56132762Y-18122969D01*
X56246890Y-18188861D01*
X56374184Y-18222969D01*
X56374186Y-18222969D01*
X56505966Y-18222969D01*
X56505968Y-18222969D01*
X56633262Y-18188861D01*
X56747390Y-18122969D01*
X56840576Y-18029783D01*
X56906468Y-17915655D01*
X56940576Y-17788361D01*
X56940576Y-17656577D01*
X56906468Y-17529283D01*
X56840576Y-17415155D01*
X56747390Y-17321969D01*
X56647744Y-17264438D01*
X56633263Y-17256077D01*
X56569615Y-17239023D01*
X56505968Y-17221969D01*
X56374184Y-17221969D01*
X56246888Y-17256077D01*
X56132762Y-17321969D01*
X56132759Y-17321971D01*
X56039578Y-17415152D01*
X56039576Y-17415155D01*
X55973684Y-17529281D01*
X55952249Y-17609281D01*
X55939576Y-17656577D01*
X46276773Y-17656577D01*
X46254044Y-17571752D01*
X46188152Y-17457624D01*
X46094966Y-17364438D01*
X46021408Y-17321969D01*
X45980839Y-17298546D01*
X45917191Y-17281492D01*
X45853544Y-17264438D01*
X45721760Y-17264438D01*
X45594464Y-17298546D01*
X45480338Y-17364438D01*
X45480335Y-17364440D01*
X45387154Y-17457621D01*
X45387152Y-17457624D01*
X45321260Y-17571750D01*
X45287152Y-17699046D01*
X31345520Y-17699046D01*
X31321468Y-17609283D01*
X31255576Y-17495155D01*
X31162390Y-17401969D01*
X31097385Y-17364438D01*
X31048263Y-17336077D01*
X30984615Y-17319023D01*
X30920968Y-17301969D01*
X30789184Y-17301969D01*
X30661888Y-17336077D01*
X30547762Y-17401969D01*
X30547759Y-17401971D01*
X30454578Y-17495152D01*
X30454576Y-17495155D01*
X30388684Y-17609281D01*
X30354576Y-17736577D01*
X210500Y-17736577D01*
X210500Y-16436577D01*
X30354576Y-16436577D01*
X30354576Y-16568360D01*
X30388684Y-16695656D01*
X30421630Y-16752719D01*
X30454576Y-16809783D01*
X30547762Y-16902969D01*
X30661890Y-16968861D01*
X30789184Y-17002969D01*
X30789186Y-17002969D01*
X30920966Y-17002969D01*
X30920968Y-17002969D01*
X31048262Y-16968861D01*
X31162390Y-16902969D01*
X31255576Y-16809783D01*
X31321468Y-16695655D01*
X31355576Y-16568361D01*
X31355576Y-16436577D01*
X31352658Y-16425687D01*
X45281029Y-16425687D01*
X45281029Y-16557471D01*
X45283947Y-16568360D01*
X45315137Y-16684766D01*
X45348083Y-16741829D01*
X45381029Y-16798893D01*
X45474215Y-16892079D01*
X45588343Y-16957971D01*
X45715637Y-16992079D01*
X45715639Y-16992079D01*
X45847419Y-16992079D01*
X45847421Y-16992079D01*
X45974715Y-16957971D01*
X46088843Y-16892079D01*
X46182029Y-16798893D01*
X46247921Y-16684765D01*
X46282029Y-16557471D01*
X46282029Y-16425687D01*
X46247921Y-16298393D01*
X46182029Y-16184265D01*
X46088843Y-16091079D01*
X46031779Y-16058133D01*
X45974716Y-16025187D01*
X45888063Y-16001969D01*
X45847421Y-15991079D01*
X45715637Y-15991079D01*
X45588341Y-16025187D01*
X45474215Y-16091079D01*
X45474212Y-16091081D01*
X45381031Y-16184262D01*
X45381029Y-16184265D01*
X45315137Y-16298391D01*
X45312219Y-16309283D01*
X45281029Y-16425687D01*
X31352658Y-16425687D01*
X31321468Y-16309283D01*
X31315179Y-16298391D01*
X31312639Y-16293990D01*
X31255576Y-16195155D01*
X31162390Y-16101969D01*
X31105326Y-16069023D01*
X31048263Y-16036077D01*
X30984615Y-16019023D01*
X30920968Y-16001969D01*
X30789184Y-16001969D01*
X30661888Y-16036077D01*
X30547762Y-16101969D01*
X30547759Y-16101971D01*
X30454578Y-16195152D01*
X30454576Y-16195155D01*
X30388684Y-16309281D01*
X30354576Y-16436577D01*
X210500Y-16436577D01*
X210500Y-15186577D01*
X30379576Y-15186577D01*
X30379576Y-15318361D01*
X30393107Y-15368860D01*
X30413684Y-15445656D01*
X30431005Y-15475656D01*
X30479576Y-15559783D01*
X30572762Y-15652969D01*
X30686890Y-15718861D01*
X30814184Y-15752969D01*
X30814186Y-15752969D01*
X30945966Y-15752969D01*
X30945968Y-15752969D01*
X31073262Y-15718861D01*
X31187390Y-15652969D01*
X31280576Y-15559783D01*
X31346468Y-15445655D01*
X31380576Y-15318361D01*
X31380576Y-15186577D01*
X31372606Y-15156834D01*
X45281029Y-15156834D01*
X45281029Y-15288618D01*
X45288998Y-15318359D01*
X45315137Y-15415913D01*
X45348083Y-15472976D01*
X45381029Y-15530040D01*
X45474215Y-15623226D01*
X45588343Y-15689118D01*
X45715637Y-15723226D01*
X45715639Y-15723226D01*
X45847419Y-15723226D01*
X45847421Y-15723226D01*
X45974715Y-15689118D01*
X46088843Y-15623226D01*
X46182029Y-15530040D01*
X46247921Y-15415912D01*
X46282029Y-15288618D01*
X46282029Y-15156834D01*
X46247921Y-15029540D01*
X46182029Y-14915412D01*
X46103194Y-14836577D01*
X49879576Y-14836577D01*
X49879576Y-14968361D01*
X49893017Y-15018523D01*
X49913684Y-15095656D01*
X49926886Y-15118522D01*
X49979576Y-15209783D01*
X50072762Y-15302969D01*
X50186890Y-15368861D01*
X50314184Y-15402969D01*
X50314186Y-15402969D01*
X50445966Y-15402969D01*
X50445968Y-15402969D01*
X50573262Y-15368861D01*
X50687390Y-15302969D01*
X50773782Y-15216577D01*
X60509576Y-15216577D01*
X60509576Y-15348360D01*
X60543684Y-15475656D01*
X60575083Y-15530039D01*
X60609576Y-15589783D01*
X60702762Y-15682969D01*
X60816890Y-15748861D01*
X60944184Y-15782969D01*
X60944186Y-15782969D01*
X61075966Y-15782969D01*
X61075968Y-15782969D01*
X61203262Y-15748861D01*
X61317390Y-15682969D01*
X61410576Y-15589783D01*
X61476468Y-15475655D01*
X61510576Y-15348361D01*
X61510576Y-15216577D01*
X61476468Y-15089283D01*
X61473657Y-15084415D01*
X61459272Y-15059499D01*
X61410576Y-14975155D01*
X61317390Y-14881969D01*
X61260326Y-14849023D01*
X61203263Y-14816077D01*
X61092109Y-14786294D01*
X61075968Y-14781969D01*
X60944184Y-14781969D01*
X60816888Y-14816077D01*
X60702762Y-14881969D01*
X60702759Y-14881971D01*
X60609578Y-14975152D01*
X60609576Y-14975155D01*
X60543684Y-15089281D01*
X60509576Y-15216577D01*
X50773782Y-15216577D01*
X50780576Y-15209783D01*
X50846468Y-15095655D01*
X50880576Y-14968361D01*
X50880576Y-14836577D01*
X50846468Y-14709283D01*
X50780576Y-14595155D01*
X50687390Y-14501969D01*
X50613515Y-14459317D01*
X50573263Y-14436077D01*
X50509615Y-14419023D01*
X50445968Y-14401969D01*
X50314184Y-14401969D01*
X50186888Y-14436077D01*
X50072762Y-14501969D01*
X50072759Y-14501971D01*
X49979578Y-14595152D01*
X49979576Y-14595155D01*
X49913684Y-14709281D01*
X49907701Y-14731611D01*
X49879576Y-14836577D01*
X46103194Y-14836577D01*
X46088843Y-14822226D01*
X46019116Y-14781969D01*
X45974716Y-14756334D01*
X45911068Y-14739280D01*
X45847421Y-14722226D01*
X45715637Y-14722226D01*
X45588341Y-14756334D01*
X45474215Y-14822226D01*
X45474212Y-14822228D01*
X45381031Y-14915409D01*
X45381029Y-14915412D01*
X45315137Y-15029538D01*
X45291294Y-15118523D01*
X45281029Y-15156834D01*
X31372606Y-15156834D01*
X31346468Y-15059283D01*
X31346224Y-15058861D01*
X31322935Y-15018523D01*
X31280576Y-14945155D01*
X31187390Y-14851969D01*
X31099248Y-14801080D01*
X31073263Y-14786077D01*
X31009615Y-14769023D01*
X30945968Y-14751969D01*
X30814184Y-14751969D01*
X30686888Y-14786077D01*
X30572762Y-14851969D01*
X30572759Y-14851971D01*
X30479578Y-14945152D01*
X30479576Y-14945155D01*
X30413684Y-15059281D01*
X30387545Y-15156836D01*
X30379576Y-15186577D01*
X210500Y-15186577D01*
X210500Y-14256495D01*
X1620499Y-14256495D01*
X1647418Y-14391822D01*
X1647421Y-14391832D01*
X1700221Y-14519304D01*
X1700228Y-14519317D01*
X1776885Y-14634041D01*
X1776888Y-14634045D01*
X1874454Y-14731611D01*
X1874458Y-14731614D01*
X1989182Y-14808271D01*
X1989195Y-14808278D01*
X2116667Y-14861078D01*
X2116672Y-14861080D01*
X2116676Y-14861080D01*
X2116677Y-14861081D01*
X2252004Y-14888000D01*
X2252007Y-14888000D01*
X2389995Y-14888000D01*
X2481041Y-14869889D01*
X2525328Y-14861080D01*
X2652811Y-14808275D01*
X2767542Y-14731614D01*
X2865114Y-14634042D01*
X2936920Y-14526577D01*
X42759576Y-14526577D01*
X42759576Y-14658361D01*
X42763127Y-14671614D01*
X42793684Y-14785656D01*
X42808438Y-14811210D01*
X42859576Y-14899783D01*
X42952762Y-14992969D01*
X43016105Y-15029540D01*
X43066886Y-15058859D01*
X43066890Y-15058861D01*
X43194184Y-15092969D01*
X43194186Y-15092969D01*
X43325966Y-15092969D01*
X43325968Y-15092969D01*
X43453262Y-15058861D01*
X43567390Y-14992969D01*
X43660576Y-14899783D01*
X43726468Y-14785655D01*
X43760576Y-14658361D01*
X43760576Y-14526577D01*
X43726468Y-14399283D01*
X43722821Y-14392967D01*
X43717049Y-14382969D01*
X43660576Y-14285155D01*
X43567390Y-14191969D01*
X43496750Y-14151185D01*
X43453263Y-14126077D01*
X43361516Y-14101494D01*
X43325968Y-14091969D01*
X43194184Y-14091969D01*
X43066888Y-14126077D01*
X42952762Y-14191969D01*
X42952759Y-14191971D01*
X42859578Y-14285152D01*
X42859576Y-14285155D01*
X42793684Y-14399281D01*
X42772600Y-14477969D01*
X42759576Y-14526577D01*
X2936920Y-14526577D01*
X2941775Y-14519311D01*
X2994580Y-14391828D01*
X3010716Y-14310706D01*
X3021500Y-14256495D01*
X3021500Y-14118504D01*
X2994581Y-13983177D01*
X2994580Y-13983176D01*
X2994580Y-13983172D01*
X2950427Y-13876577D01*
X8989576Y-13876577D01*
X8989576Y-14008361D01*
X9006274Y-14070679D01*
X9023684Y-14135656D01*
X9045604Y-14173622D01*
X9089576Y-14249783D01*
X9182762Y-14342969D01*
X9296890Y-14408861D01*
X9424184Y-14442969D01*
X9424186Y-14442969D01*
X9555966Y-14442969D01*
X9555968Y-14442969D01*
X9683262Y-14408861D01*
X9797390Y-14342969D01*
X9890576Y-14249783D01*
X9956468Y-14135655D01*
X9990576Y-14008361D01*
X9990576Y-13876577D01*
X9956468Y-13749283D01*
X9929984Y-13703412D01*
X20079576Y-13703412D01*
X20079576Y-13861526D01*
X20118921Y-14008361D01*
X20120499Y-14014252D01*
X20120502Y-14014259D01*
X20199551Y-14151178D01*
X20199555Y-14151183D01*
X20199556Y-14151185D01*
X20311360Y-14262989D01*
X20311362Y-14262990D01*
X20311366Y-14262993D01*
X20432568Y-14332968D01*
X20448292Y-14342046D01*
X20601019Y-14382969D01*
X20601021Y-14382969D01*
X20759131Y-14382969D01*
X20759133Y-14382969D01*
X20911860Y-14342046D01*
X21048792Y-14262989D01*
X21160596Y-14151185D01*
X21171603Y-14132119D01*
X21222169Y-14083904D01*
X21290775Y-14070679D01*
X21355641Y-14096646D01*
X21386378Y-14132117D01*
X21390805Y-14139785D01*
X21395249Y-14147484D01*
X21399556Y-14154943D01*
X21511360Y-14266747D01*
X21511362Y-14266748D01*
X21511366Y-14266751D01*
X21648285Y-14345800D01*
X21648292Y-14345804D01*
X21801019Y-14386727D01*
X21801021Y-14386727D01*
X21959131Y-14386727D01*
X21959133Y-14386727D01*
X22111860Y-14345804D01*
X22248792Y-14266747D01*
X22360596Y-14154943D01*
X22393385Y-14098150D01*
X22443717Y-14010973D01*
X22445093Y-14011767D01*
X22483050Y-13964655D01*
X22549341Y-13942582D01*
X22617043Y-13959852D01*
X22664660Y-14010983D01*
X22668344Y-14019050D01*
X22670499Y-14024254D01*
X22749551Y-14161177D01*
X22749555Y-14161182D01*
X22749556Y-14161184D01*
X22861360Y-14272988D01*
X22861362Y-14272989D01*
X22861366Y-14272992D01*
X22982570Y-14342968D01*
X22998292Y-14352045D01*
X23151019Y-14392968D01*
X23151021Y-14392968D01*
X23309131Y-14392968D01*
X23309133Y-14392968D01*
X23461860Y-14352045D01*
X23598792Y-14272988D01*
X23710596Y-14161184D01*
X23789653Y-14024252D01*
X23819844Y-13911577D01*
X30354576Y-13911577D01*
X30354576Y-14043361D01*
X30361896Y-14070679D01*
X30388684Y-14170656D01*
X30412664Y-14212189D01*
X30454576Y-14284783D01*
X30547762Y-14377969D01*
X30661890Y-14443861D01*
X30789184Y-14477969D01*
X30789186Y-14477969D01*
X30920966Y-14477969D01*
X30920968Y-14477969D01*
X31048262Y-14443861D01*
X31162390Y-14377969D01*
X31255576Y-14284783D01*
X31321468Y-14170655D01*
X31355576Y-14043361D01*
X31355576Y-13911577D01*
X31321468Y-13784283D01*
X31255576Y-13670155D01*
X31162390Y-13576969D01*
X31072641Y-13525152D01*
X31048263Y-13511077D01*
X30963476Y-13488359D01*
X30920968Y-13476969D01*
X30789184Y-13476969D01*
X30661888Y-13511077D01*
X30547762Y-13576969D01*
X30547759Y-13576971D01*
X30454578Y-13670152D01*
X30454576Y-13670155D01*
X30388684Y-13784281D01*
X30360663Y-13888860D01*
X30354576Y-13911577D01*
X23819844Y-13911577D01*
X23830576Y-13871525D01*
X23830576Y-13713411D01*
X23789653Y-13560684D01*
X23762105Y-13512969D01*
X23710600Y-13423758D01*
X23710594Y-13423750D01*
X23598793Y-13311949D01*
X23598785Y-13311943D01*
X23461866Y-13232894D01*
X23461862Y-13232892D01*
X23461860Y-13232891D01*
X23309133Y-13191968D01*
X23151019Y-13191968D01*
X22998292Y-13232891D01*
X22998285Y-13232894D01*
X22861366Y-13311943D01*
X22861358Y-13311949D01*
X22749557Y-13423750D01*
X22749551Y-13423758D01*
X22666435Y-13567722D01*
X22665061Y-13566928D01*
X22627082Y-13614052D01*
X22560786Y-13636113D01*
X22493088Y-13618830D01*
X22445481Y-13567690D01*
X22441805Y-13559640D01*
X22439655Y-13554450D01*
X22439653Y-13554443D01*
X22401501Y-13488361D01*
X22360600Y-13417517D01*
X22360594Y-13417509D01*
X22248793Y-13305708D01*
X22248785Y-13305702D01*
X22111866Y-13226653D01*
X22111862Y-13226651D01*
X22111860Y-13226650D01*
X21959133Y-13185727D01*
X21801019Y-13185727D01*
X21648292Y-13226650D01*
X21648285Y-13226653D01*
X21511366Y-13305702D01*
X21511358Y-13305708D01*
X21399555Y-13417511D01*
X21388546Y-13436580D01*
X21337977Y-13484794D01*
X21269370Y-13498015D01*
X21204506Y-13472046D01*
X21173772Y-13436575D01*
X21160598Y-13413756D01*
X21160594Y-13413751D01*
X21048793Y-13301950D01*
X21048785Y-13301944D01*
X20911866Y-13222895D01*
X20911862Y-13222893D01*
X20911860Y-13222892D01*
X20759133Y-13181969D01*
X20601019Y-13181969D01*
X20448292Y-13222892D01*
X20448285Y-13222895D01*
X20311366Y-13301944D01*
X20311358Y-13301950D01*
X20199557Y-13413751D01*
X20199551Y-13413759D01*
X20120502Y-13550678D01*
X20120499Y-13550685D01*
X20079576Y-13703412D01*
X9929984Y-13703412D01*
X9890576Y-13635155D01*
X9797390Y-13541969D01*
X9721260Y-13498015D01*
X9683263Y-13476077D01*
X9600570Y-13453920D01*
X9555968Y-13441969D01*
X9424184Y-13441969D01*
X9296888Y-13476077D01*
X9182762Y-13541969D01*
X9182759Y-13541971D01*
X9089578Y-13635152D01*
X9089576Y-13635155D01*
X9023684Y-13749281D01*
X8995171Y-13855695D01*
X8989576Y-13876577D01*
X2950427Y-13876577D01*
X2941778Y-13855694D01*
X2941771Y-13855682D01*
X2865114Y-13740958D01*
X2865111Y-13740954D01*
X2767545Y-13643388D01*
X2767541Y-13643385D01*
X2652817Y-13566728D01*
X2652804Y-13566721D01*
X2525332Y-13513921D01*
X2525322Y-13513918D01*
X2389995Y-13487000D01*
X2389993Y-13487000D01*
X2252007Y-13487000D01*
X2252005Y-13487000D01*
X2116677Y-13513918D01*
X2116667Y-13513921D01*
X1989195Y-13566721D01*
X1989182Y-13566728D01*
X1874458Y-13643385D01*
X1874454Y-13643388D01*
X1776888Y-13740954D01*
X1776885Y-13740958D01*
X1700228Y-13855682D01*
X1700221Y-13855695D01*
X1647421Y-13983167D01*
X1647418Y-13983177D01*
X1620500Y-14118504D01*
X1620500Y-14118507D01*
X1620500Y-14256493D01*
X1620500Y-14256495D01*
X1620499Y-14256495D01*
X210500Y-14256495D01*
X210500Y-11716495D01*
X1620499Y-11716495D01*
X1647418Y-11851822D01*
X1647421Y-11851832D01*
X1700221Y-11979304D01*
X1700228Y-11979317D01*
X1776885Y-12094041D01*
X1776888Y-12094045D01*
X1874454Y-12191611D01*
X1874458Y-12191614D01*
X1989182Y-12268271D01*
X1989195Y-12268278D01*
X2089403Y-12309785D01*
X2116672Y-12321080D01*
X2116676Y-12321080D01*
X2116677Y-12321081D01*
X2252004Y-12348000D01*
X2252007Y-12348000D01*
X2389995Y-12348000D01*
X2493334Y-12327444D01*
X2525328Y-12321080D01*
X2652811Y-12268275D01*
X2767542Y-12191614D01*
X2865114Y-12094042D01*
X2941775Y-11979311D01*
X2994580Y-11851828D01*
X3008153Y-11783591D01*
X3021500Y-11716495D01*
X3021500Y-11578504D01*
X2994581Y-11443177D01*
X2994580Y-11443176D01*
X2994580Y-11443172D01*
X2978681Y-11404788D01*
X2941778Y-11315695D01*
X2941771Y-11315682D01*
X2865114Y-11200958D01*
X2865111Y-11200954D01*
X2767545Y-11103388D01*
X2767541Y-11103385D01*
X2652817Y-11026728D01*
X2652808Y-11026723D01*
X2636204Y-11019846D01*
X2636202Y-11019845D01*
X2525332Y-10973921D01*
X2525322Y-10973918D01*
X2389995Y-10947000D01*
X2389993Y-10947000D01*
X2252007Y-10947000D01*
X2252005Y-10947000D01*
X2116677Y-10973918D01*
X2116667Y-10973921D01*
X1989195Y-11026721D01*
X1989182Y-11026728D01*
X1874458Y-11103385D01*
X1874454Y-11103388D01*
X1776888Y-11200954D01*
X1776885Y-11200958D01*
X1700228Y-11315682D01*
X1700221Y-11315695D01*
X1647421Y-11443167D01*
X1647418Y-11443177D01*
X1620500Y-11578504D01*
X1620500Y-11578507D01*
X1620500Y-11716493D01*
X1620500Y-11716495D01*
X1620499Y-11716495D01*
X210500Y-11716495D01*
X210500Y-10913412D01*
X16699576Y-10913412D01*
X16699576Y-11071526D01*
X16738610Y-11217201D01*
X16740499Y-11224252D01*
X16740502Y-11224259D01*
X16819551Y-11361178D01*
X16819557Y-11361186D01*
X16863159Y-11404788D01*
X16896644Y-11466111D01*
X16891660Y-11535803D01*
X16863159Y-11580150D01*
X16819557Y-11623751D01*
X16819551Y-11623759D01*
X16740502Y-11760678D01*
X16740499Y-11760685D01*
X16699576Y-11913412D01*
X16699576Y-12071526D01*
X16732837Y-12195656D01*
X16740499Y-12224252D01*
X16740502Y-12224259D01*
X16819551Y-12361178D01*
X16819557Y-12361186D01*
X16863159Y-12404788D01*
X16896644Y-12466111D01*
X16891660Y-12535803D01*
X16863159Y-12580150D01*
X16819557Y-12623751D01*
X16819551Y-12623759D01*
X16740502Y-12760678D01*
X16740499Y-12760685D01*
X16699576Y-12913412D01*
X16699576Y-13071526D01*
X16740135Y-13222892D01*
X16740499Y-13224252D01*
X16740502Y-13224259D01*
X16819551Y-13361178D01*
X16819555Y-13361183D01*
X16819556Y-13361185D01*
X16931360Y-13472989D01*
X16931362Y-13472990D01*
X16931366Y-13472993D01*
X17065935Y-13550685D01*
X17068292Y-13552046D01*
X17221019Y-13592969D01*
X17221021Y-13592969D01*
X17379131Y-13592969D01*
X17379133Y-13592969D01*
X17531860Y-13552046D01*
X17668792Y-13472989D01*
X17712395Y-13429386D01*
X17773718Y-13395901D01*
X17843410Y-13400885D01*
X17887757Y-13429386D01*
X17931360Y-13472989D01*
X17931362Y-13472990D01*
X17931366Y-13472993D01*
X18065935Y-13550685D01*
X18068292Y-13552046D01*
X18221019Y-13592969D01*
X18221021Y-13592969D01*
X18379131Y-13592969D01*
X18379133Y-13592969D01*
X18531860Y-13552046D01*
X18668792Y-13472989D01*
X18712395Y-13429386D01*
X18773718Y-13395901D01*
X18843410Y-13400885D01*
X18887757Y-13429386D01*
X18931360Y-13472989D01*
X18931362Y-13472990D01*
X18931366Y-13472993D01*
X19065935Y-13550685D01*
X19068292Y-13552046D01*
X19221019Y-13592969D01*
X19221021Y-13592969D01*
X19379131Y-13592969D01*
X19379133Y-13592969D01*
X19531860Y-13552046D01*
X19668792Y-13472989D01*
X19780596Y-13361185D01*
X19859653Y-13224253D01*
X19900576Y-13071526D01*
X19900576Y-12913412D01*
X19859653Y-12760685D01*
X19788000Y-12636577D01*
X30354576Y-12636577D01*
X30354576Y-12768360D01*
X30388684Y-12895656D01*
X30418084Y-12946577D01*
X30454576Y-13009783D01*
X30547762Y-13102969D01*
X30661890Y-13168861D01*
X30789184Y-13202969D01*
X30789186Y-13202969D01*
X30920966Y-13202969D01*
X30920968Y-13202969D01*
X31048262Y-13168861D01*
X31162390Y-13102969D01*
X31168782Y-13096577D01*
X44089576Y-13096577D01*
X44089576Y-13228361D01*
X44105115Y-13286355D01*
X44123684Y-13355656D01*
X44156630Y-13412719D01*
X44189576Y-13469783D01*
X44282762Y-13562969D01*
X44396890Y-13628861D01*
X44524184Y-13662969D01*
X44524186Y-13662969D01*
X44655966Y-13662969D01*
X44655968Y-13662969D01*
X44783262Y-13628861D01*
X44897390Y-13562969D01*
X44990576Y-13469783D01*
X45056468Y-13355655D01*
X45064259Y-13326577D01*
X52749576Y-13326577D01*
X52749576Y-13458361D01*
X52760201Y-13498015D01*
X52783684Y-13585656D01*
X52808628Y-13628860D01*
X52849576Y-13699783D01*
X52942762Y-13792969D01*
X53041597Y-13850032D01*
X53051404Y-13855694D01*
X53056890Y-13858861D01*
X53184184Y-13892969D01*
X53184186Y-13892969D01*
X53315966Y-13892969D01*
X53315968Y-13892969D01*
X53443262Y-13858861D01*
X53557390Y-13792969D01*
X53650576Y-13699783D01*
X53716468Y-13585655D01*
X53750576Y-13458361D01*
X53750576Y-13326577D01*
X53716468Y-13199283D01*
X53650576Y-13085155D01*
X53557390Y-12991969D01*
X53495223Y-12956077D01*
X53443263Y-12926077D01*
X53335464Y-12897193D01*
X53315968Y-12891969D01*
X53184184Y-12891969D01*
X53056888Y-12926077D01*
X52942762Y-12991969D01*
X52942759Y-12991971D01*
X52849578Y-13085152D01*
X52849576Y-13085155D01*
X52783684Y-13199281D01*
X52751397Y-13319782D01*
X52749576Y-13326577D01*
X45064259Y-13326577D01*
X45090576Y-13228361D01*
X45090576Y-13096577D01*
X45056468Y-12969283D01*
X45048843Y-12956077D01*
X45024212Y-12913414D01*
X44990576Y-12855155D01*
X44897390Y-12761969D01*
X44821859Y-12718361D01*
X44783263Y-12696077D01*
X44719615Y-12679023D01*
X44655968Y-12661969D01*
X44524184Y-12661969D01*
X44396888Y-12696077D01*
X44282762Y-12761969D01*
X44282759Y-12761971D01*
X44189578Y-12855152D01*
X44189576Y-12855155D01*
X44123684Y-12969281D01*
X44096288Y-13071526D01*
X44089576Y-13096577D01*
X31168782Y-13096577D01*
X31255576Y-13009783D01*
X31321468Y-12895655D01*
X31355576Y-12768361D01*
X31355576Y-12636577D01*
X31342179Y-12586577D01*
X54309576Y-12586577D01*
X54309576Y-12718360D01*
X54343684Y-12845656D01*
X54376630Y-12902719D01*
X54409576Y-12959783D01*
X54502762Y-13052969D01*
X54616890Y-13118861D01*
X54744184Y-13152969D01*
X54744186Y-13152969D01*
X54875965Y-13152969D01*
X54875968Y-13152969D01*
X54935875Y-13136917D01*
X55005721Y-13138580D01*
X55063583Y-13177742D01*
X55091088Y-13241970D01*
X55087740Y-13288784D01*
X55069576Y-13356575D01*
X55069576Y-13356577D01*
X55069576Y-13488361D01*
X55076425Y-13513921D01*
X55103684Y-13615656D01*
X55131000Y-13662968D01*
X55169576Y-13729783D01*
X55262762Y-13822969D01*
X55376890Y-13888861D01*
X55504184Y-13922969D01*
X55504186Y-13922969D01*
X55635966Y-13922969D01*
X55635968Y-13922969D01*
X55763262Y-13888861D01*
X55877390Y-13822969D01*
X55933782Y-13766577D01*
X58809576Y-13766577D01*
X58809576Y-13898361D01*
X58821425Y-13942582D01*
X58843684Y-14025656D01*
X58864011Y-14060862D01*
X58909576Y-14139783D01*
X59002762Y-14232969D01*
X59116890Y-14298861D01*
X59244184Y-14332969D01*
X59244186Y-14332969D01*
X59375966Y-14332969D01*
X59375968Y-14332969D01*
X59503262Y-14298861D01*
X59617390Y-14232969D01*
X59710576Y-14139783D01*
X59776468Y-14025655D01*
X59810576Y-13898361D01*
X59810576Y-13766577D01*
X59776468Y-13639283D01*
X59710576Y-13525155D01*
X59617390Y-13431969D01*
X59554919Y-13395901D01*
X59503263Y-13366077D01*
X59439615Y-13349023D01*
X59375968Y-13331969D01*
X59244184Y-13331969D01*
X59116888Y-13366077D01*
X59002762Y-13431969D01*
X59002759Y-13431971D01*
X58909578Y-13525152D01*
X58909576Y-13525155D01*
X58843684Y-13639281D01*
X58814210Y-13749281D01*
X58809576Y-13766577D01*
X55933782Y-13766577D01*
X55970576Y-13729783D01*
X56036468Y-13615655D01*
X56070576Y-13488361D01*
X56070576Y-13356577D01*
X56036468Y-13229283D01*
X55970576Y-13115155D01*
X55877390Y-13021969D01*
X55820326Y-12989023D01*
X55763263Y-12956077D01*
X55727808Y-12946577D01*
X57029576Y-12946577D01*
X57029576Y-13078361D01*
X57036170Y-13102969D01*
X57063684Y-13205656D01*
X57094934Y-13259782D01*
X57129576Y-13319783D01*
X57222762Y-13412969D01*
X57336890Y-13478861D01*
X57464184Y-13512969D01*
X57464186Y-13512969D01*
X57595966Y-13512969D01*
X57595968Y-13512969D01*
X57723262Y-13478861D01*
X57837390Y-13412969D01*
X57930576Y-13319783D01*
X57996468Y-13205655D01*
X58030576Y-13078361D01*
X58030576Y-12946577D01*
X58014499Y-12886577D01*
X62754220Y-12886577D01*
X62754220Y-13018361D01*
X62763492Y-13052966D01*
X62788328Y-13145656D01*
X62815067Y-13191968D01*
X62854220Y-13259783D01*
X62854222Y-13259785D01*
X62861927Y-13267490D01*
X62895412Y-13328813D01*
X62890428Y-13398505D01*
X62861937Y-13442843D01*
X62858551Y-13446228D01*
X62792657Y-13560359D01*
X62765163Y-13662969D01*
X62758549Y-13687654D01*
X62758549Y-13819438D01*
X62768262Y-13855689D01*
X62792657Y-13946733D01*
X62815108Y-13985618D01*
X62858549Y-14060860D01*
X62858551Y-14060862D01*
X62895745Y-14098056D01*
X62929230Y-14159379D01*
X62924246Y-14229071D01*
X62895747Y-14273416D01*
X62858459Y-14310705D01*
X62858456Y-14310709D01*
X62792564Y-14424835D01*
X62758456Y-14552131D01*
X62758456Y-14683914D01*
X62792564Y-14811210D01*
X62802258Y-14828000D01*
X62858456Y-14925337D01*
X62951642Y-15018523D01*
X63065770Y-15084415D01*
X63193064Y-15118523D01*
X63193066Y-15118523D01*
X63324846Y-15118523D01*
X63324848Y-15118523D01*
X63452142Y-15084415D01*
X63566270Y-15018523D01*
X63659456Y-14925337D01*
X63725348Y-14811209D01*
X63759456Y-14683915D01*
X63759456Y-14552131D01*
X63725348Y-14424837D01*
X63659456Y-14310709D01*
X63622259Y-14273512D01*
X63588774Y-14212189D01*
X63593758Y-14142497D01*
X63622259Y-14098150D01*
X63636505Y-14083904D01*
X63659549Y-14060860D01*
X63725441Y-13946732D01*
X63759549Y-13819438D01*
X63759549Y-13687654D01*
X63725441Y-13560360D01*
X63659549Y-13446232D01*
X63651841Y-13438524D01*
X63618356Y-13377201D01*
X63623340Y-13307509D01*
X63651846Y-13263157D01*
X63655218Y-13259785D01*
X63655218Y-13259784D01*
X63655220Y-13259783D01*
X63721112Y-13145655D01*
X63755220Y-13018361D01*
X63755220Y-12886577D01*
X67029220Y-12886577D01*
X67029220Y-13018361D01*
X67038492Y-13052966D01*
X67063328Y-13145656D01*
X67090067Y-13191968D01*
X67129220Y-13259783D01*
X67129222Y-13259785D01*
X67136927Y-13267490D01*
X67170412Y-13328813D01*
X67165428Y-13398505D01*
X67136937Y-13442843D01*
X67133551Y-13446228D01*
X67067657Y-13560359D01*
X67040163Y-13662969D01*
X67033549Y-13687654D01*
X67033549Y-13819438D01*
X67043262Y-13855689D01*
X67067657Y-13946733D01*
X67090108Y-13985618D01*
X67133549Y-14060860D01*
X67156593Y-14083904D01*
X67158849Y-14086160D01*
X67192333Y-14147484D01*
X67187347Y-14217175D01*
X67158849Y-14261520D01*
X67134576Y-14285793D01*
X67068684Y-14399919D01*
X67041340Y-14501971D01*
X67034576Y-14527215D01*
X67034576Y-14658999D01*
X67037956Y-14671614D01*
X67068684Y-14786294D01*
X67097717Y-14836579D01*
X67134576Y-14900421D01*
X67227762Y-14993607D01*
X67341890Y-15059499D01*
X67469184Y-15093607D01*
X67469186Y-15093607D01*
X67600966Y-15093607D01*
X67600968Y-15093607D01*
X67728262Y-15059499D01*
X67842390Y-14993607D01*
X67935576Y-14900421D01*
X68001468Y-14786293D01*
X68035576Y-14658999D01*
X68035576Y-14527215D01*
X68001468Y-14399921D01*
X68001098Y-14399281D01*
X67991680Y-14382968D01*
X67935576Y-14285793D01*
X67910277Y-14260494D01*
X67876792Y-14199171D01*
X67876983Y-14196495D01*
X73563499Y-14196495D01*
X73590418Y-14331822D01*
X73590421Y-14331832D01*
X73643221Y-14459304D01*
X73643228Y-14459317D01*
X73719885Y-14574041D01*
X73719888Y-14574045D01*
X73817454Y-14671611D01*
X73817458Y-14671614D01*
X73932182Y-14748271D01*
X73932195Y-14748278D01*
X74023975Y-14786294D01*
X74059672Y-14801080D01*
X74059676Y-14801080D01*
X74059677Y-14801081D01*
X74195004Y-14828000D01*
X74195007Y-14828000D01*
X74332995Y-14828000D01*
X74432141Y-14808278D01*
X74468328Y-14801080D01*
X74595811Y-14748275D01*
X74710542Y-14671614D01*
X74808114Y-14574042D01*
X74884775Y-14459311D01*
X74891545Y-14442968D01*
X74912255Y-14392967D01*
X74937580Y-14331828D01*
X74949284Y-14272988D01*
X74964500Y-14196495D01*
X74964500Y-14058504D01*
X74937581Y-13923177D01*
X74937580Y-13923176D01*
X74937580Y-13923172D01*
X74916187Y-13871524D01*
X74884778Y-13795695D01*
X74884771Y-13795682D01*
X74808114Y-13680958D01*
X74808111Y-13680954D01*
X74710545Y-13583388D01*
X74710541Y-13583385D01*
X74595817Y-13506728D01*
X74595804Y-13506721D01*
X74468332Y-13453921D01*
X74468322Y-13453918D01*
X74332995Y-13427000D01*
X74332993Y-13427000D01*
X74195007Y-13427000D01*
X74195005Y-13427000D01*
X74059677Y-13453918D01*
X74059667Y-13453921D01*
X73932195Y-13506721D01*
X73932182Y-13506728D01*
X73817458Y-13583385D01*
X73817454Y-13583388D01*
X73719888Y-13680954D01*
X73719885Y-13680958D01*
X73643228Y-13795682D01*
X73643221Y-13795695D01*
X73590421Y-13923167D01*
X73590418Y-13923177D01*
X73563500Y-14058504D01*
X73563500Y-14058507D01*
X73563500Y-14196493D01*
X73563500Y-14196495D01*
X73563499Y-14196495D01*
X67876983Y-14196495D01*
X67881776Y-14129479D01*
X67896520Y-14101494D01*
X67902688Y-14092720D01*
X67934549Y-14060860D01*
X68000441Y-13946732D01*
X68034549Y-13819438D01*
X68034549Y-13687654D01*
X68000441Y-13560360D01*
X67934549Y-13446232D01*
X67926841Y-13438524D01*
X67893356Y-13377201D01*
X67898340Y-13307509D01*
X67926846Y-13263157D01*
X67930218Y-13259785D01*
X67930218Y-13259784D01*
X67930220Y-13259783D01*
X67996112Y-13145655D01*
X68030220Y-13018361D01*
X68030220Y-12886577D01*
X67996112Y-12759283D01*
X67930220Y-12645155D01*
X67907713Y-12622648D01*
X67874229Y-12561324D01*
X67879215Y-12491632D01*
X67907712Y-12447290D01*
X67935220Y-12419783D01*
X68001112Y-12305655D01*
X68035220Y-12178361D01*
X68035220Y-12046577D01*
X68001112Y-11919283D01*
X67935220Y-11805155D01*
X67842034Y-11711969D01*
X67784970Y-11679023D01*
X67745951Y-11656495D01*
X73563499Y-11656495D01*
X73590418Y-11791822D01*
X73590421Y-11791832D01*
X73643221Y-11919304D01*
X73643228Y-11919317D01*
X73719885Y-12034041D01*
X73719888Y-12034045D01*
X73817454Y-12131611D01*
X73817458Y-12131614D01*
X73932182Y-12208271D01*
X73932195Y-12208278D01*
X74059667Y-12261078D01*
X74059672Y-12261080D01*
X74059676Y-12261080D01*
X74059677Y-12261081D01*
X74195004Y-12288000D01*
X74195007Y-12288000D01*
X74332995Y-12288000D01*
X74432141Y-12268278D01*
X74468328Y-12261080D01*
X74595811Y-12208275D01*
X74710542Y-12131614D01*
X74808114Y-12034042D01*
X74884775Y-11919311D01*
X74884788Y-11919281D01*
X74897214Y-11889281D01*
X74937580Y-11791828D01*
X74959110Y-11683590D01*
X74964500Y-11656495D01*
X74964500Y-11518504D01*
X74937581Y-11383177D01*
X74937580Y-11383176D01*
X74937580Y-11383172D01*
X74936434Y-11380406D01*
X74884778Y-11255695D01*
X74884771Y-11255682D01*
X74808114Y-11140958D01*
X74808111Y-11140954D01*
X74710545Y-11043388D01*
X74710541Y-11043385D01*
X74595817Y-10966728D01*
X74595804Y-10966721D01*
X74468332Y-10913921D01*
X74468322Y-10913918D01*
X74332995Y-10887000D01*
X74332993Y-10887000D01*
X74195007Y-10887000D01*
X74195005Y-10887000D01*
X74059677Y-10913918D01*
X74059667Y-10913921D01*
X73932195Y-10966721D01*
X73932182Y-10966728D01*
X73817458Y-11043385D01*
X73817454Y-11043388D01*
X73719888Y-11140954D01*
X73719885Y-11140958D01*
X73643228Y-11255682D01*
X73643221Y-11255695D01*
X73590421Y-11383167D01*
X73590418Y-11383177D01*
X73563500Y-11518504D01*
X73563500Y-11518507D01*
X73563500Y-11656493D01*
X73563500Y-11656495D01*
X73563499Y-11656495D01*
X67745951Y-11656495D01*
X67727907Y-11646077D01*
X67707317Y-11640560D01*
X67600612Y-11611969D01*
X67468828Y-11611969D01*
X67341532Y-11646077D01*
X67227406Y-11711969D01*
X67227403Y-11711971D01*
X67134222Y-11805152D01*
X67134220Y-11805155D01*
X67068328Y-11919281D01*
X67052242Y-11979317D01*
X67034220Y-12046577D01*
X67034220Y-12178361D01*
X67037771Y-12191614D01*
X67068328Y-12305656D01*
X67091133Y-12345155D01*
X67134220Y-12419783D01*
X67134222Y-12419785D01*
X67156724Y-12442287D01*
X67190209Y-12503610D01*
X67185225Y-12573302D01*
X67156727Y-12617647D01*
X67129220Y-12645155D01*
X67063328Y-12759281D01*
X67037640Y-12855152D01*
X67029220Y-12886577D01*
X63755220Y-12886577D01*
X63721112Y-12759283D01*
X63655220Y-12645155D01*
X63632713Y-12622648D01*
X63599229Y-12561324D01*
X63604215Y-12491632D01*
X63632712Y-12447290D01*
X63660220Y-12419783D01*
X63726112Y-12305655D01*
X63760220Y-12178361D01*
X63760220Y-12046577D01*
X63726112Y-11919283D01*
X63660220Y-11805155D01*
X63567034Y-11711969D01*
X63509970Y-11679023D01*
X63452907Y-11646077D01*
X63369583Y-11623751D01*
X63325612Y-11611969D01*
X63193828Y-11611969D01*
X63066532Y-11646077D01*
X62952406Y-11711969D01*
X62952403Y-11711971D01*
X62859222Y-11805152D01*
X62859220Y-11805155D01*
X62793328Y-11919281D01*
X62777242Y-11979317D01*
X62759220Y-12046577D01*
X62759220Y-12178361D01*
X62762771Y-12191614D01*
X62793328Y-12305656D01*
X62816133Y-12345155D01*
X62859220Y-12419783D01*
X62859222Y-12419785D01*
X62881724Y-12442287D01*
X62915209Y-12503610D01*
X62910225Y-12573302D01*
X62881727Y-12617647D01*
X62854220Y-12645155D01*
X62788328Y-12759281D01*
X62762640Y-12855152D01*
X62754220Y-12886577D01*
X58014499Y-12886577D01*
X57996468Y-12819283D01*
X57930576Y-12705155D01*
X57837390Y-12611969D01*
X57749671Y-12561324D01*
X57723263Y-12546077D01*
X57659615Y-12529023D01*
X57595968Y-12511969D01*
X57464184Y-12511969D01*
X57336888Y-12546077D01*
X57222762Y-12611969D01*
X57222759Y-12611971D01*
X57129578Y-12705152D01*
X57129576Y-12705155D01*
X57063684Y-12819281D01*
X57056617Y-12845656D01*
X57029576Y-12946577D01*
X55727808Y-12946577D01*
X55651299Y-12926077D01*
X55635968Y-12921969D01*
X55504184Y-12921969D01*
X55504182Y-12921969D01*
X55444278Y-12938020D01*
X55374428Y-12936357D01*
X55316566Y-12897193D01*
X55289063Y-12832965D01*
X55292410Y-12786155D01*
X55310576Y-12718361D01*
X55310576Y-12586577D01*
X55276468Y-12459283D01*
X55210576Y-12345155D01*
X55117390Y-12251969D01*
X55030788Y-12201969D01*
X55003263Y-12186077D01*
X54939615Y-12169023D01*
X54875968Y-12151969D01*
X54744184Y-12151969D01*
X54616888Y-12186077D01*
X54502762Y-12251969D01*
X54502759Y-12251971D01*
X54409578Y-12345152D01*
X54409576Y-12345155D01*
X54343684Y-12459281D01*
X54309576Y-12586577D01*
X31342179Y-12586577D01*
X31321468Y-12509283D01*
X31255576Y-12395155D01*
X31162390Y-12301969D01*
X31091570Y-12261081D01*
X31048263Y-12236077D01*
X30984615Y-12219023D01*
X30920968Y-12201969D01*
X30789184Y-12201969D01*
X30661888Y-12236077D01*
X30547762Y-12301969D01*
X30547759Y-12301971D01*
X30454578Y-12395152D01*
X30454576Y-12395155D01*
X30388684Y-12509281D01*
X30354576Y-12636577D01*
X19788000Y-12636577D01*
X19780596Y-12623753D01*
X19730725Y-12573882D01*
X19725415Y-12566790D01*
X19716175Y-12542025D01*
X19703508Y-12518827D01*
X19704153Y-12509803D01*
X19700991Y-12501328D01*
X19706606Y-12475501D01*
X19708492Y-12449135D01*
X19714306Y-12440087D01*
X19715836Y-12433053D01*
X19724211Y-12424675D01*
X19736993Y-12404788D01*
X19751999Y-12389782D01*
X19780596Y-12361185D01*
X19859653Y-12224253D01*
X19900576Y-12071526D01*
X19900576Y-12016577D01*
X44919576Y-12016577D01*
X44919576Y-12148361D01*
X44932248Y-12195655D01*
X44953684Y-12275656D01*
X44971005Y-12305656D01*
X45019576Y-12389783D01*
X45112762Y-12482969D01*
X45226890Y-12548861D01*
X45354184Y-12582969D01*
X45354186Y-12582969D01*
X45485966Y-12582969D01*
X45485968Y-12582969D01*
X45613262Y-12548861D01*
X45727390Y-12482969D01*
X45820576Y-12389783D01*
X45886468Y-12275655D01*
X45920576Y-12148361D01*
X45920576Y-12016577D01*
X45910589Y-11979304D01*
X45905564Y-11960549D01*
X45905562Y-11960544D01*
X45899140Y-11936577D01*
X51409576Y-11936577D01*
X51409576Y-12068360D01*
X51443684Y-12195656D01*
X51467022Y-12236077D01*
X51509576Y-12309783D01*
X51602762Y-12402969D01*
X51682724Y-12449135D01*
X51716886Y-12468859D01*
X51716890Y-12468861D01*
X51844184Y-12502969D01*
X51844186Y-12502969D01*
X51975966Y-12502969D01*
X51975968Y-12502969D01*
X52103262Y-12468861D01*
X52217390Y-12402969D01*
X52310576Y-12309783D01*
X52376468Y-12195655D01*
X52410576Y-12068361D01*
X52410576Y-11936577D01*
X59239576Y-11936577D01*
X59239576Y-12068360D01*
X59273684Y-12195656D01*
X59297022Y-12236077D01*
X59339576Y-12309783D01*
X59432762Y-12402969D01*
X59512724Y-12449135D01*
X59546886Y-12468859D01*
X59546890Y-12468861D01*
X59674184Y-12502969D01*
X59674186Y-12502969D01*
X59805966Y-12502969D01*
X59805968Y-12502969D01*
X59933262Y-12468861D01*
X60047390Y-12402969D01*
X60140576Y-12309783D01*
X60206468Y-12195655D01*
X60240576Y-12068361D01*
X60240576Y-11936577D01*
X60206468Y-11809283D01*
X60140576Y-11695155D01*
X60047390Y-11601969D01*
X59990326Y-11569023D01*
X59933263Y-11536077D01*
X59869615Y-11519023D01*
X59805968Y-11501969D01*
X59674184Y-11501969D01*
X59546888Y-11536077D01*
X59432762Y-11601969D01*
X59432759Y-11601971D01*
X59339578Y-11695152D01*
X59339576Y-11695155D01*
X59273684Y-11809281D01*
X59239576Y-11936577D01*
X52410576Y-11936577D01*
X52376468Y-11809283D01*
X52310576Y-11695155D01*
X52217390Y-11601969D01*
X52160326Y-11569023D01*
X52103263Y-11536077D01*
X52039615Y-11519023D01*
X51975968Y-11501969D01*
X51844184Y-11501969D01*
X51716888Y-11536077D01*
X51602762Y-11601969D01*
X51602759Y-11601971D01*
X51509578Y-11695152D01*
X51509576Y-11695155D01*
X51443684Y-11809281D01*
X51409576Y-11936577D01*
X45899140Y-11936577D01*
X45886468Y-11889283D01*
X45820576Y-11775155D01*
X45727390Y-11681969D01*
X45665223Y-11646077D01*
X45613263Y-11616077D01*
X45517459Y-11590407D01*
X45485968Y-11581969D01*
X45354184Y-11581969D01*
X45226888Y-11616077D01*
X45112762Y-11681969D01*
X45112759Y-11681971D01*
X45019578Y-11775152D01*
X45019576Y-11775155D01*
X44953684Y-11889281D01*
X44929563Y-11979304D01*
X44919576Y-12016577D01*
X19900576Y-12016577D01*
X19900576Y-11913412D01*
X19859653Y-11760685D01*
X19815143Y-11683590D01*
X19780600Y-11623759D01*
X19780594Y-11623751D01*
X19736993Y-11580150D01*
X19703508Y-11518827D01*
X19708492Y-11449135D01*
X19736993Y-11404788D01*
X19758614Y-11383167D01*
X19780596Y-11361185D01*
X19859653Y-11224253D01*
X19861876Y-11215956D01*
X21019576Y-11215956D01*
X21019576Y-11347739D01*
X21053684Y-11475035D01*
X21064265Y-11493361D01*
X21119576Y-11589162D01*
X21212762Y-11682348D01*
X21326890Y-11748240D01*
X21454184Y-11782348D01*
X21454186Y-11782348D01*
X21585966Y-11782348D01*
X21585968Y-11782348D01*
X21713262Y-11748240D01*
X21827390Y-11682348D01*
X21920576Y-11589162D01*
X21986468Y-11475034D01*
X22020576Y-11347740D01*
X22020576Y-11217199D01*
X23719576Y-11217199D01*
X23719576Y-11348983D01*
X23728737Y-11383172D01*
X23753684Y-11476278D01*
X23778250Y-11518827D01*
X23819576Y-11590405D01*
X23912762Y-11683591D01*
X24026890Y-11749483D01*
X24154184Y-11783591D01*
X24154186Y-11783591D01*
X24285966Y-11783591D01*
X24285968Y-11783591D01*
X24413262Y-11749483D01*
X24527390Y-11683591D01*
X24620576Y-11590405D01*
X24686468Y-11476277D01*
X24720576Y-11348983D01*
X24720576Y-11217199D01*
X24686468Y-11089905D01*
X24653086Y-11032086D01*
X24638717Y-11007198D01*
X25059576Y-11007198D01*
X25059576Y-11138982D01*
X25064044Y-11155656D01*
X25093684Y-11266277D01*
X25109095Y-11292969D01*
X25159576Y-11380404D01*
X25252762Y-11473590D01*
X25366890Y-11539482D01*
X25494184Y-11573590D01*
X25494186Y-11573590D01*
X25625966Y-11573590D01*
X25625968Y-11573590D01*
X25753262Y-11539482D01*
X25867390Y-11473590D01*
X25960576Y-11380404D01*
X26026468Y-11266276D01*
X26045301Y-11195986D01*
X26081666Y-11136327D01*
X26144513Y-11105798D01*
X26213888Y-11114093D01*
X26267766Y-11158578D01*
X26284849Y-11195985D01*
X26290534Y-11217199D01*
X26303684Y-11266277D01*
X26319095Y-11292969D01*
X26369576Y-11380404D01*
X26462762Y-11473590D01*
X26576890Y-11539482D01*
X26704184Y-11573590D01*
X26704186Y-11573590D01*
X26835966Y-11573590D01*
X26835968Y-11573590D01*
X26963262Y-11539482D01*
X27077390Y-11473590D01*
X27170576Y-11380404D01*
X27181446Y-11361577D01*
X30379576Y-11361577D01*
X30379576Y-11493361D01*
X30384557Y-11511949D01*
X30413684Y-11620656D01*
X30428361Y-11646077D01*
X30479576Y-11734783D01*
X30572762Y-11827969D01*
X30686890Y-11893861D01*
X30814184Y-11927969D01*
X30814186Y-11927969D01*
X30945966Y-11927969D01*
X30945968Y-11927969D01*
X31073262Y-11893861D01*
X31187390Y-11827969D01*
X31280576Y-11734783D01*
X31346468Y-11620655D01*
X31380576Y-11493361D01*
X31380576Y-11361577D01*
X31346468Y-11234283D01*
X31280576Y-11120155D01*
X31187390Y-11026969D01*
X31119203Y-10987601D01*
X31073263Y-10961077D01*
X31009615Y-10944023D01*
X30945968Y-10926969D01*
X30814184Y-10926969D01*
X30686888Y-10961077D01*
X30572762Y-11026969D01*
X30572759Y-11026971D01*
X30479578Y-11120152D01*
X30479576Y-11120155D01*
X30413684Y-11234281D01*
X30380304Y-11358860D01*
X30379576Y-11361577D01*
X27181446Y-11361577D01*
X27221057Y-11292969D01*
X27221934Y-11291450D01*
X27221934Y-11291449D01*
X27226830Y-11282969D01*
X27236468Y-11266276D01*
X27270576Y-11138982D01*
X27270576Y-11007198D01*
X27236468Y-10879904D01*
X27170576Y-10765776D01*
X27077390Y-10672590D01*
X27015014Y-10636577D01*
X26963263Y-10606698D01*
X26897350Y-10589037D01*
X26835968Y-10572590D01*
X26704184Y-10572590D01*
X26576888Y-10606698D01*
X26462762Y-10672590D01*
X26462759Y-10672592D01*
X26369578Y-10765773D01*
X26369576Y-10765776D01*
X26340176Y-10816699D01*
X26303684Y-10879904D01*
X26285706Y-10947000D01*
X26284851Y-10950192D01*
X26248486Y-11009852D01*
X26185639Y-11040381D01*
X26116263Y-11032086D01*
X26062386Y-10987601D01*
X26045301Y-10950192D01*
X26044446Y-10947000D01*
X26026468Y-10879904D01*
X25960576Y-10765776D01*
X25867390Y-10672590D01*
X25805014Y-10636577D01*
X25753263Y-10606698D01*
X25687350Y-10589037D01*
X25625968Y-10572590D01*
X25494184Y-10572590D01*
X25366888Y-10606698D01*
X25252762Y-10672590D01*
X25252759Y-10672592D01*
X25159578Y-10765773D01*
X25159576Y-10765776D01*
X25093684Y-10879902D01*
X25067996Y-10975774D01*
X25059576Y-11007198D01*
X24638717Y-11007198D01*
X24620578Y-10975780D01*
X24620573Y-10975774D01*
X24527392Y-10882593D01*
X24527390Y-10882591D01*
X24430375Y-10826579D01*
X24413263Y-10816699D01*
X24300019Y-10786356D01*
X24285968Y-10782591D01*
X24154184Y-10782591D01*
X24026888Y-10816699D01*
X23912762Y-10882591D01*
X23912759Y-10882593D01*
X23819578Y-10975774D01*
X23819576Y-10975777D01*
X23753684Y-11089903D01*
X23724242Y-11199785D01*
X23719576Y-11217199D01*
X22020576Y-11217199D01*
X22020576Y-11215956D01*
X21986468Y-11088662D01*
X21984732Y-11085656D01*
X21977639Y-11073369D01*
X21920576Y-10974534D01*
X21827390Y-10881348D01*
X21732528Y-10826579D01*
X21713263Y-10815456D01*
X21604658Y-10786356D01*
X21585968Y-10781348D01*
X21454184Y-10781348D01*
X21326888Y-10815456D01*
X21212762Y-10881348D01*
X21212759Y-10881350D01*
X21119578Y-10974531D01*
X21119576Y-10974534D01*
X21053684Y-11088660D01*
X21019576Y-11215956D01*
X19861876Y-11215956D01*
X19900576Y-11071526D01*
X19900576Y-10913412D01*
X19859653Y-10760685D01*
X19834189Y-10716579D01*
X19780600Y-10623759D01*
X19780594Y-10623751D01*
X19668793Y-10511950D01*
X19668785Y-10511944D01*
X19531866Y-10432895D01*
X19531862Y-10432893D01*
X19531860Y-10432892D01*
X19379133Y-10391969D01*
X19221019Y-10391969D01*
X19068292Y-10432892D01*
X19068285Y-10432895D01*
X18931366Y-10511944D01*
X18931358Y-10511950D01*
X18887757Y-10555552D01*
X18826434Y-10589037D01*
X18756742Y-10584053D01*
X18712395Y-10555552D01*
X18668793Y-10511950D01*
X18668785Y-10511944D01*
X18531866Y-10432895D01*
X18531862Y-10432893D01*
X18531860Y-10432892D01*
X18379133Y-10391969D01*
X18221019Y-10391969D01*
X18068292Y-10432892D01*
X18068285Y-10432895D01*
X17931366Y-10511944D01*
X17931358Y-10511950D01*
X17887757Y-10555552D01*
X17826434Y-10589037D01*
X17756742Y-10584053D01*
X17712395Y-10555552D01*
X17668793Y-10511950D01*
X17668785Y-10511944D01*
X17531866Y-10432895D01*
X17531862Y-10432893D01*
X17531860Y-10432892D01*
X17379133Y-10391969D01*
X17221019Y-10391969D01*
X17068292Y-10432892D01*
X17068285Y-10432895D01*
X16931366Y-10511944D01*
X16931358Y-10511950D01*
X16819557Y-10623751D01*
X16819551Y-10623759D01*
X16740502Y-10760678D01*
X16740499Y-10760685D01*
X16699576Y-10913412D01*
X210500Y-10913412D01*
X210500Y-10111577D01*
X43989576Y-10111577D01*
X43989576Y-10243360D01*
X44023684Y-10370656D01*
X44037827Y-10395152D01*
X44089576Y-10484783D01*
X44182762Y-10577969D01*
X44281597Y-10635032D01*
X44296886Y-10643859D01*
X44296890Y-10643861D01*
X44424184Y-10677969D01*
X44424186Y-10677969D01*
X44555966Y-10677969D01*
X44555968Y-10677969D01*
X44683262Y-10643861D01*
X44785770Y-10584677D01*
X44853669Y-10568204D01*
X44919696Y-10591056D01*
X44962887Y-10645977D01*
X44968837Y-10708284D01*
X44970637Y-10708521D01*
X44969576Y-10716579D01*
X44969576Y-10848360D01*
X45003684Y-10975656D01*
X45029197Y-11019845D01*
X45069576Y-11089783D01*
X45162762Y-11182969D01*
X45276890Y-11248861D01*
X45404184Y-11282969D01*
X45404186Y-11282969D01*
X45535966Y-11282969D01*
X45535968Y-11282969D01*
X45663262Y-11248861D01*
X45777390Y-11182969D01*
X45870576Y-11089783D01*
X45936468Y-10975655D01*
X45957657Y-10896577D01*
X52589576Y-10896577D01*
X52589576Y-11028361D01*
X52598340Y-11061070D01*
X52623684Y-11155656D01*
X52649837Y-11200954D01*
X52689576Y-11269783D01*
X52782762Y-11362969D01*
X52896890Y-11428861D01*
X53024184Y-11462969D01*
X53024186Y-11462969D01*
X53155966Y-11462969D01*
X53155968Y-11462969D01*
X53283262Y-11428861D01*
X53397390Y-11362969D01*
X53490576Y-11269783D01*
X53556468Y-11155655D01*
X53590576Y-11028361D01*
X53590576Y-10896577D01*
X53556468Y-10769283D01*
X53555936Y-10768362D01*
X53510955Y-10690452D01*
X53510954Y-10690451D01*
X53490576Y-10655155D01*
X53471998Y-10636577D01*
X57009576Y-10636577D01*
X57009576Y-10768361D01*
X57009823Y-10769281D01*
X57043684Y-10895656D01*
X57044216Y-10896577D01*
X57109576Y-11009783D01*
X57202762Y-11102969D01*
X57316890Y-11168861D01*
X57444184Y-11202969D01*
X57444186Y-11202969D01*
X57575966Y-11202969D01*
X57575968Y-11202969D01*
X57703262Y-11168861D01*
X57817390Y-11102969D01*
X57910576Y-11009783D01*
X57976468Y-10895655D01*
X57994977Y-10826577D01*
X65579576Y-10826577D01*
X65579576Y-10958361D01*
X65587411Y-10987601D01*
X65613684Y-11085656D01*
X65642940Y-11136327D01*
X65679576Y-11199783D01*
X65772762Y-11292969D01*
X65886890Y-11358861D01*
X66014184Y-11392969D01*
X66014186Y-11392969D01*
X66145966Y-11392969D01*
X66145968Y-11392969D01*
X66273262Y-11358861D01*
X66387390Y-11292969D01*
X66480576Y-11199783D01*
X66546468Y-11085655D01*
X66580576Y-10958361D01*
X66580576Y-10826577D01*
X66546468Y-10699283D01*
X66480576Y-10585155D01*
X66387390Y-10491969D01*
X66302515Y-10442966D01*
X66273263Y-10426077D01*
X66157858Y-10395155D01*
X66145968Y-10391969D01*
X66014184Y-10391969D01*
X65886888Y-10426077D01*
X65772762Y-10491969D01*
X65772759Y-10491971D01*
X65679578Y-10585152D01*
X65679576Y-10585155D01*
X65613684Y-10699281D01*
X65590353Y-10786356D01*
X65579576Y-10826577D01*
X57994977Y-10826577D01*
X58010576Y-10768361D01*
X58010576Y-10636577D01*
X57976468Y-10509283D01*
X57976224Y-10508861D01*
X57938181Y-10442969D01*
X57910576Y-10395155D01*
X57817390Y-10301969D01*
X57760326Y-10269023D01*
X57703263Y-10236077D01*
X57639615Y-10219023D01*
X57575968Y-10201969D01*
X57444184Y-10201969D01*
X57316888Y-10236077D01*
X57202762Y-10301969D01*
X57202759Y-10301971D01*
X57109578Y-10395152D01*
X57109576Y-10395155D01*
X57043684Y-10509281D01*
X57009576Y-10636577D01*
X53471998Y-10636577D01*
X53397390Y-10561969D01*
X53310755Y-10511950D01*
X53283263Y-10496077D01*
X53205168Y-10475152D01*
X53155968Y-10461969D01*
X53024184Y-10461969D01*
X52896888Y-10496077D01*
X52782762Y-10561969D01*
X52782759Y-10561971D01*
X52689578Y-10655152D01*
X52689576Y-10655155D01*
X52623684Y-10769281D01*
X52593323Y-10882593D01*
X52589576Y-10896577D01*
X45957657Y-10896577D01*
X45970576Y-10848361D01*
X45970576Y-10716577D01*
X45936468Y-10589283D01*
X45933448Y-10584053D01*
X45916993Y-10555552D01*
X45870576Y-10475155D01*
X45777390Y-10381969D01*
X45720326Y-10349023D01*
X45663263Y-10316077D01*
X45599615Y-10299023D01*
X45535968Y-10281969D01*
X45404184Y-10281969D01*
X45276890Y-10316077D01*
X45276889Y-10316077D01*
X45276887Y-10316078D01*
X45276886Y-10316078D01*
X45174381Y-10375260D01*
X45106481Y-10391733D01*
X45040454Y-10368880D01*
X44997263Y-10313959D01*
X44991314Y-10251653D01*
X44989515Y-10251417D01*
X44990576Y-10243359D01*
X44990576Y-10111579D01*
X44990576Y-10111577D01*
X44956468Y-9984283D01*
X44952019Y-9976577D01*
X51289576Y-9976577D01*
X51289576Y-10108361D01*
X51306630Y-10172008D01*
X51323684Y-10235656D01*
X51328132Y-10243360D01*
X51389576Y-10349783D01*
X51482762Y-10442969D01*
X51596890Y-10508861D01*
X51724184Y-10542969D01*
X51724186Y-10542969D01*
X51855966Y-10542969D01*
X51855968Y-10542969D01*
X51983262Y-10508861D01*
X52097390Y-10442969D01*
X52190576Y-10349783D01*
X52256468Y-10235655D01*
X52290576Y-10108361D01*
X52290576Y-9976577D01*
X52256468Y-9849283D01*
X52190576Y-9735155D01*
X52097390Y-9641969D01*
X52040326Y-9609023D01*
X51983263Y-9576077D01*
X51919615Y-9559023D01*
X51855968Y-9541969D01*
X51724184Y-9541969D01*
X51596888Y-9576077D01*
X51482762Y-9641969D01*
X51482759Y-9641971D01*
X51389578Y-9735152D01*
X51389576Y-9735155D01*
X51323684Y-9849281D01*
X51318092Y-9870152D01*
X51289576Y-9976577D01*
X44952019Y-9976577D01*
X44890576Y-9870155D01*
X44797390Y-9776969D01*
X44724961Y-9735152D01*
X44683263Y-9711077D01*
X44619615Y-9694023D01*
X44555968Y-9676969D01*
X44424184Y-9676969D01*
X44296888Y-9711077D01*
X44182762Y-9776969D01*
X44182759Y-9776971D01*
X44089578Y-9870152D01*
X44089576Y-9870155D01*
X44023684Y-9984281D01*
X43989576Y-10111577D01*
X210500Y-10111577D01*
X210500Y-7358199D01*
X7154576Y-7358199D01*
X7154576Y-8166738D01*
X7157429Y-8197168D01*
X7157429Y-8197170D01*
X7202282Y-8325349D01*
X7202283Y-8325351D01*
X7282926Y-8434619D01*
X7392194Y-8515262D01*
X7434921Y-8530213D01*
X7520375Y-8560115D01*
X7550806Y-8562969D01*
X7550810Y-8562969D01*
X8909346Y-8562969D01*
X8939775Y-8560115D01*
X8939777Y-8560115D01*
X9003866Y-8537688D01*
X9067958Y-8515262D01*
X9177226Y-8434619D01*
X9257869Y-8325351D01*
X9280295Y-8261259D01*
X9302722Y-8197170D01*
X9302722Y-8197168D01*
X9305576Y-8166738D01*
X9305576Y-8113412D01*
X66069576Y-8113412D01*
X66069576Y-8271526D01*
X66083999Y-8325351D01*
X66110499Y-8424252D01*
X66110502Y-8424259D01*
X66189551Y-8561178D01*
X66189555Y-8561183D01*
X66189556Y-8561185D01*
X66301360Y-8672989D01*
X66301362Y-8672990D01*
X66301366Y-8672993D01*
X66438285Y-8752042D01*
X66438292Y-8752046D01*
X66591019Y-8792969D01*
X66591021Y-8792969D01*
X66749131Y-8792969D01*
X66749133Y-8792969D01*
X66901860Y-8752046D01*
X67038792Y-8672989D01*
X67150596Y-8561185D01*
X67229653Y-8424253D01*
X67270576Y-8271526D01*
X67270576Y-8113412D01*
X67229653Y-7960685D01*
X67229649Y-7960678D01*
X67150600Y-7823759D01*
X67150594Y-7823751D01*
X67038793Y-7711950D01*
X67038785Y-7711944D01*
X66901866Y-7632895D01*
X66901862Y-7632893D01*
X66901860Y-7632892D01*
X66749133Y-7591969D01*
X66591019Y-7591969D01*
X66438292Y-7632892D01*
X66438285Y-7632895D01*
X66301366Y-7711944D01*
X66301358Y-7711950D01*
X66189557Y-7823751D01*
X66189551Y-7823759D01*
X66110502Y-7960678D01*
X66110499Y-7960685D01*
X66069576Y-8113412D01*
X9305576Y-8113412D01*
X9305576Y-7358205D01*
X9305575Y-7358199D01*
X9304485Y-7346577D01*
X39109576Y-7346577D01*
X39109576Y-7478360D01*
X39143684Y-7605656D01*
X39159409Y-7632892D01*
X39209576Y-7719783D01*
X39302762Y-7812969D01*
X39416890Y-7878861D01*
X39544184Y-7912969D01*
X39544186Y-7912969D01*
X39675966Y-7912969D01*
X39675968Y-7912969D01*
X39803262Y-7878861D01*
X39917390Y-7812969D01*
X40010576Y-7719783D01*
X40076468Y-7605655D01*
X40110576Y-7478361D01*
X40110576Y-7346577D01*
X40094499Y-7286577D01*
X57309576Y-7286577D01*
X57309576Y-7418360D01*
X57343684Y-7545656D01*
X57370423Y-7591969D01*
X57409576Y-7659783D01*
X57502762Y-7752969D01*
X57601597Y-7810032D01*
X57606679Y-7812966D01*
X57616890Y-7818861D01*
X57744184Y-7852969D01*
X57744186Y-7852969D01*
X57875966Y-7852969D01*
X57875968Y-7852969D01*
X58003262Y-7818861D01*
X58117390Y-7752969D01*
X58210576Y-7659783D01*
X58276468Y-7545655D01*
X58310576Y-7418361D01*
X58310576Y-7286577D01*
X58276468Y-7159283D01*
X58210576Y-7045155D01*
X58117390Y-6951969D01*
X58048108Y-6911969D01*
X58003263Y-6886077D01*
X57939615Y-6869023D01*
X57875968Y-6851969D01*
X57744184Y-6851969D01*
X57616888Y-6886077D01*
X57502762Y-6951969D01*
X57502759Y-6951971D01*
X57409578Y-7045152D01*
X57409576Y-7045155D01*
X57343684Y-7159281D01*
X57309576Y-7286577D01*
X40094499Y-7286577D01*
X40076468Y-7219283D01*
X40010576Y-7105155D01*
X39917390Y-7011969D01*
X39835731Y-6964823D01*
X39803263Y-6946077D01*
X39739615Y-6929023D01*
X39675968Y-6911969D01*
X39544184Y-6911969D01*
X39416888Y-6946077D01*
X39302762Y-7011969D01*
X39302759Y-7011971D01*
X39209578Y-7105152D01*
X39209576Y-7105155D01*
X39143684Y-7219281D01*
X39109576Y-7346577D01*
X9304485Y-7346577D01*
X9302722Y-7327770D01*
X9302722Y-7327769D01*
X9302722Y-7327767D01*
X9257869Y-7199588D01*
X9257868Y-7199586D01*
X9228123Y-7159283D01*
X9177226Y-7090319D01*
X9067958Y-7009676D01*
X9067956Y-7009675D01*
X8939776Y-6964822D01*
X8909346Y-6961969D01*
X8909342Y-6961969D01*
X7550810Y-6961969D01*
X7550806Y-6961969D01*
X7520376Y-6964822D01*
X7520374Y-6964822D01*
X7392195Y-7009675D01*
X7392193Y-7009676D01*
X7282926Y-7090319D01*
X7202283Y-7199586D01*
X7202282Y-7199588D01*
X7157429Y-7327767D01*
X7157429Y-7327769D01*
X7154576Y-7358199D01*
X210500Y-7358199D01*
X210500Y-2354995D01*
X10891999Y-2354995D01*
X10918918Y-2490322D01*
X10918921Y-2490332D01*
X10971721Y-2617804D01*
X10971728Y-2617817D01*
X11048385Y-2732541D01*
X11048388Y-2732545D01*
X11145954Y-2830111D01*
X11145958Y-2830114D01*
X11260682Y-2906771D01*
X11260695Y-2906778D01*
X11388167Y-2959578D01*
X11388172Y-2959580D01*
X11388176Y-2959580D01*
X11388177Y-2959581D01*
X11523504Y-2986500D01*
X11523507Y-2986500D01*
X11661495Y-2986500D01*
X11752541Y-2968389D01*
X11796828Y-2959580D01*
X11924311Y-2906775D01*
X12039042Y-2830114D01*
X12136614Y-2732542D01*
X12213275Y-2617811D01*
X12266080Y-2490328D01*
X12293000Y-2354995D01*
X13432001Y-2354995D01*
X13458920Y-2490322D01*
X13458923Y-2490332D01*
X13511723Y-2617804D01*
X13511730Y-2617817D01*
X13588387Y-2732541D01*
X13588390Y-2732545D01*
X13685956Y-2830111D01*
X13685960Y-2830114D01*
X13800684Y-2906771D01*
X13800697Y-2906778D01*
X13928169Y-2959578D01*
X13928174Y-2959580D01*
X13928178Y-2959580D01*
X13928179Y-2959581D01*
X14063506Y-2986500D01*
X14063509Y-2986500D01*
X14201497Y-2986500D01*
X14292543Y-2968389D01*
X14336830Y-2959580D01*
X14464313Y-2906775D01*
X14579044Y-2830114D01*
X14676616Y-2732542D01*
X14753277Y-2617811D01*
X14806082Y-2490328D01*
X14833002Y-2354993D01*
X14833002Y-2217007D01*
X14833002Y-2217004D01*
X14806083Y-2081677D01*
X14806082Y-2081676D01*
X14806082Y-2081672D01*
X14783004Y-2025956D01*
X14753280Y-1954195D01*
X14753273Y-1954182D01*
X14676616Y-1839458D01*
X14676613Y-1839454D01*
X14579047Y-1741888D01*
X14579043Y-1741885D01*
X14464319Y-1665228D01*
X14464306Y-1665221D01*
X14336834Y-1612421D01*
X14336824Y-1612418D01*
X14201497Y-1585500D01*
X14201495Y-1585500D01*
X14063509Y-1585500D01*
X14063507Y-1585500D01*
X13928179Y-1612418D01*
X13928169Y-1612421D01*
X13800697Y-1665221D01*
X13800684Y-1665228D01*
X13685960Y-1741885D01*
X13685956Y-1741888D01*
X13588390Y-1839454D01*
X13588387Y-1839458D01*
X13511730Y-1954182D01*
X13511723Y-1954195D01*
X13458923Y-2081667D01*
X13458920Y-2081677D01*
X13432002Y-2217004D01*
X13432002Y-2217007D01*
X13432002Y-2354993D01*
X13432002Y-2354995D01*
X13432001Y-2354995D01*
X12293000Y-2354995D01*
X12293000Y-2354993D01*
X12293000Y-2217007D01*
X12293000Y-2217004D01*
X12266081Y-2081677D01*
X12266080Y-2081676D01*
X12266080Y-2081672D01*
X12243002Y-2025956D01*
X12213278Y-1954195D01*
X12213271Y-1954182D01*
X12136614Y-1839458D01*
X12136611Y-1839454D01*
X12039045Y-1741888D01*
X12039041Y-1741885D01*
X11924317Y-1665228D01*
X11924304Y-1665221D01*
X11796832Y-1612421D01*
X11796822Y-1612418D01*
X11661495Y-1585500D01*
X11661493Y-1585500D01*
X11523507Y-1585500D01*
X11523505Y-1585500D01*
X11388177Y-1612418D01*
X11388167Y-1612421D01*
X11260695Y-1665221D01*
X11260682Y-1665228D01*
X11145958Y-1741885D01*
X11145954Y-1741888D01*
X11048388Y-1839454D01*
X11048385Y-1839458D01*
X10971728Y-1954182D01*
X10971721Y-1954195D01*
X10918921Y-2081667D01*
X10918918Y-2081677D01*
X10892000Y-2217004D01*
X10892000Y-2217007D01*
X10892000Y-2354993D01*
X10892000Y-2354995D01*
X10891999Y-2354995D01*
X210500Y-2354995D01*
X210500Y-2034066D01*
X210765Y-2025956D01*
X213114Y-1990118D01*
X225364Y-1803207D01*
X227479Y-1787153D01*
X270230Y-1572226D01*
X274428Y-1556561D01*
X336349Y-1374148D01*
X344868Y-1349049D01*
X351067Y-1334083D01*
X447995Y-1137533D01*
X456102Y-1123493D01*
X577844Y-941292D01*
X587709Y-928433D01*
X732207Y-763665D01*
X743665Y-752207D01*
X908433Y-607709D01*
X921291Y-597845D01*
X1103493Y-476102D01*
X1117533Y-467995D01*
X1314083Y-371067D01*
X1329049Y-364868D01*
X1535948Y-294636D01*
X1536561Y-294428D01*
X1552228Y-290230D01*
X1566149Y-287461D01*
X1767153Y-247479D01*
X1783209Y-245364D01*
X1988058Y-231938D01*
X2005958Y-230765D01*
X2014067Y-230500D01*
X2049882Y-230500D01*
X20955500Y-230500D01*
X21022539Y-250185D01*
G37*
G04 #@! TD.AperFunction*
M02*
